<svg width="96" height="100" viewBox="0 0 96 100" fill="none" xmlns="http://www.w3.org/2000/svg">
<path d="M73.3976 33.0452V21.1858C74.9673 20.4527 76.2964 19.2886 77.2301 17.8292C78.1638 16.3699 78.6635 14.6752 78.6712 12.9428V12.6655C78.6647 10.2444 77.7001 7.92433 75.9881 6.21234C74.2761 4.50035 71.956 3.53569 69.5349 3.52918H69.2576C66.8365 3.53569 64.5164 4.50035 62.8044 6.21234C61.0924 7.92433 60.1278 10.2444 60.1213 12.6655V12.9428C60.129 14.6752 60.6287 16.3699 61.5624 17.8292C62.496 19.2886 63.8251 20.4527 65.3949 21.1858V33.0699C60.8818 33.76 56.6312 35.6302 53.0734 38.4913L20.4585 13.0906C21.0794 10.7662 20.8756 8.29853 19.8818 6.10748C18.8881 3.91643 17.1658 2.13744 15.008 1.07327C12.8503 0.00909824 10.3905 -0.274491 8.04722 0.270766C5.70395 0.816022 3.62202 2.15643 2.15576 4.06387C0.689502 5.9713 -0.0704846 8.3279 0.00514597 10.7326C0.0807765 13.1373 0.98735 15.4414 2.57058 17.253C4.1538 19.0645 6.31585 20.2714 8.68876 20.6684C11.0617 21.0653 13.4988 20.6277 15.5854 19.43L47.652 44.3933C44.7637 48.7507 43.2568 53.878 43.3283 59.1053C43.3997 64.3326 45.0461 69.4168 48.0524 73.6937L38.2938 83.4523C37.5105 83.2028 36.6947 83.0699 35.8727 83.058C34.1972 83.058 32.5595 83.5548 31.1664 84.4856C29.7734 85.4164 28.6876 86.7394 28.0465 88.2873C27.4053 89.8352 27.2376 91.5384 27.5644 93.1816C27.8913 94.8248 28.6981 96.3342 29.8827 97.5189C31.0674 98.7036 32.5768 99.5104 34.22 99.8372C35.8633 100.164 37.5665 99.9963 39.1144 99.3552C40.6622 98.714 41.9852 97.6283 42.916 96.2352C43.8468 94.8422 44.3436 93.2044 44.3436 91.529C44.3321 90.7069 44.1992 89.8911 43.9494 89.1078L53.6032 79.454C56.7545 81.861 60.4142 83.5163 64.3027 84.2933C68.1913 85.0703 72.206 84.9486 76.0404 83.9374C79.8747 82.9263 83.4273 81.0524 86.4271 78.4589C89.4268 75.8653 91.7943 72.6207 93.3488 68.9727C94.9033 65.3246 95.6037 61.3696 95.3967 57.4096C95.1896 53.4496 94.0805 49.5892 92.154 46.1232C90.2274 42.6572 87.5345 39.6772 84.2806 37.4106C81.0268 35.1441 77.298 33.651 73.3792 33.0452H73.3976ZM69.3808 72.1165C66.7402 72.1105 64.1607 71.3218 61.9682 69.8502C59.7756 68.3786 58.0685 66.2901 57.0625 63.8486C56.0565 61.4072 55.7967 58.7223 56.3161 56.1333C56.8354 53.5442 58.1105 51.1672 59.9803 49.3026C61.85 47.438 64.2306 46.1695 66.821 45.6573C69.4115 45.1451 72.0956 45.4123 74.5343 46.4251C76.973 47.4378 79.0567 49.1507 80.5222 51.3473C81.9878 53.5439 82.7693 56.1256 82.7681 58.7662C82.7681 62.3086 81.3609 65.7059 78.8561 68.2107C76.3513 70.7155 72.954 72.1227 69.4117 72.1227" fill="#FF7A59"/>
</svg>
