<svg width="83" height="48" viewBox="0 0 83 48" fill="none" xmlns="http://www.w3.org/2000/svg">
<g clip-path="url(#clip0)">
<path d="M60.4132 18.0163C67.0653 15.1132 71.409 10.7534 71.6457 5.91669C71.6457 5.91669 69.8895 4.57454 64.2192 2.5048C59.24 0.687241 55.4413 0.271263 55.4413 0.271263L55.4588 11.0476C55.4588 12.6579 54.8072 14.3015 53.577 15.7567C49.8134 14.8552 45.6538 14.3493 41.2911 14.3479H41.2882C36.9226 14.3493 32.7586 14.8566 28.9906 15.7596C27.7604 14.3044 27.1073 12.6593 27.1073 11.0476L27.1234 0.271263C27.1234 0.271263 23.3276 0.687241 18.3454 2.5048C12.6751 4.57454 10.9219 5.91669 10.9219 5.91669C11.1571 10.7548 15.5022 15.1161 22.1617 18.0192C15.5081 20.9224 11.1644 25.2822 10.9292 30.1174C10.9292 30.1174 12.6839 31.461 18.3542 33.5293C23.3349 35.3468 27.1321 35.7628 27.1321 35.7628L27.1146 24.9865C27.1146 23.3762 27.7662 21.7311 28.9979 20.2774C32.7615 21.1804 36.9197 21.6848 41.2823 21.6848H41.2838C45.6508 21.6848 49.8163 21.1789 53.5828 20.273C54.813 21.7282 55.4647 23.3762 55.4647 24.9865L55.4501 35.7628C55.4501 35.7628 59.2473 35.3468 64.228 33.5293C69.8983 31.461 71.653 30.1174 71.653 30.1174C71.4163 25.2793 67.0712 20.918 60.4132 18.0163ZM41.2853 20.4412H41.2809L41.1567 20.4383C37.2177 20.4383 34.0063 19.4817 31.6511 18.0192C34.0063 16.5539 37.2192 15.5958 41.1654 15.5958L41.2867 15.5944H41.2926L41.4167 15.5958C45.3572 15.5958 48.5671 16.5524 50.9223 18.0149C48.5671 19.4788 45.3543 20.4383 41.4094 20.4383" fill="black"/>
<path d="M2.21523 47.7022C0.307109 47.7022 0.273505 46.2586 0.273505 45.702V43.0757C0.273505 42.9163 0.260356 42.7047 0.600779 42.7047H1.58698C1.90695 42.7047 1.8865 42.9308 1.8865 43.0757V45.702C1.8865 45.889 1.92156 46.3905 2.61556 46.3905H4.26946C4.9503 46.3905 4.98975 45.889 4.98975 45.702V43.0757C4.98975 42.9308 4.97076 42.7047 5.28926 42.7047H6.28277C6.64365 42.7047 6.61151 42.9308 6.61151 43.0757V45.702C6.61151 46.2586 6.5779 47.7022 4.66248 47.7022" fill="black"/>
<path d="M11.353 47.3851C10.6795 46.4851 9.7181 45.3516 8.73774 44.1544V47.3518C8.73774 47.4909 8.77281 47.7025 8.43823 47.7025H7.51777C7.18465 47.7025 7.2241 47.4909 7.2241 47.3518V43.0761C7.2241 42.9311 7.20949 42.705 7.51777 42.705H9.31193C9.81891 42.705 10.5407 43.7181 11.014 44.3863C11.3793 44.8965 12.0543 45.6632 12.5072 46.2387V43.0761C12.5072 42.9311 12.4868 42.705 12.8214 42.705H13.8207C14.1421 42.705 14.1217 42.9311 14.1217 43.0761V47.7025H12.2808C11.8863 47.7025 11.7124 47.7286 11.353 47.3851Z" fill="black"/>
<path d="M18.9373 46.3879C19.7438 46.3879 19.6853 45.6197 19.6853 45.2689C19.6853 44.0906 19.3508 44.0442 18.8175 44.0442H16.2826V46.3879H18.9373ZM14.7266 47.7039V42.7136H19.1725C19.4443 42.7136 21.2647 42.6817 21.2647 44.579C21.2647 46.5198 21.478 47.7039 19.212 47.7039H16.8159L16.2957 46.6589V47.7039" fill="black"/>
<path d="M23.0068 42.7456H27.1021C27.4498 42.7456 27.4031 42.9702 27.4031 43.3877C27.4031 43.7761 27.4557 43.995 27.1021 43.995H23.8659C23.7797 43.995 23.4875 43.9486 23.4875 44.253C23.4875 44.5573 23.4276 44.6776 23.7534 44.6776H26.6156C26.6156 44.6776 27.0291 45.4589 27.0758 45.5908C27.143 45.7096 27.1357 45.8227 26.883 45.8227H23.92L23.4597 44.9356V46.2459C23.4597 46.5503 23.7344 46.4908 23.8133 46.4908H27.1752C27.5097 46.4908 27.482 46.7213 27.482 47.0981C27.482 47.504 27.5097 47.7272 27.1752 47.7272H22.9192C22.5656 47.7272 21.873 47.6214 21.873 46.5242V43.7703C21.873 43.4862 22.0265 42.7456 23.0068 42.7456Z" fill="black"/>
<path d="M32.0766 44.0301H30.0822C29.7506 44.0301 29.7623 44.1432 29.7623 44.2432V45.136H31.8165C32.8115 45.136 32.8115 44.8896 32.8115 44.6316C32.8115 44.1156 32.772 44.0301 32.0766 44.0301ZM28.5087 42.7126H32.9912C33.5917 42.7126 34.4639 42.7068 34.4639 44.3142C34.4639 45.3665 34.2389 45.4187 33.7582 45.7433C34.5662 45.8825 34.4595 46.9072 34.4595 47.4377C34.4595 47.7087 34.3602 47.7029 34.2783 47.7029H32.9649C32.6902 47.7029 32.7574 47.2724 32.7574 47.0478C32.7574 46.4318 32.4111 46.4593 32.2767 46.4593H30.3423C30.1567 46.1405 29.7959 45.4259 29.7959 45.4259V47.4971C29.7959 47.6768 29.6147 47.7029 29.5489 47.7029H28.2296C28.3012 47.7029 28.0938 47.716 28.0938 47.5362V43.1431C28.0938 42.8315 28.3144 42.7126 28.5087 42.7126Z" fill="black"/>
<path d="M41.6495 44.1276L40.8226 45.6234L40.8956 45.6959H42.437L42.5174 45.6234C42.4633 45.5104 41.7971 44.2537 41.7299 44.1204L41.6495 44.1276ZM42.1828 42.7464C42.5101 42.7464 42.8286 42.8913 43.1763 43.5595C43.4116 44.0349 45.0392 46.9525 45.3781 47.5627V47.728H43.6833L43.1953 46.854H41.1353C41.1353 46.854 40.789 46.067 40.6896 45.8495C40.5625 46.0539 39.8817 47.3381 39.6465 47.728H37.9473V47.6222C38.2935 46.9743 40.6619 42.7464 40.6619 42.7464" fill="black"/>
<path d="M49.8231 44.0301H47.8288C47.4957 44.0301 47.5088 44.1432 47.5088 44.2432V45.136H49.5631C50.558 45.136 50.558 44.8896 50.558 44.6316C50.558 44.1156 50.5186 44.0301 49.8231 44.0301ZM46.2553 42.7126H50.7377C51.3382 42.7126 52.2119 42.7068 52.2119 44.3142C52.2119 45.3665 51.9869 45.4187 51.5048 45.7433C52.3113 45.8825 52.2046 46.9072 52.2046 47.4377C52.2046 47.7087 52.1053 47.7029 52.0249 47.7029H50.7114C50.4368 47.7029 50.504 47.2724 50.504 47.0478C50.504 46.4318 50.1577 46.4593 50.0233 46.4593H48.0889C47.9019 46.1405 47.541 45.4259 47.541 45.4259V47.4971C47.541 47.6768 47.3627 47.7029 47.2955 47.7029H45.9748C46.0478 47.7029 45.8418 47.716 45.8418 47.5362V43.1431C45.8418 42.8315 46.0624 42.7126 46.2553 42.7126Z" fill="black"/>
<path d="M56.1273 47.7022C55.7928 47.0804 54.865 45.3658 54.2382 44.2425V47.3515C54.2382 47.4906 54.2572 47.7022 53.9402 47.7022H53.0314C52.691 47.7022 52.7173 47.4906 52.7173 47.3515V43.0757C52.7173 42.9308 52.6983 42.7119 53.0314 42.7119H54.5991C54.8329 42.7119 55.1645 42.6583 55.54 43.4004C55.8205 43.9946 56.4152 45.2281 56.8213 45.8818C57.2407 45.2281 57.8485 43.9946 58.129 43.4004C58.4957 42.6583 58.8215 42.7119 59.0816 42.7119H60.642C60.9634 42.7119 60.9298 42.9308 60.9298 43.0757V47.3515C60.9298 47.4906 60.9751 47.7022 60.642 47.7022H59.7288C59.3957 47.7022 59.422 47.4906 59.422 47.3515V44.2425C58.7894 45.3658 57.8674 47.0804 57.5197 47.7022" fill="black"/>
<path d="M65.932 46.4312C66.6874 46.4312 66.6596 45.6587 66.6596 45.1413C66.6596 44.6774 66.7663 43.9498 65.7859 43.9498H64.1233C63.1502 43.9498 63.2642 44.6774 63.2642 45.1413C63.2642 45.6587 63.2174 46.4312 63.9713 46.4312H65.932ZM62.9442 47.7154C61.4569 47.7154 61.5226 46.1326 61.5226 45.1094C61.5226 44.1687 61.416 42.7005 63.2773 42.686H66.5807C68.448 42.686 68.3267 44.1745 68.3267 45.1094C68.3267 46.1326 68.4012 47.7154 66.8919 47.7154" fill="black"/>
<path d="M70.8129 47.7022C68.9033 47.7022 68.8712 46.2586 68.8712 45.702V43.0757C68.8712 42.9163 68.858 42.7047 69.1984 42.7047H70.1861C70.5046 42.7047 70.4856 42.9308 70.4856 43.0757V45.702C70.4856 45.889 70.5192 46.3905 71.2132 46.3905H72.8671C73.548 46.3905 73.5874 45.889 73.5874 45.702V43.0757C73.5874 42.9308 73.567 42.7047 73.8869 42.7047H74.8804C75.2413 42.7047 75.2092 42.9308 75.2092 43.0757V45.702C75.2092 46.2586 75.1756 47.7022 73.2601 47.7022" fill="black"/>
<path d="M79.8368 44.0301H77.8425C77.5094 44.0301 77.5225 44.1432 77.5225 44.2432V45.136H79.5767C80.5717 45.136 80.5717 44.8896 80.5717 44.6316C80.5717 44.1156 80.5323 44.0301 79.8368 44.0301ZM76.2675 42.7126H80.7514C81.3519 42.7126 82.2271 42.7068 82.2271 44.3142C82.2271 45.3665 81.9991 45.4187 81.5185 45.7433C82.3264 45.8825 82.2198 46.9072 82.2198 47.4377C82.2198 47.7087 82.1204 47.7029 82.0386 47.7029H80.7251C80.4519 47.7029 80.5176 47.2724 80.5176 47.0478C80.5176 46.4318 80.1714 46.4593 80.0384 46.4593H78.1025C77.917 46.1405 77.5561 45.4259 77.5561 45.4259V47.4971C77.5561 47.6768 77.3749 47.7029 77.3092 47.7029H75.9899C76.0615 47.7029 75.8555 47.716 75.8555 47.5362V43.1431C75.8555 42.8315 76.0761 42.7126 76.2675 42.7126Z" fill="black"/>
</g>
<defs>
<clipPath id="clip0">
<rect width="82.5" height="48" fill="white"/>
</clipPath>
</defs>
</svg>
