<svg width="516" height="482" viewBox="0 0 516 482" fill="none" xmlns="http://www.w3.org/2000/svg">
<g filter="url(#filter0_d)">
<g clip-path="url(#clip0)">
<rect x="16" y="323.602" width="289.272" height="55.6098" fill="white"/>
<path d="M286.531 347.793L285.929 347.16C285.771 347.001 285.517 347.001 285.39 347.16L279.657 352.893L273.891 347.16C273.764 347.001 273.511 347.001 273.353 347.16L272.751 347.793C272.592 347.92 272.592 348.173 272.751 348.332L279.371 354.952C279.53 355.111 279.752 355.111 279.91 354.952L286.531 348.332C286.689 348.173 286.689 347.92 286.531 347.793Z" fill="#444444"/>
<path d="M39.9731 351.53L42.2775 356.139H44.4312L41.9311 351.184C43.2866 350.717 43.9794 349.768 43.9794 348.367C43.9794 345.943 42.3377 345.22 39.1147 345.22H35.6356V356.139H37.5483V351.545H39.4008C39.5966 351.545 39.7924 351.545 39.9731 351.53ZM37.5483 346.756H39.3858C40.8919 346.756 42.0214 346.952 42.0214 348.382C42.0214 349.693 41.0877 350.024 39.446 350.024H37.5483V346.756ZM45.1382 353.91C45.1382 355.386 46.3732 356.335 48.1354 356.335C49.3252 356.335 50.2891 355.913 50.8012 355.039C50.8313 355.597 50.8915 355.792 50.9518 356.139H52.5934C52.4428 355.461 52.3524 354.392 52.3524 353.368C52.3524 352.63 52.3826 351.681 52.3826 351.274C52.4277 348.684 50.9066 347.795 48.9637 347.795C47.0058 347.795 45.6352 348.925 45.5148 350.581H47.2769C47.3221 349.602 47.9998 349.12 48.9035 349.12C49.7921 349.12 50.5903 349.542 50.5903 350.928V351.078C47.6233 351.38 45.1382 351.892 45.1382 353.91ZM50.6355 352.328V352.946C50.6355 354.316 49.8523 354.994 48.527 354.994C47.6233 354.994 47.0359 354.572 47.0359 353.865C47.0359 352.931 48.0751 352.569 50.6355 352.328ZM55.9872 349.166V348.036H54.1949V356.139H55.9872V351.831C55.9872 350.37 56.4993 349.316 57.8698 349.316C59.2404 349.316 59.406 350.386 59.406 351.485V356.139H61.1983V351.048C61.1983 349.12 60.4001 347.855 58.4421 347.855C57.3126 347.855 56.4541 348.322 55.9872 349.166ZM64.8561 345.22H63.0639V356.139H64.8561V353.548L65.7146 352.63L68.2599 356.139H70.3534L66.9044 351.364L70.007 348.036H67.8532L64.8561 351.289V345.22ZM72.9161 345.22H71.1238V347.027H72.9161V345.22ZM72.9161 348.036H71.1238V356.139H72.9161V348.036ZM76.7255 349.166V348.036H74.9332V356.139H76.7255V351.831C76.7255 350.37 77.2375 349.316 78.6081 349.316C79.9786 349.316 80.1443 350.386 80.1443 351.485V356.139H81.9365V351.048C81.9365 349.12 81.1383 347.855 79.1804 347.855C78.0508 347.855 77.1923 348.322 76.7255 349.166ZM89.1789 348.036V349.12C88.6969 348.322 87.8535 347.855 86.7691 347.855C84.8564 347.855 83.2449 349.391 83.2449 351.922C83.2449 354.452 84.8564 356.003 86.7691 356.003C87.8535 356.003 88.6969 355.536 89.1789 354.738V355.687C89.1789 356.214 89.0735 356.711 88.7722 357.058C88.471 357.419 87.9589 357.645 87.1607 357.645C86.0914 357.645 85.5944 357.329 85.4287 356.576H83.6515C83.9226 358.353 85.3383 359.061 87.1155 359.061C88.3806 359.061 89.3446 358.79 89.9922 358.187C90.6398 357.585 90.9711 356.651 90.9711 355.326V348.036H89.1789ZM87.1607 349.286C88.3355 349.286 89.2542 350.114 89.2542 351.922C89.2542 353.744 88.3355 354.588 87.1607 354.588C85.9709 354.588 85.1124 353.578 85.1124 351.922C85.1124 350.295 85.9709 349.286 87.1607 349.286Z" fill="black"/>
</g>
</g>
<g filter="url(#filter1_d)">
<g clip-path="url(#clip1)">
<rect x="16" y="392.622" width="289.272" height="69.3783" fill="white"/>
<path d="M286.531 420.542L285.929 419.908C285.771 419.75 285.517 419.75 285.39 419.908L279.657 425.642L273.891 419.908C273.764 419.75 273.511 419.75 273.353 419.908L272.751 420.542C272.592 420.668 272.592 420.922 272.751 421.08L279.371 427.701C279.53 427.859 279.752 427.859 279.91 427.701L286.531 421.08C286.689 420.922 286.689 420.668 286.531 420.542Z" fill="#444444"/>
<path d="M44.9583 419.26H43.1209C42.7895 420.751 41.7353 421.519 40.2593 421.519C38.5122 421.519 37.1718 420.043 37.1718 417.393C37.1718 414.757 38.5424 413.341 40.2744 413.341C41.6901 413.341 42.7594 414.124 43.0908 415.6H44.9282C44.4914 413.161 42.7594 411.775 40.3346 411.775C37.1718 411.775 35.1988 413.959 35.1988 417.393C35.1988 420.811 37.0513 423.086 40.2442 423.086C42.7594 423.086 44.5065 421.7 44.9583 419.26ZM54.134 418.854C54.134 415.932 52.1158 414.606 50.1428 414.606C48.1698 414.606 46.1517 415.932 46.1517 418.854C46.1517 421.775 48.1698 423.086 50.1428 423.086C52.1158 423.086 54.134 421.775 54.134 418.854ZM50.1428 421.625C49.0133 421.625 48.0042 420.721 48.0042 418.854C48.0042 416.986 49.0133 416.067 50.1428 416.067C51.2724 416.067 52.2815 416.986 52.2815 418.854C52.2815 420.721 51.2724 421.625 50.1428 421.625ZM57.3992 422.89V418.582C57.3992 417.122 57.851 416.067 59.1764 416.067C60.5017 416.067 60.6072 417.137 60.6072 418.236V422.89H62.3994V418.582C62.3994 417.122 62.8512 416.067 64.1766 416.067C65.502 416.067 65.6074 417.137 65.6074 418.236V422.89H67.3997V417.799C67.3997 415.871 66.6617 414.606 64.7489 414.606C63.7549 414.606 62.8061 415.013 62.1132 416.037C61.7367 415.133 60.9987 414.606 59.7487 414.606C58.6643 414.606 57.8661 415.073 57.3992 415.917V414.787H55.6069V422.89H57.3992ZM71.0629 422.89V418.582C71.0629 417.122 71.5147 416.067 72.8401 416.067C74.1654 416.067 74.2709 417.137 74.2709 418.236V422.89H76.0631V418.582C76.0631 417.122 76.515 416.067 77.8403 416.067C79.1657 416.067 79.2711 417.137 79.2711 418.236V422.89H81.0634V417.799C81.0634 415.871 80.3254 414.606 78.4126 414.606C77.4186 414.606 76.4698 415.013 75.777 416.037C75.4004 415.133 74.6625 414.606 73.4124 414.606C72.328 414.606 71.5298 415.073 71.0629 415.917V414.787H69.2706V422.89H71.0629ZM87.9346 421.775V422.89H89.7268V414.787H87.9346V419.11C87.9346 420.571 87.4526 421.625 86.1122 421.625C84.7718 421.625 84.6212 420.555 84.6212 419.456V414.787H82.8289V419.893C82.8289 421.821 83.6121 423.086 85.5399 423.086C86.6393 423.086 87.4677 422.619 87.9346 421.775ZM93.5367 415.917V414.787H91.7444V422.89H93.5367V418.582C93.5367 417.122 94.0488 416.067 95.4193 416.067C96.7898 416.067 96.9555 417.137 96.9555 418.236V422.89H98.7478V417.799C98.7478 415.871 97.9495 414.606 95.9916 414.606C94.862 414.606 94.0036 415.073 93.5367 415.917ZM102.406 411.971H100.613V413.778H102.406V411.971ZM102.406 414.787H100.613V422.89H102.406V414.787ZM104.679 412.648V414.787H103.474V416.082H104.679V420.766C104.679 422.423 105.025 422.89 106.757 422.89H108.083V421.519H107.435C106.667 421.519 106.471 421.324 106.471 420.495V416.082H108.098V414.787H106.471V412.648H104.679ZM109.078 425.526H109.891C111.713 425.526 112.256 424.968 113.009 422.875L115.855 414.787H114.018L112.18 420.601L110.343 414.787H108.385L111.322 422.845L111.231 423.041C110.87 424.095 110.539 424.155 109.755 424.155H109.078V425.526ZM119.584 419.863C119.584 421.685 121.03 423.086 123.228 423.086C124.674 423.086 125.849 422.513 126.753 421.625L127.912 422.89H130.367L127.852 420.164C128.44 419.14 128.786 417.98 128.906 416.85H127.099C127.054 417.543 126.918 418.251 126.677 418.884L124.93 417.001C126.135 416.444 127.039 415.45 127.039 414.185C127.039 412.392 125.503 411.775 124.117 411.775C122.37 411.775 121.075 412.694 121.075 414.155C121.075 415.013 121.542 415.826 122.234 416.64C120.804 417.152 119.584 418.206 119.584 419.863ZM123.997 415.977C123.454 415.405 122.942 414.742 122.942 414.109C122.942 413.492 123.5 413.13 124.132 413.13C124.795 413.13 125.337 413.507 125.337 414.245C125.337 414.923 124.93 415.585 124.012 415.992L123.997 415.977ZM125.744 420.51C125.156 421.188 124.403 421.625 123.545 421.625C122.234 421.625 121.451 420.902 121.451 419.757C121.451 418.808 122.069 418.116 123.183 417.694L125.744 420.51ZM136.795 413.567V422.89H138.707V413.567H142.141V411.971H133.361V413.567H136.795ZM143.076 419.351H149.115C149.266 416.625 147.715 414.606 145.23 414.606C142.925 414.606 141.253 416.338 141.253 418.778C141.253 421.098 142.745 423.086 145.35 423.086C147.444 423.086 148.648 421.76 149.025 420.465H147.263C146.947 421.218 146.209 421.595 145.275 421.595C144.251 421.595 143.196 420.857 143.076 419.351ZM143.076 418.04C143.226 416.504 144.386 416.007 145.23 416.007C146.284 416.007 147.248 416.775 147.293 418.04H143.076ZM157.728 417.558C157.427 415.751 155.86 414.606 154.098 414.606C151.688 414.606 150.122 416.444 150.122 418.854C150.122 421.263 151.673 423.086 154.023 423.086C155.755 423.086 157.427 422.016 157.788 420.119H156.041C155.815 421.203 154.927 421.595 154.053 421.595C152.999 421.595 151.975 420.766 151.975 418.838C151.975 416.926 152.984 416.097 154.098 416.097C155.077 416.097 155.83 416.7 155.981 417.558H157.728ZM160.973 415.917V411.971H159.181V422.89H160.973V418.582C160.973 417.122 161.485 416.067 162.855 416.067C164.226 416.067 164.392 417.137 164.392 418.236V422.89H166.184V417.799C166.184 415.871 165.386 414.606 163.428 414.606C162.298 414.606 161.44 415.073 160.973 415.917ZM169.842 415.917V414.787H168.049V422.89H169.842V418.582C169.842 417.122 170.354 416.067 171.724 416.067C173.095 416.067 173.261 417.137 173.261 418.236V422.89H175.053V417.799C175.053 415.871 174.255 414.606 172.297 414.606C171.167 414.606 170.309 415.073 169.842 415.917ZM178.711 411.971H176.918V413.778H178.711V411.971ZM178.711 414.787H176.918V422.89H178.711V414.787ZM187.776 417.558C187.475 415.751 185.909 414.606 184.147 414.606C181.737 414.606 180.17 416.444 180.17 418.854C180.17 421.263 181.722 423.086 184.071 423.086C185.803 423.086 187.475 422.016 187.836 420.119H186.089C185.864 421.203 184.975 421.595 184.101 421.595C183.047 421.595 182.023 420.766 182.023 418.838C182.023 416.926 183.032 416.097 184.147 416.097C185.126 416.097 185.879 416.7 186.029 417.558H187.776ZM188.673 420.661C188.673 422.137 189.908 423.086 191.671 423.086C192.86 423.086 193.824 422.664 194.336 421.79C194.366 422.348 194.427 422.543 194.487 422.89H196.129C195.978 422.212 195.888 421.143 195.888 420.119C195.888 419.381 195.918 418.432 195.918 418.025C195.963 415.435 194.442 414.546 192.499 414.546C190.541 414.546 189.17 415.676 189.05 417.332H190.812C190.857 416.353 191.535 415.871 192.439 415.871C193.327 415.871 194.126 416.293 194.126 417.679V417.829C191.159 418.131 188.673 418.643 188.673 420.661ZM194.171 419.079V419.697C194.171 421.068 193.388 421.745 192.062 421.745C191.159 421.745 190.571 421.324 190.571 420.616C190.571 419.682 191.61 419.32 194.171 419.079ZM199.522 422.89V411.971H197.73V422.89H199.522ZM44.9583 438.26H43.1209C42.7895 439.751 41.7353 440.519 40.2593 440.519C38.5122 440.519 37.1718 439.043 37.1718 436.393C37.1718 433.757 38.5424 432.341 40.2744 432.341C41.6901 432.341 42.7594 433.124 43.0908 434.6H44.9282C44.4914 432.161 42.7594 430.775 40.3346 430.775C37.1718 430.775 35.1988 432.959 35.1988 436.393C35.1988 439.811 37.0513 442.086 40.2442 442.086C42.7594 442.086 44.5065 440.7 44.9583 438.26ZM54.134 437.854C54.134 434.932 52.1158 433.606 50.1428 433.606C48.1698 433.606 46.1517 434.932 46.1517 437.854C46.1517 440.775 48.1698 442.086 50.1428 442.086C52.1158 442.086 54.134 440.775 54.134 437.854ZM50.1428 440.625C49.0133 440.625 48.0042 439.721 48.0042 437.854C48.0042 435.986 49.0133 435.067 50.1428 435.067C51.2724 435.067 52.2815 435.986 52.2815 437.854C52.2815 439.721 51.2724 440.625 50.1428 440.625ZM57.3992 441.89V430.971H55.6069V441.89H57.3992ZM61.2085 441.89V430.971H59.4163V441.89H61.2085ZM64.5058 438.351H70.5453C70.6959 435.625 69.1446 433.606 66.6595 433.606C64.3552 433.606 62.6834 435.338 62.6834 437.778C62.6834 440.098 64.1745 442.086 66.78 442.086C68.8735 442.086 70.0784 440.76 70.4549 439.465H68.6928C68.3765 440.218 67.6385 440.595 66.7047 440.595C65.6806 440.595 64.6263 439.857 64.5058 438.351ZM64.5058 437.04C64.6564 435.504 65.8161 435.007 66.6595 435.007C67.7138 435.007 68.6777 435.775 68.7229 437.04H64.5058ZM77.486 433.787V434.871C77.0041 434.073 76.1607 433.606 75.0763 433.606C73.1635 433.606 71.552 435.143 71.552 437.673C71.552 440.203 73.1635 441.754 75.0763 441.754C76.1607 441.754 77.0041 441.287 77.486 440.489V441.438C77.486 441.965 77.3806 442.462 77.0794 442.809C76.7782 443.17 76.2661 443.396 75.4679 443.396C74.3985 443.396 73.9015 443.08 73.7359 442.327H71.9587C72.2298 444.104 73.6455 444.812 75.4227 444.812C76.6878 444.812 77.6517 444.541 78.2993 443.938C78.947 443.336 79.2783 442.402 79.2783 441.077V433.787H77.486ZM75.4679 435.037C76.6426 435.037 77.5613 435.866 77.5613 437.673C77.5613 439.495 76.6426 440.339 75.4679 440.339C74.278 440.339 73.4196 439.33 73.4196 437.673C73.4196 436.046 74.278 435.037 75.4679 435.037ZM82.5672 438.351H88.6067C88.7573 435.625 87.206 433.606 84.7209 433.606C82.4166 433.606 80.7449 435.338 80.7449 437.778C80.7449 440.098 82.2359 442.086 84.8414 442.086C86.9349 442.086 88.1398 440.76 88.5163 439.465H86.7542C86.4379 440.218 85.6999 440.595 84.7661 440.595C83.742 440.595 82.6877 439.857 82.5672 438.351ZM82.5672 437.04C82.7178 435.504 83.8775 435.007 84.7209 435.007C85.7752 435.007 86.7391 435.775 86.7843 437.04H82.5672ZM94.7356 436.001H96.4224C96.091 434.374 94.6452 433.606 93.0638 433.606C91.3017 433.606 89.7654 434.525 89.7654 435.956C89.7654 437.432 90.8348 438.049 92.2053 438.32L93.4253 438.561C94.2235 438.712 94.8259 439.013 94.8259 439.676C94.8259 440.339 94.1331 440.73 93.1993 440.73C92.1451 440.73 91.5426 440.248 91.377 439.42H89.6299C89.8257 440.956 91.151 442.086 93.1391 442.086C94.9765 442.086 96.573 441.152 96.573 439.465C96.573 437.884 95.3229 437.372 93.6813 437.055L92.5367 436.829C91.8439 436.694 91.4523 436.408 91.4523 435.866C91.4523 435.323 92.1752 434.977 92.9584 434.977C93.862 434.977 94.5398 435.263 94.7356 436.001Z" fill="black"/>
</g>
</g>
<g filter="url(#filter2_d)">
<rect x="16" y="100.304" width="289.272" height="211.118" rx="4" fill="white"/>
<rect x="16" y="104.304" width="285" height="55.6098" fill="white"/>
<path d="M282.531 128.495L281.929 127.862C281.771 127.703 281.517 127.703 281.39 127.862L275.657 133.595L269.891 127.862C269.764 127.703 269.511 127.703 269.353 127.862L268.751 128.495C268.592 128.622 268.592 128.875 268.751 129.034L275.371 135.655C275.53 135.813 275.752 135.813 275.91 135.655L282.531 129.034C282.689 128.875 282.689 128.622 282.531 128.495Z" fill="#444444"/>
<path d="M38.3767 131.886L39.702 132.142C40.7413 132.338 41.9461 132.714 41.9461 133.829C41.9461 134.883 40.9069 135.47 39.6117 135.47C38.1056 135.47 37.1417 134.717 36.8103 133.226H34.9277C35.1536 135.621 36.9308 137.037 39.5213 137.037C41.675 137.037 43.8589 135.907 43.8589 133.708C43.8589 131.509 42.0365 130.816 40.1238 130.44L38.7833 130.184C37.8495 130.003 37.1567 129.581 37.1567 128.738C37.1567 127.669 38.4068 127.292 39.2502 127.292C40.3195 127.292 41.4642 127.669 41.7805 128.979H43.633C43.1962 126.705 41.5094 125.726 39.3556 125.726C37.3525 125.726 35.2289 126.75 35.2289 128.798C35.2289 130.651 36.6597 131.539 38.3767 131.886ZM47.1036 125.922H45.3113V127.729H47.1036V125.922ZM47.1036 128.738H45.3113V136.841H47.1036V128.738ZM48.5032 135.47V136.841H55.1752V135.47H50.7171L55.0698 130.109V128.738H48.8044V130.109H52.8407L48.5032 135.47ZM57.8137 133.301H63.8531C64.0038 130.575 62.4525 128.557 59.9674 128.557C57.6631 128.557 55.9913 130.289 55.9913 132.729C55.9913 135.049 57.4824 137.037 60.0879 137.037C62.1814 137.037 63.3863 135.711 63.7628 134.416H62.0006C61.6844 135.169 60.9464 135.546 60.0126 135.546C58.9884 135.546 57.9342 134.808 57.8137 133.301ZM57.8137 131.991C57.9643 130.455 59.124 129.958 59.9674 129.958C61.0217 129.958 61.9856 130.726 62.0308 131.991H57.8137Z" fill="black"/>
<rect width="285" height="127.439" transform="translate(16 159.914)" fill="white"/>
<path d="M68.9255 167.872L61.1992 171.29V172.465L68.9255 175.824V174.363L62.9161 171.878L68.9255 169.347V167.872ZM76.5168 175.914H77.8873V164.995H76.9535C76.3511 166.185 75.5529 166.38 73.9865 166.441V167.374H76.5168V175.914ZM80.3297 174.182V175.914H81.0677L80.2694 178.008H81.143L82.0617 176.035V174.182H80.3297ZM87.2624 176.11C90.1692 176.11 91.5096 173.911 91.5096 170.447C91.5096 166.998 90.1692 164.799 87.2624 164.799C84.3557 164.799 83.0152 166.998 83.0152 170.447C83.0152 173.911 84.3557 176.11 87.2624 176.11ZM87.2624 165.944C88.9794 165.944 90.0487 167.42 90.0487 170.447C90.0487 173.489 88.9794 174.965 87.2624 174.965C85.5455 174.965 84.4761 173.489 84.4761 170.447C84.4761 167.42 85.5455 165.944 87.2624 165.944ZM97.2197 176.11C100.126 176.11 101.467 173.911 101.467 170.447C101.467 166.998 100.126 164.799 97.2197 164.799C94.313 164.799 92.9725 166.998 92.9725 170.447C92.9725 173.911 94.313 176.11 97.2197 176.11ZM97.2197 165.944C98.9367 165.944 100.006 167.42 100.006 170.447C100.006 173.489 98.9367 174.965 97.2197 174.965C95.5028 174.965 94.4334 173.489 94.4334 170.447C94.4334 167.42 95.5028 165.944 97.2197 165.944ZM107.177 176.11C110.084 176.11 111.424 173.911 111.424 170.447C111.424 166.998 110.084 164.799 107.177 164.799C104.27 164.799 102.93 166.998 102.93 170.447C102.93 173.911 104.27 176.11 107.177 176.11ZM107.177 165.944C108.894 165.944 109.963 167.42 109.963 170.447C109.963 173.489 108.894 174.965 107.177 174.965C105.46 174.965 104.391 173.489 104.391 170.447C104.391 167.42 105.46 165.944 107.177 165.944Z" fill="black" fill-opacity="0.8"/>
<rect x="35.1154" y="162.81" width="13.9024" height="13.9024" rx="2.89634" stroke="#D1D1D1" stroke-width="1.15854"/>
<path d="M62.7354 202.56H64.1059V191.641H63.1722C62.5697 192.831 61.7715 193.027 60.2051 193.087V194.021H62.7354V202.56ZM66.5483 200.828V202.56H67.2863L66.488 204.654H67.3616L68.2803 202.681V200.828H66.5483ZM73.481 202.756C76.3878 202.756 77.7282 200.557 77.7282 197.093C77.7282 193.644 76.3878 191.445 73.481 191.445C70.5743 191.445 69.2338 193.644 69.2338 197.093C69.2338 200.557 70.5743 202.756 73.481 202.756ZM73.481 192.59C75.198 192.59 76.2673 194.066 76.2673 197.093C76.2673 200.136 75.198 201.612 73.481 201.612C71.7641 201.612 70.6948 200.136 70.6948 197.093C70.6948 194.066 71.7641 192.59 73.481 192.59ZM83.4383 202.756C86.3451 202.756 87.6855 200.557 87.6855 197.093C87.6855 193.644 86.3451 191.445 83.4383 191.445C80.5316 191.445 79.1912 193.644 79.1912 197.093C79.1912 200.557 80.5316 202.756 83.4383 202.756ZM83.4383 192.59C85.1553 192.59 86.2246 194.066 86.2246 197.093C86.2246 200.136 85.1553 201.612 83.4383 201.612C81.7214 201.612 80.6521 200.136 80.6521 197.093C80.6521 194.066 81.7214 192.59 83.4383 192.59ZM93.3957 202.756C96.3024 202.756 97.6428 200.557 97.6428 197.093C97.6428 193.644 96.3024 191.445 93.3957 191.445C90.4889 191.445 89.1485 193.644 89.1485 197.093C89.1485 200.557 90.4889 202.756 93.3957 202.756ZM93.3957 192.59C95.1126 192.59 96.1819 194.066 96.1819 197.093C96.1819 200.136 95.1126 201.612 93.3957 201.612C91.6787 201.612 90.6094 200.136 90.6094 197.093C90.6094 194.066 91.6787 192.59 93.3957 192.59ZM102.604 199.081H107.394V197.786H102.604V199.081ZM118.623 198.976C118.623 200.663 117.493 201.612 116.183 201.612C114.662 201.612 113.924 200.768 113.713 199.398H112.297C112.508 201.16 113.653 202.756 116.183 202.756C118.216 202.756 120.069 201.461 120.069 198.961C120.069 196.551 118.397 195.196 116.484 195.196C115.581 195.196 114.707 195.467 114.135 196.024L114.511 192.921H119.662V191.641H113.397L112.689 197.515L114.06 197.59C114.301 197.048 115.039 196.385 116.168 196.385C117.358 196.385 118.623 197.169 118.623 198.976ZM121.468 200.828V202.56H122.206L121.408 204.654H122.281L123.2 202.681V200.828H121.468ZM128.401 202.756C131.307 202.756 132.648 200.557 132.648 197.093C132.648 193.644 131.307 191.445 128.401 191.445C125.494 191.445 124.153 193.644 124.153 197.093C124.153 200.557 125.494 202.756 128.401 202.756ZM128.401 192.59C130.118 192.59 131.187 194.066 131.187 197.093C131.187 200.136 130.118 201.612 128.401 201.612C126.684 201.612 125.614 200.136 125.614 197.093C125.614 194.066 126.684 192.59 128.401 192.59ZM138.358 202.756C141.265 202.756 142.605 200.557 142.605 197.093C142.605 193.644 141.265 191.445 138.358 191.445C135.451 191.445 134.111 193.644 134.111 197.093C134.111 200.557 135.451 202.756 138.358 202.756ZM138.358 192.59C140.075 192.59 141.144 194.066 141.144 197.093C141.144 200.136 140.075 201.612 138.358 201.612C136.641 201.612 135.572 200.136 135.572 197.093C135.572 194.066 136.641 192.59 138.358 192.59ZM148.315 202.756C151.222 202.756 152.562 200.557 152.562 197.093C152.562 193.644 151.222 191.445 148.315 191.445C145.408 191.445 144.068 193.644 144.068 197.093C144.068 200.557 145.408 202.756 148.315 202.756ZM148.315 192.59C150.032 192.59 151.102 194.066 151.102 197.093C151.102 200.136 150.032 201.612 148.315 201.612C146.598 201.612 145.529 200.136 145.529 197.093C145.529 194.066 146.598 192.59 148.315 192.59Z" fill="black" fill-opacity="0.8"/>
<rect x="35.1154" y="189.457" width="13.9024" height="13.9024" rx="2.89634" stroke="#D1D1D1" stroke-width="1.15854"/>
<path d="M65.8535 225.622C65.8535 227.309 64.724 228.258 63.4136 228.258C61.8925 228.258 61.1545 227.414 60.9436 226.044H59.5279C59.7388 227.806 60.8834 229.403 63.4136 229.403C65.4469 229.403 67.2994 228.107 67.2994 225.607C67.2994 223.197 65.6276 221.842 63.7149 221.842C62.8112 221.842 61.9377 222.113 61.3654 222.67L61.7419 219.568H66.8927V218.288H60.6274L59.9195 224.161L61.2901 224.237C61.531 223.694 62.269 223.032 63.3986 223.032C64.5884 223.032 65.8535 223.815 65.8535 225.622ZM68.6984 227.475V229.207H69.4364L68.6382 231.3H69.5117L70.4304 229.327V227.475H68.6984ZM75.6312 229.403C78.5379 229.403 79.8784 227.204 79.8784 223.74C79.8784 220.291 78.5379 218.092 75.6312 218.092C72.7244 218.092 71.384 220.291 71.384 223.74C71.384 227.204 72.7244 229.403 75.6312 229.403ZM75.6312 219.236C77.3481 219.236 78.4174 220.712 78.4174 223.74C78.4174 226.782 77.3481 228.258 75.6312 228.258C73.9142 228.258 72.8449 226.782 72.8449 223.74C72.8449 220.712 73.9142 219.236 75.6312 219.236ZM85.5885 229.403C88.4952 229.403 89.8357 227.204 89.8357 223.74C89.8357 220.291 88.4952 218.092 85.5885 218.092C82.6817 218.092 81.3413 220.291 81.3413 223.74C81.3413 227.204 82.6817 229.403 85.5885 229.403ZM85.5885 219.236C87.3054 219.236 88.3747 220.712 88.3747 223.74C88.3747 226.782 87.3054 228.258 85.5885 228.258C83.8715 228.258 82.8022 226.782 82.8022 223.74C82.8022 220.712 83.8715 219.236 85.5885 219.236ZM95.5458 229.403C98.4525 229.403 99.793 227.204 99.793 223.74C99.793 220.291 98.4525 218.092 95.5458 218.092C92.639 218.092 91.2986 220.291 91.2986 223.74C91.2986 227.204 92.639 229.403 95.5458 229.403ZM95.5458 219.236C97.2627 219.236 98.3321 220.712 98.3321 223.74C98.3321 226.782 97.2627 228.258 95.5458 228.258C93.8288 228.258 92.7595 226.782 92.7595 223.74C92.7595 220.712 93.8288 219.236 95.5458 219.236ZM104.755 225.728H109.544V224.432H104.755V225.728ZM116.496 229.207H117.866V218.288H116.933C116.33 219.477 115.532 219.673 113.966 219.733V220.667H116.496V229.207ZM124.3 229.403C127.207 229.403 128.547 227.204 128.547 223.74C128.547 220.291 127.207 218.092 124.3 218.092C121.393 218.092 120.053 220.291 120.053 223.74C120.053 227.204 121.393 229.403 124.3 229.403ZM124.3 219.236C126.017 219.236 127.086 220.712 127.086 223.74C127.086 226.782 126.017 228.258 124.3 228.258C122.583 228.258 121.514 226.782 121.514 223.74C121.514 220.712 122.583 219.236 124.3 219.236ZM129.516 227.475V229.207H130.254L129.456 231.3H130.329L131.248 229.327V227.475H129.516ZM136.449 229.403C139.355 229.403 140.696 227.204 140.696 223.74C140.696 220.291 139.355 218.092 136.449 218.092C133.542 218.092 132.201 220.291 132.201 223.74C132.201 227.204 133.542 229.403 136.449 229.403ZM136.449 219.236C138.166 219.236 139.235 220.712 139.235 223.74C139.235 226.782 138.166 228.258 136.449 228.258C134.732 228.258 133.662 226.782 133.662 223.74C133.662 220.712 134.732 219.236 136.449 219.236ZM146.406 229.403C149.313 229.403 150.653 227.204 150.653 223.74C150.653 220.291 149.313 218.092 146.406 218.092C143.499 218.092 142.159 220.291 142.159 223.74C142.159 227.204 143.499 229.403 146.406 229.403ZM146.406 219.236C148.123 219.236 149.192 220.712 149.192 223.74C149.192 226.782 148.123 228.258 146.406 228.258C144.689 228.258 143.62 226.782 143.62 223.74C143.62 220.712 144.689 219.236 146.406 219.236ZM156.363 229.403C159.27 229.403 160.61 227.204 160.61 223.74C160.61 220.291 159.27 218.092 156.363 218.092C153.457 218.092 152.116 220.291 152.116 223.74C152.116 227.204 153.457 229.403 156.363 229.403ZM156.363 219.236C158.08 219.236 159.15 220.712 159.15 223.74C159.15 226.782 158.08 228.258 156.363 228.258C154.646 228.258 153.577 226.782 153.577 223.74C153.577 220.712 154.646 219.236 156.363 219.236Z" fill="black" fill-opacity="0.8"/>
<rect x="34.5361" y="215.524" width="15.061" height="15.061" rx="3.47561" fill="#1569E0"/>
<path d="M38.0117 223.054L40.9081 225.951L46.7007 220.158" stroke="white" stroke-width="2.31707" stroke-linecap="round" stroke-linejoin="round"/>
<path d="M61.5762 255.853H62.9468V244.934H62.013C61.4105 246.124 60.6123 246.319 59.046 246.38V247.314H61.5762V255.853ZM69.3803 256.049C72.287 256.049 73.6275 253.85 73.6275 250.386C73.6275 246.937 72.287 244.738 69.3803 244.738C66.4735 244.738 65.1331 246.937 65.1331 250.386C65.1331 253.85 66.4735 256.049 69.3803 256.049ZM69.3803 245.883C71.0972 245.883 72.1665 247.359 72.1665 250.386C72.1665 253.428 71.0972 254.904 69.3803 254.904C67.6633 254.904 66.594 253.428 66.594 250.386C66.594 247.359 67.6633 245.883 69.3803 245.883ZM74.5963 254.121V255.853H75.3343L74.5361 257.947H75.4096L76.3283 255.974V254.121H74.5963ZM81.5291 256.049C84.4358 256.049 85.7763 253.85 85.7763 250.386C85.7763 246.937 84.4358 244.738 81.5291 244.738C78.6223 244.738 77.2819 246.937 77.2819 250.386C77.2819 253.85 78.6223 256.049 81.5291 256.049ZM81.5291 245.883C83.246 245.883 84.3153 247.359 84.3153 250.386C84.3153 253.428 83.246 254.904 81.5291 254.904C79.8121 254.904 78.7428 253.428 78.7428 250.386C78.7428 247.359 79.8121 245.883 81.5291 245.883ZM91.4864 256.049C94.3931 256.049 95.7336 253.85 95.7336 250.386C95.7336 246.937 94.3931 244.738 91.4864 244.738C88.5796 244.738 87.2392 246.937 87.2392 250.386C87.2392 253.85 88.5796 256.049 91.4864 256.049ZM91.4864 245.883C93.2033 245.883 94.2726 247.359 94.2726 250.386C94.2726 253.428 93.2033 254.904 91.4864 254.904C89.7694 254.904 88.7001 253.428 88.7001 250.386C88.7001 247.359 89.7694 245.883 91.4864 245.883ZM101.444 256.049C104.35 256.049 105.691 253.85 105.691 250.386C105.691 246.937 104.35 244.738 101.444 244.738C98.5369 244.738 97.1965 246.937 97.1965 250.386C97.1965 253.85 98.5369 256.049 101.444 256.049ZM101.444 245.883C103.161 245.883 104.23 247.359 104.23 250.386C104.23 253.428 103.161 254.904 101.444 254.904C99.7267 254.904 98.6574 253.428 98.6574 250.386C98.6574 247.359 99.7267 245.883 101.444 245.883ZM110.653 252.374H115.442V251.079H110.653V252.374ZM127.695 247.6C127.695 245.762 126.249 244.738 124.231 244.738C121.912 244.738 120.406 246.169 120.436 248.338H121.852C121.882 246.53 123.026 245.883 124.201 245.883C125.496 245.883 126.249 246.651 126.249 247.78C126.249 249.708 123.99 251.772 120.135 254.618V255.853H127.996V254.573H122.002C125.06 252.374 127.695 250.13 127.695 247.6ZM135.555 252.269C135.555 253.955 134.425 254.904 133.115 254.904C131.594 254.904 130.856 254.061 130.645 252.69H129.229C129.44 254.452 130.585 256.049 133.115 256.049C135.148 256.049 137.001 254.754 137.001 252.254C137.001 249.844 135.329 248.488 133.416 248.488C132.512 248.488 131.639 248.759 131.066 249.317L131.443 246.214H136.594V244.934H130.329L129.621 250.808L130.991 250.883C131.232 250.341 131.97 249.678 133.1 249.678C134.29 249.678 135.555 250.461 135.555 252.269ZM138.4 254.121V255.853H139.138L138.339 257.947H139.213L140.132 255.974V254.121H138.4ZM145.332 256.049C148.239 256.049 149.579 253.85 149.579 250.386C149.579 246.937 148.239 244.738 145.332 244.738C142.426 244.738 141.085 246.937 141.085 250.386C141.085 253.85 142.426 256.049 145.332 256.049ZM145.332 245.883C147.049 245.883 148.119 247.359 148.119 250.386C148.119 253.428 147.049 254.904 145.332 254.904C143.615 254.904 142.546 253.428 142.546 250.386C142.546 247.359 143.615 245.883 145.332 245.883ZM155.29 256.049C158.196 256.049 159.537 253.85 159.537 250.386C159.537 246.937 158.196 244.738 155.29 244.738C152.383 244.738 151.042 246.937 151.042 250.386C151.042 253.85 152.383 256.049 155.29 256.049ZM155.29 245.883C157.007 245.883 158.076 247.359 158.076 250.386C158.076 253.428 157.007 254.904 155.29 254.904C153.573 254.904 152.503 253.428 152.503 250.386C152.503 247.359 153.573 245.883 155.29 245.883ZM165.247 256.049C168.154 256.049 169.494 253.85 169.494 250.386C169.494 246.937 168.154 244.738 165.247 244.738C162.34 244.738 161 246.937 161 250.386C161 253.85 162.34 256.049 165.247 256.049ZM165.247 245.883C166.964 245.883 168.033 247.359 168.033 250.386C168.033 253.428 166.964 254.904 165.247 254.904C163.53 254.904 162.461 253.428 162.461 250.386C162.461 247.359 163.53 245.883 165.247 245.883Z" fill="black" fill-opacity="0.8"/>
<rect x="34.5361" y="242.17" width="15.061" height="15.061" rx="3.47561" fill="#1569E0"/>
<path d="M38.0117 249.701L40.9081 252.597L46.7007 246.804" stroke="white" stroke-width="2.31707" stroke-linecap="round" stroke-linejoin="round"/>
<path d="M69.0761 279.05V277.876L61.3498 274.457V275.933L67.3591 278.463L61.3498 280.948V282.409L69.0761 279.05ZM81.8182 274.246C81.8182 272.409 80.3724 271.384 78.3542 271.384C76.0348 271.384 74.5287 272.815 74.5588 274.984H75.9746C76.0047 273.177 77.1493 272.529 78.3241 272.529C79.6193 272.529 80.3724 273.297 80.3724 274.427C80.3724 276.355 78.1132 278.418 74.2576 281.264V282.499H82.1195V281.219H76.1252C79.1826 279.02 81.8182 276.776 81.8182 274.246ZM89.6777 278.915C89.6777 280.602 88.5481 281.551 87.2378 281.551C85.7167 281.551 84.9787 280.707 84.7678 279.337H83.3521C83.563 281.099 84.7076 282.695 87.2378 282.695C89.2711 282.695 91.1236 281.4 91.1236 278.9C91.1236 276.49 89.4518 275.135 87.5391 275.135C86.6354 275.135 85.7619 275.406 85.1895 275.963L85.5661 272.86H90.7169V271.58H84.4516L83.7437 277.454L85.1142 277.529C85.3552 276.987 86.0932 276.324 87.2228 276.324C88.4126 276.324 89.6777 277.108 89.6777 278.915ZM92.5226 280.767V282.499H93.2606L92.4623 284.593H93.3359L94.2546 282.62V280.767H92.5226ZM99.4553 282.695C102.362 282.695 103.703 280.496 103.703 277.032C103.703 273.583 102.362 271.384 99.4553 271.384C96.5486 271.384 95.2081 273.583 95.2081 277.032C95.2081 280.496 96.5486 282.695 99.4553 282.695ZM99.4553 272.529C101.172 272.529 102.242 274.005 102.242 277.032C102.242 280.075 101.172 281.551 99.4553 281.551C97.7384 281.551 96.6691 280.075 96.6691 277.032C96.6691 274.005 97.7384 272.529 99.4553 272.529ZM109.413 282.695C112.319 282.695 113.66 280.496 113.66 277.032C113.66 273.583 112.319 271.384 109.413 271.384C106.506 271.384 105.165 273.583 105.165 277.032C105.165 280.496 106.506 282.695 109.413 282.695ZM109.413 272.529C111.13 272.529 112.199 274.005 112.199 277.032C112.199 280.075 111.13 281.551 109.413 281.551C107.696 281.551 106.626 280.075 106.626 277.032C106.626 274.005 107.696 272.529 109.413 272.529ZM119.37 282.695C122.277 282.695 123.617 280.496 123.617 277.032C123.617 273.583 122.277 271.384 119.37 271.384C116.463 271.384 115.123 273.583 115.123 277.032C115.123 280.496 116.463 282.695 119.37 282.695ZM119.37 272.529C121.087 272.529 122.156 274.005 122.156 277.032C122.156 280.075 121.087 281.551 119.37 281.551C117.653 281.551 116.584 280.075 116.584 277.032C116.584 274.005 117.653 272.529 119.37 272.529Z" fill="black" fill-opacity="0.8"/>
<rect x="35.1154" y="269.396" width="13.9024" height="13.9024" rx="2.89634" stroke="#D1D1D1" stroke-width="1.15854"/>
</g>
<g filter="url(#filter3_d)">
<g clip-path="url(#clip2)">
<rect x="209.863" y="211.953" width="289.272" height="55.6098" fill="white"/>
<path d="M480.394 236.144L479.792 235.511C479.634 235.352 479.38 235.352 479.254 235.511L473.52 241.244L467.754 235.511C467.628 235.352 467.374 235.352 467.216 235.511L466.614 236.144C466.456 236.271 466.456 236.524 466.614 236.683L473.235 243.304C473.393 243.462 473.615 243.462 473.773 243.304L480.394 236.683C480.553 236.524 480.553 236.271 480.394 236.144Z" fill="#444444"/>
<path d="M233.836 239.881L236.141 244.49H238.294L235.794 239.535C237.15 239.068 237.843 238.119 237.843 236.718C237.843 234.294 236.201 233.571 232.978 233.571H229.499V244.49H231.412V239.896H233.264C233.46 239.896 233.656 239.896 233.836 239.881ZM231.412 235.107H233.249C234.755 235.107 235.885 235.303 235.885 236.733C235.885 238.044 234.951 238.375 233.309 238.375H231.412V235.107ZM240.764 240.95H246.803C246.954 238.224 245.402 236.206 242.917 236.206C240.613 236.206 238.941 237.938 238.941 240.378C238.941 242.698 240.432 244.686 243.038 244.686C245.131 244.686 246.336 243.36 246.713 242.065H244.951C244.634 242.818 243.896 243.195 242.963 243.195C241.938 243.195 240.884 242.457 240.764 240.95ZM240.764 239.64C240.914 238.104 242.074 237.607 242.917 237.607C243.972 237.607 244.936 238.375 244.981 239.64H240.764ZM253.744 236.387V237.471C253.262 236.673 252.418 236.206 251.334 236.206C249.421 236.206 247.81 237.742 247.81 240.273C247.81 242.803 249.421 244.354 251.334 244.354C252.418 244.354 253.262 243.887 253.744 243.089V244.038C253.744 244.565 253.638 245.062 253.337 245.409C253.036 245.77 252.524 245.996 251.726 245.996C250.656 245.996 250.159 245.68 249.994 244.927H248.216C248.488 246.704 249.903 247.412 251.681 247.412C252.946 247.412 253.91 247.141 254.557 246.538C255.205 245.936 255.536 245.002 255.536 243.677V236.387H253.744ZM251.726 237.637C252.9 237.637 253.819 238.465 253.819 240.273C253.819 242.095 252.9 242.939 251.726 242.939C250.536 242.939 249.677 241.929 249.677 240.273C249.677 238.646 250.536 237.637 251.726 237.637ZM259.337 233.571H257.545V235.378H259.337V233.571ZM259.337 236.387H257.545V244.49H259.337V236.387ZM268.794 240.453C268.794 237.532 266.776 236.206 264.803 236.206C262.83 236.206 260.812 237.532 260.812 240.453C260.812 243.375 262.83 244.686 264.803 244.686C266.776 244.686 268.794 243.375 268.794 240.453ZM264.803 243.225C263.674 243.225 262.665 242.321 262.665 240.453C262.665 238.586 263.674 237.667 264.803 237.667C265.933 237.667 266.942 238.586 266.942 240.453C266.942 242.321 265.933 243.225 264.803 243.225ZM272.06 237.517V236.387H270.267V244.49H272.06V240.182C272.06 238.721 272.572 237.667 273.942 237.667C275.313 237.667 275.478 238.737 275.478 239.836V244.49H277.271V239.399C277.271 237.471 276.472 236.206 274.514 236.206C273.385 236.206 272.526 236.673 272.06 237.517Z" fill="black"/>
</g>
</g>
<g filter="url(#filter4_d)">
<g clip-path="url(#clip3)">
<rect x="209.863" y="12" width="289.272" height="187.773" rx="4" fill="white"/>
<rect x="209.863" y="16" width="285" height="55.6098" fill="white"/>
<path d="M476.394 40.191L475.792 39.5574C475.634 39.399 475.38 39.399 475.254 39.5574L469.52 45.2913L463.754 39.5574C463.628 39.399 463.374 39.399 463.216 39.5574L462.614 40.191C462.456 40.3177 462.456 40.5711 462.614 40.7295L469.235 47.3504C469.393 47.5088 469.615 47.5088 469.773 47.3504L476.394 40.7295C476.553 40.5711 476.553 40.3177 476.394 40.191Z" fill="#444444"/>
<path d="M231.412 46.9251V37.6174H229.499V48.5366H236.909V46.9251H231.412ZM245.365 44.5003C245.365 41.5785 243.346 40.2531 241.373 40.2531C239.4 40.2531 237.382 41.5785 237.382 44.5003C237.382 47.4221 239.4 48.7324 241.373 48.7324C243.346 48.7324 245.365 47.4221 245.365 44.5003ZM241.373 47.2715C240.244 47.2715 239.235 46.3678 239.235 44.5003C239.235 42.6327 240.244 41.714 241.373 41.714C242.503 41.714 243.512 42.6327 243.512 44.5003C243.512 46.3678 242.503 47.2715 241.373 47.2715ZM253.974 43.205C253.673 41.3977 252.107 40.2531 250.345 40.2531C247.935 40.2531 246.368 42.0905 246.368 44.5003C246.368 46.91 247.92 48.7324 250.269 48.7324C252.001 48.7324 253.673 47.6631 254.034 45.7654H252.287C252.062 46.8498 251.173 47.2414 250.299 47.2414C249.245 47.2414 248.221 46.413 248.221 44.4852C248.221 42.5725 249.23 41.7441 250.345 41.7441C251.324 41.7441 252.077 42.3466 252.227 43.205H253.974ZM254.871 46.3076C254.871 47.7836 256.106 48.7324 257.869 48.7324C259.058 48.7324 260.022 48.3107 260.534 47.4372C260.564 47.9944 260.625 48.1902 260.685 48.5366H262.327C262.176 47.8589 262.086 46.7895 262.086 45.7654C262.086 45.0274 262.116 44.0786 262.116 43.6719C262.161 41.0814 260.64 40.1928 258.697 40.1928C256.739 40.1928 255.368 41.3224 255.248 42.9791H257.01C257.055 42.0002 257.733 41.5182 258.637 41.5182C259.525 41.5182 260.324 41.9399 260.324 43.3255V43.4761C257.356 43.7774 254.871 44.2894 254.871 46.3076ZM260.369 44.7262V45.3437C260.369 46.7142 259.586 47.392 258.26 47.392C257.356 47.392 256.769 46.9703 256.769 46.2624C256.769 45.3286 257.808 44.9672 260.369 44.7262ZM264.184 38.2952V40.4338H262.979V41.7291H264.184V46.413C264.184 48.0697 264.531 48.5366 266.263 48.5366H267.588V47.1661H266.94C266.172 47.1661 265.976 46.9703 265.976 46.1419V41.7291H267.603V40.4338H265.976V38.2952H264.184ZM270.839 37.6174H269.047V39.4247H270.839V37.6174ZM270.839 40.4338H269.047V48.5366H270.839V40.4338ZM280.296 44.5003C280.296 41.5785 278.278 40.2531 276.305 40.2531C274.332 40.2531 272.314 41.5785 272.314 44.5003C272.314 47.4221 274.332 48.7324 276.305 48.7324C278.278 48.7324 280.296 47.4221 280.296 44.5003ZM276.305 47.2715C275.175 47.2715 274.166 46.3678 274.166 44.5003C274.166 42.6327 275.175 41.714 276.305 41.714C277.434 41.714 278.444 42.6327 278.444 44.5003C278.444 46.3678 277.434 47.2715 276.305 47.2715ZM283.561 41.5634V40.4338H281.769V48.5366H283.561V44.2292C283.561 42.7683 284.073 41.714 285.444 41.714C286.814 41.714 286.98 42.7833 286.98 43.8828V48.5366H288.772V43.446C288.772 41.5182 287.974 40.2531 286.016 40.2531C284.887 40.2531 284.028 40.72 283.561 41.5634Z" fill="black"/>
<g clip-path="url(#clip4)">
<rect width="285" height="125.122" transform="translate(209.863 71.6099)" fill="white"/>
<g clip-path="url(#clip5)">
<rect width="247.927" height="41.7073" transform="translate(228.399 71.6099)" fill="white"/>
<rect x="228.979" y="72.1891" width="246.841" height="40.5488" rx="4.05488" fill="white" stroke="#DDDDE0" stroke-width="1.15854"/>
<path d="M453.052 89.7684C452.482 89.7684 452.197 90.4654 452.609 90.8772L456.664 94.9321C456.917 95.1855 457.329 95.1855 457.582 94.9321L461.637 90.8772C462.049 90.4654 461.764 89.7684 461.194 89.7684H453.052Z" fill="black" fill-opacity="0.56"/>
<path d="M252.754 93.7161H251.263C250.917 95.1168 249.847 96.0957 248.115 96.0957C246.082 96.0957 244.636 94.4692 244.636 91.713C244.636 88.8815 246.142 87.3754 248.07 87.3754C249.817 87.3754 250.871 88.3996 251.203 89.7551H252.694C252.227 87.4206 250.405 86.0802 248.145 86.0802C245.058 86.0802 243.07 88.3243 243.07 91.713C243.07 95.0415 244.892 97.391 248.025 97.391C250.39 97.391 252.272 96.1259 252.754 93.7161ZM255.685 86.276H254.314V87.9327H255.685V86.276ZM255.685 89.0924H254.314V97.1952H255.685V89.0924ZM258.25 87.0592V89.0924H256.97V90.1918H258.25V95.162C258.25 96.8488 258.612 97.1952 260.163 97.1952H261.157V96.0506H260.464C259.681 96.0506 259.621 95.8397 259.621 94.9963V90.1918H261.157V89.0924H259.621V87.0592H258.25ZM268.691 89.0924H267.26L265.257 95.3427L263.193 89.0924H261.672L264.594 97.1952L264.534 97.3609C264.172 98.626 263.736 98.6862 262.832 98.6862H262.275V99.8309H262.982C264.79 99.8309 265.212 99.3037 265.799 97.5416L268.691 89.0924ZM267.931 95.4632V97.1952H268.669L267.871 99.2887H268.745L269.663 97.3157V95.4632H267.931ZM279.007 86.0802C277.245 86.0802 275.061 86.9838 275.061 89.0623C275.061 90.8846 276.568 91.713 278.059 92.0443L279.414 92.3305C280.785 92.6317 281.764 93.1137 281.764 94.2583C281.764 95.3276 280.83 96.0957 279.218 96.0957C277.547 96.0957 276.492 95.3126 276.206 93.8065H274.7C274.986 95.9903 276.613 97.391 279.188 97.391C281.357 97.391 283.345 96.2614 283.345 94.1228C283.345 91.9238 281.342 91.2913 279.67 90.9298L278.405 90.6437C277.396 90.4178 276.628 89.9358 276.628 88.9719C276.628 87.752 278.104 87.3754 278.947 87.3754C280.047 87.3754 281.282 87.7971 281.658 89.0623H283.149C282.728 86.9537 280.965 86.0802 279.007 86.0802ZM287.274 87.6013V97.1952H288.81V87.6013H292.364V86.276H283.719V87.6013H287.274Z" fill="black" fill-opacity="0.56"/>
</g>
<g clip-path="url(#clip6)">
<path d="M254.025 136.935V147.854H258.332C260.516 147.854 262.248 146.95 262.248 144.631C262.248 143.29 261.631 142.477 260.591 142.04C261.344 141.603 261.796 140.67 261.796 139.63C261.796 137.462 259.989 136.935 257.956 136.935H254.025ZM255.561 141.603V138.23H258.197C259.417 138.23 260.245 138.727 260.245 139.841C260.245 141.122 259.447 141.603 258.197 141.603H255.561ZM255.561 146.559V142.823H258.257C259.899 142.823 260.667 143.366 260.667 144.646C260.667 145.881 259.899 146.559 258.347 146.559H255.561ZM271.324 143.832C271.324 140.896 269.321 139.615 267.439 139.615C265.556 139.615 263.553 140.896 263.553 143.832C263.553 146.769 265.556 148.05 267.439 148.05C269.321 148.05 271.324 146.769 271.324 143.832ZM267.439 146.845C266.204 146.845 265.014 145.986 265.014 143.832C265.014 141.619 266.204 140.82 267.439 140.82C268.674 140.82 269.863 141.679 269.863 143.832C269.863 145.911 268.674 146.845 267.439 146.845ZM277.979 146.694V147.854H279.35V139.751H277.979V144.209C277.979 145.941 277.211 146.86 275.916 146.86C274.425 146.86 274.214 145.775 274.214 144.525V139.751H272.843V144.932C272.843 146.784 273.551 148.05 275.434 148.05C276.774 148.05 277.512 147.462 277.979 146.694ZM282.894 147.854V136.935H281.524V147.854H282.894ZM290.626 136.935V141.031C290.129 140.173 289.27 139.615 287.975 139.615C286.123 139.615 284.511 141.167 284.511 143.832C284.511 146.513 286.123 148.05 287.975 148.05C289.27 148.05 290.129 147.492 290.626 146.634V147.854H291.996V136.935H290.626ZM288.322 140.79C289.541 140.79 290.686 141.694 290.686 143.832C290.686 145.971 289.541 146.875 288.322 146.875C286.921 146.875 286.002 145.76 286.002 143.832C286.002 141.905 286.921 140.79 288.322 140.79ZM295.077 144.254H301.312C301.493 141.694 300.002 139.615 297.532 139.615C295.318 139.615 293.601 141.257 293.601 143.817C293.601 146.212 295.016 148.05 297.577 148.05C299.55 148.05 300.83 146.905 301.206 145.504H299.791C299.444 146.302 298.782 146.845 297.577 146.845C296.372 146.845 295.137 146.001 295.077 144.254ZM295.092 143.079C295.212 141.453 296.312 140.79 297.532 140.79C298.977 140.79 299.836 141.935 299.866 143.079H295.092ZM306.945 141.182V139.721C306.795 139.706 306.674 139.706 306.539 139.706C305.485 139.736 304.656 140.248 304.25 141.167V139.751H302.909V147.854H304.28V143.607C304.28 141.829 304.912 141.122 306.177 141.122C306.403 141.122 306.659 141.152 306.945 141.182ZM306.657 146.122V147.854H307.395L306.597 149.947H307.47L308.389 147.974V146.122H306.657ZM323.396 144.375H321.905C321.559 145.775 320.49 146.754 318.758 146.754C316.724 146.754 315.278 145.128 315.278 142.372C315.278 139.54 316.785 138.034 318.712 138.034C320.459 138.034 321.514 139.058 321.845 140.414H323.336C322.869 138.079 321.047 136.739 318.788 136.739C315.7 136.739 313.712 138.983 313.712 142.372C313.712 145.7 315.534 148.05 318.667 148.05C321.032 148.05 322.914 146.784 323.396 144.375ZM329.761 148.05C332.909 148.05 334.882 145.685 334.882 142.387C334.882 139.088 332.909 136.739 329.761 136.739C326.613 136.739 324.64 139.088 324.64 142.387C324.64 145.685 326.613 148.05 329.761 148.05ZM329.761 146.754C327.773 146.754 326.206 145.203 326.206 142.387C326.206 139.57 327.773 138.034 329.761 138.034C331.749 138.034 333.315 139.57 333.315 142.387C333.315 145.203 331.749 146.754 329.761 146.754Z" fill="black" fill-opacity="0.8"/>
<path d="M354.433 165.811C353.904 165.811 353.639 166.458 354.022 166.841L357.787 170.606C358.022 170.841 358.405 170.841 358.64 170.606L362.405 166.841C362.788 166.458 362.523 165.811 361.993 165.811H354.433Z" fill="black" fill-opacity="0.8"/>
<rect x="228.399" y="134.171" width="15.061" height="15.061" rx="3.47561" fill="#1569E0"/>
<path d="M231.875 141.701L234.771 144.598L240.564 138.805" stroke="white" stroke-width="2.31707" stroke-linecap="round" stroke-linejoin="round"/>
<path d="M257.08 164.862L255.592 170.395L254.16 164.862H252.798L254.953 172.342H256.107L257.706 166.322L259.36 172.342H260.514L262.669 164.862H261.306L259.874 170.395L258.387 164.862H257.08ZM265.001 162.262H263.735V163.792H265.001V162.262ZM265.001 164.862H263.735V172.342H265.001V164.862ZM267.369 162.985V164.862H266.187V165.877H267.369V170.465C267.369 172.022 267.703 172.342 269.134 172.342H270.052V171.285H269.413C268.69 171.285 268.634 171.09 268.634 170.312V165.877H270.052V164.862H268.634V162.985H267.369ZM272.929 165.988V162.262H271.664V172.342H272.929V168.282C272.929 166.683 273.68 165.835 274.903 165.835C276.349 165.835 276.544 166.836 276.544 167.99V172.342H277.809V167.615C277.809 165.905 277.156 164.737 275.348 164.737C274.083 164.737 273.36 165.279 272.929 165.988ZM280.967 162.262H279.702V163.792H280.967V162.262ZM280.967 164.862H279.702V172.342H280.967V164.862ZM284.239 165.988V164.862H282.973V172.342H284.239V168.282C284.239 166.683 284.989 165.835 286.213 165.835C287.659 165.835 287.853 166.836 287.853 167.99V172.342H289.118V167.615C289.118 165.905 288.465 164.737 286.658 164.737C285.393 164.737 284.67 165.279 284.239 165.988ZM299.44 169.102C299.44 170.451 298.564 171.243 297.452 171.243C296.131 171.243 295.492 170.423 295.353 169.255H293.754C293.879 170.993 295.075 172.522 297.424 172.522C299.426 172.522 301.15 171.327 301.15 169.075C301.15 166.808 299.551 165.627 297.827 165.627C296.924 165.627 296.228 165.863 295.742 166.252L296.062 163.722H300.733V162.262H294.699L294.032 167.865L295.589 167.948C295.798 167.365 296.479 166.892 297.41 166.892C298.411 166.892 299.44 167.601 299.44 169.102ZM302.255 167.295C302.255 170.395 303.576 172.522 306.259 172.522C308.956 172.522 310.277 170.395 310.277 167.295C310.277 164.209 308.956 162.082 306.259 162.082C303.576 162.082 302.255 164.209 302.255 167.295ZM308.553 167.295C308.553 169.839 307.719 171.243 306.259 171.243C304.813 171.243 303.979 169.839 303.979 167.295C303.979 164.751 304.813 163.347 306.259 163.347C307.719 163.347 308.553 164.751 308.553 167.295ZM316.613 172.342V168.366C316.613 167.017 317.03 166.044 318.253 166.044C319.477 166.044 319.574 167.031 319.574 168.046V172.342H321.228V168.366C321.228 167.017 321.645 166.044 322.869 166.044C324.092 166.044 324.19 167.031 324.19 168.046V172.342H325.844V167.643C325.844 165.863 325.163 164.695 323.397 164.695C322.48 164.695 321.604 165.071 320.964 166.016C320.617 165.182 319.935 164.695 318.782 164.695C317.781 164.695 317.044 165.126 316.613 165.905V164.862H314.958V172.342H316.613ZM329.225 162.262H327.571V163.931H329.225V162.262ZM329.225 164.862H327.571V172.342H329.225V164.862ZM332.742 172.342V162.262H331.087V172.342H332.742ZM335.785 169.075H341.36C341.499 166.558 340.067 164.695 337.773 164.695C335.646 164.695 334.103 166.294 334.103 168.546C334.103 170.687 335.48 172.522 337.885 172.522C339.817 172.522 340.929 171.299 341.277 170.103H339.65C339.358 170.798 338.677 171.146 337.815 171.146C336.87 171.146 335.897 170.465 335.785 169.075ZM335.785 167.865C335.924 166.447 336.995 165.988 337.773 165.988C338.747 165.988 339.636 166.697 339.678 167.865H335.785ZM347.018 166.906H348.575C348.269 165.404 346.934 164.695 345.475 164.695C343.848 164.695 342.43 165.543 342.43 166.864C342.43 168.226 343.417 168.796 344.682 169.047L345.808 169.269C346.545 169.408 347.101 169.686 347.101 170.298C347.101 170.91 346.462 171.271 345.6 171.271C344.626 171.271 344.07 170.826 343.917 170.062H342.305C342.485 171.48 343.709 172.522 345.544 172.522C347.24 172.522 348.714 171.66 348.714 170.103C348.714 168.644 347.56 168.171 346.045 167.879L344.988 167.67C344.348 167.545 343.987 167.281 343.987 166.781C343.987 166.28 344.654 165.96 345.377 165.96C346.211 165.96 346.837 166.225 347.018 166.906Z" fill="black" fill-opacity="0.8"/>
<path d="M231.875 167.189L234.771 170.086L240.564 164.293" stroke="white" stroke-width="2.31707" stroke-linecap="round" stroke-linejoin="round"/>
</g>
</g>
</g>
</g>
<defs>
<filter id="filter0_d" x="0" y="311.602" width="321.272" height="88.4434" filterUnits="userSpaceOnUse" color-interpolation-filters="sRGB">
<feFlood flood-opacity="0" result="BackgroundImageFix"/>
<feColorMatrix in="SourceAlpha" type="matrix" values="0 0 0 0 0 0 0 0 0 0 0 0 0 0 0 0 0 0 127 0"/>
<feOffset dy="4"/>
<feGaussianBlur stdDeviation="8"/>
<feColorMatrix type="matrix" values="0 0 0 0 0 0 0 0 0 0 0 0 0 0 0 0 0 0 0.12 0"/>
<feBlend mode="normal" in2="BackgroundImageFix" result="effect1_dropShadow"/>
<feBlend mode="normal" in="SourceGraphic" in2="effect1_dropShadow" result="shape"/>
</filter>
<filter id="filter1_d" x="0" y="380.622" width="321.272" height="101.378" filterUnits="userSpaceOnUse" color-interpolation-filters="sRGB">
<feFlood flood-opacity="0" result="BackgroundImageFix"/>
<feColorMatrix in="SourceAlpha" type="matrix" values="0 0 0 0 0 0 0 0 0 0 0 0 0 0 0 0 0 0 127 0"/>
<feOffset dy="4"/>
<feGaussianBlur stdDeviation="8"/>
<feColorMatrix type="matrix" values="0 0 0 0 0 0 0 0 0 0 0 0 0 0 0 0 0 0 0.12 0"/>
<feBlend mode="normal" in2="BackgroundImageFix" result="effect1_dropShadow"/>
<feBlend mode="normal" in="SourceGraphic" in2="effect1_dropShadow" result="shape"/>
</filter>
<filter id="filter2_d" x="0" y="88.3042" width="321.272" height="243.118" filterUnits="userSpaceOnUse" color-interpolation-filters="sRGB">
<feFlood flood-opacity="0" result="BackgroundImageFix"/>
<feColorMatrix in="SourceAlpha" type="matrix" values="0 0 0 0 0 0 0 0 0 0 0 0 0 0 0 0 0 0 127 0"/>
<feOffset dy="4"/>
<feGaussianBlur stdDeviation="8"/>
<feColorMatrix type="matrix" values="0 0 0 0 0 0 0 0 0 0 0 0 0 0 0 0 0 0 0.12 0"/>
<feBlend mode="normal" in2="BackgroundImageFix" result="effect1_dropShadow"/>
<feBlend mode="normal" in="SourceGraphic" in2="effect1_dropShadow" result="shape"/>
</filter>
<filter id="filter3_d" x="193.863" y="199.953" width="321.272" height="88.4434" filterUnits="userSpaceOnUse" color-interpolation-filters="sRGB">
<feFlood flood-opacity="0" result="BackgroundImageFix"/>
<feColorMatrix in="SourceAlpha" type="matrix" values="0 0 0 0 0 0 0 0 0 0 0 0 0 0 0 0 0 0 127 0"/>
<feOffset dy="4"/>
<feGaussianBlur stdDeviation="8"/>
<feColorMatrix type="matrix" values="0 0 0 0 0 0 0 0 0 0 0 0 0 0 0 0 0 0 0.12 0"/>
<feBlend mode="normal" in2="BackgroundImageFix" result="effect1_dropShadow"/>
<feBlend mode="normal" in="SourceGraphic" in2="effect1_dropShadow" result="shape"/>
</filter>
<filter id="filter4_d" x="193.863" y="0" width="321.272" height="219.773" filterUnits="userSpaceOnUse" color-interpolation-filters="sRGB">
<feFlood flood-opacity="0" result="BackgroundImageFix"/>
<feColorMatrix in="SourceAlpha" type="matrix" values="0 0 0 0 0 0 0 0 0 0 0 0 0 0 0 0 0 0 127 0"/>
<feOffset dy="4"/>
<feGaussianBlur stdDeviation="8"/>
<feColorMatrix type="matrix" values="0 0 0 0 0 0 0 0 0 0 0 0 0 0 0 0 0 0 0.12 0"/>
<feBlend mode="normal" in2="BackgroundImageFix" result="effect1_dropShadow"/>
<feBlend mode="normal" in="SourceGraphic" in2="effect1_dropShadow" result="shape"/>
</filter>
<clipPath id="clip0">
<rect x="16" y="323.602" width="289.272" height="56.4434" rx="4" fill="white"/>
</clipPath>
<clipPath id="clip1">
<rect x="16" y="392.622" width="289.272" height="69.3783" rx="4" fill="white"/>
</clipPath>
<clipPath id="clip2">
<rect x="209.863" y="211.953" width="289.272" height="56.4434" rx="4" fill="white"/>
</clipPath>
<clipPath id="clip3">
<rect x="209.863" y="12" width="289.272" height="187.773" rx="4" fill="white"/>
</clipPath>
<clipPath id="clip4">
<rect width="285" height="125.122" fill="white" transform="translate(209.863 71.6099)"/>
</clipPath>
<clipPath id="clip5">
<rect width="247.927" height="41.7073" fill="white" transform="translate(228.399 71.6099)"/>
</clipPath>
<clipPath id="clip6">
<rect width="247.927" height="83.4146" fill="white" transform="translate(228.399 113.317)"/>
</clipPath>
</defs>
</svg>
