<?xml version="1.0" encoding="utf-8"?>
<!-- Generator: Adobe Illustrator 24.0.0, SVG Export Plug-In . SVG Version: 6.00 Build 0)  -->
<svg version="1.1" id="Layer_1" xmlns="http://www.w3.org/2000/svg" xmlns:xlink="http://www.w3.org/1999/xlink" x="0px" y="0px"
	 viewBox="0 0 32 36" style="enable-background:new 0 0 32 36;" xml:space="preserve">
<g>
	<polygon points="1.5,36 0.5,36 0.5,0.5 32,0.5 32,1.5 1.5,1.5 	"/>
</g>
<g>
	<path d="M0.9,36C32.1,0.6,31.7,1.1,31.7,1.1L0.9,36z"/>
	<path d="M1.3,36.3l-0.7-0.7C15.7,18.4,23.4,9.7,27.3,5.3c0.9-1,1.6-1.8,2.1-2.4l1.9-2.1l0.1,0.1c0.4-0.3,0.5-0.2,0.6-0.1l0.4,0.3
		L1.3,36.3C1.3,36.3,1.3,36.3,1.3,36.3L1.3,36.3z"/>
</g>
</svg>
