<svg width="8" height="10" viewBox="0 0 8 10" fill="none" xmlns="http://www.w3.org/2000/svg">
<path d="M0 6.52869C0 5.70974 0 4.94539 0 4.12644C0 4.07184 0 4.07184 0 4.01725C0 3.79886 0.16379 3.63507 0.382176 3.58048C0.709755 3.52588 0.982738 3.52588 1.31032 3.52588C1.5833 3.52588 1.85628 3.58048 2.12927 3.74427C2.34765 3.85346 2.51144 4.01725 2.72983 4.12644C3.112 4.39942 3.54878 4.61781 4.09474 4.67241C4.47692 4.727 4.85909 4.67241 5.24127 4.61781C5.51425 4.56321 5.84183 4.50862 6.11481 4.45402C6.49699 4.39942 6.87917 4.39942 7.26134 4.50862C7.37053 4.50862 7.42513 4.56321 7.53432 4.61781C7.64352 4.67241 7.69811 4.7816 7.69811 4.94539V4.99999C7.69811 6.3103 7.69811 7.67522 7.69811 8.98553C7.69811 9.42231 7.37053 9.74989 6.93376 9.74989C6.49699 9.74989 6.00562 9.74989 5.56885 9.74989C5.13208 9.74989 4.8045 9.42231 4.8045 8.98553C4.8045 8.33038 4.8045 7.67522 4.8045 7.02006C4.8045 6.74708 4.8045 6.52869 4.7499 6.25571C4.6953 5.81893 4.31313 5.43676 3.82176 5.32757C3.54878 5.27297 3.27579 5.27297 3.00281 5.32757C2.94821 5.38216 2.89362 5.38216 2.89362 5.54595C2.89362 6.20111 2.89362 6.85627 2.89362 7.51143C2.89362 8.0028 2.89362 8.49417 2.89362 8.98553C2.89362 9.42231 2.56604 9.74989 2.18386 9.74989C1.69249 9.74989 1.14653 9.74989 0.655159 9.74989C0.272983 9.69529 0 9.36771 0 8.98553C0 8.22118 0 7.45683 0 6.74708V6.52869Z" fill="white"/>
<path d="M1.41951 3.14362C0.655159 3.14362 0 2.48846 0 1.72411C0 0.905159 0.655159 0.25 1.47411 0.25C2.29306 0.25 2.89362 0.905159 2.89362 1.72411C2.89362 2.48846 2.23846 3.14362 1.41951 3.14362Z" fill="white"/>
<path d="M7.64353 2.43416C7.64353 3.25311 6.98837 3.90827 6.16942 3.90827C5.40507 3.90827 4.74991 3.25311 4.74991 2.43416C4.74991 1.61521 5.40507 1.01465 6.22402 1.01465C6.98837 1.01465 7.64353 1.66981 7.64353 2.43416Z" fill="white"/>
</svg>
