<svg width="46" height="48" viewBox="0 0 46 48" fill="none" xmlns="http://www.w3.org/2000/svg">
<path d="M22.4524 1L1.5 23.2581L23.8492 47L44.8016 24.7419L22.4524 1Z" fill="white" stroke="black"/>
<path d="M34.3253 21.7744L41.3094 29.1938V38.097H38.5158V36.6131H28.0396L26.6428 35.1293H25.2459L21.0555 30.6776V29.1938L22.4523 27.7099V26.226L26.6428 21.7744H34.3253Z" fill="white"/>
<path d="M22.4523 27.7099V26.226L26.6428 21.7744H34.3253L41.3094 29.1938V38.097H38.5158V36.6131H28.0396L26.6428 35.1293H25.2459L21.0555 30.6776V29.1938M22.4523 27.7099H25.2459M22.4523 27.7099L21.0555 29.1938M25.2459 27.7099L26.6428 26.226H28.0396L29.4364 27.7099V29.1938M25.2459 27.7099V29.1938L26.6428 30.6776H28.0396L29.4364 29.1938M29.4364 29.1938H35.7221M21.0555 29.1938H16.865" stroke="black"/>
<rect x="41.3096" y="28.4512" width="4.19048" height="11.871" fill="black"/>
<rect x="25.2461" y="28.4512" width="4.19048" height="1.48387" fill="black"/>
</svg>
