<svg width="48" height="46" viewBox="0 0 48 46" fill="none" xmlns="http://www.w3.org/2000/svg">
<path d="M11.9524 44.8095H1V16.3333H11.9524V44.8095ZM31.6667 25.0952C30.5048 25.0952 29.3905 25.5568 28.5689 26.3784C27.7473 27.2 27.2857 28.3143 27.2857 29.4762V44.8095H16.3333V16.3333H27.2857V19.5862C29.7309 17.5138 32.8207 16.3561 36.0257 16.3114C42.5139 16.3114 47 21.1305 47 30.2319V44.8095H36.0476V29.4762C36.0476 28.3143 35.5861 27.2 34.7645 26.3784C33.9429 25.5568 32.8286 25.0952 31.6667 25.0952ZM11.9524 6.47619C11.9524 7.55928 11.6312 8.61804 11.0295 9.5186C10.4277 10.4192 9.57248 11.121 8.57184 11.5355C7.5712 11.95 6.47012 12.0585 5.40784 11.8472C4.34556 11.6359 3.3698 11.1143 2.60394 10.3484C1.83808 9.58258 1.31653 8.60682 1.10523 7.54454C0.893926 6.48226 1.00237 5.38119 1.41685 4.38054C1.83133 3.3799 2.53323 2.52464 3.43378 1.9229C4.33434 1.32117 5.3931 1 6.47619 1C7.92857 1 9.32146 1.57695 10.3484 2.60394C11.3754 3.63092 11.9524 5.02381 11.9524 6.47619Z" fill="white" stroke="black" stroke-linecap="round" stroke-linejoin="round"/>
</svg>
