<svg width="81" height="52" viewBox="0 0 81 52" fill="none" xmlns="http://www.w3.org/2000/svg">
<path d="M1.36617 1H9.92623L12.6127 3.66337L13.5525 1H18.3125L22.1688 4.83503V1C22.1688 1 27.6113 1 28.144 1C28.6768 1 30.5971 1.31686 30.9013 1.56414C31.2056 1.81142 33.2634 3.84619 33.2634 3.84619V1H36.6633L43.6904 8.0678V6.99677L39.8126 1H43.5814L45.9701 3.39724L47.4532 1H51.1867L80.5 30.2775V51.6047H16.9039L0.5 34.9971L3.70325 25.9345H7.20118L3.81899 22.456V19.1655L0.698765 15.9969V13.4673H4.77428L1.36617 9.98864V1Z" fill="white" stroke="black" stroke-width="0.75" stroke-linejoin="round"/>
<path d="M9.73872 7.70298V9.98864H1.36633V1H9.70019V3.28566H4.57679V4.38995H9.44334V6.49584H4.57679V7.70284H9.73872V7.70298Z" fill="white" stroke="black" stroke-width="0.75" stroke-miterlimit="10" stroke-linejoin="round"/>
<path d="M17.4819 8.26795H14.1047L13.5525 9.98864H10.381L13.5525 1H18.1495L21.2956 9.98864H18.0339L17.4819 8.26795ZM16.9039 6.4702L15.7998 3.04171L14.6953 6.4702H16.9039Z" fill="white" stroke="black" stroke-width="0.75" stroke-miterlimit="10" stroke-linejoin="round"/>
<path d="M28.2813 9.98864L25.3792 6.30331V9.98864H22.1691V1H28.4995C30.631 1 31.9665 2.20701 31.9665 4.0304C31.9665 5.63563 30.9522 6.75268 29.3985 6.88117L32.0564 9.98864H28.2813ZM27.1899 5.35315C28.1402 5.35315 28.6407 4.98071 28.6407 4.27449C28.6407 3.60682 28.1786 3.26002 27.2797 3.26002H25.3792V5.35315H27.1899Z" fill="white" stroke="black" stroke-width="0.75" stroke-miterlimit="10" stroke-linejoin="round"/>
<path d="M41.5205 7.36907V9.98864H33.2637V1H36.4739V7.36921H41.5205V7.36907Z" fill="white" stroke="black" stroke-width="0.75" stroke-miterlimit="10" stroke-linejoin="round"/>
<path d="M51.0613 1L47.1578 6.99677V9.98864H43.6908V6.99677L39.8127 1H43.408L45.4113 4.30014L47.4529 1H51.0613Z" fill="white" stroke="black" stroke-width="0.75" stroke-miterlimit="10" stroke-linejoin="round"/>
<path d="M10.0854 15.9974H7.02907V22.4564H3.81889V15.9974H0.698669V13.4678H10.0854V15.9974Z" fill="white" stroke="black" stroke-width="0.75" stroke-miterlimit="10" stroke-linejoin="round"/>
<path d="M16.3262 20.7357H12.949L12.3968 22.4564H9.22516L12.3968 13.4678H16.9938L20.1399 22.4564H16.8782L16.3262 20.7357ZM15.7481 18.9382L14.6439 15.5096L13.5395 18.9382H15.7481Z" fill="white" stroke="black" stroke-width="0.75" stroke-miterlimit="10" stroke-linejoin="round"/>
<path d="M29.2699 19.8371V22.4566H21.0132V13.4678H24.2234V19.8371H29.2699Z" fill="white" stroke="black" stroke-width="0.75" stroke-miterlimit="10" stroke-linejoin="round"/>
<path d="M38.6694 20.1708V22.4564H30.2973V13.4678H38.6311V15.7534H33.5075V16.8579H38.3743V18.9636H33.5075V20.1706H38.6694V20.1708Z" fill="white" stroke="black" stroke-width="0.75" stroke-miterlimit="10" stroke-linejoin="round"/>
<path d="M50.2522 13.4678V22.4564H46.1559L42.997 16.7808V22.4564H40.1464V13.4678H44.3712L47.4144 19.0408V13.4678H50.2522Z" fill="white" stroke="black" stroke-width="0.75" stroke-miterlimit="10" stroke-linejoin="round"/>
<path d="M60.6662 15.9974H57.6103V22.4564H54.4001V15.9974H51.2795V13.4678H60.6662V15.9974Z" fill="white" stroke="black" stroke-width="0.75" stroke-miterlimit="10" stroke-linejoin="round"/>
<path d="M7.63258 33.2025H4.25551L3.70329 34.9232H0.531647L3.70329 25.9346H8.30053L11.4464 34.9232H8.18493L7.63258 33.2025ZM7.05485 31.4049L5.95042 27.9764L4.84626 31.4049H7.05485Z" fill="white" stroke="black" stroke-width="0.75" stroke-miterlimit="10" stroke-linejoin="round"/>
<path d="M26.4833 25.9346L24.2235 34.9232H20.1144L18.5221 29.3888L17.0196 34.9232H13.3089L11.0359 25.9346H14.2719L15.4789 31.1866L16.8915 25.9346H20.4738L22.0149 31.4689L23.2733 25.9346H26.4833Z" fill="white" stroke="black" stroke-width="0.75" stroke-miterlimit="10" stroke-linejoin="round"/>
<path d="M33.1739 33.2025H29.7969L29.2446 34.9232H26.073L29.2446 25.9346H33.8416L36.9878 34.9232H33.726L33.1739 33.2025ZM32.5959 31.4049L31.4918 27.9764L30.3873 31.4049H32.5959Z" fill="white" stroke="black" stroke-width="0.75" stroke-miterlimit="10" stroke-linejoin="round"/>
<path d="M43.9731 34.9232L41.0711 31.2379V34.9232H37.8609V25.9346H44.1913C46.3228 25.9346 47.6583 27.1416 47.6583 28.965C47.6583 30.5703 46.644 31.6872 45.0903 31.8157L47.7483 34.9232H43.9731ZM42.8817 30.2877C43.8319 30.2877 44.3325 29.9153 44.3325 29.2091C44.3325 28.5415 43.8704 28.1947 42.9715 28.1947H41.0711V30.2877H42.8817Z" fill="white" stroke="black" stroke-width="0.75" stroke-miterlimit="10" stroke-linejoin="round"/>
<path d="M48.9556 25.9346H53.9636C57.6874 25.9346 59.5234 27.8223 59.5234 30.3775C59.5234 32.843 57.6743 34.9232 53.6037 34.9232H48.9556V25.9346ZM53.5526 32.6376C55.209 32.6376 56.0823 31.7517 56.0823 30.3649C56.0823 29.1192 55.3631 28.2204 53.7322 28.2204H52.1658V32.6376H53.5526Z" fill="white" stroke="black" stroke-width="0.75" stroke-miterlimit="10" stroke-linejoin="round"/>
<path d="M60.564 34.0761V31.7518C61.6554 32.4325 63.0679 32.9075 64.5319 32.9075C65.5463 32.9075 66.034 32.7274 66.034 32.3295C66.034 31.9828 65.7644 31.7903 64.8656 31.636L63.5816 31.405C61.4243 31.0198 60.4999 30.0822 60.4999 28.5801C60.4999 26.8722 61.9893 25.665 65.0969 25.665C66.9974 25.665 68.2044 26.1529 68.872 26.5639V28.7983C68.23 28.4386 67.0101 28.015 65.5077 28.015C64.3138 28.015 63.8514 28.2203 63.8514 28.5542C63.8514 28.8496 64.0824 28.9781 64.9042 29.0934L66.3426 29.3247C68.4228 29.6714 69.4115 30.4804 69.4115 32.111C69.4115 33.986 67.6009 35.1927 64.8913 35.1927C63.1065 35.193 61.6041 34.7179 60.564 34.0761Z" fill="white" stroke="black" stroke-width="0.75" stroke-miterlimit="10" stroke-linejoin="round"/>
</svg>
