<svg width="36" height="48" viewBox="0 0 36 48" fill="none" xmlns="http://www.w3.org/2000/svg">
<path d="M29.2545 40.0072C28.9582 38.7563 28.2589 37.6374 27.2644 36.8228C26.2698 36.0082 25.0351 35.5431 23.7503 35.499H12.2497C10.9652 35.5434 9.73088 36.0091 8.73707 36.8242C7.74326 37.6392 7.04508 38.7585 6.75014 40.0096L5.34937 46.9996H30.6506L29.2545 40.0072Z" stroke="black" stroke-linecap="round" stroke-linejoin="round"/>
<path d="M26.0504 36.0492V33.6593C26.0503 33.2226 25.9259 32.7949 25.6917 32.4263C25.4575 32.0577 25.1232 31.7633 24.7278 31.5777C23.3121 30.9077 22.1318 29.8256 21.3417 28.4732C20.5516 27.1208 20.1885 25.5612 20.3001 23.9988C20.3001 16.2107 28.9117 25.6457 29.473 3.35762C29.4806 3.05076 29.4268 2.74547 29.3147 2.45973C29.2025 2.174 29.0343 1.9136 28.82 1.69389C28.6056 1.47418 28.3494 1.29959 28.0666 1.18042C27.7837 1.06125 27.4798 0.999904 27.1729 1H8.83403C8.52688 0.999896 8.22282 1.06131 7.93978 1.18063C7.65675 1.29994 7.40048 1.47473 7.18609 1.69469C6.97171 1.91465 6.80355 2.17532 6.69154 2.46133C6.57953 2.74733 6.52593 3.05287 6.53392 3.35992C7.09515 25.6457 15.6999 16.2107 15.6999 23.9988C15.8139 25.5631 15.452 27.1251 14.6617 28.4799C13.8715 29.8346 12.6899 30.9185 11.2722 31.5892C10.8786 31.774 10.5455 32.0665 10.3114 32.4329C10.0773 32.7993 9.95185 33.2246 9.94959 33.6593V36.0492" stroke="black" stroke-linecap="round" stroke-linejoin="round"/>
<path d="M6.49943 3.29785H0.749146C0.749146 3.29785 0.749147 14.1728 8.15092 14.7731" stroke="black" stroke-linecap="round" stroke-linejoin="round"/>
<path d="M29.5006 3.29785H35.2509C35.2509 3.29785 35.2509 14.1751 27.8468 14.7731" stroke="black" stroke-linecap="round" stroke-linejoin="round"/>
</svg>
