<svg width="48" height="48" viewBox="0 0 48 48" fill="none" xmlns="http://www.w3.org/2000/svg">
<path d="M8.992 40C8.992 39.7348 8.88665 39.4804 8.69911 39.2929C8.51157 39.1054 8.25722 39 7.992 39H3.992C3.72679 39 3.47243 39.1054 3.2849 39.2929C3.09736 39.4804 2.992 39.7348 2.992 40V47H8.992V40Z" stroke="black" stroke-linecap="round" stroke-linejoin="round"/>
<path d="M20.992 30C20.992 29.7348 20.8866 29.4804 20.6991 29.2929C20.5116 29.1054 20.2572 29 19.992 29H15.992C15.7268 29 15.4724 29.1054 15.2849 29.2929C15.0974 29.4804 14.992 29.7348 14.992 30V47H20.992V30Z" stroke="black" stroke-linecap="round" stroke-linejoin="round"/>
<path d="M32.992 36C32.992 35.7348 32.8866 35.4804 32.6991 35.2929C32.5116 35.1054 32.2572 35 31.992 35H27.992C27.7268 35 27.4724 35.1054 27.2849 35.2929C27.0974 35.4804 26.992 35.7348 26.992 36V47H32.992V36Z" stroke="black" stroke-linecap="round" stroke-linejoin="round"/>
<path d="M44.992 20C44.992 19.7348 44.8866 19.4804 44.6991 19.2929C44.5116 19.1054 44.2572 19 43.992 19H39.992C39.7268 19 39.4724 19.1054 39.2849 19.2929C39.0974 19.4804 38.992 19.7348 38.992 20V47H44.992V20Z" stroke="black" stroke-linecap="round" stroke-linejoin="round"/>
<path d="M1 47H47" stroke="black" stroke-linecap="round" stroke-linejoin="round"/>
<path d="M7.828 17.1721L13.172 11.8281" stroke="black" stroke-linecap="round" stroke-linejoin="round"/>
<path d="M19.456 11.0156L24.544 13.9836" stroke="black" stroke-linecap="round" stroke-linejoin="round"/>
<path d="M31.146 13.5277L38.854 7.47168" stroke="black" stroke-linecap="round" stroke-linejoin="round"/>
<path d="M38 5C38 6.06087 38.4214 7.07828 39.1716 7.82843C39.9217 8.57857 40.9391 9 42 9C43.0609 9 44.0783 8.57857 44.8284 7.82843C45.5786 7.07828 46 6.06087 46 5C46 3.93913 45.5786 2.92172 44.8284 2.17157C44.0783 1.42143 43.0609 1 42 1C40.9391 1 39.9217 1.42143 39.1716 2.17157C38.4214 2.92172 38 3.93913 38 5V5Z" stroke="black" stroke-linecap="round" stroke-linejoin="round"/>
<path d="M24 16C24 17.0609 24.4214 18.0783 25.1716 18.8284C25.9217 19.5786 26.9391 20 28 20C29.0609 20 30.0783 19.5786 30.8284 18.8284C31.5786 18.0783 32 17.0609 32 16C32 14.9391 31.5786 13.9217 30.8284 13.1716C30.0783 12.4214 29.0609 12 28 12C26.9391 12 25.9217 12.4214 25.1716 13.1716C24.4214 13.9217 24 14.9391 24 16Z" stroke="black" stroke-linecap="round" stroke-linejoin="round"/>
<path d="M12 9C12 10.0609 12.4214 11.0783 13.1716 11.8284C13.9217 12.5786 14.9391 13 16 13C17.0609 13 18.0783 12.5786 18.8284 11.8284C19.5786 11.0783 20 10.0609 20 9C20 7.93913 19.5786 6.92172 18.8284 6.17157C18.0783 5.42143 17.0609 5 16 5C14.9391 5 13.9217 5.42143 13.1716 6.17157C12.4214 6.92172 12 7.93913 12 9V9Z" stroke="black" stroke-linecap="round" stroke-linejoin="round"/>
<path d="M1 20C1 20.5253 1.10346 21.0454 1.30448 21.5307C1.5055 22.016 1.80014 22.457 2.17157 22.8284C2.54301 23.1999 2.98396 23.4945 3.46927 23.6955C3.95457 23.8965 4.47471 24 5 24C5.52529 24 6.04543 23.8965 6.53073 23.6955C7.01604 23.4945 7.45699 23.1999 7.82843 22.8284C8.19986 22.457 8.4945 22.016 8.69552 21.5307C8.89654 21.0454 9 20.5253 9 20C9 19.4747 8.89654 18.9546 8.69552 18.4693C8.4945 17.984 8.19986 17.543 7.82843 17.1716C7.45699 16.8001 7.01604 16.5055 6.53073 16.3045C6.04543 16.1035 5.52529 16 5 16C4.47471 16 3.95457 16.1035 3.46927 16.3045C2.98396 16.5055 2.54301 16.8001 2.17157 17.1716C1.80014 17.543 1.5055 17.984 1.30448 18.4693C1.10346 18.9546 1 19.4747 1 20V20Z" stroke="black" stroke-linecap="round" stroke-linejoin="round"/>
</svg>
