<svg width="47" height="46" viewBox="0 0 47 46" fill="none" xmlns="http://www.w3.org/2000/svg">
<path d="M22.5 45C22.5 42.0826 21.3411 39.2847 19.2782 37.2218C17.2153 35.1589 14.4174 34 11.5 34C8.58262 34 5.78473 35.1589 3.72183 37.2218C1.65893 39.2847 0.5 42.0826 0.5 45H22.5Z" stroke="black" stroke-linecap="round" stroke-linejoin="round"/>
<path d="M4.89401 24.5C4.89401 26.2239 5.57883 27.8772 6.79782 29.0962C8.0168 30.3152 9.67011 31 11.394 31C13.1179 31 14.7712 30.3152 15.9902 29.0962C17.2092 27.8772 17.894 26.2239 17.894 24.5C17.894 22.7761 17.2092 21.1228 15.9902 19.9038C14.7712 18.6848 13.1179 18 11.394 18C9.67011 18 8.0168 18.6848 6.79782 19.9038C5.57883 21.1228 4.89401 22.7761 4.89401 24.5V24.5Z" stroke="black" stroke-linecap="round" stroke-linejoin="round"/>
<path d="M25.006 8.5C25.006 8.95963 25.0965 9.41475 25.2724 9.83939C25.4483 10.264 25.7061 10.6499 26.0311 10.9749C26.3561 11.2999 26.742 11.5577 27.1666 11.7336C27.5913 11.9095 28.0464 12 28.506 12C28.9656 12 29.4208 11.9095 29.8454 11.7336C30.27 11.5577 30.6559 11.2999 30.9809 10.9749C31.3059 10.6499 31.5637 10.264 31.7396 9.83939C31.9155 9.41475 32.006 8.95963 32.006 8.5C32.006 8.04037 31.9155 7.58525 31.7396 7.16061C31.5637 6.73597 31.3059 6.35013 30.9809 6.02513C30.6559 5.70012 30.27 5.44231 29.8454 5.26642C29.4208 5.09053 28.9656 5 28.506 5C28.0464 5 27.5913 5.09053 27.1666 5.26642C26.742 5.44231 26.3561 5.70012 26.0311 6.02513C25.7061 6.35013 25.4483 6.73597 25.2724 7.16061C25.0965 7.58525 25.006 8.04037 25.006 8.5V8.5Z" stroke="black" stroke-linecap="round" stroke-linejoin="round"/>
<path d="M35.5 18.9996C35.1034 17.4441 34.1999 16.065 32.9324 15.0801C31.6648 14.0952 30.1052 13.5605 28.5 13.5605C26.8948 13.5605 25.3352 14.0952 24.0677 15.0801C22.8001 16.065 21.8966 17.4441 21.5 18.9996" stroke="black" stroke-linecap="round" stroke-linejoin="round"/>
<path d="M42.5 23V3C42.5 2.46957 42.2893 1.96086 41.9142 1.58579C41.5391 1.21071 41.0304 1 40.5 1H14.5C13.9696 1 13.4609 1.21071 13.0858 1.58579C12.7107 1.96086 12.5 2.46957 12.5 3V14" stroke="black" stroke-linecap="round" stroke-linejoin="round"/>
<path d="M23.5 23H46.5C46.5 24.0609 46.0786 25.0783 45.3284 25.8284C44.5783 26.5786 43.5609 27 42.5 27H23.5" stroke="black" stroke-linecap="round" stroke-linejoin="round"/>
</svg>
