<svg width="48" height="48" viewBox="0 0 48 48" fill="none" xmlns="http://www.w3.org/2000/svg">
<path d="M27.0001 19.9999C27.0001 20.2651 27.1054 20.5194 27.293 20.707C27.4805 20.8945 27.7348 20.9999 28.0001 20.9999H46.9999C46.9999 15.6956 44.8928 10.6085 41.1421 6.85782C37.3914 3.10712 32.3044 1 27.0001 1V19.9999Z" stroke="black" stroke-linecap="round" stroke-linejoin="round"/>
<path d="M41.15 39.1419C43.0088 37.2864 44.4826 35.0818 45.4865 32.6549C46.4904 30.2279 47.0048 27.6264 46.9999 25H28.0001C27.4501 25 27.3181 25.318 27.7061 25.706L41.15 39.1419Z" stroke="black" stroke-linecap="round" stroke-linejoin="round"/>
<path d="M21.0001 7C17.7111 6.99996 14.4729 7.81106 11.5722 9.36146C8.67152 10.9119 6.19798 13.1537 4.37068 15.8884C2.54338 18.6231 1.41872 21.7663 1.09632 25.0394C0.773923 28.3126 1.26374 31.6148 2.52239 34.6534C3.78104 37.6921 5.76966 40.3735 8.3121 42.46C10.8545 44.5465 13.8723 45.9738 17.0982 46.6154C20.324 47.2571 23.6583 47.0933 26.8057 46.1385C29.953 45.1837 32.8164 43.4675 35.142 41.1418L21.7061 27.7059C21.2835 27.2341 21.0344 26.6323 21.0001 25.9999V7Z" stroke="black" stroke-linecap="round" stroke-linejoin="round"/>
</svg>
