<svg id="bb40bf88-309f-4253-9b9a-5ed7df071cec" data-name="Layer 1" xmlns="http://www.w3.org/2000/svg" width="37.24" height="45.96" viewBox="0 0 37.24 45.96"><title>icon-handshake</title><path d="M8.9,0a14.51,14.51,0,0,1,1.51.39,6.74,6.74,0,0,1,4.52,5.83A7,7,0,1,1,7.23.06.76.76,0,0,0,7.39,0ZM14,6.92A5.87,5.87,0,0,0,7.85,1,6.12,6.12,0,0,0,2,7.47,6,6,0,0,0,8.07,13,6,6,0,0,0,14,6.92Z" transform="translate(-0.98)"/><path d="M1,30.33V18.47a2.2,2.2,0,0,1,2-2.38A18.61,18.61,0,0,1,9.14,16a9.34,9.34,0,0,1,3.38,1.61,29.13,29.13,0,0,0,4.54,2.74,13.13,13.13,0,0,0,7.13,1c2.14-.29,4.27-.71,6.41-1.05a12.47,12.47,0,0,1,5.3.21,13.18,13.18,0,0,1,1.37.5,1.56,1.56,0,0,1,.95,1.55,2.09,2.09,0,0,1,0,.25q0,9.68,0,19.34A3.6,3.6,0,0,1,34.45,46H27.94a3.59,3.59,0,0,1-3.72-3.71c0-3.61,0-7.22,0-10.82a12.43,12.43,0,0,0-.39-3,5.29,5.29,0,0,0-3.54-3.63,8.66,8.66,0,0,0-4.57-.27.85.85,0,0,0-.67.75,3.7,3.7,0,0,0,0,.47c0,5.45,0,10.9,0,16.36A3.58,3.58,0,0,1,13,45.62a3.18,3.18,0,0,1-1.35.31c-2.34,0-4.67,0-7,0a3.65,3.65,0,0,1-3.52-2.91A5.15,5.15,0,0,1,1,42C1,38.12,1,34.22,1,30.33Zm1,0c0,3.95,0,7.9,0,11.86A2.73,2.73,0,0,0,4.73,45c2.24-.07,4.48,0,6.72,0a2.3,2.3,0,0,0,2.24-1.46A3.46,3.46,0,0,0,14,42.13c0-5.42,0-10.83,0-16.25a6.28,6.28,0,0,1,0-.75,1.63,1.63,0,0,1,1.14-1.49,9.1,9.1,0,0,1,6,.45,6.1,6.1,0,0,1,3.63,4.2,15.93,15.93,0,0,1,.39,3.31c0,3.51,0,7,0,10.53A2.63,2.63,0,0,0,28,44.94h6.25A2.66,2.66,0,0,0,37.22,42V22.93a1.32,1.32,0,0,0,0-.49.93.93,0,0,0-.33-.46,6.63,6.63,0,0,0-1.12-.43,11.34,11.34,0,0,0-4.95-.21c-2.13.33-4.24.76-6.37,1a13.53,13.53,0,0,1-8-1.21,51.49,51.49,0,0,1-4.44-2.7A8.31,8.31,0,0,0,8.81,17a11,11,0,0,0-2.14-.15c-1.18,0-2.37.11-3.54.24A1.18,1.18,0,0,0,2,18.47Z" transform="translate(-0.98)"/><path d="M31,3.7A7,7,0,0,1,38,10.56a7,7,0,1,1-14,0A6.89,6.89,0,0,1,31,3.7ZM25,10.39a6,6,0,1,0,12,.62,6,6,0,0,0-5.57-6.29A5.87,5.87,0,0,0,25,10.39Z" transform="translate(-0.98)"/><path d="M14,6.92A6,6,0,0,1,8.07,13,6,6,0,0,1,2,7.47,6.12,6.12,0,0,1,7.85,1,5.87,5.87,0,0,1,14,6.92Z" transform="translate(-0.98)" style="fill:#fff"/><path d="M2,30.34V18.47a1.18,1.18,0,0,1,1.13-1.36c1.17-.13,2.36-.2,3.54-.24A11,11,0,0,1,8.81,17a8.31,8.31,0,0,1,3.1,1.45,51.49,51.49,0,0,0,4.44,2.7,13.53,13.53,0,0,0,8,1.21c2.13-.28,4.24-.71,6.37-1a11.34,11.34,0,0,1,4.95.21,6.63,6.63,0,0,1,1.12.43.93.93,0,0,1,.33.46,1.32,1.32,0,0,1,0,.49V42a2.66,2.66,0,0,1-2.93,2.92H28a2.63,2.63,0,0,1-2.81-2.81c0-3.51,0-7,0-10.53a15.93,15.93,0,0,0-.39-3.31,6.1,6.1,0,0,0-3.63-4.2,9.1,9.1,0,0,0-6-.45A1.63,1.63,0,0,0,14,25.13a6.28,6.28,0,0,0,0,.75c0,5.42,0,10.83,0,16.25a3.46,3.46,0,0,1-.27,1.35,2.3,2.3,0,0,1-2.24,1.46c-2.24,0-4.48,0-6.72,0A2.73,2.73,0,0,1,2,42.2C2,38.24,2,34.29,2,30.34Z" transform="translate(-0.98)" style="fill:#fff"/><path d="M25,10.39a5.87,5.87,0,0,1,6.39-5.67A6,6,0,0,1,36.93,11a6,6,0,1,1-12-.62Z" transform="translate(-0.98)" style="fill:#fff"/></svg>