<svg width="47" height="42" viewBox="0 0 47 42" fill="none" xmlns="http://www.w3.org/2000/svg">
<path d="M0.5 6.99805H46.5V40.998H0.5V6.99805Z" stroke="black" stroke-linecap="round" stroke-linejoin="round"/>
<path d="M6.5 11V20C6.5 20.7956 6.81607 21.5587 7.37868 22.1213C7.94129 22.6839 8.70435 23 9.5 23C10.2956 23 11.0587 22.6839 11.6213 22.1213C12.1839 21.5587 12.5 20.7956 12.5 20V5C12.5 3.93913 12.0786 2.92172 11.3284 2.17157C10.5783 1.42143 9.56087 1 8.5 1C7.43913 1 6.42172 1.42143 5.67157 2.17157C4.92143 2.92172 4.5 3.93913 4.5 5V7" stroke="black" stroke-linecap="round" stroke-linejoin="round"/>
<path d="M18.5 16.998H40.5" stroke="black" stroke-linecap="round" stroke-linejoin="round"/>
<path d="M16.5 24.998H40.5" stroke="black" stroke-linecap="round" stroke-linejoin="round"/>
<path d="M6.5 32.998H40.5" stroke="black" stroke-linecap="round" stroke-linejoin="round"/>
</svg>
