<svg width="47" height="48" viewBox="0 0 47 48" fill="none" xmlns="http://www.w3.org/2000/svg">
<path d="M0.5 1H46.5V47H0.5V1Z" fill="white" stroke="black" stroke-linecap="round" stroke-linejoin="round"/>
<path d="M0.5 11H46.5H0.5Z" fill="white"/>
<path d="M0.5 11H46.5" stroke="black" stroke-linecap="round" stroke-linejoin="round"/>
<path d="M7.5 5.5C7.59889 5.5 7.69556 5.52932 7.77779 5.58427C7.86001 5.63921 7.9241 5.7173 7.96194 5.80866C7.99978 5.90002 8.00969 6.00055 7.99039 6.09755C7.9711 6.19454 7.92348 6.28363 7.85355 6.35355C7.78363 6.42348 7.69454 6.4711 7.59755 6.49039C7.50056 6.50969 7.40002 6.49978 7.30866 6.46194C7.2173 6.4241 7.13921 6.36001 7.08427 6.27779C7.02932 6.19556 7 6.09889 7 6C7 5.86739 7.05268 5.74021 7.14645 5.64645C7.24021 5.55268 7.36739 5.5 7.5 5.5Z" fill="white"/>
<path d="M7.5 5.5C7.59889 5.5 7.69556 5.52932 7.77779 5.58427C7.86001 5.63921 7.9241 5.7173 7.96194 5.80866C7.99978 5.90002 8.00969 6.00055 7.99039 6.09755C7.9711 6.19454 7.92348 6.28363 7.85355 6.35355C7.78363 6.42348 7.69454 6.4711 7.59755 6.49039C7.50056 6.50969 7.40002 6.49978 7.30866 6.46194C7.2173 6.4241 7.13921 6.36001 7.08427 6.27779C7.02932 6.19556 7 6.09889 7 6C7 5.86739 7.05268 5.74021 7.14645 5.64645C7.24021 5.55268 7.36739 5.5 7.5 5.5" stroke="black" stroke-linecap="round" stroke-linejoin="round"/>
<path d="M13.5 5.5C13.5989 5.5 13.6956 5.52932 13.7778 5.58427C13.86 5.63921 13.9241 5.7173 13.9619 5.80866C13.9998 5.90002 14.0097 6.00055 13.9904 6.09755C13.9711 6.19454 13.9235 6.28363 13.8536 6.35355C13.7836 6.42348 13.6945 6.4711 13.5975 6.49039C13.5006 6.50969 13.4 6.49978 13.3087 6.46194C13.2173 6.4241 13.1392 6.36001 13.0843 6.27779C13.0293 6.19556 13 6.09889 13 6C13 5.86739 13.0527 5.74021 13.1464 5.64645C13.2402 5.55268 13.3674 5.5 13.5 5.5Z" fill="white" stroke="black" stroke-linecap="round" stroke-linejoin="round"/>
<path d="M19.5 5.5C19.5989 5.5 19.6956 5.52932 19.7778 5.58427C19.86 5.63921 19.9241 5.7173 19.9619 5.80866C19.9998 5.90002 20.0097 6.00055 19.9904 6.09755C19.9711 6.19454 19.9235 6.28363 19.8536 6.35355C19.7836 6.42348 19.6945 6.4711 19.5975 6.49039C19.5006 6.50969 19.4 6.49978 19.3087 6.46194C19.2173 6.4241 19.1392 6.36001 19.0843 6.27779C19.0293 6.19556 19 6.09889 19 6C19 5.86739 19.0527 5.74021 19.1464 5.64645C19.2402 5.55268 19.3674 5.5 19.5 5.5Z" fill="white" stroke="black" stroke-linecap="round" stroke-linejoin="round"/>
<path d="M6.5 17H40.5V23H6.5V17Z" fill="white" stroke="black" stroke-linecap="round" stroke-linejoin="round"/>
<path d="M6.5 27H12.5V41H6.5V27Z" fill="white" stroke="black" stroke-linecap="round" stroke-linejoin="round"/>
<path d="M18.5 29H38.5H18.5Z" fill="white"/>
<path d="M18.5 29H38.5" stroke="black" stroke-linecap="round" stroke-linejoin="round"/>
<path d="M18.5 33H38.5H18.5Z" fill="white"/>
<path d="M18.5 33H38.5" stroke="black" stroke-linecap="round" stroke-linejoin="round"/>
<path d="M18.5 37H38.5H18.5Z" fill="white"/>
<path d="M18.5 37H38.5" stroke="black" stroke-linecap="round" stroke-linejoin="round"/>
<path d="M18.5 41H32.5H18.5Z" fill="white"/>
<path d="M18.5 41H32.5" stroke="black" stroke-linecap="round" stroke-linejoin="round"/>
</svg>
