<svg width="47" height="36" viewBox="0 0 47 36" fill="none" xmlns="http://www.w3.org/2000/svg">
<path d="M38.5 33C38.5 31.9391 38.0786 30.9217 37.3284 30.1716C36.5783 29.4214 35.5609 29 34.5 29C33.4391 29 32.4217 29.4214 31.6716 30.1716C30.9214 30.9217 30.5 31.9391 30.5 33V34C30.5 34.2652 30.3946 34.5196 30.2071 34.7071C30.0196 34.8946 29.7652 35 29.5 35H16.5C16.2348 35 15.9804 34.8946 15.7929 34.7071C15.6054 34.5196 15.5 34.2652 15.5 34V33C15.5 31.9391 15.0786 30.9217 14.3284 30.1716C13.5783 29.4214 12.5609 29 11.5 29C10.4391 29 9.42172 29.4214 8.67157 30.1716C7.92143 30.9217 7.5 31.9391 7.5 33V34C7.5 34.2652 7.39464 34.5196 7.20711 34.7071C7.01957 34.8946 6.76522 35 6.5 35H2.5C1.96957 35 1.46086 34.7893 1.08579 34.4142C0.710714 34.0391 0.5 33.5304 0.5 33V3C0.5 2.46957 0.710714 1.96086 1.08579 1.58579C1.46086 1.21071 1.96957 1 2.5 1H44.5C45.0304 1 45.5391 1.21071 45.9142 1.58579C46.2893 1.96086 46.5 2.46957 46.5 3V33C46.5 33.5304 46.2893 34.0391 45.9142 34.4142C45.5391 34.7893 45.0304 35 44.5 35H39.5C39.2348 35 38.9804 34.8946 38.7929 34.7071C38.6054 34.5196 38.5 34.2652 38.5 34V33Z" fill="white" stroke="black" stroke-linecap="round" stroke-linejoin="round"/>
</svg>
