<svg width="47" height="33" viewBox="0 0 47 33" fill="none" xmlns="http://www.w3.org/2000/svg">
<path d="M36 21.5C36 21.9596 36.0905 22.4148 36.2664 22.8394C36.4423 23.264 36.7001 23.6499 37.0251 23.9749C37.3501 24.2999 37.736 24.5577 38.1606 24.7336C38.5852 24.9095 39.0404 25 39.5 25C39.9596 25 40.4148 24.9095 40.8394 24.7336C41.264 24.5577 41.6499 24.2999 41.9749 23.9749C42.2999 23.6499 42.5577 23.264 42.7336 22.8394C42.9095 22.4148 43 21.9596 43 21.5C43 21.0404 42.9095 20.5852 42.7336 20.1606C42.5577 19.736 42.2999 19.3501 41.9749 19.0251C41.6499 18.7001 41.264 18.4423 40.8394 18.2664C40.4148 18.0905 39.9596 18 39.5 18C39.0404 18 38.5852 18.0905 38.1606 18.2664C37.736 18.4423 37.3501 18.7001 37.0251 19.0251C36.7001 19.3501 36.4423 19.736 36.2664 20.1606C36.0905 20.5852 36 21.0404 36 21.5Z" stroke="black" stroke-linecap="round" stroke-linejoin="round"/>
<path d="M46.5 32.0015C46.1034 30.446 45.1999 29.067 43.9324 28.0821C42.6648 27.0972 41.1052 26.5625 39.5 26.5625C37.8948 26.5625 36.3352 27.0972 35.0676 28.0821C33.8001 29.067 32.8966 30.446 32.5 32.0015H46.5Z" stroke="black" stroke-linecap="round" stroke-linejoin="round"/>
<path d="M4 21.5C4 22.4283 4.36875 23.3185 5.02513 23.9749C5.6815 24.6313 6.57174 25 7.5 25C8.42826 25 9.3185 24.6313 9.97487 23.9749C10.6313 23.3185 11 22.4283 11 21.5C11 20.5717 10.6313 19.6815 9.97487 19.0251C9.3185 18.3687 8.42826 18 7.5 18C6.57174 18 5.6815 18.3687 5.02513 19.0251C4.36875 19.6815 4 20.5717 4 21.5V21.5Z" stroke="black" stroke-linecap="round" stroke-linejoin="round"/>
<path d="M14.5 32.0015C14.1034 30.446 13.1999 29.067 11.9323 28.0821C10.6648 27.0972 9.10525 26.5625 7.5 26.5625C5.89475 26.5625 4.33523 27.0972 3.06765 28.0821C1.80007 29.067 0.896642 30.446 0.5 32.0015H14.5Z" stroke="black" stroke-linecap="round" stroke-linejoin="round"/>
<path d="M20 8.5C20 9.42826 20.3687 10.3185 21.0251 10.9749C21.6815 11.6313 22.5717 12 23.5 12C24.4283 12 25.3185 11.6313 25.9749 10.9749C26.6313 10.3185 27 9.42826 27 8.5C27 7.57174 26.6313 6.6815 25.9749 6.02513C25.3185 5.36875 24.4283 5 23.5 5C22.5717 5 21.6815 5.36875 21.0251 6.02513C20.3687 6.6815 20 7.57174 20 8.5Z" stroke="black" stroke-linecap="round" stroke-linejoin="round"/>
<path d="M30.5 19.0015C30.1034 17.446 29.1999 16.067 27.9323 15.0821C26.6648 14.0972 25.1052 13.5625 23.5 13.5625C21.8948 13.5625 20.3352 14.0972 19.0677 15.0821C17.8001 16.067 16.8966 17.446 16.5 19.0015H30.5Z" stroke="black" stroke-linecap="round" stroke-linejoin="round"/>
<path d="M12.5 7H16.5" stroke="black" stroke-linecap="round" stroke-linejoin="round"/>
<path d="M14.956 1L18.266 3.244" stroke="black" stroke-linecap="round" stroke-linejoin="round"/>
<path d="M32.044 1L28.734 3.244" stroke="black" stroke-linecap="round" stroke-linejoin="round"/>
<path d="M30.5 7H34.5" stroke="black" stroke-linecap="round" stroke-linejoin="round"/>
</svg>
