<svg width="47" height="48" viewBox="0 0 47 48" fill="none" xmlns="http://www.w3.org/2000/svg">
<path d="M5.5 23H2.5C1.96957 23 1.46086 23.2107 1.08579 23.5858C0.710714 23.9609 0.5 24.4696 0.5 25V37C0.5 37.5304 0.710714 38.0391 1.08579 38.4142C1.46086 38.7893 1.96957 39 2.5 39H27.5L36.5 47V39H44.5C45.0304 39 45.5391 38.7893 45.9142 38.4142C46.2893 38.0391 46.5 37.5304 46.5 37V25C46.5 24.4696 46.2893 23.9609 45.9142 23.5858C45.5391 23.2107 45.0304 23 44.5 23H20.5" fill="white"/>
<path d="M5.5 23H2.5C1.96957 23 1.46086 23.2107 1.08579 23.5858C0.710714 23.9609 0.5 24.4696 0.5 25V37C0.5 37.5304 0.710714 38.0391 1.08579 38.4142C1.46086 38.7893 1.96957 39 2.5 39H27.5L36.5 47V39H44.5C45.0304 39 45.5391 38.7893 45.9142 38.4142C46.2893 38.0391 46.5 37.5304 46.5 37V25C46.5 24.4696 46.2893 23.9609 45.9142 23.5858C45.5391 23.2107 45.0304 23 44.5 23H20.5" stroke="black" stroke-linecap="round" stroke-linejoin="round"/>
<path d="M46.5 15C46.5 15.5304 46.2893 16.0391 45.9142 16.4142C45.5391 16.7893 45.0304 17 44.5 17H19.5L10.5 25V17H2.5C1.96957 17 1.46086 16.7893 1.08579 16.4142C0.710714 16.0391 0.5 15.5304 0.5 15V3C0.5 2.46957 0.710714 1.96086 1.08579 1.58579C1.46086 1.21071 1.96957 1 2.5 1H44.5C45.0304 1 45.5391 1.21071 45.9142 1.58579C46.2893 1.96086 46.5 2.46957 46.5 3V15Z" fill="white" stroke="black" stroke-linecap="round" stroke-linejoin="round"/>
</svg>
