<svg width="50" height="50" viewBox="0 0 50 50" fill="none" xmlns="http://www.w3.org/2000/svg">
<path d="M19.7823 48.9993H3.08693C2.53344 48.9993 2.00262 48.7794 1.61125 48.3881C1.21987 47.9967 1 47.4659 1 46.9124V7.26076C1 6.70727 1.21987 6.17645 1.61125 5.78507C2.00262 5.3937 2.53344 5.17383 3.08693 5.17383H7.26078" stroke="black" stroke-linecap="round" stroke-linejoin="round"/>
<path d="M32.3039 5.17383H36.4777C37.0312 5.17383 37.5621 5.3937 37.9534 5.78507C38.3448 6.17645 38.5647 6.70727 38.5647 7.26076V21.8692" stroke="black" stroke-linecap="round" stroke-linejoin="round"/>
<path d="M23.9563 5.17385C23.9563 4.06688 23.5165 3.00524 22.7338 2.22249C21.951 1.43974 20.8894 1 19.7824 1C18.6754 1 17.6138 1.43974 16.831 2.22249C16.0483 3.00524 15.6085 4.06688 15.6085 5.17385H11.4347V11.4346H28.1301V5.17385H23.9563Z" stroke="black" stroke-linecap="round" stroke-linejoin="round"/>
<path d="M34.3908 21.8692V10.3911C34.3908 10.1144 34.2809 9.84897 34.0852 9.65328C33.8895 9.45759 33.6241 9.34766 33.3474 9.34766H28.1301" stroke="black" stroke-linecap="round" stroke-linejoin="round"/>
<path d="M11.4346 9.34766H6.21729C5.94055 9.34766 5.67514 9.45759 5.47945 9.65328C5.28376 9.84897 5.17383 10.1144 5.17383 10.3911V43.782C5.17383 44.0587 5.28376 44.3241 5.47945 44.5198C5.67514 44.7155 5.94055 44.8254 6.21729 44.8254H19.7823" stroke="black" stroke-linecap="round" stroke-linejoin="round"/>
<path d="M11.4347 17.6934H28.1301" stroke="black" stroke-linecap="round" stroke-linejoin="round"/>
<path d="M11.4347 23.9541H28.1301" stroke="black" stroke-linecap="round" stroke-linejoin="round"/>
<path d="M11.4347 30.2148H19.7824" stroke="black" stroke-linecap="round" stroke-linejoin="round"/>
<path d="M32.7213 46.495L23.9562 48.9994L26.4605 40.2343L41.4425 25.2522C41.8536 24.8411 42.3417 24.515 42.8788 24.2926C43.4159 24.0701 43.9916 23.9556 44.5729 23.9556C45.1543 23.9556 45.73 24.0701 46.2671 24.2926C46.8042 24.515 47.2922 24.8411 47.7033 25.2522C48.1144 25.6633 48.4405 26.1513 48.663 26.6885C48.8855 27.2256 49 27.8012 49 28.3826C49 28.964 48.8855 29.5397 48.663 30.0768C48.4405 30.6139 48.1144 31.1019 47.7033 31.513L32.7213 46.495Z" stroke="black" stroke-linecap="round" stroke-linejoin="round"/>
<path d="M39.5643 27.1284L45.8251 33.3892" stroke="black" stroke-linecap="round" stroke-linejoin="round"/>
<path d="M26.4605 40.2319L32.7213 46.4927" stroke="black" stroke-linecap="round" stroke-linejoin="round"/>
</svg>
