<svg width="45" height="46" viewBox="0 0 45 46" fill="none" xmlns="http://www.w3.org/2000/svg">
<path d="M34.1608 5.78261L43.1329 1C45.7155 4.13739 43.7834 6.73913 42.6164 7.29391L37.9869 9.6087L42.6164 7.29391C42.6164 7.29391 46.1173 11.7704 37.9869 15.3478" stroke="black" stroke-linecap="round" stroke-linejoin="round"/>
<path d="M11.2043 5.78261L2.23208 1C-0.274005 4.13739 1.63904 6.70087 2.7486 7.29391L7.37817 9.6087L2.7486 7.29391C2.7486 7.29391 -0.752266 11.7704 7.37817 15.3478" stroke="black" stroke-linecap="round" stroke-linejoin="round"/>
<path d="M32.2477 1H13.1173C12.0608 1 11.2043 1.8565 11.2043 2.91304V16.3043C11.2043 17.3609 12.0608 18.2174 13.1173 18.2174H32.2477C33.3043 18.2174 34.1608 17.3609 34.1608 16.3043V2.91304C34.1608 1.8565 33.3043 1 32.2477 1Z" stroke="black" stroke-linecap="round" stroke-linejoin="round"/>
<path d="M11.8547 1.47852L21.5347 8.74808C21.8658 8.99644 22.2686 9.13069 22.6825 9.13069C23.0964 9.13069 23.4992 8.99644 23.8303 8.74808L33.5103 1.47852" stroke="black" stroke-linecap="round" stroke-linejoin="round"/>
<path d="M22.6825 27.7822V44.9996" stroke="black" stroke-linecap="round" stroke-linejoin="round"/>
<path d="M16.9434 23.9561V37.3474" stroke="black" stroke-linecap="round" stroke-linejoin="round"/>
<path d="M28.4217 23.9561V37.3474" stroke="black" stroke-linecap="round" stroke-linejoin="round"/>
</svg>
