<svg width="84" height="10" viewBox="0 0 84 10" fill="none" xmlns="http://www.w3.org/2000/svg">
<path d="M0 5.38419C0 4.77524 0 4.20688 0 3.59793C0 3.55733 0 3.55733 0 3.51674C0 3.35435 0.12179 3.23256 0.284177 3.19196C0.527757 3.15137 0.730741 3.15137 0.974321 3.15137C1.1773 3.15137 1.38029 3.19196 1.58327 3.31375C1.74566 3.39495 1.86745 3.51674 2.02984 3.59793C2.31401 3.80091 2.63879 3.9633 3.04475 4.0039C3.32893 4.0445 3.61311 4.0039 3.89729 3.9633C4.10027 3.9227 4.34385 3.88211 4.54683 3.84151C4.83101 3.80091 5.11519 3.80091 5.39936 3.88211C5.48056 3.88211 5.52115 3.9227 5.60235 3.9633C5.68354 4.0039 5.72414 4.08509 5.72414 4.20688V4.24748C5.72414 5.2218 5.72414 6.23672 5.72414 7.21104C5.72414 7.53581 5.48056 7.77939 5.15578 7.77939C4.83101 7.77939 4.46564 7.77939 4.14087 7.77939C3.81609 7.77939 3.57251 7.53581 3.57251 7.21104C3.57251 6.72388 3.57251 6.23672 3.57251 5.74956C3.57251 5.54657 3.57251 5.38419 3.53191 5.1812C3.49132 4.85643 3.20714 4.57225 2.84177 4.49106C2.63879 4.45046 2.4358 4.45046 2.23282 4.49106C2.19222 4.53166 2.15163 4.53166 2.15163 4.65345C2.15163 5.14061 2.15163 5.62777 2.15163 6.11493C2.15163 6.4803 2.15163 6.84567 2.15163 7.21104C2.15163 7.53581 1.90805 7.77939 1.62387 7.77939C1.2585 7.77939 0.852531 7.77939 0.487161 7.77939C0.202984 7.7388 0 7.49522 0 7.21104C0 6.64268 0 6.07433 0 5.54657V5.38419Z" fill="black"/>
<path d="M1.05551 2.86745C0.487161 2.86745 0 2.38029 0 1.81193C0 1.20298 0.487161 0.71582 1.09611 0.71582C1.70506 0.71582 2.15163 1.20298 2.15163 1.81193C2.15163 2.38029 1.66447 2.86745 1.05551 2.86745Z" fill="black"/>
<path d="M5.68349 2.33969C5.68349 2.94865 5.19633 3.43581 4.58738 3.43581C4.01902 3.43581 3.53186 2.94865 3.53186 2.33969C3.53186 1.73074 4.01902 1.28418 4.62797 1.28418C5.19633 1.28418 5.68349 1.77134 5.68349 2.33969Z" fill="black"/>
<path d="M8.84436 1.97949V7.77949H10.2124V5.40349H12.9404V4.19549H10.2124V3.17949H13.1164V1.97949H8.84436Z" fill="black"/>
<path d="M16.2094 4.92349V5.09149C14.5374 5.21149 13.3454 5.56349 13.3454 6.61949C13.3454 7.40349 14.0174 7.88349 14.8334 7.88349C15.4494 7.88349 15.9614 7.71549 16.2814 7.25949L16.2974 7.77949H17.5934C17.5134 7.41149 17.4894 6.64349 17.4974 6.08349L17.5134 5.14749C17.5374 3.83549 16.8254 3.33949 15.5934 3.33949C14.3214 3.33949 13.5374 4.05949 13.4814 4.86749H14.7134C14.7614 4.45149 15.0574 4.23549 15.4814 4.23549C15.9534 4.23549 16.2094 4.41949 16.2094 4.92349ZM14.7054 6.52349C14.7054 6.06749 15.3214 5.94749 16.2414 5.86749V5.97149C16.2414 6.76349 15.8414 6.98749 15.3134 6.98749C14.9694 6.98749 14.7054 6.80349 14.7054 6.52349Z" fill="black"/>
<path d="M19.6709 7.77949V1.97949H18.3509V7.77949H19.6709Z" fill="black"/>
<path d="M21.9365 7.77949V1.97949H20.6165V7.77949H21.9365Z" fill="black"/>
<path d="M26.9529 5.59549L28.2089 7.77949H29.8169L28.3849 5.37149C29.0489 5.11549 29.5209 4.62749 29.5209 3.77149C29.5209 2.33149 28.3929 1.97949 26.8889 1.97949H24.6569V7.77949H26.0249V5.59549H26.9529ZM26.0249 3.13149H26.9289C27.5769 3.13149 28.0729 3.25149 28.0729 3.78749C28.0729 4.33149 27.5769 4.44349 26.9289 4.44349H26.0249V3.13149Z" fill="black"/>
<path d="M34.5285 6.42749H33.3125C33.1605 6.68349 32.8405 6.85949 32.3445 6.85949C31.8645 6.85949 31.3925 6.57149 31.3525 5.96349H34.5445C34.6325 4.43549 33.7525 3.34749 32.3285 3.34749C31.0725 3.34749 30.0245 4.22749 30.0245 5.60349C30.0245 7.02749 30.9845 7.88349 32.3845 7.88349C33.2485 7.88349 34.1446 7.44349 34.5285 6.42749ZM31.3685 5.16349C31.4405 4.59549 31.8645 4.35549 32.3285 4.35549C32.8245 4.35549 33.2165 4.62749 33.2325 5.16349H31.3685Z" fill="black"/>
<path d="M39.3918 5.05149C39.1358 3.75549 38.1518 3.34749 37.2558 3.34749C35.9518 3.34749 35.0558 4.24349 35.0558 5.60349C35.0558 6.97149 35.8398 7.88349 37.2558 7.88349C38.1198 7.88349 39.1438 7.48349 39.4478 6.19549H38.2158C38.1198 6.60349 37.8238 6.85949 37.3358 6.85949C36.8718 6.85949 36.3998 6.54749 36.3998 5.61149C36.3998 4.69949 36.8638 4.37149 37.3358 4.37149C37.7278 4.37149 38.0478 4.55549 38.1598 5.05149H39.3918Z" fill="black"/>
<path d="M42.7254 4.73949V3.45149C42.6614 3.44349 42.5894 3.44349 42.5254 3.44349C41.9094 3.46749 41.5494 3.78749 41.3494 4.29149V3.47549H40.0774V7.77949H41.3974V5.61949C41.3974 4.94749 41.7334 4.71549 42.3654 4.71549C42.4854 4.71549 42.5814 4.72349 42.7254 4.73949Z" fill="black"/>
<path d="M45.9524 7.17949V7.77949H47.2724V3.47549H45.9524V5.74749C45.9524 6.53949 45.7364 6.85949 45.1764 6.85949C44.5364 6.85949 44.5204 6.35549 44.5204 5.73949V3.47549H43.2004V6.06749C43.2004 7.23549 43.5444 7.88349 44.6884 7.88349C45.3524 7.88349 45.6884 7.60349 45.9524 7.17949Z" fill="black"/>
<path d="M49.5459 1.97949H48.2259V3.03549H49.5459V1.97949ZM49.5539 3.47549H48.2259V7.77949H49.5539V3.47549Z" fill="black"/>
<path d="M50.7073 2.29949V3.47549H50.0273V4.41149H50.7073V6.57149C50.7073 7.57949 51.0753 7.77949 52.1313 7.77949H52.9713V6.82749H52.5953C52.1553 6.82749 52.0273 6.74749 52.0273 6.33949V4.41149H52.9713V3.47549H52.0273V2.29949H50.7073Z" fill="black"/>
<path d="M54.9912 1.97949H53.6712V3.03549H54.9912V1.97949ZM54.9992 3.47549H53.6712V7.77949H54.9992V3.47549Z" fill="black"/>
<path d="M57.2646 4.04349V3.47549H55.9446V7.77949H57.2646V5.57149C57.2646 4.77949 57.5046 4.40349 58.0646 4.40349C58.7046 4.40349 58.7286 4.90749 58.7286 5.52349V7.77949H60.0486V5.19549C60.0486 4.02749 59.7046 3.37949 58.6006 3.37949C57.9286 3.37949 57.4566 3.72349 57.2646 4.04349Z" fill="black"/>
<path d="M63.8574 3.47549V4.05949C63.5774 3.58749 63.0014 3.37949 62.5294 3.37949C61.4254 3.37949 60.6334 4.13149 60.6334 5.49949C60.6334 6.86749 61.4254 7.62749 62.5294 7.62749C63.0014 7.62749 63.5774 7.41949 63.8574 6.94749V7.45949C63.8574 8.01949 63.6094 8.35549 62.9454 8.35549C62.4654 8.35549 62.1534 8.17149 62.0494 7.80349H60.8094C60.9454 8.59549 61.6894 9.28349 62.9614 9.28349C64.1534 9.28349 65.1694 8.79549 65.1694 7.20349V3.47549H63.8574ZM62.0014 5.49949C62.0014 4.73949 62.4334 4.40349 62.9614 4.40349C63.4814 4.40349 63.9134 4.65149 63.9134 5.49949C63.9134 6.33949 63.4814 6.60349 62.9614 6.60349C62.4334 6.60349 62.0014 6.25949 62.0014 5.49949Z" fill="black"/>
<path d="M73.0112 1.97949H71.6432V4.19549H69.2592V1.97949H67.8912V7.77949H69.2592V5.40349H71.6432V7.77949H73.0112V1.97949Z" fill="black"/>
<path d="M76.6789 7.17949V7.77949H77.9989V3.47549H76.6789V5.74749C76.6789 6.53949 76.4629 6.85949 75.9029 6.85949C75.2629 6.85949 75.2469 6.35549 75.2469 5.73949V3.47549H73.9269V6.06749C73.9269 7.23549 74.2709 7.88349 75.4149 7.88349C76.0789 7.88349 76.4149 7.60349 76.6789 7.17949Z" fill="black"/>
<path d="M80.2724 4.05949V1.97949H78.9524V7.77949H80.2724V7.20349C80.5524 7.67549 81.1204 7.88349 81.5924 7.88349C82.6964 7.88349 83.4884 7.03549 83.4884 5.62749C83.4884 4.21949 82.6964 3.37949 81.5924 3.37949C81.1204 3.37949 80.5524 3.58749 80.2724 4.05949ZM80.2084 5.62749C80.2084 4.73949 80.6404 4.40349 81.1604 4.40349C81.6884 4.40349 82.1204 4.82749 82.1204 5.62749C82.1204 6.42749 81.6884 6.85949 81.1604 6.85949C80.6404 6.85949 80.2084 6.51549 80.2084 5.62749Z" fill="black"/>
</svg>
