<svg width="165" height="55" viewBox="0 0 165 55" fill="none" xmlns="http://www.w3.org/2000/svg">
<g clip-path="url(#clip0)">
<path d="M151.429 0H13.1037C12.6087 0 12.1137 0 11.605 0C11.1787 0 10.7662 0.01375 10.34 0.01375C9.41875 0.04125 8.4975 0.09625 7.59 0.26125C6.66875 0.42625 5.81625 0.70125 4.9775 1.1275C4.1525 1.54 3.39625 2.09 2.75 2.75C2.09 3.39625 1.54 4.1525 1.1275 4.9775C0.70125 5.81625 0.42625 6.66875 0.26125 7.59C0.09625 8.4975 0.04125 9.41875 0.01375 10.34C0.01375 10.7662 0 11.1925 0 11.605C0 12.1 0 12.6087 0 13.1037V41.8825C0 42.3913 0 42.8862 0 43.3812C0 43.8075 0.01375 44.22 0.0275 44.6463C0.055 45.5675 0.11 46.4888 0.275 47.3963C0.44 48.3175 0.70125 49.1838 1.14125 50.0087C1.55375 50.8337 2.10375 51.5762 2.76375 52.2225C3.41 52.8825 4.16625 53.4325 4.99125 53.845C5.83 54.2713 6.6825 54.5462 7.60375 54.7113C8.51125 54.8763 9.44625 54.9313 10.3537 54.9588C10.7662 54.9863 11.1787 55 11.605 55C12.1137 55 12.6087 55 13.1037 55H151.429C151.924 55 152.419 55 152.914 55C153.326 55 153.766 55 154.179 54.9863C155.1 54.9588 156.021 54.9038 156.929 54.7388C157.85 54.5738 158.702 54.2988 159.555 53.8725C160.38 53.46 161.122 52.91 161.782 52.25C162.442 51.6037 162.979 50.8475 163.405 50.0362C163.831 49.1975 164.106 48.345 164.257 47.4238C164.422 46.5163 164.477 45.595 164.519 44.6738C164.519 44.2475 164.519 43.835 164.519 43.4087C164.532 42.9137 164.532 42.4188 164.532 41.91V13.1175C164.532 12.6088 164.532 12.1137 164.519 11.6187C164.519 11.1925 164.519 10.78 164.519 10.3538C164.491 9.4325 164.436 8.51125 164.257 7.60375C164.106 6.6825 163.831 5.83 163.405 4.99125C162.979 4.16625 162.429 3.41 161.782 2.76375C161.136 2.1175 160.38 1.5675 159.555 1.14125C158.702 0.715 157.85 0.44 156.929 0.275C156.021 0.11 155.1 0.055 154.179 0.0275C153.766 0.0275 153.326 0.01375 152.914 0.01375C152.432 0 151.924 0 151.429 0Z" fill="#B7B7B7"/>
<path d="M11.605 53.79C11.1925 53.79 10.78 53.79 10.3675 53.7762C9.59748 53.7487 8.68998 53.7075 7.79623 53.5562C6.95748 53.405 6.21498 53.1575 5.51373 52.8C4.79873 52.4425 4.15248 51.9612 3.58873 51.3975C3.02498 50.8337 2.55748 50.2012 2.18623 49.4725C1.82873 48.785 1.58123 48.0287 1.44373 47.19C1.27873 46.2687 1.23748 45.32 1.20998 44.605C1.19623 44.3162 1.19623 43.3537 1.19623 43.3537V11.605C1.19623 11.605 1.20998 10.6562 1.20998 10.3812C1.23748 9.66621 1.27873 8.71746 1.44373 7.80996C1.59498 6.95746 1.84248 6.21496 2.19998 5.52746C2.57123 4.81246 3.03873 4.16621 3.60248 3.60246C4.16623 3.02496 4.81248 2.55746 5.51373 2.19996C6.21498 1.84246 6.97123 1.59496 7.78248 1.45746C8.71748 1.27871 9.65248 1.23746 10.3675 1.22371L11.605 1.20996H152.914L154.165 1.22371C154.866 1.23746 155.815 1.27871 156.722 1.44371C157.547 1.59496 158.304 1.82871 159.019 2.19996C159.72 2.55746 160.366 3.03871 160.93 3.60246C161.494 4.16621 161.961 4.81246 162.332 5.52746C162.69 6.22871 162.924 6.97121 163.075 7.79621C163.24 8.66246 163.281 9.55621 163.309 10.395C163.309 10.78 163.309 11.2062 163.309 11.6187C163.322 12.1412 163.322 12.6225 163.322 13.1175V41.8962C163.322 42.3912 163.322 42.8862 163.309 43.3812C163.309 43.835 163.309 44.2337 163.309 44.66C163.281 45.4712 163.226 46.365 163.075 47.2037C162.937 48.0425 162.69 48.7987 162.332 49.5C161.961 50.215 161.494 50.8612 160.93 51.4112C160.366 51.9887 159.72 52.4562 159.005 52.8137C158.29 53.1712 157.561 53.4187 156.709 53.57C155.829 53.735 154.921 53.7762 154.137 53.79C153.739 53.8037 153.312 53.8037 152.9 53.8037H151.415L11.605 53.79Z" fill="#000001"/>
<path fill-rule="evenodd" clip-rule="evenodd" d="M98.6011 37.18C98.7936 38.8713 100.43 39.985 102.685 39.985C104.844 39.985 106.384 38.8713 106.384 37.345C106.384 36.025 105.449 35.2275 103.235 34.6775L101.021 34.1413C97.8861 33.385 96.4286 31.9138 96.4286 29.535C96.4286 26.5925 98.9998 24.5713 102.644 24.5713C106.246 24.5713 108.721 26.5925 108.804 29.535H106.219C106.067 27.83 104.651 26.7988 102.602 26.7988C100.554 26.7988 99.1373 27.8438 99.1373 29.3563C99.1373 30.5663 100.031 31.2675 102.231 31.8175L104.115 32.285C107.621 33.11 109.079 34.5263 109.079 37.015C109.079 40.205 106.535 42.2125 102.492 42.2125C98.7111 42.2125 96.1536 40.26 95.9886 37.1663H98.6011V37.18ZM114.606 26.5375V29.48H116.971V31.5012H114.606V38.3625C114.606 39.435 115.074 39.93 116.119 39.93C116.337 39.93 116.66 39.9013 116.857 39.8838L116.858 39.8837L116.906 39.8795L116.958 39.875V41.8825C116.669 41.9512 116.105 42.0062 115.541 42.0062C113.025 42.0062 112.035 41.0575 112.035 38.6512V31.515H110.22V29.4937H112.035V26.5375H114.606ZM124.231 29.3288C120.642 29.3288 118.332 31.79 118.332 35.7088C118.332 39.6413 120.629 42.0888 124.231 42.0888C127.847 42.0888 130.13 39.6413 130.13 35.7088C130.13 31.79 127.834 29.3288 124.231 29.3288ZM124.245 31.4325C126.307 31.4325 127.545 33.0275 127.545 35.7088C127.545 38.4038 126.321 39.985 124.245 39.985C122.169 39.985 120.945 38.4038 120.945 35.7088C120.945 33.0275 122.182 31.4325 124.245 31.4325ZM132.261 29.48H134.695V31.5975H134.75C135.135 30.195 136.276 29.3425 137.747 29.3425C138.119 29.3425 138.421 29.3975 138.627 29.4388V31.8313C138.421 31.7488 137.981 31.68 137.486 31.68C135.836 31.68 134.819 32.7938 134.819 34.54V41.9238H132.261V29.48ZM145.035 42.0888C147.854 42.0888 150.054 40.535 150.397 38.28H147.977C147.634 39.3525 146.52 40.0263 145.104 40.0263C143.082 40.0263 141.749 38.6375 141.749 36.5063V36.355H150.535V35.475C150.535 31.6938 148.362 29.3288 144.925 29.3288C141.419 29.3288 139.164 31.8588 139.164 35.7638C139.164 39.6688 141.419 42.0888 145.035 42.0888ZM147.991 34.5538H141.762C141.9 32.6838 143.179 31.405 144.939 31.3913C146.712 31.3913 147.936 32.6425 147.991 34.5538Z" fill="white"/>
<path fill-rule="evenodd" clip-rule="evenodd" d="M58.1626 37.3174H51.6589L50.0914 41.9374H47.3414L53.5014 24.8599H56.3614L62.5214 41.9374H59.7164L58.1626 37.3174ZM52.3326 35.1861H57.4889L54.9451 27.6924H54.8764L52.3326 35.1861ZM75.8452 35.7086C75.8452 39.5723 73.7689 42.0611 70.6477 42.0611C68.8739 42.0611 67.4714 41.2636 66.7289 39.8886H66.6739V46.0486H64.1164V29.4798H66.5914V31.5561H66.6327C67.3477 30.2223 68.8602 29.3561 70.5927 29.3561C73.7689 29.3561 75.8452 31.8448 75.8452 35.7086ZM73.2189 35.7086C73.2189 33.1923 71.9127 31.5286 69.9327 31.5286C67.9802 31.5286 66.6602 33.2198 66.6602 35.7086C66.6602 38.2111 67.9802 39.9023 69.9327 39.9023C71.9127 39.9023 73.2189 38.2523 73.2189 35.7086ZM84.3427 42.0611C87.464 42.0611 89.5402 39.5723 89.5402 35.7086C89.5402 31.8448 87.464 29.3561 84.3015 29.3561C82.569 29.3561 81.0565 30.2223 80.3415 31.5561H80.3002V29.4798H77.8252V46.0486H80.369V39.8886H80.424C81.1665 41.2636 82.569 42.0611 84.3427 42.0611ZM83.6277 31.5286C85.6077 31.5286 86.914 33.1923 86.914 35.7086C86.914 38.2523 85.6215 39.9023 83.6277 39.9023C81.6752 39.9023 80.3552 38.2111 80.3552 35.7086C80.3552 33.2198 81.6752 31.5286 83.6277 31.5286Z" fill="white"/>
<path fill-rule="evenodd" clip-rule="evenodd" d="M131.587 11.605H132.797V15.015H132.894C133.196 14.3275 133.842 13.9012 134.777 13.9012C136.097 13.9012 136.909 14.74 136.909 16.2112V20.2125H135.685V16.5137C135.685 15.5237 135.231 15.0287 134.365 15.0287C133.361 15.0287 132.811 15.6612 132.811 16.5962V20.2125H131.587V11.605ZM128.59 12.4713V14.0388H129.938V15.0701H128.59V18.2601C128.59 18.9063 128.851 19.1951 129.47 19.1951C129.616 19.1951 129.706 19.1872 129.819 19.1774C129.855 19.1743 129.894 19.1709 129.938 19.1676V20.1851C129.908 20.1893 129.877 20.194 129.845 20.1987C129.672 20.2244 129.475 20.2538 129.278 20.2538C127.916 20.2538 127.38 19.7726 127.38 18.5763V15.0838H126.404V14.0526H127.38V12.4713H128.59ZM141.364 20.3226C142.78 20.3226 143.77 19.6488 144.045 18.5351H142.876C142.656 19.0301 142.147 19.2913 141.405 19.2913C140.429 19.2913 139.796 18.6038 139.755 17.5176V17.4488H144.127V17.0226C144.127 15.0838 143.082 13.9013 141.364 13.9013C139.617 13.9013 138.504 15.1526 138.504 17.1326C138.504 19.1126 139.59 20.3226 141.364 20.3226ZM142.876 16.5413H139.755C139.824 15.5788 140.442 14.9326 141.35 14.9326C142.257 14.9326 142.849 15.5651 142.876 16.5413Z" fill="white"/>
<path fill-rule="evenodd" clip-rule="evenodd" d="M111.856 13.8877C110.055 13.8877 108.941 15.1114 108.941 17.1052C108.941 19.1127 110.055 20.3227 111.856 20.3227C113.657 20.3227 114.771 19.1127 114.771 17.1052C114.771 15.0977 113.657 13.8877 111.856 13.8877ZM111.856 14.9739C112.915 14.9739 113.52 15.7577 113.52 17.1052C113.52 18.4527 112.915 19.2364 111.856 19.2364C110.784 19.2364 110.192 18.4527 110.192 17.1052C110.192 15.7577 110.797 14.9739 111.856 14.9739ZM117.604 14.0115H116.421V20.2127H117.645V16.5965C117.645 15.634 118.223 15.029 119.13 15.029C120.038 15.029 120.464 15.524 120.464 16.514V20.2127H121.688V16.1977C121.688 14.7265 120.918 13.9015 119.543 13.9015C118.621 13.9015 118.003 14.314 117.7 15.0015H117.604V14.0115Z" fill="white"/>
<path fill-rule="evenodd" clip-rule="evenodd" d="M81.2488 11.605H82.4725V20.2125H81.2488V11.605ZM55.88 16.0737C55.88 13.5025 54.45 12.0037 52.0162 12.0037H49.0462V20.1987H52.0162C54.4637 20.1987 55.88 18.7 55.88 16.0737ZM51.865 19.0437H50.325V13.1587H51.865C53.57 13.1587 54.5737 14.2312 54.5737 16.0875C54.5737 17.9712 53.5837 19.0437 51.865 19.0437ZM60.225 13.8875C58.4238 13.8875 57.31 15.1113 57.31 17.105C57.31 19.1125 58.4238 20.3225 60.225 20.3225C62.0263 20.3225 63.14 19.1125 63.14 17.105C63.14 15.0975 62.0263 13.8875 60.225 13.8875ZM60.225 14.9738C61.2838 14.9738 61.8888 15.7575 61.8888 17.105C61.8888 18.4525 61.2975 19.2363 60.225 19.2363C59.1525 19.2363 58.5613 18.4525 58.5613 17.105C58.5613 15.7575 59.1663 14.9738 60.225 14.9738ZM70.909 20.2125H69.644L68.3652 15.6475H68.269L66.9902 20.2125H65.739L64.034 14.025H65.2715L66.3852 18.755H66.4814L67.7602 14.025H68.929L70.2077 18.755H70.304L71.404 14.025H72.6277L70.909 20.2125ZM75.2263 14.0113H74.0438V20.2126H75.2676V16.5963C75.2676 15.6338 75.8451 15.0288 76.7526 15.0288C77.6601 15.0288 78.0863 15.5238 78.0863 16.5138V20.2126H79.3101V16.1976C79.3101 14.7263 78.5401 13.9013 77.1651 13.9013C76.2438 13.9013 75.6251 14.3138 75.3226 15.0013H75.2263V14.0113ZM87.0925 13.8875C85.2912 13.8875 84.1775 15.1113 84.1775 17.105C84.1775 19.1125 85.2775 20.3225 87.0925 20.3225C88.8937 20.3225 90.0075 19.1125 90.0075 17.105C90.0075 15.0975 88.8937 13.8875 87.0925 13.8875ZM87.0925 14.9738C88.1512 14.9738 88.7562 15.7575 88.7562 17.105C88.7562 18.4525 88.1512 19.2363 87.0925 19.2363C86.02 19.2363 85.4287 18.4525 85.4287 17.105C85.4287 15.7575 86.0337 14.9738 87.0925 14.9738ZM91.2999 18.4526C91.2999 17.3388 92.1249 16.6926 93.5962 16.6101L95.2737 16.5138V15.9776C95.2737 15.3176 94.8474 14.9601 94.0087 14.9601C93.3212 14.9601 92.8537 15.2076 92.7162 15.6476H91.5337C91.6574 14.5888 92.6612 13.9013 94.0637 13.9013C95.6174 13.9013 96.4974 14.6713 96.4974 15.9776V20.2126H95.3149V19.3463H95.2187C94.8474 19.9651 94.1737 20.3226 93.3624 20.3226C92.1662 20.3088 91.2999 19.5938 91.2999 18.4526ZM95.2874 17.9301V17.4076L93.7749 17.5038C92.9224 17.5588 92.5374 17.8476 92.5374 18.3976C92.5374 18.9613 93.0187 19.2776 93.6787 19.2776C94.5999 19.2776 95.2874 18.7001 95.2874 17.9301ZM100.678 13.915C99.1101 13.915 98.1063 15.1525 98.1063 17.105C98.1063 19.0712 99.0964 20.3087 100.678 20.3225C101.53 20.3225 102.245 19.91 102.616 19.2362H102.713V20.2125H103.895V11.605H102.671V15.0012H102.575C102.245 14.3137 101.53 13.915 100.678 13.915ZM101.021 19.2087C99.9901 19.2087 99.3713 18.425 99.3713 17.105C99.3713 15.8125 99.9901 15.015 101.021 15.0012C102.039 15.0012 102.685 15.8125 102.685 17.105C102.685 18.4112 102.053 19.2087 101.021 19.2087Z" fill="white"/>
<path fill-rule="evenodd" clip-rule="evenodd" d="M31.831 11.9902C32.0373 13.764 31.336 15.5102 30.3048 16.789C29.2323 18.054 27.5135 19.0165 25.8498 18.8927C25.6298 17.1877 26.4685 15.3727 27.4173 14.2727C28.4898 13.0215 30.346 12.059 31.831 11.9902ZM37.3037 22.2064C37.1525 22.2889 34.0175 24.1314 34.0587 27.9127C34.1 32.4502 38.0187 33.9489 38.0875 33.9627C38.06 34.0589 37.4687 36.1214 35.9975 38.2114C34.7737 40.0539 33.4812 41.8552 31.4325 41.8827C30.4574 41.9029 29.8014 41.6238 29.1186 41.3333C28.4052 41.0299 27.6625 40.7139 26.4962 40.7139C25.2642 40.7139 24.4874 41.0385 23.7369 41.3521C23.0884 41.623 22.4596 41.8857 21.5737 41.924C19.6212 42.0064 18.1362 39.9714 16.8575 38.1427C14.3137 34.4164 12.3337 27.6514 14.9874 23.0452C16.2662 20.7902 18.6175 19.3327 21.1337 19.2914C22.2412 19.268 23.3045 19.6959 24.2357 20.0706C24.9462 20.3565 25.5797 20.6114 26.0974 20.6114C26.5497 20.6114 27.1624 20.3685 27.8776 20.0851C29.0109 19.6358 30.4012 19.0847 31.8174 19.2364C32.7799 19.2639 35.5299 19.6214 37.3037 22.2064Z" fill="white"/>
</g>
<defs>
<clipPath id="clip0">
<rect width="164.532" height="55" fill="white"/>
</clipPath>
</defs>
</svg>
