<svg width="187" height="55" viewBox="0 0 187 55" fill="none" xmlns="http://www.w3.org/2000/svg">
<path d="M179.282 55H7.40747C3.62622 55 0.532471 51.9062 0.532471 48.125V6.875C0.532471 3.09375 3.62622 0 7.40747 0H179.282C183.064 0 186.157 3.09375 186.157 6.875V48.125C186.157 51.9062 183.064 55 179.282 55Z" fill="black"/>
<path d="M179.282 1.1C182.472 1.1 185.057 3.685 185.057 6.875V48.125C185.057 51.315 182.472 53.9 179.282 53.9H7.40747C4.21747 53.9 1.63247 51.315 1.63247 48.125V6.875C1.63247 3.685 4.21747 1.1 7.40747 1.1H179.282ZM179.282 0H7.40747C3.62622 0 0.532471 3.09375 0.532471 6.875V48.125C0.532471 51.9062 3.62622 55 7.40747 55H179.282C183.064 55 186.157 51.9062 186.157 48.125V6.875C186.157 3.09375 183.064 0 179.282 0Z" fill="#A6A6A6"/>
<path d="M94.225 29.9063C90.9938 29.9063 88.3538 32.3676 88.3538 35.7501C88.3538 39.1188 90.9938 41.5938 94.225 41.5938C97.4563 41.5938 100.096 39.1188 100.096 35.7501C100.096 32.3676 97.4563 29.9063 94.225 29.9063ZM94.225 39.2976C92.4513 39.2976 90.925 37.8401 90.925 35.7501C90.925 33.6463 92.4513 32.2026 94.225 32.2026C95.9988 32.2026 97.525 33.6463 97.525 35.7501C97.525 37.8401 95.985 39.2976 94.225 39.2976ZM81.41 29.9063C78.1788 29.9063 75.5388 32.3676 75.5388 35.7501C75.5388 39.1188 78.1788 41.5938 81.41 41.5938C84.6413 41.5938 87.2813 39.1188 87.2813 35.7501C87.2813 32.3676 84.6413 29.9063 81.41 29.9063ZM81.41 39.2976C79.6363 39.2976 78.11 37.8401 78.11 35.7501C78.11 33.6463 79.6363 32.2026 81.41 32.2026C83.1838 32.2026 84.71 33.6463 84.71 35.7501C84.71 37.8401 83.1838 39.2976 81.41 39.2976ZM66.175 31.7076V34.1826H72.115C71.9363 35.5713 71.4688 36.6026 70.7675 37.3039C69.9013 38.1701 68.5538 39.1188 66.1888 39.1188C62.5313 39.1188 59.6713 36.1764 59.6713 32.5189C59.6713 28.8614 62.5313 25.9188 66.1888 25.9188C68.155 25.9188 69.5988 26.6888 70.6575 27.6926L72.4038 25.9463C70.9188 24.5301 68.9525 23.4438 66.175 23.4438C61.17 23.4438 56.9625 27.5138 56.9625 32.5326C56.9625 37.5376 61.17 41.6213 66.175 41.6213C68.8838 41.6213 70.9188 40.7413 72.5138 39.0776C74.15 37.4413 74.6588 35.1313 74.6588 33.2751C74.6588 32.6976 74.6175 32.1613 74.5213 31.7213H66.175V31.7076ZM128.476 33.6326C127.995 32.3263 126.51 29.9063 123.471 29.9063C120.46 29.9063 117.958 32.2713 117.958 35.7501C117.958 39.0226 120.433 41.5938 123.76 41.5938C126.441 41.5938 127.995 39.9576 128.628 39.0088L126.634 37.6751C125.974 38.6514 125.066 39.2976 123.76 39.2976C122.454 39.2976 121.519 38.6926 120.928 37.5238L128.751 34.2926L128.476 33.6326ZM120.501 35.5851C120.433 33.3301 122.248 32.1751 123.554 32.1751C124.571 32.1751 125.438 32.6838 125.726 33.4126L120.501 35.5851ZM114.149 41.2501H116.72V24.0626H114.149V41.2501ZM109.941 31.2126H109.845C109.268 30.5251 108.168 29.9063 106.765 29.9063C103.836 29.9063 101.155 32.4776 101.155 35.7776C101.155 39.0501 103.836 41.6076 106.765 41.6076C108.154 41.6076 109.268 40.9888 109.845 40.2738H109.928V41.1126C109.928 43.3539 108.731 44.5501 106.806 44.5501C105.239 44.5501 104.263 43.4226 103.864 42.4738L101.623 43.4088C102.269 44.9626 103.974 46.8601 106.806 46.8601C109.818 46.8601 112.361 45.0864 112.361 40.7689V30.2638H109.928V31.2126H109.941ZM106.985 39.2976C105.211 39.2976 103.726 37.8126 103.726 35.7776C103.726 33.7151 105.211 32.2163 106.985 32.2163C108.731 32.2163 110.106 33.7288 110.106 35.7776C110.12 37.8126 108.745 39.2976 106.985 39.2976ZM140.521 24.0626H134.375V41.2501H136.946V34.7326H140.535C143.381 34.7326 146.173 32.6701 146.173 29.3976C146.173 26.1251 143.354 24.0626 140.521 24.0626ZM140.576 32.3401H136.933V26.4413H140.576C142.501 26.4413 143.588 28.0363 143.588 29.3839C143.588 30.7313 142.501 32.3401 140.576 32.3401ZM156.444 29.8788C154.588 29.8788 152.663 30.7038 151.865 32.5051L154.148 33.4539C154.629 32.5051 155.536 32.1888 156.485 32.1888C157.805 32.1888 159.166 32.9863 159.18 34.4026V34.5814C158.713 34.3201 157.723 33.9213 156.499 33.9213C154.038 33.9213 151.549 35.2688 151.549 37.7851C151.549 40.0813 153.556 41.5663 155.811 41.5663C157.53 41.5663 158.493 40.7963 159.084 39.8888H159.166V41.2226H161.641V34.6363C161.655 31.5838 159.373 29.8788 156.444 29.8788ZM156.128 39.2976C155.289 39.2976 154.12 38.8713 154.12 37.8401C154.12 36.5201 155.578 36.0113 156.843 36.0113C157.97 36.0113 158.506 36.2588 159.18 36.5889C158.988 38.1701 157.613 39.2976 156.128 39.2976ZM170.675 30.2501L167.733 37.7026H167.65L164.598 30.2501H161.834L166.413 40.6726L163.8 46.4613H166.481L173.535 30.2501H170.675ZM147.575 41.2501H150.146V24.0626H147.575V41.2501Z" fill="white"/>
<path fill-rule="evenodd" clip-rule="evenodd" d="M65.7351 14.08C65.7351 15.235 65.3914 16.1563 64.7039 16.83C63.9339 17.6413 62.9164 18.0538 61.6789 18.0538C60.4826 18.0538 59.4789 17.6413 58.6401 16.8163C57.8014 15.9913 57.3889 14.96 57.3889 13.75C57.3889 12.5263 57.8014 11.5088 58.6401 10.6838C59.4789 9.85879 60.4826 9.44629 61.6789 9.44629C62.2701 9.44629 62.8339 9.55629 63.3701 9.79004C63.9064 10.0238 64.3326 10.3263 64.6626 10.7113L63.9339 11.44C63.3839 10.7938 62.6414 10.4638 61.6789 10.4638C60.8126 10.4638 60.0564 10.7663 59.4239 11.385C58.7914 11.99 58.4751 12.7875 58.4751 13.7638C58.4751 14.74 58.7914 15.5375 59.4239 16.1425C60.0564 16.7475 60.8126 17.0638 61.6789 17.0638C62.6001 17.0638 63.3701 16.7613 63.9889 16.1425C64.3876 15.7438 64.6214 15.18 64.6764 14.465H61.6789V13.475H65.6801C65.7076 13.6813 65.7351 13.8875 65.7351 14.08ZM72.0736 10.6426H68.3199V13.2551H71.7024V14.2451H68.3199V16.8576H72.0736V17.8751H67.2611V9.62511H72.0736V10.6426ZM75.4836 17.8751H76.5286V10.6426H78.8386V9.62511H73.1736V10.6426H75.4836V17.8751Z" fill="white"/>
<path d="M64.7039 16.83L64.6338 16.7586L64.6313 16.7612L64.7039 16.83ZM58.6401 16.8163L58.57 16.8876V16.8876L58.6401 16.8163ZM58.6401 10.6838L58.57 10.6125L58.6401 10.6838ZM64.6626 10.7113L64.7333 10.782L64.7988 10.7165L64.7385 10.6462L64.6626 10.7113ZM63.9339 11.44L63.8577 11.5048L63.9279 11.5874L64.0046 11.5107L63.9339 11.44ZM59.4239 11.385L59.493 11.4573L59.4938 11.4565L59.4239 11.385ZM59.4239 16.1425L59.493 16.0703L59.4239 16.1425ZM63.9889 16.1425L64.0596 16.2132L63.9889 16.1425ZM64.6764 14.465L64.7761 14.4727L64.7843 14.365H64.6764V14.465ZM61.6789 14.465H61.5789V14.565H61.6789V14.465ZM61.6789 13.475V13.375H61.5789V13.475H61.6789ZM65.6801 13.475L65.7792 13.4618L65.7677 13.375H65.6801V13.475ZM68.3199 10.6426V10.5426H68.2199V10.6426H68.3199ZM72.0736 10.6426V10.7426H72.1736V10.6426H72.0736ZM68.3199 13.2551H68.2199V13.3551H68.3199V13.2551ZM71.7024 13.2551H71.8024V13.1551H71.7024V13.2551ZM71.7024 14.2451V14.3451H71.8024V14.2451H71.7024ZM68.3199 14.2451V14.1451H68.2199V14.2451H68.3199ZM68.3199 16.8576H68.2199V16.9576H68.3199V16.8576ZM72.0736 16.8576H72.1736V16.7576H72.0736V16.8576ZM72.0736 17.8751V17.9751H72.1736V17.8751H72.0736ZM67.2611 17.8751H67.1611V17.9751H67.2611V17.8751ZM67.2611 9.62511V9.52511H67.1611V9.62511H67.2611ZM72.0736 9.62511H72.1736V9.52511H72.0736V9.62511ZM76.5286 17.8751V17.9751H76.6286V17.8751H76.5286ZM75.4836 17.8751H75.3836V17.9751H75.4836V17.8751ZM76.5286 10.6426V10.5426H76.4286V10.6426H76.5286ZM78.8386 10.6426V10.7426H78.9386V10.6426H78.8386ZM78.8386 9.62511H78.9386V9.52511H78.8386V9.62511ZM73.1736 9.62511V9.52511H73.0736V9.62511H73.1736ZM73.1736 10.6426H73.0736V10.7426H73.1736V10.6426ZM75.4836 10.6426H75.5836V10.5426H75.4836V10.6426ZM64.7739 16.9015C65.4844 16.2051 65.8351 15.2559 65.8351 14.08H65.6351C65.6351 15.2141 65.2983 16.1075 64.6339 16.7586L64.7739 16.9015ZM61.6789 18.1538C62.9406 18.1538 63.9854 17.7322 64.7764 16.8989L64.6313 16.7612C63.8823 17.5504 62.8921 17.9538 61.6789 17.9538V18.1538ZM58.57 16.8876C59.4275 17.7311 60.4565 18.1538 61.6789 18.1538V17.9538C60.5087 17.9538 59.5302 17.5515 58.7102 16.745L58.57 16.8876ZM57.2889 13.75C57.2889 14.9852 57.711 16.0427 58.57 16.8876L58.7102 16.745C57.8917 15.9399 57.4889 14.9349 57.4889 13.75H57.2889ZM58.57 10.6125C57.7111 11.4573 57.2889 12.5009 57.2889 13.75H57.4889C57.4889 12.5516 57.8916 11.5603 58.7102 10.7551L58.57 10.6125ZM61.6789 9.34629C60.4565 9.34629 59.4275 9.76899 58.57 10.6125L58.7102 10.7551C59.5302 9.94858 60.5087 9.54629 61.6789 9.54629V9.34629ZM63.4101 9.69837C62.8604 9.45875 62.2829 9.34629 61.6789 9.34629V9.54629C62.2573 9.54629 62.8074 9.65383 63.3302 9.88171L63.4101 9.69837ZM64.7385 10.6462C64.3972 10.248 63.9578 9.93714 63.4101 9.69837L63.3302 9.88171C63.8549 10.1104 64.268 10.4046 64.5867 10.7764L64.7385 10.6462ZM64.0046 11.5107L64.7333 10.782L64.5919 10.6406L63.8632 11.3693L64.0046 11.5107ZM61.6789 10.5638C62.6153 10.5638 63.3287 10.8833 63.8577 11.5048L64.01 11.3752C63.439 10.7043 62.6674 10.3638 61.6789 10.3638V10.5638ZM59.4938 11.4565C60.1075 10.8562 60.8386 10.5638 61.6789 10.5638V10.3638C60.7866 10.3638 60.0052 10.6764 59.3539 11.3136L59.4938 11.4565ZM58.5751 13.7638C58.5751 12.8111 58.8827 12.041 59.493 11.4573L59.3547 11.3128C58.7 11.9391 58.3751 12.7639 58.3751 13.7638H58.5751ZM59.493 16.0703C58.8827 15.4866 58.5751 14.7164 58.5751 13.7638H58.3751C58.3751 14.7636 58.7 15.5885 59.3547 16.2148L59.493 16.0703ZM61.6789 16.9638C60.8395 16.9638 60.1077 16.6583 59.493 16.0703L59.3547 16.2148C60.005 16.8368 60.7857 17.1638 61.6789 17.1638V16.9638ZM63.9182 16.0718C63.3196 16.6704 62.5757 16.9638 61.6789 16.9638V17.1638C62.6245 17.1638 63.4206 16.8522 64.0596 16.2132L63.9182 16.0718ZM64.5767 14.4574C64.523 15.1547 64.2961 15.6939 63.9182 16.0718L64.0596 16.2132C64.4791 15.7937 64.7197 15.2054 64.7761 14.4727L64.5767 14.4574ZM61.6789 14.565H64.6764V14.365H61.6789V14.565ZM61.5789 13.475V14.465H61.7789V13.475H61.5789ZM65.6801 13.375H61.6789V13.575H65.6801V13.375ZM65.8351 14.08C65.8351 13.8797 65.8065 13.6666 65.7792 13.4618L65.581 13.4883C65.6087 13.696 65.6351 13.8954 65.6351 14.08H65.8351ZM68.3199 10.7426H72.0736V10.5426H68.3199V10.7426ZM68.4199 13.2551V10.6426H68.2199V13.2551H68.4199ZM71.7024 13.1551H68.3199V13.3551H71.7024V13.1551ZM71.8024 14.2451V13.2551H71.6024V14.2451H71.8024ZM68.3199 14.3451H71.7024V14.1451H68.3199V14.3451ZM68.4199 16.8576V14.2451H68.2199V16.8576H68.4199ZM72.0736 16.7576H68.3199V16.9576H72.0736V16.7576ZM72.1736 17.8751V16.8576H71.9736V17.8751H72.1736ZM67.2611 17.9751H72.0736V17.7751H67.2611V17.9751ZM67.1611 9.62511V17.8751H67.3611V9.62511H67.1611ZM72.0736 9.52511H67.2611V9.72511H72.0736V9.52511ZM72.1736 10.6426V9.62511H71.9736V10.6426H72.1736ZM76.5286 17.7751H75.4836V17.9751H76.5286V17.7751ZM76.4286 10.6426V17.8751H76.6286V10.6426H76.4286ZM78.8386 10.5426H76.5286V10.7426H78.8386V10.5426ZM78.7386 9.62511V10.6426H78.9386V9.62511H78.7386ZM73.1736 9.72511H78.8386V9.52511H73.1736V9.72511ZM73.2736 10.6426V9.62511H73.0736V10.6426H73.2736ZM75.4836 10.5426H73.1736V10.7426H75.4836V10.5426ZM75.5836 17.8751V10.6426H75.3836V17.8751H75.5836Z" fill="white"/>
<path fill-rule="evenodd" clip-rule="evenodd" d="M82.95 9.625V17.875H84.0088V9.625H82.95ZM87.6525 17.875H88.6976V10.6425H91.0076V9.625H85.3425V10.6425H87.6525V17.875Z" fill="white"/>
<path d="M82.95 17.875H82.85V17.975H82.95V17.875ZM82.95 9.625V9.525H82.85V9.625H82.95ZM84.0088 17.875V17.975H84.1088V17.875H84.0088ZM84.0088 9.625H84.1088V9.525H84.0088V9.625ZM88.6976 17.875V17.975H88.7976V17.875H88.6976ZM87.6525 17.875H87.5525V17.975H87.6525V17.875ZM88.6976 10.6425V10.5425H88.5976V10.6425H88.6976ZM91.0076 10.6425V10.7425H91.1076V10.6425H91.0076ZM91.0076 9.625H91.1076V9.525H91.0076V9.625ZM85.3425 9.625V9.525H85.2425V9.625H85.3425ZM85.3425 10.6425H85.2425V10.7425H85.3425V10.6425ZM87.6525 10.6425H87.7525V10.5425H87.6525V10.6425ZM83.05 17.875V9.625H82.85V17.875H83.05ZM84.0088 17.775H82.95V17.975H84.0088V17.775ZM83.9088 9.625V17.875H84.1088V9.625H83.9088ZM82.95 9.725H84.0088V9.525H82.95V9.725ZM88.6976 17.775H87.6525V17.975H88.6976V17.775ZM88.5976 10.6425V17.875H88.7976V10.6425H88.5976ZM91.0076 10.5425H88.6976V10.7425H91.0076V10.5425ZM90.9076 9.625V10.6425H91.1076V9.625H90.9076ZM85.3425 9.725H91.0076V9.525H85.3425V9.725ZM85.4425 10.6425V9.625H85.2425V10.6425H85.4425ZM87.6525 10.5425H85.3425V10.7425H87.6525V10.5425ZM87.7525 17.875V10.6425H87.5525V17.875H87.7525Z" fill="white"/>
<path fill-rule="evenodd" clip-rule="evenodd" d="M98.7213 18.0538C99.9313 18.0538 100.935 17.6413 101.746 16.8025C102.558 15.9775 102.956 14.96 102.97 13.75C102.97 12.5538 102.558 11.5363 101.746 10.6975C100.921 9.85879 99.9176 9.44629 98.7213 9.44629C97.5113 9.44629 96.5076 9.85879 95.6963 10.6975C94.8851 11.5225 94.4863 12.5538 94.4863 13.75C94.4863 14.9463 94.8851 15.9638 95.6963 16.8025C96.5076 17.6413 97.5113 18.0538 98.7213 18.0538ZM98.7213 17.0363C97.8413 17.0363 97.0851 16.7338 96.4801 16.115C95.8751 15.4963 95.5588 14.7125 95.5588 13.75C95.5588 12.7875 95.8751 12.0038 96.4801 11.385C97.0851 10.7663 97.8413 10.4638 98.7213 10.4638C99.6013 10.4638 100.358 10.7663 100.963 11.385C101.581 12.0038 101.884 12.7875 101.884 13.75C101.884 14.7125 101.568 15.4963 100.963 16.115C100.358 16.7338 99.6013 17.0363 98.7213 17.0363ZM104.455 9.62511V17.8751H105.527V12.7464L105.486 11.1514H105.527L109.721 17.8751H110.821V9.62511H109.762V14.4514L109.804 16.0464H109.762L105.747 9.62511H104.455Z" fill="white"/>
<path d="M101.746 16.8025L101.675 16.7324L101.674 16.733L101.746 16.8025ZM102.97 13.75L103.07 13.7512V13.75H102.97ZM101.746 10.6975L101.818 10.628L101.818 10.6274L101.746 10.6975ZM95.6963 10.6975L95.7676 10.7677L95.7682 10.7671L95.6963 10.6975ZM95.6963 16.8025L95.6244 16.8721L95.6244 16.8721L95.6963 16.8025ZM96.4801 16.115L96.5516 16.0451H96.5516L96.4801 16.115ZM96.4801 11.385L96.5516 11.455L96.5516 11.455L96.4801 11.385ZM100.963 11.385L100.891 11.455L100.892 11.4557L100.963 11.385ZM100.963 16.115L101.034 16.1849V16.1849L100.963 16.115ZM104.455 17.8751H104.355V17.9751H104.455V17.8751ZM104.455 9.62511V9.52511H104.355V9.62511H104.455ZM105.527 17.8751V17.9751H105.627V17.8751H105.527ZM105.527 12.7464H105.628L105.627 12.7438L105.527 12.7464ZM105.486 11.1514V11.0514H105.384L105.386 11.1539L105.486 11.1514ZM105.527 11.1514L105.612 11.0984L105.583 11.0514H105.527V11.1514ZM109.721 17.8751L109.636 17.928L109.666 17.9751H109.721V17.8751ZM110.821 17.8751V17.9751H110.921V17.8751H110.821ZM110.821 9.62511H110.921V9.52511H110.821V9.62511ZM109.762 9.62511V9.52511H109.662V9.62511H109.762ZM109.762 14.4514H109.662L109.663 14.4539L109.762 14.4514ZM109.804 16.0464V16.1464H109.906L109.904 16.0438L109.804 16.0464ZM109.762 16.0464L109.678 16.0994L109.707 16.1464H109.762V16.0464ZM105.747 9.62511L105.832 9.57209L105.803 9.52511H105.747V9.62511ZM101.674 16.733C100.883 17.5513 99.9056 17.9538 98.7213 17.9538V18.1538C99.9571 18.1538 100.987 17.7313 101.818 16.8721L101.674 16.733ZM102.87 13.7489C102.857 14.9352 102.467 15.9273 101.675 16.7324L101.818 16.8727C102.648 16.0277 103.056 14.9848 103.07 13.7512L102.87 13.7489ZM101.674 10.7671C102.467 11.5869 102.87 12.5794 102.87 13.75H103.07C103.07 12.5281 102.648 11.4856 101.818 10.628L101.674 10.7671ZM98.7213 9.54629C99.8915 9.54629 100.869 9.94856 101.675 10.7677L101.818 10.6274C100.973 9.76902 99.9436 9.34629 98.7213 9.34629V9.54629ZM95.7682 10.7671C96.5597 9.94876 97.5371 9.54629 98.7213 9.54629V9.34629C97.4856 9.34629 96.4555 9.76882 95.6244 10.628L95.7682 10.7671ZM94.5863 13.75C94.5863 12.5781 94.9761 11.5726 95.7676 10.7677L95.625 10.6274C94.7941 11.4725 94.3863 12.5295 94.3863 13.75H94.5863ZM95.7682 16.733C94.9758 15.9137 94.5863 14.9215 94.5863 13.75H94.3863C94.3863 14.9711 94.7944 16.0138 95.6244 16.8721L95.7682 16.733ZM98.7213 17.9538C97.5371 17.9538 96.5597 17.5513 95.7682 16.733L95.6244 16.8721C96.4555 17.7313 97.4856 18.1538 98.7213 18.1538V17.9538ZM96.4086 16.1849C97.0335 16.824 97.816 17.1363 98.7213 17.1363V16.9363C97.8667 16.9363 97.1367 16.6435 96.5516 16.0451L96.4086 16.1849ZM95.4588 13.75C95.4588 14.7368 95.7841 15.5462 96.4086 16.1849L96.5516 16.0451C95.9661 15.4463 95.6588 14.6883 95.6588 13.75H95.4588ZM96.4086 11.3151C95.7841 11.9538 95.4588 12.7632 95.4588 13.75H95.6588C95.6588 12.8118 95.9661 12.0537 96.5516 11.455L96.4086 11.3151ZM98.7213 10.3638C97.816 10.3638 97.0335 10.676 96.4086 11.3151L96.5516 11.455C97.1367 10.8565 97.8667 10.5638 98.7213 10.5638V10.3638ZM101.034 11.3151C100.409 10.676 99.6267 10.3638 98.7213 10.3638V10.5638C99.576 10.5638 100.306 10.8565 100.891 11.455L101.034 11.3151ZM101.984 13.75C101.984 12.7643 101.673 11.954 101.033 11.3143L100.892 11.4557C101.49 12.0536 101.784 12.8108 101.784 13.75H101.984ZM101.034 16.1849C101.659 15.5462 101.984 14.7368 101.984 13.75H101.784C101.784 14.6883 101.477 15.4463 100.891 16.0451L101.034 16.1849ZM98.7213 17.1363C99.6267 17.1363 100.409 16.824 101.034 16.1849L100.891 16.0451C100.306 16.6435 99.576 16.9363 98.7213 16.9363V17.1363ZM104.555 17.8751V9.62511H104.355V17.8751H104.555ZM105.527 17.7751H104.455V17.9751H105.527V17.7751ZM105.427 12.7464V17.8751H105.627V12.7464H105.427ZM105.386 11.1539L105.428 12.7489L105.627 12.7438L105.586 11.1488L105.386 11.1539ZM105.527 11.0514H105.486V11.2514H105.527V11.0514ZM109.806 17.8222L105.612 11.0984L105.443 11.2043L109.636 17.928L109.806 17.8222ZM110.821 17.7751H109.721V17.9751H110.821V17.7751ZM110.721 9.62511V17.8751H110.921V9.62511H110.721ZM109.762 9.72511H110.821V9.52511H109.762V9.72511ZM109.862 14.4514V9.62511H109.662V14.4514H109.862ZM109.904 16.0438L109.862 14.4488L109.663 14.4539L109.704 16.0489L109.904 16.0438ZM109.762 16.1464H109.804V15.9464H109.762V16.1464ZM105.663 9.67812L109.678 16.0994L109.847 15.9933L105.832 9.57209L105.663 9.67812ZM104.455 9.72511H105.747V9.52511H104.455V9.72511Z" fill="white"/>
<path d="M14.8875 10.3672C14.4888 10.7935 14.255 11.4535 14.255 12.2922V42.7072C14.255 43.5597 14.4888 44.2197 14.8875 44.6322L14.9838 44.7285L32.02 27.706V27.4997V27.2935L14.9838 10.271L14.8875 10.3672Z" fill="url(#paint0_linear)"/>
<path d="M37.6987 33.3847L32.02 27.706V27.4997V27.2935L37.6987 21.6147L37.8225 21.6835L44.5462 25.506C46.4712 26.5922 46.4712 28.3797 44.5462 29.4797L37.8225 33.3022L37.6987 33.3847Z" fill="url(#paint1_linear)"/>
<path d="M37.8225 33.3025L32.02 27.5L14.8875 44.6325C15.52 45.3062 16.565 45.3888 17.7475 44.715L37.8225 33.3025Z" fill="url(#paint2_linear)"/>
<path d="M37.8225 21.6973L17.7337 10.2848C16.5512 9.61105 15.5062 9.69355 14.8737 10.3673L32.02 27.4998L37.8225 21.6973Z" fill="url(#paint3_linear)"/>
<path opacity="0.2" d="M37.6988 33.1787L17.7338 44.5225C16.62 45.155 15.6163 45.1137 14.9838 44.5362L14.8875 44.6325L14.9838 44.7287C15.63 45.3062 16.62 45.3475 17.7338 44.715L37.8225 33.3025L37.6988 33.1787Z" fill="black"/>
<path opacity="0.12" d="M14.8875 44.4401C14.4888 44.0139 14.255 43.3539 14.255 42.5151V42.7214C14.255 43.5739 14.4888 44.2339 14.8875 44.6464L14.9838 44.5501L14.8875 44.4401Z" fill="black"/>
<path opacity="0.12" d="M44.5462 29.2875L37.685 33.1788L37.8087 33.3025L44.5325 29.48C45.495 28.93 45.9762 28.215 45.9762 27.5C45.9075 28.1463 45.4262 28.7925 44.5462 29.2875Z" fill="black"/>
<path opacity="0.25" d="M17.7337 10.4778L44.5462 25.7128C45.4125 26.2078 45.9075 26.8403 45.99 27.5003C45.99 26.7853 45.5087 26.0566 44.5462 25.5203L17.7337 10.2853C15.8087 9.19909 14.2412 10.1066 14.2412 12.3066V12.5128C14.2412 10.2991 15.8225 9.39159 17.7337 10.4778Z" fill="white"/>
<defs>
<linearGradient id="paint0_linear" x1="30.5071" y1="11.9756" x2="7.4313" y2="35.0514" gradientUnits="userSpaceOnUse">
<stop stop-color="#00A0FF"/>
<stop offset="0.00657445" stop-color="#00A1FF"/>
<stop offset="0.2601" stop-color="#00BEFF"/>
<stop offset="0.5122" stop-color="#00D2FF"/>
<stop offset="0.7604" stop-color="#00DFFF"/>
<stop offset="1" stop-color="#00E3FF"/>
</linearGradient>
<linearGradient id="paint1_linear" x1="47.0548" y1="27.5017" x2="13.784" y2="27.5017" gradientUnits="userSpaceOnUse">
<stop stop-color="#FFE000"/>
<stop offset="0.4087" stop-color="#FFBD00"/>
<stop offset="0.7754" stop-color="#FFA500"/>
<stop offset="1" stop-color="#FF9C00"/>
</linearGradient>
<linearGradient id="paint2_linear" x1="34.6696" y1="30.6571" x2="3.37691" y2="61.9498" gradientUnits="userSpaceOnUse">
<stop stop-color="#FF3A44"/>
<stop offset="1" stop-color="#C31162"/>
</linearGradient>
<linearGradient id="paint3_linear" x1="10.5663" y1="0.242074" x2="24.5398" y2="14.2155" gradientUnits="userSpaceOnUse">
<stop stop-color="#32A071"/>
<stop offset="0.0685" stop-color="#2DA771"/>
<stop offset="0.4762" stop-color="#15CF74"/>
<stop offset="0.8009" stop-color="#06E775"/>
<stop offset="1" stop-color="#00F076"/>
</linearGradient>
</defs>
</svg>
