<svg width="110" height="110" viewBox="0 0 110 110" fill="none" xmlns="http://www.w3.org/2000/svg">
<path d="M38.1453 104.11L20.1466 87.2317L19.7559 75.0652L37.7546 91.9438L38.1453 104.11Z" fill="#D3F1F3" stroke="black" stroke-miterlimit="10" stroke-linecap="round" stroke-linejoin="round"/>
<path d="M75.4559 102.912L56.2015 84.8558L38.2028 67.9771L18.9483 49.9209L18.5576 37.7544L37.812 55.8106L55.8107 72.6893L75.0652 90.7455L75.4559 102.912Z" fill="#D3F1F3" stroke="black" stroke-miterlimit="10" stroke-linecap="round" stroke-linejoin="round"/>
<path d="M92.3346 84.9136L75.4559 102.912L75.0652 90.7458L91.9438 72.7471L92.3346 84.9136Z" fill="#FFC7B4" stroke="black" stroke-miterlimit="10" stroke-linecap="round" stroke-linejoin="round"/>
<path d="M56.2015 84.8557L38.1453 104.11L37.7546 91.9436L55.8108 72.6892L56.2015 84.8557Z" fill="#FFC7B4" stroke="black" stroke-miterlimit="10" stroke-linecap="round" stroke-linejoin="round"/>
<path d="M91.1363 47.6028L73.0801 66.8572L72.6894 54.6907L90.7456 35.4363L91.1363 47.6028Z" fill="#FFC7B4" stroke="black" stroke-miterlimit="10" stroke-linecap="round" stroke-linejoin="round"/>
<path d="M91.9438 72.747L72.6893 54.6908L90.7456 35.4363L72.7469 18.5577L54.6906 37.8121L35.4362 19.7559L18.5576 37.7546L37.812 55.8108L19.7558 75.0652L37.7545 91.9439L55.8107 72.6895L75.0651 90.7457L91.9438 72.747Z" fill="#026773" stroke="black" stroke-miterlimit="10" stroke-linecap="round" stroke-linejoin="round"/>
</svg>
