<svg width="343" height="342" viewBox="0 0 343 342" fill="none" xmlns="http://www.w3.org/2000/svg">
<path d="M207.099 226.627L245.21 324.896L156.755 258.349L84.5562 308.421L112.484 229.191L11.3845 221.744L104.708 171.331L47.5279 115.627L113.736 128.635L96.4073 15.7213L158.785 123.987L211.119 25.5899L204.447 137.688L267.86 134.538L220.854 179.42L318.586 198.251L207.099 226.627Z" fill="#F3E02B"/>
<path d="M195.661 185.89L194.26 187.228L196.163 187.595L260.316 199.959L191.167 217.568L190.073 217.847L190.481 218.899L217.249 287.952L157.616 243.103L157.038 242.669L156.445 243.081L109.622 275.562L129.575 218.957L130.01 217.723L128.705 217.627L55.6775 212.269L124.782 174.926L125.979 174.279L125.004 173.33L87.007 136.341L127.654 144.31L129.051 144.584L128.835 143.177L119.289 80.8698L158.316 148.648L159.218 150.213L160.066 148.619L194.975 83.0123L191.002 149.979L190.936 151.093L192.05 151.037L234.362 148.913L195.661 185.89Z" fill="#AAF8EC" stroke="white" stroke-width="2"/>
<path d="M174.652 209.913L191.98 254.553L157.318 228.488L132.297 245.847L145.833 207.378L95.7525 203.687L145.191 176.961L122.69 155.042L142.91 159.013L139.956 139.802L159.617 173.951L180.376 134.939L178.69 163.204L204.092 161.945L170.194 194.288L207.64 201.503L174.652 209.913Z" fill="#FFC7B4"/>
</svg>
