<svg width="386" height="387" viewBox="0 0 386 387" fill="none" xmlns="http://www.w3.org/2000/svg">
<path d="M166.667 263.351L80.6667 275.522L146.248 202.089L58.7815 125.633L141.731 143.416L113.385 94.2819L176.024 123.976L183.252 29.1469L225.416 128.432L256.185 102.216L252.08 151.084L332.244 153.403L273.88 207.909L320.778 277.541L262.059 266.181L287.673 319.38L224.501 274.711L199.266 356.117L166.667 263.351Z" fill="#F3E02B"/>
<path d="M192.054 81.4296L220.729 148.965L240.904 131.789L238.287 162.61L301.936 164.433L257.739 205.705L294.601 260.428L240.629 249.973L256.406 282.759L217.163 255.023L198.3 315.948L175.147 250.004L112.569 258.847L163.743 201.527L101.098 146.799L165.789 160.651L143.178 121.458L187.391 142.447L192.054 81.4296Z" fill="#74D486"/>
<path d="M184.15 235.763L146.596 241.071L182.425 200.967L146.242 169.347L191.446 179.052L174.954 150.479L199.516 162.13L201.42 137.205L215.737 170.867L224.612 163.305L223.624 174.899L269.58 176.2L240.529 203.348L266.691 242.179L217.768 232.716L223.05 243.691L209.38 234.017L197.269 273.062L184.15 235.763Z" fill="#AAF8EC" stroke="white" stroke-miterlimit="10"/>
</svg>
