<svg width="300" height="299" viewBox="0 0 300 299" fill="none" xmlns="http://www.w3.org/2000/svg">
<path d="M216.646 183.069L267.154 245.765L189.162 202.343L172.841 298.854L157.813 211.908L113.03 263.625L130.738 196.976L95.2431 200.335L126.213 163.734L-7.03976e-06 137.804L132.205 131.7L110.302 80.6585L147.138 107.203L152.405 -0.000147536L176.2 97.7815L203.7 69.2089L194.081 111.627L243.753 93.3983L212.578 145.402L300 168.916L216.646 183.069Z" fill="#6490F2"/>
<path d="M73.7502 143.62L144.047 140.384L128.61 104.397L153.508 122.339L157.072 49.7508L172.557 113.368L190.533 94.6886L183.642 125.043L224.846 109.927L199.979 151.424L257.361 166.847L201.02 176.433L233.882 217.192L184.068 189.48L172.762 256.354L162.087 194.641L128.578 233.332L140.957 186.756L115.206 189.193L141.918 157.63L73.7502 143.62Z" fill="#AAF8EC"/>
<path d="M190.429 171.002L188.748 171.288L189.818 172.616L207.692 194.792L181.164 180.024L179.928 179.336L179.692 180.731L172.703 222.077L165.926 182.939L165.566 180.86L164.185 182.456L141.033 209.207L148.735 180.213L149.104 178.825L147.674 178.96L130.877 180.552L153.153 154.2L154.24 152.913L152.59 152.575L130.954 148.139L151.994 147.159L153.436 147.092L152.866 145.766L143.141 123.129L157.166 133.228L158.659 134.303L158.749 132.466L160.84 89.8489L169.157 123.99L169.588 125.756L170.849 124.447L179.981 114.967L175.713 133.773L175.306 135.567L177.034 134.933L209.934 122.842L190.716 154.925L190.036 156.061L191.315 156.404L224.271 165.255L190.429 171.002Z" fill="#F3E02B" stroke="white" stroke-width="2"/>
</svg>
