<svg width="399" height="399" viewBox="0 0 399 399" fill="none" xmlns="http://www.w3.org/2000/svg">
<path d="M244.305 168.534L343.127 162.308L250.115 209.537L306.964 290.372L219.492 253.812L184.777 371.322L158.145 274.429L88.9063 311.08L117.849 234.488L38.5493 209.728L130.441 174.252L109.429 134.492L157.024 145.809L172.302 46.7296L205.693 127.093L293.928 47.9534L244.305 168.534Z" fill="#FFC7B4"/>
<path d="M133.653 226.792L74.9816 208.482L147.495 180.479L132.646 152.381L167.014 160.571L177.678 91.3741L200.942 147.434L262.77 91.9819L225.843 181.686L285.991 177.911L232.196 205.216L272.889 263.037L211.731 237.498L185.259 327.114L165.902 256.782L111.399 285.626L133.653 226.792Z" fill="#6490F2"/>
<path d="M206.161 195.736L225.014 194.563L213.093 200.602L236.528 233.901L203.449 220.079L185.731 279.973L174.189 237.976L135.4 258.49L150.498 218.576L113.852 207.143L165.695 187.106L157.419 171.476L177.637 176.298L183.387 139.005L195.898 169.117L229.561 138.948L206.161 195.736Z" fill="#AAF8EC" stroke="white" stroke-width="2" stroke-miterlimit="10"/>
</svg>
