<svg width="620" height="177" viewBox="0 0 620 177" fill="none" xmlns="http://www.w3.org/2000/svg">
<path d="M56.8 56.72C71.36 54.48 80.8 45.2 80.8 32.4C80.8 16.4 66.24 5.2 43.2 5.2C30.08 5.2 19.68 8.4 10.88 14.32V24.56C16.32 19.76 26.24 14.32 41.6 14.32C59.84 14.32 70.88 22.16 70.88 34C70.88 45.2 62.4 54.16 42.08 54.16H20L18.24 62.64H40C64.32 62.64 74.08 72.4 74.08 84.4C74.08 98.16 61.92 107.44 42.24 107.44C28.96 107.44 17.44 103.44 10.4 98V107.76C19.36 113.68 30.56 116.72 43.68 116.72C68.16 116.72 84.16 102.8 84.16 85.04C84.16 70.64 74.72 59.44 56.8 56.72ZM133.735 7.11999L98.375 28.08V38L131.815 18.32V114H141.575V7.11999H133.735ZM177.12 92.48C185.84 92.48 191.36 85.52 191.36 75.36C191.36 65.04 185.76 58 177.12 58C168.56 58 162.96 65.04 162.96 75.28C162.96 85.6 168.48 92.48 177.12 92.48ZM181.36 114H188.24L213.6 60.8H206.8L181.36 114ZM177.12 87.04C172.24 87.04 169.36 82.24 169.36 75.28C169.36 68.4 172.32 63.44 177.12 63.44C182.08 63.44 184.96 68.4 184.96 75.36C184.96 82.16 182.08 87.04 177.12 87.04ZM218.72 114.72C227.44 114.72 232.96 107.76 232.96 97.6C232.96 87.28 227.36 80.24 218.72 80.24C210.16 80.24 204.56 87.28 204.56 97.52C204.56 107.84 210.08 114.72 218.72 114.72ZM218.72 109.28C213.84 109.28 210.96 104.48 210.96 97.52C210.96 90.64 213.92 85.68 218.72 85.68C223.68 85.68 226.56 90.64 226.56 97.6C226.56 104.4 223.68 109.28 218.72 109.28Z" fill="black"/>
<path d="M5.278 171H7.266L9.758 163.37V171H11.62V160.85H8.68L6.286 168.76L3.822 160.85H0.91V171H2.772V163.37L5.278 171ZM14.6934 160.85V171H22.0854V169.376H16.6954V166.618H21.7914V164.994H16.6954V162.474H22.0854V160.85H14.6934ZM30.5441 171H33.1481V160.85H31.2581V168.592L27.1981 160.85H24.5941V171H26.4841V163.258L30.5441 171Z" fill="black"/>
<path d="M369.36 7.11999L334 28.08V38L367.44 18.32V114H377.2V7.11999H369.36ZM453.385 41.52C433.065 41.52 419.785 52.56 416.105 67.28C415.945 65.84 415.945 64.24 415.945 62C415.945 31.6 431.785 14.32 456.585 14.32C469.385 14.32 480.745 19.12 486.345 24.08V13.68C478.025 8.24 467.465 5.2 456.265 5.2C426.665 5.2 406.025 26.32 406.025 65.36C406.025 102.16 425.705 116.72 449.225 116.72C474.345 116.72 491.785 99.76 491.785 77.68C491.785 56.72 476.745 41.52 453.385 41.52ZM449.225 107.76C430.985 107.76 417.385 94.64 417.385 78.16C417.385 62.32 430.505 49.52 450.025 49.52C468.905 49.52 481.545 61.36 481.545 78.16C481.545 95.6 467.465 107.76 449.225 107.76ZM518.214 92.48C526.934 92.48 532.454 85.52 532.454 75.36C532.454 65.04 526.854 58 518.214 58C509.654 58 504.054 65.04 504.054 75.28C504.054 85.6 509.574 92.48 518.214 92.48ZM522.454 114H529.334L554.694 60.8H547.894L522.454 114ZM518.214 87.04C513.334 87.04 510.454 82.24 510.454 75.28C510.454 68.4 513.414 63.44 518.214 63.44C523.174 63.44 526.054 68.4 526.054 75.36C526.054 82.16 523.174 87.04 518.214 87.04ZM559.814 114.72C568.534 114.72 574.054 107.76 574.054 97.6C574.054 87.28 568.454 80.24 559.814 80.24C551.254 80.24 545.654 87.28 545.654 97.52C545.654 107.84 551.174 114.72 559.814 114.72ZM559.814 109.28C554.934 109.28 552.054 104.48 552.054 97.52C552.054 90.64 555.014 85.68 559.814 85.68C564.774 85.68 567.654 90.64 567.654 97.6C567.654 104.4 564.774 109.28 559.814 109.28Z" fill="black"/>
<path d="M338.96 168.284L337.406 160.85H335.068L333.654 168.242L332.142 160.85H330.07L332.324 171H334.69L336.23 163.44L337.77 171H340.136L342.39 160.85H340.346L338.96 168.284ZM349.093 171.182C352.117 171.182 354.063 169.068 354.063 165.918C354.063 162.768 352.117 160.668 349.093 160.668C346.069 160.668 344.123 162.768 344.123 165.918C344.123 169.068 346.069 171.182 349.093 171.182ZM349.093 169.586C347.511 169.586 346.195 168.298 346.195 165.918C346.195 163.538 347.511 162.264 349.093 162.264C350.675 162.264 351.991 163.538 351.991 165.918C351.991 168.298 350.675 169.586 349.093 169.586ZM361.109 171H363.097L365.589 163.37V171H367.451V160.85H364.511L362.117 168.76L359.653 160.85H356.741V171H358.603V163.37L361.109 171ZM370.524 160.85V171H377.916V169.376H372.526V166.618H377.622V164.994H372.526V162.474H377.916V160.85H370.524ZM386.375 171H388.979V160.85H387.089V168.592L383.029 160.85H380.425V171H382.315V163.258L386.375 171Z" fill="black"/>
</svg>
