<svg width="620" height="400" viewBox="0 0 620 400" fill="none" xmlns="http://www.w3.org/2000/svg">
<path d="M200 200L24.7 103.7C42 72.3 67.4 46.1 98.2 27.9C129 9.7 164.2 0 200 0V200Z" fill="#6490F2"/>
<path d="M200 200V0C309.7 0 400 90.3 400 200C400 309.7 309.7 400 200 400C187.4 400 174.9 398.8 162.5 396.5L200 200Z" fill="#F3E02B"/>
<path d="M200 200L162.5 396.5C68.6 378.5 0 295.6 0 200C0 166.3 8.5 133.2 24.7 103.6L200 200Z" fill="#D3F1F3"/>
<rect x="470" y="96" width="40" height="40" fill="#F3E02B"/>
<line x1="509" y1="136" x2="509" y2="96" stroke="black" stroke-width="2"/>
<path d="M523.78 99.85L520 110H522.044L522.758 107.942H526.706L527.42 110H529.59L525.796 99.85H523.78ZM523.332 106.304L524.732 102.3L526.132 106.304H523.332ZM540.208 102.93C539.886 101.054 538.262 99.668 535.882 99.668C532.774 99.668 530.912 101.726 530.912 104.876C530.912 108.11 532.69 110.182 535.546 110.182C536.974 110.182 538.024 109.636 538.598 108.81L538.654 110H540.236V104.61H535.854V106.248H538.388V106.416C538.388 108.054 536.946 108.586 535.854 108.586C534.118 108.586 532.984 107.298 532.984 104.876C532.984 102.44 534.174 101.264 535.868 101.264C537.002 101.264 537.996 101.824 538.304 102.93H540.208ZM547.371 106.024L549.387 110H551.613L549.359 105.604C550.619 105.072 551.193 104.092 551.193 102.93C551.193 100.802 549.919 99.85 546.573 99.85H543.241V110H545.243V106.024H547.371ZM545.243 101.418H546.797C548.155 101.418 549.135 101.768 549.135 102.944C549.135 103.938 548.449 104.47 546.895 104.47H545.243V101.418ZM553.975 99.85V110H561.367V108.376H555.977V105.618H561.073V103.994H555.977V101.474H561.367V99.85H553.975ZM563.876 99.85V110H571.268V108.376H565.878V105.618H570.974V103.994H565.878V101.474H571.268V99.85H563.876ZM526.202 128.668C526.202 129.956 525.432 130.726 524.368 130.726C523.122 130.726 522.52 129.858 522.408 128.808H520.588C520.7 130.558 521.96 132.182 524.34 132.182C526.426 132.182 528.162 130.894 528.162 128.654C528.162 126.316 526.552 125.084 524.816 125.084C523.878 125.084 523.22 125.336 522.8 125.644L523.08 123.474H527.756V121.85H521.498L520.826 127.436L522.59 127.52C522.786 127.044 523.43 126.596 524.326 126.596C525.264 126.596 526.202 127.282 526.202 128.668ZM536.073 129.144C536.073 130.096 535.219 130.726 534.169 130.726C532.909 130.726 532.251 129.83 532.111 128.808H530.291C530.417 130.67 531.789 132.182 534.113 132.182C536.255 132.182 538.033 131.146 538.033 129.088C538.033 128.066 537.445 127.058 536.395 126.624C537.165 126.204 537.767 125.378 537.767 124.398C537.767 122.48 536.017 121.668 534.323 121.668C531.999 121.668 530.599 122.9 530.375 124.916H532.209C532.307 123.866 533.049 123.124 534.211 123.124C535.051 123.124 535.821 123.6 535.821 124.482C535.821 125.434 534.911 125.966 533.455 125.966H533.119V127.478H533.525C534.967 127.478 536.073 127.954 536.073 129.144ZM540.248 124.692C540.248 126.54 541.116 127.66 542.74 127.66C544.35 127.66 545.204 126.54 545.204 124.692C545.204 122.858 544.35 121.752 542.74 121.752C541.116 121.752 540.248 122.858 540.248 124.692ZM542.81 132H544.798L551.812 121.85H549.824L542.81 132ZM543.832 124.692C543.832 126.078 543.37 126.68 542.74 126.68C542.082 126.68 541.634 126.078 541.634 124.692C541.634 123.32 542.082 122.746 542.74 122.746C543.37 122.746 543.832 123.32 543.832 124.692ZM549.418 129.13C549.418 130.978 550.286 132.098 551.91 132.098C553.52 132.098 554.374 130.978 554.374 129.13C554.374 127.296 553.52 126.19 551.91 126.19C550.286 126.19 549.418 127.296 549.418 129.13ZM553.002 129.13C553.002 130.516 552.54 131.118 551.91 131.118C551.252 131.118 550.804 130.516 550.804 129.13C550.804 127.758 551.252 127.184 551.91 127.184C552.54 127.184 553.002 127.758 553.002 129.13Z" fill="black"/>
<rect x="470" y="180" width="40" height="40" fill="#D3F1F3"/>
<line x1="509" y1="220" x2="509" y2="180" stroke="black" stroke-width="2"/>
<path d="M526.86 194H529.464V183.85H527.574V191.592L523.514 183.85H520.91V194H522.8V186.258L526.86 194ZM532.547 183.85V194H539.939V192.376H534.549V189.618H539.645V187.994H534.549V185.474H539.939V183.85H532.547ZM544.296 183.85H542.294V189.702C542.294 193.048 543.54 194.182 546.508 194.182C549.476 194.182 550.694 193.048 550.694 189.702V183.85H548.692V189.716C548.692 191.508 548.356 192.586 546.508 192.586C544.66 192.586 544.296 191.508 544.296 189.716V183.85ZM555.902 185.474V194H557.904V185.474H561.04V183.85H552.78V185.474H555.902ZM567.404 190.024L569.42 194H571.646L569.392 189.604C570.652 189.072 571.226 188.092 571.226 186.93C571.226 184.802 569.952 183.85 566.606 183.85H563.274V194H565.276V190.024H567.404ZM565.276 185.418H566.83C568.188 185.418 569.168 185.768 569.168 186.944C569.168 187.938 568.482 188.47 566.928 188.47H565.276V185.418ZM576.879 183.85L573.099 194H575.143L575.857 191.942H579.805L580.519 194H582.689L578.895 183.85H576.879ZM576.431 190.304L577.831 186.3L579.231 190.304H576.431ZM586.855 192.376V183.85H584.853V194H591.797V192.376H586.855ZM526.09 213.144C526.09 214.096 525.236 214.726 524.186 214.726C522.926 214.726 522.268 213.83 522.128 212.808H520.308C520.434 214.67 521.806 216.182 524.13 216.182C526.272 216.182 528.05 215.146 528.05 213.088C528.05 212.066 527.462 211.058 526.412 210.624C527.182 210.204 527.784 209.378 527.784 208.398C527.784 206.48 526.034 205.668 524.34 205.668C522.016 205.668 520.616 206.9 520.392 208.916H522.226C522.324 207.866 523.066 207.124 524.228 207.124C525.068 207.124 525.838 207.6 525.838 208.482C525.838 209.434 524.928 209.966 523.472 209.966H523.136V211.478H523.542C524.984 211.478 526.09 211.954 526.09 213.144ZM530.42 210.904C530.42 213.998 531.792 216.182 534.508 216.182C537.21 216.182 538.582 213.998 538.582 210.904C538.582 207.824 537.21 205.668 534.508 205.668C531.792 205.668 530.42 207.824 530.42 210.904ZM536.608 210.904C536.608 213.34 535.88 214.726 534.508 214.726C533.136 214.726 532.394 213.34 532.394 210.904C532.394 208.482 533.136 207.124 534.508 207.124C535.88 207.124 536.608 208.482 536.608 210.904ZM540.809 208.692C540.809 210.54 541.677 211.66 543.301 211.66C544.911 211.66 545.765 210.54 545.765 208.692C545.765 206.858 544.911 205.752 543.301 205.752C541.677 205.752 540.809 206.858 540.809 208.692ZM543.371 216H545.359L552.373 205.85H550.385L543.371 216ZM544.393 208.692C544.393 210.078 543.931 210.68 543.301 210.68C542.643 210.68 542.195 210.078 542.195 208.692C542.195 207.32 542.643 206.746 543.301 206.746C543.931 206.746 544.393 207.32 544.393 208.692ZM549.979 213.13C549.979 214.978 550.847 216.098 552.471 216.098C554.081 216.098 554.935 214.978 554.935 213.13C554.935 211.296 554.081 210.19 552.471 210.19C550.847 210.19 549.979 211.296 549.979 213.13ZM553.563 213.13C553.563 214.516 553.101 215.118 552.471 215.118C551.813 215.118 551.365 214.516 551.365 213.13C551.365 211.758 551.813 211.184 552.471 211.184C553.101 211.184 553.563 211.758 553.563 213.13Z" fill="black"/>
<rect x="470" y="264" width="40" height="40" fill="#6490F2"/>
<line x1="509" y1="304" x2="509" y2="264" stroke="black" stroke-width="2"/>
<path d="M523.92 267.85H520.91V278H523.92C527.14 278 529.562 276.95 529.562 272.918C529.562 268.9 527.14 267.85 523.92 267.85ZM523.836 269.418C525.684 269.418 527.49 269.88 527.49 272.918C527.49 275.97 525.684 276.432 523.836 276.432H522.912V269.418H523.836ZM534.235 278V267.85H532.233V278H534.235ZM540.023 273.548L541.311 273.786C542.389 273.982 543.187 274.304 543.187 275.172C543.187 276.264 542.053 276.586 541.157 276.586C539.953 276.586 538.917 276.138 538.693 274.654H536.761C536.943 276.838 538.595 278.182 541.087 278.182C543.131 278.182 545.203 277.16 545.203 275.074C545.203 272.974 543.383 272.316 541.731 272.022L540.401 271.784C539.589 271.63 538.987 271.238 538.987 270.524C538.987 269.614 540.023 269.264 540.947 269.264C541.899 269.264 542.935 269.656 543.089 270.846H545.021C544.923 268.9 543.131 267.668 541.031 267.668C539.155 267.668 536.985 268.564 536.985 270.608C536.985 272.372 538.371 273.226 540.023 273.548ZM550.433 267.85L546.653 278H548.697L549.411 275.942H553.359L554.073 278H556.243L552.449 267.85H550.433ZM549.985 274.304L551.385 270.3L552.785 274.304H549.985ZM566.861 270.93C566.539 269.054 564.915 267.668 562.535 267.668C559.427 267.668 557.565 269.726 557.565 272.876C557.565 276.11 559.343 278.182 562.199 278.182C563.627 278.182 564.677 277.636 565.251 276.81L565.307 278H566.889V272.61H562.507V274.248H565.041V274.416C565.041 276.054 563.599 276.586 562.507 276.586C560.771 276.586 559.637 275.298 559.637 272.876C559.637 270.44 560.827 269.264 562.521 269.264C563.655 269.264 564.649 269.824 564.957 270.93H566.861ZM574.024 274.024L576.04 278H578.266L576.012 273.604C577.272 273.072 577.846 272.092 577.846 270.93C577.846 268.802 576.572 267.85 573.226 267.85H569.894V278H571.896V274.024H574.024ZM571.896 269.418H573.45C574.808 269.418 575.788 269.768 575.788 270.944C575.788 271.938 575.102 272.47 573.548 272.47H571.896V269.418ZM580.628 267.85V278H588.02V276.376H582.63V273.618H587.726V271.994H582.63V269.474H588.02V267.85H580.628ZM590.529 267.85V278H597.921V276.376H592.531V273.618H597.627V271.994H592.531V269.474H597.921V267.85H590.529ZM522.184 300H524.116V289.85H522.646C522.156 290.956 521.47 291.054 520 291.096V292.412H522.184V300ZM526.386 289.85V291.474H531.902C529.634 293.616 527.758 296.472 527.59 300H529.718C529.914 296.346 531.202 294.176 533.848 291.474V289.85H526.386ZM535.231 292.692C535.231 294.54 536.099 295.66 537.723 295.66C539.333 295.66 540.187 294.54 540.187 292.692C540.187 290.858 539.333 289.752 537.723 289.752C536.099 289.752 535.231 290.858 535.231 292.692ZM537.793 300H539.781L546.795 289.85H544.807L537.793 300ZM538.815 292.692C538.815 294.078 538.353 294.68 537.723 294.68C537.065 294.68 536.617 294.078 536.617 292.692C536.617 291.32 537.065 290.746 537.723 290.746C538.353 290.746 538.815 291.32 538.815 292.692ZM544.401 297.13C544.401 298.978 545.269 300.098 546.893 300.098C548.503 300.098 549.357 298.978 549.357 297.13C549.357 295.296 548.503 294.19 546.893 294.19C545.269 294.19 544.401 295.296 544.401 297.13ZM547.985 297.13C547.985 298.516 547.523 299.118 546.893 299.118C546.235 299.118 545.787 298.516 545.787 297.13C545.787 295.758 546.235 295.184 546.893 295.184C547.523 295.184 547.985 295.758 547.985 297.13Z" fill="black"/>
</svg>
