<svg width="450" height="450" viewBox="0 0 450 450" fill="none" xmlns="http://www.w3.org/2000/svg">
<rect width="450" height="450" fill="white"/>
<path d="M149.215 256.404V193.695C156.859 194.31 163.963 197.882 169.017 203.651C174.505 209.97 178.767 217.258 181.586 225.139C186.85 210.814 196.804 195.127 213.634 193.659V215.469C215.696 208.618 219.732 202.526 225.236 197.957C231.409 193.282 238.981 190.833 246.722 191.009C260.723 191.009 274.76 200.643 277.266 214.896H261.081C259.758 211.992 257.566 209.571 254.808 207.967C252.049 206.363 248.861 205.656 245.683 205.943C240.769 206.156 236.127 208.258 232.725 211.811C229.323 215.365 227.424 220.094 227.424 225.014C227.424 229.933 229.323 234.663 232.725 238.216C236.127 241.769 240.769 243.871 245.683 244.084C248.035 244.155 250.378 243.761 252.578 242.925C254.777 242.089 256.791 240.828 258.503 239.214C260.31 237.245 261.699 234.93 262.585 232.409H244V217.439H278.484V193.659H310.711V208.736H293.81V217.439H310.711V232.409H293.81V241.291H310.711V256.368H278.484V232.445C277.129 238.036 274.398 243.199 270.538 247.464C266.678 251.73 261.813 254.962 256.386 256.866C250.958 258.771 245.14 259.287 239.462 258.368C233.784 257.449 228.426 255.124 223.876 251.605C218.744 247.135 215.159 241.155 213.634 234.522V256.404H198.487V222.453C191.731 232.463 188.263 244.331 188.568 256.404H174.245C174.136 244.373 170.663 232.612 164.219 222.453V256.404H149.215Z" fill="#2162A5"/>
<path d="M342.647 193.712H357.999V256.134H344.272C342.213 245.796 337.264 232.641 328.667 226.082V256.134H313.387V193.677C320.322 195.067 329.389 202.09 334.447 206.867C337.835 209.851 340.649 213.413 342.755 217.383L342.647 193.712Z" fill="#2162A5"/>
<path d="M93 256.134L93.4263 254.607L96.0196 245.837C98.1953 238.61 100.89 231.549 104.083 224.71C111.934 207.312 125.043 193.677 145.149 193.677H146.535V256.098H131.437V241.008H112.219L111.792 242.322L110.904 245.091L109.661 249.459L108.453 254.252L107.991 256.098L93 256.134ZM119.039 226.201H131.437V211.998C124.972 215.088 122.201 219.952 119.146 226.201H119.039Z" fill="#2162A5"/>
</svg>
