<svg width="450" height="450" viewBox="0 0 450 450" fill="none" xmlns="http://www.w3.org/2000/svg">
<rect width="450" height="450" fill="white"/>
<path d="M228.797 205.565C222.834 205.562 216.983 207.18 211.873 210.245C206.763 213.31 202.588 217.705 199.797 222.959C197.573 218.784 194.469 215.138 190.697 212.272C186.925 209.406 182.576 207.389 177.948 206.359C173.32 205.328 168.523 205.309 163.887 206.302C159.251 207.296 154.885 209.279 151.091 212.114V184.526C151.091 182.795 150.401 181.135 149.174 179.911C147.946 178.688 146.281 178 144.545 178C142.809 178 141.145 178.688 139.917 179.911C138.69 181.135 138 182.795 138 184.526V238.82C138.12 246.074 140.655 253.083 145.206 258.744C149.757 264.405 156.066 268.398 163.142 270.094C170.217 271.79 177.657 271.094 184.293 268.115C190.928 265.136 196.382 260.043 199.797 253.637C202.522 258.752 206.561 263.054 211.5 266.104C216.439 269.153 222.101 270.842 227.909 270.996C233.716 271.15 239.461 269.764 244.555 266.98C249.65 264.196 253.912 260.114 256.907 255.151C259.901 250.187 261.52 244.521 261.599 238.729C261.677 232.938 260.213 227.229 257.354 222.187C254.496 217.144 250.346 212.949 245.329 210.029C240.311 207.108 234.607 205.568 228.797 205.565V205.565ZM170.797 257.91C166.904 257.91 163.099 256.759 159.862 254.602C156.625 252.446 154.102 249.381 152.612 245.796C151.123 242.21 150.733 238.265 151.492 234.458C152.252 230.651 154.126 227.155 156.879 224.411C159.632 221.666 163.139 219.797 166.957 219.04C170.775 218.283 174.733 218.672 178.329 220.157C181.926 221.642 185 224.157 187.163 227.384C189.325 230.611 190.48 234.405 190.48 238.286C190.48 240.863 189.971 243.415 188.981 245.796C187.992 248.177 186.542 250.34 184.715 252.162C182.887 253.984 180.717 255.43 178.329 256.416C175.941 257.402 173.382 257.91 170.797 257.91V257.91ZM228.797 257.91C224.904 257.91 221.099 256.759 217.862 254.602C214.625 252.446 212.102 249.381 210.613 245.796C209.123 242.21 208.733 238.265 209.492 234.458C210.252 230.651 212.127 227.155 214.879 224.411C217.632 221.666 221.139 219.797 224.957 219.04C228.775 218.283 232.733 218.672 236.329 220.157C239.926 221.642 243 224.157 245.163 227.384C247.325 230.611 248.48 234.405 248.48 238.286C248.48 240.863 247.971 243.415 246.982 245.796C245.992 248.177 244.543 250.34 242.715 252.162C240.887 253.984 238.717 255.43 236.329 256.416C233.941 257.402 231.382 257.91 228.797 257.91Z" fill="#0071F7"/>
<path d="M311.666 260.561L294.197 238.589L311.689 216.595C312.215 215.912 312.596 215.124 312.808 214.281C313.019 213.438 313.056 212.559 312.917 211.7C312.777 210.842 312.464 210.023 311.997 209.296C311.531 208.569 310.921 207.95 310.207 207.479C308.721 206.439 306.917 205.987 305.131 206.206C303.344 206.425 301.696 207.301 300.491 208.671V208.671L285.44 227.58L270.411 208.671C269.213 207.298 267.568 206.42 265.784 206.201C264 205.982 262.199 206.436 260.718 207.479C260.003 207.949 259.393 208.569 258.926 209.297C258.46 210.024 258.147 210.845 258.01 211.704C257.872 212.563 257.912 213.443 258.127 214.285C258.343 215.128 258.728 215.915 259.259 216.595V216.595L276.728 238.589L259.259 260.561C258.732 261.242 258.349 262.029 258.136 262.871C257.923 263.713 257.883 264.591 258.021 265.45C258.158 266.308 258.469 267.127 258.934 267.855C259.398 268.583 260.006 269.204 260.718 269.677C262.2 270.722 264.004 271.175 265.789 270.951C267.575 270.727 269.219 269.842 270.411 268.461L285.44 249.599L300.469 268.461C301.67 269.835 303.317 270.715 305.104 270.938C306.89 271.162 308.695 270.714 310.184 269.677C310.898 269.206 311.508 268.587 311.974 267.86C312.441 267.133 312.754 266.314 312.894 265.455C313.034 264.597 312.997 263.718 312.785 262.875C312.574 262.032 312.192 261.244 311.666 260.561" fill="#0071F7"/>
</svg>
