<svg width="450" height="450" viewBox="0 0 450 450" fill="none" xmlns="http://www.w3.org/2000/svg">
<rect width="450" height="450" fill="white"/>
<path d="M148 148V191.599C152.584 187.686 158.459 185.602 164.494 185.746C174.344 185.746 181.668 189.761 179.17 202.965H165.175C165.998 196.604 164.664 195.784 162.819 195.784C158.844 195.784 157.68 199.77 156.346 205.962C155.012 212.155 154.501 216.141 158.333 216.141C160.321 216.141 161.825 214.982 163.841 209.808H173.833C176.417 207.185 179.167 204.729 182.066 202.456L185.387 186.594H203.556C204.392 186.566 205.229 186.623 206.054 186.764C211.17 183.983 216.429 181.473 221.81 179.243C253.037 166.039 284.491 162.872 303 169.375V148H148ZM165.033 224.821C161.683 231.353 160.69 237.686 163.188 242.719C171.704 259.684 211.448 259.231 249.516 243.2C258.56 239.498 267.213 234.915 275.35 229.515C297.691 214.473 306.35 197.621 300.019 185.068C291.503 168.103 256.699 166.378 218.687 182.41C215.195 183.908 211.874 185.407 208.524 187.075C219.538 188.743 221.696 196.434 219.538 206.471C218.547 211.902 215.626 216.796 211.31 220.258C206.994 223.721 201.572 225.521 196.033 225.33H176.842L181.158 204.945C179.271 206.506 177.489 208.187 175.821 209.977H178.006C177.3 213.351 175.737 216.487 173.465 219.086C171.193 221.685 168.29 223.66 165.033 224.821V224.821ZM236.486 186.764L234.669 211.137L243.186 186.764H259.027L257.522 211.137H257.692L266.209 186.764H280.005L263.484 225.5H246.82L248.495 200.279H248.324L239.325 225.5H223.002L222.832 186.764H236.486ZM258.175 248.374C214.826 266.583 171.505 265.339 161.655 246.395C158.504 240.372 158.816 233.36 162.166 225.839C160.076 226.224 157.96 226.451 155.835 226.518C153.178 226.521 150.536 226.12 148 225.33V303H302.659V220.835C298.142 225.123 293.228 228.976 287.983 232.342C278.561 238.585 268.583 243.952 258.175 248.374V248.374ZM203.669 206.132C204.502 203.476 204.619 200.648 204.01 197.933C203.658 197.102 203.043 196.41 202.259 195.961C201.474 195.511 200.564 195.33 199.667 195.444H198.162L193.677 216.65H195.153C196.186 216.731 197.222 216.542 198.158 216.1C199.094 215.659 199.898 214.981 200.49 214.134C202.236 211.791 203.333 209.031 203.669 206.132V206.132Z" fill="#CC0000"/>
</svg>
