<svg width="450" height="450" viewBox="0 0 450 450" fill="none" xmlns="http://www.w3.org/2000/svg">
<rect width="450" height="450" fill="white"/>
<path d="M159.75 258.675L159.631 257.618C158.805 258.422 157.713 258.889 156.565 258.929C154.737 258.929 153.4 257.873 153.4 256.014C153.4 253.666 154.717 252.483 158.533 252.483C158.779 252.483 159.305 252.523 159.571 252.543V251.012C159.571 249.828 158.74 249.24 157.563 249.24C156.453 249.264 155.364 249.543 154.378 250.056L153.872 249.012C155.099 248.348 156.476 248.014 157.869 248.043C159.877 248.043 161.093 248.979 161.093 250.958V258.695L159.75 258.675ZM159.577 253.68C159.135 253.613 158.688 253.573 158.241 253.559C155.827 253.559 154.996 254.375 154.996 255.846C154.996 256.89 155.681 257.746 157.024 257.746C157.967 257.748 158.877 257.403 159.584 256.776L159.577 253.68Z" fill="black"/>
<path d="M178.466 254.837C178.466 257.679 176.458 258.923 173.492 258.923C170.527 258.923 168.525 257.719 168.525 254.837V244.6H170.128V255.091C170.128 256.971 171.77 257.74 173.512 257.74C175.254 257.74 176.897 256.964 176.897 255.091V244.6H178.499L178.466 254.837Z" fill="black"/>
<path d="M185.973 252.656H183.261V258.675H181.658V244.579H186.007C188.726 244.579 190.249 246.09 190.249 248.557C190.255 251.292 188.394 252.656 185.973 252.656ZM186.06 245.756H183.261V251.493H186.02C187.469 251.493 188.613 250.45 188.613 248.577C188.613 246.986 187.742 245.756 186.06 245.756Z" fill="black"/>
<path d="M195.793 258.922C194.454 258.93 193.142 258.547 192.016 257.819C192.262 257.431 192.501 257.063 192.787 256.696C193.703 257.319 194.769 257.679 195.872 257.739C197.295 257.739 198.512 256.883 198.512 255.312C198.512 252.169 191.996 251.821 191.996 247.922C191.996 245.656 193.931 244.352 196.158 244.352C197.314 244.371 198.443 244.706 199.423 245.321L198.811 246.425C197.983 245.911 197.043 245.608 196.072 245.542C194.716 245.542 193.618 246.277 193.618 247.621C193.618 250.845 200.108 251.025 200.108 255.211C200.115 257.598 198.007 258.922 195.793 258.922Z" fill="black"/>
<path d="M216.255 258.415C215.228 258.757 214.152 258.922 213.07 258.903C209.054 258.903 206.148 255.82 206.148 251.561C206.148 247.034 209.413 244.339 213.13 244.339C214.229 244.319 215.32 244.519 216.341 244.927L215.856 246.131C214.986 245.725 214.036 245.521 213.077 245.536C209.746 245.536 207.758 248.291 207.758 251.581C207.758 255.131 210.071 257.699 213.196 257.699C214.113 257.722 215.025 257.556 215.876 257.211L216.255 258.415Z" fill="black"/>
<path d="M222.097 258.923C219.112 258.923 217.084 256.495 217.084 253.433C217.084 250.37 219.072 248.023 222.097 248.023C225.123 248.023 227.111 250.39 227.111 253.433C227.111 256.475 225.096 258.923 222.097 258.923ZM222.097 249.227C219.89 249.227 218.653 251.373 218.653 253.493C218.653 255.439 219.664 257.719 222.097 257.719C224.531 257.719 225.548 255.432 225.548 253.493C225.568 251.373 224.325 249.227 222.097 249.227Z" fill="black"/>
<path d="M243.42 258.675V251.413C243.42 249.956 242.795 249.233 241.638 249.233C240.301 249.233 238.838 250.236 238.087 250.785C238.087 250.992 238.134 251.193 238.134 251.413V258.675H236.604V251.413C236.604 249.956 235.979 249.233 234.816 249.233C233.579 249.233 232.203 250.089 231.305 250.765V258.675H229.789V248.271H231.285V249.728C231.95 249.173 233.373 248.03 235.155 248.03C236.292 248.03 237.469 248.518 237.914 249.849C239.131 248.879 240.414 248.03 241.997 248.03C243.706 248.03 244.982 248.999 244.982 251.433V258.696L243.42 258.675Z" fill="black"/>
<path d="M251.587 258.923C250.885 258.904 250.186 258.821 249.499 258.675V262.962H247.977V248.27H249.499V249.186C250.348 248.444 251.433 248.031 252.558 248.023C255.118 248.023 257.106 249.942 257.106 253.105C257.099 256.676 254.539 258.923 251.587 258.923ZM252.212 249.227C251.24 249.28 250.3 249.596 249.493 250.143V257.385C250.179 257.584 250.887 257.7 251.6 257.732C253.934 257.732 255.517 255.633 255.517 253.185C255.517 250.738 253.954 249.227 252.212 249.227Z" fill="black"/>
<path d="M265.356 258.675L265.229 257.619C264.406 258.421 263.316 258.888 262.171 258.929C260.342 258.929 259.006 257.873 259.006 256.014C259.006 253.667 260.322 252.483 264.139 252.483C264.378 252.483 264.91 252.523 265.176 252.543V251.012C265.176 249.828 264.345 249.24 263.168 249.24C262.059 249.264 260.969 249.543 259.983 250.056L259.478 249.013C260.706 248.351 262.081 248.017 263.474 248.043C265.482 248.043 266.706 248.979 266.706 250.958V258.695L265.356 258.675ZM265.176 253.68C264.733 253.613 264.287 253.573 263.84 253.56C261.426 253.56 260.595 254.375 260.595 255.847C260.595 256.89 261.287 257.746 262.623 257.746C263.565 257.744 264.474 257.4 265.183 256.776L265.176 253.68Z" fill="black"/>
<path d="M276.78 258.675V251.413C276.78 249.956 276.155 249.233 274.998 249.233C273.642 249.233 272.033 250.277 271.388 250.765V258.675H269.865V248.271H271.341V249.728C272.192 249.073 273.595 248.03 275.317 248.03C277.04 248.03 278.303 248.999 278.303 251.433V258.696L276.78 258.675Z" fill="black"/>
<path d="M281.734 248.27L284.839 257.531L288.124 248.27H289.766L284.307 262.961H282.745L284.407 258.675H283.795L280.092 248.27H281.734Z" fill="black"/>
<path d="M370.001 222.659L337.527 190L337.533 206.704H300.811L308.716 214.662H342.966V206.717L358.77 222.606H327.812L335.718 230.556H362.135L370.001 222.659Z" fill="#3BEA1F"/>
<path d="M95.7324 201.568C100.207 201.869 100.626 206.402 100.759 207.539H108.179C108.179 200.792 103.053 196.285 95.7324 196.211V201.568V201.568Z" fill="#3BEA1F"/>
<path d="M93.7702 225.895C87.6132 225.08 87.6065 216.172 87.6065 214.227C87.6065 207.881 89.4483 202.665 93.7702 201.702V196.319C85.2727 197.128 80 204.096 80 214.2C80 222.224 83.4376 230.442 93.7702 231.272V225.895Z" fill="#3BEA1F"/>
<path d="M100.786 219.49C100.686 223.509 98.3721 225.481 95.7324 225.882V231.339C98.7843 231.306 102.501 230.563 105.4 227.521C108.126 224.686 108.299 221.523 108.452 219.49H100.786Z" fill="#3BEA1F"/>
<path d="M124.495 212.408C124.622 209.005 125.253 205.902 126.962 203.809C127.712 202.876 128.667 202.13 129.751 201.63C130.835 201.13 132.02 200.889 133.212 200.927C136.69 200.927 139.549 202.772 140.945 206.978C141.485 208.738 141.768 210.567 141.783 212.408H149.383C149.276 209.051 148.419 204.177 145.074 200.311C141.743 196.54 136.763 195.684 133.146 195.684C121.629 195.684 117.347 203.869 116.889 212.408H124.495Z" fill="#3BEA1F"/>
<path d="M141.773 214.374C141.6 218.928 140.529 221.288 139.499 222.84C138.136 224.966 136.114 226.003 133.155 226.003C129.771 226.003 128.036 224.679 127.005 223.261C125.123 220.787 124.552 217.457 124.465 214.367H116.865C116.905 217.557 117.484 222.906 121.041 226.711C124.139 229.975 128.601 231.392 133.062 231.392C135.888 231.392 141.374 230.777 145.144 226.531C147.684 223.669 149.153 218.975 149.373 214.381L141.773 214.374Z" fill="#3BEA1F"/>
<path d="M168.726 209.713L162.789 196.54H154.291L165.295 217.169L168.726 209.713Z" fill="#3BEA1F"/>
<path d="M176.951 196.54L165.754 220.854V230.543H172.942V218.119L184.398 196.54H176.951Z" fill="#3BEA1F"/>
<path d="M288.284 210.087H275.711V215.664H288.284V210.087Z" fill="#3BEA1F"/>
<path d="M289.262 196.393H275.711V201.97H289.262V196.393Z" fill="#3BEA1F"/>
<path d="M273.746 196.393H266.525V230.543H273.746V196.393Z" fill="#3BEA1F"/>
<path d="M289.78 224.879H275.711V230.55H289.78V224.879Z" fill="#3BEA1F"/>
<path d="M198.272 212.408C198.398 209.005 199.03 205.902 200.732 203.809C201.482 202.876 202.437 202.13 203.521 201.63C204.605 201.13 205.79 200.889 206.982 200.927C210.46 200.927 213.326 202.772 214.715 206.978C215.262 208.737 215.551 210.566 215.573 212.408H223.173C223.067 209.051 222.209 204.177 218.864 200.311C215.526 196.54 210.553 195.684 206.936 195.684C195.42 195.684 191.138 203.869 190.686 212.408H198.272Z" fill="#3BEA1F"/>
<path d="M215.556 214.374C215.383 218.928 214.306 221.288 213.282 222.84C211.919 224.966 209.898 226.003 206.939 226.003C203.554 226.003 201.819 224.678 200.788 223.261C198.907 220.787 198.335 217.457 198.268 214.367H190.648C190.695 217.557 191.273 222.906 194.824 226.711C197.929 229.968 202.384 231.386 206.846 231.386C209.665 231.386 215.164 230.77 218.927 226.524C221.474 223.662 222.936 218.968 223.149 214.374H215.556Z" fill="#3BEA1F"/>
<path d="M247.278 203.93H239.951V230.544H247.278V203.93Z" fill="#3BEA1F"/>
<path d="M257.372 196.393H229.852V201.963H257.372V196.393Z" fill="#3BEA1F"/>
</svg>
