<svg width="450" height="450" viewBox="0 0 450 450" fill="none" xmlns="http://www.w3.org/2000/svg">
<rect width="450" height="450" fill="white"/>
<path d="M215.247 195.681C206.1 195.681 199.03 198.203 194.037 203.248C189.043 208.292 186.547 215.508 186.547 224.895C186.547 231.948 187.973 237.742 190.812 242.239C193.182 246.318 196.704 249.608 200.936 251.694C205.728 253.654 210.883 254.57 216.057 254.379C220.352 254.524 224.63 253.776 228.621 252.182C231.883 250.73 234.725 248.476 236.882 245.63C239.104 242.74 242.522 237.023 242.522 231.614L226.103 231.383C225.707 234.02 224.504 236.47 222.66 238.397C220.468 240.33 217.612 241.339 214.693 241.212C211.773 241.085 209.016 239.832 206.999 237.716C205.081 235.387 204.126 231.074 204.135 224.779C204.135 219.709 204.931 215.983 206.524 213.602C208.021 211.432 210.243 209.865 212.79 209.185C215.338 208.504 218.045 208.754 220.425 209.89C221.857 210.626 223.094 211.692 224.035 212.999C224.797 214.164 225.37 215.443 225.73 216.788L242.522 217.033C242.039 213.636 240.865 210.375 239.073 207.449C237.281 204.524 234.909 201.996 232.103 200.023C228.017 197.137 222.399 195.689 215.247 195.681" fill="#D81E00"/>
<path d="M294.751 196.658H276.958L267.104 232.912L257.675 196.658H239.342L257.43 253.429H276.444L294.751 196.658Z" fill="#D81E00"/>
<path d="M317.715 195.681C311.805 195.681 307.15 196.426 303.75 197.916C300.358 199.393 297.108 201.321 295.425 203.916C293.767 206.353 292.873 209.229 292.856 212.176C292.775 214.338 293.14 216.494 293.927 218.509C294.713 220.525 295.905 222.357 297.429 223.893C301.283 227.567 306.795 229.314 314.49 231.036C319.179 232.076 322.674 232.321 323.958 233.438C325.243 234.556 325.038 236.008 324.973 237.472C324.845 240.568 320.593 241.635 318.087 241.66H317.946C312.126 241.66 309.827 237.806 309.467 235.121H292.342C292.83 240.851 294.025 245.116 297.75 248.829C301.476 252.542 308.144 254.405 317.805 254.405C322.499 254.561 327.175 253.743 331.538 252.002C334.98 250.557 337.917 248.126 339.979 245.013C341.964 242.035 343.015 238.533 342.998 234.954C343.035 231.994 342.253 229.082 340.737 226.539C339.221 224.047 336.664 222.557 333.35 220.874C330.035 219.191 324.357 217.829 316.648 216.172C313.552 215.529 310.43 214.566 310.546 211.161C310.546 209.093 313.899 207.217 315.942 207.217C319.603 207.217 324.177 209.132 324.177 213.076L340.981 213.011C340.261 207.127 338.129 202.425 334.313 199.728C330.498 197.03 324.986 195.681 317.728 195.681" fill="#D81E00"/>
<path d="M178.723 210.172L163.923 195.707C163.445 195.252 162.81 194.999 162.15 195H157.127C156.784 195.001 156.445 195.071 156.129 195.206C155.814 195.341 155.529 195.537 155.29 195.784L144.64 207.025L143.831 207.089L143.021 207.025L132.409 195.784C132.171 195.537 131.886 195.341 131.57 195.206C131.255 195.071 130.915 195.001 130.572 195H125.511C124.851 194.999 124.216 195.252 123.738 195.707L108.938 210.172C108.64 210.461 108.404 210.806 108.243 211.188C108.081 211.57 107.999 211.98 108 212.395V217.765C108.002 218.599 108.334 219.399 108.925 219.988L143.831 254.379L178.736 219.988C179.327 219.399 179.659 218.599 179.661 217.765V212.395C179.662 211.98 179.58 211.57 179.419 211.188C179.257 210.806 179.021 210.461 178.723 210.172V210.172Z" fill="#D81E00"/>
</svg>
