<svg width="450" height="450" viewBox="0 0 450 450" fill="none" xmlns="http://www.w3.org/2000/svg">
<rect width="450" height="450" fill="white"/>
<path d="M280.519 181H259.871L257.205 193.123H277.893L280.519 181Z" fill="#BA122B"/>
<path d="M309.992 210.651C317.747 210.651 321.39 213.25 321.86 217.868H342.971C343.676 202.774 331.299 197.341 312.577 197.341C293.188 197.341 278.539 204.248 272.39 218.217L276.424 199.437H256.057L252.296 216.898C251.396 204.791 242.113 198.117 227.111 198.117C218.847 198.117 211.013 201.066 205.569 206.305H205.373L206.822 199.475H187.042L179.208 236.338H133.969L136.123 224.775H176.466L179.482 210.689H139.139L141.332 199.359H187.12L190.254 184.73H121.631L108 250.966H176.036L172.04 269.592H192.408L197.422 246.31H197.617C200.242 250.113 206.548 253.062 215.556 253.062C230.989 253.062 242.896 245.185 248.615 234.281L245.05 250.966H265.418L269.374 232.419C269.491 246.465 280.772 253.062 300.669 253.062C323.113 253.062 334.942 244.991 341.248 230.75H319.744C316.885 236.765 311.245 239.752 303.92 239.752C294.128 239.752 289.702 234.514 291.7 225.202C293.619 215.889 300.513 210.651 309.992 210.651V210.651ZM230.793 225.318C228.952 233.893 222.881 238.433 213.598 238.433C204.08 238.433 200.202 233.311 201.926 225.318C203.649 217.325 209.72 212.203 219.238 212.203C228.521 212.203 232.634 216.743 230.793 225.318Z" fill="#BA122B"/>
</svg>
