<svg width="450" height="450" viewBox="0 0 450 450" fill="none" xmlns="http://www.w3.org/2000/svg">
<rect width="450" height="450" fill="white"/>
<path d="M166.558 207H150.99V208.379H166.558V207Z" fill="black"/>
<path d="M119.201 216.01L119.604 216.994L117.941 217.788C117.236 215.916 115.372 213.945 113.301 213.65C111.033 213.257 108.868 213.896 107.457 215.67C106.5 216.95 106.399 219.071 107.256 220.397C111.236 225.814 121.614 226.651 120.505 235.171C120.157 237.977 117.483 240.588 114.762 241.424C111.639 242.558 107.558 242.211 104.937 240.193C103.577 239.107 102.548 237.675 101.965 236.055C102.619 235.859 103.276 235.662 103.929 235.514C104.634 237.337 106.399 239.406 108.464 239.848C111.386 240.586 114.459 239.947 116.323 237.633C117.33 236.253 117.33 234.136 116.576 232.609C113.35 227.241 106.096 227.193 103.375 221.384C102.979 220.114 102.947 218.762 103.285 217.476C103.623 216.19 104.317 215.02 105.291 214.095C107.809 211.827 111.689 211.14 114.965 212.271C116.677 212.865 118.339 214.391 119.197 216.013L119.201 216.01Z" fill="black"/>
<path d="M95.1645 214.334H83.8805L83.8294 224.922L93.7539 224.972V226.794H83.8805V239.598H95.1645V241.47H80V212.463H95.1645V214.334Z" fill="black"/>
<path d="M145.358 214.334H136.944V241.47H133.015V214.384L124.65 214.334V212.463H145.358V214.334Z" fill="black"/>
<path d="M167.219 214.334H155.934L155.883 224.922L165.708 224.972V226.794H155.934V239.598H167.219V241.47H151.902V212.463H167.219V214.334Z" fill="black"/>
<path d="M191.712 214.334H180.426V224.922L190.199 224.972V226.794H180.426V239.598H191.61V241.47H176.445V212.463H191.712V214.334Z" fill="black"/>
<path d="M217.033 239.548L228.267 239.598V241.47H213.104V212.463H217.033V239.548Z" fill="black"/>
<path d="M268.483 233.001C268.831 235.563 269.991 238.026 272.412 239.453C274.781 240.832 278.561 240.686 280.776 239.113C284.455 236.602 284.806 232.514 284.555 228.278V212.471H286.719L286.668 233.108C286.368 236.801 283.494 240.496 279.817 241.577C275.641 242.909 270.497 242.371 267.474 239.067C265.408 236.9 264.601 234.241 264.553 231.236V212.467H268.431L268.481 233.001H268.483Z" fill="black"/>
<path d="M342.639 214.334H331.389V224.922L341.127 224.972V226.794H331.389V239.598H342.639V241.47H327.422V212.463H342.639V214.334Z" fill="black"/>
<path d="M311.002 213.599C306.719 211.671 301.178 212.761 296.24 212.465V241.471C301.479 241.225 307.274 242.258 311.607 239.895C316.646 237.433 319.618 232.311 319.618 226.943C319.82 221.232 316.444 215.667 311.002 213.599ZM311.658 236.793C308.684 239.797 304.401 239.7 300.12 239.6V214.333C305.762 213.939 311.556 214.876 313.974 220.144C316.191 225.369 315.839 232.559 311.656 236.793H311.658Z" fill="black"/>
<path d="M363.052 226.995L363.001 226.748C364.965 226.254 366.93 225.22 368.139 223.346C369.45 221.129 369.349 217.731 367.686 215.662C363.908 211.254 357.409 212.658 351.715 212.461V241.467H355.557V227.486H359.269L359.42 227.584L366.121 241.473L370 241.423L363.052 226.995ZM355.557 225.861V214.338C359.186 214.338 363.202 214.091 364.965 217.488C365.777 219.064 365.722 221.281 364.865 222.759C362.95 226.012 359.186 226.012 355.557 225.861Z" fill="black"/>
<path d="M246.657 212.467H245.096L231.639 241.423L234.207 241.373L240.007 228.718H249.379L249.528 228.816C251.344 233.001 253.057 237.238 254.921 241.373H259.606L246.657 212.467ZM240.813 226.748L244.793 218.18L248.571 226.748H240.813Z" fill="black"/>
</svg>
