<svg width="450" height="450" viewBox="0 0 450 450" fill="none" xmlns="http://www.w3.org/2000/svg">
<rect width="450" height="450" fill="white"/>
<path d="M317.998 194.29H287.191L289.106 189H317.998V194.29Z" fill="#4C83C3"/>
<path d="M235.9 189H264.497L266.47 194.29H235.92L235.9 189Z" fill="#4C83C3"/>
<path d="M213.206 189C217.781 189.348 222.109 191.21 225.501 194.29H173.676V189H213.206Z" fill="#4C83C3"/>
<path d="M168.997 189H133V194.29H168.997V189Z" fill="#4C83C3"/>
<path d="M318 204.222H283.68C283.68 204.222 285.555 198.951 285.535 198.951H318V204.222Z" fill="#4C83C3"/>
<path d="M269.904 204.222H235.9V198.951H268.049L269.904 204.222Z" fill="#4C83C3"/>
<path d="M229.545 198.951C230.387 200.592 230.89 202.384 231.025 204.222H173.693V198.951H229.545Z" fill="#4C83C3"/>
<path d="M168.997 198.951H133V204.222H168.997V198.951Z" fill="#4C83C3"/>
<path d="M280.166 214.173L282.041 208.883H307.815V214.153L280.166 214.173Z" fill="#4C83C3"/>
<path d="M271.561 208.883L273.436 214.173H246.043V208.883H271.561Z" fill="#4C83C3"/>
<path d="M231.48 208.883C231.508 210.674 231.255 212.459 230.73 214.173H214.941V208.883H231.48Z" fill="#4C83C3"/>
<path d="M158.517 208.902H143.045V214.172H158.517V208.902Z" fill="#4C83C3"/>
<path d="M199.547 208.883H184.094V214.173H199.547V208.883Z" fill="#4C83C3"/>
<path d="M261.359 219.876V223.81H246.143V218.559H275.134L276.949 223.456L278.686 218.559H307.914V223.81H292.758V219.876L291.356 223.81H262.661L261.359 219.876Z" fill="#4C83C3"/>
<path d="M184.094 218.637H228.439C227.296 220.638 225.806 222.423 224.038 223.907H184.094V218.637Z" fill="#4C83C3"/>
<path d="M158.517 218.637H143.045V223.907H158.517V218.637Z" fill="#4C83C3"/>
<path d="M307.795 228.569H292.658V233.839H307.795V228.569Z" fill="#4C83C3"/>
<path d="M261.359 228.55H246.143V233.82H261.359V228.55Z" fill="#4C83C3"/>
<path d="M289.602 228.55C289.602 228.55 287.846 233.82 287.767 233.82H266.196L264.223 228.55H289.602Z" fill="#4C83C3"/>
<path d="M184.094 228.55H223.979C225.791 230.083 227.385 231.857 228.715 233.82H184.094V228.55Z" fill="#4C83C3"/>
<path d="M158.517 233.82V228.55H143.064V233.82H158.517Z" fill="#4C83C3"/>
<path d="M307.795 238.481H292.658V243.752H307.795V238.481Z" fill="#4C83C3"/>
<path d="M261.259 238.481H246.043V243.752H261.259V238.481Z" fill="#4C83C3"/>
<path d="M284.216 243.771C284.216 243.771 286.091 238.481 286.19 238.481H267.836L269.809 243.752C269.809 243.752 284.216 243.791 284.216 243.771Z" fill="#4C83C3"/>
<path d="M184.094 243.752V238.481H199.783V243.752H184.094Z" fill="#4C83C3"/>
<path d="M230.923 238.481C231.555 240.175 231.889 241.964 231.91 243.771H215.293V238.481H230.923Z" fill="#4C83C3"/>
<path d="M158.517 238.481H143.064V243.752H158.517V238.481Z" fill="#4C83C3"/>
<path d="M317.979 248.216H292.658V253.486H317.979V248.216Z" fill="#4C83C3"/>
<path d="M261.26 248.216H235.9V253.486H261.26V248.216Z" fill="#4C83C3"/>
<path d="M280.814 253.467H273.078L271.223 248.216H282.59L280.814 253.467Z" fill="#4C83C3"/>
<path d="M133.078 248.196V253.466H169.056V248.215L133.078 248.196Z" fill="#4C83C3"/>
<path d="M231.264 248.196C231.058 250.09 230.38 251.902 229.29 253.466H173.676V248.196H231.264Z" fill="#4C83C3"/>
<path d="M277.305 263.419H276.595L274.779 258.148H279.161L277.305 263.419Z" fill="#4C83C3"/>
<path d="M317.979 258.148H292.658V263.438H317.979V258.148Z" fill="#4C83C3"/>
<path d="M173.676 263.419V258.148H225.836C222.197 261.539 217.399 263.424 212.416 263.419H173.676Z" fill="#4C83C3"/>
<path d="M261.26 258.148H235.9V263.438H261.26V258.148Z" fill="#4C83C3"/>
<path d="M168.977 258.148V263.419H133.078V258.148C133.078 258.148 168.957 258.168 168.977 258.148Z" fill="#4C83C3"/>
</svg>
