<svg width="450" height="450" viewBox="0 0 450 450" fill="none" xmlns="http://www.w3.org/2000/svg">
<rect width="450" height="450" fill="white"/>
<path d="M208.25 223.247V215.099H201.377C201.377 212.132 201.377 209.187 201.377 206.22H192.256V215.099H188.482V223.27H192.256C192.256 225.758 192.256 228.246 192.256 230.734V231.807C192.256 233.267 192.256 234.705 192.256 236.166C192.2 238.15 192.597 240.12 193.415 241.921C194.234 243.723 195.452 245.308 196.974 246.551C199.899 248.402 203.332 249.25 206.768 248.971C204.127 245.909 202.35 242.179 201.624 238.175V237.969C201.492 236.879 201.432 235.781 201.444 234.683V233.861V231.738C201.444 228.908 201.444 226.1 201.444 223.27H208.318" fill="#164473"/>
<path d="M187.438 209.228C187.438 206.587 187.438 203.967 187.438 201.348C182.957 200.599 177.782 200.885 174.198 203.945C170.994 206.785 170.367 211.297 170.479 215.347H166.559V223.206H170.501V227.608V246.934H179.709V223.206H185.87C185.87 220.586 185.87 217.945 185.87 215.325H179.664C179.664 213.564 179.552 211.429 181.031 210.13C182.509 208.832 185.287 209.14 187.438 209.228" fill="#164473"/>
<path d="M153.749 240.56C151.45 241.275 148.437 242.058 146.253 240.426C145.79 240.075 145.423 239.618 145.184 239.097C144.945 238.576 144.842 238.005 144.883 237.436C144.923 236.867 145.107 236.316 145.418 235.832C145.73 235.348 146.158 234.946 146.666 234.66C148.949 233.749 151.488 233.647 153.841 234.369C154.082 236.426 154.082 238.503 153.841 240.56H153.749ZM154.232 247.466H163.43C163.43 240.627 163.43 233.766 163.43 226.905C163.43 222.882 161.798 218.435 157.842 216.535C152.231 213.808 145.632 214.434 139.63 215.373C139.63 218.278 139.63 221.183 139.63 224.111C143.49 222.911 147.624 222.81 151.541 223.821C152.332 224.2 153.002 224.781 153.48 225.501C153.958 226.221 154.226 227.054 154.255 227.911C151.6 227.334 148.864 227.191 146.161 227.486C144.54 227.631 142.971 228.116 141.562 228.907C140.153 229.698 138.937 230.776 137.997 232.068C136.561 234.232 136.001 236.838 136.426 239.38C136.85 241.923 138.229 244.223 140.297 245.835C142.362 247.23 144.818 247.979 147.333 247.979C149.849 247.979 152.304 247.23 154.37 245.835C154.37 246.259 154.37 247.086 154.37 247.511" fill="#164473"/>
<path d="M106.541 204.132H117.495C112.14 211.255 106.898 218.488 101.521 225.611C106.318 232.711 111.047 239.856 115.866 246.935H104.511C100.272 240.584 96.0477 234.226 91.8386 227.86V246.935H82V204.154H91.794C91.794 210.902 91.794 217.628 91.794 224.376C96.6798 217.628 101.61 210.902 106.496 204.154" fill="#164473"/>
<path d="M118.537 215.66H127.884C127.884 217.674 127.884 219.667 127.884 221.66C128.658 220.054 129.831 218.66 131.298 217.605C132.765 216.55 134.478 215.866 136.284 215.616C136.284 218.594 136.284 221.573 136.284 224.53C132.321 224.989 128.244 227.88 128.109 232.042C127.996 237.013 128.109 241.985 128.109 246.935H118.672C118.672 236.51 118.672 226.092 118.672 215.681" fill="#164473"/>
<path d="M280.757 219.631C282.307 220.161 278.511 228.157 278.511 228.157C277.178 228.704 275.78 229.068 274.354 229.239C274.871 228.157 277.724 218.019 280.847 219.631H280.757ZM283.7 240.967C282.397 241.497 282.15 241.774 280.577 242.304C278.978 242.834 277.257 242.834 275.657 242.304C270.714 240.161 273.837 232.442 273.837 232.442C294.058 227.373 291.227 216.152 285.767 215.622C281.139 215.507 276.593 216.89 272.774 219.574C268.955 222.258 266.057 226.107 264.491 230.576C263.705 232.696 258.268 247.903 270.467 249.008C273.234 249.12 275.988 248.568 278.511 247.396C280.753 246.156 282.701 244.426 284.217 242.327C285.52 240.023 283.7 240.99 283.7 240.99" fill="#E93935"/>
<path d="M330.532 243.42C330.281 243.155 329.732 243.155 329.48 242.911C327.901 241.872 329.206 239.063 329.48 237.514L334.239 221.124C334.513 220.084 336.343 214.709 328.954 215.748C324.973 216.462 321.243 218.136 318.11 220.615C318.636 219.066 319.162 216.766 318.11 216.191C317.057 215.616 309.119 217.983 307.266 219.509C307.086 219.523 306.915 219.588 306.774 219.696C306.633 219.804 306.528 219.949 306.472 220.114C306.416 220.28 306.411 220.457 306.459 220.625C306.506 220.792 306.604 220.943 306.739 221.057C307.169 221.545 307.446 222.141 307.54 222.775C307.633 223.41 307.538 224.056 307.266 224.641C306.213 227.715 303.033 238.488 302.255 240.523C301.478 242.558 300.402 246.429 302.255 247.711C303.582 248.729 309.119 246.428 309.919 245.92C310.597 245.684 311.225 245.332 311.773 244.88C312.825 243.863 311.246 243.354 312.825 237.957C312.825 237.713 314.678 232.338 316.005 227.715C316.422 226.32 317.196 225.05 318.256 224.021C319.315 222.993 320.627 222.24 322.068 221.831C324.195 221.566 323.669 223.358 323.395 224.641C321.541 230.281 319.437 238.731 318.636 240.788C317.835 242.845 316.531 246.937 318.636 247.711C320.489 248.972 328.954 245.389 329.732 244.88C331.333 243.863 331.333 243.354 330.532 243.354" fill="#E93935"/>
<path d="M298.748 243.278C298.228 243.009 297.979 243.009 297.708 242.762C296.148 241.709 297.188 238.863 297.708 237.295L302.681 220.69C302.93 218.875 303.993 216.544 302.681 215.76C301.37 214.976 293.638 217.575 291.694 219.121C291.543 219.18 291.41 219.276 291.308 219.401C291.207 219.526 291.14 219.676 291.115 219.835C291.09 219.993 291.107 220.156 291.165 220.306C291.223 220.456 291.32 220.588 291.445 220.69C292.214 221.721 292.214 222.505 291.694 224.32C290.925 227.435 287.172 238.594 286.472 240.678C285.771 242.762 284.641 246.908 286.992 247.692C288.823 248.969 296.668 245.608 297.708 244.824C299.539 244.04 299.539 243.278 298.748 243.278" fill="#E93935"/>
<path d="M297.607 212.217C298.103 213.2 302.592 211.233 304.836 210.078C305.452 209.613 305.959 209.023 306.325 208.346C306.843 206.614 307.081 205.866 307.339 204.626C307.42 204.498 307.471 204.355 307.489 204.206C307.507 204.056 307.492 203.905 307.445 203.762C307.397 203.62 307.319 203.489 307.215 203.379C307.111 203.27 306.984 203.184 306.843 203.129C305.829 202.894 299.851 203.642 298.362 206.101C297.866 207.106 296.204 211.81 297.607 212.302" fill="#E93935"/>
<path d="M366.878 230.415C366.078 227.634 361.325 226.895 359.497 228.394C359.027 228.859 358.666 229.413 358.437 230.019C358.209 230.626 358.118 231.272 358.171 231.915C362.742 230.676 363.45 234.435 362.742 235.957C361.165 238.13 360.639 238.977 358.514 238.977H344.528C344.254 238.716 344.003 238.477 344.528 237.978C345.305 236.956 359.04 219.094 359.588 218.42C360.137 217.746 360.639 216.66 358.788 216.66H343.477C342.758 216.655 342.048 216.813 341.404 217.118C340.761 217.424 340.203 217.87 339.775 218.42C338.384 220.795 337.316 223.329 336.598 225.96C336.598 225.96 336.598 226.982 338.175 225.721C338.449 225.461 338.975 224.461 339.775 224.461H348.916C351.818 224.461 336.507 238.304 331.753 245.605C330.954 246.865 332.279 246.865 333.079 246.865H353.144C358.171 246.865 357.371 247.626 360 244.106C360 244.106 368.181 234.023 366.855 230.502" fill="#E93935"/>
<path d="M258.547 239.118L263.967 217.863C267.596 204.992 269.679 204.471 270.955 203.156H262.422C259.309 203.156 256.98 207.688 256.464 210.498L252.836 223.89H245.087C245.087 223.89 249.745 206.827 250.26 204.992C250.507 204.199 250.507 203.156 248.961 203.156C248.715 203.156 232.41 202.635 227.214 204.471C225.732 204.929 224.365 205.704 223.206 206.744C222.046 207.784 221.122 209.064 220.495 210.498C219.711 212.334 218.681 215.755 221.01 222.055C221.229 222.65 221.581 223.186 222.04 223.619C224.471 223.745 226.908 223.57 229.297 223.097C229.812 223.097 230.058 222.848 229.543 221.783C228.517 219.892 227.763 217.862 227.304 215.755C226.273 206.578 232.746 205.264 233.776 204.992C235.257 204.712 236.775 204.712 238.256 204.992C238.771 204.992 240.07 205.264 240.316 205.785C240.831 206.827 240.07 208.663 239.555 210.77C239.017 212.334 234.627 228.604 233.328 233.068C232.567 236.49 229.185 243.831 225.825 244.897C224.893 245.146 223.913 245.146 222.981 244.897C221.969 244.616 221.009 244.172 220.137 243.582C217.994 240.886 216.727 237.586 216.508 234.133C216.262 230.19 217.023 227.335 216.262 227.335C213.519 227.88 210.904 228.949 208.557 230.485V230.485C207.818 231.028 207.773 231.142 207.773 231.142L207.662 231.255C207.224 233.065 207.156 234.946 207.46 236.784C208.101 240.905 210.213 244.646 213.395 247.299C221.682 253.077 236.173 242.563 237.741 241.52C239.865 239.63 241.417 237.172 242.22 234.427C243.004 231.799 244.303 227.335 244.303 227.335H252.052C252.052 227.335 248.961 239.163 248.178 242.041C247.394 244.421 246.879 248.341 248.961 248.092C256.711 248.092 259.824 245.191 260.16 244.942C260.291 244.796 260.363 244.606 260.363 244.409C260.363 244.212 260.291 244.023 260.16 243.877C259.441 243.362 258.921 242.611 258.688 241.751C258.455 240.892 258.524 239.977 258.883 239.163" fill="#E93935"/>
</svg>
