<svg width="450" height="450" viewBox="0 0 450 450" fill="none" xmlns="http://www.w3.org/2000/svg">
<rect width="450" height="450" fill="white"/>
<path d="M248.573 173.573C260.406 173.573 269.999 223.46 269.999 284.998H287.144C287.144 218.725 269.873 165 248.574 165C236.454 165 225.643 181.146 218.574 206.395C211.505 181.146 200.69 165 188.572 165C167.273 165 150 218.725 150 285.003H167.147C167.147 223.463 176.741 173.577 188.572 173.577C200.402 173.577 210.003 219.628 210.003 276.436H227.144C227.144 219.628 236.738 173.577 248.573 173.577V173.573ZM295.725 276.436C298.051 276.436 300 278.278 300 280.7C300 283.16 298.051 285.004 295.725 285.004C293.399 285.004 291.426 283.16 291.426 280.7C291.426 278.278 293.392 276.436 295.725 276.436ZM295.725 284.378C297.695 284.378 299.224 282.796 299.224 280.702C299.224 278.645 297.694 277.064 295.725 277.064C293.731 277.064 292.204 278.645 292.204 280.702C292.203 282.791 293.731 284.374 295.725 284.374V284.378ZM294.06 278.208H295.991C297.173 278.208 297.731 278.678 297.731 279.638C297.731 280.543 297.167 280.921 296.426 281L297.848 283.214H297.014L295.659 281.06H294.84V283.214H294.06V278.208ZM294.84 280.432H295.65C296.332 280.432 296.96 280.398 296.96 279.605C296.96 278.939 296.39 278.834 295.867 278.834H294.84V280.432V280.432Z" fill="#FFC300"/>
</svg>
