<svg width="450" height="450" viewBox="0 0 450 450" fill="none" xmlns="http://www.w3.org/2000/svg">
<rect width="450" height="450" fill="white"/>
<path d="M310.94 175.305C310.94 175.305 305.929 171.421 289.673 165.447C281.551 162.382 273.116 160.22 264.521 159L264.578 190.117C264.578 203.272 249.717 217.236 224.329 217.236H223.603C198.223 217.236 183.362 203.272 183.362 190.117L183.411 159C174.819 160.221 166.387 162.383 158.267 165.447C142.019 171.421 137 175.305 137 175.305C138.208 200.261 176.988 220.826 223.962 220.835C270.952 220.835 309.732 200.261 310.932 175.305" fill="black"/>
<path d="M310.969 245.187C310.969 245.187 305.95 249.055 289.702 255.029C281.58 258.092 273.145 260.254 264.55 261.476L264.608 230.367C264.608 217.212 249.747 203.257 224.358 203.257H223.999H223.648C198.26 203.257 183.399 217.212 183.399 230.367L183.456 261.476C174.861 260.255 166.427 258.093 158.305 255.029C142.056 249.055 137.029 245.187 137.029 245.187C138.237 220.231 177.017 199.666 224.007 199.649C270.997 199.649 309.778 220.231 310.977 245.187" fill="black"/>
<path d="M145.473 290.202C141.507 290.202 141.441 287.191 141.441 286.024V280.532C141.441 280.197 141.441 279.756 142.119 279.756H144.159C144.836 279.756 144.796 280.213 144.796 280.532V286.024C144.796 286.424 144.861 287.468 146.305 287.468H149.716C149.915 287.495 150.117 287.477 150.307 287.414C150.498 287.352 150.672 287.248 150.816 287.109C150.96 286.97 151.072 286.8 151.141 286.612C151.211 286.424 151.237 286.223 151.218 286.024V280.532C151.218 280.213 151.169 279.756 151.838 279.756H153.903C154.646 279.756 154.58 280.213 154.58 280.532V286.024C154.58 287.191 154.507 290.202 150.541 290.202" fill="black"/>
<path d="M164.447 289.532C163.044 287.655 161.052 285.288 159.012 282.775V289.467C159.012 289.76 159.086 290.201 158.384 290.201H156.482C155.789 290.201 155.87 289.76 155.87 289.467V280.49C155.87 280.18 155.87 279.723 156.482 279.723H160.204C161.256 279.723 162.758 281.828 163.737 283.24C164.496 284.293 165.9 285.9 166.838 287.108V280.49C166.838 280.18 166.838 279.723 167.491 279.723H169.564C170.225 279.723 170.184 280.18 170.184 280.49V290.169H166.365C166.015 290.233 165.654 290.204 165.318 290.087C164.982 289.97 164.682 289.767 164.447 289.499" fill="black"/>
<path d="M171.451 290.201V279.763H180.681C181.244 279.763 185.031 279.69 185.031 283.664C185.031 287.638 185.463 290.193 180.755 290.193H175.785L174.716 288.014V290.193L171.451 290.201ZM180.191 287.443C181.824 287.443 181.742 285.81 181.742 285.1C181.742 282.652 181.048 282.538 179.938 282.538H174.675V287.434L180.191 287.443Z" fill="black"/>
<path d="M188.636 279.83H197.14C197.858 279.83 197.768 280.303 197.768 281.168C197.768 282.033 197.874 282.449 197.14 282.449H190.423C190.244 282.449 189.607 282.359 189.607 282.988C189.607 283.616 189.485 283.877 190.162 283.877H196.103L197.058 285.779C197.197 286.048 197.181 286.277 196.658 286.277H190.521L189.575 284.416V287.158C189.575 287.795 190.138 287.672 190.301 287.672H197.287C197.98 287.672 197.915 288.162 197.915 288.953C197.915 289.745 197.98 290.267 197.287 290.267H188.457C187.722 290.267 186.286 290.039 186.286 287.737V282.025C186.278 281.723 186.335 281.423 186.453 281.144C186.571 280.866 186.748 280.617 186.971 280.413C187.193 280.208 187.457 280.054 187.745 279.961C188.032 279.867 188.336 279.836 188.636 279.87" fill="black"/>
<path d="M200.058 279.763H209.361C210.602 279.763 212.421 279.763 212.421 283.118C212.421 285.321 211.956 285.427 210.952 286.113C212.634 286.398 212.405 288.561 212.405 289.654C212.405 290.217 212.201 290.201 212.038 290.201H209.288C208.716 290.201 208.855 289.303 208.855 288.83C208.855 287.549 208.137 287.606 207.859 287.606H203.844C203.461 286.937 202.71 285.435 202.71 285.435V289.777L202.196 290.201H199.495L199.217 289.858V280.661C199.205 280.543 199.219 280.424 199.258 280.312C199.296 280.199 199.359 280.097 199.441 280.012C199.524 279.926 199.624 279.86 199.734 279.817C199.845 279.774 199.964 279.756 200.082 279.763H200.058ZM207.492 282.522H203.347C202.653 282.522 202.686 282.758 202.686 282.963V284.831H206.954C209.018 284.831 209.018 284.317 209.018 283.779C209.018 282.701 208.929 282.522 207.492 282.522Z" fill="black"/>
<path d="M228.442 279.83C229.119 279.83 229.788 280.14 230.506 281.535C230.988 282.539 234.366 288.643 235.084 289.916V290.267H231.559L230.547 288.431H226.263L225.34 286.334C225.079 286.758 223.667 289.443 223.178 290.267H219.652V290.039C220.37 288.684 225.283 279.83 225.283 279.83H228.442ZM227.34 282.727L225.61 285.885L225.773 286.04H228.972L229.135 285.885L227.503 282.735H227.34" fill="black"/>
<path d="M237.312 279.763H246.624C247.864 279.763 249.684 279.763 249.684 283.117C249.684 285.321 249.219 285.427 248.215 286.112C249.905 286.398 249.668 288.561 249.668 289.654C249.668 290.217 249.464 290.201 249.301 290.201H246.567C245.996 290.201 246.143 289.303 246.143 288.83C246.143 287.549 245.424 287.606 245.147 287.606H241.115C240.732 286.937 239.981 285.435 239.981 285.435V289.777L239.475 290.201H236.725L236.447 289.858V280.661C236.436 280.547 236.449 280.432 236.484 280.323C236.52 280.215 236.579 280.115 236.656 280.03C236.733 279.946 236.826 279.878 236.931 279.832C237.036 279.786 237.149 279.763 237.264 279.763H237.312ZM244.682 282.522H240.536C239.842 282.522 239.875 282.758 239.875 282.962V284.831H244.143C246.2 284.831 246.2 284.317 246.2 283.778C246.2 282.701 246.126 282.522 244.682 282.522Z" fill="black"/>
<path d="M257.812 290.202C257.119 288.904 255.193 285.305 253.895 282.963V289.492C253.895 289.769 253.944 290.218 253.267 290.218H251.39C250.688 290.218 250.737 289.769 250.737 289.492V280.515C250.737 280.196 250.696 279.747 251.39 279.747H254.654C255.136 279.747 255.829 279.633 256.605 281.184C257.184 282.432 258.416 285.019 259.273 286.382C260.13 285.019 261.395 282.432 261.983 281.184C262.742 279.633 263.411 279.747 263.966 279.747H267.23C267.891 279.747 267.818 280.196 267.818 280.515V289.492C267.818 289.769 267.916 290.218 267.23 290.218H265.329C264.635 290.218 264.692 289.769 264.692 289.492V282.963C263.37 285.321 261.428 288.904 260.742 290.202" fill="black"/>
<path d="M271.968 290.226C268.883 290.226 269.014 286.962 269.014 284.766C269.014 282.808 268.802 279.739 272.662 279.707H279.525C283.401 279.707 283.148 282.824 283.148 284.766C283.148 286.929 283.295 290.226 280.161 290.226H271.968ZM278.17 287.516C279.737 287.516 279.68 285.884 279.68 284.823C279.68 283.762 279.909 282.326 277.876 282.326H274.416C272.392 282.326 272.637 283.844 272.637 284.823C272.637 285.803 272.539 287.516 274.098 287.516H278.17Z" fill="black"/>
<path d="M288.305 290.202C284.355 290.202 284.273 287.191 284.273 286.024V280.532C284.273 280.197 284.273 279.756 284.959 279.756H287.007C287.677 279.756 287.636 280.213 287.636 280.532V286.024C287.613 286.224 287.637 286.427 287.706 286.616C287.774 286.805 287.886 286.976 288.031 287.116C288.176 287.256 288.351 287.36 288.543 287.421C288.735 287.482 288.938 287.498 289.137 287.468H292.573C292.771 287.497 292.974 287.48 293.165 287.418C293.356 287.356 293.53 287.252 293.674 287.112C293.818 286.973 293.928 286.802 293.996 286.614C294.064 286.425 294.088 286.223 294.066 286.024V280.532C294.066 280.213 294.066 279.756 294.695 279.756H296.751C297.502 279.756 297.437 280.213 297.437 280.532V286.024C297.437 287.191 297.372 290.202 293.356 290.202" fill="black"/>
<path d="M299.628 279.764H308.94C310.18 279.764 312 279.764 312 283.118C312 285.321 311.527 285.428 310.523 286.113C312.204 286.399 311.984 288.561 311.984 289.655C311.984 290.218 311.78 290.202 311.617 290.202H308.85C308.287 290.202 308.426 289.304 308.426 288.831C308.426 287.549 307.699 287.606 307.422 287.606H303.407C303.023 286.937 302.272 285.436 302.272 285.436V289.777L301.758 290.202H299.057L298.78 289.859V280.662C298.768 280.544 298.781 280.426 298.819 280.314C298.858 280.203 298.92 280.101 299.001 280.015C299.083 279.93 299.182 279.863 299.291 279.82C299.401 279.777 299.519 279.757 299.636 279.764H299.628ZM307.047 282.522H302.909C302.215 282.522 302.248 282.759 302.248 282.963V284.832H306.516C308.573 284.832 308.573 284.318 308.573 283.779C308.573 282.702 308.483 282.522 307.047 282.522Z" fill="black"/>
</svg>
