<svg width="450" height="450" viewBox="0 0 450 450" fill="none" xmlns="http://www.w3.org/2000/svg">
<rect width="450" height="450" fill="white"/>
<path fill-rule="evenodd" clip-rule="evenodd" d="M227.687 213.979V215.623C227.687 220.372 227.687 225.122 227.687 229.871C227.778 234.825 230.473 238.091 235.256 239.312C237.091 239.818 239.02 239.885 240.886 239.508C242.752 239.131 244.504 238.321 245.999 237.143L247.369 236.138V239.643H261.126C260.378 239.283 259.751 238.713 259.32 238.005C258.888 237.296 258.671 236.477 258.694 235.647C258.637 235.008 258.603 234.369 258.603 233.741C258.603 225.841 258.603 217.941 258.603 210.04C258.603 209.515 258.546 208.99 258.523 208.385L244.823 208.956C246.969 209.972 247.255 211.799 247.278 213.671C247.338 218.146 247.338 222.621 247.278 227.097C247.255 228.19 247.059 229.273 246.695 230.305C246.471 231.01 246.031 231.628 245.437 232.07C244.843 232.513 244.125 232.758 243.385 232.771C240.713 232.965 239.069 231.321 239.058 228.341C239.058 222.222 239.058 216.103 239.058 209.983V208.431C238.476 208.431 238.03 208.362 237.585 208.362C227.493 208.362 217.401 208.362 207.309 208.362C203.773 208.212 200.269 209.084 197.217 210.874C195.87 211.644 194.722 212.719 193.868 214.014C193.013 215.308 192.474 216.786 192.295 218.327C192.116 219.868 192.302 221.429 192.838 222.885C193.373 224.341 194.244 225.651 195.379 226.708C196.838 227.999 198.387 229.185 200.014 230.259C199.112 230.521 198.05 230.795 197.023 231.138C196.551 231.257 196.143 231.551 195.88 231.96C195.617 232.369 195.52 232.863 195.607 233.341C195.677 235.052 196.403 236.67 197.633 237.86C198.864 239.05 200.505 239.721 202.217 239.735C203.085 239.735 203.964 239.666 204.82 239.735C206.948 239.852 209.062 240.138 211.145 240.591C212.012 240.854 212.765 241.401 213.283 242.145C213.801 242.888 214.053 243.785 213.999 244.689C214.095 245.632 213.875 246.581 213.372 247.385C212.87 248.189 212.114 248.803 211.225 249.13C208.775 250.226 205.996 250.329 203.473 249.416C202.692 249.22 201.976 248.821 201.398 248.26C200.821 247.699 200.402 246.994 200.185 246.219C199.785 244.529 200.539 243.262 202.24 242.36C199.089 241.904 196.223 241.744 193.518 243.08C189.568 245.032 189.088 249.61 192.661 252.213C194.157 253.251 195.795 254.066 197.525 254.633C202.263 256.231 207.16 255.98 212.035 255.558C215.479 255.385 218.811 254.276 221.671 252.35C222.979 251.457 224.036 250.243 224.74 248.824C225.443 247.405 225.769 245.829 225.686 244.247C225.604 242.665 225.115 241.131 224.268 239.793C223.421 238.455 222.243 237.358 220.849 236.606C219.381 235.775 217.763 235.243 216.088 235.042C212.914 234.734 209.706 234.825 206.521 234.723C205.379 234.723 204.032 234.723 203.941 233.296C203.85 231.869 205.288 232.017 206.224 231.88C210.004 231.519 213.677 230.421 217.036 228.649C218.221 228.043 219.257 227.18 220.067 226.123C220.877 225.066 221.441 223.841 221.718 222.539C221.995 221.236 221.977 219.888 221.667 218.593C221.357 217.298 220.761 216.088 219.924 215.052C219.718 214.778 219.536 214.493 219.262 214.105C219.65 214.105 219.867 214.013 220.084 214.013L227.687 213.979Z" fill="white"/>
<path fill-rule="evenodd" clip-rule="evenodd" d="M124.599 216.616C126.996 215.965 129.245 215.246 131.551 214.766C132.511 214.505 133.514 214.447 134.497 214.596C135.48 214.746 136.421 215.099 137.259 215.634C138.903 216.776 138.949 218.637 137.259 219.676C136.181 220.261 135.029 220.699 133.835 220.977C130.821 221.833 127.681 222.381 124.77 223.511C123.292 224.048 122.017 225.031 121.121 226.323C120.225 227.616 119.753 229.154 119.77 230.727C119.633 234.152 121.904 237.063 125.729 238.57C129.154 239.917 132.716 239.711 136.266 239.711C136.398 239.712 136.528 239.685 136.648 239.632C136.768 239.579 136.875 239.501 136.963 239.403C137.705 237.987 138.39 236.538 139.052 235.213C137.596 235.146 136.151 234.936 134.736 234.585C134.09 234.385 133.51 234.014 133.058 233.511C132.606 233.008 132.298 232.391 132.168 231.728C132.038 231.064 132.091 230.377 132.32 229.74C132.549 229.104 132.946 228.541 133.469 228.112C134.988 226.799 136.894 226.434 138.961 226.035V230.179C138.961 235.339 141.552 238.535 146.587 239.506C147.619 239.686 148.667 239.77 149.715 239.757C156.428 239.757 163.141 239.757 169.853 239.757H171.303C169.191 238.615 168.78 236.72 168.769 234.688C168.769 230.03 168.769 225.372 168.769 220.714C168.77 220.259 168.812 219.804 168.894 219.356C168.943 218.785 169.105 218.229 169.37 217.721C169.635 217.213 169.999 216.762 170.44 216.396C170.88 216.029 171.39 215.754 171.938 215.586C172.486 215.418 173.062 215.361 173.632 215.417C175.915 215.588 176.989 216.981 177 219.858C177 224.927 177 229.996 177 235.065V239.631H190.848C189.975 239.212 189.249 238.539 188.766 237.699C188.283 236.86 188.066 235.893 188.142 234.928C188.142 234.471 188.142 234.015 188.142 233.558C188.142 228.489 188.142 223.42 188.142 218.351C188.074 213.111 185.14 209.686 180.048 208.636C178.323 208.267 176.538 208.28 174.818 208.675C173.098 209.069 171.485 209.835 170.093 210.919L168.86 211.821C168.803 210.588 168.757 209.538 168.712 208.396L155.012 208.956C157.295 209.983 157.455 211.992 157.467 213.967C157.467 220.589 157.467 227.21 157.467 233.832C157.467 234.22 157.409 234.62 157.375 234.974C152.706 235.83 150.092 233.683 150.08 229.083C150.08 226.038 150.053 222.994 150 219.95C149.909 214.127 147.34 210.816 141.746 209.207C137.117 208.053 132.271 208.088 127.658 209.309C127.453 209.372 127.263 209.478 127.102 209.62C126.941 209.762 126.811 209.936 126.722 210.131C125.969 212.221 125.306 214.413 124.599 216.616Z" fill="white"/>
<path fill-rule="evenodd" clip-rule="evenodd" d="M297.785 208.944C299.601 209.777 300.069 211.319 300.217 213.008C300.24 213.419 300.24 213.83 300.217 214.241C300.217 220.726 300.217 227.195 300.217 233.649C300.217 234.083 300.217 234.517 300.137 234.928C295.251 235.795 292.739 233.695 292.694 228.9C292.694 225.612 292.694 222.324 292.5 219.036C292.283 214.801 290.57 211.456 286.392 209.812C281.026 207.688 275.569 208.008 270.101 209.241C269.933 209.289 269.777 209.373 269.645 209.487C269.513 209.602 269.407 209.743 269.336 209.903C268.582 212.186 267.886 214.378 267.189 216.582C269.541 215.942 271.756 215.223 274.039 214.732C275.878 214.247 277.834 214.492 279.496 215.417C281.46 216.559 281.54 218.625 279.599 219.767C278.592 220.286 277.521 220.67 276.414 220.908C273.857 221.582 271.231 222.05 268.719 222.815C264.507 224.185 262.223 227.233 262.28 231.023C262.337 234.448 264.746 237.314 268.833 238.729C272.064 239.871 275.398 239.677 278.731 239.654C278.884 239.655 279.035 239.621 279.174 239.556C279.312 239.491 279.434 239.396 279.531 239.277C280.261 237.896 280.923 236.48 281.574 235.156C280.118 235.053 278.672 234.843 277.247 234.528C276.538 234.315 275.91 233.891 275.449 233.311C274.988 232.732 274.715 232.025 274.667 231.286C274.541 230.601 274.634 229.893 274.933 229.264C275.232 228.634 275.723 228.115 276.334 227.781C278.03 226.966 279.772 226.249 281.551 225.635C281.551 227.77 281.483 229.459 281.551 231.137C281.516 232.8 282.014 234.43 282.971 235.789C283.928 237.149 285.295 238.167 286.871 238.695C288.452 239.279 290.119 239.595 291.803 239.631C298.836 239.734 305.868 239.631 312.901 239.631C313.255 239.631 313.62 239.574 313.974 239.551C311.828 238.581 311.554 236.72 311.519 234.882C311.439 230.407 311.417 225.932 311.519 221.456C311.489 220.742 311.601 220.029 311.85 219.359C312.099 218.689 312.479 218.075 312.968 217.554C313.457 217.033 314.046 216.615 314.699 216.325C315.352 216.034 316.056 215.877 316.771 215.862C318.049 215.793 319.329 215.793 320.607 215.862C320.607 213.705 320.607 211.57 320.607 209.435C320.607 208.487 320.264 208.145 319.374 208.076C318.028 207.909 316.663 208.104 315.418 208.642C314.174 209.18 313.096 210.041 312.296 211.136C312.102 211.387 311.873 211.627 311.382 212.186V208.407C306.793 208.579 302.295 208.761 297.785 208.944Z" fill="white"/>
<path fill-rule="evenodd" clip-rule="evenodd" d="M342.63 210.326H342.299L341.078 209.709C338.954 208.561 336.543 208.049 334.136 208.235C331.728 208.422 329.426 209.298 327.504 210.76C320.003 216.057 318.941 228.866 325.357 235.625C326.75 237.245 328.52 238.498 330.51 239.274C332.501 240.051 334.652 240.326 336.774 240.077C337.459 239.997 338.406 239.849 338.726 239.381C339.788 237.828 340.621 236.104 341.58 234.38C336.888 234.38 334.662 232.622 333.486 228.204C332.709 225.368 332.709 222.375 333.486 219.539C333.792 218.399 334.337 217.336 335.084 216.422C335.532 215.851 336.124 215.41 336.8 215.146C337.476 214.882 338.21 214.804 338.926 214.921C339.643 215.038 340.314 215.344 340.872 215.809C341.429 216.274 341.851 216.88 342.094 217.564C342.504 218.722 342.705 219.943 342.687 221.171C342.745 226.88 342.687 232.497 342.687 238.159C342.687 238.639 342.687 239.118 342.745 239.62H356.718C356.059 239.379 355.484 238.952 355.063 238.391C354.641 237.83 354.391 237.158 354.344 236.458C354.222 235.703 354.161 234.94 354.161 234.175C354.161 221.571 354.161 208.971 354.161 196.375V194.697L340.233 195.268C340.947 195.582 341.552 196.101 341.971 196.76C342.39 197.418 342.603 198.186 342.585 198.967C342.687 202.723 342.63 206.49 342.63 210.326Z" fill="white"/>
<path fill-rule="evenodd" clip-rule="evenodd" d="M83.0799 194.684C83.0799 194.799 83.0228 194.901 83 195.015C85.1463 196.1 86.0139 198.098 86.7674 200.187C90.1923 209.674 93.6173 219.138 96.9395 228.66C99.3027 235.51 104.737 238.215 111.199 239.882L126.474 194.764H114.407C117.603 197.048 118.014 198.269 116.884 201.877L113.151 213.75C111.826 217.962 110.514 222.164 109.075 226.799C108.755 225.92 108.561 225.44 108.39 224.938C105.102 215.268 101.803 205.599 98.5606 195.906C98.5314 195.711 98.4638 195.523 98.3617 195.354C98.2596 195.185 98.1251 195.038 97.9659 194.921C97.8067 194.805 97.626 194.721 97.4341 194.674C97.2423 194.627 97.0431 194.619 96.8481 194.65C93.6515 194.719 90.4549 194.65 87.2583 194.65L83.0799 194.684Z" fill="white"/>
<path fill-rule="evenodd" clip-rule="evenodd" d="M227.691 213.979H220.236C220.019 213.979 219.802 213.979 219.414 214.07C219.688 214.458 219.871 214.744 220.076 215.018C220.913 216.053 221.509 217.263 221.819 218.558C222.13 219.853 222.147 221.201 221.871 222.504C221.594 223.807 221.03 225.031 220.22 226.088C219.41 227.146 218.374 228.009 217.188 228.615C213.828 230.384 210.156 231.481 206.376 231.845C205.383 231.982 203.945 231.765 204.093 233.261C204.242 234.757 205.589 234.654 206.673 234.688C209.858 234.802 213.067 234.688 216.24 235.008C217.916 235.207 219.534 235.738 221.001 236.572C222.395 237.323 223.573 238.42 224.42 239.759C225.268 241.097 225.756 242.631 225.839 244.212C225.921 245.794 225.595 247.37 224.892 248.79C224.189 250.209 223.132 251.423 221.823 252.315C218.964 254.243 215.632 255.352 212.187 255.523C207.313 255.945 202.404 256.197 197.677 254.598C195.947 254.031 194.309 253.216 192.814 252.178C189.24 249.632 189.72 245.054 193.67 243.045C196.376 241.698 199.241 241.903 202.392 242.326C200.68 243.228 199.938 244.495 200.337 246.184C200.555 246.96 200.973 247.664 201.551 248.225C202.128 248.787 202.844 249.185 203.625 249.381C206.148 250.294 208.928 250.192 211.377 249.096C212.264 248.765 213.018 248.15 213.52 247.347C214.021 246.544 214.243 245.597 214.151 244.655C214.21 243.749 213.959 242.851 213.441 242.106C212.922 241.362 212.166 240.815 211.297 240.556C209.216 240.097 207.1 239.811 204.972 239.7C204.116 239.609 203.237 239.7 202.369 239.7C200.657 239.687 199.016 239.015 197.786 237.825C196.555 236.635 195.83 235.017 195.759 233.307C195.669 232.828 195.766 232.333 196.029 231.923C196.292 231.514 196.702 231.22 197.175 231.103C198.202 230.761 199.264 230.487 200.166 230.224C198.54 229.151 196.991 227.964 195.531 226.674C194.398 225.615 193.53 224.305 192.996 222.849C192.462 221.394 192.277 219.833 192.455 218.293C192.634 216.753 193.172 215.276 194.025 213.981C194.879 212.687 196.024 211.611 197.369 210.839C200.422 209.05 203.926 208.178 207.461 208.328C217.553 208.328 227.645 208.328 237.737 208.328C238.183 208.328 238.628 208.328 239.21 208.396V209.949C239.21 216.068 239.21 222.187 239.21 228.306C239.21 231.286 240.865 232.873 243.537 232.736C244.277 232.721 244.994 232.476 245.588 232.034C246.181 231.591 246.622 230.975 246.848 230.27C247.211 229.238 247.408 228.155 247.43 227.062C247.498 222.587 247.498 218.111 247.43 213.636C247.43 211.775 247.122 209.937 244.975 208.921L258.675 208.35C258.675 208.967 258.755 209.492 258.755 210.006C258.755 217.906 258.755 225.806 258.755 233.706C258.755 234.346 258.755 234.985 258.846 235.613C258.823 236.442 259.041 237.261 259.472 237.97C259.903 238.679 260.531 239.248 261.278 239.609H247.419V236.104L246.049 237.108C244.553 238.286 242.802 239.097 240.936 239.473C239.07 239.85 237.141 239.783 235.306 239.277C230.522 238.056 227.828 234.791 227.737 229.836C227.657 225.087 227.737 220.338 227.737 215.588L227.691 213.979ZM211.103 219.607C210.872 218.435 210.528 217.288 210.075 216.182C209.814 215.676 209.431 215.242 208.96 214.922C208.489 214.601 207.946 214.403 207.379 214.345C206.812 214.287 206.24 214.371 205.714 214.591C205.188 214.81 204.725 215.157 204.367 215.6C202.849 217.449 202.655 221.799 204.048 223.774C204.412 224.358 204.935 224.827 205.555 225.126C206.176 225.425 206.868 225.542 207.552 225.464C208.219 225.413 208.853 225.154 209.365 224.724C209.877 224.294 210.241 223.714 210.406 223.066C210.699 221.926 210.931 220.771 211.103 219.607V219.607Z" fill="#C41230"/>
<path fill-rule="evenodd" clip-rule="evenodd" d="M124.603 216.616C125.311 214.401 125.973 212.232 126.726 210.086C126.815 209.891 126.945 209.716 127.106 209.575C127.267 209.433 127.457 209.327 127.662 209.264C132.275 208.043 137.121 208.007 141.75 209.161C147.356 210.714 149.924 214.082 150.004 219.904C150.05 222.949 150.077 225.993 150.084 229.037C150.084 233.604 152.71 235.784 157.379 234.928C157.379 234.563 157.471 234.175 157.471 233.787C157.471 227.165 157.471 220.543 157.471 213.922C157.471 211.947 157.311 209.938 155.016 208.91L168.716 208.351C168.773 209.492 168.819 210.52 168.864 211.776L170.097 210.874C171.49 209.79 173.102 209.025 174.822 208.63C176.542 208.236 178.327 208.222 180.052 208.59C185.144 209.641 188.044 213.066 188.147 218.306C188.249 223.546 188.147 228.444 188.147 233.513C188.147 233.969 188.147 234.426 188.147 234.882C188.068 235.848 188.285 236.815 188.768 237.655C189.251 238.495 189.978 239.168 190.852 239.586H176.993V235.019C176.993 229.951 176.993 224.882 176.993 219.813C176.993 216.924 175.908 215.543 173.625 215.372C173.054 215.314 172.478 215.37 171.929 215.537C171.38 215.705 170.87 215.98 170.429 216.347C169.988 216.713 169.624 217.164 169.36 217.673C169.095 218.182 168.934 218.739 168.887 219.31C168.805 219.759 168.763 220.213 168.761 220.669C168.761 225.327 168.761 229.985 168.761 234.643C168.761 236.675 169.184 238.559 171.296 239.712H169.846C163.133 239.712 156.42 239.712 149.707 239.712C148.659 239.726 147.612 239.642 146.579 239.46C141.545 238.479 138.965 235.282 138.953 230.133V225.989C136.898 226.389 134.98 226.754 133.462 228.067C132.929 228.492 132.523 229.055 132.286 229.695C132.05 230.334 131.993 231.026 132.121 231.696C132.249 232.366 132.558 232.988 133.013 233.495C133.469 234.002 134.054 234.375 134.706 234.574C136.12 234.926 137.566 235.136 139.022 235.202C138.371 236.526 137.675 237.976 136.932 239.392C136.846 239.492 136.739 239.571 136.619 239.624C136.498 239.678 136.368 239.704 136.236 239.7C132.674 239.7 129.112 239.906 125.699 238.559C121.874 237.052 119.614 234.163 119.739 230.715C119.721 229.143 120.193 227.603 121.089 226.31C121.985 225.018 123.261 224.036 124.74 223.5C127.651 222.359 130.779 221.834 133.804 220.966C135 220.691 136.153 220.253 137.229 219.664C138.919 218.625 138.873 216.765 137.229 215.623C136.391 215.087 135.45 214.733 134.467 214.584C133.484 214.434 132.48 214.493 131.521 214.755C129.249 215.246 127 215.965 124.603 216.616Z" fill="#C41230"/>
<path fill-rule="evenodd" clip-rule="evenodd" d="M297.786 208.944L311.486 208.396V212.255C311.977 211.696 312.205 211.456 312.399 211.205C313.199 210.11 314.277 209.249 315.522 208.711C316.766 208.173 318.132 207.978 319.477 208.145C320.379 208.214 320.745 208.556 320.71 209.504C320.642 211.639 320.71 213.773 320.71 215.931C319.433 215.862 318.152 215.862 316.874 215.931C316.16 215.947 315.457 216.105 314.804 216.397C314.152 216.688 313.564 217.106 313.075 217.627C312.586 218.147 312.206 218.76 311.957 219.43C311.707 220.099 311.594 220.811 311.623 221.525C311.52 226 311.543 230.476 311.623 234.951C311.623 236.789 311.931 238.661 314.077 239.62C313.723 239.62 313.37 239.7 313.004 239.7C305.972 239.7 298.939 239.7 291.907 239.7C290.222 239.664 288.555 239.348 286.975 238.764C285.4 238.233 284.035 237.214 283.079 235.855C282.122 234.496 281.623 232.868 281.655 231.206C281.575 229.528 281.655 227.85 281.655 225.704C279.875 226.315 278.132 227.032 276.437 227.85C275.826 228.184 275.336 228.703 275.037 229.332C274.737 229.962 274.644 230.669 274.771 231.355C274.819 232.094 275.092 232.801 275.553 233.38C276.014 233.96 276.641 234.384 277.351 234.597C278.777 234.907 280.222 235.117 281.678 235.225C281.027 236.549 280.365 237.965 279.634 239.346C279.537 239.464 279.415 239.56 279.277 239.625C279.139 239.69 278.988 239.724 278.835 239.723C275.513 239.723 272.168 239.917 268.937 238.798C264.85 237.383 262.441 234.574 262.384 231.092C262.327 227.302 264.599 224.242 268.823 222.884C271.334 222.073 273.96 221.639 276.517 220.977C277.627 220.746 278.699 220.362 279.703 219.836C281.643 218.694 281.563 216.65 279.6 215.486C277.934 214.571 275.983 214.327 274.143 214.801C271.859 215.292 269.576 216.011 267.293 216.65C267.989 214.447 268.686 212.198 269.439 209.972C269.511 209.812 269.616 209.67 269.748 209.556C269.881 209.442 270.036 209.358 270.204 209.31C275.684 208.088 281.141 207.768 286.495 209.88C290.674 211.536 292.386 214.881 292.603 219.105C292.774 222.381 292.763 225.681 292.797 228.969C292.797 233.764 295.343 235.819 300.241 234.997C300.241 234.597 300.321 234.163 300.321 233.718C300.321 227.233 300.321 220.764 300.321 214.31C300.343 213.899 300.343 213.488 300.321 213.077C300.035 211.319 299.601 209.766 297.786 208.944Z" fill="#C41230"/>
<path fill-rule="evenodd" clip-rule="evenodd" d="M342.629 210.325C342.629 206.489 342.686 202.722 342.629 198.909C342.647 198.129 342.434 197.361 342.015 196.702C341.596 196.044 340.991 195.524 340.277 195.21L354.205 194.639V196.306C354.205 208.91 354.205 221.51 354.205 234.106C354.204 234.871 354.265 235.634 354.388 236.389C354.435 237.089 354.685 237.761 355.107 238.322C355.528 238.883 356.103 239.31 356.762 239.551H342.789C342.789 239.06 342.732 238.581 342.732 238.09C342.732 232.382 342.732 226.765 342.732 221.102C342.749 219.874 342.548 218.653 342.138 217.495C341.895 216.811 341.473 216.205 340.916 215.74C340.358 215.275 339.687 214.969 338.971 214.852C338.254 214.735 337.52 214.813 336.844 215.077C336.168 215.341 335.576 215.782 335.128 216.353C334.381 217.267 333.836 218.33 333.53 219.47C332.753 222.306 332.753 225.299 333.53 228.135C334.672 232.542 336.955 234.277 341.624 234.311C340.665 236.047 339.832 237.736 338.77 239.312C338.45 239.78 337.503 239.94 336.818 240.008C334.696 240.257 332.545 239.982 330.554 239.205C328.564 238.429 326.794 237.176 325.401 235.556C318.997 228.797 320.047 215.988 327.548 210.691C329.47 209.229 331.773 208.353 334.18 208.166C336.588 207.98 338.998 208.492 341.122 209.64L342.343 210.257C342.343 210.257 342.389 210.314 342.629 210.325Z" fill="#C41230"/>
<path fill-rule="evenodd" clip-rule="evenodd" d="M83.0799 194.684H87.2583C90.4549 194.684 93.6515 194.684 96.8481 194.684C97.0431 194.654 97.2423 194.662 97.4341 194.708C97.626 194.755 97.8067 194.839 97.9659 194.956C98.1251 195.072 98.2596 195.219 98.3617 195.388C98.4638 195.557 98.5314 195.745 98.5606 195.94C101.818 205.621 105.095 215.299 108.39 224.972C108.561 225.463 108.755 225.954 109.075 226.833C110.525 222.266 111.838 217.997 113.151 213.784L116.884 201.854C118.026 198.246 117.603 196.979 114.407 194.741H126.474L111.199 239.859C104.737 238.192 99.3027 235.464 96.9395 228.637C93.6401 219.115 90.1581 209.651 86.7674 200.164C86.0254 198.075 85.1463 196.089 83 194.993C83.0342 194.913 83.0571 194.799 83.0799 194.684Z" fill="#C41230"/>
<path fill-rule="evenodd" clip-rule="evenodd" d="M211.098 219.607C210.824 220.885 210.699 221.981 210.368 223.032C210.202 223.68 209.838 224.259 209.326 224.689C208.814 225.119 208.18 225.378 207.514 225.429C206.829 225.508 206.137 225.391 205.517 225.092C204.896 224.792 204.373 224.324 204.009 223.739C202.616 221.764 202.81 217.426 204.328 215.565C204.686 215.122 205.149 214.775 205.675 214.556C206.201 214.337 206.773 214.252 207.34 214.31C207.907 214.368 208.45 214.566 208.921 214.887C209.392 215.208 209.775 215.641 210.037 216.147C210.502 217.263 210.858 218.422 211.098 219.607V219.607Z" fill="white"/>
<path fill-rule="evenodd" clip-rule="evenodd" d="M362.942 194C361.942 194 360.964 194.297 360.132 194.852C359.301 195.408 358.653 196.198 358.27 197.122C357.887 198.046 357.787 199.063 357.982 200.044C358.177 201.025 358.659 201.926 359.366 202.634C360.073 203.341 360.975 203.823 361.956 204.018C362.937 204.213 363.954 204.113 364.878 203.73C365.802 203.347 366.592 202.699 367.147 201.867C367.703 201.036 368 200.058 368 199.057C368 197.716 367.467 196.43 366.518 195.481C365.57 194.533 364.284 194 362.942 194ZM362.942 203.407C362.084 203.407 361.245 203.153 360.532 202.676C359.819 202.199 359.263 201.522 358.934 200.729C358.606 199.936 358.52 199.064 358.687 198.223C358.855 197.381 359.268 196.608 359.875 196.001C360.481 195.395 361.254 194.981 362.096 194.814C362.937 194.647 363.81 194.733 364.602 195.061C365.395 195.389 366.073 195.945 366.549 196.659C367.026 197.372 367.28 198.211 367.28 199.069C367.28 200.219 366.823 201.323 366.01 202.136C365.196 202.95 364.093 203.407 362.942 203.407Z" fill="#C41230"/>
<path d="M360.932 201.317V196.819H362.941C363.25 196.807 363.559 196.85 363.854 196.945C364.065 197.03 364.242 197.183 364.357 197.379C364.479 197.582 364.543 197.815 364.539 198.052C364.547 198.353 364.436 198.644 364.231 198.863C363.966 199.105 363.629 199.254 363.272 199.285C363.401 199.343 363.521 199.42 363.626 199.514C363.815 199.689 363.98 199.888 364.117 200.107L364.905 201.329H364.151L363.557 200.393C363.426 200.178 363.281 199.972 363.124 199.776C363.04 199.663 362.94 199.563 362.827 199.479C362.74 199.428 362.648 199.386 362.553 199.354H362.222H361.525V201.352H360.943L360.932 201.317ZM361.525 198.794H362.804C363.02 198.804 363.236 198.777 363.443 198.714C363.588 198.664 363.712 198.568 363.797 198.44C363.876 198.322 363.919 198.183 363.923 198.041C363.925 197.942 363.905 197.844 363.866 197.753C363.827 197.663 363.768 197.582 363.694 197.516C363.478 197.353 363.211 197.272 362.941 197.287H361.514V198.772L361.525 198.794Z" fill="#C41230"/>
</svg>
