<svg width="450" height="450" viewBox="0 0 450 450" fill="none" xmlns="http://www.w3.org/2000/svg">
<rect width="450" height="450" fill="white"/>
<path d="M358.814 194L343.552 226.728L337.787 214.311H331.551L341.021 234.609H346.063L365.002 194H358.814Z" fill="#E1251B"/>
<path d="M293.228 254.756H305.509V232.241C305.509 227.103 308.511 223.467 312.939 223.467C317.203 223.467 319.413 226.469 319.413 230.74V254.756H331.742V228.372C331.742 219.442 326.366 213.117 317.674 213.117C312.147 213.117 308.272 215.491 305.352 219.83H305.113V214.304H293.228V254.756ZM269.048 213.199C256.174 213.199 247.557 222.444 247.557 234.608C247.557 246.773 256.174 256.018 269.048 256.018C281.923 256.018 290.499 246.698 290.499 234.608C290.499 222.519 281.889 213.199 269.007 213.199H269.048ZM268.932 246.937C263.085 246.937 260.002 242.038 260.002 234.608C260.002 227.178 263.099 222.28 268.946 222.28C274.793 222.28 278.034 227.097 278.034 234.602C278.034 242.106 274.793 246.93 268.946 246.93L268.932 246.937ZM212.448 254.756H247.059V245.04H227.464V244.795L246.186 223.774V214.304H212.448V224.02H231.415V224.258L212.448 245.409V254.756ZM196.646 254.756H209.05V214.304H196.646V254.756ZM167.889 254.756H180.21V236.191C180.21 227.738 185.266 224.02 193.017 225.05H193.249V214.386C192.434 214.125 191.578 214.016 190.724 214.065C185.9 214.065 182.66 216.283 179.897 221.018H179.658V214.304H167.889V254.756ZM145.21 247.012C139.752 247.012 136.443 243.457 135.808 238.006H164.962C165.044 229.314 162.751 222.362 157.934 218.016C154.523 214.857 150.034 213.117 144.344 213.117C132.172 213.117 123.719 222.362 123.719 234.451C123.719 246.541 131.776 255.943 145.128 255.943C149.544 256.054 153.884 254.78 157.539 252.3C161.093 249.85 163.618 246.296 164.361 242.748H152.483C151.296 245.436 148.847 247.012 145.21 247.012V247.012ZM144.576 221.966C148.922 221.966 151.93 225.207 152.401 229.948H135.89C136.839 225.125 139.438 221.966 144.576 221.966V221.966ZM99.0683 254.756H112.031L126.072 214.304H113.683L105.782 240.298H105.604L97.7038 214.304H85L99.0683 254.756ZM196.633 199.922H209.036V210.906H196.646L196.633 199.922Z" fill="#231F20"/>
</svg>
