<?xml version="1.0" encoding="utf-8"?>
<!-- Generator: Adobe Illustrator 24.2.1, SVG Export Plug-In . SVG Version: 6.00 Build 0)  -->
<svg version="1.1" id="Layer_1" xmlns="http://www.w3.org/2000/svg" xmlns:xlink="http://www.w3.org/1999/xlink" x="0px" y="0px"
	 viewBox="0 0 150 40" style="enable-background:new 0 0 150 40;" xml:space="preserve">
<style type="text/css">
	.st0{clip-path:url(#SVGID_2_);fill:url(#SVGID_3_);}
	.st1{clip-path:url(#SVGID_5_);}
	.st2{clip-path:url(#SVGID_7_);fill:url(#SVGID_8_);}
	.st3{clip-path:url(#SVGID_10_);fill:url(#SVGID_11_);}
	.st4{clip-path:url(#SVGID_13_);fill:url(#SVGID_14_);}
	.st5{clip-path:url(#SVGID_16_);fill:url(#SVGID_17_);}
	.st6{fill:#231F20;}
</style>
<g>
	<path d="M76.22,11.82c-5.39,0-10.09,3.03-12.45,7.49c-2.36-4.45-7.05-7.49-12.45-7.49c-3.17,0-6.1,1.05-8.46,2.82V2.76
		C42.84,1.23,41.59,0,40.05,0s-2.78,1.23-2.81,2.76v23.38h0C37.36,33.82,43.62,40,51.32,40c5.4,0,10.09-3.04,12.45-7.48
		C66.14,36.96,70.83,40,76.22,40c7.78,0,14.09-6.31,14.09-14.09C90.31,18.12,84,11.82,76.22,11.82 M51.32,34.36
		c-4.67,0-8.46-3.78-8.46-8.45c0-4.67,3.79-8.45,8.46-8.45c4.67,0,8.45,3.78,8.45,8.45C59.77,30.57,55.99,34.36,51.32,34.36
		 M76.22,34.36c-4.67,0-8.46-3.78-8.46-8.45c0-4.67,3.79-8.45,8.46-8.45c4.67,0,8.45,3.78,8.45,8.45
		C84.67,30.57,80.89,34.36,76.22,34.36"/>
	<path d="M112.18,35.28l-7.66-9.4l7.67-9.41c0.97-1.24,0.69-2.98-0.65-3.9c-1.34-0.93-3.22-0.69-4.26,0.51v0l-6.6,8.09l-6.59-8.09v0
		c-1.03-1.2-2.92-1.44-4.25-0.51c-1.34,0.92-1.62,2.66-0.64,3.9h0l7.66,9.41l-7.66,9.4h0c-0.97,1.25-0.7,2.97,0.64,3.9
		c1.34,0.93,3.23,0.69,4.25-0.52l6.59-8.07l6.59,8.07c1.04,1.21,2.92,1.44,4.26,0.52C112.87,38.26,113.15,36.53,112.18,35.28"/>
</g>
</svg>
