<?xml version="1.0" encoding="utf-8"?>
<!-- Generator: Adobe Illustrator 24.2.1, SVG Export Plug-In . SVG Version: 6.00 Build 0)  -->
<svg version="1.1" id="Layer_1" xmlns="http://www.w3.org/2000/svg" xmlns:xlink="http://www.w3.org/1999/xlink" x="0px" y="0px"
	 viewBox="0 0 150 40" style="enable-background:new 0 0 150 40;" xml:space="preserve">
<style type="text/css">
	.st0{clip-path:url(#SVGID_2_);fill:url(#SVGID_3_);}
	.st1{fill:none;}
	.st2{clip-path:url(#SVGID_5_);fill:url(#SVGID_6_);}
	.st3{clip-path:url(#SVGID_8_);fill:url(#SVGID_9_);}
	.st4{clip-path:url(#SVGID_11_);fill:url(#SVGID_12_);}
</style>
<g>
	<defs>
		<path id="SVGID_1_" d="M0.97,10.58c-0.16,0.27-0.3,0.55-0.42,0.83L0.5,11.53l0.72,2.08l3.57,2.15l0.15-0.37
			c1.89-4.76,6.42-7.84,11.54-7.84c3.43,0,6.63,1.38,9,3.89l0.1,0.1h0.07L32.23,11C29,5.34,22.96,1.83,16.48,1.83
			C10.09,1.83,4.3,5.1,0.97,10.58"/>
	</defs>
	<clipPath id="SVGID_2_">
		<use xlink:href="#SVGID_1_"  style="overflow:visible;"/>
	</clipPath>
	
		<radialGradient id="SVGID_3_" cx="-719.8221" cy="1.7412" r="0.8169" gradientTransform="matrix(22.8224 0 0 22.8224 16444.6953 -19.802)" gradientUnits="userSpaceOnUse">
		<stop  offset="0" style="stop-color:#8F8F8F"/>
		<stop  offset="0.6673" style="stop-color:#2C2C2C"/>
		<stop  offset="1" style="stop-color:#000000"/>
	</radialGradient>
	<rect x="0.5" y="1.83" class="st0" width="31.73" height="13.93"/>
</g>
<rect x="0.47" y="3.14" class="st1" width="11.54" height="12.62"/>
<path d="M82.1,28.46h-5.17c-2.03,0-3.46-0.75-3.91-2.81h11.14c0.03-0.42,0.06-0.83,0.06-1.19c0-4.54-2.45-8.69-7.79-8.69
	c-4.66,0-7.92,3.76-7.92,8.33v0.06c0,4.9,3.55,8.27,8.36,8.27h2.66L82.1,28.46z M76.43,19.41c1.91,0,3.1,1.37,3.37,3.4h-6.84
	C73.32,20.75,74.55,19.41,76.43,19.41"/>
<path d="M87.17,16.06h4.54v3.23c0.93-2.21,2.42-3.65,5.1-3.53v4.75h-0.23c-3.02,0-4.87,1.82-4.87,5.65v5.92h-4.54
	C87.17,32.08,87.17,16.06,87.17,16.06z"/>
<path d="M130.96,28.46h-5.17c-2.04,0-3.46-0.75-3.91-2.81h11.14c0.03-0.42,0.06-0.83,0.06-1.19c0-4.54-2.45-8.69-7.8-8.69
	c-4.66,0-7.91,3.76-7.91,8.33v0.06c0,4.9,3.55,8.27,8.36,8.27h2.66L130.96,28.46z M125.28,19.41c1.91,0,3.11,1.37,3.37,3.4h-6.84
	C122.18,20.75,123.4,19.41,125.28,19.41"/>
<path d="M136.02,16.06h4.54v3.23c0.92-2.21,2.42-3.65,5.1-3.53v4.75h-0.24c-3.02,0-4.86,1.82-4.86,5.65v5.92h-4.54V16.06z"/>
<path d="M104.3,23.14c0-2.15,1.11-3.25,2.84-3.25c1.73,0,2.75,1.1,2.75,3.25v8.93h4.54V21.71c0-3.67-2-5.95-5.43-5.95
	c-2.3,0-3.64,1.23-4.69,2.57v-2.27h-4.54v16.01h4.54L104.3,23.14L104.3,23.14z"/>
<path d="M61.73,28.21h0.39h4.58l-2.76,4.25h-2.69l-1.15-0.02c-6.01-0.17-10.44-4.86-10.44-10.78V21.6c0-5.96,4.5-10.84,10.93-10.84
	c3.96,0,6.32,1.32,8.27,3.24l-2.94,3.38c-1.62-1.47-3.26-2.36-5.36-2.36c-3.54,0-6.08,2.94-6.08,6.53v0.06
	c0,3.6,2.49,6.59,6.08,6.59"/>
<g>
	<g>
		<defs>
			<path id="SVGID_4_" d="M1.22,26.4L0.5,28.48l0.05,0.12c0.12,0.27,0.26,0.55,0.42,0.83c3.33,5.48,9.12,8.75,15.51,8.75
				c6.34,0,12.25-3.35,15.53-8.8c-2.66,0.6-7,0.92-8.72,1.03c-2.01,1.33-4.34,2.04-6.81,2.04c-5.12,0-9.64-3.08-11.54-7.84
				l-0.15-0.37L1.22,26.4z"/>
		</defs>
		<clipPath id="SVGID_5_">
			<use xlink:href="#SVGID_4_"  style="overflow:visible;"/>
		</clipPath>
		
			<radialGradient id="SVGID_6_" cx="-719.8219" cy="1.7419" r="0.8172" gradientTransform="matrix(22.8224 0 0 22.8224 16444.6953 -19.802)" gradientUnits="userSpaceOnUse">
			<stop  offset="0" style="stop-color:#737373"/>
			<stop  offset="0.5379" style="stop-color:#333333"/>
			<stop  offset="1" style="stop-color:#000000"/>
			<stop  offset="1" style="stop-color:#6D6D6D"/>
			<stop  offset="1" style="stop-color:#999999"/>
		</radialGradient>
		<rect x="0.5" y="24.24" class="st2" width="31.5" height="13.93"/>
	</g>
</g>
<g>
	<g>
		<defs>
			<path id="SVGID_7_" d="M0.01,13.84c0,0.03,0,0.07,0,0.1c-0.02,1.13,0.36,2.11,1.15,2.91c0,0,2.49,3.65,15.5,4.24
				c7.94,0.36,23.84-2.15,23.84-2.15l3.67-5.66c0,0-19.79,2.15-27.39,2.15c-11.81,0-14.05-3.47-14.05-3.47
				C1.5,10.75,1.61,9.49,1.61,9.49C0.97,10.35,0.04,11.73,0.01,13.84"/>
		</defs>
		<clipPath id="SVGID_8_">
			<use xlink:href="#SVGID_7_"  style="overflow:visible;"/>
		</clipPath>
		
			<linearGradient id="SVGID_9_" gradientUnits="userSpaceOnUse" x1="-733.0703" y1="0.8418" x2="-732.2526" y2="0.8418" gradientTransform="matrix(54.0252 0 0 54.0252 39604.25 -30.006)">
			<stop  offset="0" style="stop-color:#000000"/>
			<stop  offset="0.0442" style="stop-color:#131313"/>
			<stop  offset="0.1664" style="stop-color:#414141"/>
			<stop  offset="0.2747" style="stop-color:#636363"/>
			<stop  offset="0.3641" style="stop-color:#787878"/>
			<stop  offset="0.4233" style="stop-color:#808080"/>
			<stop  offset="0.4799" style="stop-color:#717171"/>
			<stop  offset="0.725" style="stop-color:#343434"/>
			<stop  offset="0.9053" style="stop-color:#0E0E0E"/>
			<stop  offset="1" style="stop-color:#000000"/>
		</linearGradient>
		<rect x="-0.02" y="9.49" class="st3" width="44.18" height="11.96"/>
	</g>
</g>
<g>
	<g>
		<defs>
			<path id="SVGID_10_" d="M17.58,23.27c-5.38,0-9.13-0.93-11.57-1.46c-2.49-0.55-4.25,0.68-4.87,1.25
				C0.32,23.82-0.02,24.84,0,25.97c0,0.04,0,0.07,0,0.1c0.03,2.11,0.97,3.49,1.6,4.35c0,0-0.11-1.26,1.11-2.47c0,0,1.54-1.59,3.18-1
				C8.58,28,17.3,28.59,17.3,28.59c8.72,0,18.28-1.97,18.28-1.97l3.66-5.66C39.26,20.95,27.88,23.27,17.58,23.27"/>
		</defs>
		<clipPath id="SVGID_11_">
			<use xlink:href="#SVGID_10_"  style="overflow:visible;"/>
		</clipPath>
		
			<linearGradient id="SVGID_12_" gradientUnits="userSpaceOnUse" x1="-731.8533" y1="0.8831" x2="-731.0355" y2="0.8831" gradientTransform="matrix(48.0319 0 0 48.0319 35152.2852 -16.7296)">
			<stop  offset="0" style="stop-color:#000000"/>
			<stop  offset="0.0442" style="stop-color:#131313"/>
			<stop  offset="0.1664" style="stop-color:#414141"/>
			<stop  offset="0.2747" style="stop-color:#636363"/>
			<stop  offset="0.3641" style="stop-color:#787878"/>
			<stop  offset="0.4233" style="stop-color:#808080"/>
			<stop  offset="0.4799" style="stop-color:#717171"/>
			<stop  offset="0.725" style="stop-color:#343434"/>
			<stop  offset="0.9053" style="stop-color:#0E0E0E"/>
			<stop  offset="1" style="stop-color:#000000"/>
		</linearGradient>
		<rect x="-0.02" y="20.95" class="st4" width="39.28" height="9.47"/>
	</g>
</g>
<polygon points="146.57,15.71 148.08,15.71 148.08,15.92 147.45,15.92 147.45,17.34 147.18,17.34 147.18,15.92 146.57,15.92 "/>
<polygon points="149.76,15.72 150,15.72 150,17.34 149.74,17.34 149.74,16.08 149.18,16.7 149.13,16.7 148.57,16.08 148.57,17.34 
	148.31,17.34 148.31,15.72 148.56,15.72 149.16,16.38 "/>
</svg>
