<?xml version="1.0" encoding="utf-8"?>
<!-- Generator: Adobe Illustrator 24.2.1, SVG Export Plug-In . SVG Version: 6.00 Build 0)  -->
<svg version="1.1" id="Layer_1" xmlns="http://www.w3.org/2000/svg" xmlns:xlink="http://www.w3.org/1999/xlink" x="0px" y="0px"
	 viewBox="0 0 150 40" style="enable-background:new 0 0 150 40;" xml:space="preserve">
<style type="text/css">
	.st0{clip-path:url(#SVGID_2_);fill:url(#SVGID_3_);}
	.st1{clip-path:url(#SVGID_5_);}
	.st2{clip-path:url(#SVGID_7_);fill:url(#SVGID_8_);}
	.st3{clip-path:url(#SVGID_10_);fill:url(#SVGID_11_);}
	.st4{clip-path:url(#SVGID_13_);fill:url(#SVGID_14_);}
	.st5{clip-path:url(#SVGID_16_);fill:url(#SVGID_17_);}
	.st6{fill:#231F20;}
</style>
<path class="st6" d="M22.51,7.29v10.71h-9.84V7.29H8v25.58h4.67V22.5h9.84v10.37h4.67V7.29H22.51z M42.13,24.6
	c0,1.03-0.41,2.01-1.13,2.73c-0.72,0.72-1.71,1.13-2.73,1.13c-1.03,0-2.01-0.41-2.73-1.13c-0.72-0.72-1.13-1.71-1.13-2.73V13.64
	h-4.43V24.6c0,2.2,0.87,4.31,2.43,5.86c1.55,1.55,3.66,2.43,5.86,2.43c2.2,0,4.31-0.87,5.86-2.43c1.55-1.55,2.43-3.66,2.43-5.86
	V13.64h-4.41V24.6z M74.97,14.77c0-2.25,1.49-2.96,3.11-2.96c1.31,0,3.04,1,4.18,2.21l2.9-3.42c-1.45-1.96-4.39-3.31-6.79-3.31
	c-4.81,0-8.28,2.82-8.28,7.48c0,8.66,10.58,5.91,10.58,10.76c0,1.49-1.45,2.81-3.11,2.81c-2.62,0-3.47-1.28-4.67-2.64l-3.22,3.35
	c2.06,2.53,4.6,3.81,7.64,3.81c4.57,0,8.24-2.85,8.24-7.3C85.54,15.95,74.96,18.94,74.97,14.77L74.97,14.77z M140.44,28.78
	c-2.62,0-3.36-1.13-3.36-2.87v-7.68h4.07v-3.89h-4.07V9.21l-4.49,2.02v15.64c0,4,2.76,6.02,6.55,6.02c0.59,0.01,1.19-0.04,1.77-0.14
	l1.1-4.04C141.51,28.74,140.94,28.78,140.44,28.78L140.44,28.78z M59,13.77c-2.19,0-3.73,0.64-5.21,2.09V7.44h-4.44v15.6
	c0,5.84,4.22,9.84,8.97,9.84c5.26,0,9.9-4.07,9.9-9.56C68.22,17.92,63.96,13.78,59,13.77L59,13.77z M58.97,28.42
	c-0.66,0-1.32-0.13-1.93-0.38c-0.61-0.25-1.17-0.62-1.63-1.09c-0.47-0.47-0.84-1.02-1.09-1.63c-0.25-0.61-0.38-1.27-0.38-1.93
	c0-0.66,0.13-1.32,0.38-1.93c0.25-0.61,0.62-1.17,1.09-1.63c0.47-0.47,1.02-0.84,1.63-1.09c0.61-0.25,1.27-0.38,1.93-0.38
	c1.34,0,2.62,0.53,3.56,1.48c0.94,0.94,1.48,2.23,1.48,3.56c0,1.34-0.53,2.62-1.48,3.56C61.59,27.89,60.31,28.42,58.97,28.42z
	 M107.19,23.1c0-5.49-4.62-9.56-9.89-9.56c-4.74,0-8.97,4-8.97,9.84V39h4.44v-8.43c1.48,1.45,3.01,2.09,5.21,2.09
	C102.93,32.66,107.19,28.52,107.19,23.1L107.19,23.1z M102.99,23.05c0,1.34-0.53,2.62-1.48,3.56c-0.94,0.94-2.23,1.48-3.56,1.48
	c-1.34,0-2.62-0.53-3.56-1.48c-0.94-0.94-1.48-2.23-1.48-3.56c0-1.34,0.53-2.62,1.48-3.56c0.94-0.94,2.23-1.47,3.56-1.47
	c1.34,0,2.62,0.53,3.56,1.47C102.46,20.43,102.99,21.71,102.99,23.05z"/>
<path class="st6" d="M121.53,13.33V8.87c0.59-0.28,1.09-0.71,1.44-1.26c0.35-0.55,0.54-1.18,0.54-1.83v-0.1
	c0-1.9-1.54-3.43-3.43-3.43h-0.1c-0.91,0-1.78,0.36-2.43,1.01c-0.64,0.64-1.01,1.52-1.01,2.43v0.1c0,0.65,0.19,1.29,0.54,1.83
	c0.35,0.55,0.85,0.98,1.44,1.26v4.46c-1.69,0.26-3.29,0.96-4.62,2.04l-12.23-9.52c0.09-0.31,0.13-0.64,0.14-0.96
	c0-0.77-0.22-1.51-0.65-2.15c-0.42-0.64-1.03-1.13-1.73-1.43C98.72,1,97.94,0.93,97.19,1.07c-0.75,0.15-1.44,0.52-1.98,1.06
	c-0.54,0.54-0.91,1.23-1.06,1.98c-0.15,0.75-0.08,1.53,0.22,2.24c0.29,0.71,0.79,1.31,1.42,1.74c0.64,0.43,1.38,0.65,2.15,0.65
	c0.67,0,1.33-0.18,1.91-0.52l12.04,9.37c-1.08,1.63-1.65,3.56-1.62,5.52s0.64,3.87,1.77,5.47l-3.66,3.66
	c-0.3-0.09-0.6-0.14-0.92-0.15c-0.63,0-1.24,0.19-1.76,0.54c-0.52,0.35-0.93,0.85-1.17,1.43c-0.24,0.58-0.3,1.22-0.18,1.84
	c0.12,0.62,0.43,1.18,0.87,1.63c0.44,0.44,1.01,0.75,1.63,0.87c0.62,0.12,1.26,0.06,1.84-0.18c0.58-0.24,1.08-0.65,1.43-1.17
	c0.35-0.52,0.54-1.14,0.54-1.76c0-0.31-0.05-0.62-0.15-0.92l3.62-3.62c1.18,0.91,2.56,1.54,4.02,1.83c1.46,0.3,2.97,0.25,4.41-0.12
	c1.44-0.38,2.78-1.08,3.91-2.05c1.13-0.97,2.02-2.19,2.61-3.56c0.59-1.37,0.85-2.86,0.77-4.35c-0.08-1.49-0.5-2.94-1.22-4.24
	c-0.73-1.3-1.74-2.42-2.96-3.27C124.41,14.11,123,13.55,121.53,13.33z M120.03,27.99c-0.67,0.02-1.34-0.1-1.96-0.34
	c-0.62-0.24-1.19-0.61-1.67-1.08c-0.48-0.47-0.86-1.03-1.12-1.64c-0.26-0.62-0.39-1.28-0.39-1.95c0-0.67,0.13-1.33,0.39-1.95
	c0.26-0.62,0.64-1.18,1.12-1.64c0.48-0.47,1.05-0.83,1.67-1.08c0.62-0.24,1.29-0.36,1.96-0.34c1.3,0.05,2.53,0.59,3.43,1.53
	c0.9,0.93,1.41,2.18,1.41,3.48c0,1.3-0.5,2.55-1.4,3.48C122.56,27.4,121.33,27.94,120.03,27.99"/>
</svg>
