<?xml version="1.0" encoding="utf-8"?>
<!-- Generator: Adobe Illustrator 24.2.1, SVG Export Plug-In . SVG Version: 6.00 Build 0)  -->
<svg version="1.1" id="Layer_1" xmlns="http://www.w3.org/2000/svg" xmlns:xlink="http://www.w3.org/1999/xlink" x="0px" y="0px"
	 viewBox="0 0 150 40" style="enable-background:new 0 0 150 40;" xml:space="preserve">
<style type="text/css">
	.st0{clip-path:url(#SVGID_2_);fill:url(#SVGID_3_);}
	.st1{clip-path:url(#SVGID_5_);}
	.st2{clip-path:url(#SVGID_7_);fill:url(#SVGID_8_);}
	.st3{clip-path:url(#SVGID_10_);fill:url(#SVGID_11_);}
	.st4{clip-path:url(#SVGID_13_);fill:url(#SVGID_14_);}
	.st5{clip-path:url(#SVGID_16_);fill:url(#SVGID_17_);}
	.st6{fill:#231F20;}
</style>
<g>
	<polygon class="st6" points="118.34,4.99 103.91,4.99 104.8,2.5 118.34,2.5 	"/>
	<path class="st6" d="M79.88,2.5l13.4,0l0.88,2.49c0.01,0-14.27,0-14.27,0C79.88,4.99,79.87,2.5,79.88,2.5z"/>
	<path class="st6" d="M69.24,2.5c2.21,0.21,4.13,1,5.76,2.49c0,0-24.28,0-24.28,0c0,0,0-2.49,0-2.49L69.24,2.5z"/>
	<g>
		<rect x="31.66" y="2.5" class="st6" width="16.87" height="2.49"/>
	</g>
	<path class="st6" d="M118.34,9.66h-16.08c0,0,0.88-2.47,0.87-2.48h15.21V9.66z"/>
	<polygon class="st6" points="95.81,9.66 79.88,9.66 79.88,7.18 94.94,7.18 	"/>
	<path class="st6" d="M76.89,7.18c0.32,0.82,0.7,1.52,0.7,2.48H50.72V7.18H76.89z"/>
	<g>
		<rect x="31.66" y="7.18" class="st6" width="16.87" height="2.48"/>
	</g>
	<polygon class="st6" points="100.62,14.34 101.5,11.85 113.58,11.85 113.58,14.33 	"/>
	<polygon class="st6" points="96.58,11.85 97.46,14.34 84.63,14.34 84.63,11.85 	"/>
	<path class="st6" d="M77.8,11.85c0,0.85-0.11,1.74-0.36,2.49h-7.36v-2.49H77.8z"/>
	<g>
		<rect x="36.36" y="11.86" class="st6" width="7.25" height="2.48"/>
	</g>
	<g>
		<rect x="55.6" y="11.85" class="st6" width="7.24" height="2.49"/>
	</g>
	<path class="st6" d="M91.76,17.02c0,0,0,1.88,0,1.89h-7.13v-2.48h13.59l0.84,2.31c0,0,0.81-2.31,0.82-2.31h13.7v2.48h-7.1
		c0,0,0-1.89,0-1.89l-0.66,1.89l-13.4,0L91.76,17.02z"/>
	<path class="st6" d="M55.6,16.43h20.78v0c-0.45,0.83-1.28,1.84-2.06,2.48c0,0-18.72,0-18.72,0C55.6,18.91,55.6,16.44,55.6,16.43z"
		/>
	<g>
		<rect x="36.36" y="16.43" class="st6" width="7.25" height="2.48"/>
	</g>
	<g>
		<rect x="106.47" y="21.1" class="st6" width="7.1" height="2.48"/>
	</g>
	<path class="st6" d="M91.76,21.1h-7.13v2.48c0,0,7.13,0,7.13,0C91.76,23.58,91.77,21.1,91.76,21.1z"/>
	<path class="st6" d="M105.04,21.1c-0.03,0-0.83,2.47-0.86,2.48l-10.11,0c-0.01,0-0.89-2.48-0.89-2.48H105.04z"/>
	<path class="st6" d="M55.6,21.1h18.68c0.85,0.71,1.62,1.59,2.23,2.48c0.03,0-20.91,0-20.91,0C55.6,23.58,55.6,21.1,55.6,21.1z"/>
	<polygon class="st6" points="43.61,23.58 43.61,21.1 36.37,21.1 36.37,23.58 	"/>
	<g>
		<rect x="106.47" y="25.77" class="st6" width="7.09" height="2.48"/>
	</g>
	<g>
		<rect x="84.63" y="25.77" class="st6" width="7.13" height="2.48"/>
	</g>
	<path class="st6" d="M102.52,28.26c0-0.01,0.88-2.49,0.89-2.49h-8.59c-0.02,0,0.88,2.48,0.88,2.48S102.52,28.27,102.52,28.26z"/>
	<path class="st6" d="M55.6,28.25c0,0.01,0-2.48,0-2.48h7.35c0,0,0.01,2.48,0,2.48C62.94,28.25,55.6,28.24,55.6,28.25z"/>
	<path class="st6" d="M77.54,25.77c0.36,0.75,0.39,1.63,0.46,2.49h-7.78v-2.49H77.54z"/>
	<g>
		<rect x="36.37" y="25.77" class="st6" width="7.24" height="2.48"/>
	</g>
	<g>
		<rect x="106.47" y="30.34" class="st6" width="11.87" height="2.48"/>
	</g>
	<g>
		<rect x="79.88" y="30.34" class="st6" width="11.88" height="2.48"/>
	</g>
	<polygon class="st6" points="100.92,32.82 97.3,32.82 96.43,30.34 101.76,30.34 	"/>
	<path class="st6" d="M31.66,30.34v2.48h16.86c0.01,0-0.01-2.47,0-2.47C48.52,30.34,31.64,30.34,31.66,30.34z"/>
	<path class="st6" d="M77.7,30.34c-0.18,0.82-0.34,1.81-0.94,2.48l-0.22,0H50.72v-2.48H77.7z"/>
	<polygon class="st6" points="99.28,37.49 98.94,37.49 98.1,35.01 100.15,35.01 	"/>
	<g>
		<rect x="106.47" y="35.01" class="st6" width="11.87" height="2.49"/>
	</g>
	<path class="st6" d="M50.71,37.49v-2.48c0,0,24.36,0,24.43,0c-1.64,1.56-3.88,2.45-6.3,2.48L50.71,37.49"/>
	<g>
		<rect x="79.88" y="35.01" class="st6" width="11.88" height="2.49"/>
	</g>
	<path class="st6" d="M48.52,35.02c0,0-0.01,2.47,0,2.47c0.01,0-16.85,0.01-16.86,0c0,0,0-2.48,0-2.48S48.51,35.03,48.52,35.02z"/>
</g>
</svg>
