<?xml version="1.0" encoding="utf-8"?>
<!-- Generator: Adobe Illustrator 24.2.1, SVG Export Plug-In . SVG Version: 6.00 Build 0)  -->
<svg version="1.1" id="Layer_1" xmlns="http://www.w3.org/2000/svg" xmlns:xlink="http://www.w3.org/1999/xlink" x="0px" y="0px"
	 viewBox="0 0 150 40" style="enable-background:new 0 0 150 40;" xml:space="preserve">
<style type="text/css">
	.st0{clip-path:url(#SVGID_2_);fill:url(#SVGID_3_);}
	.st1{clip-path:url(#SVGID_5_);}
	.st2{clip-path:url(#SVGID_7_);fill:url(#SVGID_8_);}
	.st3{clip-path:url(#SVGID_10_);fill:url(#SVGID_11_);}
	.st4{clip-path:url(#SVGID_13_);fill:url(#SVGID_14_);}
	.st5{clip-path:url(#SVGID_16_);fill:url(#SVGID_17_);}
	.st6{fill:#231F20;}
</style>
<g>
	<path d="M90.74,19.42c2.72-0.61,4.47-2.55,4.47-5.51c0-3.6-2.37-6.02-7.29-6.02h-7.94v23.8h8.22c5.12,0,7.87-2.38,7.87-6.43
		C96.07,22.04,94.11,19.96,90.74,19.42z M81.49,9.12h6.4c3.89,0,5.75,1.87,5.75,4.9c0,3.03-1.86,4.86-5.75,4.86h-6.4V9.12
		L81.49,9.12z M88.13,30.47h-6.64V20.1h6.64c4.3,0,6.36,1.94,6.36,5.17C94.49,28.53,92.43,30.47,88.13,30.47z M104.71,14.76
		c-3.16,0-5.43,1.74-6.26,4.25l1.31,0.41c0.86-2.34,2.65-3.5,4.95-3.5c2.89,0,4.54,1.36,4.54,4.93v0.95l-2.2,0.1
		c-7.39,0.24-9.49,2.51-9.49,5.41c0,2.96,2.41,4.79,5.6,4.79c2.82,0,4.98-1.32,6.09-3.7v3.3h1.45V21.19
		C110.69,16.74,108.49,14.76,104.71,14.76z M109.24,25.27c0,3.16-2.27,5.68-5.91,5.68c-2.54,0-4.3-1.46-4.3-3.64
		c0-2.31,1.61-4.15,8.08-4.35l2.13-0.07C109.24,22.89,109.24,25.27,109.24,25.27z M121.18,14.76c-3.06,0-5.33,1.94-6.36,4.62v-4.22
		h-1.48v16.52h1.48V23.4c0-4.39,2.48-7.41,6.09-7.41c2.82,0,4.27,1.67,4.27,4.93V31.7h1.48V20.61
		C126.65,17.07,124.72,14.76,121.18,14.76z M135.52,21.67l6.02-6.5h-1.79l-8.97,9.79V7.9h-1.48v23.8h1.48v-4.96l3.78-4.05l6.26,9.01
		h1.68L135.52,21.67z M54.43,14.31h1.47c0,0-0.01-5.2,4.8-5.2c0,0,1.22,0,1.46,0c0,0.25,0,21.37,0,21.37h-2.3
		c-1.47-0.14-2.69-1.08-3.88-2.19l-1.73-1.65c0.38-0.5,0.88-1.27,1.23-2.07c0.4-0.91,0.69-2.61,0.87-3.03
		c0.06-0.14,0.12-0.27,0.21-0.4c0.23-0.36,0.61-0.66,1-0.82c0.3-0.13,0.66-0.21,0.99-0.21h0.22v-1.23h-7.21v1.23h0.49
		c1.31,0.01,2.38,1.06,2.38,2.38c0,1.7-1.29,3.09-1.29,3.09l-6.59-6.33c2.94-1.06,5.42-2.51,5.42-5.24c0-2.88-2.22-4.9-6.23-4.9
		c-4.07,0-6.77,2.22-6.77,5.81c0,2.36,1.1,3.9,2.16,4.96c-3.34,1.28-5.33,2.96-5.33,6.04c0,4.33,3.95,6.07,8.33,6.07
		c2.88,0,5.3-0.85,7.18-2.22c0.03-0.02,1.25,1.94,4.84,1.94c0.26,0,13.68-0.01,13.68-0.01v-1.22H67.2c0,0,0-21.15,0-21.37
		c0.25,0,1.46,0,1.46,0c4.79,0,4.8,5.2,4.8,5.2h1.47V7.9h-20.5V14.31z M45.61,10.32c1.59,0,2.57,1.26,2.57,3.05
		c0,2-0.9,3.71-2.82,4.74c-1.24-1.2-2.31-2.83-2.31-4.79C43.04,11.55,44.02,10.32,45.61,10.32z M45.46,29.92
		c-2.85,0-4.98-2.09-4.98-4.88c0-1.96,0.46-3.16,1.79-4.01l7.95,7.72C48.92,29.63,47.25,29.92,45.46,29.92z M33.37,9.11h2.85V7.89
		h-7.68c0,0-6.36,15.7-6.56,16.2c-0.21-0.51-6.59-16.2-6.59-16.2H7.5v1.22h2.85l-0.01,21.36H7.99v1.22h6.96v-1.22h-3.08
		c0,0,0-17.83,0-18.64c0.36,0.9,7.75,19.31,7.75,19.31h1.25c0,0,7.28-18.41,7.65-19.31c0,1-0.01,18.65-0.01,18.65h-2.42v1.21h9.74
		v-1.21h-2.44V9.11z"/>
</g>
</svg>
