<?xml version="1.0" encoding="utf-8"?>
<!-- Generator: Adobe Illustrator 24.2.1, SVG Export Plug-In . SVG Version: 6.00 Build 0)  -->
<svg version="1.1" id="Layer_1" xmlns="http://www.w3.org/2000/svg" xmlns:xlink="http://www.w3.org/1999/xlink" x="0px" y="0px"
	 viewBox="0 0 150 40" style="enable-background:new 0 0 150 40;" xml:space="preserve">
<style type="text/css">
	.st0{clip-path:url(#SVGID_2_);fill:url(#SVGID_3_);}
	.st1{clip-path:url(#SVGID_5_);}
	.st2{clip-path:url(#SVGID_7_);fill:url(#SVGID_8_);}
	.st3{clip-path:url(#SVGID_10_);fill:url(#SVGID_11_);}
	.st4{clip-path:url(#SVGID_13_);fill:url(#SVGID_14_);}
	.st5{clip-path:url(#SVGID_16_);fill:url(#SVGID_17_);}
	.st6{fill:#231F20;}
</style>
<g>
	<path d="M60.97,23.03c0.14,3.88,3.27,5.11,6.6,5.11c2.52,0,5.93-0.61,5.93-3.93c0-3.37-3.99-3.93-8.02-4.9
		c-3.99-0.97-8.02-2.4-8.02-7.45c0-5.31,4.89-7.5,9.16-7.5c5.41,0,9.73,1.84,10.07,8.27h-4.03c-0.28-3.37-3.04-4.44-5.7-4.44
		c-2.42,0-5.22,0.71-5.22,3.37c0,3.11,4.27,3.62,8.03,4.59c4.03,0.97,8.02,2.4,8.02,7.5c0,6.28-5.46,8.32-10.44,8.32
		c-5.51,0-10.16-2.4-10.4-8.93H60.97z"/>
	<path d="M95.05,22.16c0,2.4-2.19,5.97-7.5,5.97c-2.47,0-4.75-1.02-4.75-3.88c0-3.22,2.28-4.24,4.94-4.75
		c2.71-0.51,5.74-0.56,7.31-1.79V22.16z M101.6,27.88c-0.52,0.2-0.9,0.26-1.23,0.26c-1.28,0-1.28-0.92-1.28-2.96V11.59
		c0-6.18-4.79-7.25-9.21-7.25c-5.46,0-10.16,2.3-10.4,8.83h4.03c0.19-3.88,2.71-5,6.12-5c2.57,0,5.46,0.61,5.46,4.39
		c0,3.27-3.8,2.96-8.26,3.88c-4.18,0.87-8.31,2.14-8.31,8.12c0,5.26,3.66,7.4,8.12,7.4c3.42,0,6.41-1.28,8.64-4.08
		c0,2.86,1.33,4.08,3.42,4.08c1.28,0,2.18-0.26,2.89-0.71L101.6,27.88L101.6,27.88z"/>
	<path d="M105.35,23.03c0.14,3.88,3.27,5.11,6.6,5.11c2.52,0,5.93-0.61,5.93-3.93c0-3.37-3.99-3.93-8.02-4.9
		c-3.99-0.97-8.03-2.4-8.03-7.45c0-5.31,4.89-7.5,9.17-7.5c5.41,0,9.73,1.84,10.06,8.27h-4.03c-0.28-3.37-3.04-4.44-5.7-4.44
		c-2.42,0-5.22,0.71-5.22,3.37c0,3.11,4.28,3.62,8.02,4.59c4.03,0.97,8.03,2.4,8.03,7.5c0,6.28-5.46,8.32-10.44,8.32
		c-5.51,0-10.16-2.4-10.4-8.93H105.35z"/>
	<path d="M43.95,12.17l-0.67-0.81c-0.93-1.11-2.45-1.1-3.57-0.18c-1.13,0.93-1.46,2.47-0.53,3.59c0,0,0.11,0.14,0.3,0.37"/>
	<path d="M39.47,15.12c2.14,2.57,5.01,6.02,5.01,6.02c3.58,4.35,1.98,9.7-2.88,12.75c-4.28,2.68-12.14,1.73-14.84-2.68
		c2.1,6.19,9.14,10.24,16.92,8.29c6.75-1.69,14.29-10.36,6.04-20.37l-6.13-7.4"/>
	<path d="M40.13,24.42c-2.08-2.5-4.62-5.56-4.62-5.56c-3.58-4.35-1.98-9.71,2.88-12.76c4.28-2.69,12.14-1.73,14.84,2.68
		c-2.1-6.19-9.14-10.24-16.92-8.3c-6.75,1.69-14.29,10.36-6.04,20.37l5.84,7.06"/>
	<path d="M35.18,26.83l1.39,1.68c0.93,1.11,2.45,1.1,3.57,0.18c1.13-0.93,1.46-2.46,0.53-3.59c0,0-0.55-0.66-1.34-1.61"/>
	<path d="M120.5,31.28c0-0.74,0.55-1.3,1.27-1.3c0.7,0,1.26,0.56,1.26,1.3c0,0.75-0.56,1.3-1.26,1.3
		C121.05,32.58,120.5,32.03,120.5,31.28z M121.77,32.84c0.85,0,1.57-0.66,1.57-1.56c0-0.89-0.73-1.56-1.57-1.56
		c-0.86,0-1.59,0.66-1.59,1.56C120.18,32.18,120.91,32.84,121.77,32.84z M121.44,31.4h0.31l0.47,0.78h0.3l-0.51-0.79
		c0.27-0.03,0.47-0.17,0.47-0.49c0-0.35-0.21-0.51-0.64-0.51h-0.68v1.8h0.27L121.44,31.4L121.44,31.4z M121.44,31.17v-0.56h0.37
		c0.19,0,0.39,0.04,0.39,0.27c0,0.27-0.2,0.29-0.44,0.29L121.44,31.17L121.44,31.17z"/>
</g>
</svg>
