<svg width="26" height="25" viewBox="0 0 26 25" fill="none" xmlns="http://www.w3.org/2000/svg">
<path d="M12.5012 25C5.60735 25 0.0012207 19.3939 0.0012207 12.5C0.0012207 5.60613 5.60735 0 12.5012 0C19.3951 0 25.0012 5.60613 25.0012 12.5C25.0012 19.3939 19.3951 25 12.5012 25ZM12.5012 0.965785C6.1439 0.965785 0.967006 6.14268 0.967006 12.5C0.967006 18.8573 6.1439 24.0342 12.5012 24.0342C18.8585 24.0342 24.0354 18.8573 24.0354 12.5C24.0354 6.14268 18.8585 0.965785 12.5012 0.965785Z" fill="black"/>
<path d="M19.5107 7.42471H5.4918C5.37014 7.42505 5.25358 7.47353 5.16755 7.55955C5.08153 7.64557 5.03305 7.76214 5.03271 7.88379V17.1175C5.03288 17.2392 5.08131 17.3559 5.16737 17.4419C5.25343 17.528 5.37009 17.5764 5.4918 17.5766H19.5107C19.6324 17.5766 19.7492 17.5282 19.8353 17.4421C19.9214 17.356 19.9698 17.2393 19.9698 17.1175V7.88569C19.9699 7.82526 19.9582 7.7654 19.9352 7.70952C19.9122 7.65364 19.8784 7.60283 19.8358 7.56002C19.7932 7.5172 19.7425 7.48322 19.6867 7.46C19.6309 7.43678 19.5711 7.4248 19.5107 7.42471ZM12.5012 12.9369L6.79541 8.34288H18.2077L12.5012 12.9369ZM12.7889 13.8836L19.0516 8.84323V16.6565H5.95088V8.84323L12.2149 13.8843C12.2963 13.9496 12.3976 13.9852 12.502 13.9851C12.6064 13.985 12.7076 13.9491 12.7889 13.8836Z" fill="black"/>
</svg>
