<svg width="26" height="25" viewBox="0 0 26 25" fill="none" xmlns="http://www.w3.org/2000/svg">
<path d="M12.5012 25C5.60737 25 0.0012207 19.3939 0.0012207 12.5C0.0012207 5.60613 5.60737 0 12.5012 0C19.3951 0 25.0012 5.60613 25.0012 12.5C25.0012 19.3939 19.3951 25 12.5012 25ZM12.5012 0.965785C6.14392 0.965785 0.967006 6.14268 0.967006 12.5C0.967006 18.8573 6.14392 24.0342 12.5012 24.0342C18.8585 24.0342 24.0354 18.8573 24.0354 12.5C24.0621 6.14268 18.8585 0.965785 12.5012 0.965785Z" fill="black"/>
<path fill-rule="evenodd" clip-rule="evenodd" d="M15.4786 10.6224H13.3058V9.03941C13.3058 8.55683 13.8138 8.44955 14.057 8.44955H15.4539V6.30334H13.8442C11.6447 6.30334 11.1348 7.91298 11.1348 8.9321V10.6465H9.55249V12.8461H11.1323V18.8008H13.3051V12.8461H15.1561L15.4786 10.6224Z" fill="black"/>
</svg>
