<svg width="26" height="25" viewBox="0 0 26 25" fill="none" xmlns="http://www.w3.org/2000/svg">
<path d="M9.46866 10.5957H7.18848V17.8115H9.46866V10.5957Z" fill="black"/>
<path d="M15.6672 10.5138C14.3801 10.5138 13.5483 11.2123 13.3877 11.7203V10.5932H10.8097C10.8364 11.1837 10.8097 17.809 10.8097 17.809H13.3851V13.9198C13.3851 13.7052 13.3851 13.4632 13.4385 13.3293C13.6289 12.8733 13.975 12.4441 14.6722 12.4441C15.5574 12.4441 15.9599 13.1146 15.9599 14.0804V17.809H18.5633V13.7852C18.5347 11.5609 17.2743 10.5138 15.6672 10.5138Z" fill="black"/>
<path d="M8.26156 7.18846C7.40308 7.18846 6.86462 7.72503 6.86462 8.44954C6.86462 9.148 7.40116 9.68326 8.23297 9.68326H8.25965C9.11813 9.68326 9.65659 9.14671 9.65659 8.42284C9.62928 7.72501 9.12004 7.18846 8.26156 7.18846Z" fill="black"/>
<path d="M12.4994 24.9999C5.60615 24.9999 0 19.3938 0 12.4999C0 5.60606 5.60615 -7.62939e-05 12.4994 -7.62939e-05C19.3926 -7.62939e-05 25.0013 5.60606 25.0013 12.4999C25.0013 19.3938 19.3932 24.9999 12.4994 24.9999ZM12.4994 0.965709C6.1427 0.965709 0.96515 6.14261 0.96515 12.4999C0.96515 18.8572 6.1427 24.0342 12.4994 24.0342C18.856 24.0342 24.0342 18.8572 24.0342 12.4999C24.0342 6.14261 18.8567 0.965709 12.4994 0.965709Z" fill="black"/>
</svg>
