<svg width="26" height="25" viewBox="0 0 26 25" fill="none" xmlns="http://www.w3.org/2000/svg">
<path d="M12.4994 24.9999C5.60615 24.9999 0 19.3938 0 12.4999C0 5.60606 5.60615 -7.62939e-05 12.4994 -7.62939e-05C19.3926 -7.62939e-05 25.0013 5.60606 25.0013 12.4999C25.0013 19.3938 19.3932 24.9999 12.4994 24.9999Z" fill="black"/>
<path d="M9.46872 10.5957H7.18854V17.8115H9.46872V10.5957Z" fill="white"/>
<path d="M15.6673 10.5138C14.3802 10.5138 13.5484 11.2123 13.3877 11.7202V10.5932H10.8098C10.8364 11.1837 10.8098 17.809 10.8098 17.809H13.3852V13.9198C13.3852 13.7052 13.3852 13.4632 13.4385 13.3292C13.629 12.8733 13.9751 12.4441 14.6723 12.4441C15.5574 12.4441 15.96 13.1146 15.96 14.0804V17.809H18.5634V13.7852C18.5348 11.5609 17.2744 10.5138 15.6673 10.5138Z" fill="white"/>
<path d="M8.26162 7.18845C7.40314 7.18845 6.86469 7.72503 6.86469 8.44953C6.86469 9.148 7.40122 9.68326 8.23303 9.68326H8.25971C9.11819 9.68326 9.65665 9.1467 9.65665 8.42283C9.62934 7.725 9.1201 7.18845 8.26162 7.18845Z" fill="white"/>
</svg>
