<svg width="26" height="25" viewBox="0 0 26 25" fill="none" xmlns="http://www.w3.org/2000/svg">
<path d="M17.9733 7.69838C17.5009 8.00147 16.9708 8.20339 16.4164 8.29143C16.1909 8.04672 15.9172 7.85128 15.6126 7.71742C15.3079 7.58356 14.9789 7.51417 14.6461 7.5136C13.305 7.5136 12.2053 8.61336 12.2053 10.0084C12.2098 10.1971 12.2276 10.3854 12.2586 10.5716C11.2896 10.5181 10.3432 10.2581 9.48276 9.80913C8.62236 9.36014 7.86782 8.7325 7.26966 7.96824C7.05061 8.35188 6.93937 8.7876 6.94772 9.22928C6.94772 10.0878 7.40364 10.8389 8.02083 11.3215C7.61826 11.3215 7.26966 11.1875 6.92106 10.9996V11.0262C6.92106 12.2327 7.75224 13.2531 8.87931 13.4671C8.6709 13.5333 8.45408 13.5695 8.23544 13.5744C8.08298 13.5796 7.93036 13.5707 7.77954 13.5477C8.10147 14.5401 8.98598 15.2621 10.0591 15.2913C9.21022 15.9826 8.14975 16.3614 7.05505 16.3644C6.86691 16.3689 6.67869 16.36 6.49182 16.3378C7.60042 17.061 8.89672 17.4434 10.2204 17.4375C14.6728 17.4375 17.1415 13.6277 17.1415 10.3557V10.0338C17.6229 9.68629 18.0325 9.24905 18.348 8.74608C17.8921 8.93657 17.4361 9.09531 16.951 9.12198C17.4095 8.74417 17.7854 8.2616 17.9733 7.69838Z" fill="black"/>
<path d="M12.5012 25C5.60737 25 0.0012207 19.3939 0.0012207 12.5C0.0012207 5.60613 5.60737 0 12.5012 0C19.3951 0 25.0012 5.60613 25.0012 12.5C25.0012 19.3939 19.4218 25 12.5012 25ZM12.5012 0.965785C6.14392 0.965785 0.967006 6.14268 0.967006 12.5C0.967006 18.8573 6.14392 24.0342 12.5012 24.0342C18.8585 24.0342 24.0361 18.8573 24.0361 12.5C24.0621 6.14268 18.8585 0.965785 12.5012 0.965785Z" fill="black"/>
</svg>
