<svg width="26" height="25" viewBox="0 0 26 25" fill="none" xmlns="http://www.w3.org/2000/svg">
<path d="M12.5013 25C5.60743 25 0.00128174 19.3939 0.00128174 12.5C0.00128174 5.60613 5.60743 0 12.5013 0C19.3951 0 25.0013 5.60613 25.0013 12.5C25.0013 19.3939 19.4218 25 12.5013 25Z" fill="black"/>
<path d="M17.9735 7.69838C17.501 8.00147 16.9709 8.20339 16.4165 8.29143C16.191 8.04672 15.9173 7.85128 15.6127 7.71742C15.308 7.58356 14.979 7.51417 14.6462 7.5136C13.3052 7.5136 12.2054 8.61336 12.2054 10.0084C12.2099 10.1971 12.2278 10.3854 12.2587 10.5716C11.2897 10.5181 10.3433 10.2581 9.48289 9.80913C8.62248 9.36014 7.86794 8.7325 7.26978 7.96824C7.05073 8.35188 6.93949 8.7876 6.94785 9.22928C6.94785 10.0878 7.40376 10.8389 8.02095 11.3215C7.61838 11.3215 7.26978 11.1875 6.92118 10.9996V11.0262C6.92118 12.2327 7.75236 13.2531 8.87943 13.4671C8.67102 13.5333 8.4542 13.5695 8.23557 13.5744C8.0831 13.5796 7.93048 13.5707 7.77966 13.5477C8.10159 14.5401 8.9861 15.2621 10.0592 15.2913C9.21034 15.9826 8.14988 16.3614 7.05517 16.3644C6.86703 16.3689 6.67882 16.36 6.49194 16.3378C7.60054 17.061 8.89684 17.4434 10.2205 17.4375C14.6729 17.4375 17.1416 13.6277 17.1416 10.3557V10.0338C17.623 9.68629 18.0327 9.24905 18.3481 8.74608C17.8922 8.93657 17.4363 9.09531 16.9512 9.12198C17.4096 8.74417 17.7855 8.2616 17.9735 7.69838Z" fill="white"/>
</svg>
