<?xml version="1.0" encoding="utf-8"?>
<!-- Generator: Adobe Illustrator 24.0.0, SVG Export Plug-In . SVG Version: 6.00 Build 0)  -->
<svg version="1.1" id="Layer_1" xmlns="http://www.w3.org/2000/svg" xmlns:xlink="http://www.w3.org/1999/xlink" x="0px" y="0px"
	 viewBox="0 0 412.5 261.2" style="enable-background:new 0 0 412.5 261.2;" xml:space="preserve">
<style type="text/css">
	.st0{fill:#2E2880;}
	.st1{fill:#75D78A;stroke:#2E2880;stroke-width:1.5274;stroke-miterlimit:10;}
	.st2{fill:#75D78A;}
</style>
<path class="st0" d="M5.4,0.8h44l13.8,13.7l4.8-13.7h24.5l19.8,19.7V0.8c0,0,28,0,30.8,0c2.7,0,12.6,1.6,14.2,2.9
	c1.6,1.3,12.1,11.7,12.1,11.7V0.8H187l36.2,36.4v-5.5L203.2,0.8h19.4l12.3,12.3l7.6-12.3h19.2l150.8,150.7v109.7H85.3L0.9,175.7
	l16.5-46.6h18L18,111.2V94.2L1.9,77.9v-13h21L5.4,47L5.4,0.8L5.4,0.8z"/>
<path class="st1" d="M48.4,35.3V47H5.4V0.8h42.9v11.8H21.9v5.7h25V29h-25v6.2L48.4,35.3L48.4,35.3z"/>
<path class="st1" d="M88.3,38.2H70.9L68.1,47H51.8L68.1,0.8h23.7L107.9,47H91.1L88.3,38.2z M85.3,28.9l-5.7-17.6L74,28.9H85.3z"/>
<path class="st1" d="M143.9,47l-14.9-19v19h-16.5V0.8H145c11,0,17.8,6.2,17.8,15.6c0,8.3-5.2,14-13.2,14.7l13.7,16L143.9,47
	L143.9,47z M138.2,23.2c4.9,0,7.5-1.9,7.5-5.6c0-3.4-2.4-5.2-7-5.2h-9.8v10.8H138.2z"/>
<path class="st1" d="M212,33.5V47h-42.5V0.8H186v32.8L212,33.5L212,33.5z"/>
<path class="st1" d="M261.1,0.8L241,31.6V47h-17.8V31.6L203.2,0.8h18.5l10.3,17l10.5-17H261.1z"/>
<path class="st1" d="M50.2,77.9H34.5v33.2H18V77.9h-16v-13h48.3V77.9z"/>
<path class="st1" d="M82.3,102.3H65l-2.8,8.9H45.8l16.3-46.2h23.7l16.2,46.2H85.2L82.3,102.3z M79.4,93.1l-5.7-17.6L68,93.1H79.4z"
	/>
<path class="st1" d="M148.9,97.7v13.5h-42.5V64.9H123v32.8H148.9z"/>
<path class="st1" d="M197.3,99.4v11.8h-43.1V64.9h42.9v11.8h-26.4v5.7h25v10.8h-25v6.2L197.3,99.4L197.3,99.4z"/>
<path class="st1" d="M256.9,64.9v46.2h-21.1L219.6,82v29.2h-14.7V64.9h21.7l15.7,28.7V64.9L256.9,64.9L256.9,64.9z"/>
<path class="st1" d="M310.5,77.9h-15.7v33.2h-16.5V77.9h-16.1v-13h48.3V77.9z"/>
<path class="st1" d="M37.6,166.5H20.2l-2.8,8.9H1.1l16.3-46.2h23.7l16.2,46.2H40.5L37.6,166.5z M34.6,157.2L29,139.6l-5.7,17.6H34.6
	z"/>
<path class="st1" d="M134.6,129.1L123,175.3h-21.1l-8.2-28.5l-7.7,28.5H66.8l-11.7-46.2h16.7l6.2,27l7.3-27h18.4l7.9,28.5l6.5-28.5
	H134.6z"/>
<path class="st1" d="M169,166.5h-17.4l-2.8,8.9h-16.3l16.3-46.2h23.6l16.2,46.2h-16.8L169,166.5z M166.1,157.2l-5.7-17.6l-5.7,17.6
	H166.1z"/>
<path class="st1" d="M224.6,175.3l-14.9-19v19h-16.5v-46.2h32.6c11,0,17.8,6.2,17.8,15.6c0,8.3-5.2,14-13.2,14.7l13.7,16H224.6z
	 M219,151.5c4.9,0,7.5-1.9,7.5-5.6c0-3.4-2.4-5.2-7-5.2h-9.8v10.8H219z"/>
<path class="st1" d="M250.2,129.1H276c19.2,0,28.6,9.7,28.6,22.9c0,12.7-9.5,23.4-30.5,23.4h-23.9V129.1z M273.9,163.6
	c8.5,0,13-4.6,13-11.7c0-6.4-3.7-11-12.1-11h-8.1v22.7H273.9z"/>
<path class="st1" d="M310,171v-12c5.6,3.5,12.9,6,20.4,6c5.2,0,7.7-0.9,7.7-3c0-1.8-1.4-2.8-6-3.6l-6.6-1.2
	c-11.1-2-15.9-6.8-15.9-14.5c0-8.8,7.7-15,23.6-15c9.8,0,16,2.5,19.4,4.6v11.5c-3.3-1.9-9.6-4-17.3-4c-6.1,0-8.5,1.1-8.5,2.8
	c0,1.5,1.2,2.2,5.4,2.8l7.4,1.2c10.7,1.8,15.8,5.9,15.8,14.3c0,9.6-9.3,15.9-23.3,15.9C323.1,176.7,315.3,174.3,310,171z"/>
<g>
	<path class="st2" d="M213.7,200.4c0.7-1.2,1.9-1.8,3.5-1.8c2.8,0,5.1,2.4,5.1,6.2c0,3.8-2.3,6.2-5.1,6.2c-1.6,0-2.8-0.7-3.5-1.8
		v1.6h-2.6v-15.9h2.6V200.4z M219.7,204.7c0-2.5-1.2-4-3-4c-1.7,0-3.1,1.3-3.1,4s1.3,4,3.1,4C218.4,208.8,219.7,207.2,219.7,204.7z"
		/>
	<path class="st2" d="M223.8,212.5h1c1.1,0,1.6-0.1,2.1-1.6l0.1-0.3l-4.3-11.7h2.9l2.7,8.5l2.7-8.5h2.7l-4.1,11.8
		c-1.1,3-1.9,3.9-4.5,3.9h-1.2L223.8,212.5L223.8,212.5z"/>
	<path class="st2" d="M253.5,210.6h-2.8v-7h-7.6v7h-2.8v-15.9h2.8v6.6h7.6v-6.6h2.8V210.6z"/>
	<path class="st2" d="M263.8,203.3v-0.2c0-2-1.2-2.6-2.5-2.6c-1.3,0-2.3,0.7-2.4,2.1h-2.6c0.2-2.4,2.2-4,5-4c2.8,0,5,1.3,5,5.1
		c0,0.6,0,2,0,3c0,1.5,0.1,3,0.4,4h-2.4c-0.1-0.5-0.2-0.8-0.2-1.6c-0.8,1.3-2.1,1.9-3.9,1.9c-2.6,0-4.4-1.4-4.4-3.5
		C255.8,204.5,259.5,203.7,263.8,203.3z M258.6,207.3c0,1,0.9,1.6,2.2,1.6c1.9,0,3.1-1,3.1-3v-0.9
		C260.1,205.4,258.6,206,258.6,207.3z"/>
	<path class="st2" d="M275.2,198.6c2.9,0,4,1.8,4,4.6v7.4h-2.6v-6.8c0-1.6-0.2-3.2-2.2-3.2s-2.7,1.5-2.7,3.7v6.3H269v-11.8h2.6v1.6
		C272.3,199.3,273.5,198.6,275.2,198.6z"/>
	<path class="st2" d="M292.3,194.8v15.9h-2.6v-1.6c-0.7,1.2-1.9,1.8-3.5,1.8c-2.8,0-5.1-2.4-5.1-6.2c0-3.8,2.3-6.2,5.1-6.2
		c1.6,0,2.8,0.7,3.5,1.8v-5.7H292.3z M283.8,204.7c0,2.5,1.2,4,3,4c1.7,0,3-1.3,3-4c0-2.7-1.3-4-3-4
		C285.1,200.7,283.8,202.3,283.8,204.7z"/>
	<path class="st2" d="M299.4,200.6c-1.1,0-2.2,0.5-2.2,1.3s0.6,1.2,1.6,1.4l1.7,0.3c2.4,0.5,4.2,1.2,4.2,3.5c0,2.5-2.3,3.8-5,3.8
		c-2.9,0-4.8-1.6-5.1-3.9h2.5c0.2,1.2,1.1,1.9,2.6,1.9c1.4,0,2.4-0.6,2.4-1.5s-0.9-1.4-2-1.6l-1.8-0.4c-2-0.4-3.5-1.3-3.5-3.4
		c0-2.1,2.2-3.4,4.8-3.4c2.3,0,4.4,1.1,4.9,3.5H302C301.7,201,300.7,200.6,299.4,200.6z"/>
	<path class="st2" d="M313,198.6c2.9,0,4,1.8,4,4.6v7.4h-2.6v-6.8c0-1.6-0.2-3.2-2.2-3.2s-2.7,1.5-2.7,3.7v6.3h-2.6v-15.9h2.6v5.7
		C310.1,199.3,311.3,198.6,313,198.6z"/>
	<path class="st2" d="M326.9,203.3v-0.2c0-2-1.2-2.6-2.5-2.6c-1.3,0-2.3,0.7-2.4,2.1h-2.6c0.2-2.4,2.2-4,5-4c2.8,0,5,1.3,5,5.1
		c0,0.6,0,2,0,3c0,1.5,0.1,3,0.4,4h-2.4c-0.1-0.5-0.2-0.8-0.2-1.6c-0.8,1.3-2.1,1.9-3.9,1.9c-2.6,0-4.4-1.4-4.4-3.5
		C319,204.5,322.6,203.7,326.9,203.3z M321.8,207.3c0,1,0.9,1.6,2.2,1.6c1.9,0,3.1-1,3.1-3v-0.9C323.3,205.4,321.8,206,321.8,207.3z
		"/>
	<path class="st2" d="M334.8,203.6l4.4-4.7h3.1l-4.5,4.8l5,7h-3l-3.7-5.1l-1.2,1.3v3.8h-2.6v-15.9h2.6L334.8,203.6L334.8,203.6z"/>
	<path class="st2" d="M348.6,208.8c1.4,0,2.4-0.5,2.9-1.6h2.6c-0.5,1.9-2.3,3.8-5.4,3.8c-3.8,0-6-2.9-6-6.3c0-3.5,2.4-6.1,5.8-6.1
		c3.6,0,5.9,2.9,5.6,6.9h-8.8C345.6,207.7,347.2,208.8,348.6,208.8z M351.6,203.6c-0.1-1.8-1.5-3-3-3c-1.2,0-2.9,0.7-3.1,3H351.6z"
		/>
</g>
</svg>
