<svg width="17" height="10" viewBox="0 0 17 10" fill="none" xmlns="http://www.w3.org/2000/svg">
<g clip-path="url(#clip0)">
<path d="M7.7 8.50001C7.5 8.30001 7.5 7.90001 7.7 7.60001L15.1 0.300012C15.3 1.22041e-05 15.7 1.22041e-05 16 0.300012L16.4 0.700012C16.6 0.900012 16.6 1.30001 16.4 1.60001L9 8.90001C8.8 9.10001 8.4 9.10001 8.1 8.90001L7.7 8.50001Z" fill="black"/>
<path d="M1.1 0.299994C1.3 0.0999939 1.7 0.0999939 2 0.299994L9.4 7.69999C9.6 7.89999 9.6 8.29999 9.4 8.59999L9 8.99999C8.8 9.19999 8.4 9.19999 8.1 8.99999L0.7 1.59999C0.5 1.39999 0.5 0.999994 0.7 0.699994L1.1 0.299994V0.299994Z" fill="black"/>
</g>
<defs>
<clipPath id="clip0">
<rect width="10" height="17" fill="white" transform="translate(17) rotate(90)"/>
</clipPath>
</defs>
</svg>
