<?xml version="1.0" encoding="utf-8"?>
<!-- Generator: Adobe Illustrator 22.0.0, SVG Export Plug-In . SVG Version: 6.00 Build 0)  -->
<svg version="1.1" id="Layer_1" xmlns="http://www.w3.org/2000/svg" xmlns:xlink="http://www.w3.org/1999/xlink" x="0px" y="0px"
	 viewBox="0 0 32 32" style="enable-background:new 0 0 32 32;" xml:space="preserve">
<style type="text/css">
	.st0{fill:#FFFFFF;}
</style>
<title>CLOSE</title>
<desc>Created with Sketch.</desc>
<path id="Path" class="st0" d="M31.6,28.9c0.5,0.5,0.5,1.3,0,1.7l-1,1c-0.5,0.5-1.3,0.5-1.7,0L0.4,3.1c-0.5-0.5-0.5-1.3,0-1.7l1-1
	c0.5-0.5,1.3-0.5,1.7,0L31.6,28.9z"/>
<path id="Path_1_" class="st0" d="M3.1,31.6c-0.5,0.5-1.3,0.5-1.7,0l-1-1c-0.5-0.5-0.5-1.3,0-1.7L28.9,0.4c0.5-0.5,1.3-0.5,1.7,0
	l1,1c0.5,0.5,0.5,1.3,0,1.7L3.1,31.6z"/>
</svg>
