<svg width="35" height="36" viewBox="0 0 35 36" fill="none" xmlns="http://www.w3.org/2000/svg" aria-labelledby="instaTitle" role="img">
  <title id="instaTitle">Instagram Icon</title>
<path fill-rule="evenodd" clip-rule="evenodd" d="M24.7364 0.092041C27.7605 0.092041 30.2663 1.14741 32.1054 2.98659C33.9446 4.83195 34.8704 7.3315 34.8704 10.3557V24.8284C34.8704 27.8526 33.815 30.4879 31.9758 32.3271C30.1305 34.1725 27.5013 35.092 24.6068 35.092H10.2636C7.36907 35.092 4.73373 34.1725 2.89455 32.3271C0.919591 30.4879 0 27.8526 0 24.8284V10.3557C0 4.30117 4.07953 0.092041 10.2636 0.092041H24.7364ZM29.1492 29.3708C30.402 28.2414 31.0316 26.4886 31.0316 24.4828H31.0254V10.7075C31.0254 8.70163 30.402 7.07229 29.2726 5.81943C28.0197 4.56039 26.3904 3.93704 24.2612 3.93704H10.4735C8.46764 3.93704 6.71486 4.56039 5.58543 5.68982C4.46218 6.81925 3.83266 8.57203 3.83266 10.5778V24.3594C3.83266 26.3652 4.46218 28.118 5.71504 29.3708C6.96791 30.5003 8.59725 31.1236 10.6031 31.1236H24.2612C26.267 31.1236 28.0197 30.5003 29.1492 29.3708ZM26.267 6.56567C25.1376 6.56567 24.2612 7.44206 24.2612 8.57149C24.2612 9.70092 25.1376 10.5773 26.267 10.5773C27.3964 10.5773 28.2728 9.70092 28.2728 8.57149C28.2728 7.44206 27.3964 6.56567 26.267 6.56567ZM17.3753 8.94686C12.7403 8.94686 8.85208 12.7055 8.85208 17.47C8.85208 22.105 12.6107 25.9932 17.3753 25.9932C22.1399 25.9932 26.0219 22.2346 26.0219 17.47C26.0219 12.7055 22.0103 8.94686 17.3753 8.94686ZM17.3753 22.284C14.7152 22.284 12.5551 20.1239 12.5551 17.4639C12.5551 14.8038 14.7091 12.6437 17.3753 12.6437C20.0353 12.6437 22.1954 14.8038 22.1954 17.4639C22.1954 20.1239 20.0353 22.284 17.3753 22.284Z" fill="white"/>
</svg>
