<svg width="146" height="158" viewBox="0 0 146 158" fill="none" xmlns="http://www.w3.org/2000/svg">
<path d="M8.15039 49.3228C3.55742 58.7697 1 69.3648 1 80.5863C1 93.8954 4.6013 106.37 10.9166 117.069" stroke="#F8A44E" stroke-width="1.56578" stroke-miterlimit="10" stroke-linecap="round" stroke-linejoin="round"/>
<path d="M135.605 115.66C141.399 105.273 144.739 93.3211 144.739 80.5861C144.739 69.3124 142.13 58.6651 137.537 49.166" stroke="#F8A44E" stroke-width="1.56578" stroke-miterlimit="10" stroke-linecap="round" stroke-linejoin="round"/>
<path d="M22.0332 123.593L16.3441 133.353L14.8827 131.579L16.0832 129.647L13.4735 126.464L11.3336 127.247L9.97656 125.576L20.6761 121.923L22.0332 123.593ZM17.0226 128.134L19.3191 124.376L15.1437 125.89L17.0226 128.134Z" fill="#F8A44E"/>
<path d="M26.3132 131.944L21.3027 138.103L19.7891 136.85L26.4698 128.656L28.8184 130.587L25.5825 138.625L32.7329 133.823L35.1338 135.754L28.4531 143.948L26.9395 142.696L31.95 136.537L24.904 141.078L23.286 139.773L26.3132 131.944Z" fill="#F8A44E"/>
<path d="M42.9109 140.034L41.5017 151.255L39.5184 150.211L39.8315 147.967L36.178 146.036L34.5078 147.602L32.6289 146.61L41.0319 139.042L42.9109 140.034ZM40.0925 146.192L40.7188 141.808L37.4829 144.835L40.0925 146.192Z" fill="#F8A44E"/>
<path d="M48.704 152.038L54.2886 153.812L53.7666 155.535L45.6768 152.977L46.1465 151.412L53.7666 146.245L48.7561 144.679L49.2781 143.009L56.7417 145.357L56.2719 146.923L48.704 152.038Z" fill="#F8A44E"/>
<path d="M58.6724 151.255C59.09 147.967 61.3864 146.088 64.518 146.454C67.6496 146.871 69.372 149.272 69.0066 152.56C68.5891 155.848 66.2926 157.779 63.161 157.362C60.0294 156.944 58.3071 154.491 58.6724 151.255ZM66.8667 152.247C67.1798 149.794 65.9794 148.28 64.3615 148.071C62.7435 147.863 61.1777 149.011 60.8645 151.464C60.5514 153.917 61.7518 155.431 63.3698 155.639C64.9878 155.848 66.5535 154.7 66.8667 152.247Z" fill="#F8A44E"/>
<path d="M75.1653 149.689L75.7394 157.779L73.7561 157.936L73.0254 147.341L75.7394 147.132L80.5412 154.909L79.9671 146.819L81.9504 146.662L82.6811 157.257L79.9671 157.466L75.1653 149.689Z" fill="#F8A44E"/>
<path d="M99.3313 153.291C96.3563 154.334 93.9554 152.925 92.8072 149.741C91.659 146.61 92.8072 143.948 95.6778 142.904C98.0265 142.069 100.114 142.8 101.158 144.783L99.2791 145.462C98.3918 144.209 97.2958 144.105 96.1997 144.47C94.6861 144.992 93.9554 146.662 94.7905 148.959C95.6256 151.359 97.2435 152.195 98.7049 151.673C99.9054 151.255 100.688 150.368 100.48 148.906L102.358 148.228C102.828 150.368 101.732 152.455 99.3313 153.291Z" fill="#F8A44E"/>
<path d="M107.108 137.685L115.876 144.835L113.893 145.984L112.171 144.522L108.622 146.61L109.039 148.854L107.212 149.95L105.281 138.781L107.108 137.685ZM110.814 143.322L107.473 140.451L108.308 144.783L110.814 143.322Z" fill="#F8A44E"/>
<path d="M118.642 137.476L121.304 140.66L119.686 142.017L112.849 133.927L115.51 131.683C118.172 129.438 119.842 129.334 121.252 131.004C122.035 131.944 122.243 133.092 121.617 134.397L126.367 136.38L124.592 137.894L120.312 136.067L118.642 137.476ZM117.598 136.276L118.903 135.18C120.156 134.136 120.312 133.249 119.634 132.466C118.851 131.526 117.807 131.892 116.763 132.831L115.51 133.875L117.598 136.276Z" fill="#F8A44E"/>
<path d="M131.534 122.392C134.77 125.054 134.039 127.716 131.899 130.326L129.916 132.779L121.722 126.046L123.705 123.593C125.793 120.983 128.246 119.731 131.534 122.392ZM124.279 125.42L129.968 130.065L130.594 129.334C131.795 127.821 132.63 126.098 130.177 124.063C127.724 122.079 126.158 123.228 124.958 124.689L124.279 125.42Z" fill="#F8A44E"/>
<path d="M25.6865 29.9069C27.9308 31.7336 28.1917 34.9174 24.7992 39.0406L18.1185 47.3393L5.07031 36.7441L12.0119 28.2367C14.8303 24.792 17.6488 24.2179 19.5277 25.7315C20.8325 26.7753 21.0935 28.2889 20.2584 30.0635C22.1374 28.4977 24.0685 28.6021 25.6865 29.9069ZM11.8031 34.6042L13.9431 36.3788L16.1352 33.717C16.9703 32.7253 16.9703 31.9424 16.344 31.3683C15.5611 30.742 14.8304 30.8986 13.9431 31.9946L11.8031 34.6042ZM21.2501 34.6042C20.5194 33.9779 19.6843 34.2389 18.6926 35.4915L16.3961 38.3099L18.797 40.2411L20.9891 37.527C22.033 36.2744 22.1374 35.3349 21.2501 34.6042Z" fill="#F8A44E"/>
<path d="M42.8576 24.5829L34.6634 21.3991L38.1603 27.3491L32.9932 30.4285L24.4336 15.9711L34.6112 9.96889C38.0559 7.93337 41.344 8.61188 43.0664 11.5347C44.58 14.0921 44.0059 16.8583 41.6572 18.5807L48.912 21.0338L42.8576 24.5829ZM36.6989 18.1632C38.2125 17.2759 38.6822 16.1798 38.0037 15.0316C37.3774 13.9355 36.2814 13.8312 34.8722 14.7184L31.7928 16.5452L33.7761 19.9377L36.6989 18.1632Z" fill="#F8A44E"/>
<path d="M50.3216 11.3262C49.4865 6.2635 53.0356 1.8793 59.7163 0.783254C66.2926 -0.312796 71.0943 2.71439 71.9294 7.77709C72.7645 12.7354 69.2154 17.3806 62.5869 18.4766C55.9584 19.5727 51.1567 16.2845 50.3216 11.3262ZM65.5619 8.87314C65.1965 6.52446 63.161 5.16745 60.4992 5.63719C57.7851 6.10692 56.3237 7.98586 56.6891 10.3345C57.1066 12.7354 59.09 14.1446 61.804 13.6749C64.518 13.2573 65.9794 11.274 65.5619 8.87314Z" fill="#F8A44E"/>
<path d="M99.4871 4.22778L95.8336 20.6163L88.3701 18.9462L84.8731 7.30716L82.5767 17.6935L77.3574 16.5453L81.0109 0.156738L88.7354 1.8791L92.0236 13.3093L94.2678 3.13173L99.4871 4.22778Z" fill="#F8A44E"/>
<path d="M116.607 27.9236L114.206 31.6815L100.166 22.6521L102.358 19.2074L113.893 16.8065L106.899 12.3179L109.3 8.56006L122.974 17.3285L120.834 20.6688L108.934 22.9653L116.607 27.9236Z" fill="#F8A44E"/>
<path d="M130.751 44.5206L127.41 47.1824L117.65 34.9693L130.751 24.4785L140.511 36.6394L137.171 39.3013L131.168 31.8377L129.55 33.1425L135.239 40.2407L132.16 42.6938L126.471 35.5956L124.696 37.0048L130.751 44.5206Z" fill="#F8A44E"/>
<path d="M57.0853 88.9386C57.0853 84.1875 54.1308 81.7919 47.9024 80.7938L43.5904 80.1151C41.115 79.7557 40.4363 79.3964 40.4363 78.518C40.4363 77.5199 41.7937 76.921 45.3871 76.921C49.8987 76.921 53.5319 78.1986 55.4882 79.2367V72.6889C53.7714 71.6907 50.9367 70.453 46.6647 70.1336V65.7817H41.1949V70.1336C33.8885 70.8523 30.375 74.1661 30.375 78.5979C30.375 82.9897 33.1299 85.7446 39.5978 86.9024L43.4706 87.5812C46.1456 87.9804 46.9442 88.5793 46.9442 89.5774C46.9442 90.7752 45.5068 91.2942 42.4725 91.2942C38.0807 91.2942 33.8485 89.8968 30.5746 87.9006V94.6879C33.2097 96.3249 36.8829 97.5626 41.1949 97.9219V101.914H46.6647V97.8021C53.0129 97.0036 57.0853 93.7297 57.0853 88.9386Z" fill="white"/>
<path d="M74.661 80.0751C72.1057 80.0751 69.9098 80.6341 68.3927 81.3927V77.3203H82.9256V70.5728H60.8068V86.7028C62.8031 85.9043 65.8374 85.1856 69.2311 85.1856C73.1837 85.1856 74.9005 86.4233 74.9005 88.2599C74.9005 89.9767 73.064 91.3342 69.0714 91.3342C65.6777 91.3342 62.7631 90.7353 60.2478 89.258V95.2868C62.324 96.7241 66.6359 97.882 70.7882 97.882C79.3722 97.882 84.2831 93.8495 84.2831 88.2599C84.2831 83.4289 80.7297 80.0751 74.661 80.0751Z" fill="white"/>
<path d="M101.473 97.882C110.257 97.882 115.886 92.2125 115.886 84.0677C115.886 75.7232 110.257 69.8941 101.473 69.8941C92.849 69.8941 87.0598 75.7232 87.0598 84.0278C87.0598 92.2125 92.849 97.882 101.473 97.882ZM101.473 90.3759C98.3987 90.3759 96.6419 87.9006 96.6419 84.0278C96.6419 80.0751 98.3987 77.4001 101.473 77.4001C104.667 77.4001 106.304 80.1151 106.304 84.0677C106.304 87.8606 104.667 90.3759 101.473 90.3759Z" fill="white"/>
</svg>
