<svg width="146" height="158" viewBox="0 0 146 158" fill="none" xmlns="http://www.w3.org/2000/svg">
<path d="M135.605 115.475C141.398 105.088 144.739 93.1363 144.739 80.4013C144.739 61.0377 137.066 43.5009 124.645 30.5571" stroke="#F3E02B" stroke-width="1.56578" stroke-miterlimit="10" stroke-linecap="round" stroke-linejoin="round"/>
<path d="M20.6767 30.9746C8.46357 43.8662 1 61.2464 1 80.4012C1 93.7104 4.6013 106.184 10.9166 116.884" stroke="#F3E02B" stroke-width="1.56578" stroke-miterlimit="10" stroke-linecap="round" stroke-linejoin="round"/>
<path d="M22.0341 123.408L16.3451 133.168L14.8837 131.393L16.0841 129.462L13.4745 126.279L11.3346 127.061L9.97754 125.391L20.6771 121.738L22.0341 123.408ZM17.0236 127.949L19.3201 124.191L15.1446 125.704L17.0236 127.949Z" fill="#F3E02B"/>
<path d="M26.3137 131.759L21.3031 137.918L19.7896 136.665L26.4702 128.471L28.8189 130.402L25.583 138.44L32.7334 133.638L35.1342 135.569L28.4536 143.763L26.94 142.511L31.9505 136.352L24.9044 140.893L23.2865 139.588L26.3137 131.759Z" fill="#F3E02B"/>
<path d="M42.9114 139.849L41.5022 151.07L39.5188 150.026L39.832 147.782L36.1785 145.851L34.5083 147.417L32.6294 146.425L41.0324 138.857L42.9114 139.849ZM40.093 146.007L40.7193 141.623L37.4833 144.65L40.093 146.007Z" fill="#F3E02B"/>
<path d="M48.7044 151.853L54.2891 153.627L53.7671 155.35L45.6772 152.792L46.147 151.227L53.7671 146.059L48.7566 144.494L49.2786 142.823L56.7421 145.172L56.2724 146.738L48.7044 151.853Z" fill="#F3E02B"/>
<path d="M58.6734 151.07C59.091 147.782 61.3874 145.903 64.519 146.268C67.6506 146.686 69.3729 149.087 69.0076 152.375C68.5901 155.663 66.2936 157.594 63.162 157.177C60.0304 156.759 58.3081 154.306 58.6734 151.07ZM66.8677 152.062C67.1808 149.609 65.9804 148.095 64.3624 147.886C62.7445 147.678 61.1787 148.826 60.8655 151.279C60.5524 153.732 61.7528 155.246 63.3708 155.454C64.9887 155.663 66.5545 154.515 66.8677 152.062Z" fill="#F3E02B"/>
<path d="M75.1663 149.504L75.7404 157.594L73.7571 157.751L73.0264 147.156L75.7404 146.947L80.5421 154.724L79.968 146.634L81.9513 146.477L82.682 157.072L79.968 157.281L75.1663 149.504Z" fill="#F3E02B"/>
<path d="M99.3318 153.105C96.3568 154.149 93.9559 152.74 92.8077 149.556C91.6594 146.425 92.8077 143.763 95.6783 142.719C98.027 141.884 100.115 142.615 101.159 144.598L99.2796 145.277C98.3923 144.024 97.2963 143.92 96.2002 144.285C94.6866 144.807 93.9559 146.477 94.791 148.773C95.6261 151.174 97.2441 152.009 98.7055 151.488C99.9059 151.07 100.689 150.183 100.48 148.721L102.359 148.043C102.829 150.183 101.733 152.27 99.3318 153.105Z" fill="#F3E02B"/>
<path d="M107.108 137.5L115.877 144.65L113.894 145.799L112.171 144.337L108.622 146.425L109.04 148.669L107.213 149.765L105.282 138.596L107.108 137.5ZM110.814 143.137L107.474 140.266L108.309 144.598L110.814 143.137Z" fill="#F3E02B"/>
<path d="M118.643 137.291L121.305 140.475L119.687 141.832L112.85 133.742L115.511 131.498C118.173 129.253 119.843 129.149 121.253 130.819C122.036 131.759 122.244 132.907 121.618 134.212L126.368 136.195L124.593 137.709L120.313 135.882L118.643 137.291ZM117.599 136.091L118.904 134.995C120.157 133.951 120.313 133.063 119.635 132.281C118.852 131.341 117.808 131.706 116.764 132.646L115.511 133.69L117.599 136.091Z" fill="#F3E02B"/>
<path d="M131.535 122.207C134.771 124.869 134.04 127.531 131.9 130.141L129.917 132.594L121.723 125.861L123.706 123.408C125.794 120.798 128.247 119.546 131.535 122.207ZM124.28 125.235L129.969 129.88L130.595 129.149C131.796 127.635 132.631 125.913 130.178 123.878C127.725 121.894 126.159 123.043 124.959 124.504L124.28 125.235Z" fill="#F3E02B"/>
<path d="M42.7022 12.3417L43.9027 14.2728C46.8777 19.0223 45.0509 23.5109 39.9882 26.6947C34.1426 30.3482 28.6624 29.3043 25.9483 24.9723C23.3387 20.8491 24.3304 15.421 31.1154 11.1934C33.986 9.41886 36.4913 8.68816 38.4746 8.375L41.0321 12.4982C39.3619 12.707 37.1698 13.4377 34.9255 14.7947C30.6457 17.4566 30.2803 20.0662 31.3764 21.8407C32.5768 23.7719 35.0299 24.085 37.6917 22.4149C39.5185 21.2666 40.3536 19.9096 40.197 18.6048L34.2992 22.2583L33.0466 18.3438L42.7022 12.3417Z" fill="#F3E02B"/>
<path d="M50.6353 11.0368C49.8524 5.97413 53.4016 1.64212 60.0822 0.546072C66.6585 -0.497785 71.4603 2.5294 72.2432 7.5921C73.0261 12.5504 69.4769 17.1956 62.8485 18.2394C56.22 19.3355 51.4182 15.9951 50.6353 11.0368ZM65.8756 8.68815C65.5103 6.33948 63.527 4.98246 60.8129 5.4C58.0989 5.81755 56.6375 7.74868 57.0029 10.0974C57.3682 12.4982 59.4037 13.9074 62.1178 13.4899C64.7796 13.0202 66.241 11.089 65.8756 8.68815Z" fill="#F3E02B"/>
<path d="M94.8429 15.108L93.8513 19.9098L78.7153 16.8304L82.1079 0.389648L88.0057 1.59008L85.6048 13.2291L94.8429 15.108Z" fill="#F3E02B"/>
<path d="M106.9 7.07031L114.885 11.9764C120.783 15.6299 121.879 20.4317 119.374 24.5027C116.973 28.4172 111.962 29.9308 105.49 25.9119L98.0791 21.319L106.9 7.07031ZM107.63 22.2584C110.24 23.8764 112.537 23.3545 113.894 21.1102C115.094 19.1269 114.833 16.9869 112.276 15.369L109.77 13.8554L105.438 20.9014L107.63 22.2584Z" fill="#F3E02B"/>
<path d="M44.0623 88.7541C44.0623 84.0029 41.1078 81.6074 34.8794 80.6092L30.5674 79.9305C28.0921 79.5712 27.4133 79.2118 27.4133 78.3335C27.4133 77.3353 28.7708 76.7364 32.3641 76.7364C36.8757 76.7364 40.5089 78.0141 42.4653 79.0521V72.5043C40.7485 71.5062 37.9138 70.2685 33.6417 69.9491V65.5972H28.1719V69.9491C20.8655 70.6677 17.3521 73.9816 17.3521 78.4133C17.3521 82.8051 20.1069 85.56 26.5749 86.7178L30.4477 87.3966C33.1227 87.7958 33.9212 88.3947 33.9212 89.3929C33.9212 90.5906 32.4839 91.1097 29.4495 91.1097C25.0577 91.1097 20.8256 89.7123 17.5517 87.716V94.5034C20.1868 96.1403 23.8599 97.378 28.1719 97.7373V101.73H33.6417V97.6176C39.9899 96.819 44.0623 93.5451 44.0623 88.7541Z" fill="white"/>
<path d="M56.3279 70.3483L46.1868 75.8181V83.5238L54.8107 78.8525V96.9787H64.1134V70.3483H56.3279Z" fill="white"/>
<path d="M82.6795 97.6974C91.4631 97.6974 97.0927 92.028 97.0927 83.8831C97.0927 75.5387 91.4631 69.7095 82.6795 69.7095C74.0555 69.7095 68.2663 75.5387 68.2663 83.8432C68.2663 92.028 74.0555 97.6974 82.6795 97.6974ZM82.6795 90.1914C79.6052 90.1914 77.8485 87.716 77.8485 83.8432C77.8485 79.8906 79.6052 77.2155 82.6795 77.2155C85.8735 77.2155 87.5105 79.9305 87.5105 83.8831C87.5105 87.6761 85.8735 90.1914 82.6795 90.1914Z" fill="white"/>
<path d="M114.495 97.6974C123.279 97.6974 128.908 92.028 128.908 83.8831C128.908 75.5387 123.279 69.7095 114.495 69.7095C105.871 69.7095 100.082 75.5387 100.082 83.8432C100.082 92.028 105.871 97.6974 114.495 97.6974ZM114.495 90.1914C111.421 90.1914 109.664 87.716 109.664 83.8432C109.664 79.8906 111.421 77.2155 114.495 77.2155C117.689 77.2155 119.326 79.9305 119.326 83.8831C119.326 87.6761 117.689 90.1914 114.495 90.1914Z" fill="white"/>
</svg>
