<svg width="146" height="159" viewBox="0 0 146 159" fill="none" xmlns="http://www.w3.org/2000/svg">
<path d="M135.605 115.816C141.399 105.43 144.739 93.4775 144.739 80.7425C144.739 65.9719 140.303 52.2452 132.63 40.8149" stroke="#CEDBEE" stroke-width="1.56578" stroke-miterlimit="10" stroke-linecap="round" stroke-linejoin="round"/>
<path d="M12.5346 41.6499C5.22761 52.8714 1 66.2849 1 80.6901C1 93.9993 4.6013 106.473 10.9166 117.173" stroke="#CEDBEE" stroke-width="1.56578" stroke-miterlimit="10" stroke-linecap="round" stroke-linejoin="round"/>
<path d="M22.0341 123.749L16.3451 133.509L14.8836 131.735L16.0841 129.804L13.4745 126.62L11.3345 127.403L9.97754 125.733L20.6771 122.079L22.0341 123.749ZM17.0236 128.29L19.32 124.532L15.1446 126.046L17.0236 128.29Z" fill="#CEDBEE"/>
<path d="M26.3137 132.1L21.3032 138.259L19.7896 137.006L26.4702 128.812L28.8189 130.743L25.5829 138.781L32.7334 133.979L35.1343 135.91L28.4535 144.105L26.94 142.852L31.9505 136.693L24.9044 141.234L23.2865 139.929L26.3137 132.1Z" fill="#CEDBEE"/>
<path d="M42.9114 140.19L41.5022 151.411L39.5189 150.368L39.832 148.123L36.1785 146.192L34.5084 147.758L32.6294 146.766L41.0325 139.198L42.9114 140.19ZM40.093 146.349L40.7193 141.964L37.4834 144.992L40.093 146.349Z" fill="#CEDBEE"/>
<path d="M48.7045 152.194L54.2891 153.969L53.7671 155.691L45.6772 153.134L46.147 151.568L53.7671 146.401L48.7566 144.835L49.2786 143.165L56.7421 145.513L56.2724 147.079L48.7045 152.194Z" fill="#CEDBEE"/>
<path d="M58.6734 151.412C59.091 148.123 61.3875 146.244 64.519 146.61C67.6506 147.027 69.3729 149.428 69.0076 152.716C68.59 156.004 66.2936 157.936 63.162 157.518C60.0304 157.101 58.3081 154.647 58.6734 151.412ZM66.8677 152.403C67.1809 149.95 65.9804 148.437 64.3624 148.228C62.7445 148.019 61.1787 149.167 60.8655 151.62C60.5524 154.073 61.7528 155.587 63.3708 155.796C64.9887 156.004 66.5545 154.856 66.8677 152.403Z" fill="#CEDBEE"/>
<path d="M75.1663 149.846L75.7404 157.935L73.7571 158.092L73.0264 147.497L75.7404 147.288L80.5421 155.065L79.968 146.975L81.9513 146.818L82.682 157.414L79.968 157.622L75.1663 149.846Z" fill="#CEDBEE"/>
<path d="M99.3318 153.447C96.3568 154.491 93.9559 153.081 92.8077 149.898C91.6594 146.766 92.8077 144.104 95.6783 143.06C98.027 142.225 100.115 142.956 101.159 144.939L99.2796 145.618C98.3923 144.365 97.2963 144.261 96.2002 144.626C94.6866 145.148 93.9559 146.818 94.791 149.115C95.6261 151.516 97.2441 152.351 98.7055 151.829C99.9059 151.411 100.689 150.524 100.48 149.063L102.359 148.384C102.829 150.524 101.733 152.612 99.3318 153.447Z" fill="#CEDBEE"/>
<path d="M107.108 137.841L115.876 144.992L113.893 146.14L112.171 144.679L108.622 146.766L109.039 149.011L107.212 150.107L105.281 138.937L107.108 137.841ZM110.814 143.478L107.473 140.608L108.308 144.94L110.814 143.478Z" fill="#CEDBEE"/>
<path d="M118.643 137.632L121.305 140.816L119.687 142.173L112.85 134.083L115.511 131.839C118.173 129.595 119.843 129.49 121.253 131.16C122.036 132.1 122.244 133.248 121.618 134.553L126.368 136.536L124.593 138.05L120.313 136.223L118.643 137.632ZM117.599 136.432L118.904 135.336C120.157 134.292 120.313 133.405 119.635 132.622C118.852 131.682 117.808 132.048 116.764 132.987L115.511 134.031L117.599 136.432Z" fill="#CEDBEE"/>
<path d="M131.534 122.549C134.77 125.211 134.04 127.872 131.9 130.482L129.916 132.935L121.722 126.202L123.705 123.749C125.793 121.14 128.246 119.887 131.534 122.549ZM124.28 125.576L129.969 130.221L130.595 129.49C131.795 127.977 132.63 126.254 130.177 124.219C127.724 122.236 126.159 123.384 124.958 124.845L124.28 125.576Z" fill="#CEDBEE"/>
<path d="M21.6684 39.8234L18.6412 36.6918C20.9899 36.1699 23.4952 34.9694 25.4785 33.0383C26.8355 31.7335 27.253 30.8462 26.7311 30.3243C26.2614 29.8545 25.6872 29.9589 24.278 30.8984L22.2425 32.2554C18.85 34.5519 16.3969 34.4997 14.4136 32.5164C12.1693 30.2199 12.5868 26.6708 16.7623 22.5997C19.3197 20.0945 21.564 19.2072 22.9732 18.894L25.896 21.869C24.5912 22.2344 22.3991 23.226 20.3636 25.2094C18.7456 26.7752 18.4324 27.6624 18.85 28.08C19.2153 28.4975 19.7373 28.3409 20.9377 27.4015L23.182 25.8357C26.4179 23.5914 28.8188 23.3826 30.9065 25.5747C33.3596 28.08 32.5245 32.0466 28.871 35.5957C26.5223 37.9966 23.9127 39.3014 21.6684 39.8234Z" fill="#CEDBEE"/>
<path d="M31.272 11.9521L36.5434 9.0293L44.7377 23.7477L39.4663 26.6705L31.272 11.9521Z" fill="#CEDBEE"/>
<path d="M64.1009 12.4218L65.3013 17.1713L50.322 20.9814L46.1987 4.69724L51.9922 3.23584L54.9149 14.7705L64.1009 12.4218Z" fill="#CEDBEE"/>
<path d="M87.953 1.20043L80.0719 17.589L73.2868 17.1714L67.2847 0L73.7044 0.36535L76.8882 11.3258L81.4289 0.782892L87.953 1.20043Z" fill="#CEDBEE"/>
<path d="M106.691 21.5035L105.02 25.4179L90.6152 19.3114L97.1915 3.8623L111.545 9.91667L109.874 13.8311L101.054 10.0733L100.271 11.9522L108.622 15.5013L107.108 19.1026L98.7573 15.5535L97.87 17.6412L106.691 21.5035Z" fill="#CEDBEE"/>
<path d="M118.016 36.0655L118.747 27.3493L114.05 32.412L109.666 28.3409L121.096 16.0234L129.76 24.0089C132.683 26.723 132.944 30.0633 130.647 32.5686C128.612 34.7607 125.793 35.0216 123.497 33.1949L123.183 40.815L118.016 36.0655ZM122.401 28.3409C123.705 29.5414 124.854 29.698 125.741 28.7063C126.576 27.7668 126.419 26.723 125.167 25.5747L122.557 23.1739L119.895 26.0445L122.401 28.3409Z" fill="#CEDBEE"/>
<path d="M59.9613 89.0949C59.9613 84.3437 57.0068 81.9482 50.7783 80.95L46.4664 80.2713C43.991 79.912 43.3122 79.5526 43.3122 78.6743C43.3122 77.6761 44.6697 77.0772 48.263 77.0772C52.7746 77.0772 56.4079 78.3549 58.3642 79.3929V72.8451C56.6474 71.847 53.8127 70.6093 49.5406 70.2899V65.938H44.0708V70.2899C36.7644 71.0085 33.251 74.3224 33.251 78.7541C33.251 83.146 36.0058 85.9008 42.4738 87.0587L46.3466 87.7374C49.0216 88.1367 49.8201 88.7355 49.8201 89.7337C49.8201 90.9315 48.3828 91.4505 45.3485 91.4505C40.9566 91.4505 36.7245 90.0531 33.4506 88.0568V94.8442C36.0857 96.4811 39.7589 97.7188 44.0708 98.0782V102.071H49.5406V97.9584C55.8888 97.1599 59.9613 93.886 59.9613 89.0949Z" fill="white"/>
<path d="M62.3652 70.7291V77.6362H76.8183L62.8443 97.3196H73.4645L85.9613 77.9556V70.7291H62.3652Z" fill="white"/>
<path d="M103.387 80.2314C100.832 80.2314 98.6361 80.7903 97.1189 81.5489V77.4765H111.652V70.7291H89.5331V86.859C91.5294 86.0605 94.5637 85.3419 97.9574 85.3419C101.91 85.3419 103.627 86.5796 103.627 88.4161C103.627 90.1329 101.79 91.4904 97.7977 91.4904C94.404 91.4904 91.4894 90.8915 88.9741 89.4143V95.4431C91.0502 96.8804 95.3622 98.0382 99.5145 98.0382C108.099 98.0382 113.009 94.0057 113.009 88.4161C113.009 83.5851 109.456 80.2314 103.387 80.2314Z" fill="white"/>
</svg>
