<?xml version="1.0" encoding="utf-8"?>
<!-- Generator: Adobe Illustrator 25.2.1, SVG Export Plug-In . SVG Version: 6.00 Build 0)  -->
<svg version="1.1" xmlns="http://www.w3.org/2000/svg" xmlns:xlink="http://www.w3.org/1999/xlink" x="0px" y="0px"
	 viewBox="0 0 1440 700" style="enable-background:new 0 0 1440 700;" xml:space="preserve">
<style type="text/css">
	.st0{opacity:0.1;fill:url(#SVGID_1_);}
	.st1{opacity:0.1692;fill:url(#SVGID_2_);}
	.st2{opacity:0.2385;fill:url(#SVGID_3_);}
	.st3{opacity:0.3077;fill:url(#SVGID_4_);}
	.st4{opacity:0.3769;fill:url(#SVGID_5_);}
	.st5{opacity:0.4462;fill:url(#SVGID_6_);}
	.st6{opacity:0.5154;fill:url(#SVGID_7_);}
	.st7{opacity:0.5846;fill:url(#SVGID_8_);}
	.st8{opacity:0.6538;fill:url(#SVGID_9_);}
	.st9{opacity:0.7231;fill:url(#SVGID_10_);}
	.st10{opacity:0.7923;fill:url(#SVGID_11_);}
	.st11{opacity:0.8615;fill:url(#SVGID_12_);}
	.st12{opacity:0.9308;fill:url(#SVGID_13_);}
	.st13{fill:url(#SVGID_14_);}
	.st14{fill:#F3E02B;}
	.st15{fill:#FFFFFF;}
	.st16{display:none;}
	.st17{display:inline;}
	.st18{opacity:0.1;fill:url(#SVGID_15_);}
	.st19{opacity:0.1692;fill:url(#SVGID_16_);}
	.st20{opacity:0.2385;fill:url(#SVGID_17_);}
	.st21{opacity:0.3077;fill:url(#SVGID_18_);}
	.st22{opacity:0.3769;fill:url(#SVGID_19_);}
	.st23{opacity:0.4462;fill:url(#SVGID_20_);}
	.st24{opacity:0.5154;fill:url(#SVGID_21_);}
	.st25{opacity:0.5846;fill:url(#SVGID_22_);}
	.st26{opacity:0.6538;fill:url(#SVGID_23_);}
	.st27{opacity:0.7231;fill:url(#SVGID_24_);}
	.st28{opacity:0.7923;fill:url(#SVGID_25_);}
	.st29{opacity:0.8615;fill:url(#SVGID_26_);}
	.st30{opacity:0.9308;fill:url(#SVGID_27_);}
	.st31{fill:url(#SVGID_28_);}
</style>
<g id="Layer_1">
	<g>
		<linearGradient id="SVGID_1_" gradientUnits="userSpaceOnUse" x1="478.8907" y1="524.5782" x2="415.1857" y2="323.5095">
			<stop  offset="0" style="stop-color:#AAF8EC"/>
			<stop  offset="1" style="stop-color:#6490F2"/>
		</linearGradient>
		<path class="st0" d="M591.8,595.7c-5.7,13.5-13.9,25.6-24.3,36c-0.4,0.4-0.7,0.7-1.1,1.1c-11.4-9.4-20.8-21.2-27.4-34.4
			c-7.3-14.7-11.1-30.5-11.1-47.1c0-16.5,3.7-32.2,11-46.9c6.5-13.1,15.9-24.9,27.2-34.3c0.5,0.4,0.9,0.9,1.4,1.3
			c10.4,10.4,18.6,22.5,24.3,36c5.9,14,8.9,28.8,8.9,44.1C600.7,566.9,597.7,581.8,591.8,595.7z M531.6,656
			c-14,5.9-28.8,8.9-44.1,8.9s-30.1-3-44.1-8.9c-10.9-4.6-21-10.9-29.9-18.6c11.8-9.9,21.6-22.2,28.4-35.9
			c7.8-15.6,11.8-32.5,11.8-50.1c0-17.5-3.9-34.3-11.7-49.9c-6.8-13.7-16.5-26-28.2-35.9c8.9-7.6,18.8-13.8,29.6-18.4
			c14-5.9,28.8-8.9,44.1-8.9s30.1,3,44.1,8.9c10.8,4.6,20.8,10.7,29.6,18.4c-11.7,9.9-21.4,22.2-28.2,35.9
			c-7.8,15.6-11.7,32.4-11.7,49.9c0,17.6,4,34.4,11.8,50.1c6.8,13.7,16.6,26.1,28.4,35.9C552.5,645.1,542.5,651.4,531.6,656z
			 M598,504.9c-6-14.3-14.7-27.1-25.7-38.1c-11-11-23.9-19.7-38.1-25.7c-14.8-6.3-30.5-9.4-46.7-9.4c-16.2,0-31.9,3.2-46.7,9.4
			c-14.3,6-27.1,14.7-38.1,25.7c-11,11-19.7,23.9-25.7,38.1c-6.3,14.8-9.4,30.5-9.4,46.7c0,16.2,3.2,31.9,9.4,46.7
			c6,14.3,14.7,27.1,25.7,38.1c11,11,23.9,19.7,38.1,25.7c14.8,6.3,30.5,9.4,46.7,9.4c16.2,0,31.9-3.2,46.7-9.4
			c14.3-6,27.1-14.7,38.1-25.7c11-11,19.7-23.9,25.7-38.1c6.3-14.8,9.4-30.5,9.4-46.7C607.5,535.4,604.3,519.7,598,504.9z
			 M383.1,595.7c-5.9-14-8.9-28.8-8.9-44.1c0-15.3,3-30.1,8.9-44.1c5.7-13.5,13.9-25.6,24.3-36c0.4-0.4,0.9-0.9,1.4-1.3
			c11.3,9.4,20.7,21.2,27.2,34.3c7.3,14.6,11,30.4,11,46.9c0,16.5-3.7,32.4-11.1,47.1c-6.6,13.1-16,25-27.4,34.4
			c-0.4-0.3-0.7-0.7-1.1-1.1C397,621.3,388.8,609.2,383.1,595.7z"/>
		<linearGradient id="SVGID_2_" gradientUnits="userSpaceOnUse" x1="518.17" y1="512.1333" x2="454.4651" y2="311.0646">
			<stop  offset="0" style="stop-color:#AAF8EC"/>
			<stop  offset="1" style="stop-color:#6490F2"/>
		</linearGradient>
		<path class="st1" d="M625.8,566.5c-5.7,13.5-13.9,25.6-24.3,36c-0.4,0.4-0.7,0.7-1.1,1.1c-11.4-9.4-20.8-21.2-27.4-34.4
			c-7.3-14.7-11.1-30.5-11.1-47.1c0-16.5,3.7-32.2,11-46.9c6.5-13.1,15.9-24.9,27.2-34.3c0.5,0.4,0.9,0.9,1.4,1.3
			c10.4,10.4,18.6,22.5,24.3,36c5.9,14,8.9,28.8,8.9,44.1C634.7,537.7,631.7,552.6,625.8,566.5z M565.5,626.8
			c-14,5.9-28.8,8.9-44.1,8.9s-30.1-3-44.1-8.9c-10.9-4.6-21-10.9-29.9-18.6c11.8-9.9,21.6-22.2,28.4-35.9
			c7.8-15.6,11.8-32.5,11.8-50.1c0-17.5-3.9-34.3-11.7-49.9c-6.8-13.7-16.5-26-28.2-35.9c8.9-7.6,18.8-13.8,29.6-18.4
			c14-5.9,28.8-8.9,44.1-8.9s30.1,3,44.1,8.9c10.8,4.6,20.8,10.7,29.6,18.4c-11.7,9.9-21.4,22.2-28.2,35.9
			c-7.8,15.6-11.7,32.4-11.7,49.9c0,17.6,4,34.4,11.8,50.1c6.8,13.7,16.6,26.1,28.4,35.9C586.5,615.9,576.5,622.2,565.5,626.8z
			 M632,475.7c-6-14.3-14.7-27.1-25.7-38.1c-11-11-23.9-19.7-38.1-25.7c-14.8-6.3-30.5-9.4-46.7-9.4c-16.2,0-31.9,3.2-46.7,9.4
			c-14.3,6-27.1,14.7-38.1,25.7c-11,11-19.7,23.9-25.7,38.1c-6.3,14.8-9.4,30.5-9.4,46.7c0,16.2,3.2,31.9,9.4,46.7
			c6,14.3,14.7,27.1,25.7,38.1c11,11,23.9,19.7,38.1,25.7c14.8,6.3,30.5,9.4,46.7,9.4c16.2,0,31.9-3.2,46.7-9.4
			c14.3-6,27.1-14.7,38.1-25.7c11-11,19.7-23.9,25.7-38.1c6.3-14.8,9.4-30.5,9.4-46.7C641.4,506.2,638.3,490.5,632,475.7z
			 M417.1,566.5c-5.9-14-8.9-28.8-8.9-44.1c0-15.3,3-30.1,8.9-44.1c5.7-13.5,13.9-25.6,24.3-36c0.4-0.4,0.9-0.9,1.4-1.3
			c11.3,9.4,20.7,21.2,27.2,34.3c7.3,14.6,11,30.4,11,46.9c0,16.5-3.7,32.4-11.1,47.1c-6.6,13.1-16,25-27.4,34.4
			c-0.4-0.3-0.7-0.7-1.1-1.1C430.9,592.1,422.8,580,417.1,566.5z"/>
		<linearGradient id="SVGID_3_" gradientUnits="userSpaceOnUse" x1="557.4495" y1="499.6883" x2="493.7445" y2="298.6196">
			<stop  offset="0" style="stop-color:#AAF8EC"/>
			<stop  offset="1" style="stop-color:#6490F2"/>
		</linearGradient>
		<path class="st2" d="M659.8,537.3c-5.7,13.5-13.9,25.6-24.3,36c-0.4,0.4-0.7,0.7-1.1,1.1C623,565,613.6,553.2,607,540
			c-7.3-14.7-11.1-30.5-11.1-47.1c0-16.5,3.7-32.2,11-46.9c6.5-13.1,15.9-24.9,27.2-34.3c0.5,0.4,0.9,0.9,1.4,1.3
			c10.4,10.4,18.6,22.5,24.3,36c5.9,14,8.9,28.8,8.9,44.1S665.7,523.3,659.8,537.3z M599.5,597.6c-14,5.9-28.8,8.9-44.1,8.9
			s-30.1-3-44.1-8.9c-10.9-4.6-21-10.9-29.9-18.6c11.8-9.9,21.6-22.2,28.4-35.9c7.8-15.6,11.8-32.5,11.8-50.1
			c0-17.5-3.9-34.3-11.7-49.9c-6.8-13.7-16.5-26-28.2-35.9c8.9-7.6,18.8-13.8,29.6-18.4c14-5.9,28.8-8.9,44.1-8.9s30.1,3,44.1,8.9
			c10.8,4.6,20.8,10.7,29.6,18.4c-11.7,9.9-21.4,22.2-28.2,35.9c-7.8,15.6-11.7,32.4-11.7,49.9c0,17.6,4,34.4,11.8,50.1
			c6.8,13.7,16.6,26.1,28.4,35.9C620.5,586.7,610.4,593,599.5,597.6z M666,446.5c-6-14.3-14.7-27.1-25.7-38.1
			c-11-11-23.9-19.7-38.1-25.7c-14.8-6.3-30.5-9.4-46.7-9.4s-31.9,3.2-46.7,9.4c-14.3,6-27.1,14.7-38.1,25.7
			c-11,11-19.7,23.9-25.7,38.1c-6.3,14.8-9.4,30.5-9.4,46.7s3.2,31.9,9.4,46.7c6,14.3,14.7,27.1,25.7,38.1
			c11,11,23.9,19.7,38.1,25.7c14.8,6.3,30.5,9.4,46.7,9.4s31.9-3.2,46.7-9.4c14.3-6,27.1-14.7,38.1-25.7c11-11,19.7-23.9,25.7-38.1
			c6.3-14.8,9.4-30.5,9.4-46.7S672.2,461.3,666,446.5z M451,537.3c-5.9-14-8.9-28.8-8.9-44.1s3-30.1,8.9-44.1
			c5.7-13.5,13.9-25.6,24.3-36c0.4-0.4,0.9-0.9,1.4-1.3c11.3,9.4,20.7,21.2,27.2,34.3c7.3,14.6,11,30.4,11,46.9
			c0,16.5-3.7,32.4-11.1,47.1c-6.6,13.1-16,25-27.4,34.4c-0.4-0.3-0.7-0.7-1.1-1.1C464.9,562.9,456.7,550.8,451,537.3z"/>
		<linearGradient id="SVGID_4_" gradientUnits="userSpaceOnUse" x1="596.7288" y1="487.2434" x2="533.0239" y2="286.1747">
			<stop  offset="0" style="stop-color:#AAF8EC"/>
			<stop  offset="1" style="stop-color:#6490F2"/>
		</linearGradient>
		<path class="st3" d="M693.7,508.1c-5.7,13.5-13.9,25.6-24.3,36c-0.4,0.4-0.7,0.7-1.1,1.1c-11.4-9.4-20.8-21.2-27.4-34.4
			c-7.3-14.7-11.1-30.5-11.1-47.1c0-16.5,3.7-32.2,11-46.9c6.5-13.1,15.9-24.9,27.2-34.3c0.5,0.4,0.9,0.9,1.4,1.3
			c10.4,10.4,18.6,22.5,24.3,36c5.9,14,8.9,28.8,8.9,44.1C702.6,479.3,699.6,494.1,693.7,508.1z M633.5,568.4
			c-14,5.9-28.8,8.9-44.1,8.9s-30.1-3-44.1-8.9c-10.9-4.6-21-10.9-29.9-18.6c11.8-9.9,21.6-22.2,28.4-35.9
			c7.8-15.6,11.8-32.5,11.8-50.1c0-17.5-3.9-34.3-11.7-49.9c-6.8-13.7-16.5-26-28.2-35.9c8.9-7.6,18.8-13.8,29.6-18.4
			c14-5.9,28.8-8.9,44.1-8.9s30.1,3,44.1,8.9c10.8,4.6,20.8,10.7,29.6,18.4c-11.7,9.9-21.4,22.2-28.2,35.9
			c-7.8,15.6-11.7,32.4-11.7,49.9c0,17.6,4,34.4,11.8,50.1c6.8,13.7,16.6,26.1,28.4,35.9C654.4,557.5,644.4,563.7,633.5,568.4z
			 M699.9,417.3c-6-14.3-14.7-27.1-25.7-38.1c-11-11-23.9-19.7-38.1-25.7c-14.8-6.3-30.5-9.4-46.7-9.4s-31.9,3.2-46.7,9.4
			c-14.3,6-27.1,14.7-38.1,25.7c-11,11-19.7,23.9-25.7,38.1c-6.3,14.8-9.4,30.5-9.4,46.7c0,16.2,3.2,31.9,9.4,46.7
			c6,14.3,14.7,27.1,25.7,38.1c11,11,23.9,19.7,38.1,25.7c14.8,6.3,30.5,9.4,46.7,9.4s31.9-3.2,46.7-9.4c14.3-6,27.1-14.7,38.1-25.7
			c11-11,19.7-23.9,25.7-38.1c6.3-14.8,9.4-30.5,9.4-46.7C709.4,447.8,706.2,432.1,699.9,417.3z M485,508.1
			c-5.9-14-8.9-28.8-8.9-44.1c0-15.3,3-30.1,8.9-44.1c5.7-13.5,13.9-25.6,24.3-36c0.4-0.4,0.9-0.9,1.4-1.3
			c11.3,9.4,20.7,21.2,27.2,34.3c7.3,14.6,11,30.4,11,46.9c0,16.5-3.7,32.4-11.1,47.1c-6.6,13.1-16,25-27.4,34.4
			c-0.4-0.3-0.7-0.7-1.1-1.1C498.9,533.7,490.7,521.6,485,508.1z"/>
		<linearGradient id="SVGID_5_" gradientUnits="userSpaceOnUse" x1="636.0082" y1="474.7984" x2="572.3033" y2="273.7297">
			<stop  offset="0" style="stop-color:#AAF8EC"/>
			<stop  offset="1" style="stop-color:#6490F2"/>
		</linearGradient>
		<path class="st4" d="M727.7,478.9c-5.7,13.5-13.9,25.6-24.3,36c-0.4,0.4-0.7,0.7-1.1,1.1c-11.4-9.4-20.8-21.2-27.4-34.4
			c-7.3-14.7-11.1-30.5-11.1-47.1c0-16.5,3.7-32.2,11-46.9c6.5-13.1,15.9-24.9,27.2-34.3c0.5,0.4,0.9,0.9,1.4,1.3
			c10.4,10.4,18.6,22.5,24.3,36c5.9,14,8.9,28.8,8.9,44.1C736.6,450.1,733.6,464.9,727.7,478.9z M667.4,539.2
			c-14,5.9-28.8,8.9-44.1,8.9s-30.1-3-44.1-8.9c-10.9-4.6-21-10.9-29.9-18.6c11.8-9.9,21.6-22.2,28.4-35.9
			c7.8-15.6,11.8-32.5,11.8-50.1c0-17.5-3.9-34.3-11.7-49.9c-6.8-13.7-16.5-26-28.2-35.9c8.9-7.6,18.8-13.8,29.6-18.4
			c14-5.9,28.8-8.9,44.1-8.9s30.1,3,44.1,8.9c10.8,4.6,20.8,10.7,29.6,18.4c-11.7,9.9-21.4,22.2-28.2,35.9
			c-7.8,15.6-11.7,32.4-11.7,49.9c0,17.6,4,34.4,11.8,50.1c6.8,13.7,16.6,26.1,28.4,35.9C688.4,528.3,678.4,534.5,667.4,539.2z
			 M733.9,388.1c-6-14.3-14.7-27.1-25.7-38.1c-11-11-23.9-19.7-38.1-25.7c-14.8-6.3-30.5-9.4-46.7-9.4s-31.9,3.2-46.7,9.4
			c-14.3,6-27.1,14.7-38.1,25.7c-11,11-19.7,23.9-25.7,38.1c-6.3,14.8-9.4,30.5-9.4,46.7c0,16.2,3.2,31.9,9.4,46.7
			c6,14.3,14.7,27.1,25.7,38.1c11,11,23.9,19.7,38.1,25.7c14.8,6.3,30.5,9.4,46.7,9.4s31.9-3.2,46.7-9.4c14.3-6,27.1-14.7,38.1-25.7
			c11-11,19.7-23.9,25.7-38.1c6.3-14.8,9.4-30.5,9.4-46.7C743.3,418.6,740.2,402.9,733.9,388.1z M519,478.9
			c-5.9-14-8.9-28.8-8.9-44.1c0-15.3,3-30.1,8.9-44.1c5.7-13.5,13.9-25.6,24.3-36c0.4-0.4,0.9-0.9,1.4-1.3
			c11.3,9.4,20.7,21.2,27.2,34.3c7.3,14.6,11,30.4,11,46.9c0,16.5-3.7,32.4-11.1,47.1c-6.6,13.1-16,25-27.4,34.4
			c-0.4-0.3-0.7-0.7-1.1-1.1C532.8,504.5,524.7,492.4,519,478.9z"/>
		<linearGradient id="SVGID_6_" gradientUnits="userSpaceOnUse" x1="675.2877" y1="462.3535" x2="611.5827" y2="261.2847">
			<stop  offset="0" style="stop-color:#AAF8EC"/>
			<stop  offset="1" style="stop-color:#6490F2"/>
		</linearGradient>
		<path class="st5" d="M761.7,449.7c-5.7,13.5-13.9,25.6-24.3,36c-0.4,0.4-0.7,0.7-1.1,1.1c-11.4-9.4-20.8-21.2-27.4-34.4
			c-7.3-14.7-11.1-30.5-11.1-47.1c0-16.5,3.7-32.2,11-46.9c6.5-13.1,15.9-24.9,27.2-34.3c0.5,0.4,0.9,0.9,1.4,1.3
			c10.4,10.4,18.6,22.5,24.3,36c5.9,14,8.9,28.8,8.9,44.1C770.6,420.9,767.6,435.7,761.7,449.7z M701.4,509.9
			c-14,5.9-28.8,8.9-44.1,8.9s-30.1-3-44.1-8.9c-10.9-4.6-21-10.9-29.9-18.6c11.8-9.9,21.6-22.2,28.4-35.9
			c7.8-15.6,11.8-32.5,11.8-50.1c0-17.5-3.9-34.3-11.7-49.9c-6.8-13.7-16.5-26-28.2-35.9c8.9-7.6,18.8-13.8,29.6-18.4
			c14-5.9,28.8-8.9,44.1-8.9s30.1,3,44.1,8.9c10.8,4.6,20.8,10.7,29.6,18.4c-11.7,9.9-21.4,22.2-28.2,35.9
			c-7.8,15.6-11.7,32.4-11.7,49.9c0,17.6,4,34.4,11.8,50.1c6.8,13.7,16.6,26.1,28.4,35.9C722.4,499.1,712.3,505.3,701.4,509.9z
			 M767.9,358.9c-6-14.3-14.7-27.1-25.7-38.1c-11-11-23.9-19.7-38.1-25.7c-14.8-6.3-30.5-9.4-46.7-9.4s-31.9,3.2-46.7,9.4
			c-14.3,6-27.1,14.7-38.1,25.7c-11,11-19.7,23.9-25.7,38.1c-6.3,14.8-9.4,30.5-9.4,46.7c0,16.2,3.2,31.9,9.4,46.7
			c6,14.3,14.7,27.1,25.7,38.1c11,11,23.9,19.7,38.1,25.7c14.8,6.3,30.5,9.4,46.7,9.4s31.9-3.2,46.7-9.4c14.3-6,27.1-14.7,38.1-25.7
			c11-11,19.7-23.9,25.7-38.1c6.3-14.8,9.4-30.5,9.4-46.7C777.3,389.4,774.1,373.7,767.9,358.9z M552.9,449.7
			c-5.9-14-8.9-28.8-8.9-44.1c0-15.3,3-30.1,8.9-44.1c5.7-13.5,13.9-25.6,24.3-36c0.4-0.4,0.9-0.9,1.4-1.3
			c11.3,9.4,20.7,21.2,27.2,34.3c7.3,14.6,11,30.4,11,46.9c0,16.5-3.7,32.4-11.1,47.1c-6.6,13.1-16,25-27.4,34.4
			c-0.4-0.3-0.7-0.7-1.1-1.1C566.8,475.3,558.6,463.1,552.9,449.7z"/>
		<linearGradient id="SVGID_7_" gradientUnits="userSpaceOnUse" x1="714.567" y1="449.9085" x2="650.8621" y2="248.8398">
			<stop  offset="0" style="stop-color:#AAF8EC"/>
			<stop  offset="1" style="stop-color:#6490F2"/>
		</linearGradient>
		<path class="st6" d="M795.6,420.4c-5.7,13.5-13.9,25.6-24.3,36c-0.4,0.4-0.7,0.7-1.1,1.1c-11.4-9.4-20.8-21.2-27.4-34.4
			c-7.3-14.7-11.1-30.5-11.1-47.1c0-16.5,3.7-32.2,11-46.9c6.5-13.1,15.9-24.9,27.2-34.3c0.5,0.4,0.9,0.9,1.4,1.3
			c10.4,10.4,18.6,22.5,24.3,36c5.9,14,8.9,28.8,8.9,44.1C804.5,391.7,801.5,406.5,795.6,420.4z M735.4,480.7
			c-14,5.9-28.8,8.9-44.1,8.9s-30.1-3-44.1-8.9c-10.9-4.6-21-10.9-29.9-18.6c11.8-9.9,21.6-22.2,28.4-35.9
			c7.8-15.6,11.8-32.5,11.8-50.1c0-17.5-3.9-34.3-11.7-49.9c-6.8-13.7-16.5-26-28.2-35.9c8.9-7.6,18.8-13.8,29.6-18.4
			c14-5.9,28.8-8.9,44.1-8.9s30.1,3,44.1,8.9c10.8,4.6,20.8,10.7,29.6,18.4c-11.7,9.9-21.4,22.2-28.2,35.9
			c-7.8,15.6-11.7,32.4-11.7,49.9c0,17.6,4,34.4,11.8,50.1c6.8,13.7,16.6,26.1,28.4,35.9C756.3,469.9,746.3,476.1,735.4,480.7z
			 M801.8,329.6c-6-14.3-14.7-27.1-25.7-38.1c-11-11-23.9-19.7-38.1-25.7c-14.8-6.3-30.5-9.4-46.7-9.4s-31.9,3.2-46.7,9.4
			c-14.3,6-27.1,14.7-38.1,25.7c-11,11-19.7,23.9-25.7,38.1c-6.3,14.8-9.4,30.5-9.4,46.7c0,16.2,3.2,31.9,9.4,46.7
			c6,14.3,14.7,27.1,25.7,38.1c11,11,23.9,19.7,38.1,25.7c14.8,6.3,30.5,9.4,46.7,9.4s31.9-3.2,46.7-9.4c14.3-6,27.1-14.7,38.1-25.7
			c11-11,19.7-23.9,25.7-38.1c6.3-14.8,9.4-30.5,9.4-46.7C811.3,360.2,808.1,344.4,801.8,329.6z M586.9,420.4
			c-5.9-14-8.9-28.8-8.9-44.1c0-15.3,3-30.1,8.9-44.1c5.7-13.5,13.9-25.6,24.3-36c0.4-0.4,0.9-0.9,1.4-1.3
			c11.3,9.4,20.7,21.2,27.2,34.3c7.3,14.6,11,30.4,11,46.9c0,16.5-3.7,32.4-11.1,47.1c-6.6,13.1-16,25-27.4,34.4
			c-0.4-0.3-0.7-0.7-1.1-1.1C600.8,446.1,592.6,433.9,586.9,420.4z"/>
		<linearGradient id="SVGID_8_" gradientUnits="userSpaceOnUse" x1="753.8464" y1="437.4635" x2="690.1415" y2="236.3948">
			<stop  offset="0" style="stop-color:#AAF8EC"/>
			<stop  offset="1" style="stop-color:#6490F2"/>
		</linearGradient>
		<path class="st7" d="M829.6,391.2c-5.7,13.5-13.9,25.6-24.3,36c-0.4,0.4-0.7,0.7-1.1,1.1c-11.4-9.4-20.8-21.2-27.4-34.4
			c-7.3-14.7-11.1-30.5-11.1-47.1c0-16.5,3.7-32.2,11-46.9c6.5-13.1,15.9-24.9,27.2-34.3c0.5,0.4,0.9,0.9,1.4,1.3
			c10.4,10.4,18.6,22.5,24.3,36c5.9,14,8.9,28.8,8.9,44.1S835.5,377.3,829.6,391.2z M769.3,451.5c-14,5.9-28.8,8.9-44.1,8.9
			s-30.1-3-44.1-8.9c-10.9-4.6-21-10.9-29.9-18.6c11.8-9.9,21.6-22.2,28.4-35.9c7.8-15.6,11.8-32.5,11.8-50.1
			c0-17.5-3.9-34.3-11.7-49.9c-6.8-13.7-16.5-26-28.2-35.9c8.9-7.6,18.8-13.8,29.6-18.4c14-5.9,28.8-8.9,44.1-8.9s30.1,3,44.1,8.9
			c10.8,4.6,20.8,10.7,29.6,18.4c-11.7,9.9-21.4,22.2-28.2,35.9c-7.8,15.6-11.7,32.4-11.7,49.9c0,17.6,4,34.4,11.8,50.1
			c6.8,13.7,16.6,26.1,28.4,35.9C790.3,440.6,780.3,446.9,769.3,451.5z M835.8,300.4c-6-14.3-14.7-27.1-25.7-38.1
			c-11-11-23.9-19.7-38.1-25.7c-14.8-6.3-30.5-9.4-46.7-9.4s-31.9,3.2-46.7,9.4c-14.3,6-27.1,14.7-38.1,25.7
			c-11,11-19.7,23.9-25.7,38.1c-6.3,14.8-9.4,30.5-9.4,46.7c0,16.2,3.2,31.9,9.4,46.7c6,14.3,14.7,27.1,25.7,38.1
			c11,11,23.9,19.7,38.1,25.7c14.8,6.3,30.5,9.4,46.7,9.4s31.9-3.2,46.7-9.4c14.3-6,27.1-14.7,38.1-25.7c11-11,19.7-23.9,25.7-38.1
			c6.3-14.8,9.4-30.5,9.4-46.7C845.2,330.9,842.1,315.2,835.8,300.4z M620.9,391.2c-5.9-14-8.9-28.8-8.9-44.1s3-30.1,8.9-44.1
			c5.7-13.5,13.9-25.6,24.3-36c0.4-0.4,0.9-0.9,1.4-1.3c11.3,9.4,20.7,21.2,27.2,34.3c7.3,14.6,11,30.4,11,46.9
			c0,16.5-3.7,32.4-11.1,47.1c-6.6,13.1-16,25-27.4,34.4c-0.4-0.3-0.7-0.7-1.1-1.1C634.7,416.8,626.6,404.7,620.9,391.2z"/>
		<linearGradient id="SVGID_9_" gradientUnits="userSpaceOnUse" x1="793.1259" y1="425.0186" x2="729.4209" y2="223.9499">
			<stop  offset="0" style="stop-color:#AAF8EC"/>
			<stop  offset="1" style="stop-color:#6490F2"/>
		</linearGradient>
		<path class="st8" d="M863.6,362c-5.7,13.5-13.9,25.6-24.3,36c-0.4,0.4-0.7,0.7-1.1,1.1c-11.4-9.4-20.8-21.2-27.4-34.4
			c-7.3-14.7-11.1-30.5-11.1-47.1c0-16.5,3.7-32.2,11-46.9c6.5-13.1,15.9-24.9,27.2-34.3c0.5,0.4,0.9,0.9,1.4,1.3
			c10.4,10.4,18.6,22.5,24.3,36c5.9,14,8.9,28.8,8.9,44.1C872.5,333.2,869.5,348.1,863.6,362z M803.3,422.3
			c-14,5.9-28.8,8.9-44.1,8.9s-30.1-3-44.1-8.9c-10.9-4.6-21-10.9-29.9-18.6c11.8-9.9,21.6-22.2,28.4-35.9
			c7.8-15.6,11.8-32.5,11.8-50.1c0-17.5-3.9-34.3-11.7-49.9c-6.8-13.7-16.5-26-28.2-35.9c8.9-7.6,18.8-13.8,29.6-18.4
			c14-5.9,28.8-8.9,44.1-8.9s30.1,3,44.1,8.9c10.8,4.6,20.8,10.7,29.6,18.4c-11.7,9.9-21.4,22.2-28.2,35.9
			c-7.8,15.6-11.7,32.4-11.7,49.9c0,17.6,4,34.4,11.8,50.1c6.8,13.7,16.6,26.1,28.4,35.9C824.3,411.4,814.2,417.7,803.3,422.3z
			 M869.8,271.2c-6-14.3-14.7-27.1-25.7-38.1c-11-11-23.9-19.7-38.1-25.7c-14.8-6.3-30.5-9.4-46.7-9.4s-31.9,3.2-46.7,9.4
			c-14.3,6-27.1,14.7-38.1,25.7c-11,11-19.7,23.9-25.7,38.1c-6.3,14.8-9.4,30.5-9.4,46.7c0,16.2,3.2,31.9,9.4,46.7
			c6,14.3,14.7,27.1,25.7,38.1c11,11,23.9,19.7,38.1,25.7c14.8,6.3,30.5,9.4,46.7,9.4s31.9-3.2,46.7-9.4c14.3-6,27.1-14.7,38.1-25.7
			c11-11,19.7-23.9,25.7-38.1c6.3-14.8,9.4-30.5,9.4-46.7C879.2,301.7,876,286,869.8,271.2z M654.8,362c-5.9-14-8.9-28.8-8.9-44.1
			c0-15.3,3-30.1,8.9-44.1c5.7-13.5,13.9-25.6,24.3-36c0.4-0.4,0.9-0.9,1.4-1.3c11.3,9.4,20.7,21.2,27.2,34.3
			c7.3,14.6,11,30.4,11,46.9c0,16.5-3.7,32.4-11.1,47.1c-6.6,13.1-16,25-27.4,34.4c-0.4-0.3-0.7-0.7-1.1-1.1
			C668.7,387.6,660.5,375.5,654.8,362z"/>
		<linearGradient id="SVGID_10_" gradientUnits="userSpaceOnUse" x1="832.4052" y1="412.5736" x2="768.7003" y2="211.5049">
			<stop  offset="0" style="stop-color:#AAF8EC"/>
			<stop  offset="1" style="stop-color:#6490F2"/>
		</linearGradient>
		<path class="st9" d="M897.5,332.8c-5.7,13.5-13.9,25.6-24.3,36c-0.4,0.4-0.7,0.7-1.1,1.1c-11.4-9.4-20.8-21.2-27.4-34.4
			c-7.3-14.7-11.1-30.5-11.1-47.1c0-16.5,3.7-32.2,11-46.9c6.5-13.1,15.9-24.9,27.2-34.3c0.5,0.4,0.9,0.9,1.4,1.3
			c10.4,10.4,18.6,22.5,24.3,36c5.9,14,8.9,28.8,8.9,44.1C906.4,304,903.4,318.8,897.5,332.8z M837.3,393.1
			c-14,5.9-28.8,8.9-44.1,8.9s-30.1-3-44.1-8.9c-10.9-4.6-21-10.9-29.9-18.6c11.8-9.9,21.6-22.2,28.4-35.9
			c7.8-15.6,11.8-32.5,11.8-50.1c0-17.5-3.9-34.3-11.7-49.9c-6.8-13.7-16.5-26-28.2-35.9c8.9-7.6,18.8-13.8,29.6-18.4
			c14-5.9,28.8-8.9,44.1-8.9s30.1,3,44.1,8.9c10.8,4.6,20.8,10.7,29.6,18.4c-11.7,9.9-21.4,22.2-28.2,35.9
			c-7.8,15.6-11.7,32.4-11.7,49.9c0,17.6,4,34.4,11.8,50.1c6.8,13.7,16.6,26.1,28.4,35.9C858.2,382.2,848.2,388.5,837.3,393.1z
			 M903.7,242c-6-14.3-14.7-27.1-25.7-38.1c-11-11-23.9-19.7-38.1-25.7c-14.8-6.3-30.5-9.4-46.7-9.4c-16.2,0-31.9,3.2-46.7,9.4
			c-14.3,6-27.1,14.7-38.1,25.7c-11,11-19.7,23.9-25.7,38.1c-6.3,14.8-9.4,30.5-9.4,46.7c0,16.2,3.2,31.9,9.4,46.7
			c6,14.3,14.7,27.1,25.7,38.1c11,11,23.9,19.7,38.1,25.7c14.8,6.3,30.5,9.4,46.7,9.4c16.2,0,31.9-3.2,46.7-9.4
			c14.3-6,27.1-14.7,38.1-25.7c11-11,19.7-23.9,25.7-38.1c6.3-14.8,9.4-30.5,9.4-46.7C913.2,272.5,910,256.8,903.7,242z
			 M688.8,332.8c-5.9-14-8.9-28.8-8.9-44.1c0-15.3,3-30.1,8.9-44.1c5.7-13.5,13.9-25.6,24.3-36c0.4-0.4,0.9-0.9,1.4-1.3
			c11.3,9.4,20.7,21.2,27.2,34.3c7.3,14.6,11,30.4,11,46.9c0,16.5-3.7,32.4-11.1,47.1c-6.6,13.1-16,25-27.4,34.4
			c-0.4-0.3-0.7-0.7-1.1-1.1C702.7,358.4,694.5,346.3,688.8,332.8z"/>
		<linearGradient id="SVGID_11_" gradientUnits="userSpaceOnUse" x1="871.6846" y1="400.1287" x2="807.9797" y2="199.06">
			<stop  offset="0" style="stop-color:#AAF8EC"/>
			<stop  offset="1" style="stop-color:#6490F2"/>
		</linearGradient>
		<path class="st10" d="M931.5,303.6c-5.7,13.5-13.9,25.6-24.3,36c-0.4,0.4-0.7,0.7-1.1,1.1c-11.4-9.4-20.8-21.2-27.4-34.4
			c-7.3-14.7-11.1-30.5-11.1-47.1c0-16.5,3.7-32.2,11-46.9c6.5-13.1,15.9-24.9,27.2-34.3c0.5,0.4,0.9,0.9,1.4,1.3
			c10.4,10.4,18.6,22.5,24.3,36c5.9,14,8.9,28.8,8.9,44.1S937.4,289.6,931.5,303.6z M871.2,363.9c-14,5.9-28.8,8.9-44.1,8.9
			s-30.1-3-44.1-8.9c-10.9-4.6-21-10.9-29.9-18.6c11.8-9.9,21.6-22.2,28.4-35.9c7.8-15.6,11.8-32.5,11.8-50.1
			c0-17.5-3.9-34.3-11.7-49.9c-6.8-13.7-16.5-26-28.2-35.9c8.9-7.6,18.8-13.8,29.6-18.4c14-5.9,28.8-8.9,44.1-8.9s30.1,3,44.1,8.9
			c10.8,4.6,20.8,10.7,29.6,18.4c-11.7,9.9-21.4,22.2-28.2,35.9c-7.8,15.6-11.7,32.4-11.7,49.9c0,17.6,4,34.4,11.8,50.1
			c6.8,13.7,16.6,26.1,28.4,35.9C892.2,353,882.2,359.2,871.2,363.9z M937.7,212.8c-6-14.3-14.7-27.1-25.7-38.1
			c-11-11-23.9-19.7-38.1-25.7c-14.8-6.3-30.5-9.4-46.7-9.4c-16.2,0-31.9,3.2-46.7,9.4c-14.3,6-27.1,14.7-38.1,25.7
			c-11,11-19.7,23.9-25.7,38.1c-6.3,14.8-9.4,30.5-9.4,46.7s3.2,31.9,9.4,46.7c6,14.3,14.7,27.1,25.7,38.1
			c11,11,23.9,19.7,38.1,25.7c14.8,6.3,30.5,9.4,46.7,9.4c16.2,0,31.9-3.2,46.7-9.4c14.3-6,27.1-14.7,38.1-25.7
			c11-11,19.7-23.9,25.7-38.1c6.3-14.8,9.4-30.5,9.4-46.7S944,227.6,937.7,212.8z M722.8,303.6c-5.9-14-8.9-28.8-8.9-44.1
			s3-30.1,8.9-44.1c5.7-13.5,13.9-25.6,24.3-36c0.4-0.4,0.9-0.9,1.4-1.3c11.3,9.4,20.7,21.2,27.2,34.3c7.3,14.6,11,30.4,11,46.9
			c0,16.5-3.7,32.4-11.1,47.1c-6.6,13.1-16,25-27.4,34.4c-0.4-0.3-0.7-0.7-1.1-1.1C736.6,329.2,728.5,317.1,722.8,303.6z"/>
		<linearGradient id="SVGID_12_" gradientUnits="userSpaceOnUse" x1="910.964" y1="387.6837" x2="847.2591" y2="186.615">
			<stop  offset="0" style="stop-color:#AAF8EC"/>
			<stop  offset="1" style="stop-color:#6490F2"/>
		</linearGradient>
		<path class="st11" d="M965.5,274.4c-5.7,13.5-13.9,25.6-24.3,36c-0.4,0.4-0.7,0.7-1.1,1.1c-11.4-9.4-20.8-21.2-27.4-34.4
			c-7.3-14.7-11.1-30.5-11.1-47.1c0-16.5,3.7-32.2,11-46.9c6.5-13.1,15.9-24.9,27.2-34.3c0.5,0.4,0.9,0.9,1.4,1.3
			c10.4,10.4,18.6,22.5,24.3,36c5.9,14,8.9,28.8,8.9,44.1S971.4,260.4,965.5,274.4z M905.2,334.7c-14,5.9-28.8,8.9-44.1,8.9
			s-30.1-3-44.1-8.9c-10.9-4.6-21-10.9-29.9-18.6c11.8-9.9,21.6-22.2,28.4-35.9c7.8-15.6,11.8-32.5,11.8-50.1
			c0-17.5-3.9-34.3-11.7-49.9c-6.8-13.7-16.5-26-28.2-35.9c8.9-7.6,18.8-13.8,29.6-18.4c14-5.9,28.8-8.9,44.1-8.9s30.1,3,44.1,8.9
			c10.8,4.6,20.8,10.7,29.6,18.4c-11.7,9.9-21.4,22.2-28.2,35.9c-7.8,15.6-11.7,32.4-11.7,49.9c0,17.6,4,34.4,11.8,50.1
			c6.8,13.7,16.6,26.1,28.4,35.9C926.2,323.8,916.1,330,905.2,334.7z M971.7,183.6c-6-14.3-14.7-27.1-25.7-38.1
			c-11-11-23.9-19.7-38.1-25.7c-14.8-6.3-30.5-9.4-46.7-9.4c-16.2,0-31.9,3.2-46.7,9.4c-14.3,6-27.1,14.7-38.1,25.7
			c-11,11-19.7,23.9-25.7,38.1c-6.3,14.8-9.4,30.5-9.4,46.7s3.2,31.9,9.4,46.7c6,14.3,14.7,27.1,25.7,38.1
			c11,11,23.9,19.7,38.1,25.7c14.8,6.3,30.5,9.4,46.7,9.4c16.2,0,31.9-3.2,46.7-9.4c14.3-6,27.1-14.7,38.1-25.7
			c11-11,19.7-23.9,25.7-38.1c6.3-14.8,9.4-30.5,9.4-46.7S977.9,198.4,971.7,183.6z M756.7,274.4c-5.9-14-8.9-28.8-8.9-44.1
			s3-30.1,8.9-44.1c5.7-13.5,13.9-25.6,24.3-36c0.4-0.4,0.9-0.9,1.4-1.3c11.3,9.4,20.7,21.2,27.2,34.3c7.3,14.6,11,30.4,11,46.9
			c0,16.5-3.7,32.4-11.1,47.1c-6.6,13.1-16,25-27.4,34.4c-0.4-0.3-0.7-0.7-1.1-1.1C770.6,300,762.4,287.9,756.7,274.4z"/>
		<linearGradient id="SVGID_13_" gradientUnits="userSpaceOnUse" x1="950.2434" y1="375.2388" x2="886.5385" y2="174.17">
			<stop  offset="0" style="stop-color:#AAF8EC"/>
			<stop  offset="1" style="stop-color:#6490F2"/>
		</linearGradient>
		<path class="st12" d="M999.4,245.2c-5.7,13.5-13.9,25.6-24.3,36c-0.4,0.4-0.7,0.7-1.1,1.1c-11.4-9.4-20.8-21.2-27.4-34.4
			c-7.3-14.7-11.1-30.5-11.1-47.1c0-16.5,3.7-32.2,11-46.9c6.5-13.1,15.9-24.9,27.2-34.3c0.5,0.4,0.9,0.9,1.4,1.3
			c10.4,10.4,18.6,22.5,24.3,36c5.9,14,8.9,28.8,8.9,44.1S1005.3,231.2,999.4,245.2z M939.2,305.4c-14,5.9-28.8,8.9-44.1,8.9
			s-30.1-3-44.1-8.9c-10.9-4.6-21-10.9-29.9-18.6c11.8-9.9,21.6-22.2,28.4-35.9c7.8-15.6,11.8-32.5,11.8-50.1
			c0-17.5-3.9-34.3-11.7-49.9c-6.8-13.7-16.5-26-28.2-35.9c8.9-7.6,18.8-13.8,29.6-18.4c14-5.9,28.8-8.9,44.1-8.9s30.1,3,44.1,8.9
			c10.8,4.6,20.8,10.7,29.6,18.4c-11.7,9.9-21.4,22.2-28.2,35.9c-7.8,15.6-11.7,32.4-11.7,49.9c0,17.6,4,34.4,11.8,50.1
			c6.8,13.7,16.6,26.1,28.4,35.9C960.1,294.6,950.1,300.8,939.2,305.4z M1005.6,154.4c-6-14.3-14.7-27.1-25.7-38.1
			c-11-11-23.9-19.7-38.1-25.7c-14.8-6.3-30.5-9.4-46.7-9.4c-16.2,0-31.9,3.2-46.7,9.4c-14.3,6-27.1,14.7-38.1,25.7
			c-11,11-19.7,23.9-25.7,38.1c-6.3,14.8-9.4,30.5-9.4,46.7s3.2,31.9,9.4,46.7c6,14.3,14.7,27.1,25.7,38.1
			c11,11,23.9,19.7,38.1,25.7c14.8,6.3,30.5,9.4,46.7,9.4c16.2,0,31.9-3.2,46.7-9.4c14.3-6,27.1-14.7,38.1-25.7
			c11-11,19.7-23.9,25.7-38.1c6.3-14.8,9.4-30.5,9.4-46.7S1011.9,169.2,1005.6,154.4z M790.7,245.2c-5.9-14-8.9-28.8-8.9-44.1
			s3-30.1,8.9-44.1c5.7-13.5,13.9-25.6,24.3-36c0.4-0.4,0.9-0.9,1.4-1.3c11.3,9.4,20.7,21.2,27.2,34.3c7.3,14.6,11,30.4,11,46.9
			c0,16.5-3.7,32.4-11.1,47.1c-6.6,13.1-16,25-27.4,34.4c-0.4-0.3-0.7-0.7-1.1-1.1C804.6,270.8,796.4,258.7,790.7,245.2z"/>
		<linearGradient id="SVGID_14_" gradientUnits="userSpaceOnUse" x1="989.5228" y1="362.7938" x2="925.8179" y2="161.7251">
			<stop  offset="0" style="stop-color:#AAF8EC"/>
			<stop  offset="1" style="stop-color:#6490F2"/>
		</linearGradient>
		<path class="st13" d="M1033.4,216c-5.7,13.5-13.9,25.6-24.3,36c-0.4,0.4-0.7,0.7-1.1,1.1c-11.4-9.4-20.8-21.2-27.4-34.4
			c-7.3-14.7-11.1-30.5-11.1-47.1c0-16.5,3.7-32.2,11-46.9c6.5-13.1,15.9-24.9,27.2-34.3c0.5,0.4,0.9,0.9,1.4,1.3
			c10.4,10.4,18.6,22.5,24.3,36c5.9,14,8.9,28.8,8.9,44.1S1039.3,202,1033.4,216z M973.1,276.2c-14,5.9-28.8,8.9-44.1,8.9
			s-30.1-3-44.1-8.9c-10.9-4.6-21-10.9-29.9-18.6c11.8-9.9,21.6-22.2,28.4-35.9c7.8-15.6,11.8-32.5,11.8-50.1
			c0-17.5-3.9-34.3-11.7-49.9c-6.8-13.7-16.5-26-28.2-35.9c8.9-7.6,18.8-13.8,29.6-18.4c14-5.9,28.8-8.9,44.1-8.9s30.1,3,44.1,8.9
			c10.8,4.6,20.8,10.7,29.6,18.4c-11.7,9.9-21.4,22.2-28.2,35.9c-7.8,15.6-11.7,32.4-11.7,49.9c0,17.6,4,34.4,11.8,50.1
			c6.8,13.7,16.6,26.1,28.4,35.9C994.1,265.4,984.1,271.6,973.1,276.2z M1039.6,125.2c-6-14.3-14.7-27.1-25.7-38.1
			c-11-11-23.9-19.7-38.1-25.7c-14.8-6.3-30.5-9.4-46.7-9.4c-16.2,0-31.9,3.2-46.7,9.4C868,67.3,855.2,76,844.2,87
			c-11,11-19.7,23.9-25.7,38.1c-6.3,14.8-9.4,30.5-9.4,46.7s3.2,31.9,9.4,46.7c6,14.3,14.7,27.1,25.7,38.1
			c11,11,23.9,19.7,38.1,25.7c14.8,6.3,30.5,9.4,46.7,9.4c16.2,0,31.9-3.2,46.7-9.4c14.3-6,27.1-14.7,38.1-25.7
			c11-11,19.7-23.9,25.7-38.1c6.3-14.8,9.4-30.5,9.4-46.7S1045.9,139.9,1039.6,125.2z M824.7,216c-5.9-14-8.9-28.8-8.9-44.1
			s3-30.1,8.9-44.1c5.7-13.5,13.9-25.6,24.3-36c0.4-0.4,0.9-0.9,1.4-1.3c11.3,9.4,20.7,21.2,27.2,34.3c7.3,14.6,11,30.4,11,46.9
			c0,16.5-3.7,32.4-11.1,47.1c-6.6,13.1-16,25-27.4,34.4c-0.4-0.3-0.7-0.7-1.1-1.1C838.5,241.6,830.4,229.4,824.7,216z"/>
	</g>
	<g>
		<circle class="st14" cx="952" cy="148.9" r="116.6"/>
		<path class="st15" d="M1063.1,102c-6.1-14.4-14.8-27.2-25.8-38.3c-11.1-11.1-24-19.8-38.3-25.8c-14.9-6.3-30.6-9.5-46.9-9.5
			s-32,3.2-46.9,9.5c-14.4,6.1-27.2,14.8-38.3,25.8c-11.1,11.1-19.8,24-25.8,38.3c-6.3,14.9-9.5,30.6-9.5,46.9s3.2,32,9.5,46.9
			c6.1,14.4,14.8,27.2,25.8,38.3c11.1,11.1,24,19.8,38.3,25.8c14.9,6.3,30.6,9.5,46.9,9.5s32-3.2,46.9-9.5
			c14.4-6.1,27.2-14.8,38.3-25.8c11.1-11.1,19.8-24,25.8-38.3c6.3-14.9,9.5-30.6,9.5-46.9S1069.3,116.8,1063.1,102z M906.9,198.9
			c7.8-15.7,11.8-32.6,11.8-50.3c0-17.6-3.9-34.5-11.7-50.1c-6.7-13.5-16.3-25.8-27.9-35.6c8.7-7.4,18.5-13.4,29.1-17.9
			c13.9-5.9,28.7-8.9,43.9-8.9c15.2,0,30,3,43.9,8.9c10.6,4.5,20.3,10.5,29.1,17.9c-11.5,9.8-21.2,22.2-27.9,35.6
			c-7.8,15.6-11.7,32.5-11.7,50.1c0,17.7,4,34.6,11.8,50.3c6.8,13.5,16.5,25.9,28.1,35.7c-8.8,7.5-18.7,13.6-29.4,18.2
			c-13.9,5.9-28.7,8.9-43.9,8.9s-30-3-43.9-8.9c-10.7-4.5-20.6-10.6-29.4-18.2C890.4,224.8,900.1,212.4,906.9,198.9z M1064.8,148.9
			c0,15.2-3,30-8.9,43.9c-5.7,13.4-13.8,25.5-24.2,35.8c-0.2,0.2-0.5,0.5-0.7,0.7c-11.2-9.3-20.5-21-26.9-33.9
			c-7.3-14.6-11-30.4-11-46.8c0-16.4,3.7-32.1,10.9-46.7c6.4-12.9,15.6-24.6,26.7-33.8c0.3,0.3,0.7,0.7,1,1
			c10.4,10.4,18.5,22.4,24.2,35.8C1061.8,118.9,1064.8,133.6,1064.8,148.9z M910.9,148.6c0,16.5-3.7,32.2-11,46.8
			c-6.4,12.9-15.7,24.6-26.9,33.9c-0.2-0.2-0.5-0.5-0.7-0.7c-10.4-10.4-18.5-22.4-24.2-35.8c-5.9-13.9-8.9-28.7-8.9-43.9
			s3-30,8.9-43.9c5.7-13.4,13.8-25.5,24.2-35.8c0.3-0.3,0.7-0.7,1-1c11.1,9.3,20.3,21,26.7,33.8
			C907.3,116.5,910.9,132.2,910.9,148.6z"/>
	</g>
</g>
<g id="Layer_2" class="st16">
	<g class="st17">
		<linearGradient id="SVGID_15_" gradientUnits="userSpaceOnUse" x1="3298.6309" y1="505.6344" x2="3234.926" y2="304.5657">
			<stop  offset="0" style="stop-color:#AAF8EC"/>
			<stop  offset="1" style="stop-color:#6490F2"/>
		</linearGradient>
		<path class="st18" d="M3411.6,576.8c-5.7,13.5-13.9,25.6-24.3,36c-0.4,0.4-0.7,0.7-1.1,1.1c-11.4-9.4-20.8-21.2-27.4-34.4
			c-7.3-14.7-11.1-30.5-11.1-47.1c0-16.5,3.7-32.2,11-46.9c6.5-13.1,15.9-24.9,27.2-34.3c0.5,0.4,0.9,0.9,1.4,1.3
			c10.4,10.4,18.6,22.5,24.3,36c5.9,14,8.9,28.8,8.9,44.1S3417.5,562.8,3411.6,576.8z M3351.3,637.1c-14,5.9-28.8,8.9-44.1,8.9
			s-30.1-3-44.1-8.9c-10.9-4.6-21-10.9-29.9-18.6c11.8-9.9,21.6-22.2,28.4-35.9c7.8-15.6,11.8-32.5,11.8-50.1
			c0-17.5-3.9-34.3-11.7-49.9c-6.8-13.7-16.5-26-28.2-35.9c8.9-7.6,18.8-13.8,29.6-18.4c14-5.9,28.8-8.9,44.1-8.9s30.1,3,44.1,8.9
			c10.8,4.6,20.8,10.7,29.6,18.4c-11.7,9.9-21.4,22.2-28.2,35.9c-7.8,15.6-11.7,32.4-11.7,49.9c0,17.6,4,34.4,11.8,50.1
			c6.8,13.7,16.6,26.1,28.4,35.9C3372.3,626.2,3362.2,632.4,3351.3,637.1z M3417.8,486c-6-14.3-14.7-27.1-25.7-38.1
			c-11-11-23.9-19.7-38.1-25.7c-14.8-6.3-30.5-9.4-46.7-9.4c-16.2,0-31.9,3.2-46.7,9.4c-14.3,6-27.1,14.7-38.1,25.7
			c-11,11-19.7,23.9-25.7,38.1c-6.3,14.8-9.4,30.5-9.4,46.7s3.2,31.9,9.4,46.7c6,14.3,14.7,27.1,25.7,38.1
			c11,11,23.9,19.7,38.1,25.7c14.8,6.3,30.5,9.4,46.7,9.4c16.2,0,31.9-3.2,46.7-9.4c14.3-6,27.1-14.7,38.1-25.7
			c11-11,19.7-23.9,25.7-38.1c6.3-14.8,9.4-30.5,9.4-46.7S3424,500.8,3417.8,486z M3202.8,576.8c-5.9-14-8.9-28.8-8.9-44.1
			s3-30.1,8.9-44.1c5.7-13.5,13.9-25.6,24.3-36c0.4-0.4,0.9-0.9,1.4-1.3c11.3,9.4,20.7,21.2,27.2,34.3c7.3,14.6,11,30.4,11,46.9
			c0,16.5-3.7,32.4-11.1,47.1c-6.6,13.1-16,25-27.4,34.4c-0.4-0.3-0.7-0.7-1.1-1.1C3216.7,602.4,3208.5,590.3,3202.8,576.8z"/>
		<linearGradient id="SVGID_16_" gradientUnits="userSpaceOnUse" x1="3337.9104" y1="493.1895" x2="3274.2053" y2="292.1207">
			<stop  offset="0" style="stop-color:#AAF8EC"/>
			<stop  offset="1" style="stop-color:#6490F2"/>
		</linearGradient>
		<path class="st19" d="M3445.5,547.6c-5.7,13.5-13.9,25.6-24.3,36c-0.4,0.4-0.7,0.7-1.1,1.1c-11.4-9.4-20.8-21.2-27.4-34.4
			c-7.3-14.7-11.1-30.5-11.1-47.1c0-16.5,3.7-32.2,11-46.9c6.5-13.1,15.9-24.9,27.2-34.3c0.5,0.4,0.9,0.9,1.4,1.3
			c10.4,10.4,18.6,22.5,24.3,36c5.9,14,8.9,28.8,8.9,44.1C3454.4,518.8,3451.4,533.6,3445.5,547.6z M3385.3,607.9
			c-14,5.9-28.8,8.9-44.1,8.9s-30.1-3-44.1-8.9c-10.9-4.6-21-10.9-29.9-18.6c11.8-9.9,21.6-22.2,28.4-35.9
			c7.8-15.6,11.8-32.5,11.8-50.1c0-17.5-3.9-34.3-11.7-49.9c-6.8-13.7-16.5-26-28.2-35.9c8.9-7.6,18.8-13.8,29.6-18.4
			c14-5.9,28.8-8.9,44.1-8.9s30.1,3,44.1,8.9c10.8,4.6,20.8,10.7,29.6,18.4c-11.7,9.9-21.4,22.2-28.2,35.9
			c-7.8,15.6-11.7,32.4-11.7,49.9c0,17.6,4,34.4,11.8,50.1c6.8,13.7,16.6,26.1,28.4,35.9C3406.2,597,3396.2,603.2,3385.3,607.9z
			 M3451.7,456.8c-6-14.3-14.7-27.1-25.7-38.1c-11-11-23.9-19.7-38.1-25.7c-14.8-6.3-30.5-9.4-46.7-9.4c-16.2,0-31.9,3.2-46.7,9.4
			c-14.3,6-27.1,14.7-38.1,25.7c-11,11-19.7,23.9-25.7,38.1c-6.3,14.8-9.4,30.5-9.4,46.7s3.2,31.9,9.4,46.7
			c6,14.3,14.7,27.1,25.7,38.1c11,11,23.9,19.7,38.1,25.7c14.8,6.3,30.5,9.4,46.7,9.4c16.2,0,31.9-3.2,46.7-9.4
			c14.3-6,27.1-14.7,38.1-25.7c11-11,19.7-23.9,25.7-38.1c6.3-14.8,9.4-30.5,9.4-46.7S3458,471.6,3451.7,456.8z M3236.8,547.6
			c-5.9-14-8.9-28.8-8.9-44.1c0-15.3,3-30.1,8.9-44.1c5.7-13.5,13.9-25.6,24.3-36c0.4-0.4,0.9-0.9,1.4-1.3
			c11.3,9.4,20.7,21.2,27.2,34.3c7.3,14.6,11,30.4,11,46.9c0,16.5-3.7,32.4-11.1,47.1c-6.6,13.1-16,25-27.4,34.4
			c-0.4-0.3-0.7-0.7-1.1-1.1C3250.7,573.2,3242.5,561.1,3236.8,547.6z"/>
		<linearGradient id="SVGID_17_" gradientUnits="userSpaceOnUse" x1="3377.1897" y1="480.7445" x2="3313.4849" y2="279.6758">
			<stop  offset="0" style="stop-color:#AAF8EC"/>
			<stop  offset="1" style="stop-color:#6490F2"/>
		</linearGradient>
		<path class="st20" d="M3479.5,518.4c-5.7,13.5-13.9,25.6-24.3,36c-0.4,0.4-0.7,0.7-1.1,1.1c-11.4-9.4-20.8-21.2-27.4-34.4
			c-7.3-14.7-11.1-30.5-11.1-47.1c0-16.5,3.7-32.2,11-46.9c6.5-13.1,15.9-24.9,27.2-34.3c0.5,0.4,0.9,0.9,1.4,1.3
			c10.4,10.4,18.6,22.5,24.3,36c5.9,14,8.9,28.8,8.9,44.1C3488.4,489.6,3485.4,504.4,3479.5,518.4z M3419.2,578.6
			c-14,5.9-28.8,8.9-44.1,8.9s-30.1-3-44.1-8.9c-10.9-4.6-21-10.9-29.9-18.6c11.8-9.9,21.6-22.2,28.4-35.9
			c7.8-15.6,11.8-32.5,11.8-50.1c0-17.5-3.9-34.3-11.7-49.9c-6.8-13.7-16.5-26-28.2-35.9c8.9-7.6,18.8-13.8,29.6-18.4
			c14-5.9,28.8-8.9,44.1-8.9s30.1,3,44.1,8.9c10.8,4.6,20.8,10.7,29.6,18.4c-11.7,9.9-21.4,22.2-28.2,35.9
			c-7.8,15.6-11.7,32.4-11.7,49.9c0,17.6,4,34.4,11.8,50.1c6.8,13.7,16.6,26.1,28.4,35.9C3440.2,567.8,3430.2,574,3419.2,578.6z
			 M3485.7,427.6c-6-14.3-14.7-27.1-25.7-38.1c-11-11-23.9-19.7-38.1-25.7c-14.8-6.3-30.5-9.4-46.7-9.4c-16.2,0-31.9,3.2-46.7,9.4
			c-14.3,6-27.1,14.7-38.1,25.7c-11,11-19.7,23.9-25.7,38.1c-6.3,14.8-9.4,30.5-9.4,46.7c0,16.2,3.2,31.9,9.4,46.7
			c6,14.3,14.7,27.1,25.7,38.1c11,11,23.9,19.7,38.1,25.7c14.8,6.3,30.5,9.4,46.7,9.4c16.2,0,31.9-3.2,46.7-9.4
			c14.3-6,27.1-14.7,38.1-25.7c11-11,19.7-23.9,25.7-38.1c6.3-14.8,9.4-30.5,9.4-46.7C3495.1,458.1,3492,442.4,3485.7,427.6z
			 M3270.8,518.4c-5.9-14-8.9-28.8-8.9-44.1c0-15.3,3-30.1,8.9-44.1c5.7-13.5,13.9-25.6,24.3-36c0.4-0.4,0.9-0.9,1.4-1.3
			c11.3,9.4,20.7,21.2,27.2,34.3c7.3,14.6,11,30.4,11,46.9c0,16.5-3.7,32.4-11.1,47.1c-6.6,13.1-16,25-27.4,34.4
			c-0.4-0.3-0.7-0.7-1.1-1.1C3284.6,544,3276.5,531.8,3270.8,518.4z"/>
		<linearGradient id="SVGID_18_" gradientUnits="userSpaceOnUse" x1="3416.4692" y1="468.2996" x2="3352.7642" y2="267.2308">
			<stop  offset="0" style="stop-color:#AAF8EC"/>
			<stop  offset="1" style="stop-color:#6490F2"/>
		</linearGradient>
		<path class="st21" d="M3513.5,489.1c-5.7,13.5-13.9,25.6-24.3,36c-0.4,0.4-0.7,0.7-1.1,1.1c-11.4-9.4-20.8-21.2-27.4-34.4
			c-7.3-14.7-11.1-30.5-11.1-47.1c0-16.5,3.7-32.2,11-46.9c6.5-13.1,15.9-24.9,27.2-34.3c0.5,0.4,0.9,0.9,1.4,1.3
			c10.4,10.4,18.6,22.5,24.3,36c5.9,14,8.9,28.8,8.9,44.1C3522.4,460.3,3519.4,475.2,3513.5,489.1z M3453.2,549.4
			c-14,5.9-28.8,8.9-44.1,8.9s-30.1-3-44.1-8.9c-10.9-4.6-21-10.9-29.9-18.6c11.8-9.9,21.6-22.2,28.4-35.9
			c7.8-15.6,11.8-32.5,11.8-50.1c0-17.5-3.9-34.3-11.7-49.9c-6.8-13.7-16.5-26-28.2-35.9c8.9-7.6,18.8-13.8,29.6-18.4
			c14-5.9,28.8-8.9,44.1-8.9s30.1,3,44.1,8.9c10.8,4.6,20.8,10.7,29.6,18.4c-11.7,9.9-21.4,22.2-28.2,35.9
			c-7.8,15.6-11.7,32.4-11.7,49.9c0,17.6,4,34.4,11.8,50.1c6.8,13.7,16.6,26.1,28.4,35.9C3474.2,538.5,3464.1,544.8,3453.2,549.4z
			 M3519.7,398.3c-6-14.3-14.7-27.1-25.7-38.1c-11-11-23.9-19.7-38.1-25.7c-14.8-6.3-30.5-9.4-46.7-9.4c-16.2,0-31.9,3.2-46.7,9.4
			c-14.3,6-27.1,14.7-38.1,25.7c-11,11-19.7,23.9-25.7,38.1c-6.3,14.8-9.4,30.5-9.4,46.7c0,16.2,3.2,31.9,9.4,46.7
			c6,14.3,14.7,27.1,25.7,38.1c11,11,23.9,19.7,38.1,25.7c14.8,6.3,30.5,9.4,46.7,9.4c16.2,0,31.9-3.2,46.7-9.4
			c14.3-6,27.1-14.7,38.1-25.7c11-11,19.7-23.9,25.7-38.1c6.3-14.8,9.4-30.5,9.4-46.7C3529.1,428.9,3525.9,413.1,3519.7,398.3z
			 M3304.7,489.1c-5.9-14-8.9-28.8-8.9-44.1c0-15.3,3-30.1,8.9-44.1c5.7-13.5,13.9-25.6,24.3-36c0.4-0.4,0.9-0.9,1.4-1.3
			c11.3,9.4,20.7,21.2,27.2,34.3c7.3,14.6,11,30.4,11,46.9c0,16.5-3.7,32.4-11.1,47.1c-6.6,13.1-16,25-27.4,34.4
			c-0.4-0.3-0.7-0.7-1.1-1.1C3318.6,514.7,3310.4,502.6,3304.7,489.1z"/>
		<linearGradient id="SVGID_19_" gradientUnits="userSpaceOnUse" x1="3455.7485" y1="455.8546" x2="3392.0437" y2="254.7859">
			<stop  offset="0" style="stop-color:#AAF8EC"/>
			<stop  offset="1" style="stop-color:#6490F2"/>
		</linearGradient>
		<path class="st22" d="M3547.4,459.9c-5.7,13.5-13.9,25.6-24.3,36c-0.4,0.4-0.7,0.7-1.1,1.1c-11.4-9.4-20.8-21.2-27.4-34.4
			c-7.3-14.7-11.1-30.5-11.1-47.1c0-16.5,3.7-32.2,11-46.9c6.5-13.1,15.9-24.9,27.2-34.3c0.5,0.4,0.9,0.9,1.4,1.3
			c10.4,10.4,18.6,22.5,24.3,36c5.9,14,8.9,28.8,8.9,44.1S3553.3,446,3547.4,459.9z M3487.2,520.2c-14,5.9-28.8,8.9-44.1,8.9
			s-30.1-3-44.1-8.9c-10.9-4.6-21-10.9-29.9-18.6c11.8-9.9,21.6-22.2,28.4-35.9c7.8-15.6,11.8-32.5,11.8-50.1
			c0-17.5-3.9-34.3-11.7-49.9c-6.8-13.7-16.5-26-28.2-35.9c8.9-7.6,18.8-13.8,29.6-18.4c14-5.9,28.8-8.9,44.1-8.9s30.1,3,44.1,8.9
			c10.8,4.6,20.8,10.7,29.6,18.4c-11.7,9.9-21.4,22.2-28.2,35.9c-7.8,15.6-11.7,32.4-11.7,49.9c0,17.6,4,34.4,11.8,50.1
			c6.8,13.7,16.6,26.1,28.4,35.9C3508.1,509.3,3498.1,515.6,3487.2,520.2z M3553.6,369.1c-6-14.3-14.7-27.1-25.7-38.1
			c-11-11-23.9-19.7-38.1-25.7c-14.8-6.3-30.5-9.4-46.7-9.4c-16.2,0-31.9,3.2-46.7,9.4c-14.3,6-27.1,14.7-38.1,25.7
			c-11,11-19.7,23.9-25.7,38.1c-6.3,14.8-9.4,30.5-9.4,46.7c0,16.2,3.2,31.9,9.4,46.7c6,14.3,14.7,27.1,25.7,38.1
			c11,11,23.9,19.7,38.1,25.7c14.8,6.3,30.5,9.4,46.7,9.4c16.2,0,31.9-3.2,46.7-9.4c14.3-6,27.1-14.7,38.1-25.7
			c11-11,19.7-23.9,25.7-38.1c6.3-14.8,9.4-30.5,9.4-46.7C3563.1,399.6,3559.9,383.9,3553.6,369.1z M3338.7,459.9
			c-5.9-14-8.9-28.8-8.9-44.1s3-30.1,8.9-44.1c5.7-13.5,13.9-25.6,24.3-36c0.4-0.4,0.9-0.9,1.4-1.3c11.3,9.4,20.7,21.2,27.2,34.3
			c7.3,14.6,11,30.4,11,46.9c0,16.5-3.7,32.4-11.1,47.1c-6.6,13.1-16,25-27.4,34.4c-0.4-0.3-0.7-0.7-1.1-1.1
			C3352.6,485.5,3344.4,473.4,3338.7,459.9z"/>
		<linearGradient id="SVGID_20_" gradientUnits="userSpaceOnUse" x1="3495.0278" y1="443.4096" x2="3431.323" y2="242.3409">
			<stop  offset="0" style="stop-color:#AAF8EC"/>
			<stop  offset="1" style="stop-color:#6490F2"/>
		</linearGradient>
		<path class="st23" d="M3581.4,430.7c-5.7,13.5-13.9,25.6-24.3,36c-0.4,0.4-0.7,0.7-1.1,1.1c-11.4-9.4-20.8-21.2-27.4-34.4
			c-7.3-14.7-11.1-30.5-11.1-47.1c0-16.5,3.7-32.2,11-46.9c6.5-13.1,15.9-24.9,27.2-34.3c0.5,0.4,0.9,0.9,1.4,1.3
			c10.4,10.4,18.6,22.5,24.3,36c5.9,14,8.9,28.8,8.9,44.1C3590.3,401.9,3587.3,416.8,3581.4,430.7z M3521.1,491
			c-14,5.9-28.8,8.9-44.1,8.9s-30.1-3-44.1-8.9c-10.9-4.6-21-10.9-29.9-18.6c11.8-9.9,21.6-22.2,28.4-35.9
			c7.8-15.6,11.8-32.5,11.8-50.1c0-17.5-3.9-34.3-11.7-49.9c-6.8-13.7-16.5-26-28.2-35.9c8.9-7.6,18.8-13.8,29.6-18.4
			c14-5.9,28.8-8.9,44.1-8.9s30.1,3,44.1,8.9c10.8,4.6,20.8,10.7,29.6,18.4c-11.7,9.9-21.4,22.2-28.2,35.9
			c-7.8,15.6-11.7,32.4-11.7,49.9c0,17.6,4,34.4,11.8,50.1c6.8,13.7,16.6,26.1,28.4,35.9C3542.1,480.1,3532.1,486.4,3521.1,491z
			 M3587.6,339.9c-6-14.3-14.7-27.1-25.7-38.1c-11-11-23.9-19.7-38.1-25.7c-14.8-6.3-30.5-9.4-46.7-9.4c-16.2,0-31.9,3.2-46.7,9.4
			c-14.3,6-27.1,14.7-38.1,25.7c-11,11-19.7,23.9-25.7,38.1c-6.3,14.8-9.4,30.5-9.4,46.7c0,16.2,3.2,31.9,9.4,46.7
			c6,14.3,14.7,27.1,25.7,38.1c11,11,23.9,19.7,38.1,25.7c14.8,6.3,30.5,9.4,46.7,9.4c16.2,0,31.9-3.2,46.7-9.4
			c14.3-6,27.1-14.7,38.1-25.7c11-11,19.7-23.9,25.7-38.1c6.3-14.8,9.4-30.5,9.4-46.7C3597,370.4,3593.9,354.7,3587.6,339.9z
			 M3372.7,430.7c-5.9-14-8.9-28.8-8.9-44.1c0-15.3,3-30.1,8.9-44.1c5.7-13.5,13.9-25.6,24.3-36c0.4-0.4,0.9-0.9,1.4-1.3
			c11.3,9.4,20.7,21.2,27.2,34.3c7.3,14.6,11,30.4,11,46.9c0,16.5-3.7,32.4-11.1,47.1c-6.6,13.1-16,25-27.4,34.4
			c-0.4-0.3-0.7-0.7-1.1-1.1C3386.5,456.3,3378.4,444.2,3372.7,430.7z"/>
		<linearGradient id="SVGID_21_" gradientUnits="userSpaceOnUse" x1="3534.3074" y1="430.9647" x2="3470.6023" y2="229.896">
			<stop  offset="0" style="stop-color:#AAF8EC"/>
			<stop  offset="1" style="stop-color:#6490F2"/>
		</linearGradient>
		<path class="st24" d="M3615.4,401.5c-5.7,13.5-13.9,25.6-24.3,36c-0.4,0.4-0.7,0.7-1.1,1.1c-11.4-9.4-20.8-21.2-27.4-34.4
			c-7.3-14.7-11.1-30.5-11.1-47.1c0-16.5,3.7-32.2,11-46.9c6.5-13.1,15.9-24.9,27.2-34.3c0.5,0.4,0.9,0.9,1.4,1.3
			c10.4,10.4,18.6,22.5,24.3,36c5.9,14,8.9,28.8,8.9,44.1C3624.3,372.7,3621.3,387.5,3615.4,401.5z M3555.1,461.8
			c-14,5.9-28.8,8.9-44.1,8.9s-30.1-3-44.1-8.9c-10.9-4.6-21-10.9-29.9-18.6c11.8-9.9,21.6-22.2,28.4-35.9
			c7.8-15.6,11.8-32.5,11.8-50.1c0-17.5-3.9-34.3-11.7-49.9c-6.8-13.7-16.5-26-28.2-35.9c8.9-7.6,18.8-13.8,29.6-18.4
			c14-5.9,28.8-8.9,44.1-8.9s30.1,3,44.1,8.9c10.8,4.6,20.8,10.7,29.6,18.4c-11.7,9.9-21.4,22.2-28.2,35.9
			c-7.8,15.6-11.7,32.4-11.7,49.9c0,17.6,4,34.4,11.8,50.1c6.8,13.7,16.6,26.1,28.4,35.9C3576.1,450.9,3566,457.2,3555.1,461.8z
			 M3621.6,310.7c-6-14.3-14.7-27.1-25.7-38.1c-11-11-23.9-19.7-38.1-25.7c-14.8-6.3-30.5-9.4-46.7-9.4c-16.2,0-31.9,3.2-46.7,9.4
			c-14.3,6-27.1,14.7-38.1,25.7c-11,11-19.7,23.9-25.7,38.1c-6.3,14.8-9.4,30.5-9.4,46.7c0,16.2,3.2,31.9,9.4,46.7
			c6,14.3,14.7,27.1,25.7,38.1c11,11,23.9,19.7,38.1,25.7c14.8,6.3,30.5,9.4,46.7,9.4c16.2,0,31.9-3.2,46.7-9.4
			c14.3-6,27.1-14.7,38.1-25.7c11-11,19.7-23.9,25.7-38.1c6.3-14.8,9.4-30.5,9.4-46.7C3631,341.2,3627.8,325.5,3621.6,310.7z
			 M3406.6,401.5c-5.9-14-8.9-28.8-8.9-44.1c0-15.3,3-30.1,8.9-44.1c5.7-13.5,13.9-25.6,24.3-36c0.4-0.4,0.9-0.9,1.4-1.3
			c11.3,9.4,20.7,21.2,27.2,34.3c7.3,14.6,11,30.4,11,46.9c0,16.5-3.7,32.4-11.1,47.1c-6.6,13.1-16,25-27.4,34.4
			c-0.4-0.3-0.7-0.7-1.1-1.1C3420.5,427.1,3412.3,415,3406.6,401.5z"/>
		<linearGradient id="SVGID_22_" gradientUnits="userSpaceOnUse" x1="3573.5867" y1="418.5197" x2="3509.8818" y2="217.451">
			<stop  offset="0" style="stop-color:#AAF8EC"/>
			<stop  offset="1" style="stop-color:#6490F2"/>
		</linearGradient>
		<path class="st25" d="M3649.3,372.3c-5.7,13.5-13.9,25.6-24.3,36c-0.4,0.4-0.7,0.7-1.1,1.1c-11.4-9.4-20.8-21.2-27.4-34.4
			c-7.3-14.7-11.1-30.5-11.1-47.1c0-16.5,3.7-32.2,11-46.9c6.5-13.1,15.9-24.9,27.2-34.3c0.5,0.4,0.9,0.9,1.4,1.3
			c10.4,10.4,18.6,22.5,24.3,36c5.9,14,8.9,28.8,8.9,44.1C3658.2,343.5,3655.2,358.3,3649.3,372.3z M3589.1,432.6
			c-14,5.9-28.8,8.9-44.1,8.9s-30.1-3-44.1-8.9c-10.9-4.6-21-10.9-29.9-18.6c11.8-9.9,21.6-22.2,28.4-35.9
			c7.8-15.6,11.8-32.5,11.8-50.1c0-17.5-3.9-34.3-11.7-49.9c-6.8-13.7-16.5-26-28.2-35.9c8.9-7.6,18.8-13.8,29.6-18.4
			c14-5.9,28.8-8.9,44.1-8.9s30.1,3,44.1,8.9c10.8,4.6,20.8,10.7,29.6,18.4c-11.7,9.9-21.4,22.2-28.2,35.9
			c-7.8,15.6-11.7,32.4-11.7,49.9c0,17.6,4,34.4,11.8,50.1c6.8,13.7,16.6,26.1,28.4,35.9C3610,421.7,3600,427.9,3589.1,432.6z
			 M3655.5,281.5c-6-14.3-14.7-27.1-25.7-38.1c-11-11-23.9-19.7-38.1-25.7c-14.8-6.3-30.5-9.4-46.7-9.4c-16.2,0-31.9,3.2-46.7,9.4
			c-14.3,6-27.1,14.7-38.1,25.7c-11,11-19.7,23.9-25.7,38.1c-6.3,14.8-9.4,30.5-9.4,46.7c0,16.2,3.2,31.9,9.4,46.7
			c6,14.3,14.7,27.1,25.7,38.1c11,11,23.9,19.7,38.1,25.7c14.8,6.3,30.5,9.4,46.7,9.4c16.2,0,31.9-3.2,46.7-9.4
			c14.3-6,27.1-14.7,38.1-25.7c11-11,19.7-23.9,25.7-38.1c6.3-14.8,9.4-30.5,9.4-46.7C3665,312,3661.8,296.3,3655.5,281.5z
			 M3440.6,372.3c-5.9-14-8.9-28.8-8.9-44.1c0-15.3,3-30.1,8.9-44.1c5.7-13.5,13.9-25.6,24.3-36c0.4-0.4,0.9-0.9,1.4-1.3
			c11.3,9.4,20.7,21.2,27.2,34.3c7.3,14.6,11,30.4,11,46.9c0,16.5-3.7,32.4-11.1,47.1c-6.6,13.1-16,25-27.4,34.4
			c-0.4-0.3-0.7-0.7-1.1-1.1C3454.5,397.9,3446.3,385.8,3440.6,372.3z"/>
		<linearGradient id="SVGID_23_" gradientUnits="userSpaceOnUse" x1="3612.8662" y1="406.0748" x2="3549.1611" y2="205.006">
			<stop  offset="0" style="stop-color:#AAF8EC"/>
			<stop  offset="1" style="stop-color:#6490F2"/>
		</linearGradient>
		<path class="st26" d="M3683.3,343.1c-5.7,13.5-13.9,25.6-24.3,36c-0.4,0.4-0.7,0.7-1.1,1.1c-11.4-9.4-20.8-21.2-27.4-34.4
			c-7.3-14.7-11.1-30.5-11.1-47.1c0-16.5,3.7-32.2,11-46.9c6.5-13.1,15.9-24.9,27.2-34.3c0.5,0.4,0.9,0.9,1.4,1.3
			c10.4,10.4,18.6,22.5,24.3,36c5.9,14,8.9,28.8,8.9,44.1C3692.2,314.3,3689.2,329.1,3683.3,343.1z M3623,403.4
			c-14,5.9-28.8,8.9-44.1,8.9s-30.1-3-44.1-8.9c-10.9-4.6-21-10.9-29.9-18.6c11.8-9.9,21.6-22.2,28.4-35.9
			c7.8-15.6,11.8-32.5,11.8-50.1c0-17.5-3.9-34.3-11.7-49.9c-6.8-13.7-16.5-26-28.2-35.9c8.9-7.6,18.8-13.8,29.6-18.4
			c14-5.9,28.8-8.9,44.1-8.9s30.1,3,44.1,8.9c10.8,4.6,20.8,10.7,29.6,18.4c-11.7,9.9-21.4,22.2-28.2,35.9
			c-7.8,15.6-11.7,32.4-11.7,49.9c0,17.6,4,34.4,11.8,50.1c6.8,13.7,16.6,26.1,28.4,35.9C3644,392.5,3634,398.7,3623,403.4z
			 M3689.5,252.3c-6-14.3-14.7-27.1-25.7-38.1c-11-11-23.9-19.7-38.1-25.7c-14.8-6.3-30.5-9.4-46.7-9.4c-16.2,0-31.9,3.2-46.7,9.4
			c-14.3,6-27.1,14.7-38.1,25.7c-11,11-19.7,23.9-25.7,38.1c-6.3,14.8-9.4,30.5-9.4,46.7c0,16.2,3.2,31.9,9.4,46.7
			c6,14.3,14.7,27.1,25.7,38.1c11,11,23.9,19.7,38.1,25.7c14.8,6.3,30.5,9.4,46.7,9.4c16.2,0,31.9-3.2,46.7-9.4
			c14.3-6,27.1-14.7,38.1-25.7c11-11,19.7-23.9,25.7-38.1c6.3-14.8,9.4-30.5,9.4-46.7C3698.9,282.8,3695.8,267.1,3689.5,252.3z
			 M3474.6,343.1c-5.9-14-8.9-28.8-8.9-44.1c0-15.3,3-30.1,8.9-44.1c5.7-13.5,13.9-25.6,24.3-36c0.4-0.4,0.9-0.9,1.4-1.3
			c11.3,9.4,20.7,21.2,27.2,34.3c7.3,14.6,11,30.4,11,46.9c0,16.5-3.7,32.4-11.1,47.1c-6.6,13.1-16,25-27.4,34.4
			c-0.4-0.3-0.7-0.7-1.1-1.1C3488.4,368.7,3480.3,356.6,3474.6,343.1z"/>
		<linearGradient id="SVGID_24_" gradientUnits="userSpaceOnUse" x1="3652.1455" y1="393.6298" x2="3588.4407" y2="192.5611">
			<stop  offset="0" style="stop-color:#AAF8EC"/>
			<stop  offset="1" style="stop-color:#6490F2"/>
		</linearGradient>
		<path class="st27" d="M3717.3,313.9c-5.7,13.5-13.9,25.6-24.3,36c-0.4,0.4-0.7,0.7-1.1,1.1c-11.4-9.4-20.8-21.2-27.4-34.4
			c-7.3-14.7-11.1-30.5-11.1-47.1c0-16.5,3.7-32.2,11-46.9c6.5-13.1,15.9-24.9,27.2-34.3c0.5,0.4,0.9,0.9,1.4,1.3
			c10.4,10.4,18.6,22.5,24.3,36c5.9,14,8.9,28.8,8.9,44.1S3723.2,299.9,3717.3,313.9z M3657,374.1c-14,5.9-28.8,8.9-44.1,8.9
			s-30.1-3-44.1-8.9c-10.9-4.6-21-10.9-29.9-18.6c11.8-9.9,21.6-22.2,28.4-35.9c7.8-15.6,11.8-32.5,11.8-50.1
			c0-17.5-3.9-34.3-11.7-49.9c-6.8-13.7-16.5-26-28.2-35.9c8.9-7.6,18.8-13.8,29.6-18.4c14-5.9,28.8-8.9,44.1-8.9s30.1,3,44.1,8.9
			c10.8,4.6,20.8,10.7,29.6,18.4c-11.7,9.9-21.4,22.2-28.2,35.9c-7.8,15.6-11.7,32.4-11.7,49.9c0,17.6,4,34.4,11.8,50.1
			c6.8,13.7,16.6,26.1,28.4,35.9C3678,363.3,3667.9,369.5,3657,374.1z M3723.5,223.1c-6-14.3-14.7-27.1-25.7-38.1
			c-11-11-23.9-19.7-38.1-25.7c-14.8-6.3-30.5-9.4-46.7-9.4c-16.2,0-31.9,3.2-46.7,9.4c-14.3,6-27.1,14.7-38.1,25.7
			c-11,11-19.7,23.9-25.7,38.1c-6.3,14.8-9.4,30.5-9.4,46.7s3.2,31.9,9.4,46.7c6,14.3,14.7,27.1,25.7,38.1
			c11,11,23.9,19.7,38.1,25.7c14.8,6.3,30.5,9.4,46.7,9.4c16.2,0,31.9-3.2,46.7-9.4c14.3-6,27.1-14.7,38.1-25.7
			c11-11,19.7-23.9,25.7-38.1c6.3-14.8,9.4-30.5,9.4-46.7S3729.7,237.9,3723.5,223.1z M3508.5,313.9c-5.9-14-8.9-28.8-8.9-44.1
			s3-30.1,8.9-44.1c5.7-13.5,13.9-25.6,24.3-36c0.4-0.4,0.9-0.9,1.4-1.3c11.3,9.4,20.7,21.2,27.2,34.3c7.3,14.6,11,30.4,11,46.9
			c0,16.5-3.7,32.4-11.1,47.1c-6.6,13.1-16,25-27.4,34.4c-0.4-0.3-0.7-0.7-1.1-1.1C3522.4,339.5,3514.2,327.4,3508.5,313.9z"/>
		<linearGradient id="SVGID_25_" gradientUnits="userSpaceOnUse" x1="3691.4248" y1="381.1848" x2="3627.72" y2="180.1161">
			<stop  offset="0" style="stop-color:#AAF8EC"/>
			<stop  offset="1" style="stop-color:#6490F2"/>
		</linearGradient>
		<path class="st28" d="M3751.2,284.6c-5.7,13.5-13.9,25.6-24.3,36c-0.4,0.4-0.7,0.7-1.1,1.1c-11.4-9.4-20.8-21.2-27.4-34.4
			c-7.3-14.7-11.1-30.5-11.1-47.1c0-16.5,3.7-32.2,11-46.9c6.5-13.1,15.9-24.9,27.2-34.3c0.5,0.4,0.9,0.9,1.4,1.3
			c10.4,10.4,18.6,22.5,24.3,36c5.9,14,8.9,28.8,8.9,44.1S3757.1,270.7,3751.2,284.6z M3691,344.9c-14,5.9-28.8,8.9-44.1,8.9
			s-30.1-3-44.1-8.9c-10.9-4.6-21-10.9-29.9-18.6c11.8-9.9,21.6-22.2,28.4-35.9c7.8-15.6,11.8-32.5,11.8-50.1
			c0-17.5-3.9-34.3-11.7-49.9c-6.8-13.7-16.5-26-28.2-35.9c8.9-7.6,18.8-13.8,29.6-18.4c14-5.9,28.8-8.9,44.1-8.9s30.1,3,44.1,8.9
			c10.8,4.6,20.8,10.7,29.6,18.4c-11.7,9.9-21.4,22.2-28.2,35.9c-7.8,15.6-11.7,32.4-11.7,49.9c0,17.6,4,34.4,11.8,50.1
			c6.8,13.7,16.6,26.1,28.4,35.9C3711.9,334.1,3701.9,340.3,3691,344.9z M3757.4,193.9c-6-14.3-14.7-27.1-25.7-38.1
			c-11-11-23.9-19.7-38.1-25.7c-14.8-6.3-30.5-9.4-46.7-9.4c-16.2,0-31.9,3.2-46.7,9.4c-14.3,6-27.1,14.7-38.1,25.7
			c-11,11-19.7,23.9-25.7,38.1c-6.3,14.8-9.4,30.5-9.4,46.7s3.2,31.9,9.4,46.7c6,14.3,14.7,27.1,25.7,38.1
			c11,11,23.9,19.7,38.1,25.7c14.8,6.3,30.5,9.4,46.7,9.4c16.2,0,31.9-3.2,46.7-9.4c14.3-6,27.1-14.7,38.1-25.7
			c11-11,19.7-23.9,25.7-38.1c6.3-14.8,9.4-30.5,9.4-46.7S3763.7,208.6,3757.4,193.9z M3542.5,284.6c-5.9-14-8.9-28.8-8.9-44.1
			s3-30.1,8.9-44.1c5.7-13.5,13.9-25.6,24.3-36c0.4-0.4,0.9-0.9,1.4-1.3c11.3,9.4,20.7,21.2,27.2,34.3c7.3,14.6,11,30.4,11,46.9
			c0,16.5-3.7,32.4-11.1,47.1c-6.6,13.1-16,25-27.4,34.4c-0.4-0.3-0.7-0.7-1.1-1.1C3556.4,310.3,3548.2,298.1,3542.5,284.6z"/>
		<linearGradient id="SVGID_26_" gradientUnits="userSpaceOnUse" x1="3730.7043" y1="368.7399" x2="3666.9993" y2="167.6712">
			<stop  offset="0" style="stop-color:#AAF8EC"/>
			<stop  offset="1" style="stop-color:#6490F2"/>
		</linearGradient>
		<path class="st29" d="M3785.2,255.4c-5.7,13.5-13.9,25.6-24.3,36c-0.4,0.4-0.7,0.7-1.1,1.1c-11.4-9.4-20.8-21.2-27.4-34.4
			c-7.3-14.7-11.1-30.5-11.1-47.1c0-16.5,3.7-32.2,11-46.9c6.5-13.1,15.9-24.9,27.2-34.3c0.5,0.4,0.9,0.9,1.4,1.3
			c10.4,10.4,18.6,22.5,24.3,36c5.9,14,8.9,28.8,8.9,44.1S3791.1,241.5,3785.2,255.4z M3724.9,315.7c-14,5.9-28.8,8.9-44.1,8.9
			s-30.1-3-44.1-8.9c-10.9-4.6-21-10.9-29.9-18.6c11.8-9.9,21.6-22.2,28.4-35.9c7.8-15.6,11.8-32.5,11.8-50.1
			c0-17.5-3.9-34.3-11.7-49.9c-6.8-13.7-16.5-26-28.2-35.9c8.9-7.6,18.8-13.8,29.6-18.4c14-5.9,28.8-8.9,44.1-8.9s30.1,3,44.1,8.9
			c10.8,4.6,20.8,10.7,29.6,18.4c-11.7,9.9-21.4,22.2-28.2,35.9c-7.8,15.6-11.7,32.4-11.7,49.9c0,17.6,4,34.4,11.8,50.1
			c6.8,13.7,16.6,26.1,28.4,35.9C3745.9,304.8,3735.9,311.1,3724.9,315.7z M3791.4,164.6c-6-14.3-14.7-27.1-25.7-38.1
			c-11-11-23.9-19.7-38.1-25.7c-14.8-6.3-30.5-9.4-46.7-9.4c-16.2,0-31.9,3.2-46.7,9.4c-14.3,6-27.1,14.7-38.1,25.7
			c-11,11-19.7,23.9-25.7,38.1c-6.3,14.8-9.4,30.5-9.4,46.7s3.2,31.9,9.4,46.7c6,14.3,14.7,27.1,25.7,38.1
			c11,11,23.9,19.7,38.1,25.7c14.8,6.3,30.5,9.4,46.7,9.4c16.2,0,31.9-3.2,46.7-9.4c14.3-6,27.1-14.7,38.1-25.7
			c11-11,19.7-23.9,25.7-38.1c6.3-14.8,9.4-30.5,9.4-46.7S3797.7,179.4,3791.4,164.6z M3576.5,255.4c-5.9-14-8.9-28.8-8.9-44.1
			s3-30.1,8.9-44.1c5.7-13.5,13.9-25.6,24.3-36c0.4-0.4,0.9-0.9,1.4-1.3c11.3,9.4,20.7,21.2,27.2,34.3c7.3,14.6,11,30.4,11,46.9
			c0,16.5-3.7,32.4-11.1,47.1c-6.6,13.1-16,25-27.4,34.4c-0.4-0.3-0.7-0.7-1.1-1.1C3590.3,281,3582.2,268.9,3576.5,255.4z"/>
		<linearGradient id="SVGID_27_" gradientUnits="userSpaceOnUse" x1="3769.9836" y1="356.2949" x2="3706.2788" y2="155.2262">
			<stop  offset="0" style="stop-color:#AAF8EC"/>
			<stop  offset="1" style="stop-color:#6490F2"/>
		</linearGradient>
		<path class="st30" d="M3819.2,226.2c-5.7,13.5-13.9,25.6-24.3,36c-0.4,0.4-0.7,0.7-1.1,1.1c-11.4-9.4-20.8-21.2-27.4-34.4
			c-7.3-14.7-11.1-30.5-11.1-47.1c0-16.5,3.7-32.2,11-46.9c6.5-13.1,15.9-24.9,27.2-34.3c0.5,0.4,0.9,0.9,1.4,1.3
			c10.4,10.4,18.6,22.5,24.3,36c5.9,14,8.9,28.8,8.9,44.1S3825.1,212.3,3819.2,226.2z M3758.9,286.5c-14,5.9-28.8,8.9-44.1,8.9
			s-30.1-3-44.1-8.9c-10.9-4.6-21-10.9-29.9-18.6c11.8-9.9,21.6-22.2,28.4-35.9c7.8-15.6,11.8-32.5,11.8-50.1
			c0-17.5-3.9-34.3-11.7-49.9c-6.8-13.7-16.5-26-28.2-35.9c8.9-7.6,18.8-13.8,29.6-18.4c14-5.9,28.8-8.9,44.1-8.9s30.1,3,44.1,8.9
			c10.8,4.6,20.8,10.7,29.6,18.4c-11.7,9.9-21.4,22.2-28.2,35.9c-7.8,15.6-11.7,32.4-11.7,49.9c0,17.6,4,34.4,11.8,50.1
			c6.8,13.7,16.6,26.1,28.4,35.9C3779.9,275.6,3769.8,281.9,3758.9,286.5z M3825.4,135.4c-6-14.3-14.7-27.1-25.7-38.1
			c-11-11-23.9-19.7-38.1-25.7c-14.8-6.3-30.5-9.4-46.7-9.4c-16.2,0-31.9,3.2-46.7,9.4c-14.3,6-27.1,14.7-38.1,25.7
			c-11,11-19.7,23.9-25.7,38.1c-6.3,14.8-9.4,30.5-9.4,46.7s3.2,31.9,9.4,46.7c6,14.3,14.7,27.1,25.7,38.1
			c11,11,23.9,19.7,38.1,25.7c14.8,6.3,30.5,9.4,46.7,9.4c16.2,0,31.9-3.2,46.7-9.4c14.3-6,27.1-14.7,38.1-25.7
			c11-11,19.7-23.9,25.7-38.1c6.3-14.8,9.4-30.5,9.4-46.7S3831.6,150.2,3825.4,135.4z M3610.4,226.2c-5.9-14-8.9-28.8-8.9-44.1
			s3-30.1,8.9-44.1c5.7-13.5,13.9-25.6,24.3-36c0.4-0.4,0.9-0.9,1.4-1.3c11.3,9.4,20.7,21.2,27.2,34.3c7.3,14.6,11,30.4,11,46.9
			c0,16.5-3.7,32.4-11.1,47.1c-6.6,13.1-16,25-27.4,34.4c-0.4-0.3-0.7-0.7-1.1-1.1C3624.3,251.8,3616.1,239.7,3610.4,226.2z"/>
		<linearGradient id="SVGID_28_" gradientUnits="userSpaceOnUse" x1="3809.2632" y1="343.85" x2="3745.5581" y2="142.7812">
			<stop  offset="0" style="stop-color:#AAF8EC"/>
			<stop  offset="1" style="stop-color:#6490F2"/>
		</linearGradient>
		<path class="st31" d="M3853.1,197c-5.7,13.5-13.9,25.6-24.3,36c-0.4,0.4-0.7,0.7-1.1,1.1c-11.4-9.4-20.8-21.2-27.4-34.4
			c-7.3-14.7-11.1-30.5-11.1-47.1c0-16.5,3.7-32.2,11-46.9c6.5-13.1,15.9-24.9,27.2-34.3c0.5,0.4,0.9,0.9,1.4,1.3
			c10.4,10.4,18.6,22.5,24.3,36c5.9,14,8.9,28.8,8.9,44.1S3859,183,3853.1,197z M3792.9,257.3c-14,5.9-28.8,8.9-44.1,8.9
			s-30.1-3-44.1-8.9c-10.9-4.6-21-10.9-29.9-18.6c11.8-9.9,21.6-22.2,28.4-35.9c7.8-15.6,11.8-32.5,11.8-50.1
			c0-17.5-3.9-34.3-11.7-49.9c-6.8-13.7-16.5-26-28.2-35.9c8.9-7.6,18.8-13.8,29.6-18.4c14-5.9,28.8-8.9,44.1-8.9s30.1,3,44.1,8.9
			c10.8,4.6,20.8,10.7,29.6,18.4c-11.7,9.9-21.4,22.2-28.2,35.9c-7.8,15.6-11.7,32.4-11.7,49.9c0,17.6,4,34.4,11.8,50.1
			c6.8,13.7,16.6,26.1,28.4,35.9C3813.8,246.4,3803.8,252.7,3792.9,257.3z M3859.3,106.2c-6-14.3-14.7-27.1-25.7-38.1
			c-11-11-23.9-19.7-38.1-25.7c-14.8-6.3-30.5-9.4-46.7-9.4c-16.2,0-31.9,3.2-46.7,9.4c-14.3,6-27.1,14.7-38.1,25.7
			c-11,11-19.7,23.9-25.7,38.1c-6.3,14.8-9.4,30.5-9.4,46.7s3.2,31.9,9.4,46.7c6,14.3,14.7,27.1,25.7,38.1
			c11,11,23.9,19.7,38.1,25.7c14.8,6.3,30.5,9.4,46.7,9.4c16.2,0,31.9-3.2,46.7-9.4c14.3-6,27.1-14.7,38.1-25.7
			c11-11,19.7-23.9,25.7-38.1c6.3-14.8,9.4-30.5,9.4-46.7S3865.6,121,3859.3,106.2z M3644.4,197c-5.9-14-8.9-28.8-8.9-44.1
			s3-30.1,8.9-44.1c5.7-13.5,13.9-25.6,24.3-36c0.4-0.4,0.9-0.9,1.4-1.3c11.3,9.4,20.7,21.2,27.2,34.3c7.3,14.6,11,30.4,11,46.9
			c0,16.5-3.7,32.4-11.1,47.1c-6.6,13.1-16,25-27.4,34.4c-0.4-0.3-0.7-0.7-1.1-1.1C3658.3,222.6,3650.1,210.5,3644.4,197z"/>
	</g>
</g>
<g id="Layer_3" class="st16">
	<g class="st17">
		<circle class="st14" cx="3771.8" cy="129.9" r="116.6"/>
		<path class="st15" d="M3882.8,83c-6.1-14.4-14.8-27.2-25.8-38.3c-11.1-11.1-24-19.8-38.3-25.8c-14.9-6.3-30.6-9.5-46.9-9.5
			s-32,3.2-46.9,9.5c-14.4,6.1-27.2,14.8-38.3,25.8c-11.1,11.1-19.8,24-25.8,38.3c-6.3,14.9-9.5,30.6-9.5,46.9s3.2,32,9.5,46.9
			c6.1,14.4,14.8,27.2,25.8,38.3c11.1,11.1,24,19.8,38.3,25.8c14.9,6.3,30.6,9.5,46.9,9.5s32-3.2,46.9-9.5
			c14.4-6.1,27.2-14.8,38.3-25.8c11.1-11.1,19.8-24,25.8-38.3c6.3-14.9,9.5-30.6,9.5-46.9S3889.1,97.9,3882.8,83z M3726.6,179.9
			c7.8-15.7,11.8-32.6,11.8-50.3c0-17.6-3.9-34.5-11.7-50.1c-6.7-13.5-16.3-25.8-27.9-35.6c8.7-7.4,18.5-13.4,29.1-17.9
			c13.9-5.9,28.7-8.9,43.9-8.9c15.2,0,30,3,43.9,8.9c10.6,4.5,20.3,10.5,29.1,17.9c-11.5,9.8-21.2,22.2-27.9,35.6
			c-7.8,15.6-11.7,32.5-11.7,50.1c0,17.7,4,34.6,11.8,50.3c6.8,13.5,16.5,25.9,28.1,35.7c-8.8,7.5-18.7,13.6-29.4,18.2
			c-13.9,5.9-28.7,8.9-43.9,8.9s-30-3-43.9-8.9c-10.7-4.5-20.6-10.6-29.4-18.2C3710.1,205.8,3719.8,193.5,3726.6,179.9z
			 M3884.5,129.9c0,15.2-3,30-8.9,43.9c-5.7,13.4-13.8,25.5-24.2,35.8c-0.2,0.2-0.5,0.5-0.7,0.7c-11.2-9.3-20.5-21-26.9-33.9
			c-7.3-14.6-11-30.4-11-46.8c0-16.4,3.7-32.1,10.9-46.7c6.4-12.9,15.6-24.6,26.7-33.8c0.3,0.3,0.7,0.7,1,1
			c10.4,10.4,18.5,22.4,24.2,35.8C3881.6,99.9,3884.5,114.7,3884.5,129.9z M3730.7,129.7c0,16.5-3.7,32.2-11,46.8
			c-6.4,12.9-15.7,24.6-26.9,33.9c-0.2-0.2-0.5-0.5-0.7-0.7c-10.4-10.4-18.5-22.4-24.2-35.8c-5.9-13.9-8.9-28.7-8.9-43.9
			s3-30,8.9-43.9c5.7-13.4,13.8-25.5,24.2-35.8c0.3-0.3,0.7-0.7,1-1c11.1,9.3,20.3,21,26.7,33.8
			C3727,97.6,3730.7,113.3,3730.7,129.7z"/>
	</g>
</g>
</svg>
