<?xml version="1.0" encoding="utf-8"?>
<!-- Generator: Adobe Illustrator 24.0.0, SVG Export Plug-In . SVG Version: 6.00 Build 0)  -->
<svg version="1.1" id="Layer_1" xmlns="http://www.w3.org/2000/svg" xmlns:xlink="http://www.w3.org/1999/xlink" x="0px" y="0px"
	 viewBox="0 0 619 394" style="enable-background:new 0 0 619 394;" xml:space="preserve">
<style type="text/css">
	.st0{display:none;}
	.st1{display:inline;}
	.st2{display:inline;clip-path:url(#SVGID_2_);}
	.st3{fill:none;stroke:#000000;}
	.st4{display:inline;clip-path:url(#SVGID_2_);fill:none;stroke:#000000;}
	.st5{fill:#026773;}
	.st6{fill:none;stroke:#000000;stroke-width:2;}
	.st7{fill:none;}
	.st8{fill:#F3E02B;}
	.st9{fill:#056873;}
	.st10{fill:#F2DF29;}
</style>
<g class="st0">
	<defs>
		<rect id="SVGID_1_" width="304" height="304"/>
	</defs>
	<clipPath id="SVGID_2_" class="st1">
		<use xlink:href="#SVGID_1_"  style="overflow:visible;"/>
	</clipPath>
	<g class="st2">
		<rect class="st3" width="304" height="304"/>
	</g>
	<rect x="315" class="st4" width="304" height="304"/>
	<use xlink:href="#SVGID_1_"  style="display:inline;overflow:visible;fill:none;stroke:#000000;"/>
</g>
<path d="M13.6,7.8c-6.8,0-11.2,4.3-11.2,9.9c0,5.5,4.1,9.4,10.3,9.4c5,0,8.4-2.8,9.5-6.9v1.4c0,9-4,13.7-10.4,13.7
	c-3.3,0-6.3-1.2-8-2.8v2.8c2.4,1.7,5.2,2.5,8.1,2.5c7.7,0,13-5.8,13-16.5C24.9,11.5,19.7,7.8,13.6,7.8z M13.5,24.9
	c-5,0-8.3-2.9-8.3-7.3s3.4-7.4,8.4-7.4c4.7,0,8.3,3.3,8.3,7.4S18.4,24.9,13.5,24.9z M29.1,8.4v2.4h17.5L30.4,37h3.1l16-26.3V8.4
	H29.1z M55,31.1c2.4,0,3.9-1.9,3.9-4.7c0-2.8-1.5-4.8-3.9-4.8c-2.4,0-3.9,1.9-3.9,4.8C51.1,29.2,52.6,31.1,55,31.1z M56.1,37H58
	l7-14.6h-1.9L56.1,37z M55,29.6c-1.3,0-2.1-1.3-2.1-3.2c0-1.9,0.8-3.3,2.1-3.3c1.4,0,2.2,1.4,2.2,3.3C57.1,28.2,56.3,29.6,55,29.6z
	 M66.4,37.2c2.4,0,3.9-1.9,3.9-4.7c0-2.8-1.5-4.8-3.9-4.8c-2.4,0-3.9,1.9-3.9,4.8C62.5,35.3,64,37.2,66.4,37.2z M66.4,35.7
	c-1.3,0-2.1-1.3-2.1-3.2c0-1.9,0.8-3.3,2.1-3.3c1.4,0,2.2,1.4,2.2,3.3C68.6,34.4,67.8,35.7,66.4,35.7z"/>
<path d="M7.7,54.1c0-2.7-1.9-3.9-3.6-3.9s-3.6,1.2-3.6,3.9c0,2.7,1.9,3.9,3.6,3.9S7.7,56.9,7.7,54.1z M4.1,56.9
	c-1.1,0-2.3-0.8-2.3-2.8c0-2.1,1.1-2.8,2.3-2.8s2.3,0.8,2.3,2.8C6.4,56.1,5.3,56.9,4.1,56.9z M9.7,49.8v0.5H8.6v1h1.1v6.5h1.3v-6.5
	h1.4v-1h-1.4v-0.6c0-0.8,0.1-0.9,0.8-0.9h0.6v-1.1h-0.7C10,47.7,9.7,48.2,9.7,49.8z M25.4,47.7H24V52h-5.3v-4.3h-1.4v10.2h1.4v-4.6
	H24v4.6h1.4V47.7z M28.9,47.7h-1.3v1.5h1.3V47.7z M28.9,50.3h-1.3v7.5h1.3V50.3z M36,50.3v1.2c-0.5-0.8-1.2-1.3-2.4-1.3
	c-1.7,0-3.2,1.4-3.2,3.8c0,2.4,1.5,3.8,3.2,3.8c1.2,0,1.9-0.5,2.4-1.3v0.7c0,1-0.2,1.4-0.5,1.7c-0.3,0.4-0.9,0.6-1.5,0.6
	c-1.2,0-1.6-0.5-1.8-1.2h-1.4c0.2,1.5,1.4,2.3,3.1,2.3c1.1,0,2.1-0.4,2.6-1c0.4-0.5,0.7-1.1,0.7-2.6v-6.5H36z M33.9,51.3
	c1.1,0,2.1,0.8,2.1,2.7c0,1.9-1,2.7-2.1,2.7c-1.2,0-2.1-1-2.1-2.7C31.8,52.3,32.7,51.3,33.9,51.3z M40.6,51.5v-3.8h-1.3v10.2h1.3
	v-4.1c0-1.6,0.8-2.5,2-2.5c1.5,0,1.7,1,1.7,2.2v4.4h1.3v-4.8c0-1.7-0.7-2.9-2.5-2.9C41.7,50.2,41,50.7,40.6,51.5z M48.2,54.5H54
	c0.2-2.4-1.2-4.3-3.5-4.3c-2.1,0-3.7,1.5-3.7,3.9c0,2.2,1.3,3.9,3.7,3.9c1.8,0,3-1.1,3.4-2.4h-1.3c-0.3,0.7-0.9,1.2-2.1,1.2
	S48.3,56.1,48.2,54.5z M48.3,53.4c0.1-1.5,1.1-2.1,2.3-2.1c1.3,0,2.1,1.1,2.2,2.1H48.3z M59.3,51.7v-1.4c-0.1,0-0.3,0-0.4,0
	c-1,0-1.8,0.5-2.1,1.4v-1.3h-1.2v7.5h1.3v-3.9c0-1.7,0.6-2.3,1.8-2.3C58.8,51.6,59,51.6,59.3,51.7z M64,47.7v10.2h6.9v-1.2h-5.5
	v-3.4h5.1V52h-5.1v-3.1h5.5v-1.2H64z M77.8,47.7v3.8c-0.5-0.8-1.3-1.3-2.5-1.3c-1.7,0-3.2,1.4-3.2,3.9c0,2.5,1.5,3.9,3.2,3.9
	c1.2,0,2-0.5,2.5-1.3v1.1h1.3V47.7H77.8z M75.7,51.3c1.1,0,2.2,0.8,2.2,2.8c0,2-1.1,2.8-2.2,2.8c-1.3,0-2.2-1-2.2-2.8
	S74.4,51.3,75.7,51.3z"/>
<path d="M328.6,7.8c-6.8,0-11.2,4.3-11.2,9.9c0,5.5,4.1,9.4,10.3,9.4c5,0,8.4-2.8,9.5-6.9v1.4c0,9-4,13.7-10.4,13.7
	c-3.3,0-6.3-1.2-8-2.8v2.8c2.4,1.7,5.2,2.5,8.1,2.5c7.7,0,13-5.8,13-16.5C339.9,11.5,334.7,7.8,328.6,7.8z M328.5,24.9
	c-5,0-8.3-2.9-8.3-7.3s3.4-7.4,8.4-7.4c4.7,0,8.3,3.3,8.3,7.4S333.4,24.9,328.5,24.9z M357.9,21.6c3.9-0.6,6.5-3.1,6.5-6.5
	c0-4.3-3.9-7.3-10.1-7.3c-3.5,0-6.3,0.9-8.7,2.5V13c1.5-1.3,4.1-2.8,8.3-2.8c4.9,0,7.9,2.1,7.9,5.3c0,3-2.3,5.4-7.7,5.4H348
	l-0.5,2.3h5.8c6.5,0,9.2,2.6,9.2,5.8c0,3.7-3.3,6.2-8.6,6.2c-3.6,0-6.7-1.1-8.6-2.5v2.6c2.4,1.6,5.4,2.4,8.9,2.4
	c6.6,0,10.9-3.7,10.9-8.5C365.3,25.3,362.8,22.3,357.9,21.6z M372.7,31.1c2.4,0,3.9-1.9,3.9-4.7c0-2.8-1.5-4.8-3.9-4.8
	c-2.4,0-3.9,1.9-3.9,4.8C368.9,29.2,370.4,31.1,372.7,31.1z M373.9,37h1.9l7-14.6h-1.9L373.9,37z M372.7,29.6
	c-1.3,0-2.1-1.3-2.1-3.2c0-1.9,0.8-3.3,2.1-3.3c1.4,0,2.2,1.4,2.2,3.3C374.9,28.2,374.1,29.6,372.7,29.6z M384.2,37.2
	c2.4,0,3.9-1.9,3.9-4.7c0-2.8-1.5-4.8-3.9-4.8c-2.4,0-3.9,1.9-3.9,4.8C380.3,35.3,381.8,37.2,384.2,37.2z M384.2,35.7
	c-1.3,0-2.1-1.3-2.1-3.2c0-1.9,0.8-3.3,2.1-3.3c1.4,0,2.2,1.4,2.2,3.3C386.3,34.4,385.5,35.7,384.2,35.7z"/>
<path d="M322.7,54.1c0-2.7-1.9-3.9-3.6-3.9s-3.6,1.2-3.6,3.9c0,2.7,1.9,3.9,3.6,3.9S322.7,56.9,322.7,54.1z M319.1,56.9
	c-1.1,0-2.3-0.8-2.3-2.8c0-2.1,1.1-2.8,2.3-2.8s2.3,0.8,2.3,2.8C321.4,56.1,320.3,56.9,319.1,56.9z M324.7,49.8v0.5h-1.1v1h1.1v6.5
	h1.3v-6.5h1.4v-1h-1.4v-0.6c0-0.8,0.1-0.9,0.8-0.9h0.6v-1.1h-0.7C325,47.7,324.7,48.2,324.7,49.8z M332.2,47.7v10.2h6.9v-1.2h-5.5
	v-3.4h5.1V52h-5.1v-3.1h5.5v-1.2H332.2z M341.9,57.9v-4.1c0-1.6,0.7-2.5,1.8-2.5c1.4,0,1.6,1,1.6,2.2v4.4h1.3v-4.1
	c0-1.6,0.7-2.5,1.8-2.5c1.4,0,1.6,1,1.6,2.2v4.4h1.3v-4.8c0-1.7-0.7-2.9-2.4-2.9c-1.1,0-1.9,0.4-2.5,1.3c-0.3-0.8-1-1.3-2.2-1.3
	c-1.1,0-1.8,0.5-2.3,1.3v-1.1h-1.3v7.5H341.9z M354.5,50.3h-1.3v10h1.3v-3.6c0.5,0.8,1.3,1.3,2.5,1.3c1.7,0,3.2-1.4,3.2-3.9
	c0-2.5-1.5-3.9-3.2-3.9c-1.2,0-2,0.5-2.5,1.3V50.3z M356.6,56.9c-1.1,0-2.2-0.8-2.2-2.8c0-2,1.1-2.8,2.2-2.8c1.3,0,2.2,1,2.2,2.8
	S357.9,56.9,356.6,56.9z M362.9,57.9V47.7h-1.3v10.2H362.9z M371.7,54.1c0-2.7-1.9-3.9-3.6-3.9s-3.6,1.2-3.6,3.9
	c0,2.7,1.9,3.9,3.6,3.9S371.7,56.9,371.7,54.1z M368.1,56.9c-1.1,0-2.3-0.8-2.3-2.8c0-2.1,1.1-2.8,2.3-2.8c1.1,0,2.3,0.8,2.3,2.8
	C370.3,56.1,369.2,56.9,368.1,56.9z M378.6,50.3h-1.3l-1.9,5.8l-1.9-5.8h-1.4l2.7,7.5l-0.1,0.2c-0.3,1.2-0.7,1.2-1.6,1.2h-0.5v1.1
	h0.7c1.7,0,2.1-0.5,2.6-2.1L378.6,50.3z M380.3,54.5h5.8c0.2-2.4-1.2-4.3-3.5-4.3c-2.1,0-3.7,1.5-3.7,3.9c0,2.2,1.3,3.9,3.7,3.9
	c1.8,0,3-1.1,3.4-2.4h-1.3c-0.3,0.7-0.9,1.2-2.1,1.2S380.4,56.1,380.3,54.5z M380.3,53.4c0.1-1.5,1.1-2.1,2.3-2.1
	c1.3,0,2.1,1.1,2.2,2.1H380.3z M391.4,51.7v-1.4c-0.1,0-0.3,0-0.4,0c-1,0-1.8,0.5-2.1,1.4v-1.3h-1.2v7.5h1.3v-3.9
	c0-1.7,0.6-2.3,1.8-2.3C390.9,51.6,391.1,51.6,391.4,51.7z M396.8,52.5h1.3c-0.2-1.4-1.3-2.3-3-2.3c-1.7,0-3,0.8-3,2.1
	c0,1.4,1.1,1.9,2.1,2.1l1.1,0.2c0.8,0.2,1.5,0.5,1.5,1.2c0,0.7-0.8,1.1-1.8,1.1c-1.1,0-1.7-0.6-1.9-1.5H392c0.1,1.3,1.3,2.6,3.2,2.6
	c1.7,0,3.1-0.9,3.1-2.3c0-1.5-1.2-2-2.6-2.2l-1.1-0.2c-0.7-0.1-1.1-0.4-1.1-1c0-0.7,0.8-1,1.6-1C395.9,51.3,396.6,51.6,396.8,52.5z"
	/>
<path d="M2.3,359.6v-1.1H1v7.5h1.3v-4.1c0-1.6,0.8-2.5,2-2.5c1.5,0,1.7,1,1.7,2.2v4.4h1.3v-4.8c0-1.7-0.7-2.9-2.5-2.9
	C3.4,358.3,2.7,358.9,2.3,359.6z M9.3,361.4h7v-1.2h-7V361.4z M9.3,364.2h7V363h-7V364.2z M26,363.5v-1.2h-1.9v-6.4h-1.3l-5,6.4v1.2
	h5v2.5h1.3v-2.5H26z M19.2,362.3l3.6-4.7v4.7H19.2z M32.6,363.2c0,1.3-1,2-2.3,2c-1.4,0-2.2-0.9-2.3-2.1h-1.3
	c0.1,1.7,1.2,3.2,3.6,3.2c1.9,0,3.7-1,3.7-3c0-1.1-0.4-2.1-1.9-2.5c1.1-0.4,1.7-1.3,1.7-2.4c0-1.9-1.5-2.6-3.3-2.6
	c-2.1,0-3.4,1.2-3.6,3h1.3c0.1-1.1,0.9-2,2.2-2c1.1,0,2,0.6,2,1.7c0,1.2-0.9,1.7-2.7,1.7h-0.2v1.2h0.2
	C31.3,361.2,32.6,361.7,32.6,363.2z M37.1,366h1.3v-10.1h-0.9c-0.6,1.1-1.3,1.3-2.8,1.3v0.9h2.4V366z M44.2,355.9V366h6.9v-1.2h-5.5
	v-3.4h5.1v-1.2h-5.1v-3.1h5.5v-1.2H44.2z M53.9,366v-4.1c0-1.6,0.7-2.5,1.8-2.5c1.4,0,1.6,1,1.6,2.2v4.4h1.3v-4.1
	c0-1.6,0.7-2.5,1.8-2.5c1.4,0,1.6,1,1.6,2.2v4.4h1.3v-4.8c0-1.7-0.7-2.9-2.4-2.9c-1,0-1.9,0.4-2.5,1.3c-0.3-0.8-1-1.3-2.2-1.3
	c-1.1,0-1.8,0.5-2.3,1.3v-1.1h-1.3v7.5H53.9z M66.5,358.5h-1.3v10h1.3v-3.6c0.5,0.8,1.3,1.3,2.5,1.3c1.7,0,3.2-1.4,3.2-3.9
	c0-2.5-1.5-3.9-3.2-3.9c-1.2,0-2,0.5-2.5,1.3V358.5z M68.6,365.1c-1.1,0-2.2-0.8-2.2-2.8s1.1-2.8,2.2-2.8c1.3,0,2.2,1,2.2,2.8
	S69.9,365.1,68.6,365.1z M74.9,366v-10.1h-1.3V366H74.9z M83.7,362.3c0-2.7-1.9-3.9-3.6-3.9s-3.6,1.2-3.6,3.9c0,2.7,1.9,3.9,3.6,3.9
	S83.7,365,83.7,362.3z M80.1,365.1c-1.1,0-2.3-0.8-2.3-2.8c0-2.1,1.1-2.8,2.3-2.8c1.1,0,2.3,0.8,2.3,2.8
	C82.3,364.2,81.2,365.1,80.1,365.1z M90.6,358.5h-1.3l-1.9,5.8l-1.9-5.8h-1.4l2.7,7.5l-0.1,0.2c-0.3,1.2-0.7,1.2-1.6,1.2h-0.5v1.1
	h0.7c1.7,0,2.1-0.5,2.6-2.1L90.6,358.5z M92.3,362.7h5.8c0.2-2.4-1.2-4.3-3.5-4.3c-2.1,0-3.7,1.5-3.7,3.9c0,2.2,1.3,3.9,3.7,3.9
	c1.8,0,3-1.1,3.4-2.4h-1.3c-0.3,0.7-0.9,1.2-2.1,1.2C93.5,365.1,92.4,364.3,92.3,362.7z M92.3,361.6c0.1-1.5,1.1-2.1,2.3-2.1
	c1.3,0,2.1,1.1,2.2,2.1H92.3z M103.3,359.8v-1.4c-0.1,0-0.3,0-0.4,0c-1,0-1.8,0.5-2.1,1.4v-1.3h-1.2v7.5h1.3v-3.9
	c0-1.7,0.6-2.3,1.8-2.3C102.8,359.7,103.1,359.8,103.3,359.8z M2.3,381.6v-1.1H1v7.5h1.3v-4.1c0-1.6,0.8-2.5,2-2.5
	c1.5,0,1.7,1,1.7,2.2v4.4h1.3v-4.8c0-1.7-0.7-2.9-2.5-2.9C3.4,380.3,2.7,380.9,2.3,381.6z M9.3,383.4h7v-1.2h-7V383.4z M9.3,386.2h7
	V385h-7V386.2z M24.1,384.7c0,1.6-1,2.5-2.3,2.5c-1.4,0-2.1-0.8-2.3-2.1h-1.3c0.2,1.6,1.3,3.1,3.6,3.1c1.9,0,3.6-1.2,3.6-3.5
	c0-2.2-1.6-3.5-3.3-3.5c-0.8,0-1.7,0.3-2.2,0.8l0.4-2.9H25v-1.2h-5.8l-0.7,5.5l1.3,0.1c0.2-0.5,0.9-1.1,2-1.1
	C22.9,382.3,24.1,383,24.1,384.7z M30.7,388.2c2.7,0,3.9-2,3.9-5.3c0-3.2-1.2-5.2-3.9-5.2s-3.9,2-3.9,5.2
	C26.8,386.1,28,388.2,30.7,388.2z M30.7,378.7c1.6,0,2.6,1.4,2.6,4.2c0,2.8-1,4.2-2.6,4.2c-1.6,0-2.6-1.4-2.6-4.2
	C28.1,380.1,29.1,378.7,30.7,378.7z M40,388.2c2.7,0,3.9-2,3.9-5.3c0-3.2-1.2-5.2-3.9-5.2s-3.9,2-3.9,5.2
	C36,386.1,37.3,388.2,40,388.2z M40,378.7c1.6,0,2.6,1.4,2.6,4.2c0,2.8-1,4.2-2.6,4.2s-2.6-1.4-2.6-4.2
	C37.4,380.1,38.4,378.7,40,378.7z M57.3,377.9h-1.4v4.3h-5.3v-4.3h-1.4V388h1.4v-4.6h5.3v4.6h1.4V377.9z M60.8,377.9h-1.3v1.5h1.3
	V377.9z M60.8,380.5h-1.3v7.5h1.3V380.5z M67.9,380.5v1.2c-0.5-0.8-1.2-1.3-2.4-1.3c-1.7,0-3.2,1.4-3.2,3.8c0,2.4,1.5,3.8,3.2,3.8
	c1.2,0,1.9-0.5,2.4-1.3v0.7c0,1-0.2,1.4-0.5,1.7c-0.3,0.4-0.9,0.6-1.5,0.6c-1.2,0-1.6-0.5-1.8-1.2h-1.4c0.2,1.5,1.4,2.3,3.1,2.3
	c1.1,0,2.1-0.4,2.6-1c0.4-0.5,0.7-1.1,0.7-2.6v-6.5H67.9z M65.8,381.4c1.1,0,2.1,0.8,2.1,2.7c0,1.9-1,2.7-2.1,2.7
	c-1.2,0-2.1-1-2.1-2.7C63.7,382.4,64.6,381.4,65.8,381.4z M72.4,381.6v-3.8h-1.3V388h1.3v-4.1c0-1.6,0.8-2.5,2-2.5
	c1.5,0,1.7,1,1.7,2.2v4.4h1.3v-4.8c0-1.7-0.7-2.9-2.5-2.9C73.6,380.3,72.9,380.9,72.4,381.6z M80.1,384.7h5.8
	c0.2-2.4-1.2-4.3-3.5-4.3c-2.1,0-3.7,1.5-3.7,3.9c0,2.2,1.3,3.9,3.7,3.9c1.8,0,3-1.1,3.4-2.4h-1.3c-0.3,0.7-0.9,1.2-2.1,1.2
	C81.3,387.1,80.2,386.3,80.1,384.7z M80.1,383.6c0.1-1.5,1.1-2.1,2.3-2.1c1.3,0,2.1,1.1,2.2,2.1H80.1z M91.2,381.8v-1.4
	c-0.1,0-0.3,0-0.4,0c-1,0-1.8,0.5-2.1,1.4v-1.3h-1.2v7.5h1.3v-3.9c0-1.7,0.6-2.3,1.8-2.3C90.6,381.7,90.9,381.8,91.2,381.8z
	 M95.9,377.9V388h6.9v-1.2h-5.5v-3.4h5.1v-1.2h-5.1v-3.1h5.5v-1.2H95.9z M109.7,377.9v3.8c-0.5-0.8-1.3-1.3-2.5-1.3
	c-1.7,0-3.2,1.4-3.2,3.9c0,2.5,1.5,3.9,3.2,3.9c1.2,0,2-0.5,2.5-1.3v1.1h1.3v-10.1H109.7z M107.6,381.4c1.1,0,2.2,0.8,2.2,2.8
	s-1.1,2.8-2.2,2.8c-1.3,0-2.2-1-2.2-2.8S106.3,381.4,107.6,381.4z"/>
<rect x="268" y="354" class="st5" width="40" height="40"/>
<line class="st6" x1="307" y1="394" x2="307" y2="354"/>
<rect x="268.5" y="354.5" class="st7" width="39" height="39"/>
<path d="M321.8,359.9L318,370h2l0.7-2.1h3.9l0.7,2.1h2.2l-3.8-10.1H321.8z M321.3,366.3l1.4-4l1.4,4H321.3z M331.8,368.4v-8.5h-2
	V370h6.9v-1.6H331.8z M340.9,368.4v-8.5h-2V370h6.9v-1.6H340.9z M353.6,359.9h-2.2l3.5,10.1h2l3.5-10.1h-2.1l-2.4,7.6L353.6,359.9z
	 M364.6,370v-10.1h-2V370H364.6z M371.8,366l2,4h2.2l-2.3-4.4c1.3-0.5,1.8-1.5,1.8-2.7c0-2.1-1.3-3.1-4.6-3.1h-3.3V370h2v-4H371.8z
	 M369.7,361.4h1.6c1.4,0,2.3,0.4,2.3,1.5c0,1-0.7,1.5-2.2,1.5h-1.7V361.4z M380.3,361.5v8.5h2v-8.5h3.1v-1.6h-8.3v1.6H380.3z
	 M389.5,359.9h-2v5.9c0,3.3,1.2,4.5,4.2,4.5c3,0,4.2-1.1,4.2-4.5v-5.9h-2v5.9c0,1.8-0.3,2.9-2.2,2.9c-1.8,0-2.2-1.1-2.2-2.9V359.9z
	 M401.2,359.9l-3.8,10.1h2l0.7-2.1h3.9l0.7,2.1h2.2l-3.8-10.1H401.2z M400.7,366.3l1.4-4l1.4,4H400.7z M411.1,368.4v-8.5h-2V370h6.9
	v-1.6H411.1z M323.5,392.2c3,0,5-2.1,5-5.3s-1.9-5.2-5-5.2s-5,2.1-5,5.2S320.5,392.2,323.5,392.2z M323.5,390.6
	c-1.6,0-2.9-1.3-2.9-3.7s1.3-3.7,2.9-3.7s2.9,1.3,2.9,3.7S325.1,390.6,323.5,390.6z M335.3,388l2,4h2.2l-2.3-4.4
	c1.3-0.5,1.8-1.5,1.8-2.7c0-2.1-1.3-3.1-4.6-3.1h-3.3V392h2v-4H335.3z M333.1,383.4h1.6c1.4,0,2.3,0.4,2.3,1.5c0,1-0.7,1.5-2.2,1.5
	h-1.7V383.4z M354.8,381.9h-2v4.1h-4.5v-4.1h-2V392h2v-4.4h4.5v4.4h2V381.9z M359.2,381.9h-2.3l3.7,6.2v3.9h2v-3.9l3.7-6.2H364
	l-2.4,4.2L359.2,381.9z M368.3,381.9V392h4.1c2.1,0,3.9-0.8,3.9-3c0-1.4-0.7-2-1.5-2.4c0.5-0.4,1.1-1.2,1.1-2.1
	c0-2.1-1.9-2.6-3.7-2.6H368.3z M370.3,386v-2.6h2.1c0.9,0,1.5,0.5,1.5,1.3c0,0.9-0.6,1.3-1.5,1.3H370.3z M370.3,390.4v-2.9h2.1
	c1.2,0,1.8,0.5,1.8,1.5c0,0.9-0.6,1.4-1.8,1.4H370.3z M383,388l2,4h2.2l-2.3-4.4c1.3-0.5,1.8-1.5,1.8-2.7c0-2.1-1.3-3.1-4.6-3.1
	h-3.3V392h2v-4H383z M380.8,383.4h1.6c1.4,0,2.3,0.4,2.3,1.5c0,1-0.7,1.5-2.2,1.5h-1.7V383.4z M391.6,392v-10.1h-2V392H391.6z
	 M397.7,381.9h-3V392h3c3.2,0,5.6-1,5.6-5.1C403.3,382.9,400.9,381.9,397.7,381.9z M397.6,383.4c1.8,0,3.7,0.5,3.7,3.5
	c0,3.1-1.8,3.5-3.7,3.5h-0.9v-7H397.6z"/>
<rect x="457" y="354.3" class="st8" width="40" height="40"/>
<line class="st6" x1="496" y1="394.3" x2="496" y2="354.3"/>
<path d="M507.9,358.1v10.1h7.4v-1.6h-5.4v-2.8h5.1v-1.6h-5.1v-2.5h5.4v-1.6H507.9z M520.4,363.1l-3.7,5.2h2.3l2.6-3.6l2.5,3.6h2.4
	l-3.7-5.3l3.5-4.9H524l-2.3,3.3l-2.3-3.3h-2.4L520.4,363.1z M536.8,364.9h-1.9c-0.3,1.4-1.3,1.9-2.5,1.9c-1.5,0-2.6-1.3-2.6-3.7
	c0-2.4,1.2-3.6,2.7-3.6c1.1,0,2.1,0.5,2.5,1.9h1.9c-0.3-2.1-2-3.5-4.3-3.5c-3,0-4.8,2-4.8,5.2c0,3.2,1.7,5.3,4.7,5.3
	C534.8,368.5,536.5,367,536.8,364.9z M541.3,366.6v-8.5h-2v10.1h6.9v-1.6H541.3z M550.3,358.1h-2v5.9c0,3.3,1.2,4.5,4.2,4.5
	c3,0,4.2-1.1,4.2-4.5v-5.9h-2v5.9c0,1.8-0.3,2.9-2.2,2.9c-1.8,0-2.2-1.1-2.2-2.9V358.1z M562.3,363.8l1.3,0.2
	c1.1,0.2,1.9,0.5,1.9,1.4c0,1.1-1.1,1.4-2,1.4c-1.2,0-2.2-0.4-2.5-1.9H559c0.2,2.2,1.8,3.5,4.3,3.5c2,0,4.1-1,4.1-3.1
	c0-2.1-1.8-2.8-3.5-3.1l-1.3-0.2c-0.8-0.2-1.4-0.5-1.4-1.3c0-0.9,1-1.3,2-1.3c1,0,2,0.4,2.1,1.6h1.9c-0.1-1.9-1.9-3.2-4-3.2
	c-1.9,0-4,0.9-4,2.9C559.3,362.6,560.6,363.5,562.3,363.8z M572,368.3v-10.1h-2v10.1H572z M576.2,358.1h-2.2l3.5,10.1h2l3.5-10.1
	H581l-2.4,7.6L576.2,358.1z M585.2,358.1v10.1h7.4v-1.6h-5.4v-2.8h5.1v-1.6h-5.1v-2.5h5.4v-1.6H585.2z M597.1,366.6v-8.5h-2v10.1
	h6.9v-1.6H597.1z M603.7,358.1h-2.3l3.7,6.2v3.9h2v-3.9l3.7-6.2h-2.3l-2.4,4.2L603.7,358.1z M509.9,390.3v-10.1h-2v10.1H509.9z
	 M518.9,390.3h2.6v-10.1h-1.9v7.7l-4.1-7.7H513v10.1h1.9v-7.7L518.9,390.3z M532.5,380.1h-3.5v10.1h2v-3.6h1.5
	c2.3,0,4.4-0.6,4.4-3.2C537,380.4,534.6,380.1,532.5,380.1z M531.1,381.7h1.5c1.1,0,2.4,0.1,2.4,1.8c0,1.3-1,1.7-2.2,1.7h-1.7V381.7
	z M539.3,380.1v10.1h7.4v-1.6h-5.4v-2.8h5.1v-1.6h-5.1v-2.5h5.4v-1.6H539.3z M553.3,386.3l2,4h2.2l-2.3-4.4c1.3-0.5,1.8-1.5,1.8-2.7
	c0-2.1-1.3-3.1-4.6-3.1h-3.3v10.1h2v-4H553.3z M551.2,381.7h1.6c1.4,0,2.3,0.4,2.3,1.5c0,1-0.7,1.5-2.2,1.5h-1.7V381.7z
	 M562.6,385.8l1.3,0.2c1.1,0.2,1.9,0.5,1.9,1.4c0,1.1-1.1,1.4-2,1.4c-1.2,0-2.2-0.4-2.5-1.9h-1.9c0.2,2.2,1.8,3.5,4.3,3.5
	c2,0,4.1-1,4.1-3.1c0-2.1-1.8-2.8-3.5-3.1l-1.3-0.2c-0.8-0.2-1.4-0.5-1.4-1.3c0-0.9,1-1.3,2-1.3c1,0,2,0.4,2.1,1.6h1.9
	c-0.1-1.9-1.9-3.2-4-3.2c-1.9,0-4,0.9-4,2.9C559.6,384.6,560.9,385.5,562.6,385.8z M574.9,390.5c3,0,5-2.1,5-5.3s-1.9-5.2-5-5.2
	s-5,2.1-5,5.2S571.9,390.5,574.9,390.5z M574.9,388.9c-1.6,0-2.9-1.3-2.9-3.7s1.3-3.7,2.9-3.7s2.9,1.3,2.9,3.7
	S576.5,388.9,574.9,388.9z M588.5,390.3h2.6v-10.1h-1.9v7.7l-4.1-7.7h-2.6v10.1h1.9v-7.7L588.5,390.3z"/>
<g id="Layer_1_1_">
	<circle class="st9" cx="152.1" cy="16.2" r="6.8"/>
	<circle class="st9" cx="137" cy="31.4" r="6.8"/>
	<circle class="st9" cx="121.8" cy="46.5" r="6.8"/>
	<circle class="st9" cx="106.7" cy="61.6" r="6.8"/>
	<circle class="st9" cx="91.6" cy="76.8" r="6.8"/>
	<circle class="st9" cx="76.4" cy="91.9" r="6.8"/>
	<circle class="st9" cx="61.3" cy="107.1" r="6.8"/>
	<circle class="st9" cx="46.1" cy="122.2" r="6.8"/>
	<circle class="st9" cx="31" cy="137.3" r="6.8"/>
	<circle class="st9" cx="15.9" cy="152.5" r="6.8"/>
	<circle class="st9" cx="167.3" cy="31.4" r="6.8"/>
	<circle class="st9" cx="152.1" cy="46.5" r="6.8"/>
	<circle class="st9" cx="137" cy="61.6" r="6.8"/>
	<circle class="st9" cx="121.8" cy="76.8" r="6.8"/>
	<circle class="st9" cx="106.7" cy="91.9" r="6.8"/>
	<circle class="st9" cx="91.6" cy="107.1" r="6.8"/>
	<circle class="st9" cx="76.4" cy="122.2" r="6.8"/>
	<circle class="st9" cx="61.3" cy="137.3" r="6.8"/>
	<circle class="st9" cx="46.1" cy="152.5" r="6.8"/>
	<circle class="st9" cx="31" cy="167.6" r="6.8"/>
	<circle class="st9" cx="182.4" cy="46.5" r="6.8"/>
	<circle class="st9" cx="167.3" cy="61.6" r="6.8"/>
	<circle class="st9" cx="152.1" cy="76.8" r="6.8"/>
	<circle class="st9" cx="137" cy="91.9" r="6.8"/>
	<circle class="st9" cx="121.8" cy="107.1" r="6.8"/>
	<circle class="st9" cx="106.7" cy="122.2" r="6.8"/>
	<circle class="st9" cx="91.6" cy="137.3" r="6.8"/>
	<circle class="st9" cx="76.4" cy="152.5" r="6.8"/>
	<circle class="st9" cx="61.3" cy="167.6" r="6.8"/>
	<circle class="st9" cx="46.1" cy="182.7" r="6.8"/>
	<circle class="st9" cx="197.5" cy="61.6" r="6.8"/>
	<circle class="st9" cx="182.4" cy="76.8" r="6.8"/>
	<circle class="st9" cx="167.3" cy="91.9" r="6.8"/>
	<circle class="st9" cx="152.1" cy="107.1" r="6.8"/>
	<circle class="st9" cx="137" cy="122.2" r="6.8"/>
	<circle class="st9" cx="121.8" cy="137.3" r="6.8"/>
	<circle class="st9" cx="106.7" cy="152.5" r="6.8"/>
	<circle class="st9" cx="91.6" cy="167.6" r="6.8"/>
	<circle class="st9" cx="76.4" cy="182.7" r="6.8"/>
	<circle class="st9" cx="61.3" cy="197.9" r="6.8"/>
	<circle class="st9" cx="212.7" cy="76.8" r="6.8"/>
	<circle class="st9" cx="197.5" cy="91.9" r="6.8"/>
	<circle class="st9" cx="182.4" cy="107.1" r="6.8"/>
	<circle class="st9" cx="167.3" cy="122.2" r="6.8"/>
	<circle class="st9" cx="152.1" cy="137.3" r="6.8"/>
	<circle class="st9" cx="137" cy="152.5" r="6.8"/>
	<circle class="st9" cx="121.8" cy="167.6" r="6.8"/>
	<circle class="st9" cx="106.7" cy="182.7" r="6.8"/>
	<circle class="st9" cx="91.6" cy="197.9" r="6.8"/>
	<circle class="st9" cx="76.4" cy="213" r="6.8"/>
	<circle class="st9" cx="227.8" cy="91.9" r="6.8"/>
	<circle class="st9" cx="212.7" cy="107.1" r="6.8"/>
	<circle class="st9" cx="197.5" cy="122.2" r="6.8"/>
	<circle class="st9" cx="182.4" cy="137.3" r="6.8"/>
	<circle class="st9" cx="167.3" cy="152.5" r="6.8"/>
	<circle class="st9" cx="152.1" cy="167.6" r="6.8"/>
	<circle class="st9" cx="137" cy="182.7" r="6.8"/>
	<circle class="st9" cx="121.8" cy="197.9" r="6.8"/>
	<circle class="st9" cx="106.7" cy="213" r="6.8"/>
	<circle class="st9" cx="91.5" cy="228.2" r="6.8"/>
	<circle class="st9" cx="242.9" cy="107.1" r="6.8"/>
	<circle class="st9" cx="227.8" cy="122.2" r="6.8"/>
	<circle class="st9" cx="212.7" cy="137.3" r="6.8"/>
	<circle class="st9" cx="197.5" cy="152.5" r="6.8"/>
	<circle class="st9" cx="182.4" cy="167.6" r="6.8"/>
	<circle class="st9" cx="167.2" cy="182.7" r="6.8"/>
	<circle class="st9" cx="152.1" cy="197.9" r="6.8"/>
	<circle class="st9" cx="137" cy="213" r="6.8"/>
	<circle class="st9" cx="121.8" cy="228.2" r="6.8"/>
	<circle class="st9" cx="106.7" cy="243.3" r="6.8"/>
	<circle class="st9" cx="258.1" cy="122.2" r="6.8"/>
	<circle class="st9" cx="242.9" cy="137.3" r="6.8"/>
	<circle class="st9" cx="227.8" cy="152.5" r="6.8"/>
	<circle class="st9" cx="212.7" cy="167.6" r="6.8"/>
	<circle class="st9" cx="197.5" cy="182.7" r="6.8"/>
	<circle class="st9" cx="182.4" cy="197.9" r="6.8"/>
	<circle class="st9" cx="167.3" cy="213" r="6.8"/>
	<circle class="st9" cx="152.1" cy="228.2" r="6.8"/>
	<circle class="st9" cx="137" cy="243.3" r="6.8"/>
	<circle class="st9" cx="121.8" cy="258.4" r="6.8"/>
	<circle class="st9" cx="273.2" cy="137.3" r="6.8"/>
	<circle class="st9" cx="258.1" cy="152.5" r="6.8"/>
	<circle class="st9" cx="242.9" cy="167.6" r="6.8"/>
	<circle class="st9" cx="227.8" cy="182.7" r="6.8"/>
	<circle class="st9" cx="212.7" cy="197.9" r="6.8"/>
	<circle class="st9" cx="197.5" cy="213" r="6.8"/>
	<circle class="st9" cx="182.4" cy="228.2" r="6.8"/>
	<circle class="st9" cx="167.3" cy="243.3" r="6.8"/>
	<circle class="st9" cx="152.1" cy="258.4" r="6.8"/>
	<circle class="st10" cx="137" cy="273.6" r="6.8"/>
	<circle class="st9" cx="288.4" cy="152.5" r="6.8"/>
	<circle class="st9" cx="273.2" cy="167.6" r="6.8"/>
	<circle class="st9" cx="258.1" cy="182.7" r="6.8"/>
	<circle class="st9" cx="242.9" cy="197.9" r="6.8"/>
	<circle class="st9" cx="227.8" cy="213" r="6.8"/>
	<circle class="st9" cx="212.7" cy="228.2" r="6.8"/>
	<circle class="st9" cx="197.5" cy="243.3" r="6.8"/>
	<circle class="st9" cx="182.4" cy="258.4" r="6.8"/>
	<circle class="st10" cx="167.2" cy="273.6" r="6.8"/>
	<circle class="st10" cx="152.1" cy="288.7" r="6.8"/>
	<rect x="0.6" y="0.5" class="st7" width="303.1" height="303.5"/>
</g>
<g id="Layer_1_2_">
	<circle class="st9" cx="467.1" cy="16.2" r="6.8"/>
	<circle class="st9" cx="452" cy="31.3" r="6.8"/>
	<circle class="st9" cx="436.8" cy="46.5" r="6.8"/>
	<circle class="st9" cx="421.7" cy="61.6" r="6.8"/>
	<circle class="st9" cx="406.6" cy="76.7" r="6.8"/>
	<circle class="st9" cx="391.4" cy="91.9" r="6.8"/>
	<circle class="st9" cx="376.3" cy="107" r="6.8"/>
	<circle class="st9" cx="361.1" cy="122.2" r="6.8"/>
	<circle class="st9" cx="346" cy="137.3" r="6.8"/>
	<circle class="st9" cx="330.9" cy="152.4" r="6.8"/>
	<circle class="st9" cx="482.3" cy="31.3" r="6.8"/>
	<circle class="st9" cx="467.1" cy="46.5" r="6.8"/>
	<circle class="st9" cx="452" cy="61.6" r="6.8"/>
	<circle class="st9" cx="436.8" cy="76.7" r="6.8"/>
	<circle class="st9" cx="421.7" cy="91.9" r="6.8"/>
	<circle class="st9" cx="406.6" cy="107" r="6.8"/>
	<circle class="st9" cx="391.4" cy="122.2" r="6.8"/>
	<circle class="st9" cx="376.3" cy="137.3" r="6.8"/>
	<circle class="st9" cx="361.1" cy="152.4" r="6.8"/>
	<circle class="st9" cx="346" cy="167.6" r="6.8"/>
	<circle class="st9" cx="497.4" cy="46.5" r="6.8"/>
	<circle class="st9" cx="482.3" cy="61.6" r="6.8"/>
	<circle class="st9" cx="467.1" cy="76.7" r="6.8"/>
	<circle class="st9" cx="452" cy="91.9" r="6.8"/>
	<circle class="st9" cx="436.8" cy="107" r="6.8"/>
	<circle class="st9" cx="421.7" cy="122.2" r="6.8"/>
	<circle class="st9" cx="406.6" cy="137.3" r="6.8"/>
	<circle class="st9" cx="391.4" cy="152.4" r="6.8"/>
	<circle class="st9" cx="376.3" cy="167.6" r="6.8"/>
	<circle class="st9" cx="361.1" cy="182.7" r="6.8"/>
	<circle class="st9" cx="512.5" cy="61.6" r="6.8"/>
	<circle class="st9" cx="497.4" cy="76.7" r="6.8"/>
	<circle class="st9" cx="482.3" cy="91.9" r="6.8"/>
	<circle class="st9" cx="467.1" cy="107" r="6.8"/>
	<circle class="st9" cx="452" cy="122.2" r="6.8"/>
	<circle class="st9" cx="436.8" cy="137.3" r="6.8"/>
	<circle class="st9" cx="421.7" cy="152.4" r="6.8"/>
	<circle class="st9" cx="406.6" cy="167.6" r="6.8"/>
	<circle class="st9" cx="391.4" cy="182.7" r="6.8"/>
	<circle class="st9" cx="376.3" cy="197.9" r="6.8"/>
	<circle class="st9" cx="527.7" cy="76.7" r="6.8"/>
	<circle class="st9" cx="512.5" cy="91.9" r="6.8"/>
	<circle class="st9" cx="497.4" cy="107" r="6.8"/>
	<circle class="st9" cx="482.3" cy="122.2" r="6.8"/>
	<circle class="st9" cx="467.1" cy="137.3" r="6.8"/>
	<circle class="st9" cx="452" cy="152.4" r="6.8"/>
	<circle class="st9" cx="436.8" cy="167.6" r="6.8"/>
	<circle class="st9" cx="421.7" cy="182.7" r="6.8"/>
	<circle class="st9" cx="406.6" cy="197.9" r="6.8"/>
	<circle class="st9" cx="391.4" cy="213" r="6.8"/>
	<circle class="st9" cx="542.8" cy="91.9" r="6.8"/>
	<circle class="st9" cx="527.7" cy="107" r="6.8"/>
	<circle class="st9" cx="512.5" cy="122.2" r="6.8"/>
	<circle class="st9" cx="497.4" cy="137.3" r="6.8"/>
	<circle class="st9" cx="482.3" cy="152.4" r="6.8"/>
	<circle class="st9" cx="467.1" cy="167.6" r="6.8"/>
	<circle class="st9" cx="452" cy="182.7" r="6.8"/>
	<circle class="st9" cx="436.8" cy="197.9" r="6.8"/>
	<circle class="st9" cx="421.7" cy="213" r="6.8"/>
	<circle class="st9" cx="406.5" cy="228.1" r="6.8"/>
	<circle class="st9" cx="557.9" cy="107" r="6.8"/>
	<circle class="st9" cx="542.8" cy="122.2" r="6.8"/>
	<circle class="st9" cx="527.7" cy="137.3" r="6.8"/>
	<circle class="st9" cx="512.5" cy="152.4" r="6.8"/>
	<circle class="st9" cx="497.4" cy="167.6" r="6.8"/>
	<circle class="st9" cx="482.2" cy="182.7" r="6.8"/>
	<circle class="st9" cx="467.1" cy="197.9" r="6.8"/>
	<circle class="st9" cx="452" cy="213" r="6.8"/>
	<circle class="st9" cx="436.8" cy="228.1" r="6.8"/>
	<circle class="st9" cx="421.7" cy="243.3" r="6.8"/>
	<circle class="st9" cx="573.1" cy="122.2" r="6.8"/>
	<circle class="st9" cx="557.9" cy="137.3" r="6.8"/>
	<circle class="st9" cx="542.8" cy="152.4" r="6.8"/>
	<circle class="st9" cx="527.7" cy="167.6" r="6.8"/>
	<circle class="st9" cx="512.5" cy="182.7" r="6.8"/>
	<circle class="st9" cx="497.4" cy="197.9" r="6.8"/>
	<circle class="st9" cx="482.3" cy="213" r="6.8"/>
	<circle class="st9" cx="467.1" cy="228.1" r="6.8"/>
	<circle class="st9" cx="452" cy="243.3" r="6.8"/>
	<circle class="st10" cx="436.8" cy="258.4" r="6.8"/>
	<circle class="st9" cx="588.2" cy="137.3" r="6.8"/>
	<circle class="st9" cx="573.1" cy="152.4" r="6.8"/>
	<circle class="st9" cx="557.9" cy="167.6" r="6.8"/>
	<circle class="st9" cx="542.8" cy="182.7" r="6.8"/>
	<circle class="st9" cx="527.7" cy="197.9" r="6.8"/>
	<circle class="st9" cx="512.5" cy="213" r="6.8"/>
	<circle class="st9" cx="497.4" cy="228.1" r="6.8"/>
	<circle class="st10" cx="482.2" cy="243.3" r="6.8"/>
	<circle class="st10" cx="467.1" cy="258.4" r="6.8"/>
	<circle class="st10" cx="452" cy="273.5" r="6.8"/>
	<circle class="st9" cx="603.4" cy="152.4" r="6.8"/>
	<circle class="st9" cx="588.2" cy="167.6" r="6.8"/>
	<circle class="st9" cx="573.1" cy="182.7" r="6.8"/>
	<circle class="st9" cx="557.9" cy="197.9" r="6.8"/>
	<circle class="st9" cx="542.8" cy="213" r="6.8"/>
	<circle class="st9" cx="527.7" cy="228.1" r="6.8"/>
	<circle class="st9" cx="512.5" cy="243.3" r="6.8"/>
	<circle class="st10" cx="497.4" cy="258.4" r="6.8"/>
	<circle class="st10" cx="482.2" cy="273.6" r="6.8"/>
	<circle class="st10" cx="467.1" cy="288.7" r="6.8"/>
	<rect x="315.6" y="0.4" class="st7" width="303.1" height="303.5"/>
</g>
</svg>
