<svg width="620" height="395" viewBox="0 0 620 395" fill="none" xmlns="http://www.w3.org/2000/svg">
<rect x="260" y="47.9998" width="145" height="25" fill="#F6F6F8"/>
<circle cx="259.5" cy="60.4998" r="12.5" fill="#FF1100"/>
<path d="M195.202 60.6678C195.202 61.9558 194.432 62.7258 193.368 62.7258C192.122 62.7258 191.52 61.8578 191.408 60.8078H189.588C189.7 62.5578 190.96 64.1818 193.34 64.1818C195.426 64.1818 197.162 62.8938 197.162 60.6538C197.162 58.3158 195.552 57.0838 193.816 57.0838C192.878 57.0838 192.22 57.3358 191.8 57.6438L192.08 55.4738H196.756V53.8498H190.498L189.826 59.4358L191.59 59.5198C191.786 59.0438 192.43 58.5958 193.326 58.5958C194.264 58.5958 195.202 59.2818 195.202 60.6678ZM207.005 56.2718C207.005 54.7738 205.619 53.6678 203.463 53.6678C201.321 53.6678 199.935 54.7738 199.935 56.2858C199.935 57.1818 200.341 58.0918 201.181 58.5678C200.047 59.1978 199.627 60.1218 199.627 61.1018C199.627 63.0898 201.321 64.1818 203.463 64.1818C205.619 64.1818 207.313 63.0898 207.313 61.1018C207.313 60.1218 206.907 59.2118 205.773 58.5678C206.641 58.0358 207.005 57.1818 207.005 56.2718ZM203.463 55.1238C204.471 55.1238 205.129 55.6698 205.129 56.5098C205.129 57.3498 204.471 57.9658 203.463 57.9658C202.455 57.9658 201.811 57.3498 201.811 56.5098C201.811 55.6698 202.455 55.1238 203.463 55.1238ZM201.601 61.0178C201.601 60.0098 202.329 59.3518 203.463 59.3518C204.611 59.3518 205.339 60.0098 205.339 61.0178C205.339 62.0258 204.611 62.7258 203.463 62.7258C202.329 62.7258 201.601 62.0258 201.601 61.0178ZM209.617 56.6918C209.617 58.5398 210.485 59.6598 212.109 59.6598C213.719 59.6598 214.573 58.5398 214.573 56.6918C214.573 54.8578 213.719 53.7518 212.109 53.7518C210.485 53.7518 209.617 54.8578 209.617 56.6918ZM212.179 63.9998H214.167L221.181 53.8498H219.193L212.179 63.9998ZM213.201 56.6918C213.201 58.0778 212.739 58.6798 212.109 58.6798C211.451 58.6798 211.003 58.0778 211.003 56.6918C211.003 55.3198 211.451 54.7458 212.109 54.7458C212.739 54.7458 213.201 55.3198 213.201 56.6918ZM218.787 61.1298C218.787 62.9778 219.655 64.0978 221.279 64.0978C222.889 64.0978 223.743 62.9778 223.743 61.1298C223.743 59.2958 222.889 58.1898 221.279 58.1898C219.655 58.1898 218.787 59.2958 218.787 61.1298ZM222.371 61.1298C222.371 62.5158 221.909 63.1178 221.279 63.1178C220.621 63.1178 220.173 62.5158 220.173 61.1298C220.173 59.7578 220.621 59.1838 221.279 59.1838C221.909 59.1838 222.371 59.7578 222.371 61.1298Z" fill="black"/>
<rect x="404" y="47.9998" width="105" height="25" fill="#F6F6F8"/>
<circle cx="509.376" cy="60.4998" r="12.5" fill="#FFC7B4"/>
<path d="M552.313 62.5638V60.9258H550.577V54.8498L548.687 54.8498L543.647 61.0518V62.5638H548.659V64.9998H550.577V62.5638H552.313ZM545.761 60.9258L548.659 57.2998V60.9258H545.761ZM561.214 57.3978C561.214 55.6338 559.912 54.6678 557.882 54.6678C555.628 54.6678 554.144 56.0258 554.172 58.1258H556.048C556.048 56.6138 556.916 56.0958 557.77 56.0958C558.708 56.0958 559.268 56.6138 559.268 57.4958C559.268 59.1058 557.252 60.7998 553.99 63.4318V64.9998H561.452V63.3758H556.244C559.366 61.2898 561.214 59.3018 561.214 57.3978ZM563.441 57.6918C563.441 59.5398 564.309 60.6598 565.933 60.6598C567.543 60.6598 568.397 59.5398 568.397 57.6918C568.397 55.8578 567.543 54.7518 565.933 54.7518C564.309 54.7518 563.441 55.8578 563.441 57.6918ZM566.003 64.9998H567.991L575.005 54.8498H573.017L566.003 64.9998ZM567.025 57.6918C567.025 59.0778 566.563 59.6798 565.933 59.6798C565.275 59.6798 564.827 59.0778 564.827 57.6918C564.827 56.3198 565.275 55.7458 565.933 55.7458C566.563 55.7458 567.025 56.3198 567.025 57.6918ZM572.611 62.1298C572.611 63.9778 573.479 65.0978 575.103 65.0978C576.713 65.0978 577.567 63.9778 577.567 62.1298C577.567 60.2958 576.713 59.1898 575.103 59.1898C573.479 59.1898 572.611 60.2958 572.611 62.1298ZM576.195 62.1298C576.195 63.5158 575.733 64.1178 575.103 64.1178C574.445 64.1178 573.997 63.5158 573.997 62.1298C573.997 60.7578 574.445 60.1838 575.103 60.1838C575.733 60.1838 576.195 60.7578 576.195 62.1298Z" fill="black"/>
<path d="M2.90392 54.8498V64.9998H6.90792C8.93792 64.9998 10.5479 64.1598 10.5479 62.0038C10.5479 60.7578 9.97392 60.0018 9.00792 59.5958C9.70792 59.1898 10.1279 58.3218 10.1279 57.3558C10.1279 55.3398 8.44792 54.8498 6.55792 54.8498H2.90392ZM4.33192 59.1898V56.0538H6.78192C7.91592 56.0538 8.68592 56.5158 8.68592 57.5518C8.68592 58.7418 7.94392 59.1898 6.78192 59.1898H4.33192ZM4.33192 63.7958V60.3238H6.83792C8.36392 60.3238 9.07792 60.8278 9.07792 62.0178C9.07792 63.1658 8.36392 63.7958 6.92192 63.7958H4.33192ZM13.3882 64.9998V54.8498H12.1142V64.9998H13.3882ZM14.9611 63.0118C14.9611 64.3978 16.1371 65.1818 17.5511 65.1818C18.8811 65.1818 19.6651 64.7338 20.1271 63.9638C20.1411 64.4118 20.1831 64.7198 20.2251 64.9998H21.5131C21.3731 64.2858 21.3031 63.4178 21.3171 62.1578L21.3311 60.4218C21.3451 58.3078 20.4071 57.3138 18.3351 57.3138C16.8651 57.3138 15.4371 58.2238 15.3111 59.8478H16.6271C16.6831 58.9238 17.2991 58.3498 18.3491 58.3498C19.2871 58.3498 20.0571 58.8118 20.0571 60.1838V60.3658C16.9631 60.7158 14.9611 61.2338 14.9611 63.0118ZM20.1551 61.3738V61.8498C20.1551 63.6278 19.0211 64.1738 17.8311 64.1738C16.9211 64.1738 16.3751 63.6978 16.3751 62.9838C16.3751 61.9478 17.8451 61.6118 20.1551 61.3738ZM29.5014 59.9878C29.3334 58.7138 28.1714 57.3418 26.3514 57.3418C24.1254 57.3418 22.7114 59.0078 22.7114 61.2478C22.7114 63.5438 24.0694 65.1818 26.2254 65.1818C27.9754 65.1818 29.3334 63.9638 29.5854 62.5498H28.2694C28.0874 63.3478 27.3314 64.0618 26.2674 64.0618C25.1474 64.0618 24.0974 63.1518 24.0974 61.2338C24.0974 59.3438 25.1334 58.4618 26.2674 58.4618C27.2474 58.4618 28.0314 59.0918 28.2134 59.9878H29.5014ZM32.2964 54.8498H31.0224V64.9998H32.2964V62.4798L33.1784 61.5278L35.7404 64.9998H37.2944L34.0324 60.5898L36.9024 57.4678H35.3344L32.2964 60.8558V54.8498ZM48.147 61.2618C48.147 58.5318 46.285 57.3418 44.535 57.3418C42.785 57.3418 40.923 58.5318 40.923 61.2618C40.923 63.9918 42.785 65.1818 44.535 65.1818C46.285 65.1818 48.147 63.9918 48.147 61.2618ZM44.535 64.0618C43.387 64.0618 42.281 63.2638 42.281 61.2618C42.281 59.2038 43.387 58.4618 44.535 58.4618C45.683 58.4618 46.789 59.2598 46.789 61.2618C46.789 63.1938 45.683 64.0618 44.535 64.0618ZM53.4228 58.7978V57.4398C53.2828 57.4258 53.1708 57.4258 53.0448 57.4258C52.0648 57.4538 51.2948 57.9298 50.9168 58.7838V57.4678H49.6708V64.9998H50.9448V61.0518C50.9448 59.3998 51.5328 58.7418 52.7088 58.7418C52.9188 58.7418 53.1568 58.7698 53.4228 58.7978ZM60.7276 54.8498L56.9616 64.9998H58.4176L59.2016 62.8018H63.8636L64.6616 64.9998H66.2016L62.3796 54.8498H60.7276ZM59.6356 61.5838L61.5116 56.2918L63.4156 61.5838H59.6356ZM67.2604 56.9218V57.4678H66.2104V58.4898H67.2604V64.9998H68.5344V58.4898H69.9484V57.4678H68.5344V56.8518C68.5344 56.0678 68.6464 55.9138 69.3184 55.9138H69.9484V54.8498H69.2904C67.5824 54.8498 67.2604 55.3538 67.2604 56.9218ZM75.0791 58.7978V57.4398C74.9391 57.4258 74.8271 57.4258 74.7011 57.4258C73.7211 57.4538 72.9511 57.9298 72.5731 58.7838V57.4678H71.3271V64.9998H72.6011V61.0518C72.6011 59.3998 73.1891 58.7418 74.3651 58.7418C74.5751 58.7418 74.8131 58.7698 75.0791 58.7978ZM77.5776 54.8498H76.3036V56.3898H77.5776V54.8498ZM77.5776 57.4678H76.3036V64.9998H77.5776V57.4678ZM85.8705 59.9878C85.7025 58.7138 84.5405 57.3418 82.7205 57.3418C80.4945 57.3418 79.0805 59.0078 79.0805 61.2478C79.0805 63.5438 80.4385 65.1818 82.5945 65.1818C84.3445 65.1818 85.7025 63.9638 85.9545 62.5498H84.6385C84.4565 63.3478 83.7005 64.0618 82.6365 64.0618C81.5165 64.0618 80.4665 63.1518 80.4665 61.2338C80.4665 59.3438 81.5025 58.4618 82.6365 58.4618C83.6165 58.4618 84.4005 59.0918 84.5825 59.9878H85.8705ZM86.9435 63.0118C86.9435 64.3978 88.1195 65.1818 89.5335 65.1818C90.8635 65.1818 91.6475 64.7338 92.1095 63.9638C92.1235 64.4118 92.1655 64.7198 92.2075 64.9998H93.4955C93.3555 64.2858 93.2855 63.4178 93.2995 62.1578L93.3135 60.4218C93.3275 58.3078 92.3895 57.3138 90.3175 57.3138C88.8475 57.3138 87.4195 58.2238 87.2935 59.8478H88.6095C88.6655 58.9238 89.2815 58.3498 90.3315 58.3498C91.2695 58.3498 92.0395 58.8118 92.0395 60.1838V60.3658C88.9455 60.7158 86.9435 61.2338 86.9435 63.0118ZM92.1375 61.3738V61.8498C92.1375 63.6278 91.0035 64.1738 89.8135 64.1738C88.9035 64.1738 88.3575 63.6978 88.3575 62.9838C88.3575 61.9478 89.8275 61.6118 92.1375 61.3738ZM96.4858 58.6018V57.4678H95.2118V64.9998H96.4858V60.9118C96.4858 59.3018 97.2418 58.4478 98.4738 58.4478C99.9298 58.4478 100.126 59.4558 100.126 60.6178V64.9998H101.4V60.2398C101.4 58.5178 100.742 57.3418 98.9218 57.3418C97.6478 57.3418 96.9198 57.8878 96.4858 58.6018ZM109.386 54.8498L105.62 64.9998H107.076L107.86 62.8018H112.522L113.32 64.9998H114.86L111.038 54.8498H109.386ZM108.294 61.5838L110.17 56.2918L112.074 61.5838H108.294ZM117.144 64.9998V60.9118C117.144 59.3018 117.872 58.4478 118.964 58.4478C120.35 58.4478 120.574 59.4558 120.574 60.6178V64.9998H121.848V60.9118C121.848 59.3018 122.576 58.4478 123.668 58.4478C125.054 58.4478 125.278 59.4558 125.278 60.6178V64.9998H126.552V60.2398C126.552 58.5178 125.866 57.3418 124.116 57.3418C123.066 57.3418 122.184 57.7478 121.582 58.6718C121.246 57.8458 120.56 57.3418 119.412 57.3418C118.278 57.3418 117.578 57.8878 117.144 58.6018V57.4678H115.87V64.9998H117.144ZM129.316 61.6538H135.112C135.28 59.2738 133.894 57.3418 131.598 57.3418C129.54 57.3418 127.944 58.8678 127.944 61.2478C127.944 63.4738 129.26 65.1818 131.64 65.1818C133.474 65.1818 134.664 64.1178 135.014 62.8158H133.698C133.376 63.5578 132.76 64.0618 131.64 64.0618C130.52 64.0618 129.372 63.2778 129.316 61.6538ZM129.33 60.5618C129.442 59.0498 130.464 58.4338 131.598 58.4338C132.942 58.4338 133.74 59.4978 133.768 60.5618H129.33ZM140.349 58.7978V57.4398C140.209 57.4258 140.097 57.4258 139.971 57.4258C138.991 57.4538 138.221 57.9298 137.843 58.7838V57.4678H136.597V64.9998H137.871V61.0518C137.871 59.3998 138.459 58.7418 139.635 58.7418C139.845 58.7418 140.083 58.7698 140.349 58.7978ZM142.847 54.8498H141.573V56.3898H142.847V54.8498ZM142.847 57.4678H141.573V64.9998H142.847V57.4678ZM151.14 59.9878C150.972 58.7138 149.81 57.3418 147.99 57.3418C145.764 57.3418 144.35 59.0078 144.35 61.2478C144.35 63.5438 145.708 65.1818 147.864 65.1818C149.614 65.1818 150.972 63.9638 151.224 62.5498H149.908C149.726 63.3478 148.97 64.0618 147.906 64.0618C146.786 64.0618 145.736 63.1518 145.736 61.2338C145.736 59.3438 146.772 58.4618 147.906 58.4618C148.886 58.4618 149.67 59.0918 149.852 59.9878H151.14ZM152.213 63.0118C152.213 64.3978 153.389 65.1818 154.803 65.1818C156.133 65.1818 156.917 64.7338 157.379 63.9638C157.393 64.4118 157.435 64.7198 157.477 64.9998H158.765C158.625 64.2858 158.555 63.4178 158.569 62.1578L158.583 60.4218C158.597 58.3078 157.659 57.3138 155.587 57.3138C154.117 57.3138 152.689 58.2238 152.563 59.8478H153.879C153.935 58.9238 154.551 58.3498 155.601 58.3498C156.539 58.3498 157.309 58.8118 157.309 60.1838V60.3658C154.215 60.7158 152.213 61.2338 152.213 63.0118ZM157.407 61.3738V61.8498C157.407 63.6278 156.273 64.1738 155.083 64.1738C154.173 64.1738 153.627 63.6978 153.627 62.9838C153.627 61.9478 155.097 61.6118 157.407 61.3738ZM161.755 58.6018V57.4678H160.481V64.9998H161.755V60.9118C161.755 59.3018 162.511 58.4478 163.743 58.4478C165.199 58.4478 165.395 59.4558 165.395 60.6178V64.9998H166.669V60.2398C166.669 58.5178 166.011 57.3418 164.191 57.3418C162.917 57.3418 162.189 57.8878 161.755 58.6018Z" fill="black"/>
<rect x="262.543" y="111" width="142.5" height="25" fill="#F6F6F8"/>
<path d="M197.202 124.668C197.202 125.956 196.432 126.726 195.368 126.726C194.122 126.726 193.52 125.858 193.408 124.808H191.588C191.7 126.558 192.96 128.182 195.34 128.182C197.426 128.182 199.162 126.894 199.162 124.654C199.162 122.316 197.552 121.084 195.816 121.084C194.878 121.084 194.22 121.336 193.8 121.644L194.08 119.474H198.756V117.85H192.498L191.826 123.436L193.59 123.52C193.786 123.044 194.43 122.596 195.326 122.596C196.264 122.596 197.202 123.282 197.202 124.668ZM200.941 117.85V119.474H206.457C204.189 121.616 202.313 124.472 202.145 128H204.273C204.469 124.346 205.757 122.176 208.403 119.474V117.85H200.941ZM209.785 120.692C209.785 122.54 210.653 123.66 212.277 123.66C213.887 123.66 214.741 122.54 214.741 120.692C214.741 118.858 213.887 117.752 212.277 117.752C210.653 117.752 209.785 118.858 209.785 120.692ZM212.347 128H214.335L221.349 117.85H219.361L212.347 128ZM213.369 120.692C213.369 122.078 212.907 122.68 212.277 122.68C211.619 122.68 211.171 122.078 211.171 120.692C211.171 119.32 211.619 118.746 212.277 118.746C212.907 118.746 213.369 119.32 213.369 120.692ZM218.955 125.13C218.955 126.978 219.823 128.098 221.447 128.098C223.057 128.098 223.911 126.978 223.911 125.13C223.911 123.296 223.057 122.19 221.447 122.19C219.823 122.19 218.955 123.296 218.955 125.13ZM222.539 125.13C222.539 126.516 222.077 127.118 221.447 127.118C220.789 127.118 220.341 126.516 220.341 125.13C220.341 123.758 220.789 123.184 221.447 123.184C222.077 123.184 222.539 123.758 222.539 125.13Z" fill="black"/>
<circle cx="262.043" cy="123.5" r="12.5" fill="#FF1100"/>
<path d="M61.215 117.85H59.787V122.162H54.453V117.85H53.025V128H54.453V123.394H59.787V128H61.215V117.85ZM64.6987 117.85H63.4247V119.39H64.6987V117.85ZM64.6987 120.468H63.4247V128H64.6987V120.468ZM71.0316 122.666H72.3616C72.1236 121.238 71.0176 120.328 69.3936 120.328C67.7276 120.328 66.3836 121.098 66.3836 122.428C66.3836 123.828 67.5036 124.304 68.5256 124.514L69.6456 124.738C70.4576 124.906 71.1716 125.228 71.1716 125.984C71.1716 126.684 70.3876 127.104 69.4216 127.104C68.3016 127.104 67.6996 126.53 67.5036 125.564H66.1596C66.2996 126.88 67.4196 128.182 69.3936 128.182C71.1156 128.182 72.4596 127.328 72.4596 125.844C72.4596 124.388 71.2556 123.87 69.8836 123.604L68.8196 123.394C68.0916 123.254 67.6716 122.974 67.6716 122.372C67.6716 121.686 68.5116 121.42 69.2536 121.42C70.1356 121.42 70.8356 121.77 71.0316 122.666ZM75.3491 120.468H74.0751V130.45H75.3491V126.866C75.8111 127.664 76.6091 128.182 77.8131 128.182C79.5351 128.182 81.0331 126.754 81.0331 124.262C81.0331 121.784 79.5351 120.342 77.8131 120.342C76.6091 120.342 75.8111 120.86 75.3491 121.658V120.468ZM77.4911 127.09C76.3571 127.09 75.2931 126.25 75.2931 124.262C75.2931 122.274 76.3571 121.434 77.4911 121.434C78.7931 121.434 79.6471 122.47 79.6471 124.262C79.6471 126.054 78.7931 127.09 77.4911 127.09ZM82.0763 126.012C82.0763 127.398 83.2523 128.182 84.6663 128.182C85.9963 128.182 86.7803 127.734 87.2423 126.964C87.2563 127.412 87.2983 127.72 87.3403 128H88.6283C88.4883 127.286 88.4183 126.418 88.4323 125.158L88.4463 123.422C88.4603 121.308 87.5223 120.314 85.4503 120.314C83.9803 120.314 82.5523 121.224 82.4263 122.848H83.7423C83.7983 121.924 84.4143 121.35 85.4643 121.35C86.4023 121.35 87.1723 121.812 87.1723 123.184V123.366C84.0783 123.716 82.0763 124.234 82.0763 126.012ZM87.2703 124.374V124.85C87.2703 126.628 86.1363 127.174 84.9463 127.174C84.0363 127.174 83.4903 126.698 83.4903 125.984C83.4903 124.948 84.9603 124.612 87.2703 124.374ZM91.6186 121.602V120.468H90.3446V128H91.6186V123.912C91.6186 122.302 92.3746 121.448 93.6066 121.448C95.0626 121.448 95.2586 122.456 95.2586 123.618V128H96.5326V123.24C96.5326 121.518 95.8746 120.342 94.0546 120.342C92.7806 120.342 92.0526 120.888 91.6186 121.602ZM99.7124 117.85H98.4384V119.39H99.7124V117.85ZM99.7124 120.468H98.4384V128H99.7124V120.468ZM108.005 122.988C107.837 121.714 106.675 120.342 104.855 120.342C102.629 120.342 101.215 122.008 101.215 124.248C101.215 126.544 102.573 128.182 104.729 128.182C106.479 128.182 107.837 126.964 108.089 125.55H106.773C106.591 126.348 105.835 127.062 104.771 127.062C103.651 127.062 102.601 126.152 102.601 124.234C102.601 122.344 103.637 121.462 104.771 121.462C105.751 121.462 106.535 122.092 106.717 122.988H108.005ZM119.583 124.262C119.583 121.532 117.721 120.342 115.971 120.342C114.221 120.342 112.359 121.532 112.359 124.262C112.359 126.992 114.221 128.182 115.971 128.182C117.721 128.182 119.583 126.992 119.583 124.262ZM115.971 127.062C114.823 127.062 113.717 126.264 113.717 124.262C113.717 122.204 114.823 121.462 115.971 121.462C117.119 121.462 118.225 122.26 118.225 124.262C118.225 126.194 117.119 127.062 115.971 127.062ZM124.858 121.798V120.44C124.718 120.426 124.606 120.426 124.48 120.426C123.5 120.454 122.73 120.93 122.352 121.784V120.468H121.106V128H122.38V124.052C122.38 122.4 122.968 121.742 124.144 121.742C124.354 121.742 124.592 121.77 124.858 121.798ZM131.029 126.768V117.85H129.601V128H136.391V126.768H131.029ZM136.955 126.012C136.955 127.398 138.131 128.182 139.545 128.182C140.875 128.182 141.659 127.734 142.121 126.964C142.135 127.412 142.177 127.72 142.219 128H143.507C143.367 127.286 143.297 126.418 143.311 125.158L143.325 123.422C143.339 121.308 142.401 120.314 140.329 120.314C138.859 120.314 137.431 121.224 137.305 122.848H138.621C138.677 121.924 139.293 121.35 140.343 121.35C141.281 121.35 142.051 121.812 142.051 123.184V123.366C138.957 123.716 136.955 124.234 136.955 126.012ZM142.149 124.374V124.85C142.149 126.628 141.015 127.174 139.825 127.174C138.915 127.174 138.369 126.698 138.369 125.984C138.369 124.948 139.839 124.612 142.149 124.374ZM145.588 118.578V120.468H144.398V121.49H145.588V126.11C145.588 127.678 145.924 128 147.366 128H148.29V126.936H147.646C146.918 126.936 146.862 126.74 146.862 125.956V121.49H148.29V120.468H146.862V118.578H145.588ZM151.187 117.85H149.913V119.39H151.187V117.85ZM151.187 120.468H149.913V128H151.187V120.468ZM154.482 121.602V120.468H153.208V128H154.482V123.912C154.482 122.302 155.238 121.448 156.47 121.448C157.926 121.448 158.122 122.456 158.122 123.618V128H159.396V123.24C159.396 121.518 158.738 120.342 156.918 120.342C155.644 120.342 154.916 120.888 154.482 121.602ZM164.648 124.066L167.21 120.468H165.782L163.934 123.058L162.1 120.468H160.574L163.178 124.122L160.406 128H161.862L163.892 125.13L165.936 128H167.462L164.648 124.066Z" fill="black"/>
<path d="M553.821 125.564V123.926H552.084V117.85H550.194L545.154 124.052V125.564H550.166V128H552.084V125.564H553.821ZM547.268 123.926L550.166 120.3V123.926H547.268ZM561.266 125.144C561.266 126.096 560.412 126.726 559.362 126.726C558.102 126.726 557.444 125.83 557.304 124.808H555.484C555.61 126.67 556.982 128.182 559.306 128.182C561.448 128.182 563.226 127.146 563.226 125.088C563.226 124.066 562.638 123.058 561.588 122.624C562.358 122.204 562.96 121.378 562.96 120.398C562.96 118.48 561.21 117.668 559.516 117.668C557.192 117.668 555.792 118.9 555.568 120.916H557.402C557.5 119.866 558.242 119.124 559.404 119.124C560.244 119.124 561.014 119.6 561.014 120.482C561.014 121.434 560.104 121.966 558.648 121.966H558.312V123.478H558.718C560.16 123.478 561.266 123.954 561.266 125.144ZM565.441 120.692C565.441 122.54 566.309 123.66 567.933 123.66C569.543 123.66 570.397 122.54 570.397 120.692C570.397 118.858 569.543 117.752 567.933 117.752C566.309 117.752 565.441 118.858 565.441 120.692ZM568.003 128H569.991L577.005 117.85L575.017 117.85L568.003 128ZM569.025 120.692C569.025 122.078 568.563 122.68 567.933 122.68C567.275 122.68 566.827 122.078 566.827 120.692C566.827 119.32 567.275 118.746 567.933 118.746C568.563 118.746 569.025 119.32 569.025 120.692ZM574.611 125.13C574.611 126.978 575.479 128.098 577.103 128.098C578.713 128.098 579.567 126.978 579.567 125.13C579.567 123.296 578.713 122.19 577.103 122.19C575.479 122.19 574.611 123.296 574.611 125.13ZM578.195 125.13C578.195 126.516 577.733 127.118 577.103 127.118C576.445 127.118 575.997 126.516 575.997 125.13C575.997 123.758 576.445 123.184 577.103 123.184C577.733 123.184 578.195 123.758 578.195 125.13Z" fill="black"/>
<rect x="404" y="111" width="107.5" height="25" fill="#F6F6F8"/>
<circle cx="511.5" cy="123.5" r="12.5" fill="#FFC7B4"/>
<rect x="264.631" y="174" width="140" height="25" fill="#F6F6F8"/>
<circle cx="264.131" cy="186.5" r="12.5" fill="#FF1100"/>
<path d="M200.202 187.668C200.202 188.956 199.432 189.726 198.368 189.726C197.122 189.726 196.52 188.858 196.408 187.808H194.588C194.7 189.558 195.96 191.182 198.34 191.182C200.426 191.182 202.162 189.894 202.162 187.654C202.162 185.316 200.552 184.084 198.816 184.084C197.878 184.084 197.22 184.336 196.8 184.644L197.08 182.474H201.756V180.85H195.498L194.826 186.436L196.59 186.52C196.786 186.044 197.43 185.596 198.326 185.596C199.264 185.596 200.202 186.282 200.202 187.668ZM206.475 185.232C206.475 183.342 207.259 182.138 208.533 182.138C209.359 182.138 210.031 182.628 210.129 183.468H212.019C211.907 182.166 210.871 180.668 208.659 180.668C205.621 180.668 204.543 183.244 204.543 186.156C204.543 188.998 205.733 191.182 208.449 191.182C210.647 191.182 212.229 189.824 212.229 187.738C212.229 185.54 210.661 184.266 208.785 184.266C207.721 184.266 206.909 184.686 206.475 185.232ZM208.449 189.726C207.385 189.726 206.587 188.928 206.587 187.71C206.587 186.52 207.385 185.736 208.449 185.736C209.499 185.736 210.269 186.52 210.269 187.71C210.269 188.942 209.499 189.726 208.449 189.726ZM214.44 183.692C214.44 185.54 215.308 186.66 216.932 186.66C218.542 186.66 219.396 185.54 219.396 183.692C219.396 181.858 218.542 180.752 216.932 180.752C215.308 180.752 214.44 181.858 214.44 183.692ZM217.002 191H218.99L226.004 180.85H224.016L217.002 191ZM218.024 183.692C218.024 185.078 217.562 185.68 216.932 185.68C216.274 185.68 215.826 185.078 215.826 183.692C215.826 182.32 216.274 181.746 216.932 181.746C217.562 181.746 218.024 182.32 218.024 183.692ZM223.61 188.13C223.61 189.978 224.478 191.098 226.102 191.098C227.712 191.098 228.566 189.978 228.566 188.13C228.566 186.296 227.712 185.19 226.102 185.19C224.478 185.19 223.61 186.296 223.61 188.13ZM227.194 188.13C227.194 189.516 226.732 190.118 226.102 190.118C225.444 190.118 224.996 189.516 224.996 188.13C224.996 186.758 225.444 186.184 226.102 186.184C226.732 186.184 227.194 186.758 227.194 188.13Z" fill="black"/>
<path d="M135.458 180.85L131.692 191H133.148L133.932 188.802H138.594L139.392 191H140.932L137.11 180.85H135.458ZM134.366 187.584L136.242 182.292L138.146 187.584H134.366ZM146.323 185.666H147.653C147.415 184.238 146.309 183.328 144.685 183.328C143.019 183.328 141.675 184.098 141.675 185.428C141.675 186.828 142.795 187.304 143.817 187.514L144.937 187.738C145.749 187.906 146.463 188.228 146.463 188.984C146.463 189.684 145.679 190.104 144.713 190.104C143.593 190.104 142.991 189.53 142.795 188.564H141.451C141.591 189.88 142.711 191.182 144.685 191.182C146.407 191.182 147.751 190.328 147.751 188.844C147.751 187.388 146.547 186.87 145.175 186.604L144.111 186.394C143.383 186.254 142.963 185.974 142.963 185.372C142.963 184.686 143.803 184.42 144.545 184.42C145.427 184.42 146.127 184.77 146.323 185.666ZM150.64 180.85H149.366V182.39H150.64V180.85ZM150.64 183.468H149.366V191H150.64V183.468ZM152.213 189.012C152.213 190.398 153.389 191.182 154.803 191.182C156.133 191.182 156.917 190.734 157.379 189.964C157.393 190.412 157.435 190.72 157.477 191H158.765C158.625 190.286 158.555 189.418 158.569 188.158L158.583 186.422C158.597 184.308 157.659 183.314 155.587 183.314C154.117 183.314 152.689 184.224 152.563 185.848H153.879C153.935 184.924 154.551 184.35 155.601 184.35C156.539 184.35 157.309 184.812 157.309 186.184V186.366C154.215 186.716 152.213 187.234 152.213 189.012ZM157.407 187.374V187.85C157.407 189.628 156.273 190.174 155.083 190.174C154.173 190.174 153.627 189.698 153.627 188.984C153.627 187.948 155.097 187.612 157.407 187.374ZM161.755 184.602V183.468H160.481V191H161.755V186.912C161.755 185.302 162.511 184.448 163.743 184.448C165.199 184.448 165.395 185.456 165.395 186.618V191H166.669V186.24C166.669 184.518 166.011 183.342 164.191 183.342C162.917 183.342 162.189 183.888 161.755 184.602Z" fill="black"/>
<rect x="404" y="174" width="110" height="25" fill="#F6F6F8"/>
<path d="M555.569 188.564V186.926H553.833V180.85H551.943L546.903 187.052V188.564H551.915V191H553.833V188.564H555.569ZM549.017 186.926L551.915 183.3V186.926H549.017ZM565.702 188.564V186.926H563.966V180.85H562.076L557.036 187.052V188.564H562.048V191H563.966V188.564H565.702ZM559.15 186.926L562.048 183.3V186.926H559.15ZM567.463 183.692C567.463 185.54 568.331 186.66 569.955 186.66C571.565 186.66 572.419 185.54 572.419 183.692C572.419 181.858 571.565 180.752 569.955 180.752C568.331 180.752 567.463 181.858 567.463 183.692ZM570.025 191H572.013L579.027 180.85H577.039L570.025 191ZM571.047 183.692C571.047 185.078 570.585 185.68 569.955 185.68C569.297 185.68 568.849 185.078 568.849 183.692C568.849 182.32 569.297 181.746 569.955 181.746C570.585 181.746 571.047 182.32 571.047 183.692ZM576.633 188.13C576.633 189.978 577.501 191.098 579.125 191.098C580.735 191.098 581.589 189.978 581.589 188.13C581.589 186.296 580.735 185.19 579.125 185.19C577.501 185.19 576.633 186.296 576.633 188.13ZM580.217 188.13C580.217 189.516 579.755 190.118 579.125 190.118C578.467 190.118 578.019 189.516 578.019 188.13C578.019 186.758 578.467 186.184 579.125 186.184C579.755 186.184 580.217 186.758 580.217 188.13Z" fill="black"/>
<circle cx="513.5" cy="186.5" r="12.5" fill="#FFC7B4"/>
<rect x="272" y="237" width="132.5" height="25" fill="#F6F6F8"/>
<circle cx="272.5" cy="249.5" r="12.5" fill="#FF1100"/>
<path d="M207.202 250.668C207.202 251.956 206.432 252.726 205.368 252.726C204.122 252.726 203.52 251.858 203.408 250.808H201.588C201.7 252.558 202.96 254.182 205.34 254.182C207.426 254.182 209.162 252.894 209.162 250.654C209.162 248.316 207.552 247.084 205.816 247.084C204.878 247.084 204.22 247.336 203.8 247.644L204.08 245.474H208.756V243.85H202.498L201.826 249.436L203.59 249.52C203.786 249.044 204.43 248.596 205.326 248.596C206.264 248.596 207.202 249.282 207.202 250.668ZM217.073 251.144C217.073 252.096 216.219 252.726 215.169 252.726C213.909 252.726 213.251 251.83 213.111 250.808H211.291C211.417 252.67 212.789 254.182 215.113 254.182C217.255 254.182 219.033 253.146 219.033 251.088C219.033 250.066 218.445 249.058 217.395 248.624C218.165 248.204 218.767 247.378 218.767 246.398C218.767 244.48 217.017 243.668 215.323 243.668C212.999 243.668 211.599 244.9 211.375 246.916H213.209C213.307 245.866 214.049 245.124 215.211 245.124C216.051 245.124 216.821 245.6 216.821 246.482C216.821 247.434 215.911 247.966 214.455 247.966H214.119V249.478H214.525C215.967 249.478 217.073 249.954 217.073 251.144ZM221.248 246.692C221.248 248.54 222.116 249.66 223.74 249.66C225.35 249.66 226.204 248.54 226.204 246.692C226.204 244.858 225.35 243.752 223.74 243.752C222.116 243.752 221.248 244.858 221.248 246.692ZM223.81 254H225.798L232.812 243.85H230.824L223.81 254ZM224.832 246.692C224.832 248.078 224.37 248.68 223.74 248.68C223.082 248.68 222.634 248.078 222.634 246.692C222.634 245.32 223.082 244.746 223.74 244.746C224.37 244.746 224.832 245.32 224.832 246.692ZM230.418 251.13C230.418 252.978 231.286 254.098 232.91 254.098C234.52 254.098 235.374 252.978 235.374 251.13C235.374 249.296 234.52 248.19 232.91 248.19C231.286 248.19 230.418 249.296 230.418 251.13ZM234.002 251.13C234.002 252.516 233.54 253.118 232.91 253.118C232.252 253.118 231.804 252.516 231.804 251.13C231.804 249.758 232.252 249.184 232.91 249.184C233.54 249.184 234.002 249.758 234.002 251.13Z" fill="black"/>
<path d="M52.336 245.082V254H53.764V245.082H57.068V243.85H49.032V245.082H52.336ZM60.7557 246.468L59.2577 252.04L57.8157 246.468H56.4437L58.6137 254H59.7757L61.3857 247.938L63.0517 254H64.2137L66.3837 246.468H65.0117L63.5697 252.04L62.0717 246.468H60.7557ZM74.1236 250.262C74.1236 247.532 72.2616 246.342 70.5116 246.342C68.7616 246.342 66.8996 247.532 66.8996 250.262C66.8996 252.992 68.7616 254.182 70.5116 254.182C72.2616 254.182 74.1236 252.992 74.1236 250.262ZM70.5116 253.062C69.3636 253.062 68.2576 252.264 68.2576 250.262C68.2576 248.204 69.3636 247.462 70.5116 247.462C71.6596 247.462 72.7656 248.26 72.7656 250.262C72.7656 252.194 71.6596 253.062 70.5116 253.062ZM85.7036 250.262C85.7036 247.532 83.8416 246.342 82.0916 246.342C80.3416 246.342 78.4796 247.532 78.4796 250.262C78.4796 252.992 80.3416 254.182 82.0916 254.182C83.8416 254.182 85.7036 252.992 85.7036 250.262ZM82.0916 253.062C80.9436 253.062 79.8376 252.264 79.8376 250.262C79.8376 248.204 80.9436 247.462 82.0916 247.462C83.2396 247.462 84.3456 248.26 84.3456 250.262C84.3456 252.194 83.2396 253.062 82.0916 253.062ZM90.9795 247.798V246.44C90.8395 246.426 90.7275 246.426 90.6015 246.426C89.6215 246.454 88.8515 246.93 88.4735 247.784V246.468H87.2275V254H88.5015V250.052C88.5015 248.4 89.0895 247.742 90.2655 247.742C90.4755 247.742 90.7135 247.77 90.9795 247.798ZM96.8003 254V249.912C96.8003 248.302 97.5283 247.448 98.6203 247.448C100.006 247.448 100.23 248.456 100.23 249.618V254H101.504V249.912C101.504 248.302 102.232 247.448 103.324 247.448C104.71 247.448 104.934 248.456 104.934 249.618V254H106.208V249.24C106.208 247.518 105.522 246.342 103.772 246.342C102.722 246.342 101.84 246.748 101.238 247.672C100.902 246.846 100.216 246.342 99.0683 246.342C97.9343 246.342 97.2343 246.888 96.8003 247.602V246.468H95.5263V254H96.8003ZM114.852 250.262C114.852 247.532 112.99 246.342 111.24 246.342C109.49 246.342 107.628 247.532 107.628 250.262C107.628 252.992 109.49 254.182 111.24 254.182C112.99 254.182 114.852 252.992 114.852 250.262ZM111.24 253.062C110.092 253.062 108.986 252.264 108.986 250.262C108.986 248.204 110.092 247.462 111.24 247.462C112.388 247.462 113.494 248.26 113.494 250.262C113.494 252.194 112.388 253.062 111.24 253.062ZM120.128 247.798V246.44C119.988 246.426 119.876 246.426 119.75 246.426C118.77 246.454 118 246.93 117.622 247.784V246.468H116.376V254H117.65V250.052C117.65 248.4 118.238 247.742 119.414 247.742C119.624 247.742 119.862 247.77 120.128 247.798ZM122.07 250.654H127.866C128.034 248.274 126.648 246.342 124.352 246.342C122.294 246.342 120.698 247.868 120.698 250.248C120.698 252.474 122.014 254.182 124.394 254.182C126.228 254.182 127.418 253.118 127.768 251.816H126.452C126.13 252.558 125.514 253.062 124.394 253.062C123.274 253.062 122.126 252.278 122.07 250.654ZM122.084 249.562C122.196 248.05 123.218 247.434 124.352 247.434C125.696 247.434 126.494 248.498 126.522 249.562H122.084ZM136.425 247.798V246.44C136.285 246.426 136.173 246.426 136.047 246.426C135.067 246.454 134.297 246.93 133.919 247.784V246.468H132.673V254H133.947V250.052C133.947 248.4 134.535 247.742 135.711 247.742C135.921 247.742 136.159 247.77 136.425 247.798ZM136.928 252.012C136.928 253.398 138.104 254.182 139.518 254.182C140.848 254.182 141.632 253.734 142.094 252.964C142.108 253.412 142.15 253.72 142.192 254H143.48C143.34 253.286 143.27 252.418 143.284 251.158L143.298 249.422C143.312 247.308 142.374 246.314 140.302 246.314C138.832 246.314 137.404 247.224 137.278 248.848H138.594C138.65 247.924 139.266 247.35 140.316 247.35C141.254 247.35 142.024 247.812 142.024 249.184V249.366C138.93 249.716 136.928 250.234 136.928 252.012ZM142.122 250.374V250.85C142.122 252.628 140.988 253.174 139.798 253.174C138.888 253.174 138.342 252.698 138.342 251.984C138.342 250.948 139.812 250.612 142.122 250.374ZM151.468 248.988C151.3 247.714 150.138 246.342 148.318 246.342C146.092 246.342 144.678 248.008 144.678 250.248C144.678 252.544 146.036 254.182 148.192 254.182C149.942 254.182 151.3 252.964 151.552 251.55H150.236C150.054 252.348 149.298 253.062 148.234 253.062C147.114 253.062 146.064 252.152 146.064 250.234C146.064 248.344 147.1 247.462 148.234 247.462C149.214 247.462 149.998 248.092 150.18 248.988H151.468ZM153.912 250.654H159.708C159.876 248.274 158.49 246.342 156.194 246.342C154.136 246.342 152.54 247.868 152.54 250.248C152.54 252.474 153.856 254.182 156.236 254.182C158.07 254.182 159.26 253.118 159.61 251.816H158.294C157.972 252.558 157.356 253.062 156.236 253.062C155.116 253.062 153.968 252.278 153.912 250.654ZM153.926 249.562C154.038 248.05 155.06 247.434 156.194 247.434C157.538 247.434 158.336 248.498 158.364 249.562H153.926ZM165.532 248.666H166.862C166.624 247.238 165.518 246.328 163.894 246.328C162.228 246.328 160.884 247.098 160.884 248.428C160.884 249.828 162.004 250.304 163.026 250.514L164.146 250.738C164.958 250.906 165.672 251.228 165.672 251.984C165.672 252.684 164.888 253.104 163.922 253.104C162.802 253.104 162.2 252.53 162.004 251.564H160.66C160.8 252.88 161.92 254.182 163.894 254.182C165.616 254.182 166.96 253.328 166.96 251.844C166.96 250.388 165.756 249.87 164.384 249.604L163.32 249.394C162.592 249.254 162.172 248.974 162.172 248.372C162.172 247.686 163.012 247.42 163.754 247.42C164.636 247.42 165.336 247.77 165.532 248.666Z" fill="black"/>
<path d="M565.305 251.564V249.926H563.569V243.85H561.679L556.639 250.052V251.564H561.651V254H563.569V251.564H565.305ZM558.753 249.926L561.651 246.3V249.926H558.753ZM566.618 243.85V245.474H572.134C569.866 247.616 567.99 250.472 567.822 254H569.95C570.146 250.346 571.434 248.176 574.08 245.474V243.85H566.618ZM575.463 246.692C575.463 248.54 576.331 249.66 577.955 249.66C579.565 249.66 580.419 248.54 580.419 246.692C580.419 244.858 579.565 243.752 577.955 243.752C576.331 243.752 575.463 244.858 575.463 246.692ZM578.025 254H580.013L587.027 243.85H585.039L578.025 254ZM579.047 246.692C579.047 248.078 578.585 248.68 577.955 248.68C577.297 248.68 576.849 248.078 576.849 246.692C576.849 245.32 577.297 244.746 577.955 244.746C578.585 244.746 579.047 245.32 579.047 246.692ZM584.633 251.13C584.633 252.978 585.501 254.098 587.125 254.098C588.735 254.098 589.589 252.978 589.589 251.13C589.589 249.296 588.735 248.19 587.125 248.19C585.501 248.19 584.633 249.296 584.633 251.13ZM588.217 251.13C588.217 252.516 587.755 253.118 587.125 253.118C586.467 253.118 586.019 252.516 586.019 251.13C586.019 249.758 586.467 249.184 587.125 249.184C587.755 249.184 588.217 249.758 588.217 251.13Z" fill="black"/>
<rect x="404" y="237" width="117.5" height="25" fill="#F6F6F8"/>
<circle cx="521.5" cy="249.5" r="12.5" fill="#FFC7B4"/>
<rect x="295.107" y="300" width="110" height="25" fill="#F6F6F8"/>
<circle cx="293.732" cy="312.5" r="12.5" fill="#FF1100"/>
<path d="M233.778 314.564V312.926H232.042V306.85H230.152L225.112 313.052V314.564H230.124V317H232.042V314.564H233.778ZM227.226 312.926L230.124 309.3V312.926H227.226ZM243.911 314.564V312.926H242.175V306.85H240.285L235.245 313.052V314.564H240.257V317H242.175V314.564H243.911ZM237.359 312.926L240.257 309.3V312.926H237.359ZM245.672 309.692C245.672 311.54 246.54 312.66 248.164 312.66C249.774 312.66 250.628 311.54 250.628 309.692C250.628 307.858 249.774 306.752 248.164 306.752C246.54 306.752 245.672 307.858 245.672 309.692ZM248.234 317H250.222L257.236 306.85H255.248L248.234 317ZM249.256 309.692C249.256 311.078 248.794 311.68 248.164 311.68C247.506 311.68 247.058 311.078 247.058 309.692C247.058 308.32 247.506 307.746 248.164 307.746C248.794 307.746 249.256 308.32 249.256 309.692ZM254.842 314.13C254.842 315.978 255.71 317.098 257.334 317.098C258.944 317.098 259.798 315.978 259.798 314.13C259.798 312.296 258.944 311.19 257.334 311.19C255.71 311.19 254.842 312.296 254.842 314.13ZM258.426 314.13C258.426 315.516 257.964 316.118 257.334 316.118C256.676 316.118 256.228 315.516 256.228 314.13C256.228 312.758 256.676 312.184 257.334 312.184C257.964 312.184 258.426 312.758 258.426 314.13Z" fill="black"/>
<path d="M139.963 315.376L137.961 306.85H136.281L134.405 315.376L132.445 306.85H130.877L133.453 317H135.189L137.107 308.656L139.067 317H140.803L143.337 306.85H141.839L139.963 315.376ZM145.841 310.602V306.85H144.567V317H145.841V312.912C145.841 311.302 146.597 310.448 147.829 310.448C149.285 310.448 149.481 311.456 149.481 312.618V317H150.755V312.24C150.755 310.518 150.097 309.342 148.277 309.342C147.003 309.342 146.275 309.888 145.841 310.602ZM153.935 306.85H152.661V308.39H153.935V306.85ZM153.935 309.468H152.661V317H153.935V309.468ZM156.32 307.578V309.468H155.13V310.49H156.32V315.11C156.32 316.678 156.656 317 158.098 317H159.022V315.936H158.378C157.65 315.936 157.594 315.74 157.594 314.956V310.49H159.022V309.468H157.594V307.578H156.32ZM161.294 313.654H167.09C167.258 311.274 165.872 309.342 163.576 309.342C161.518 309.342 159.922 310.868 159.922 313.248C159.922 315.474 161.238 317.182 163.618 317.182C165.452 317.182 166.642 316.118 166.992 314.816H165.676C165.354 315.558 164.738 316.062 163.618 316.062C162.498 316.062 161.35 315.278 161.294 313.654ZM161.308 312.562C161.42 311.05 162.442 310.434 163.576 310.434C164.92 310.434 165.718 311.498 165.746 312.562H161.308Z" fill="black"/>
<rect x="404" y="300" width="140" height="25" fill="#F6F6F8"/>
<path d="M583.225 313.668C583.225 314.956 582.455 315.726 581.391 315.726C580.145 315.726 579.543 314.858 579.431 313.808H577.611C577.723 315.558 578.983 317.182 581.363 317.182C583.449 317.182 585.185 315.894 585.185 313.654C585.185 311.316 583.575 310.084 581.839 310.084C580.901 310.084 580.243 310.336 579.823 310.644L580.103 308.474H584.779V306.85H578.521L577.849 312.436L579.613 312.52C579.809 312.044 580.453 311.596 581.349 311.596C582.287 311.596 583.225 312.282 583.225 313.668ZM589.498 311.232C589.498 309.342 590.282 308.138 591.556 308.138C592.382 308.138 593.054 308.628 593.152 309.468H595.042C594.93 308.166 593.894 306.668 591.682 306.668C588.644 306.668 587.566 309.244 587.566 312.156C587.566 314.998 588.756 317.182 591.472 317.182C593.67 317.182 595.252 315.824 595.252 313.738C595.252 311.54 593.684 310.266 591.808 310.266C590.744 310.266 589.932 310.686 589.498 311.232ZM591.472 315.726C590.408 315.726 589.61 314.928 589.61 313.71C589.61 312.52 590.408 311.736 591.472 311.736C592.522 311.736 593.292 312.52 593.292 313.71C593.292 314.942 592.522 315.726 591.472 315.726ZM597.463 309.692C597.463 311.54 598.331 312.66 599.955 312.66C601.565 312.66 602.419 311.54 602.419 309.692C602.419 307.858 601.565 306.752 599.955 306.752C598.331 306.752 597.463 307.858 597.463 309.692ZM600.025 317H602.013L609.027 306.85H607.039L600.025 317ZM601.047 309.692C601.047 311.078 600.585 311.68 599.955 311.68C599.297 311.68 598.849 311.078 598.849 309.692C598.849 308.32 599.297 307.746 599.955 307.746C600.585 307.746 601.047 308.32 601.047 309.692ZM606.633 314.13C606.633 315.978 607.501 317.098 609.125 317.098C610.735 317.098 611.589 315.978 611.589 314.13C611.589 312.296 610.735 311.19 609.125 311.19C607.501 311.19 606.633 312.296 606.633 314.13ZM610.217 314.13C610.217 315.516 609.755 316.118 609.125 316.118C608.467 316.118 608.019 315.516 608.019 314.13C608.019 312.758 608.467 312.184 609.125 312.184C609.755 312.184 610.217 312.758 610.217 314.13Z" fill="black"/>
<circle cx="543.5" cy="312.5" r="12.5" fill="#FFC7B4"/>
<line x1="404.762" y1="-0.000244184" x2="404.762" y2="354.835" stroke="black" stroke-width="2"/>
<path d="M271.188 5.84976H269.018L272.546 15.9998H274.59L278.09 5.84976H275.962L273.61 13.4938L271.188 5.84976ZM282.188 15.9998V5.84976H280.186V15.9998H282.188ZM289.404 12.0238L291.42 15.9998H293.646L291.392 11.6038C292.652 11.0718 293.226 10.0918 293.226 8.92976C293.226 6.80176 291.952 5.84976 288.606 5.84976H285.274V15.9998H287.276V12.0238H289.404ZM287.276 7.41776H288.83C290.188 7.41776 291.168 7.76776 291.168 8.94376C291.168 9.93776 290.482 10.4698 288.928 10.4698H287.276V7.41776ZM297.935 7.47376V15.9998H299.937V7.47376H303.073V5.84976H294.813V7.47376H297.935ZM307.156 5.84976H305.154V11.7018C305.154 15.0478 306.4 16.1818 309.368 16.1818C312.336 16.1818 313.554 15.0478 313.554 11.7018V5.84976H311.552V11.7158C311.552 13.5078 311.216 14.5858 309.368 14.5858C307.52 14.5858 307.156 13.5078 307.156 11.7158V5.84976ZM318.762 5.84976L314.982 15.9998H317.026L317.74 13.9418H321.688L322.402 15.9998H324.572L320.778 5.84976H318.762ZM318.314 12.3038L319.714 8.29976L321.114 12.3038H318.314ZM328.738 14.3758V5.84976H326.736V15.9998H333.68V14.3758H328.738Z" fill="black"/>
<path d="M451.292 15.9998V5.84976H449.29V15.9998H451.292ZM460.328 15.9998H462.932V5.84976H461.042V13.5918L456.982 5.84976H454.378V15.9998H456.268V8.25776L460.328 15.9998ZM473.905 5.84976H470.433V15.9998H472.435V12.4298H473.961C476.299 12.4298 478.371 11.7998 478.371 9.20976C478.371 6.14376 475.991 5.84976 473.905 5.84976ZM472.435 7.41776H473.947C475.039 7.41776 476.313 7.55776 476.313 9.22376C476.313 10.5678 475.333 10.8758 474.087 10.8758H472.435V7.41776ZM480.635 5.84976V15.9998H488.027V14.3758H482.637V11.6178H487.733V9.99376H482.637V7.47376H488.027V5.84976H480.635ZM494.665 12.0238L496.681 15.9998H498.907L496.653 11.6038C497.913 11.0718 498.487 10.0918 498.487 8.92976C498.487 6.80176 497.213 5.84976 493.867 5.84976H490.535V15.9998H492.537V12.0238H494.665ZM492.537 7.41776H494.091C495.449 7.41776 496.429 7.76776 496.429 8.94376C496.429 9.93776 495.743 10.4698 494.189 10.4698H492.537V7.41776ZM503.972 11.5478L505.26 11.7858C506.338 11.9818 507.136 12.3038 507.136 13.1718C507.136 14.2638 506.002 14.5858 505.106 14.5858C503.902 14.5858 502.866 14.1378 502.642 12.6538H500.71C500.892 14.8378 502.544 16.1818 505.036 16.1818C507.08 16.1818 509.152 15.1598 509.152 13.0738C509.152 10.9738 507.332 10.3158 505.68 10.0218L504.35 9.78376C503.538 9.62976 502.936 9.23776 502.936 8.52376C502.936 7.61376 503.972 7.26376 504.896 7.26376C505.848 7.26376 506.884 7.65576 507.038 8.84576H508.97C508.872 6.89976 507.08 5.66776 504.98 5.66776C503.104 5.66776 500.934 6.56376 500.934 8.60776C500.934 10.3718 502.32 11.2258 503.972 11.5478ZM516.268 16.1818C519.292 16.1818 521.238 14.0678 521.238 10.9178C521.238 7.76776 519.292 5.66776 516.268 5.66776C513.244 5.66776 511.298 7.76776 511.298 10.9178C511.298 14.0678 513.244 16.1818 516.268 16.1818ZM516.268 14.5858C514.686 14.5858 513.37 13.2978 513.37 10.9178C513.37 8.53776 514.686 7.26376 516.268 7.26376C517.85 7.26376 519.166 8.53776 519.166 10.9178C519.166 13.2978 517.85 14.5858 516.268 14.5858ZM529.865 15.9998H532.469V5.84976H530.579V13.5918L526.519 5.84976H523.915V15.9998H525.805V8.25776L529.865 15.9998Z" fill="black"/>
<path d="M5.474 389.017C8.4 389.017 10.234 386.819 10.234 383.753C10.234 380.687 8.4 378.503 5.474 378.503C2.548 378.503 0.714 380.687 0.714 383.753C0.714 386.819 2.548 389.017 5.474 389.017ZM5.474 387.813C3.626 387.813 2.17 386.371 2.17 383.753C2.17 381.135 3.626 379.707 5.474 379.707C7.322 379.707 8.778 381.135 8.778 383.753C8.778 386.371 7.322 387.813 5.474 387.813ZM14.4092 387.071L12.3652 381.303H10.9512L13.7932 388.835H14.9272L17.7692 381.303H16.4532L14.4092 387.071ZM19.4987 385.489H25.2947C25.4627 383.109 24.0767 381.177 21.7807 381.177C19.7227 381.177 18.1267 382.703 18.1267 385.083C18.1267 387.309 19.4427 389.017 21.8227 389.017C23.6567 389.017 24.8467 387.953 25.1967 386.651H23.8807C23.5587 387.393 22.9427 387.897 21.8227 387.897C20.7027 387.897 19.5547 387.113 19.4987 385.489ZM19.5127 384.397C19.6247 382.885 20.6467 382.269 21.7807 382.269C23.1247 382.269 23.9227 383.333 23.9507 384.397H19.5127ZM30.5315 382.633V381.275C30.3915 381.261 30.2795 381.261 30.1535 381.261C29.1735 381.289 28.4035 381.765 28.0255 382.619V381.303H26.7795V388.835H28.0535V384.887C28.0535 383.235 28.6415 382.577 29.8175 382.577C30.0275 382.577 30.2655 382.605 30.5315 382.633ZM31.0346 386.847C31.0346 388.233 32.2106 389.017 33.6246 389.017C34.9546 389.017 35.7386 388.569 36.2006 387.799C36.2146 388.247 36.2566 388.555 36.2986 388.835H37.5866C37.4466 388.121 37.3766 387.253 37.3906 385.993L37.4046 384.257C37.4186 382.143 36.4806 381.149 34.4086 381.149C32.9386 381.149 31.5106 382.059 31.3846 383.683H32.7006C32.7566 382.759 33.3726 382.185 34.4226 382.185C35.3606 382.185 36.1306 382.647 36.1306 384.019V384.201C33.0366 384.551 31.0346 385.069 31.0346 386.847ZM36.2286 385.209V385.685C36.2286 387.463 35.0946 388.009 33.9046 388.009C32.9946 388.009 32.4486 387.533 32.4486 386.819C32.4486 385.783 33.9186 385.447 36.2286 385.209ZM40.5769 388.835V378.685H39.3029V388.835H40.5769ZM43.8718 388.835V378.685H42.5978V388.835H43.8718ZM50.489 382.437V381.303H49.215V388.835H50.489V384.747C50.489 383.137 51.245 382.283 52.477 382.283C53.933 382.283 54.129 383.291 54.129 384.453V388.835H55.403V384.075C55.403 382.353 54.745 381.177 52.925 381.177C51.651 381.177 50.923 381.723 50.489 382.437ZM57.5468 384.187H64.5608V382.969H57.5468V384.187ZM57.5468 387.015H64.5608V385.811H57.5468V387.015ZM73.2371 381.163C73.2371 379.455 71.8931 378.503 70.0171 378.503C67.8611 378.503 66.4611 379.833 66.4891 381.849H67.8051C67.8331 380.169 68.8971 379.567 69.9891 379.567C71.1931 379.567 71.8931 380.281 71.8931 381.331C71.8931 383.123 69.7931 385.041 66.2091 387.687V388.835H73.5171V387.645H67.9451C70.7871 385.601 73.2371 383.515 73.2371 381.163ZM74.9569 387.225V388.835H75.6429L74.9009 390.781H75.7129L76.5669 388.947V387.225H74.9569ZM85.6331 386.329V385.125H83.7711V378.685H82.4691L77.4431 385.125V386.329H82.4831V388.835H83.7711V386.329H85.6331ZM78.8571 385.125L82.4831 380.435V385.125H78.8571ZM94.3694 386.329V385.125H92.5074V378.685H91.2054L86.1794 385.125V386.329H91.2194V388.835H92.5074V386.329H94.3694ZM87.5934 385.125L91.2194 380.435V385.125H87.5934ZM99.2977 389.017C102 389.017 103.246 386.973 103.246 383.753C103.246 380.547 102 378.503 99.2977 378.503C96.5957 378.503 95.3497 380.547 95.3497 383.753C95.3497 386.973 96.5957 389.017 99.2977 389.017ZM99.2977 379.567C100.894 379.567 101.888 380.939 101.888 383.753C101.888 386.581 100.894 387.953 99.2977 387.953C97.7017 387.953 96.7077 386.581 96.7077 383.753C96.7077 380.939 97.7017 379.567 99.2977 379.567Z" fill="black"/>
</svg>
