<svg width="620" height="363" viewBox="0 0 620 363" fill="none" xmlns="http://www.w3.org/2000/svg">
<line x1="163.107" y1="308" x2="163.107" y2="183" stroke="black" stroke-width="1.78638"/>
<path d="M188.736 296.4H187.104V301.328H181.008V296.4H179.376V308H181.008V302.736H187.104V308H188.736V296.4ZM192.717 296.4H191.261V298.16H192.717V296.4ZM192.717 299.392H191.261V308H192.717V299.392ZM199.955 301.904H201.475C201.203 300.272 199.939 299.232 198.083 299.232C196.179 299.232 194.643 300.112 194.643 301.632C194.643 303.232 195.923 303.776 197.091 304.016L198.371 304.272C199.299 304.464 200.115 304.832 200.115 305.696C200.115 306.496 199.219 306.976 198.115 306.976C196.835 306.976 196.147 306.32 195.923 305.216H194.387C194.547 306.72 195.827 308.208 198.083 308.208C200.051 308.208 201.587 307.232 201.587 305.536C201.587 303.872 200.211 303.28 198.643 302.976L197.427 302.736C196.595 302.576 196.115 302.256 196.115 301.568C196.115 300.784 197.075 300.48 197.923 300.48C198.931 300.48 199.731 300.88 199.955 301.904ZM204.889 299.392H203.433V310.8H204.889V306.704C205.417 307.616 206.329 308.208 207.705 308.208C209.673 308.208 211.385 306.576 211.385 303.728C211.385 300.896 209.673 299.248 207.705 299.248C206.329 299.248 205.417 299.84 204.889 300.752V299.392ZM207.337 306.96C206.041 306.96 204.825 306 204.825 303.728C204.825 301.456 206.041 300.496 207.337 300.496C208.825 300.496 209.801 301.68 209.801 303.728C209.801 305.776 208.825 306.96 207.337 306.96ZM212.578 305.728C212.578 307.312 213.922 308.208 215.538 308.208C217.058 308.208 217.954 307.696 218.482 306.816C218.498 307.328 218.546 307.68 218.594 308H220.066C219.906 307.184 219.826 306.192 219.842 304.752L219.858 302.768C219.874 300.352 218.802 299.216 216.434 299.216C214.754 299.216 213.122 300.256 212.978 302.112H214.482C214.546 301.056 215.25 300.4 216.45 300.4C217.522 300.4 218.402 300.928 218.402 302.496V302.704C214.866 303.104 212.578 303.696 212.578 305.728ZM218.514 303.856V304.4C218.514 306.432 217.218 307.056 215.858 307.056C214.818 307.056 214.194 306.512 214.194 305.696C214.194 304.512 215.874 304.128 218.514 303.856ZM223.483 300.688V299.392H222.027V308H223.483V303.328C223.483 301.488 224.347 300.512 225.755 300.512C227.419 300.512 227.643 301.664 227.643 302.992V308H229.099V302.56C229.099 300.592 228.347 299.248 226.267 299.248C224.811 299.248 223.979 299.872 223.483 300.688ZM232.733 296.4H231.277V298.16H232.733V296.4ZM232.733 299.392H231.277V308H232.733V299.392ZM242.211 302.272C242.019 300.816 240.691 299.248 238.611 299.248C236.067 299.248 234.451 301.152 234.451 303.712C234.451 306.336 236.003 308.208 238.467 308.208C240.467 308.208 242.019 306.816 242.307 305.2H240.803C240.595 306.112 239.731 306.928 238.515 306.928C237.235 306.928 236.035 305.888 236.035 303.696C236.035 301.536 237.219 300.528 238.515 300.528C239.635 300.528 240.531 301.248 240.739 302.272H242.211ZM255.442 303.728C255.442 300.608 253.314 299.248 251.314 299.248C249.314 299.248 247.186 300.608 247.186 303.728C247.186 306.848 249.314 308.208 251.314 308.208C253.314 308.208 255.442 306.848 255.442 303.728ZM251.314 306.928C250.002 306.928 248.738 306.016 248.738 303.728C248.738 301.376 250.002 300.528 251.314 300.528C252.626 300.528 253.89 301.44 253.89 303.728C253.89 305.936 252.626 306.928 251.314 306.928ZM261.471 300.912V299.36C261.311 299.344 261.183 299.344 261.039 299.344C259.919 299.376 259.039 299.92 258.607 300.896V299.392H257.183V308H258.639V303.488C258.639 301.6 259.311 300.848 260.655 300.848C260.895 300.848 261.167 300.88 261.471 300.912ZM268.524 306.592V296.4H266.892V308H274.652V306.592H268.524ZM275.296 305.728C275.296 307.312 276.64 308.208 278.256 308.208C279.776 308.208 280.672 307.696 281.2 306.816C281.216 307.328 281.264 307.68 281.312 308H282.784C282.624 307.184 282.544 306.192 282.56 304.752L282.576 302.768C282.592 300.352 281.52 299.216 279.152 299.216C277.472 299.216 275.84 300.256 275.696 302.112H277.2C277.264 301.056 277.968 300.4 279.168 300.4C280.24 300.4 281.12 300.928 281.12 302.496V302.704C277.584 303.104 275.296 303.696 275.296 305.728ZM281.232 303.856V304.4C281.232 306.432 279.936 307.056 278.576 307.056C277.536 307.056 276.912 306.512 276.912 305.696C276.912 304.512 278.592 304.128 281.232 303.856ZM285.162 297.232V299.392H283.802V300.56H285.162V305.84C285.162 307.632 285.546 308 287.194 308H288.25V306.784H287.514C286.682 306.784 286.618 306.56 286.618 305.664V300.56H288.25V299.392H286.618V297.232H285.162ZM291.561 296.4H290.105V298.16H291.561V296.4ZM291.561 299.392H290.105V308H291.561V299.392ZM295.327 300.688V299.392H293.871V308H295.327V303.328C295.327 301.488 296.191 300.512 297.599 300.512C299.263 300.512 299.487 301.664 299.487 302.992V308H300.943V302.56C300.943 300.592 300.191 299.248 298.111 299.248C296.655 299.248 295.823 299.872 295.327 300.688ZM306.945 303.504L309.873 299.392H308.241L306.129 302.352L304.033 299.392H302.289L305.265 303.568L302.097 308H303.761L306.081 304.72L308.417 308H310.161L306.945 303.504Z" fill="black"/>
<path d="M197.855 259.085C190.87 259.085 186.305 262.88 185.04 267.94C184.985 267.445 184.985 266.895 184.985 266.125C184.985 255.675 190.43 249.735 198.955 249.735C203.355 249.735 207.26 251.385 209.185 253.09V249.515C206.325 247.645 202.695 246.6 198.845 246.6C188.67 246.6 181.575 253.86 181.575 267.28C181.575 279.93 188.34 284.935 196.425 284.935C205.06 284.935 211.055 279.105 211.055 271.515C211.055 264.31 205.885 259.085 197.855 259.085ZM196.425 281.855C190.155 281.855 185.48 277.345 185.48 271.68C185.48 266.235 189.99 261.835 196.7 261.835C203.19 261.835 207.535 265.905 207.535 271.68C207.535 277.675 202.695 281.855 196.425 281.855ZM233.23 284.935C242.635 284.935 248.74 276.85 248.74 265.575C248.74 254.63 242.635 246.6 233.23 246.6C223.88 246.6 217.72 254.575 217.72 265.575C217.72 276.85 223.88 284.935 233.23 284.935ZM233.23 281.69C225.86 281.69 221.295 275.09 221.295 265.575C221.295 256.335 225.86 249.79 233.23 249.79C240.6 249.79 245.165 256.39 245.165 265.575C245.165 275.09 240.6 281.69 233.23 281.69ZM258.274 276.468C261.326 276.468 263.258 274.032 263.258 270.476C263.258 266.864 261.298 264.4 258.274 264.4C255.278 264.4 253.318 266.864 253.318 270.448C253.318 274.06 255.25 276.468 258.274 276.468ZM259.758 284H262.166L271.042 265.38H268.662L259.758 284ZM258.274 274.564C256.566 274.564 255.558 272.884 255.558 270.448C255.558 268.04 256.594 266.304 258.274 266.304C260.01 266.304 261.018 268.04 261.018 270.476C261.018 272.856 260.01 274.564 258.274 274.564ZM272.834 284.252C275.886 284.252 277.818 281.816 277.818 278.26C277.818 274.648 275.858 272.184 272.834 272.184C269.838 272.184 267.878 274.648 267.878 278.232C267.878 281.844 269.81 284.252 272.834 284.252ZM272.834 282.348C271.126 282.348 270.118 280.668 270.118 278.232C270.118 275.824 271.154 274.088 272.834 274.088C274.57 274.088 275.578 275.824 275.578 278.26C275.578 280.64 274.57 282.348 272.834 282.348Z" fill="black"/>
<path d="M423.776 297.808V308H425.408V297.808H429.184V296.4H420V297.808H423.776ZM433.399 299.392L431.687 305.76L430.039 299.392H428.471L430.951 308H432.279L434.119 301.072L436.023 308H437.351L439.831 299.392H438.263L436.615 305.76L434.903 299.392H433.399ZM448.676 303.728C448.676 300.608 446.548 299.248 444.548 299.248C442.548 299.248 440.42 300.608 440.42 303.728C440.42 306.848 442.548 308.208 444.548 308.208C446.548 308.208 448.676 306.848 448.676 303.728ZM444.548 306.928C443.236 306.928 441.972 306.016 441.972 303.728C441.972 301.376 443.236 300.528 444.548 300.528C445.86 300.528 447.124 301.44 447.124 303.728C447.124 305.936 445.86 306.928 444.548 306.928ZM461.911 303.728C461.911 300.608 459.783 299.248 457.783 299.248C455.783 299.248 453.655 300.608 453.655 303.728C453.655 306.848 455.783 308.208 457.783 308.208C459.783 308.208 461.911 306.848 461.911 303.728ZM457.783 306.928C456.471 306.928 455.207 306.016 455.207 303.728C455.207 301.376 456.471 300.528 457.783 300.528C459.095 300.528 460.359 301.44 460.359 303.728C460.359 305.936 459.095 306.928 457.783 306.928ZM467.94 300.912V299.36C467.78 299.344 467.652 299.344 467.508 299.344C466.388 299.376 465.508 299.92 465.076 300.896V299.392H463.652V308H465.108V303.488C465.108 301.6 465.78 300.848 467.124 300.848C467.364 300.848 467.636 300.88 467.94 300.912ZM474.592 308V303.328C474.592 301.488 475.424 300.512 476.672 300.512C478.256 300.512 478.512 301.664 478.512 302.992V308H479.968V303.328C479.968 301.488 480.8 300.512 482.048 300.512C483.632 300.512 483.888 301.664 483.888 302.992V308H485.344V302.56C485.344 300.592 484.56 299.248 482.56 299.248C481.36 299.248 480.352 299.712 479.664 300.768C479.28 299.824 478.496 299.248 477.184 299.248C475.888 299.248 475.088 299.872 474.592 300.688V299.392H473.136V308H474.592ZM495.223 303.728C495.223 300.608 493.095 299.248 491.095 299.248C489.095 299.248 486.967 300.608 486.967 303.728C486.967 306.848 489.095 308.208 491.095 308.208C493.095 308.208 495.223 306.848 495.223 303.728ZM491.095 306.928C489.783 306.928 488.519 306.016 488.519 303.728C488.519 301.376 489.783 300.528 491.095 300.528C492.407 300.528 493.671 301.44 493.671 303.728C493.671 305.936 492.407 306.928 491.095 306.928ZM501.253 300.912V299.36C501.093 299.344 500.965 299.344 500.821 299.344C499.701 299.376 498.821 299.92 498.389 300.896V299.392H496.965V308H498.421V303.488C498.421 301.6 499.093 300.848 500.437 300.848C500.677 300.848 500.949 300.88 501.253 300.912ZM503.472 304.176H510.096C510.288 301.456 508.704 299.248 506.08 299.248C503.728 299.248 501.904 300.992 501.904 303.712C501.904 306.256 503.408 308.208 506.128 308.208C508.224 308.208 509.584 306.992 509.984 305.504H508.48C508.112 306.352 507.408 306.928 506.128 306.928C504.848 306.928 503.536 306.032 503.472 304.176ZM503.488 302.928C503.616 301.2 504.784 300.496 506.08 300.496C507.616 300.496 508.528 301.712 508.56 302.928H503.488ZM519.878 300.912V299.36C519.718 299.344 519.59 299.344 519.446 299.344C518.326 299.376 517.446 299.92 517.014 300.896V299.392H515.59V308H517.046V303.488C517.046 301.6 517.718 300.848 519.062 300.848C519.302 300.848 519.574 300.88 519.878 300.912ZM520.453 305.728C520.453 307.312 521.797 308.208 523.413 308.208C524.933 308.208 525.829 307.696 526.357 306.816C526.373 307.328 526.421 307.68 526.469 308H527.941C527.781 307.184 527.701 306.192 527.717 304.752L527.733 302.768C527.749 300.352 526.677 299.216 524.309 299.216C522.629 299.216 520.997 300.256 520.853 302.112H522.357C522.421 301.056 523.125 300.4 524.325 300.4C525.397 300.4 526.277 300.928 526.277 302.496V302.704C522.741 303.104 520.453 303.696 520.453 305.728ZM526.389 303.856V304.4C526.389 306.432 525.093 307.056 523.733 307.056C522.693 307.056 522.069 306.512 522.069 305.696C522.069 304.512 523.749 304.128 526.389 303.856ZM537.07 302.272C536.878 300.816 535.55 299.248 533.47 299.248C530.926 299.248 529.31 301.152 529.31 303.712C529.31 306.336 530.862 308.208 533.326 308.208C535.326 308.208 536.878 306.816 537.166 305.2H535.662C535.454 306.112 534.59 306.928 533.374 306.928C532.094 306.928 530.894 305.888 530.894 303.696C530.894 301.536 532.078 300.528 533.374 300.528C534.494 300.528 535.39 301.248 535.598 302.272H537.07ZM539.862 304.176H546.486C546.678 301.456 545.094 299.248 542.47 299.248C540.118 299.248 538.294 300.992 538.294 303.712C538.294 306.256 539.798 308.208 542.518 308.208C544.614 308.208 545.974 306.992 546.374 305.504H544.87C544.502 306.352 543.798 306.928 542.518 306.928C541.238 306.928 539.926 306.032 539.862 304.176ZM539.878 302.928C540.006 301.2 541.174 300.496 542.47 300.496C544.006 300.496 544.918 301.712 544.95 302.928H539.878ZM553.143 301.904H554.663C554.391 300.272 553.127 299.232 551.271 299.232C549.367 299.232 547.831 300.112 547.831 301.632C547.831 303.232 549.111 303.776 550.279 304.016L551.559 304.272C552.487 304.464 553.303 304.832 553.303 305.696C553.303 306.496 552.407 306.976 551.303 306.976C550.023 306.976 549.335 306.32 549.111 305.216H547.575C547.735 306.72 549.015 308.208 551.271 308.208C553.239 308.208 554.775 307.232 554.775 305.536C554.775 303.872 553.399 303.28 551.831 302.976L550.615 302.736C549.783 302.576 549.303 302.256 549.303 301.568C549.303 300.784 550.263 300.48 551.111 300.48C552.119 300.48 552.919 300.88 553.143 301.904Z" fill="black"/>
<path d="M452.45 270.8H445.41V247.37H440.955L421.375 270.36V273.605H442.165V284H445.41V273.605H452.45V270.8ZM424.95 270.8L442.165 250.395V270.8H424.95ZM473.685 264.31C478.69 263.54 481.935 260.35 481.935 255.95C481.935 250.45 476.93 246.6 469.01 246.6C464.5 246.6 460.925 247.7 457.9 249.735V253.255C459.77 251.605 463.18 249.735 468.46 249.735C474.73 249.735 478.525 252.43 478.525 256.5C478.525 260.35 475.61 263.43 468.625 263.43H461.035L460.43 266.345H467.91C476.27 266.345 479.625 269.7 479.625 273.825C479.625 278.555 475.445 281.745 468.68 281.745C464.115 281.745 460.155 280.37 457.735 278.5V281.855C460.815 283.89 464.665 284.935 469.175 284.935C477.59 284.935 483.09 280.15 483.09 274.045C483.09 269.095 479.845 265.245 473.685 264.31ZM492.594 276.468C495.646 276.468 497.578 274.032 497.578 270.476C497.578 266.864 495.618 264.4 492.594 264.4C489.598 264.4 487.638 266.864 487.638 270.448C487.638 274.06 489.57 276.468 492.594 276.468ZM494.078 284H496.486L505.362 265.38H502.982L494.078 284ZM492.594 274.564C490.886 274.564 489.878 272.884 489.878 270.448C489.878 268.04 490.914 266.304 492.594 266.304C494.33 266.304 495.338 268.04 495.338 270.476C495.338 272.856 494.33 274.564 492.594 274.564ZM507.154 284.252C510.206 284.252 512.138 281.816 512.138 278.26C512.138 274.648 510.178 272.184 507.154 272.184C504.158 272.184 502.198 274.648 502.198 278.232C502.198 281.844 504.13 284.252 507.154 284.252ZM507.154 282.348C505.446 282.348 504.438 280.668 504.438 278.232C504.438 275.824 505.474 274.088 507.154 274.088C508.89 274.088 509.898 275.824 509.898 278.26C509.898 280.64 508.89 282.348 507.154 282.348Z" fill="black"/>
<line x1="33.1068" y1="124" x2="33.1068" y2="4.42077e-08" stroke="black" stroke-width="1.78638"/>
<line x1="287.107" y1="125" x2="287.107" y2="3.4205e-08" stroke="black" stroke-width="1.78638"/>
<line x1="511.107" y1="145" x2="511.107" y2="-4.27189e-08" stroke="black" stroke-width="1.78638"/>
<line x1="403.107" y1="307.996" x2="403.687" y2="167.307" stroke="black" stroke-width="1.78638"/>
<circle cx="164.401" cy="152.401" r="31.401" fill="#F3E02B"/>
<circle cx="33.8056" cy="152.806" r="33.8056" fill="#F3E02B"/>
<circle cx="288.263" cy="152.263" r="27.2626" fill="#F3E02B"/>
<circle cx="404.446" cy="152.446" r="23.4458" fill="#F3E02B"/>
<circle cx="511.539" cy="152.539" r="18.5385" fill="#F3E02B"/>
<path d="M48.376 50.4V62H52.952C55.272 62 57.112 61.04 57.112 58.576C57.112 57.152 56.456 56.288 55.352 55.824C56.152 55.36 56.632 54.368 56.632 53.264C56.632 50.96 54.712 50.4 52.552 50.4H48.376ZM50.008 55.36V51.776H52.808C54.104 51.776 54.984 52.304 54.984 53.488C54.984 54.848 54.136 55.36 52.808 55.36H50.008ZM50.008 60.624V56.656H52.872C54.616 56.656 55.432 57.232 55.432 58.592C55.432 59.904 54.616 60.624 52.968 60.624H50.008ZM60.358 62V50.4H58.902V62H60.358ZM62.1556 59.728C62.1556 61.312 63.4996 62.208 65.1156 62.208C66.6356 62.208 67.5316 61.696 68.0596 60.816C68.0756 61.328 68.1236 61.68 68.1716 62H69.6436C69.4836 61.184 69.4036 60.192 69.4196 58.752L69.4356 56.768C69.4516 54.352 68.3796 53.216 66.0116 53.216C64.3316 53.216 62.6996 54.256 62.5556 56.112H64.0596C64.1236 55.056 64.8276 54.4 66.0276 54.4C67.0996 54.4 67.9796 54.928 67.9796 56.496V56.704C64.4436 57.104 62.1556 57.696 62.1556 59.728ZM68.0916 57.856V58.4C68.0916 60.432 66.7956 61.056 65.4356 61.056C64.3956 61.056 63.7716 60.512 63.7716 59.696C63.7716 58.512 65.4516 58.128 68.0916 57.856ZM78.7731 56.272C78.5811 54.816 77.2531 53.248 75.1731 53.248C72.6291 53.248 71.0131 55.152 71.0131 57.712C71.0131 60.336 72.5651 62.208 75.0291 62.208C77.0291 62.208 78.5811 60.816 78.8691 59.2H77.3651C77.1571 60.112 76.2931 60.928 75.0771 60.928C73.7971 60.928 72.5971 59.888 72.5971 57.696C72.5971 55.536 73.7811 54.528 75.0771 54.528C76.1971 54.528 77.0931 55.248 77.3011 56.272H78.7731ZM81.9674 50.4H80.5114V62H81.9674V59.12L82.9754 58.032L85.9034 62H87.6794L83.9514 56.96L87.2314 53.392H85.4394L81.9674 57.264V50.4ZM100.082 57.728C100.082 54.608 97.9544 53.248 95.9544 53.248C93.9544 53.248 91.8264 54.608 91.8264 57.728C91.8264 60.848 93.9544 62.208 95.9544 62.208C97.9544 62.208 100.082 60.848 100.082 57.728ZM95.9544 60.928C94.6424 60.928 93.3784 60.016 93.3784 57.728C93.3784 55.376 94.6424 54.528 95.9544 54.528C97.2664 54.528 98.5304 55.44 98.5304 57.728C98.5304 59.936 97.2664 60.928 95.9544 60.928ZM106.112 54.912V53.36C105.952 53.344 105.824 53.344 105.68 53.344C104.56 53.376 103.68 53.92 103.248 54.896V53.392H101.824V62H103.28V57.488C103.28 55.6 103.952 54.848 105.296 54.848C105.536 54.848 105.808 54.88 106.112 54.912ZM114.46 50.4L110.156 62H111.82L112.716 59.488H118.044L118.956 62H120.716L116.348 50.4H114.46ZM113.212 58.096L115.356 52.048L117.532 58.096H113.212ZM121.926 52.768V53.392H120.726V54.56H121.926V62H123.382V54.56H124.998V53.392H123.382V52.688C123.382 51.792 123.51 51.616 124.278 51.616H124.998V50.4H124.246C122.294 50.4 121.926 50.976 121.926 52.768ZM130.862 54.912V53.36C130.702 53.344 130.574 53.344 130.43 53.344C129.31 53.376 128.43 53.92 127.998 54.896V53.392H126.574V62H128.03V57.488C128.03 55.6 128.702 54.848 130.046 54.848C130.286 54.848 130.558 54.88 130.862 54.912ZM133.717 50.4H132.261V52.16H133.717V50.4ZM133.717 53.392H132.261V62H133.717V53.392ZM143.195 56.272C143.003 54.816 141.675 53.248 139.595 53.248C137.051 53.248 135.435 55.152 135.435 57.712C135.435 60.336 136.987 62.208 139.451 62.208C141.451 62.208 143.003 60.816 143.291 59.2H141.787C141.579 60.112 140.715 60.928 139.499 60.928C138.219 60.928 137.019 59.888 137.019 57.696C137.019 55.536 138.203 54.528 139.499 54.528C140.619 54.528 141.515 55.248 141.723 56.272H143.195ZM144.421 59.728C144.421 61.312 145.765 62.208 147.381 62.208C148.901 62.208 149.797 61.696 150.325 60.816C150.341 61.328 150.389 61.68 150.437 62H151.909C151.749 61.184 151.669 60.192 151.685 58.752L151.701 56.768C151.717 54.352 150.645 53.216 148.277 53.216C146.597 53.216 144.965 54.256 144.821 56.112H146.325C146.389 55.056 147.093 54.4 148.293 54.4C149.365 54.4 150.245 54.928 150.245 56.496V56.704C146.709 57.104 144.421 57.696 144.421 59.728ZM150.357 57.856V58.4C150.357 60.432 149.061 61.056 147.701 61.056C146.661 61.056 146.037 60.512 146.037 59.696C146.037 58.512 147.717 58.128 150.357 57.856ZM155.327 54.688V53.392H153.871V62H155.327V57.328C155.327 55.488 156.191 54.512 157.599 54.512C159.263 54.512 159.487 55.664 159.487 56.992V62H160.943V56.56C160.943 54.592 160.191 53.248 158.111 53.248C156.655 53.248 155.823 53.872 155.327 54.688ZM51.304 74.4L47 86H48.664L49.56 83.488H54.888L55.8 86H57.56L53.192 74.4H51.304ZM50.056 82.096L52.2 76.048L54.376 82.096H50.056ZM60.1705 86V81.328C60.1705 79.488 61.0025 78.512 62.2505 78.512C63.8345 78.512 64.0905 79.664 64.0905 80.992V86H65.5465V81.328C65.5465 79.488 66.3785 78.512 67.6265 78.512C69.2105 78.512 69.4665 79.664 69.4665 80.992V86H70.9225V80.56C70.9225 78.592 70.1385 77.248 68.1385 77.248C66.9385 77.248 65.9305 77.712 65.2425 78.768C64.8585 77.824 64.0745 77.248 62.7625 77.248C61.4665 77.248 60.6665 77.872 60.1705 78.688V77.392H58.7145V86H60.1705ZM74.0811 82.176H80.7051C80.8971 79.456 79.3131 77.248 76.6891 77.248C74.3371 77.248 72.5131 78.992 72.5131 81.712C72.5131 84.256 74.0171 86.208 76.7371 86.208C78.8331 86.208 80.1931 84.992 80.5931 83.504H79.0891C78.7211 84.352 78.0171 84.928 76.7371 84.928C75.4571 84.928 74.1451 84.032 74.0811 82.176ZM74.0971 80.928C74.2251 79.2 75.3931 78.496 76.6891 78.496C78.2251 78.496 79.1371 79.712 79.1691 80.928H74.0971ZM86.69 78.912V77.36C86.53 77.344 86.402 77.344 86.258 77.344C85.138 77.376 84.258 77.92 83.826 78.896V77.392H82.402V86H83.858V81.488C83.858 79.6 84.53 78.848 85.874 78.848C86.114 78.848 86.386 78.88 86.69 78.912ZM89.5455 74.4H88.0895V76.16H89.5455V74.4ZM89.5455 77.392H88.0895V86H89.5455V77.392ZM99.0231 80.272C98.8311 78.816 97.5031 77.248 95.4231 77.248C92.8791 77.248 91.2631 79.152 91.2631 81.712C91.2631 84.336 92.8151 86.208 95.2791 86.208C97.2791 86.208 98.8311 84.816 99.1191 83.2H97.6151C97.4071 84.112 96.5431 84.928 95.3271 84.928C94.0471 84.928 92.8471 83.888 92.8471 81.696C92.8471 79.536 94.0311 78.528 95.3271 78.528C96.4471 78.528 97.3431 79.248 97.5511 80.272H99.0231ZM100.249 83.728C100.249 85.312 101.593 86.208 103.209 86.208C104.729 86.208 105.625 85.696 106.153 84.816C106.169 85.328 106.217 85.68 106.265 86H107.737C107.577 85.184 107.497 84.192 107.513 82.752L107.529 80.768C107.545 78.352 106.473 77.216 104.105 77.216C102.425 77.216 100.793 78.256 100.649 80.112H102.153C102.217 79.056 102.921 78.4 104.121 78.4C105.193 78.4 106.073 78.928 106.073 80.496V80.704C102.537 81.104 100.249 81.696 100.249 83.728ZM106.185 81.856V82.4C106.185 84.432 104.889 85.056 103.529 85.056C102.489 85.056 101.865 84.512 101.865 83.696C101.865 82.512 103.545 82.128 106.185 81.856ZM111.155 78.688V77.392H109.699V86H111.155V81.328C111.155 79.488 112.019 78.512 113.427 78.512C115.091 78.512 115.315 79.664 115.315 80.992V86H116.771V80.56C116.771 78.592 116.019 77.248 113.939 77.248C112.483 77.248 111.651 77.872 111.155 78.688Z" fill="black"/>
<path d="M66.855 13.085C59.87 13.085 55.305 16.88 54.04 21.94C53.985 21.445 53.985 20.895 53.985 20.125C53.985 9.675 59.43 3.735 67.955 3.735C72.355 3.735 76.26 5.385 78.185 7.09V3.515C75.325 1.645 71.695 0.6 67.845 0.6C57.67 0.6 50.575 7.86 50.575 21.28C50.575 33.93 57.34 38.935 65.425 38.935C74.06 38.935 80.055 33.105 80.055 25.515C80.055 18.31 74.885 13.085 66.855 13.085ZM65.425 35.855C59.155 35.855 54.48 31.345 54.48 25.68C54.48 20.235 58.99 15.835 65.7 15.835C72.19 15.835 76.535 19.905 76.535 25.68C76.535 31.675 71.695 35.855 65.425 35.855ZM90.8999 34.865L102.78 25.13C108.94 20.18 110.755 16.275 110.755 11.655C110.755 5 105.86 0.6 98.1049 0.6C92.8249 0.6 89.1399 2.305 86.3349 4.615V8.465C88.6999 5.825 92.4949 3.845 97.4999 3.845C103.495 3.845 107.235 7.09 107.235 11.875C107.235 15.505 105.97 18.75 100.14 23.535L86.3899 35.03V38H111.525V34.865H90.8999ZM120.614 30.468C123.666 30.468 125.598 28.032 125.598 24.476C125.598 20.864 123.638 18.4 120.614 18.4C117.618 18.4 115.658 20.864 115.658 24.448C115.658 28.06 117.59 30.468 120.614 30.468ZM122.098 38H124.506L133.382 19.38H131.002L122.098 38ZM120.614 28.564C118.906 28.564 117.898 26.884 117.898 24.448C117.898 22.04 118.934 20.304 120.614 20.304C122.35 20.304 123.358 22.04 123.358 24.476C123.358 26.856 122.35 28.564 120.614 28.564ZM135.174 38.252C138.226 38.252 140.158 35.816 140.158 32.26C140.158 28.648 138.198 26.184 135.174 26.184C132.178 26.184 130.218 28.648 130.218 32.232C130.218 35.844 132.15 38.252 135.174 38.252ZM135.174 36.348C133.466 36.348 132.458 34.668 132.458 32.232C132.458 29.824 133.494 28.088 135.174 28.088C136.91 28.088 137.918 29.824 137.918 32.26C137.918 34.64 136.91 36.348 135.174 36.348Z" fill="black"/>
<path d="M307.304 50.4L303 62H304.664L305.56 59.488H310.888L311.8 62H313.56L309.192 50.4H307.304ZM306.056 58.096L308.2 52.048L310.376 58.096H306.056ZM319.721 55.904H321.241C320.969 54.272 319.705 53.232 317.849 53.232C315.945 53.232 314.409 54.112 314.409 55.632C314.409 57.232 315.689 57.776 316.857 58.016L318.137 58.272C319.065 58.464 319.881 58.832 319.881 59.696C319.881 60.496 318.985 60.976 317.881 60.976C316.601 60.976 315.913 60.32 315.689 59.216H314.153C314.313 60.72 315.593 62.208 317.849 62.208C319.817 62.208 321.353 61.232 321.353 59.536C321.353 57.872 319.977 57.28 318.409 56.976L317.193 56.736C316.361 56.576 315.881 56.256 315.881 55.568C315.881 54.784 316.841 54.48 317.689 54.48C318.697 54.48 319.497 54.88 319.721 55.904ZM324.655 50.4H323.199V52.16H324.655V50.4ZM324.655 53.392H323.199V62H324.655V53.392ZM326.453 59.728C326.453 61.312 327.797 62.208 329.413 62.208C330.933 62.208 331.829 61.696 332.357 60.816C332.373 61.328 332.421 61.68 332.469 62H333.941C333.781 61.184 333.701 60.192 333.717 58.752L333.733 56.768C333.749 54.352 332.677 53.216 330.309 53.216C328.629 53.216 326.997 54.256 326.853 56.112H328.357C328.421 55.056 329.125 54.4 330.325 54.4C331.397 54.4 332.277 54.928 332.277 56.496V56.704C328.741 57.104 326.453 57.696 326.453 59.728ZM332.389 57.856V58.4C332.389 60.432 331.093 61.056 329.733 61.056C328.693 61.056 328.069 60.512 328.069 59.696C328.069 58.512 329.749 58.128 332.389 57.856ZM337.358 54.688V53.392H335.902V62H337.358V57.328C337.358 55.488 338.222 54.512 339.63 54.512C341.294 54.512 341.518 55.664 341.518 56.992V62H342.974V56.56C342.974 54.592 342.222 53.248 340.142 53.248C338.686 53.248 337.854 53.872 337.358 54.688Z" fill="black"/>
<path d="M320.215 14.13C316.475 14.13 313.285 15.065 310.81 16.275V4.505H331.105V1.37H307.675V19.85C310.48 18.2 314.11 16.88 318.62 16.88C325.605 16.88 329.565 20.62 329.565 25.955C329.565 31.455 325.495 35.745 318.18 35.745C314 35.745 310.15 34.425 307.07 31.785V35.195C309.71 37.45 314.165 38.935 318.565 38.935C327.475 38.935 333.14 33.215 333.14 25.845C333.14 19.245 328.19 14.13 320.215 14.13ZM355.061 38.935C364.466 38.935 370.571 30.85 370.571 19.575C370.571 8.63 364.466 0.6 355.061 0.6C345.711 0.6 339.551 8.575 339.551 19.575C339.551 30.85 345.711 38.935 355.061 38.935ZM355.061 35.69C347.691 35.69 343.126 29.09 343.126 19.575C343.126 10.335 347.691 3.79 355.061 3.79C362.431 3.79 366.996 10.39 366.996 19.575C366.996 29.09 362.431 35.69 355.061 35.69ZM380.105 30.468C383.157 30.468 385.089 28.032 385.089 24.476C385.089 20.864 383.129 18.4 380.105 18.4C377.109 18.4 375.149 20.864 375.149 24.448C375.149 28.06 377.081 30.468 380.105 30.468ZM381.589 38H383.997L392.873 19.38H390.493L381.589 38ZM380.105 28.564C378.397 28.564 377.389 26.884 377.389 24.448C377.389 22.04 378.425 20.304 380.105 20.304C381.841 20.304 382.849 22.04 382.849 24.476C382.849 26.856 381.841 28.564 380.105 28.564ZM394.665 38.252C397.717 38.252 399.649 35.816 399.649 32.26C399.649 28.648 397.689 26.184 394.665 26.184C391.669 26.184 389.709 28.648 389.709 32.232C389.709 35.844 391.641 38.252 394.665 38.252ZM394.665 36.348C392.957 36.348 391.949 34.668 391.949 32.232C391.949 29.824 392.985 28.088 394.665 28.088C396.401 28.088 397.409 29.824 397.409 32.26C397.409 34.64 396.401 36.348 394.665 36.348Z" fill="black"/>
<path d="M535.64 60.144L533.352 50.4H531.432L529.288 60.144L527.048 50.4H525.256L528.2 62H530.184L532.376 52.464L534.616 62H536.6L539.496 50.4H537.784L535.64 60.144ZM542.358 54.688V50.4H540.902V62H542.358V57.328C542.358 55.488 543.222 54.512 544.63 54.512C546.294 54.512 546.518 55.664 546.518 56.992V62H547.974V56.56C547.974 54.592 547.222 53.248 545.142 53.248C543.686 53.248 542.854 53.872 542.358 54.688ZM551.608 50.4H550.152V52.16H551.608V50.4ZM551.608 53.392H550.152V62H551.608V53.392ZM554.334 51.232V53.392H552.974V54.56H554.334V59.84C554.334 61.632 554.718 62 556.366 62H557.422V60.784H556.686C555.854 60.784 555.79 60.56 555.79 59.664V54.56H557.422V53.392H555.79V51.232H554.334ZM560.019 58.176H566.643C566.835 55.456 565.251 53.248 562.627 53.248C560.275 53.248 558.451 54.992 558.451 57.712C558.451 60.256 559.955 62.208 562.675 62.208C564.771 62.208 566.131 60.992 566.531 59.504H565.027C564.659 60.352 563.955 60.928 562.675 60.928C561.395 60.928 560.083 60.032 560.019 58.176ZM560.035 56.928C560.163 55.2 561.331 54.496 562.627 54.496C564.163 54.496 565.075 55.712 565.107 56.928H560.035Z" fill="black"/>
<path d="M544.525 18.31C549.53 17.54 552.775 14.35 552.775 9.95C552.775 4.45 547.77 0.6 539.85 0.6C535.34 0.6 531.765 1.7 528.74 3.735V7.255C530.61 5.605 534.02 3.735 539.3 3.735C545.57 3.735 549.365 6.43 549.365 10.5C549.365 14.35 546.45 17.43 539.465 17.43H531.875L531.27 20.345H538.75C547.11 20.345 550.465 23.7 550.465 27.825C550.465 32.555 546.285 35.745 539.52 35.745C534.955 35.745 530.995 34.37 528.575 32.5V35.855C531.655 37.89 535.505 38.935 540.015 38.935C548.43 38.935 553.93 34.15 553.93 28.045C553.93 23.095 550.685 19.245 544.525 18.31ZM589.891 24.8H582.851V1.37H578.396L558.816 24.36V27.605H579.606V38H582.851V27.605H589.891V24.8ZM562.391 24.8L579.606 4.395V24.8H562.391ZM597.594 30.468C600.646 30.468 602.578 28.032 602.578 24.476C602.578 20.864 600.618 18.4 597.594 18.4C594.598 18.4 592.638 20.864 592.638 24.448C592.638 28.06 594.57 30.468 597.594 30.468ZM599.078 38H601.486L610.362 19.38H607.982L599.078 38ZM597.594 28.564C595.886 28.564 594.878 26.884 594.878 24.448C594.878 22.04 595.914 20.304 597.594 20.304C599.33 20.304 600.338 22.04 600.338 24.476C600.338 26.856 599.33 28.564 597.594 28.564ZM612.154 38.252C615.206 38.252 617.138 35.816 617.138 32.26C617.138 28.648 615.178 26.184 612.154 26.184C609.158 26.184 607.198 28.648 607.198 32.232C607.198 35.844 609.13 38.252 612.154 38.252ZM612.154 36.348C610.446 36.348 609.438 34.668 609.438 32.232C609.438 29.824 610.474 28.088 612.154 28.088C613.89 28.088 614.898 29.824 614.898 32.26C614.898 34.64 613.89 36.348 612.154 36.348Z" fill="black"/>
<path d="M2.282 348.602V347.468H1.008V355H2.282V350.912C2.282 349.302 3.038 348.448 4.27 348.448C5.726 348.448 5.922 349.456 5.922 350.618V355H7.196V350.24C7.196 348.518 6.538 347.342 4.718 347.342C3.444 347.342 2.716 347.888 2.282 348.602ZM9.33975 350.352H16.3538V349.134H9.33975V350.352ZM9.33975 353.18H16.3538V351.976H9.33975V353.18ZM20.102 355H21.376V344.85H20.508C19.948 345.956 19.206 346.138 17.75 346.194V347.062H20.102V355ZM23.6463 353.39V355H24.3323L23.5903 356.946H24.4023L25.2563 355.112V353.39H23.6463ZM27.5954 349.652C27.6654 347.3 28.5194 345.732 30.0874 345.732C31.1234 345.732 31.8234 346.292 31.9914 347.202H33.3774C33.1674 345.914 32.2294 344.668 30.2414 344.668C27.3014 344.668 26.2794 347.412 26.2794 350.282C26.2794 353.418 27.4414 355.182 29.9754 355.182C32.1454 355.182 33.5454 353.572 33.5454 351.682C33.5454 349.652 32.1594 348.238 30.2694 348.238C28.9254 348.238 28.0574 348.854 27.5954 349.652ZM29.9614 354.118C28.6174 354.118 27.7494 353.152 27.7494 351.752C27.7494 350.366 28.6454 349.344 29.9754 349.344C31.2774 349.344 32.1874 350.366 32.1874 351.752C32.1874 353.138 31.2634 354.118 29.9614 354.118ZM34.3747 344.85V346.04H39.9187C37.3987 348.224 35.7887 351.36 35.5647 355H37.1047C37.3427 351.206 38.8967 348.07 41.4027 346.04V344.85H34.3747ZM48.8464 347.328C48.8464 345.62 47.5024 344.668 45.6264 344.668C43.4704 344.668 42.0704 345.998 42.0984 348.014H43.4144C43.4424 346.334 44.5064 345.732 45.5984 345.732C46.8024 345.732 47.5024 346.446 47.5024 347.496C47.5024 349.288 45.4024 351.206 41.8184 353.852V355H49.1264V353.81H43.5544C46.3964 351.766 48.8464 349.68 48.8464 347.328ZM55.3585 344.85C54.5045 346.068 53.4265 348.308 53.4265 351.15C53.4265 353.978 54.5045 356.232 55.3585 357.45H56.4085C55.4845 355.952 54.7425 353.782 54.7425 351.15C54.7425 348.504 55.4845 346.348 56.4085 344.85H55.3585ZM61.7302 349.666H63.0602C62.8222 348.238 61.7162 347.328 60.0922 347.328C58.4262 347.328 57.0822 348.098 57.0822 349.428C57.0822 350.828 58.2022 351.304 59.2242 351.514L60.3442 351.738C61.1562 351.906 61.8702 352.228 61.8702 352.984C61.8702 353.684 61.0862 354.104 60.1202 354.104C59.0002 354.104 58.3982 353.53 58.2022 352.564H56.8582C56.9982 353.88 58.1182 355.182 60.0922 355.182C61.8142 355.182 63.1582 354.328 63.1582 352.844C63.1582 351.388 61.9542 350.87 60.5822 350.604L59.5182 350.394C58.7902 350.254 58.3702 349.974 58.3702 349.372C58.3702 348.686 59.2102 348.42 59.9522 348.42C60.8342 348.42 61.5342 348.77 61.7302 349.666ZM69.4356 353.922V355H70.7096V347.468H69.4356V351.612C69.4356 353.222 68.7216 354.076 67.5176 354.076C66.1316 354.076 65.9356 353.068 65.9356 351.906V347.468H64.6616V352.284C64.6616 354.006 65.3196 355.182 67.0696 355.182C68.3156 355.182 69.0016 354.636 69.4356 353.922ZM74.0047 344.85H72.7307V355H74.0047V353.866C74.4667 354.664 75.2647 355.182 76.4687 355.182C78.1907 355.182 79.6887 353.754 79.6887 351.262C79.6887 348.784 78.1907 347.342 76.4687 347.342C75.2647 347.342 74.4667 347.86 74.0047 348.658V344.85ZM76.1467 354.09C75.0127 354.09 73.9487 353.25 73.9487 351.262C73.9487 349.274 75.0127 348.434 76.1467 348.434C77.4487 348.434 78.3027 349.47 78.3027 351.262C78.3027 353.054 77.4487 354.09 76.1467 354.09ZM85.4509 349.666H86.7809C86.5429 348.238 85.4369 347.328 83.8129 347.328C82.1469 347.328 80.8029 348.098 80.8029 349.428C80.8029 350.828 81.9229 351.304 82.9449 351.514L84.0649 351.738C84.8769 351.906 85.5909 352.228 85.5909 352.984C85.5909 353.684 84.8069 354.104 83.8409 354.104C82.7209 354.104 82.1189 353.53 81.9229 352.564H80.5789C80.7189 353.88 81.8389 355.182 83.8129 355.182C85.5349 355.182 86.8789 354.328 86.8789 352.844C86.8789 351.388 85.6749 350.87 84.3029 350.604L83.2389 350.394C82.5109 350.254 82.0909 349.974 82.0909 349.372C82.0909 348.686 82.9309 348.42 83.6729 348.42C84.5549 348.42 85.2549 348.77 85.4509 349.666ZM89.3483 351.654H95.1443C95.3123 349.274 93.9263 347.342 91.6303 347.342C89.5723 347.342 87.9763 348.868 87.9763 351.248C87.9763 353.474 89.2923 355.182 91.6723 355.182C93.5063 355.182 94.6963 354.118 95.0463 352.816H93.7303C93.4083 353.558 92.7923 354.062 91.6723 354.062C90.5523 354.062 89.4043 353.278 89.3483 351.654ZM89.3623 350.562C89.4743 349.05 90.4963 348.434 91.6303 348.434C92.9743 348.434 93.7723 349.498 93.8003 350.562H89.3623ZM96.9931 345.578V347.468H95.8031V348.49H96.9931V353.11C96.9931 354.678 97.3291 355 98.7711 355H99.6951V353.936H99.0511C98.3231 353.936 98.2671 353.74 98.2671 352.956V348.49H99.6951V347.468H98.2671V345.578H96.9931ZM111.238 351.262C111.238 348.532 109.376 347.342 107.626 347.342C105.876 347.342 104.014 348.532 104.014 351.262C104.014 353.992 105.876 355.182 107.626 355.182C109.376 355.182 111.238 353.992 111.238 351.262ZM107.626 354.062C106.478 354.062 105.372 353.264 105.372 351.262C105.372 349.204 106.478 348.462 107.626 348.462C108.774 348.462 109.88 349.26 109.88 351.262C109.88 353.194 108.774 354.062 107.626 354.062ZM113.152 346.922V347.468H112.102V348.49H113.152V355H114.426V348.49H115.84V347.468H114.426V346.852C114.426 346.068 114.538 345.914 115.21 345.914H115.84V344.85H115.182C113.474 344.85 113.152 345.354 113.152 346.922ZM124.965 355H126.477L129.277 346.152V355H130.705V344.85H128.311L125.721 353.306L123.131 344.85H120.737V355H122.165V346.152L124.965 355ZM132.466 353.012C132.466 354.398 133.642 355.182 135.056 355.182C136.386 355.182 137.17 354.734 137.632 353.964C137.646 354.412 137.688 354.72 137.73 355H139.018C138.878 354.286 138.808 353.418 138.822 352.158L138.836 350.422C138.85 348.308 137.912 347.314 135.84 347.314C134.37 347.314 132.942 348.224 132.816 349.848H134.132C134.188 348.924 134.804 348.35 135.854 348.35C136.792 348.35 137.562 348.812 137.562 350.184V350.366C134.468 350.716 132.466 351.234 132.466 353.012ZM137.66 351.374V351.85C137.66 353.628 136.526 354.174 135.336 354.174C134.426 354.174 133.88 353.698 133.88 352.984C133.88 351.948 135.35 351.612 137.66 351.374ZM146.182 347.468H144.852L142.99 353.278L141.072 347.468H139.658L142.374 355L142.318 355.154C141.982 356.33 141.576 356.386 140.736 356.386H140.218V357.45H140.876C142.556 357.45 142.948 356.96 143.494 355.322L146.182 347.468ZM156.95 347.328C156.95 345.62 155.606 344.668 153.73 344.668C151.574 344.668 150.174 345.998 150.202 348.014H151.518C151.546 346.334 152.61 345.732 153.702 345.732C154.906 345.732 155.606 346.446 155.606 347.496C155.606 349.288 153.506 351.206 149.922 353.852V355H157.23V353.81H151.658C154.5 351.766 156.95 349.68 156.95 347.328ZM162.38 355.182C165.082 355.182 166.328 353.138 166.328 349.918C166.328 346.712 165.082 344.668 162.38 344.668C159.678 344.668 158.432 346.712 158.432 349.918C158.432 353.138 159.678 355.182 162.38 355.182ZM162.38 345.732C163.976 345.732 164.97 347.104 164.97 349.918C164.97 352.746 163.976 354.118 162.38 354.118C160.784 354.118 159.79 352.746 159.79 349.918C159.79 347.104 160.784 345.732 162.38 345.732ZM174.464 347.328C174.464 345.62 173.12 344.668 171.244 344.668C169.088 344.668 167.688 345.998 167.716 348.014H169.032C169.06 346.334 170.124 345.732 171.216 345.732C172.42 345.732 173.12 346.446 173.12 347.496C173.12 349.288 171.02 351.206 167.436 353.852V355H174.744V353.81H169.172C172.014 351.766 174.464 349.68 174.464 347.328ZM177.793 355H179.067V344.85H178.199C177.639 345.956 176.897 346.138 175.441 346.194V347.062H177.793V355ZM189.07 349.666H190.4C190.162 348.238 189.056 347.328 187.432 347.328C185.766 347.328 184.422 348.098 184.422 349.428C184.422 350.828 185.542 351.304 186.564 351.514L187.684 351.738C188.496 351.906 189.21 352.228 189.21 352.984C189.21 353.684 188.426 354.104 187.46 354.104C186.34 354.104 185.738 353.53 185.542 352.564H184.198C184.338 353.88 185.458 355.182 187.432 355.182C189.154 355.182 190.498 354.328 190.498 352.844C190.498 351.388 189.294 350.87 187.922 350.604L186.858 350.394C186.13 350.254 185.71 349.974 185.71 349.372C185.71 348.686 186.55 348.42 187.292 348.42C188.174 348.42 188.874 348.77 189.07 349.666ZM196.775 353.922V355H198.049V347.468H196.775V351.612C196.775 353.222 196.061 354.076 194.857 354.076C193.471 354.076 193.275 353.068 193.275 351.906V347.468H192.001V352.284C192.001 354.006 192.659 355.182 194.409 355.182C195.655 355.182 196.341 354.636 196.775 353.922ZM203.823 348.798V347.44C203.683 347.426 203.571 347.426 203.445 347.426C202.465 347.454 201.695 347.93 201.317 348.784V347.468H200.071V355H201.345V351.052C201.345 349.4 201.933 348.742 203.109 348.742C203.319 348.742 203.557 348.77 203.823 348.798ZM207.497 353.236L205.453 347.468H204.039L206.881 355H208.015L210.857 347.468H209.541L207.497 353.236ZM212.587 351.654H218.383C218.551 349.274 217.165 347.342 214.869 347.342C212.811 347.342 211.215 348.868 211.215 351.248C211.215 353.474 212.531 355.182 214.911 355.182C216.745 355.182 217.935 354.118 218.285 352.816H216.969C216.647 353.558 216.031 354.062 214.911 354.062C213.791 354.062 212.643 353.278 212.587 351.654ZM212.601 350.562C212.713 349.05 213.735 348.434 214.869 348.434C216.213 348.434 217.011 349.498 217.039 350.562H212.601ZM225.315 347.468H223.985L222.123 353.278L220.205 347.468H218.791L221.507 355L221.451 355.154C221.115 356.33 220.709 356.386 219.869 356.386H219.351V357.45H220.009C221.689 357.45 222.081 356.96 222.627 355.322L225.315 347.468ZM233.017 347.468L231.519 353.04L230.077 347.468H228.705L230.875 355H232.037L233.647 348.938L235.313 355H236.475L238.645 347.468H237.273L235.831 353.04L234.333 347.468H233.017ZM240.993 348.602V344.85H239.719V355H240.993V350.912C240.993 349.302 241.749 348.448 242.981 348.448C244.437 348.448 244.633 349.456 244.633 350.618V355H245.907V350.24C245.907 348.518 245.249 347.342 243.429 347.342C242.155 347.342 241.427 347.888 240.993 348.602ZM254.547 351.262C254.547 348.532 252.685 347.342 250.935 347.342C249.185 347.342 247.323 348.532 247.323 351.262C247.323 353.992 249.185 355.182 250.935 355.182C252.685 355.182 254.547 353.992 254.547 351.262ZM250.935 354.062C249.787 354.062 248.681 353.264 248.681 351.262C248.681 349.204 249.787 348.462 250.935 348.462C252.083 348.462 253.189 349.26 253.189 351.262C253.189 353.194 252.083 354.062 250.935 354.062ZM258.945 353.012C258.945 354.398 260.121 355.182 261.535 355.182C262.865 355.182 263.649 354.734 264.111 353.964C264.125 354.412 264.167 354.72 264.209 355H265.497C265.357 354.286 265.287 353.418 265.301 352.158L265.315 350.422C265.329 348.308 264.391 347.314 262.319 347.314C260.849 347.314 259.421 348.224 259.295 349.848H260.611C260.667 348.924 261.283 348.35 262.333 348.35C263.271 348.35 264.041 348.812 264.041 350.184V350.366C260.947 350.716 258.945 351.234 258.945 353.012ZM264.139 351.374V351.85C264.139 353.628 263.005 354.174 261.815 354.174C260.905 354.174 260.359 353.698 260.359 352.984C260.359 351.948 261.829 351.612 264.139 351.374ZM267.577 345.578V347.468H266.387V348.49H267.577V353.11C267.577 354.678 267.913 355 269.355 355H270.279V353.936H269.635C268.907 353.936 268.851 353.74 268.851 352.956V348.49H270.279V347.468H268.851V345.578H267.577ZM272.13 345.578V347.468H270.94V348.49H272.13V353.11C272.13 354.678 272.466 355 273.908 355H274.832V353.936H274.188C273.46 353.936 273.404 353.74 273.404 352.956V348.49H274.832V347.468H273.404V345.578H272.13ZM277.104 351.654H282.9C283.068 349.274 281.682 347.342 279.386 347.342C277.328 347.342 275.732 348.868 275.732 351.248C275.732 353.474 277.048 355.182 279.428 355.182C281.262 355.182 282.452 354.118 282.802 352.816H281.486C281.164 353.558 280.548 354.062 279.428 354.062C278.308 354.062 277.16 353.278 277.104 351.654ZM277.118 350.562C277.23 349.05 278.252 348.434 279.386 348.434C280.73 348.434 281.528 349.498 281.556 350.562H277.118ZM285.659 348.602V347.468H284.385V355H285.659V350.912C285.659 349.302 286.415 348.448 287.647 348.448C289.103 348.448 289.299 349.456 289.299 350.618V355H290.573V350.24C290.573 348.518 289.915 347.342 288.095 347.342C286.821 347.342 286.093 347.888 285.659 348.602ZM297.645 344.85V348.658C297.183 347.86 296.385 347.342 295.181 347.342C293.459 347.342 291.961 348.784 291.961 351.262C291.961 353.754 293.459 355.182 295.181 355.182C296.385 355.182 297.183 354.664 297.645 353.866V355H298.919V344.85H297.645ZM295.503 348.434C296.637 348.434 297.701 349.274 297.701 351.262C297.701 353.25 296.637 354.09 295.503 354.09C294.201 354.09 293.347 353.054 293.347 351.262C293.347 349.47 294.201 348.434 295.503 348.434ZM301.782 351.654H307.578C307.746 349.274 306.36 347.342 304.064 347.342C302.006 347.342 300.41 348.868 300.41 351.248C300.41 353.474 301.726 355.182 304.106 355.182C305.94 355.182 307.13 354.118 307.48 352.816H306.164C305.842 353.558 305.226 354.062 304.106 354.062C302.986 354.062 301.838 353.278 301.782 351.654ZM301.796 350.562C301.908 349.05 302.93 348.434 304.064 348.434C305.408 348.434 306.206 349.498 306.234 350.562H301.796ZM314.297 344.85V348.658C313.835 347.86 313.037 347.342 311.833 347.342C310.111 347.342 308.613 348.784 308.613 351.262C308.613 353.754 310.111 355.182 311.833 355.182C313.037 355.182 313.835 354.664 314.297 353.866V355H315.571V344.85H314.297ZM312.155 348.434C313.289 348.434 314.353 349.274 314.353 351.262C314.353 353.25 313.289 354.09 312.155 354.09C310.853 354.09 309.999 353.054 309.999 351.262C309.999 349.47 310.853 348.434 312.155 348.434ZM323.353 353.236L321.309 347.468H319.895L322.737 355H323.871L326.713 347.468H325.397L323.353 353.236ZM328.999 344.85H327.725V346.39H328.999V344.85ZM328.999 347.468H327.725V355H328.999V347.468ZM334.772 348.798V347.44C334.632 347.426 334.52 347.426 334.394 347.426C333.414 347.454 332.644 347.93 332.266 348.784V347.468H331.02V355H332.294V351.052C332.294 349.4 332.882 348.742 334.058 348.742C334.268 348.742 334.506 348.77 334.772 348.798ZM336.36 345.578V347.468H335.17V348.49H336.36V353.11C336.36 354.678 336.696 355 338.138 355H339.062V353.936H338.418C337.69 353.936 337.634 353.74 337.634 352.956V348.49H339.062V347.468H337.634V345.578H336.36ZM345.211 353.922V355H346.485V347.468H345.211V351.612C345.211 353.222 344.497 354.076 343.293 354.076C341.907 354.076 341.711 353.068 341.711 351.906V347.468H340.437V352.284C340.437 354.006 341.095 355.182 342.845 355.182C344.091 355.182 344.777 354.636 345.211 353.922ZM348.058 353.012C348.058 354.398 349.234 355.182 350.648 355.182C351.978 355.182 352.762 354.734 353.224 353.964C353.238 354.412 353.28 354.72 353.322 355H354.61C354.47 354.286 354.4 353.418 354.414 352.158L354.428 350.422C354.442 348.308 353.504 347.314 351.432 347.314C349.962 347.314 348.534 348.224 348.408 349.848H349.724C349.78 348.924 350.396 348.35 351.446 348.35C352.384 348.35 353.154 348.812 353.154 350.184V350.366C350.06 350.716 348.058 351.234 348.058 353.012ZM353.252 351.374V351.85C353.252 353.628 352.118 354.174 350.928 354.174C350.018 354.174 349.472 353.698 349.472 352.984C349.472 351.948 350.942 351.612 353.252 351.374ZM357.6 355V344.85H356.326V355H357.6ZM363.798 351.654H369.594C369.762 349.274 368.376 347.342 366.08 347.342C364.022 347.342 362.426 348.868 362.426 351.248C362.426 353.474 363.742 355.182 366.122 355.182C367.956 355.182 369.146 354.118 369.496 352.816H368.18C367.858 353.558 367.242 354.062 366.122 354.062C365.002 354.062 363.854 353.278 363.798 351.654ZM363.812 350.562C363.924 349.05 364.946 348.434 366.08 348.434C367.424 348.434 368.222 349.498 368.25 350.562H363.812ZM373.46 353.236L371.416 347.468H370.002L372.844 355H373.978L376.82 347.468H375.504L373.46 353.236ZM378.55 351.654H384.346C384.514 349.274 383.128 347.342 380.832 347.342C378.774 347.342 377.178 348.868 377.178 351.248C377.178 353.474 378.494 355.182 380.874 355.182C382.708 355.182 383.898 354.118 384.248 352.816H382.932C382.61 353.558 381.994 354.062 380.874 354.062C379.754 354.062 378.606 353.278 378.55 351.654ZM378.564 350.562C378.676 349.05 379.698 348.434 380.832 348.434C382.176 348.434 382.974 349.498 383.002 350.562H378.564ZM387.104 348.602V347.468H385.83V355H387.104V350.912C387.104 349.302 387.86 348.448 389.092 348.448C390.548 348.448 390.744 349.456 390.744 350.618V355H392.018V350.24C392.018 348.518 391.36 347.342 389.54 347.342C388.266 347.342 387.538 347.888 387.104 348.602ZM394.288 345.578V347.468H393.098V348.49H394.288V353.11C394.288 354.678 394.624 355 396.066 355H396.99V353.936H396.346C395.618 353.936 395.562 353.74 395.562 352.956V348.49H396.99V347.468H395.562V345.578H394.288ZM398.519 357.45C399.373 356.232 400.451 353.978 400.451 351.15C400.451 348.308 399.373 346.068 398.519 344.85H397.469C398.393 346.348 399.135 348.504 399.135 351.15C399.135 353.782 398.393 355.952 397.469 357.45H398.519Z" fill="black"/>
</svg>
