<svg width="620" height="450" viewBox="0 0 620 450" fill="none" xmlns="http://www.w3.org/2000/svg">
<rect x="120" y="147" width="126" height="8" fill="#F3E02B"/>
<path d="M4.44 22.08V28.68H53.4L8.04 102H16.68L61.2 28.68V22.08H4.44ZM93.0356 21.84L66.5156 37.56V45L91.5956 30.24V102H98.9156V21.84H93.0356ZM125.574 85.86C132.114 85.86 136.254 80.64 136.254 73.02C136.254 65.28 132.054 60 125.574 60C119.154 60 114.954 65.28 114.954 72.96C114.954 80.7 119.094 85.86 125.574 85.86ZM128.754 102H133.914L152.934 62.1H147.834L128.754 102ZM125.574 81.78C121.914 81.78 119.754 78.18 119.754 72.96C119.754 67.8 121.974 64.08 125.574 64.08C129.294 64.08 131.454 67.8 131.454 73.02C131.454 78.12 129.294 81.78 125.574 81.78ZM156.774 102.54C163.314 102.54 167.454 97.32 167.454 89.7C167.454 81.96 163.254 76.68 156.774 76.68C150.354 76.68 146.154 81.96 146.154 89.64C146.154 97.38 150.294 102.54 156.774 102.54ZM156.774 98.46C153.114 98.46 150.954 94.86 150.954 89.64C150.954 84.48 153.174 80.76 156.774 80.76C160.494 80.76 162.654 84.48 162.654 89.7C162.654 94.8 160.494 98.46 156.774 98.46Z" fill="black"/>
<path d="M1.968 140.4H0.176L4.16 152H6.112L10.048 140.4H8.336L5.184 150.32L1.968 140.4ZM12.5768 140.4H11.1208V142.16H12.5768V140.4ZM12.5768 143.392H11.1208V152H12.5768V143.392ZM19.1744 144.912V143.36C19.0144 143.344 18.8864 143.344 18.7424 143.344C17.6224 143.376 16.7424 143.92 16.3104 144.896V143.392H14.8864V152H16.3424V147.488C16.3424 145.6 17.0144 144.848 18.3584 144.848C18.5984 144.848 18.8704 144.88 19.1744 144.912ZM20.9899 141.232V143.392H19.6299V144.56H20.9899V149.84C20.9899 151.632 21.3739 152 23.0219 152H24.0779V150.784H23.3419C22.5099 150.784 22.4459 150.56 22.4459 149.664V144.56H24.0779V143.392H22.4459V141.232H20.9899ZM31.105 150.768V152H32.561V143.392H31.105V148.128C31.105 149.968 30.289 150.944 28.913 150.944C27.329 150.944 27.105 149.792 27.105 148.464V143.392H25.649V148.896C25.649 150.864 26.401 152.208 28.401 152.208C29.825 152.208 30.609 151.584 31.105 150.768ZM34.3588 149.728C34.3588 151.312 35.7028 152.208 37.3188 152.208C38.8388 152.208 39.7348 151.696 40.2628 150.816C40.2788 151.328 40.3268 151.68 40.3748 152H41.8468C41.6868 151.184 41.6068 150.192 41.6228 148.752L41.6388 146.768C41.6548 144.352 40.5828 143.216 38.2148 143.216C36.5348 143.216 34.9028 144.256 34.7588 146.112H36.2628C36.3268 145.056 37.0308 144.4 38.2308 144.4C39.3028 144.4 40.1828 144.928 40.1828 146.496V146.704C36.6468 147.104 34.3588 147.696 34.3588 149.728ZM40.2948 147.856V148.4C40.2948 150.432 38.9988 151.056 37.6388 151.056C36.5988 151.056 35.9748 150.512 35.9748 149.696C35.9748 148.512 37.6548 148.128 40.2948 147.856ZM45.2643 152V140.4H43.8083V152H45.2643ZM52.8268 152V147.328C52.8268 145.488 53.6588 144.512 54.9068 144.512C56.4908 144.512 56.7468 145.664 56.7468 146.992V152H58.2028V147.328C58.2028 145.488 59.0347 144.512 60.2828 144.512C61.8668 144.512 62.1228 145.664 62.1228 146.992V152H63.5788V146.56C63.5788 144.592 62.7948 143.248 60.7948 143.248C59.5948 143.248 58.5868 143.712 57.8988 144.768C57.5148 143.824 56.7308 143.248 55.4188 143.248C54.1228 143.248 53.3228 143.872 52.8268 144.688V143.392H51.3708V152H52.8268ZM65.2494 149.728C65.2494 151.312 66.5934 152.208 68.2094 152.208C69.7294 152.208 70.6254 151.696 71.1534 150.816C71.1694 151.328 71.2174 151.68 71.2654 152H72.7374C72.5774 151.184 72.4974 150.192 72.5134 148.752L72.5294 146.768C72.5454 144.352 71.4734 143.216 69.1054 143.216C67.4254 143.216 65.7934 144.256 65.6494 146.112H67.1534C67.2174 145.056 67.9214 144.4 69.1214 144.4C70.1934 144.4 71.0734 144.928 71.0734 146.496V146.704C67.5374 147.104 65.2494 147.696 65.2494 149.728ZM71.1854 147.856V148.4C71.1854 150.432 69.8894 151.056 68.5294 151.056C67.4894 151.056 66.8654 150.512 66.8654 149.696C66.8654 148.512 68.5454 148.128 71.1854 147.856ZM80.6029 140.4V144.752C80.0749 143.84 79.1629 143.248 77.7869 143.248C75.8189 143.248 74.1069 144.896 74.1069 147.728C74.1069 150.576 75.8189 152.208 77.7869 152.208C79.1629 152.208 80.0749 151.616 80.6029 150.704V152H82.0589V140.4H80.6029ZM78.1549 144.496C79.4509 144.496 80.6669 145.456 80.6669 147.728C80.6669 150 79.4509 150.96 78.1549 150.96C76.6669 150.96 75.6909 149.776 75.6909 147.728C75.6909 145.68 76.6669 144.496 78.1549 144.496ZM85.3311 148.176H91.9551C92.1471 145.456 90.5631 143.248 87.9391 143.248C85.5871 143.248 83.7631 144.992 83.7631 147.712C83.7631 150.256 85.2671 152.208 87.9871 152.208C90.0831 152.208 91.4431 150.992 91.8431 149.504H90.3391C89.9711 150.352 89.2671 150.928 87.9871 150.928C86.7071 150.928 85.3951 150.032 85.3311 148.176ZM85.3471 146.928C85.4751 145.2 86.6431 144.496 87.9391 144.496C89.4751 144.496 90.3871 145.712 90.4191 146.928H85.3471ZM98.9049 140.4H97.4489V142.16H98.9049V140.4ZM98.9049 143.392H97.4489V152H98.9049V143.392ZM101.631 141.232V143.392H100.271V144.56H101.631V149.84C101.631 151.632 102.015 152 103.663 152H104.719V150.784H103.983C103.151 150.784 103.087 150.56 103.087 149.664V144.56H104.719V143.392H103.087V141.232H101.631ZM109.703 149.728C109.703 151.312 111.047 152.208 112.663 152.208C114.183 152.208 115.079 151.696 115.607 150.816C115.623 151.328 115.671 151.68 115.719 152H117.191C117.031 151.184 116.951 150.192 116.967 148.752L116.983 146.768C116.999 144.352 115.927 143.216 113.559 143.216C111.879 143.216 110.247 144.256 110.103 146.112H111.607C111.671 145.056 112.375 144.4 113.575 144.4C114.647 144.4 115.527 144.928 115.527 146.496V146.704C111.991 147.104 109.703 147.696 109.703 149.728ZM115.639 147.856V148.4C115.639 150.432 114.343 151.056 112.983 151.056C111.943 151.056 111.319 150.512 111.319 149.696C111.319 148.512 112.999 148.128 115.639 147.856ZM124.405 152V140.4H122.949V152H124.405ZM127.691 148.176H134.315C134.507 145.456 132.923 143.248 130.299 143.248C127.947 143.248 126.123 144.992 126.123 147.712C126.123 150.256 127.627 152.208 130.347 152.208C132.443 152.208 133.803 150.992 134.203 149.504H132.699C132.331 150.352 131.627 150.928 130.347 150.928C129.067 150.928 127.755 150.032 127.691 148.176ZM127.707 146.928C127.835 145.2 129.003 144.496 130.299 144.496C131.835 144.496 132.747 145.712 132.779 146.928H127.707ZM140.971 145.904H142.491C142.219 144.272 140.955 143.232 139.099 143.232C137.195 143.232 135.659 144.112 135.659 145.632C135.659 147.232 136.939 147.776 138.107 148.016L139.387 148.272C140.315 148.464 141.131 148.832 141.131 149.696C141.131 150.496 140.235 150.976 139.131 150.976C137.851 150.976 137.163 150.32 136.939 149.216H135.403C135.563 150.72 136.843 152.208 139.099 152.208C141.067 152.208 142.603 151.232 142.603 149.536C142.603 147.872 141.227 147.28 139.659 146.976L138.443 146.736C137.611 146.576 137.131 146.256 137.131 145.568C137.131 144.784 138.091 144.48 138.939 144.48C139.947 144.48 140.747 144.88 140.971 145.904ZM149.377 145.904H150.897C150.625 144.272 149.361 143.232 147.505 143.232C145.601 143.232 144.065 144.112 144.065 145.632C144.065 147.232 145.345 147.776 146.513 148.016L147.793 148.272C148.721 148.464 149.537 148.832 149.537 149.696C149.537 150.496 148.641 150.976 147.537 150.976C146.257 150.976 145.569 150.32 145.345 149.216H143.809C143.969 150.72 145.249 152.208 147.505 152.208C149.473 152.208 151.009 151.232 151.009 149.536C151.009 147.872 149.633 147.28 148.065 146.976L146.849 146.736C146.017 146.576 145.537 146.256 145.537 145.568C145.537 144.784 146.497 144.48 147.345 144.48C148.353 144.48 149.153 144.88 149.377 145.904ZM158.108 140.4H156.652V142.16H158.108V140.4ZM158.108 143.392H156.652V152H158.108V143.392ZM161.874 144.688V143.392H160.418V152H161.874V147.328C161.874 145.488 162.738 144.512 164.146 144.512C165.81 144.512 166.034 145.664 166.034 146.992V152H167.49V146.56C167.49 144.592 166.738 143.248 164.658 143.248C163.202 143.248 162.37 143.872 161.874 144.688ZM170.084 141.232V143.392H168.724V144.56H170.084V149.84C170.084 151.632 170.468 152 172.116 152H173.172V150.784H172.436C171.604 150.784 171.54 150.56 171.54 149.664V144.56H173.172V143.392H171.54V141.232H170.084ZM176.483 140.4H175.027V142.16H176.483V140.4ZM176.483 143.392H175.027V152H176.483V143.392ZM180.249 152V147.328C180.249 145.488 181.081 144.512 182.329 144.512C183.913 144.512 184.169 145.664 184.169 146.992V152H185.625V147.328C185.625 145.488 186.457 144.512 187.705 144.512C189.289 144.512 189.545 145.664 189.545 146.992V152H191.001V146.56C191.001 144.592 190.217 143.248 188.217 143.248C187.017 143.248 186.009 143.712 185.321 144.768C184.937 143.824 184.153 143.248 182.841 143.248C181.545 143.248 180.745 143.872 180.249 144.688V143.392H178.793V152H180.249ZM194.639 140.4H193.183V142.16H194.639V140.4ZM194.639 143.392H193.183V152H194.639V143.392ZM202.853 140.4V144.752C202.325 143.84 201.413 143.248 200.037 143.248C198.069 143.248 196.357 144.896 196.357 147.728C196.357 150.576 198.069 152.208 200.037 152.208C201.413 152.208 202.325 151.616 202.853 150.704V152H204.309V140.4H202.853ZM200.405 144.496C201.701 144.496 202.917 145.456 202.917 147.728C202.917 150 201.701 150.96 200.405 150.96C198.917 150.96 197.941 149.776 197.941 147.728C197.941 145.68 198.917 144.496 200.405 144.496ZM206.093 149.728C206.093 151.312 207.437 152.208 209.053 152.208C210.573 152.208 211.469 151.696 211.997 150.816C212.013 151.328 212.061 151.68 212.109 152H213.581C213.421 151.184 213.341 150.192 213.357 148.752L213.373 146.768C213.389 144.352 212.317 143.216 209.949 143.216C208.269 143.216 206.637 144.256 206.493 146.112H207.997C208.061 145.056 208.765 144.4 209.965 144.4C211.037 144.4 211.917 144.928 211.917 146.496V146.704C208.381 147.104 206.093 147.696 206.093 149.728ZM212.029 147.856V148.4C212.029 150.432 210.733 151.056 209.373 151.056C208.333 151.056 207.709 150.512 207.709 149.696C207.709 148.512 209.389 148.128 212.029 147.856ZM215.959 141.232V143.392H214.599V144.56H215.959V149.84C215.959 151.632 216.343 152 217.991 152H219.047V150.784H218.311C217.479 150.784 217.415 150.56 217.415 149.664V144.56H219.047V143.392H217.415V141.232H215.959ZM222.358 140.4H220.902V142.16H222.358V140.4ZM222.358 143.392H220.902V152H222.358V143.392ZM226.124 144.688V143.392H224.668V152H226.124V147.328C226.124 145.488 226.988 144.512 228.396 144.512C230.06 144.512 230.284 145.664 230.284 146.992V152H231.74V146.56C231.74 144.592 230.988 143.248 228.908 143.248C227.452 143.248 226.62 143.872 226.124 144.688ZM239.71 143.392V144.752C239.182 143.84 238.35 143.248 236.974 143.248C235.07 143.248 233.326 144.8 233.326 147.552C233.326 150.32 235.07 151.856 236.974 151.856C238.35 151.856 239.182 151.28 239.71 150.368V151.184C239.71 152.352 239.47 152.752 239.15 153.088C238.766 153.504 238.174 153.728 237.39 153.728C236.046 153.728 235.582 153.136 235.39 152.368H233.838C234.11 154.112 235.422 155.008 237.374 155.008C238.654 155.008 239.726 154.592 240.35 153.872C240.846 153.328 241.166 152.608 241.166 150.848V143.392H239.71ZM237.342 144.496C238.638 144.496 239.774 145.376 239.774 147.552C239.774 149.744 238.638 150.624 237.342 150.624C235.918 150.624 234.91 149.52 234.91 147.552C234.91 145.6 235.918 144.496 237.342 144.496ZM2.128 172.176H8.752C8.944 169.456 7.36 167.248 4.736 167.248C2.384 167.248 0.56 168.992 0.56 171.712C0.56 174.256 2.064 176.208 4.784 176.208C6.88 176.208 8.24 174.992 8.64 173.504H7.136C6.768 174.352 6.064 174.928 4.784 174.928C3.504 174.928 2.192 174.032 2.128 172.176ZM2.144 170.928C2.272 169.2 3.44 168.496 4.736 168.496C6.272 168.496 7.184 169.712 7.216 170.928H2.144ZM11.9049 168.688V167.392H10.4489V176H11.9049V171.328C11.9049 169.488 12.7689 168.512 14.1769 168.512C15.8409 168.512 16.0649 169.664 16.0649 170.992V176H17.5209V170.56C17.5209 168.592 16.7689 167.248 14.6889 167.248C13.2329 167.248 12.4009 167.872 11.9049 168.688ZM22.4208 173.984L20.0848 167.392H18.4688L21.7168 176H23.0128L26.2608 167.392H24.7568L22.4208 173.984ZM28.8736 164.4H27.4176V166.16H28.8736V164.4ZM28.8736 167.392H27.4176V176H28.8736V167.392ZM35.4713 168.912V167.36C35.3113 167.344 35.1833 167.344 35.0393 167.344C33.9193 167.376 33.0393 167.92 32.6073 168.896V167.392H31.1833V176H32.6393V171.488C32.6393 169.6 33.3113 168.848 34.6553 168.848C34.8953 168.848 35.1673 168.88 35.4713 168.912ZM44.4105 171.728C44.4105 168.608 42.2825 167.248 40.2825 167.248C38.2825 167.248 36.1545 168.608 36.1545 171.728C36.1545 174.848 38.2825 176.208 40.2825 176.208C42.2825 176.208 44.4105 174.848 44.4105 171.728ZM40.2825 174.928C38.9705 174.928 37.7065 174.016 37.7065 171.728C37.7065 169.376 38.9705 168.528 40.2825 168.528C41.5945 168.528 42.8585 169.44 42.8585 171.728C42.8585 173.936 41.5945 174.928 40.2825 174.928ZM47.608 168.688V167.392H46.152V176H47.608V171.328C47.608 169.488 48.472 168.512 49.88 168.512C51.544 168.512 51.768 169.664 51.768 170.992V176H53.224V170.56C53.224 168.592 52.472 167.248 50.392 167.248C48.936 167.248 48.104 167.872 47.608 168.688ZM56.858 176V171.328C56.858 169.488 57.69 168.512 58.938 168.512C60.522 168.512 60.778 169.664 60.778 170.992V176H62.234V171.328C62.234 169.488 63.066 168.512 64.314 168.512C65.898 168.512 66.154 169.664 66.154 170.992V176H67.61V170.56C67.61 168.592 66.826 167.248 64.826 167.248C63.626 167.248 62.618 167.712 61.93 168.768C61.546 167.824 60.762 167.248 59.45 167.248C58.154 167.248 57.354 167.872 56.858 168.688V167.392H55.402V176H56.858ZM70.7686 172.176H77.3926C77.5846 169.456 76.0006 167.248 73.3766 167.248C71.0246 167.248 69.2006 168.992 69.2006 171.712C69.2006 174.256 70.7046 176.208 73.4246 176.208C75.5206 176.208 76.8806 174.992 77.2806 173.504H75.7766C75.4086 174.352 74.7046 174.928 73.4246 174.928C72.1446 174.928 70.8326 174.032 70.7686 172.176ZM70.7846 170.928C70.9126 169.2 72.0806 168.496 73.3766 168.496C74.9126 168.496 75.8246 169.712 75.8566 170.928H70.7846ZM80.5455 168.688V167.392H79.0895V176H80.5455V171.328C80.5455 169.488 81.4095 168.512 82.8175 168.512C84.4815 168.512 84.7055 169.664 84.7055 170.992V176H86.1615V170.56C86.1615 168.592 85.4095 167.248 83.3295 167.248C81.8735 167.248 81.0415 167.872 80.5455 168.688ZM88.7555 165.232V167.392H87.3955V168.56H88.7555V173.84C88.7555 175.632 89.1395 176 90.7875 176H91.8435V174.784H91.1075C90.2755 174.784 90.2115 174.56 90.2115 173.664V168.56H91.8435V167.392H90.2115V165.232H88.7555ZM97.7555 165.232V167.392H96.3955V168.56H97.7555V173.84C97.7555 175.632 98.1395 176 99.7875 176H100.844V174.784H100.108C99.2755 174.784 99.2115 174.56 99.2115 173.664V168.56H100.844V167.392H99.2115V165.232H97.7555ZM110.161 171.728C110.161 168.608 108.033 167.248 106.033 167.248C104.033 167.248 101.905 168.608 101.905 171.728C101.905 174.848 104.033 176.208 106.033 176.208C108.033 176.208 110.161 174.848 110.161 171.728ZM106.033 174.928C104.721 174.928 103.457 174.016 103.457 171.728C103.457 169.376 104.721 168.528 106.033 168.528C107.345 168.528 108.609 169.44 108.609 171.728C108.609 173.936 107.345 174.928 106.033 174.928ZM117.155 176V164.4H115.699V176H117.155ZM120.441 172.176H127.065C127.257 169.456 125.673 167.248 123.049 167.248C120.697 167.248 118.873 168.992 118.873 171.712C118.873 174.256 120.377 176.208 123.097 176.208C125.193 176.208 126.553 174.992 126.953 173.504H125.449C125.081 174.352 124.377 174.928 123.097 174.928C121.817 174.928 120.505 174.032 120.441 172.176ZM120.457 170.928C120.585 169.2 121.753 168.496 123.049 168.496C124.585 168.496 125.497 169.712 125.529 170.928H120.457ZM128.171 173.728C128.171 175.312 129.515 176.208 131.131 176.208C132.651 176.208 133.547 175.696 134.075 174.816C134.091 175.328 134.139 175.68 134.187 176H135.659C135.499 175.184 135.419 174.192 135.435 172.752L135.451 170.768C135.467 168.352 134.395 167.216 132.027 167.216C130.347 167.216 128.715 168.256 128.571 170.112H130.075C130.139 169.056 130.843 168.4 132.043 168.4C133.115 168.4 133.995 168.928 133.995 170.496V170.704C130.459 171.104 128.171 171.696 128.171 173.728ZM134.107 171.856V172.4C134.107 174.432 132.811 175.056 131.451 175.056C130.411 175.056 129.787 174.512 129.787 173.696C129.787 172.512 131.467 172.128 134.107 171.856ZM141.909 168.912V167.36C141.749 167.344 141.621 167.344 141.477 167.344C140.357 167.376 139.477 167.92 139.045 168.896V167.392H137.621V176H139.077V171.488C139.077 169.6 139.749 168.848 141.093 168.848C141.333 168.848 141.605 168.88 141.909 168.912ZM144.764 168.688V167.392H143.308V176H144.764V171.328C144.764 169.488 145.628 168.512 147.036 168.512C148.7 168.512 148.924 169.664 148.924 170.992V176H150.38V170.56C150.38 168.592 149.628 167.248 147.548 167.248C146.092 167.248 145.26 167.872 144.764 168.688ZM155.843 173.728C155.843 175.312 157.187 176.208 158.803 176.208C160.323 176.208 161.219 175.696 161.747 174.816C161.763 175.328 161.811 175.68 161.859 176H163.331C163.171 175.184 163.091 174.192 163.107 172.752L163.123 170.768C163.139 168.352 162.067 167.216 159.699 167.216C158.019 167.216 156.387 168.256 156.243 170.112H157.747C157.811 169.056 158.515 168.4 159.715 168.4C160.787 168.4 161.667 168.928 161.667 170.496V170.704C158.131 171.104 155.843 171.696 155.843 173.728ZM161.779 171.856V172.4C161.779 174.432 160.483 175.056 159.123 175.056C158.083 175.056 157.459 174.512 157.459 173.696C157.459 172.512 159.139 172.128 161.779 171.856ZM166.749 164.4H165.293V176H166.749V174.704C167.277 175.616 168.189 176.208 169.565 176.208C171.533 176.208 173.245 174.576 173.245 171.728C173.245 168.896 171.533 167.248 169.565 167.248C168.189 167.248 167.277 167.84 166.749 168.752V164.4ZM169.197 174.96C167.901 174.96 166.685 174 166.685 171.728C166.685 169.456 167.901 168.496 169.197 168.496C170.685 168.496 171.661 169.68 171.661 171.728C171.661 173.776 170.685 174.96 169.197 174.96ZM182.723 171.728C182.723 168.608 180.595 167.248 178.595 167.248C176.595 167.248 174.467 168.608 174.467 171.728C174.467 174.848 176.595 176.208 178.595 176.208C180.595 176.208 182.723 174.848 182.723 171.728ZM178.595 174.928C177.283 174.928 176.019 174.016 176.019 171.728C176.019 169.376 177.283 168.528 178.595 168.528C179.907 168.528 181.171 169.44 181.171 171.728C181.171 173.936 179.907 174.928 178.595 174.928ZM189.793 174.768V176H191.249V167.392H189.793V172.128C189.793 173.968 188.977 174.944 187.601 174.944C186.017 174.944 185.793 173.792 185.793 172.464V167.392H184.337V172.896C184.337 174.864 185.089 176.208 187.089 176.208C188.513 176.208 189.297 175.584 189.793 174.768ZM193.974 165.232V167.392H192.614V168.56H193.974V173.84C193.974 175.632 194.358 176 196.006 176H197.062V174.784H196.326C195.494 174.784 195.43 174.56 195.43 173.664V168.56H197.062V167.392H195.43V165.232H193.974ZM203.534 172.176H210.158C210.35 169.456 208.766 167.248 206.142 167.248C203.79 167.248 201.966 168.992 201.966 171.712C201.966 174.256 203.47 176.208 206.19 176.208C208.286 176.208 209.646 174.992 210.046 173.504H208.542C208.174 174.352 207.47 174.928 206.19 174.928C204.91 174.928 203.598 174.032 203.534 172.176ZM203.55 170.928C203.678 169.2 204.846 168.496 206.142 168.496C207.678 168.496 208.59 169.712 208.622 170.928H203.55ZM213.311 176V171.328C213.311 169.488 214.143 168.512 215.391 168.512C216.975 168.512 217.231 169.664 217.231 170.992V176H218.687V171.328C218.687 169.488 219.519 168.512 220.767 168.512C222.351 168.512 222.607 169.664 222.607 170.992V176H224.063V170.56C224.063 168.592 223.279 167.248 221.279 167.248C220.079 167.248 219.071 167.712 218.383 168.768C217.999 167.824 217.215 167.248 215.903 167.248C214.607 167.248 213.807 167.872 213.311 168.688V167.392H211.855V176H213.311ZM227.702 167.392H226.246V178.8H227.702V174.704C228.23 175.616 229.142 176.208 230.518 176.208C232.486 176.208 234.198 174.576 234.198 171.728C234.198 168.896 232.486 167.248 230.518 167.248C229.142 167.248 228.23 167.84 227.702 168.752V167.392ZM230.15 174.96C228.854 174.96 227.638 174 227.638 171.728C227.638 169.456 228.854 168.496 230.15 168.496C231.638 168.496 232.614 169.68 232.614 171.728C232.614 173.776 231.638 174.96 230.15 174.96ZM237.358 176V164.4H235.902V176H237.358ZM247.364 171.728C247.364 168.608 245.236 167.248 243.236 167.248C241.236 167.248 239.108 168.608 239.108 171.728C239.108 174.848 241.236 176.208 243.236 176.208C245.236 176.208 247.364 174.848 247.364 171.728ZM243.236 174.928C241.924 174.928 240.66 174.016 240.66 171.728C240.66 169.376 241.924 168.528 243.236 168.528C244.548 168.528 245.812 169.44 245.812 171.728C245.812 173.936 244.548 174.928 243.236 174.928ZM255.253 167.392H253.733L251.605 174.032L249.413 167.392H247.797L250.901 176L250.837 176.176C250.453 177.52 249.989 177.584 249.029 177.584H248.437V178.8H249.189C251.109 178.8 251.557 178.24 252.181 176.368L255.253 167.392ZM257.222 172.176H263.846C264.038 169.456 262.454 167.248 259.83 167.248C257.478 167.248 255.654 168.992 255.654 171.712C255.654 174.256 257.158 176.208 259.878 176.208C261.974 176.208 263.334 174.992 263.734 173.504H262.23C261.862 174.352 261.158 174.928 259.878 174.928C258.598 174.928 257.286 174.032 257.222 172.176ZM257.238 170.928C257.366 169.2 258.534 168.496 259.83 168.496C261.366 168.496 262.278 169.712 262.31 170.928H257.238ZM269.831 168.912V167.36C269.671 167.344 269.543 167.344 269.399 167.344C268.279 167.376 267.399 167.92 266.967 168.896V167.392H265.543V176H266.999V171.488C266.999 169.6 267.671 168.848 269.015 168.848C269.255 168.848 269.527 168.88 269.831 168.912ZM276.08 169.904H277.6C277.328 168.272 276.064 167.232 274.208 167.232C272.304 167.232 270.768 168.112 270.768 169.632C270.768 171.232 272.048 171.776 273.216 172.016L274.496 172.272C275.424 172.464 276.24 172.832 276.24 173.696C276.24 174.496 275.344 174.976 274.24 174.976C272.96 174.976 272.272 174.32 272.048 173.216H270.512C270.672 174.72 271.952 176.208 274.208 176.208C276.176 176.208 277.712 175.232 277.712 173.536C277.712 171.872 276.336 171.28 274.768 170.976L273.552 170.736C272.72 170.576 272.24 170.256 272.24 169.568C272.24 168.784 273.2 168.48 274.048 168.48C275.056 168.48 275.856 168.88 276.08 169.904Z" fill="black"/>
<rect x="466" y="148" width="109" height="8" fill="#F3E02B"/>
<path d="M352.44 22.08V28.68H401.4L356.04 102H364.68L409.2 28.68V22.08H352.44ZM449.076 49.92C440.916 49.92 433.956 51.96 428.556 54.6V28.92H472.836V22.08H421.716V62.4C427.836 58.8 435.756 55.92 445.596 55.92C460.836 55.92 469.476 64.08 469.476 75.72C469.476 87.72 460.596 97.08 444.636 97.08C435.516 97.08 427.116 94.2 420.396 88.44V95.88C426.156 100.8 435.876 104.04 445.476 104.04C464.916 104.04 477.276 91.56 477.276 75.48C477.276 61.08 466.476 49.92 449.076 49.92ZM496.543 85.86C503.083 85.86 507.223 80.64 507.223 73.02C507.223 65.28 503.023 60 496.543 60C490.123 60 485.923 65.28 485.923 72.96C485.923 80.7 490.063 85.86 496.543 85.86ZM499.723 102H504.883L523.903 62.1H518.803L499.723 102ZM496.543 81.78C492.883 81.78 490.723 78.18 490.723 72.96C490.723 67.8 492.943 64.08 496.543 64.08C500.263 64.08 502.423 67.8 502.423 73.02C502.423 78.12 500.263 81.78 496.543 81.78ZM527.743 102.54C534.283 102.54 538.423 97.32 538.423 89.7C538.423 81.96 534.223 76.68 527.743 76.68C521.323 76.68 517.123 81.96 517.123 89.64C517.123 97.38 521.263 102.54 527.743 102.54ZM527.743 98.46C524.083 98.46 521.923 94.86 521.923 89.64C521.923 84.48 524.143 80.76 527.743 80.76C531.463 80.76 533.623 84.48 533.623 89.7C533.623 94.8 531.463 98.46 527.743 98.46Z" fill="black"/>
<path d="M349.968 140.4H348.176L352.16 152H354.112L358.048 140.4H356.336L353.184 150.32L349.968 140.4ZM360.577 140.4H359.121V142.16H360.577V140.4ZM360.577 143.392H359.121V152H360.577V143.392ZM367.174 144.912V143.36C367.014 143.344 366.886 143.344 366.742 143.344C365.622 143.376 364.742 143.92 364.31 144.896V143.392H362.886V152H364.342V147.488C364.342 145.6 365.014 144.848 366.358 144.848C366.598 144.848 366.87 144.88 367.174 144.912ZM368.99 141.232V143.392H367.63V144.56H368.99V149.84C368.99 151.632 369.374 152 371.022 152H372.078V150.784H371.342C370.51 150.784 370.446 150.56 370.446 149.664V144.56H372.078V143.392H370.446V141.232H368.99ZM379.105 150.768V152H380.561V143.392H379.105V148.128C379.105 149.968 378.289 150.944 376.913 150.944C375.329 150.944 375.105 149.792 375.105 148.464V143.392H373.649V148.896C373.649 150.864 374.401 152.208 376.401 152.208C377.825 152.208 378.609 151.584 379.105 150.768ZM382.359 149.728C382.359 151.312 383.703 152.208 385.319 152.208C386.839 152.208 387.735 151.696 388.263 150.816C388.279 151.328 388.327 151.68 388.375 152H389.847C389.687 151.184 389.607 150.192 389.623 148.752L389.639 146.768C389.655 144.352 388.583 143.216 386.215 143.216C384.535 143.216 382.903 144.256 382.759 146.112H384.263C384.327 145.056 385.031 144.4 386.231 144.4C387.303 144.4 388.183 144.928 388.183 146.496V146.704C384.647 147.104 382.359 147.696 382.359 149.728ZM388.295 147.856V148.4C388.295 150.432 386.999 151.056 385.639 151.056C384.599 151.056 383.975 150.512 383.975 149.696C383.975 148.512 385.655 148.128 388.295 147.856ZM393.264 152V140.4H391.808V152H393.264ZM400.827 143.392H399.371V154.8H400.827V150.704C401.355 151.616 402.267 152.208 403.643 152.208C405.611 152.208 407.323 150.576 407.323 147.728C407.323 144.896 405.611 143.248 403.643 143.248C402.267 143.248 401.355 143.84 400.827 144.752V143.392ZM403.275 150.96C401.979 150.96 400.763 150 400.763 147.728C400.763 145.456 401.979 144.496 403.275 144.496C404.763 144.496 405.739 145.68 405.739 147.728C405.739 149.776 404.763 150.96 403.275 150.96ZM413.315 144.912V143.36C413.155 143.344 413.027 143.344 412.883 143.344C411.763 143.376 410.883 143.92 410.451 144.896V143.392H409.027V152H410.483V147.488C410.483 145.6 411.155 144.848 412.499 144.848C412.739 144.848 413.011 144.88 413.315 144.912ZM422.254 147.728C422.254 144.608 420.126 143.248 418.126 143.248C416.126 143.248 413.998 144.608 413.998 147.728C413.998 150.848 416.126 152.208 418.126 152.208C420.126 152.208 422.254 150.848 422.254 147.728ZM418.126 150.928C416.814 150.928 415.55 150.016 415.55 147.728C415.55 145.376 416.814 144.528 418.126 144.528C419.438 144.528 420.702 145.44 420.702 147.728C420.702 149.936 419.438 150.928 418.126 150.928ZM426.64 149.984L424.304 143.392H422.688L425.936 152H427.232L430.48 143.392H428.976L426.64 149.984ZM433.092 140.4H431.636V142.16H433.092V140.4ZM433.092 143.392H431.636V152H433.092V143.392ZM441.306 140.4V144.752C440.778 143.84 439.866 143.248 438.49 143.248C436.522 143.248 434.81 144.896 434.81 147.728C434.81 150.576 436.522 152.208 438.49 152.208C439.866 152.208 440.778 151.616 441.306 150.704V152H442.762V140.4H441.306ZM438.858 144.496C440.154 144.496 441.37 145.456 441.37 147.728C441.37 150 440.154 150.96 438.858 150.96C437.37 150.96 436.394 149.776 436.394 147.728C436.394 145.68 437.37 144.496 438.858 144.496ZM446.034 148.176H452.658C452.85 145.456 451.266 143.248 448.642 143.248C446.29 143.248 444.466 144.992 444.466 147.712C444.466 150.256 445.97 152.208 448.69 152.208C450.786 152.208 452.146 150.992 452.546 149.504H451.042C450.674 150.352 449.97 150.928 448.69 150.928C447.41 150.928 446.098 150.032 446.034 148.176ZM446.05 146.928C446.178 145.2 447.346 144.496 448.642 144.496C450.178 144.496 451.09 145.712 451.122 146.928H446.05ZM460.337 140.4V144.752C459.809 143.84 458.897 143.248 457.521 143.248C455.553 143.248 453.841 144.896 453.841 147.728C453.841 150.576 455.553 152.208 457.521 152.208C458.897 152.208 459.809 151.616 460.337 150.704V152H461.793V140.4H460.337ZM457.889 144.496C459.185 144.496 460.401 145.456 460.401 147.728C460.401 150 459.185 150.96 457.889 150.96C456.401 150.96 455.425 149.776 455.425 147.728C455.425 145.68 456.401 144.496 457.889 144.496ZM469.342 152V147.328C469.342 145.488 470.174 144.512 471.422 144.512C473.006 144.512 473.262 145.664 473.262 146.992V152H474.718V147.328C474.718 145.488 475.55 144.512 476.798 144.512C478.382 144.512 478.638 145.664 478.638 146.992V152H480.094V146.56C480.094 144.592 479.31 143.248 477.31 143.248C476.11 143.248 475.102 143.712 474.414 144.768C474.03 143.824 473.246 143.248 471.934 143.248C470.638 143.248 469.838 143.872 469.342 144.688V143.392H467.886V152H469.342ZM489.973 147.728C489.973 144.608 487.845 143.248 485.845 143.248C483.845 143.248 481.717 144.608 481.717 147.728C481.717 150.848 483.845 152.208 485.845 152.208C487.845 152.208 489.973 150.848 489.973 147.728ZM485.845 150.928C484.533 150.928 483.269 150.016 483.269 147.728C483.269 145.376 484.533 144.528 485.845 144.528C487.157 144.528 488.421 145.44 488.421 147.728C488.421 149.936 487.157 150.928 485.845 150.928ZM496.003 144.912V143.36C495.843 143.344 495.715 143.344 495.571 143.344C494.451 143.376 493.571 143.92 493.139 144.896V143.392H491.715V152H493.171V147.488C493.171 145.6 493.843 144.848 495.187 144.848C495.427 144.848 495.699 144.88 496.003 144.912ZM498.222 148.176H504.846C505.038 145.456 503.454 143.248 500.83 143.248C498.478 143.248 496.654 144.992 496.654 147.712C496.654 150.256 498.158 152.208 500.878 152.208C502.974 152.208 504.334 150.992 504.734 149.504H503.23C502.862 150.352 502.158 150.928 500.878 150.928C499.598 150.928 498.286 150.032 498.222 148.176ZM498.238 146.928C498.366 145.2 499.534 144.496 500.83 144.496C502.366 144.496 503.278 145.712 503.31 146.928H498.238ZM510.708 142.768V143.392H509.508V144.56H510.708V152H512.164V144.56H513.78V143.392H512.164V142.688C512.164 141.792 512.292 141.616 513.06 141.616H513.78V140.4H513.028C511.076 140.4 510.708 140.976 510.708 142.768ZM516.811 152V140.4H515.355V152H516.811ZM520.097 148.176H526.721C526.913 145.456 525.329 143.248 522.705 143.248C520.353 143.248 518.529 144.992 518.529 147.712C518.529 150.256 520.033 152.208 522.753 152.208C524.849 152.208 526.209 150.992 526.609 149.504H525.105C524.737 150.352 524.033 150.928 522.753 150.928C521.473 150.928 520.161 150.032 520.097 148.176ZM520.113 146.928C520.241 145.2 521.409 144.496 522.705 144.496C524.241 144.496 525.153 145.712 525.185 146.928H520.113ZM532.054 147.504L534.982 143.392H533.35L531.238 146.352L529.142 143.392H527.398L530.374 147.568L527.206 152H528.87L531.19 148.72L533.526 152H535.27L532.054 147.504ZM537.999 140.4H536.543V142.16H537.999V140.4ZM537.999 143.392H536.543V152H537.999V143.392ZM541.764 140.4H540.308V152H541.764V150.704C542.292 151.616 543.204 152.208 544.58 152.208C546.548 152.208 548.26 150.576 548.26 147.728C548.26 144.896 546.548 143.248 544.58 143.248C543.204 143.248 542.292 143.84 541.764 144.752V140.4ZM544.212 150.96C542.916 150.96 541.7 150 541.7 147.728C541.7 145.456 542.916 144.496 544.212 144.496C545.7 144.496 546.676 145.68 546.676 147.728C546.676 149.776 545.7 150.96 544.212 150.96ZM551.374 140.4H549.918V142.16H551.374V140.4ZM551.374 143.392H549.918V152H551.374V143.392ZM555.139 152V140.4H553.683V152H555.139ZM558.905 140.4H557.449V142.16H558.905V140.4ZM558.905 143.392H557.449V152H558.905V143.392ZM561.631 141.232V143.392H560.271V144.56H561.631V149.84C561.631 151.632 562.015 152 563.663 152H564.719V150.784H563.983C563.151 150.784 563.087 150.56 563.087 149.664V144.56H564.719V143.392H563.087V141.232H561.631ZM572.722 143.392H571.202L569.074 150.032L566.882 143.392H565.266L568.37 152L568.306 152.176C567.922 153.52 567.458 153.584 566.498 153.584H565.906V154.8H566.658C568.578 154.8 569.026 154.24 569.65 152.368L572.722 143.392ZM348.64 173.728C348.64 175.312 349.984 176.208 351.6 176.208C353.12 176.208 354.016 175.696 354.544 174.816C354.56 175.328 354.608 175.68 354.656 176H356.128C355.968 175.184 355.888 174.192 355.904 172.752L355.92 170.768C355.936 168.352 354.864 167.216 352.496 167.216C350.816 167.216 349.184 168.256 349.04 170.112H350.544C350.608 169.056 351.312 168.4 352.512 168.4C353.584 168.4 354.464 168.928 354.464 170.496V170.704C350.928 171.104 348.64 171.696 348.64 173.728ZM354.576 171.856V172.4C354.576 174.432 353.28 175.056 351.92 175.056C350.88 175.056 350.256 174.512 350.256 173.696C350.256 172.512 351.936 172.128 354.576 171.856ZM362.378 168.912V167.36C362.218 167.344 362.09 167.344 361.946 167.344C360.826 167.376 359.946 167.92 359.514 168.896V167.392H358.09V176H359.546V171.488C359.546 169.6 360.218 168.848 361.562 168.848C361.802 168.848 362.074 168.88 362.378 168.912ZM371.317 171.728C371.317 168.608 369.189 167.248 367.189 167.248C365.189 167.248 363.061 168.608 363.061 171.728C363.061 174.848 365.189 176.208 367.189 176.208C369.189 176.208 371.317 174.848 371.317 171.728ZM367.189 174.928C365.877 174.928 364.613 174.016 364.613 171.728C364.613 169.376 365.877 168.528 367.189 168.528C368.501 168.528 369.765 169.44 369.765 171.728C369.765 173.936 368.501 174.928 367.189 174.928ZM378.386 174.768V176H379.842V167.392H378.386V172.128C378.386 173.968 377.57 174.944 376.194 174.944C374.61 174.944 374.386 173.792 374.386 172.464V167.392H372.93V172.896C372.93 174.864 373.682 176.208 375.682 176.208C377.106 176.208 377.89 175.584 378.386 174.768ZM383.608 168.688V167.392H382.152V176H383.608V171.328C383.608 169.488 384.472 168.512 385.88 168.512C387.544 168.512 387.768 169.664 387.768 170.992V176H389.224V170.56C389.224 168.592 388.472 167.248 386.392 167.248C384.936 167.248 384.104 167.872 383.608 168.688ZM397.306 164.4V168.752C396.778 167.84 395.866 167.248 394.49 167.248C392.522 167.248 390.81 168.896 390.81 171.728C390.81 174.576 392.522 176.208 394.49 176.208C395.866 176.208 396.778 175.616 397.306 174.704V176H398.762V164.4H397.306ZM394.858 168.496C396.154 168.496 397.37 169.456 397.37 171.728C397.37 174 396.154 174.96 394.858 174.96C393.37 174.96 392.394 173.776 392.394 171.728C392.394 169.68 393.37 168.496 394.858 168.496ZM409.783 169.904H411.303C411.031 168.272 409.767 167.232 407.911 167.232C406.007 167.232 404.471 168.112 404.471 169.632C404.471 171.232 405.751 171.776 406.919 172.016L408.199 172.272C409.127 172.464 409.943 172.832 409.943 173.696C409.943 174.496 409.047 174.976 407.943 174.976C406.663 174.976 405.975 174.32 405.751 173.216H404.215C404.375 174.72 405.655 176.208 407.911 176.208C409.879 176.208 411.415 175.232 411.415 173.536C411.415 171.872 410.039 171.28 408.471 170.976L407.255 170.736C406.423 170.576 405.943 170.256 405.943 169.568C405.943 168.784 406.903 168.48 407.751 168.48C408.759 168.48 409.559 168.88 409.783 169.904ZM420.429 170.272C420.237 168.816 418.909 167.248 416.829 167.248C414.285 167.248 412.669 169.152 412.669 171.712C412.669 174.336 414.221 176.208 416.685 176.208C418.685 176.208 420.237 174.816 420.525 173.2H419.021C418.813 174.112 417.949 174.928 416.733 174.928C415.453 174.928 414.253 173.888 414.253 171.696C414.253 169.536 415.437 168.528 416.733 168.528C417.853 168.528 418.749 169.248 418.957 170.272H420.429ZM423.624 168.688V164.4H422.168V176H423.624V171.328C423.624 169.488 424.488 168.512 425.896 168.512C427.56 168.512 427.784 169.664 427.784 170.992V176H429.24V170.56C429.24 168.592 428.488 167.248 426.408 167.248C424.952 167.248 424.12 167.872 423.624 168.688ZM432.394 172.176H439.018C439.21 169.456 437.626 167.248 435.002 167.248C432.65 167.248 430.826 168.992 430.826 171.712C430.826 174.256 432.33 176.208 435.05 176.208C437.146 176.208 438.506 174.992 438.906 173.504H437.402C437.034 174.352 436.33 174.928 435.05 174.928C433.77 174.928 432.458 174.032 432.394 172.176ZM432.41 170.928C432.538 169.2 433.706 168.496 435.002 168.496C436.538 168.496 437.45 169.712 437.482 170.928H432.41ZM446.697 164.4V168.752C446.169 167.84 445.257 167.248 443.881 167.248C441.913 167.248 440.201 168.896 440.201 171.728C440.201 174.576 441.913 176.208 443.881 176.208C445.257 176.208 446.169 175.616 446.697 174.704V176H448.153V164.4H446.697ZM444.249 168.496C445.545 168.496 446.761 169.456 446.761 171.728C446.761 174 445.545 174.96 444.249 174.96C442.761 174.96 441.785 173.776 441.785 171.728C441.785 169.68 442.761 168.496 444.249 168.496ZM455.777 174.768V176H457.233V167.392H455.777V172.128C455.777 173.968 454.961 174.944 453.585 174.944C452.001 174.944 451.777 173.792 451.777 172.464V167.392H450.321V172.896C450.321 174.864 451.073 176.208 453.073 176.208C454.497 176.208 455.281 175.584 455.777 174.768ZM460.999 176V164.4H459.543V176H460.999ZM464.764 164.4H463.308V166.16H464.764V164.4ZM464.764 167.392H463.308V176H464.764V167.392ZM468.53 168.688V167.392H467.074V176H468.53V171.328C468.53 169.488 469.394 168.512 470.802 168.512C472.466 168.512 472.69 169.664 472.69 170.992V176H474.146V170.56C474.146 168.592 473.394 167.248 471.314 167.248C469.858 167.248 469.026 167.872 468.53 168.688ZM482.116 167.392V168.752C481.588 167.84 480.756 167.248 479.38 167.248C477.476 167.248 475.732 168.8 475.732 171.552C475.732 174.32 477.476 175.856 479.38 175.856C480.756 175.856 481.588 175.28 482.116 174.368V175.184C482.116 176.352 481.876 176.752 481.556 177.088C481.172 177.504 480.58 177.728 479.796 177.728C478.452 177.728 477.988 177.136 477.796 176.368H476.244C476.516 178.112 477.828 179.008 479.78 179.008C481.06 179.008 482.132 178.592 482.756 177.872C483.252 177.328 483.572 176.608 483.572 174.848V167.392H482.116ZM479.748 168.496C481.044 168.496 482.18 169.376 482.18 171.552C482.18 173.744 481.044 174.624 479.748 174.624C478.324 174.624 477.316 173.52 477.316 171.552C477.316 169.6 478.324 168.496 479.748 168.496Z" fill="black"/>
<rect x="108" y="368" width="129" height="8" fill="#F3E02B"/>
<path d="M43.32 267.64C28.08 267.64 18.12 275.92 15.36 286.96C15.24 285.88 15.24 284.68 15.24 283C15.24 260.2 27.12 247.24 45.72 247.24C55.32 247.24 63.84 250.84 68.04 254.56V246.76C61.8 242.68 53.88 240.4 45.48 240.4C23.28 240.4 7.8 256.24 7.8 285.52C7.8 313.12 22.56 324.04 40.2 324.04C59.04 324.04 72.12 311.32 72.12 294.76C72.12 279.04 60.84 267.64 43.32 267.64ZM40.2 317.32C26.52 317.32 16.32 307.48 16.32 295.12C16.32 283.24 26.16 273.64 40.8 273.64C54.96 273.64 64.44 282.52 64.44 295.12C64.44 308.2 53.88 317.32 40.2 317.32ZM120.502 324.04C141.022 324.04 154.342 306.4 154.342 281.8C154.342 257.92 141.022 240.4 120.502 240.4C100.102 240.4 86.6616 257.8 86.6616 281.8C86.6616 306.4 100.102 324.04 120.502 324.04ZM120.502 316.96C104.422 316.96 94.4616 302.56 94.4616 281.8C94.4616 261.64 104.422 247.36 120.502 247.36C136.582 247.36 146.542 261.76 146.542 281.8C146.542 302.56 136.582 316.96 120.502 316.96ZM174.91 305.86C181.45 305.86 185.59 300.64 185.59 293.02C185.59 285.28 181.39 280 174.91 280C168.49 280 164.29 285.28 164.29 292.96C164.29 300.7 168.43 305.86 174.91 305.86ZM178.09 322H183.25L202.27 282.1H197.17L178.09 322ZM174.91 301.78C171.25 301.78 169.09 298.18 169.09 292.96C169.09 287.8 171.31 284.08 174.91 284.08C178.63 284.08 180.79 287.8 180.79 293.02C180.79 298.12 178.63 301.78 174.91 301.78ZM206.11 322.54C212.65 322.54 216.79 317.32 216.79 309.7C216.79 301.96 212.59 296.68 206.11 296.68C199.69 296.68 195.49 301.96 195.49 309.64C195.49 317.38 199.63 322.54 206.11 322.54ZM206.11 318.46C202.45 318.46 200.29 314.86 200.29 309.64C200.29 304.48 202.51 300.76 206.11 300.76C209.83 300.76 211.99 304.48 211.99 309.7C211.99 314.8 209.83 318.46 206.11 318.46Z" fill="black"/>
<path d="M1.968 360.4H0.176L4.16 372H6.112L10.048 360.4H8.336L5.184 370.32L1.968 360.4ZM12.5768 360.4H11.1208V362.16H12.5768V360.4ZM12.5768 363.392H11.1208V372H12.5768V363.392ZM19.1744 364.912V363.36C19.0144 363.344 18.8864 363.344 18.7424 363.344C17.6224 363.376 16.7424 363.92 16.3104 364.896V363.392H14.8864V372H16.3424V367.488C16.3424 365.6 17.0144 364.848 18.3584 364.848C18.5984 364.848 18.8704 364.88 19.1744 364.912ZM20.9899 361.232V363.392H19.6299V364.56H20.9899V369.84C20.9899 371.632 21.3739 372 23.0219 372H24.0779V370.784H23.3419C22.5099 370.784 22.4459 370.56 22.4459 369.664V364.56H24.0779V363.392H22.4459V361.232H20.9899ZM31.105 370.768V372H32.561V363.392H31.105V368.128C31.105 369.968 30.289 370.944 28.913 370.944C27.329 370.944 27.105 369.792 27.105 368.464V363.392H25.649V368.896C25.649 370.864 26.401 372.208 28.401 372.208C29.825 372.208 30.609 371.584 31.105 370.768ZM34.3588 369.728C34.3588 371.312 35.7028 372.208 37.3188 372.208C38.8388 372.208 39.7348 371.696 40.2628 370.816C40.2788 371.328 40.3268 371.68 40.3748 372H41.8468C41.6868 371.184 41.6068 370.192 41.6228 368.752L41.6388 366.768C41.6548 364.352 40.5828 363.216 38.2148 363.216C36.5348 363.216 34.9028 364.256 34.7588 366.112H36.2628C36.3268 365.056 37.0308 364.4 38.2308 364.4C39.3028 364.4 40.1828 364.928 40.1828 366.496V366.704C36.6468 367.104 34.3588 367.696 34.3588 369.728ZM40.2948 367.856V368.4C40.2948 370.432 38.9988 371.056 37.6388 371.056C36.5988 371.056 35.9748 370.512 35.9748 369.696C35.9748 368.512 37.6548 368.128 40.2948 367.856ZM45.2643 372V360.4H43.8083V372H45.2643ZM52.8268 372V367.328C52.8268 365.488 53.6588 364.512 54.9068 364.512C56.4908 364.512 56.7468 365.664 56.7468 366.992V372H58.2028V367.328C58.2028 365.488 59.0347 364.512 60.2828 364.512C61.8668 364.512 62.1228 365.664 62.1228 366.992V372H63.5788V366.56C63.5788 364.592 62.7948 363.248 60.7948 363.248C59.5948 363.248 58.5868 363.712 57.8988 364.768C57.5148 363.824 56.7308 363.248 55.4188 363.248C54.1228 363.248 53.3228 363.872 52.8268 364.688V363.392H51.3708V372H52.8268ZM65.2494 369.728C65.2494 371.312 66.5934 372.208 68.2094 372.208C69.7294 372.208 70.6254 371.696 71.1534 370.816C71.1694 371.328 71.2174 371.68 71.2654 372H72.7374C72.5774 371.184 72.4974 370.192 72.5134 368.752L72.5294 366.768C72.5454 364.352 71.4734 363.216 69.1054 363.216C67.4254 363.216 65.7934 364.256 65.6494 366.112H67.1534C67.2174 365.056 67.9214 364.4 69.1214 364.4C70.1934 364.4 71.0734 364.928 71.0734 366.496V366.704C67.5374 367.104 65.2494 367.696 65.2494 369.728ZM71.1854 367.856V368.4C71.1854 370.432 69.8894 371.056 68.5294 371.056C67.4894 371.056 66.8654 370.512 66.8654 369.696C66.8654 368.512 68.5454 368.128 71.1854 367.856ZM80.6029 360.4V364.752C80.0749 363.84 79.1629 363.248 77.7869 363.248C75.8189 363.248 74.1069 364.896 74.1069 367.728C74.1069 370.576 75.8189 372.208 77.7869 372.208C79.1629 372.208 80.0749 371.616 80.6029 370.704V372H82.0589V360.4H80.6029ZM78.1549 364.496C79.4509 364.496 80.6669 365.456 80.6669 367.728C80.6669 370 79.4509 370.96 78.1549 370.96C76.6669 370.96 75.6909 369.776 75.6909 367.728C75.6909 365.68 76.6669 364.496 78.1549 364.496ZM85.3311 368.176H91.9551C92.1471 365.456 90.5631 363.248 87.9391 363.248C85.5871 363.248 83.7631 364.992 83.7631 367.712C83.7631 370.256 85.2671 372.208 87.9871 372.208C90.0831 372.208 91.4431 370.992 91.8431 369.504H90.3391C89.9711 370.352 89.2671 370.928 87.9871 370.928C86.7071 370.928 85.3951 370.032 85.3311 368.176ZM85.3471 366.928C85.4751 365.2 86.6431 364.496 87.9391 364.496C89.4751 364.496 90.3871 365.712 90.4191 366.928H85.3471ZM98.9049 360.4H97.4489V362.16H98.9049V360.4ZM98.9049 363.392H97.4489V372H98.9049V363.392ZM101.631 361.232V363.392H100.271V364.56H101.631V369.84C101.631 371.632 102.015 372 103.663 372H104.719V370.784H103.983C103.151 370.784 103.087 370.56 103.087 369.664V364.56H104.719V363.392H103.087V361.232H101.631ZM111.191 368.176H117.815C118.007 365.456 116.423 363.248 113.799 363.248C111.447 363.248 109.623 364.992 109.623 367.712C109.623 370.256 111.127 372.208 113.847 372.208C115.943 372.208 117.303 370.992 117.703 369.504H116.199C115.831 370.352 115.127 370.928 113.847 370.928C112.567 370.928 111.255 370.032 111.191 368.176ZM111.207 366.928C111.335 365.2 112.503 364.496 113.799 364.496C115.335 364.496 116.247 365.712 116.279 366.928H111.207ZM118.921 369.728C118.921 371.312 120.265 372.208 121.881 372.208C123.401 372.208 124.297 371.696 124.825 370.816C124.841 371.328 124.889 371.68 124.937 372H126.409C126.249 371.184 126.169 370.192 126.185 368.752L126.201 366.768C126.217 364.352 125.145 363.216 122.777 363.216C121.097 363.216 119.465 364.256 119.321 366.112H120.825C120.889 365.056 121.593 364.4 122.793 364.4C123.865 364.4 124.745 364.928 124.745 366.496V366.704C121.209 367.104 118.921 367.696 118.921 369.728ZM124.857 367.856V368.4C124.857 370.432 123.561 371.056 122.201 371.056C121.161 371.056 120.537 370.512 120.537 369.696C120.537 368.512 122.217 368.128 124.857 367.856ZM133.299 365.904H134.819C134.547 364.272 133.283 363.232 131.427 363.232C129.523 363.232 127.987 364.112 127.987 365.632C127.987 367.232 129.267 367.776 130.435 368.016L131.715 368.272C132.643 368.464 133.459 368.832 133.459 369.696C133.459 370.496 132.563 370.976 131.459 370.976C130.179 370.976 129.491 370.32 129.267 369.216H127.731C127.891 370.72 129.171 372.208 131.427 372.208C133.395 372.208 134.931 371.232 134.931 369.536C134.931 367.872 133.555 367.28 131.987 366.976L130.771 366.736C129.939 366.576 129.459 366.256 129.459 365.568C129.459 364.784 130.419 364.48 131.267 364.48C132.275 364.48 133.075 364.88 133.299 365.904ZM138.233 360.4H136.777V362.16H138.233V360.4ZM138.233 363.392H136.777V372H138.233V363.392ZM141.519 368.176H148.143C148.335 365.456 146.751 363.248 144.127 363.248C141.775 363.248 139.951 364.992 139.951 367.712C139.951 370.256 141.455 372.208 144.175 372.208C146.271 372.208 147.631 370.992 148.031 369.504H146.527C146.159 370.352 145.455 370.928 144.175 370.928C142.895 370.928 141.583 370.032 141.519 368.176ZM141.535 366.928C141.663 365.2 142.831 364.496 144.127 364.496C145.663 364.496 146.575 365.712 146.607 366.928H141.535ZM154.128 364.912V363.36C153.968 363.344 153.84 363.344 153.696 363.344C152.576 363.376 151.696 363.92 151.264 364.896V363.392H149.84V372H151.296V367.488C151.296 365.6 151.968 364.848 153.312 364.848C153.552 364.848 153.824 364.88 154.128 364.912ZM159.74 361.232V363.392H158.38V364.56H159.74V369.84C159.74 371.632 160.124 372 161.772 372H162.828V370.784H162.092C161.26 370.784 161.196 370.56 161.196 369.664V364.56H162.828V363.392H161.196V361.232H159.74ZM172.145 367.728C172.145 364.608 170.017 363.248 168.017 363.248C166.017 363.248 163.889 364.608 163.889 367.728C163.889 370.848 166.017 372.208 168.017 372.208C170.017 372.208 172.145 370.848 172.145 367.728ZM168.017 370.928C166.705 370.928 165.441 370.016 165.441 367.728C165.441 365.376 166.705 364.528 168.017 364.528C169.329 364.528 170.593 365.44 170.593 367.728C170.593 369.936 169.329 370.928 168.017 370.928ZM179.139 363.392H177.683V374.8H179.139V370.704C179.667 371.616 180.579 372.208 181.955 372.208C183.923 372.208 185.635 370.576 185.635 367.728C185.635 364.896 183.923 363.248 181.955 363.248C180.579 363.248 179.667 363.84 179.139 364.752V363.392ZM181.587 370.96C180.291 370.96 179.075 370 179.075 367.728C179.075 365.456 180.291 364.496 181.587 364.496C183.075 364.496 184.051 365.68 184.051 367.728C184.051 369.776 183.075 370.96 181.587 370.96ZM191.628 364.912V363.36C191.468 363.344 191.34 363.344 191.196 363.344C190.076 363.376 189.196 363.92 188.764 364.896V363.392H187.34V372H188.796V367.488C188.796 365.6 189.468 364.848 190.812 364.848C191.052 364.848 191.324 364.88 191.628 364.912ZM193.847 368.176H200.471C200.663 365.456 199.079 363.248 196.455 363.248C194.103 363.248 192.279 364.992 192.279 367.712C192.279 370.256 193.783 372.208 196.503 372.208C198.599 372.208 199.959 370.992 200.359 369.504H198.855C198.487 370.352 197.783 370.928 196.503 370.928C195.223 370.928 193.911 370.032 193.847 368.176ZM193.863 366.928C193.991 365.2 195.159 364.496 196.455 364.496C197.991 364.496 198.903 365.712 198.935 366.928H193.863ZM203.624 363.392H202.168V374.8H203.624V370.704C204.152 371.616 205.064 372.208 206.44 372.208C208.408 372.208 210.12 370.576 210.12 367.728C210.12 364.896 208.408 363.248 206.44 363.248C205.064 363.248 204.152 363.84 203.624 364.752V363.392ZM206.072 370.96C204.776 370.96 203.56 370 203.56 367.728C203.56 365.456 204.776 364.496 206.072 364.496C207.56 364.496 208.536 365.68 208.536 367.728C208.536 369.776 207.56 370.96 206.072 370.96ZM211.312 369.728C211.312 371.312 212.656 372.208 214.272 372.208C215.792 372.208 216.688 371.696 217.216 370.816C217.232 371.328 217.28 371.68 217.328 372H218.8C218.64 371.184 218.56 370.192 218.576 368.752L218.592 366.768C218.608 364.352 217.536 363.216 215.168 363.216C213.488 363.216 211.856 364.256 211.712 366.112H213.216C213.28 365.056 213.984 364.4 215.184 364.4C216.256 364.4 217.136 364.928 217.136 366.496V366.704C213.6 367.104 211.312 367.696 211.312 369.728ZM217.248 367.856V368.4C217.248 370.432 215.952 371.056 214.592 371.056C213.552 371.056 212.928 370.512 212.928 369.696C212.928 368.512 214.608 368.128 217.248 367.856ZM225.049 364.912V363.36C224.889 363.344 224.761 363.344 224.617 363.344C223.497 363.376 222.617 363.92 222.185 364.896V363.392H220.761V372H222.217V367.488C222.217 365.6 222.889 364.848 224.233 364.848C224.473 364.848 224.745 364.88 225.049 364.912ZM227.269 368.176H233.893C234.085 365.456 232.501 363.248 229.877 363.248C227.525 363.248 225.701 364.992 225.701 367.712C225.701 370.256 227.205 372.208 229.925 372.208C232.021 372.208 233.381 370.992 233.781 369.504H232.277C231.909 370.352 231.205 370.928 229.925 370.928C228.645 370.928 227.333 370.032 227.269 368.176ZM227.285 366.928C227.413 365.2 228.581 364.496 229.877 364.496C231.413 364.496 232.325 365.712 232.357 366.928H227.285ZM1.568 385.232V387.392H0.208V388.56H1.568V393.84C1.568 395.632 1.952 396 3.6 396H4.656V394.784H3.92C3.088 394.784 3.024 394.56 3.024 393.664V388.56H4.656V387.392H3.024V385.232H1.568ZM13.973 391.728C13.973 388.608 11.845 387.248 9.845 387.248C7.845 387.248 5.717 388.608 5.717 391.728C5.717 394.848 7.845 396.208 9.845 396.208C11.845 396.208 13.973 394.848 13.973 391.728ZM9.845 394.928C8.533 394.928 7.269 394.016 7.269 391.728C7.269 389.376 8.533 388.528 9.845 388.528C11.157 388.528 12.421 389.44 12.421 391.728C12.421 393.936 11.157 394.928 9.845 394.928ZM20.9674 396V391.328C20.9674 389.488 21.7994 388.512 23.0474 388.512C24.6314 388.512 24.8874 389.664 24.8874 390.992V396H26.3434V391.328C26.3434 389.488 27.1754 388.512 28.4234 388.512C30.0074 388.512 30.2634 389.664 30.2634 390.992V396H31.7194V390.56C31.7194 388.592 30.9354 387.248 28.9354 387.248C27.7354 387.248 26.7274 387.712 26.0394 388.768C25.6554 387.824 24.8714 387.248 23.5594 387.248C22.2634 387.248 21.4634 387.872 20.9674 388.688V387.392H19.5114V396H20.9674ZM34.878 392.176H41.502C41.694 389.456 40.11 387.248 37.486 387.248C35.134 387.248 33.31 388.992 33.31 391.712C33.31 394.256 34.814 396.208 37.534 396.208C39.63 396.208 40.99 394.992 41.39 393.504H39.886C39.518 394.352 38.814 394.928 37.534 394.928C36.254 394.928 34.942 394.032 34.878 392.176ZM34.894 390.928C35.022 389.2 36.19 388.496 37.486 388.496C39.022 388.496 39.934 389.712 39.966 390.928H34.894ZM44.253 392.176H50.877C51.069 389.456 49.485 387.248 46.861 387.248C44.509 387.248 42.685 388.992 42.685 391.712C42.685 394.256 44.189 396.208 46.909 396.208C49.005 396.208 50.365 394.992 50.765 393.504H49.261C48.893 394.352 48.189 394.928 46.909 394.928C45.629 394.928 44.317 394.032 44.253 392.176ZM44.269 390.928C44.397 389.2 45.565 388.496 46.861 388.496C48.397 388.496 49.309 389.712 49.341 390.928H44.269ZM52.9899 385.232V387.392H51.6299V388.56H52.9899V393.84C52.9899 395.632 53.3739 396 55.0219 396H56.0779V394.784H55.3419C54.5099 394.784 54.4459 394.56 54.4459 393.664V388.56H56.0779V387.392H54.4459V385.232H52.9899ZM65.4299 387.392L63.7179 393.76L62.0699 387.392H60.5019L62.9819 396H64.3099L66.1499 389.072L68.0539 396H69.3819L71.8619 387.392H70.2939L68.6459 393.76L66.9339 387.392H65.4299ZM74.5455 384.4H73.0895V386.16H74.5455V384.4ZM74.5455 387.392H73.0895V396H74.5455V387.392ZM77.2711 385.232V387.392H75.9111V388.56H77.2711V393.84C77.2711 395.632 77.6551 396 79.3031 396H80.3591V394.784H79.6231C78.7911 394.784 78.7271 394.56 78.7271 393.664V388.56H80.3591V387.392H78.7271V385.232H77.2711ZM83.6705 388.688V384.4H82.2145V396H83.6705V391.328C83.6705 389.488 84.5345 388.512 85.9425 388.512C87.6065 388.512 87.8305 389.664 87.8305 390.992V396H89.2865V390.56C89.2865 388.592 88.5345 387.248 86.4545 387.248C84.9985 387.248 84.1665 387.872 83.6705 388.688ZM96.2374 392.176H102.861C103.053 389.456 101.469 387.248 98.8454 387.248C96.4934 387.248 94.6694 388.992 94.6694 391.712C94.6694 394.256 96.1734 396.208 98.8934 396.208C100.989 396.208 102.349 394.992 102.749 393.504H101.245C100.877 394.352 100.173 394.928 98.8934 394.928C97.6134 394.928 96.3014 394.032 96.2374 392.176ZM96.2534 390.928C96.3814 389.2 97.5494 388.496 98.8454 388.496C100.381 388.496 101.293 389.712 101.325 390.928H96.2534ZM106.014 396V391.328C106.014 389.488 106.846 388.512 108.094 388.512C109.678 388.512 109.934 389.664 109.934 390.992V396H111.39V391.328C111.39 389.488 112.222 388.512 113.47 388.512C115.054 388.512 115.31 389.664 115.31 390.992V396H116.766V390.56C116.766 388.592 115.982 387.248 113.982 387.248C112.782 387.248 111.774 387.712 111.086 388.768C110.702 387.824 109.918 387.248 108.606 387.248C107.31 387.248 106.51 387.872 106.014 388.688V387.392H104.558V396H106.014ZM120.405 387.392H118.949V398.8H120.405V394.704C120.933 395.616 121.845 396.208 123.221 396.208C125.189 396.208 126.901 394.576 126.901 391.728C126.901 388.896 125.189 387.248 123.221 387.248C121.845 387.248 120.933 387.84 120.405 388.752V387.392ZM122.853 394.96C121.557 394.96 120.341 394 120.341 391.728C120.341 389.456 121.557 388.496 122.853 388.496C124.341 388.496 125.317 389.68 125.317 391.728C125.317 393.776 124.341 394.96 122.853 394.96ZM130.061 396V384.4H128.605V396H130.061ZM140.067 391.728C140.067 388.608 137.939 387.248 135.939 387.248C133.939 387.248 131.811 388.608 131.811 391.728C131.811 394.848 133.939 396.208 135.939 396.208C137.939 396.208 140.067 394.848 140.067 391.728ZM135.939 394.928C134.627 394.928 133.363 394.016 133.363 391.728C133.363 389.376 134.627 388.528 135.939 388.528C137.251 388.528 138.515 389.44 138.515 391.728C138.515 393.936 137.251 394.928 135.939 394.928ZM147.956 387.392H146.436L144.308 394.032L142.116 387.392H140.5L143.604 396L143.54 396.176C143.156 397.52 142.692 397.584 141.732 397.584H141.14V398.8H141.892C143.812 398.8 144.26 398.24 144.884 396.368L147.956 387.392ZM149.925 392.176H156.549C156.741 389.456 155.157 387.248 152.533 387.248C150.181 387.248 148.357 388.992 148.357 391.712C148.357 394.256 149.861 396.208 152.581 396.208C154.677 396.208 156.037 394.992 156.437 393.504H154.933C154.565 394.352 153.861 394.928 152.581 394.928C151.301 394.928 149.989 394.032 149.925 392.176ZM149.941 390.928C150.069 389.2 151.237 388.496 152.533 388.496C154.069 388.496 154.981 389.712 155.013 390.928H149.941ZM162.534 388.912V387.36C162.374 387.344 162.246 387.344 162.102 387.344C160.982 387.376 160.102 387.92 159.67 388.896V387.392H158.246V396H159.702V391.488C159.702 389.6 160.374 388.848 161.718 388.848C161.958 388.848 162.23 388.88 162.534 388.912ZM168.783 389.904H170.303C170.031 388.272 168.767 387.232 166.911 387.232C165.007 387.232 163.471 388.112 163.471 389.632C163.471 391.232 164.751 391.776 165.919 392.016L167.199 392.272C168.127 392.464 168.943 392.832 168.943 393.696C168.943 394.496 168.047 394.976 166.943 394.976C165.663 394.976 164.975 394.32 164.751 393.216H163.215C163.375 394.72 164.655 396.208 166.911 396.208C168.879 396.208 170.415 395.232 170.415 393.536C170.415 391.872 169.039 391.28 167.471 390.976L166.255 390.736C165.423 390.576 164.943 390.256 164.943 389.568C164.943 388.784 165.903 388.48 166.751 388.48C167.759 388.48 168.559 388.88 168.783 389.904Z" fill="black"/>
<rect x="410" y="391.908" width="127" height="8" fill="#F3E02B"/>
<path d="M391.32 267.64C376.08 267.64 366.12 275.92 363.36 286.96C363.24 285.88 363.24 284.68 363.24 283C363.24 260.2 375.12 247.24 393.72 247.24C403.32 247.24 411.84 250.84 416.04 254.56V246.76C409.8 242.68 401.88 240.4 393.48 240.4C371.28 240.4 355.8 256.24 355.8 285.52C355.8 313.12 370.56 324.04 388.2 324.04C407.04 324.04 420.12 311.32 420.12 294.76C420.12 279.04 408.84 267.64 391.32 267.64ZM388.2 317.32C374.52 317.32 364.32 307.48 364.32 295.12C364.32 283.24 374.16 273.64 388.8 273.64C402.96 273.64 412.44 282.52 412.44 295.12C412.44 308.2 401.88 317.32 388.2 317.32ZM431.542 242.08V248.68H480.502L435.142 322H443.782L488.302 248.68V242.08H431.542ZM503.457 305.86C509.997 305.86 514.137 300.64 514.137 293.02C514.137 285.28 509.937 280 503.457 280C497.037 280 492.837 285.28 492.837 292.96C492.837 300.7 496.977 305.86 503.457 305.86ZM506.637 322H511.797L530.817 282.1H525.717L506.637 322ZM503.457 301.78C499.797 301.78 497.637 298.18 497.637 292.96C497.637 287.8 499.857 284.08 503.457 284.08C507.177 284.08 509.337 287.8 509.337 293.02C509.337 298.12 507.177 301.78 503.457 301.78ZM534.657 322.54C541.197 322.54 545.337 317.32 545.337 309.7C545.337 301.96 541.137 296.68 534.657 296.68C528.237 296.68 524.037 301.96 524.037 309.64C524.037 317.38 528.177 322.54 534.657 322.54ZM534.657 318.46C530.997 318.46 528.837 314.86 528.837 309.64C528.837 304.48 531.057 300.76 534.657 300.76C538.377 300.76 540.537 304.48 540.537 309.7C540.537 314.8 538.377 318.46 534.657 318.46Z" fill="black"/>
<path d="M349.968 360.4H348.176L352.16 372H354.112L358.048 360.4H356.336L353.184 370.32L349.968 360.4ZM360.577 360.4H359.121V362.16H360.577V360.4ZM360.577 363.392H359.121V372H360.577V363.392ZM367.174 364.912V363.36C367.014 363.344 366.886 363.344 366.742 363.344C365.622 363.376 364.742 363.92 364.31 364.896V363.392H362.886V372H364.342V367.488C364.342 365.6 365.014 364.848 366.358 364.848C366.598 364.848 366.87 364.88 367.174 364.912ZM368.99 361.232V363.392H367.63V364.56H368.99V369.84C368.99 371.632 369.374 372 371.022 372H372.078V370.784H371.342C370.51 370.784 370.446 370.56 370.446 369.664V364.56H372.078V363.392H370.446V361.232H368.99ZM379.105 370.768V372H380.561V363.392H379.105V368.128C379.105 369.968 378.289 370.944 376.913 370.944C375.329 370.944 375.105 369.792 375.105 368.464V363.392H373.649V368.896C373.649 370.864 374.401 372.208 376.401 372.208C377.825 372.208 378.609 371.584 379.105 370.768ZM382.359 369.728C382.359 371.312 383.703 372.208 385.319 372.208C386.839 372.208 387.735 371.696 388.263 370.816C388.279 371.328 388.327 371.68 388.375 372H389.847C389.687 371.184 389.607 370.192 389.623 368.752L389.639 366.768C389.655 364.352 388.583 363.216 386.215 363.216C384.535 363.216 382.903 364.256 382.759 366.112H384.263C384.327 365.056 385.031 364.4 386.231 364.4C387.303 364.4 388.183 364.928 388.183 366.496V366.704C384.647 367.104 382.359 367.696 382.359 369.728ZM388.295 367.856V368.4C388.295 370.432 386.999 371.056 385.639 371.056C384.599 371.056 383.975 370.512 383.975 369.696C383.975 368.512 385.655 368.128 388.295 367.856ZM393.264 372V360.4H391.808V372H393.264ZM400.827 372V367.328C400.827 365.488 401.659 364.512 402.907 364.512C404.491 364.512 404.747 365.664 404.747 366.992V372H406.203V367.328C406.203 365.488 407.035 364.512 408.283 364.512C409.867 364.512 410.123 365.664 410.123 366.992V372H411.579V366.56C411.579 364.592 410.795 363.248 408.795 363.248C407.595 363.248 406.587 363.712 405.899 364.768C405.515 363.824 404.731 363.248 403.419 363.248C402.123 363.248 401.323 363.872 400.827 364.688V363.392H399.371V372H400.827ZM413.249 369.728C413.249 371.312 414.593 372.208 416.209 372.208C417.729 372.208 418.625 371.696 419.153 370.816C419.169 371.328 419.217 371.68 419.265 372H420.737C420.577 371.184 420.497 370.192 420.513 368.752L420.529 366.768C420.545 364.352 419.473 363.216 417.105 363.216C415.425 363.216 413.793 364.256 413.649 366.112H415.153C415.217 365.056 415.921 364.4 417.121 364.4C418.193 364.4 419.073 364.928 419.073 366.496V366.704C415.537 367.104 413.249 367.696 413.249 369.728ZM419.185 367.856V368.4C419.185 370.432 417.889 371.056 416.529 371.056C415.489 371.056 414.865 370.512 414.865 369.696C414.865 368.512 416.545 368.128 419.185 367.856ZM428.603 360.4V364.752C428.075 363.84 427.163 363.248 425.787 363.248C423.819 363.248 422.107 364.896 422.107 367.728C422.107 370.576 423.819 372.208 425.787 372.208C427.163 372.208 428.075 371.616 428.603 370.704V372H430.059V360.4H428.603ZM426.155 364.496C427.451 364.496 428.667 365.456 428.667 367.728C428.667 370 427.451 370.96 426.155 370.96C424.667 370.96 423.691 369.776 423.691 367.728C423.691 365.68 424.667 364.496 426.155 364.496ZM433.331 368.176H439.955C440.147 365.456 438.563 363.248 435.939 363.248C433.587 363.248 431.763 364.992 431.763 367.712C431.763 370.256 433.267 372.208 435.987 372.208C438.083 372.208 439.443 370.992 439.843 369.504H438.339C437.971 370.352 437.267 370.928 435.987 370.928C434.707 370.928 433.395 370.032 433.331 368.176ZM433.347 366.928C433.475 365.2 434.643 364.496 435.939 364.496C437.475 364.496 438.387 365.712 438.419 366.928H433.347ZM445.865 361.232V363.392H444.505V364.56H445.865V369.84C445.865 371.632 446.249 372 447.897 372H448.953V370.784H448.217C447.385 370.784 447.321 370.56 447.321 369.664V364.56H448.953V363.392H447.321V361.232H445.865ZM452.264 364.688V360.4H450.808V372H452.264V367.328C452.264 365.488 453.128 364.512 454.536 364.512C456.2 364.512 456.424 365.664 456.424 366.992V372H457.88V366.56C457.88 364.592 457.128 363.248 455.048 363.248C453.592 363.248 452.76 363.872 452.264 364.688ZM461.034 368.176H467.658C467.85 365.456 466.266 363.248 463.642 363.248C461.29 363.248 459.466 364.992 459.466 367.712C459.466 370.256 460.97 372.208 463.69 372.208C465.786 372.208 467.146 370.992 467.546 369.504H466.042C465.674 370.352 464.97 370.928 463.69 370.928C462.41 370.928 461.098 370.032 461.034 368.176ZM461.05 366.928C461.178 365.2 462.346 364.496 463.642 364.496C465.178 364.496 466.09 365.712 466.122 366.928H461.05ZM474.608 360.4H473.152V362.16H474.608V360.4ZM473.152 363.392V372.464C473.152 373.36 473.008 373.584 472.256 373.584H471.84V374.8H472.576C474.24 374.8 474.608 374.224 474.608 372.432V363.392H473.152ZM484.614 367.728C484.614 364.608 482.486 363.248 480.486 363.248C478.486 363.248 476.358 364.608 476.358 367.728C476.358 370.848 478.486 372.208 480.486 372.208C482.486 372.208 484.614 370.848 484.614 367.728ZM480.486 370.928C479.174 370.928 477.91 370.016 477.91 367.728C477.91 365.376 479.174 364.528 480.486 364.528C481.798 364.528 483.062 365.44 483.062 367.728C483.062 369.936 481.798 370.928 480.486 370.928ZM487.811 360.4H486.355V372H487.811V370.704C488.339 371.616 489.251 372.208 490.627 372.208C492.595 372.208 494.307 370.576 494.307 367.728C494.307 364.896 492.595 363.248 490.627 363.248C489.251 363.248 488.339 363.84 487.811 364.752V360.4ZM490.259 370.96C488.963 370.96 487.747 370 487.747 367.728C487.747 365.456 488.963 364.496 490.259 364.496C491.747 364.496 492.723 365.68 492.723 367.728C492.723 369.776 491.747 370.96 490.259 370.96ZM504.689 365.904H506.209C505.937 364.272 504.673 363.232 502.817 363.232C500.913 363.232 499.377 364.112 499.377 365.632C499.377 367.232 500.657 367.776 501.825 368.016L503.105 368.272C504.033 368.464 504.849 368.832 504.849 369.696C504.849 370.496 503.953 370.976 502.849 370.976C501.569 370.976 500.881 370.32 500.657 369.216H499.121C499.281 370.72 500.561 372.208 502.817 372.208C504.785 372.208 506.321 371.232 506.321 369.536C506.321 367.872 504.945 367.28 503.377 366.976L502.161 366.736C501.329 366.576 500.849 366.256 500.849 365.568C500.849 364.784 501.809 364.48 502.657 364.48C503.665 364.48 504.465 364.88 504.689 365.904ZM509.144 368.176H515.768C515.96 365.456 514.376 363.248 511.752 363.248C509.4 363.248 507.576 364.992 507.576 367.712C507.576 370.256 509.08 372.208 511.8 372.208C513.896 372.208 515.256 370.992 515.656 369.504H514.152C513.784 370.352 513.08 370.928 511.8 370.928C510.52 370.928 509.208 370.032 509.144 368.176ZM509.16 366.928C509.288 365.2 510.456 364.496 511.752 364.496C513.288 364.496 514.2 365.712 514.232 366.928H509.16ZM516.874 369.728C516.874 371.312 518.218 372.208 519.834 372.208C521.354 372.208 522.25 371.696 522.778 370.816C522.794 371.328 522.842 371.68 522.89 372H524.362C524.202 371.184 524.122 370.192 524.138 368.752L524.154 366.768C524.17 364.352 523.098 363.216 520.73 363.216C519.05 363.216 517.418 364.256 517.274 366.112H518.778C518.842 365.056 519.546 364.4 520.746 364.4C521.818 364.4 522.698 364.928 522.698 366.496V366.704C519.162 367.104 516.874 367.696 516.874 369.728ZM522.81 367.856V368.4C522.81 370.432 521.514 371.056 520.154 371.056C519.114 371.056 518.49 370.512 518.49 369.696C518.49 368.512 520.17 368.128 522.81 367.856ZM530.612 364.912V363.36C530.452 363.344 530.324 363.344 530.18 363.344C529.06 363.376 528.18 363.92 527.748 364.896V363.392H526.324V372H527.78V367.488C527.78 365.6 528.452 364.848 529.796 364.848C530.036 364.848 530.308 364.88 530.612 364.912ZM539.023 366.272C538.831 364.816 537.503 363.248 535.423 363.248C532.879 363.248 531.263 365.152 531.263 367.712C531.263 370.336 532.815 372.208 535.279 372.208C537.279 372.208 538.831 370.816 539.119 369.2H537.615C537.407 370.112 536.543 370.928 535.327 370.928C534.047 370.928 532.847 369.888 532.847 367.696C532.847 365.536 534.031 364.528 535.327 364.528C536.447 364.528 537.343 365.248 537.551 366.272H539.023ZM542.217 364.688V360.4H540.761V372H542.217V367.328C542.217 365.488 543.081 364.512 544.489 364.512C546.153 364.512 546.377 365.664 546.377 366.992V372H547.833V366.56C547.833 364.592 547.081 363.248 545.001 363.248C543.545 363.248 542.713 363.872 542.217 364.688ZM350.608 387.392H349.152V398.8H350.608V394.704C351.136 395.616 352.048 396.208 353.424 396.208C355.392 396.208 357.104 394.576 357.104 391.728C357.104 388.896 355.392 387.248 353.424 387.248C352.048 387.248 351.136 387.84 350.608 388.752V387.392ZM353.056 394.96C351.76 394.96 350.544 394 350.544 391.728C350.544 389.456 351.76 388.496 353.056 388.496C354.544 388.496 355.52 389.68 355.52 391.728C355.52 393.776 354.544 394.96 353.056 394.96ZM363.096 388.912V387.36C362.936 387.344 362.808 387.344 362.664 387.344C361.544 387.376 360.664 387.92 360.232 388.896V387.392H358.808V396H360.264V391.488C360.264 389.6 360.936 388.848 362.28 388.848C362.52 388.848 362.792 388.88 363.096 388.912ZM372.036 391.728C372.036 388.608 369.908 387.248 367.908 387.248C365.908 387.248 363.78 388.608 363.78 391.728C363.78 394.848 365.908 396.208 367.908 396.208C369.908 396.208 372.036 394.848 372.036 391.728ZM367.908 394.928C366.596 394.928 365.332 394.016 365.332 391.728C365.332 389.376 366.596 388.528 367.908 388.528C369.22 388.528 370.484 389.44 370.484 391.728C370.484 393.936 369.22 394.928 367.908 394.928ZM381.07 390.272C380.878 388.816 379.55 387.248 377.47 387.248C374.926 387.248 373.31 389.152 373.31 391.712C373.31 394.336 374.862 396.208 377.326 396.208C379.326 396.208 380.878 394.816 381.166 393.2H379.662C379.454 394.112 378.59 394.928 377.374 394.928C376.094 394.928 374.894 393.888 374.894 391.696C374.894 389.536 376.078 388.528 377.374 388.528C378.494 388.528 379.39 389.248 379.598 390.272H381.07ZM383.862 392.176H390.486C390.678 389.456 389.094 387.248 386.47 387.248C384.118 387.248 382.294 388.992 382.294 391.712C382.294 394.256 383.798 396.208 386.518 396.208C388.614 396.208 389.974 394.992 390.374 393.504H388.87C388.502 394.352 387.798 394.928 386.518 394.928C385.238 394.928 383.926 394.032 383.862 392.176ZM383.878 390.928C384.006 389.2 385.174 388.496 386.47 388.496C388.006 388.496 388.918 389.712 388.95 390.928H383.878ZM397.143 389.904H398.663C398.391 388.272 397.127 387.232 395.271 387.232C393.367 387.232 391.831 388.112 391.831 389.632C391.831 391.232 393.111 391.776 394.279 392.016L395.559 392.272C396.487 392.464 397.303 392.832 397.303 393.696C397.303 394.496 396.407 394.976 395.303 394.976C394.023 394.976 393.335 394.32 393.111 393.216H391.575C391.735 394.72 393.015 396.208 395.271 396.208C397.239 396.208 398.775 395.232 398.775 393.536C398.775 391.872 397.399 391.28 395.831 390.976L394.615 390.736C393.783 390.576 393.303 390.256 393.303 389.568C393.303 388.784 394.263 388.48 395.111 388.48C396.119 388.48 396.919 388.88 397.143 389.904ZM405.549 389.904H407.069C406.797 388.272 405.533 387.232 403.677 387.232C401.773 387.232 400.237 388.112 400.237 389.632C400.237 391.232 401.517 391.776 402.685 392.016L403.965 392.272C404.893 392.464 405.709 392.832 405.709 393.696C405.709 394.496 404.813 394.976 403.709 394.976C402.429 394.976 401.741 394.32 401.517 393.216H399.981C400.141 394.72 401.421 396.208 403.677 396.208C405.645 396.208 407.181 395.232 407.181 393.536C407.181 391.872 405.805 391.28 404.237 390.976L403.021 390.736C402.189 390.576 401.709 390.256 401.709 389.568C401.709 388.784 402.669 388.48 403.517 388.48C404.525 388.48 405.325 388.88 405.549 389.904ZM414.28 396V391.328C414.28 389.488 415.112 388.512 416.36 388.512C417.944 388.512 418.2 389.664 418.2 390.992V396H419.656V391.328C419.656 389.488 420.488 388.512 421.736 388.512C423.32 388.512 423.576 389.664 423.576 390.992V396H425.032V390.56C425.032 388.592 424.248 387.248 422.248 387.248C421.048 387.248 420.04 387.712 419.352 388.768C418.968 387.824 418.184 387.248 416.872 387.248C415.576 387.248 414.776 387.872 414.28 388.688V387.392H412.824V396H414.28ZM434.911 391.728C434.911 388.608 432.783 387.248 430.783 387.248C428.783 387.248 426.655 388.608 426.655 391.728C426.655 394.848 428.783 396.208 430.783 396.208C432.783 396.208 434.911 394.848 434.911 391.728ZM430.783 394.928C429.471 394.928 428.207 394.016 428.207 391.728C428.207 389.376 429.471 388.528 430.783 388.528C432.095 388.528 433.359 389.44 433.359 391.728C433.359 393.936 432.095 394.928 430.783 394.928ZM440.94 388.912V387.36C440.78 387.344 440.652 387.344 440.508 387.344C439.388 387.376 438.508 387.92 438.076 388.896V387.392H436.652V396H438.108V391.488C438.108 389.6 438.78 388.848 440.124 388.848C440.364 388.848 440.636 388.88 440.94 388.912ZM443.159 392.176H449.783C449.975 389.456 448.391 387.248 445.767 387.248C443.415 387.248 441.591 388.992 441.591 391.712C441.591 394.256 443.095 396.208 445.815 396.208C447.911 396.208 449.271 394.992 449.671 393.504H448.167C447.799 394.352 447.095 394.928 445.815 394.928C444.535 394.928 443.223 394.032 443.159 392.176ZM443.175 390.928C443.303 389.2 444.471 388.496 445.767 388.496C447.303 388.496 448.215 389.712 448.247 390.928H443.175ZM462.445 390.272C462.253 388.816 460.925 387.248 458.845 387.248C456.301 387.248 454.685 389.152 454.685 391.712C454.685 394.336 456.237 396.208 458.701 396.208C460.701 396.208 462.253 394.816 462.541 393.2H461.037C460.829 394.112 459.965 394.928 458.749 394.928C457.469 394.928 456.269 393.888 456.269 391.696C456.269 389.536 457.453 388.528 458.749 388.528C459.869 388.528 460.765 389.248 460.973 390.272H462.445ZM471.957 391.728C471.957 388.608 469.829 387.248 467.829 387.248C465.829 387.248 463.701 388.608 463.701 391.728C463.701 394.848 465.829 396.208 467.829 396.208C469.829 396.208 471.957 394.848 471.957 391.728ZM467.829 394.928C466.517 394.928 465.253 394.016 465.253 391.728C465.253 389.376 466.517 388.528 467.829 388.528C469.141 388.528 470.405 389.44 470.405 391.728C470.405 393.936 469.141 394.928 467.829 394.928ZM475.155 388.688V387.392H473.699V396H475.155V391.328C475.155 389.488 476.019 388.512 477.427 388.512C479.091 388.512 479.315 389.664 479.315 390.992V396H480.771V390.56C480.771 388.592 480.019 387.248 477.939 387.248C476.483 387.248 475.651 387.872 475.155 388.688ZM485.671 393.984L483.335 387.392H481.719L484.967 396H486.263L489.511 387.392H488.007L485.671 393.984ZM491.487 392.176H498.111C498.303 389.456 496.719 387.248 494.095 387.248C491.743 387.248 489.919 388.992 489.919 391.712C489.919 394.256 491.423 396.208 494.143 396.208C496.239 396.208 497.599 394.992 497.999 393.504H496.495C496.127 394.352 495.423 394.928 494.143 394.928C492.863 394.928 491.551 394.032 491.487 392.176ZM491.503 390.928C491.631 389.2 492.799 388.496 494.095 388.496C495.631 388.496 496.543 389.712 496.575 390.928H491.503ZM501.264 388.688V387.392H499.808V396H501.264V391.328C501.264 389.488 502.128 388.512 503.536 388.512C505.2 388.512 505.424 389.664 505.424 390.992V396H506.88V390.56C506.88 388.592 506.128 387.248 504.048 387.248C502.592 387.248 501.76 387.872 501.264 388.688ZM510.514 384.4H509.058V386.16H510.514V384.4ZM510.514 387.392H509.058V396H510.514V387.392ZM513.8 392.176H520.424C520.616 389.456 519.032 387.248 516.408 387.248C514.056 387.248 512.232 388.992 512.232 391.712C512.232 394.256 513.736 396.208 516.456 396.208C518.552 396.208 519.912 394.992 520.312 393.504H518.808C518.44 394.352 517.736 394.928 516.456 394.928C515.176 394.928 513.864 394.032 513.8 392.176ZM513.816 390.928C513.944 389.2 515.112 388.496 516.408 388.496C517.944 388.496 518.856 389.712 518.888 390.928H513.816ZM523.577 388.688V387.392H522.121V396H523.577V391.328C523.577 389.488 524.441 388.512 525.849 388.512C527.513 388.512 527.737 389.664 527.737 390.992V396H529.193V390.56C529.193 388.592 528.441 387.248 526.361 387.248C524.905 387.248 524.073 387.872 523.577 388.688ZM531.787 385.232V387.392H530.427V388.56H531.787V393.84C531.787 395.632 532.171 396 533.819 396H534.875V394.784H534.139C533.307 394.784 533.243 394.56 533.243 393.664V388.56H534.875V387.392H533.243V385.232H531.787Z" fill="black"/>
<line y1="206.5" x2="620" y2="206.5" stroke="#C4C4C4"/>
<line x1="309.5" y1="400" x2="309.5" y2="15" stroke="#C4C4C4"/>
<path d="M2.282 437.602V436.468H1.008V444H2.282V439.912C2.282 438.302 3.038 437.448 4.27 437.448C5.726 437.448 5.922 438.456 5.922 439.618V444H7.196V439.24C7.196 437.518 6.538 436.342 4.718 436.342C3.444 436.342 2.716 436.888 2.282 437.602ZM9.33975 439.352H16.3538V438.134H9.33975V439.352ZM9.33975 442.18H16.3538V440.976H9.33975V442.18ZM20.102 444H21.376V433.85H20.508C19.948 434.956 19.206 435.138 17.75 435.194V436.062H20.102V444ZM23.6463 442.39V444H24.3323L23.5903 445.946H24.4023L25.2563 444.112V442.39H23.6463ZM27.5954 438.652C27.6654 436.3 28.5194 434.732 30.0874 434.732C31.1234 434.732 31.8234 435.292 31.9914 436.202H33.3774C33.1674 434.914 32.2294 433.668 30.2414 433.668C27.3014 433.668 26.2794 436.412 26.2794 439.282C26.2794 442.418 27.4414 444.182 29.9754 444.182C32.1454 444.182 33.5454 442.572 33.5454 440.682C33.5454 438.652 32.1594 437.238 30.2694 437.238C28.9254 437.238 28.0574 437.854 27.5954 438.652ZM29.9614 443.118C28.6174 443.118 27.7494 442.152 27.7494 440.752C27.7494 439.366 28.6454 438.344 29.9754 438.344C31.2774 438.344 32.1874 439.366 32.1874 440.752C32.1874 442.138 31.2634 443.118 29.9614 443.118ZM34.3747 433.85V435.04H39.9187C37.3987 437.224 35.7887 440.36 35.5647 444H37.1047C37.3427 440.206 38.8967 437.07 41.4027 435.04V433.85H34.3747ZM48.8464 436.328C48.8464 434.62 47.5024 433.668 45.6264 433.668C43.4704 433.668 42.0704 434.998 42.0984 437.014H43.4144C43.4424 435.334 44.5064 434.732 45.5984 434.732C46.8024 434.732 47.5024 435.446 47.5024 436.496C47.5024 438.288 45.4024 440.206 41.8184 442.852V444H49.1264V442.81H43.5544C46.3964 440.766 48.8464 438.68 48.8464 436.328ZM56.6185 433.85C55.7645 435.068 54.6865 437.308 54.6865 440.15C54.6865 442.978 55.7645 445.232 56.6185 446.45H57.6685C56.7445 444.952 56.0025 442.782 56.0025 440.15C56.0025 437.504 56.7445 435.348 57.6685 433.85H56.6185ZM62.9902 438.666H64.3202C64.0822 437.238 62.9762 436.328 61.3522 436.328C59.6862 436.328 58.3422 437.098 58.3422 438.428C58.3422 439.828 59.4622 440.304 60.4842 440.514L61.6042 440.738C62.4162 440.906 63.1302 441.228 63.1302 441.984C63.1302 442.684 62.3462 443.104 61.3802 443.104C60.2602 443.104 59.6582 442.53 59.4622 441.564H58.1182C58.2582 442.88 59.3782 444.182 61.3522 444.182C63.0742 444.182 64.4182 443.328 64.4182 441.844C64.4182 440.388 63.2142 439.87 61.8422 439.604L60.7782 439.394C60.0502 439.254 59.6302 438.974 59.6302 438.372C59.6302 437.686 60.4702 437.42 61.2122 437.42C62.0942 437.42 62.7942 437.77 62.9902 438.666ZM70.6956 442.922V444H71.9696V436.468H70.6956V440.612C70.6956 442.222 69.9816 443.076 68.7776 443.076C67.3916 443.076 67.1956 442.068 67.1956 440.906V436.468H65.9216V441.284C65.9216 443.006 66.5796 444.182 68.3296 444.182C69.5756 444.182 70.2616 443.636 70.6956 442.922ZM75.2647 433.85H73.9907V444H75.2647V442.866C75.7267 443.664 76.5247 444.182 77.7287 444.182C79.4507 444.182 80.9487 442.754 80.9487 440.262C80.9487 437.784 79.4507 436.342 77.7287 436.342C76.5247 436.342 75.7267 436.86 75.2647 437.658V433.85ZM77.4067 443.09C76.2727 443.09 75.2087 442.25 75.2087 440.262C75.2087 438.274 76.2727 437.434 77.4067 437.434C78.7087 437.434 79.5627 438.47 79.5627 440.262C79.5627 442.054 78.7087 443.09 77.4067 443.09ZM86.7109 438.666H88.0409C87.8029 437.238 86.6969 436.328 85.0729 436.328C83.4069 436.328 82.0629 437.098 82.0629 438.428C82.0629 439.828 83.1829 440.304 84.2049 440.514L85.3249 440.738C86.1369 440.906 86.8509 441.228 86.8509 441.984C86.8509 442.684 86.0669 443.104 85.1009 443.104C83.9809 443.104 83.3789 442.53 83.1829 441.564H81.8389C81.9789 442.88 83.0989 444.182 85.0729 444.182C86.7949 444.182 88.1389 443.328 88.1389 441.844C88.1389 440.388 86.9349 439.87 85.5629 439.604L84.4989 439.394C83.7709 439.254 83.3509 438.974 83.3509 438.372C83.3509 437.686 84.1909 437.42 84.9329 437.42C85.8149 437.42 86.5149 437.77 86.7109 438.666ZM90.6083 440.654H96.4043C96.5723 438.274 95.1863 436.342 92.8903 436.342C90.8323 436.342 89.2363 437.868 89.2363 440.248C89.2363 442.474 90.5523 444.182 92.9323 444.182C94.7663 444.182 95.9563 443.118 96.3063 441.816H94.9903C94.6683 442.558 94.0523 443.062 92.9323 443.062C91.8123 443.062 90.6643 442.278 90.6083 440.654ZM90.6223 439.562C90.7343 438.05 91.7563 437.434 92.8903 437.434C94.2343 437.434 95.0323 438.498 95.0603 439.562H90.6223ZM98.2531 434.578V436.468H97.0631V437.49H98.2531V442.11C98.2531 443.678 98.5891 444 100.031 444H100.955V442.936H100.311C99.5831 442.936 99.5271 442.74 99.5271 441.956V437.49H100.955V436.468H99.5271V434.578H98.2531ZM112.498 440.262C112.498 437.532 110.636 436.342 108.886 436.342C107.136 436.342 105.274 437.532 105.274 440.262C105.274 442.992 107.136 444.182 108.886 444.182C110.636 444.182 112.498 442.992 112.498 440.262ZM108.886 443.062C107.738 443.062 106.632 442.264 106.632 440.262C106.632 438.204 107.738 437.462 108.886 437.462C110.034 437.462 111.14 438.26 111.14 440.262C111.14 442.194 110.034 443.062 108.886 443.062ZM114.412 435.922V436.468H113.362V437.49H114.412V444H115.686V437.49H117.1V436.468H115.686V435.852C115.686 435.068 115.798 434.914 116.47 434.914H117.1V433.85H116.442C114.734 433.85 114.412 434.354 114.412 435.922ZM126.225 444H127.737L130.537 435.152V444H131.965V433.85H129.571L126.981 442.306L124.391 433.85H121.997V444H123.425V435.152L126.225 444ZM133.726 442.012C133.726 443.398 134.902 444.182 136.316 444.182C137.646 444.182 138.43 443.734 138.892 442.964C138.906 443.412 138.948 443.72 138.99 444H140.278C140.138 443.286 140.068 442.418 140.082 441.158L140.096 439.422C140.11 437.308 139.172 436.314 137.1 436.314C135.63 436.314 134.202 437.224 134.076 438.848H135.392C135.448 437.924 136.064 437.35 137.114 437.35C138.052 437.35 138.822 437.812 138.822 439.184V439.366C135.728 439.716 133.726 440.234 133.726 442.012ZM138.92 440.374V440.85C138.92 442.628 137.786 443.174 136.596 443.174C135.686 443.174 135.14 442.698 135.14 441.984C135.14 440.948 136.61 440.612 138.92 440.374ZM147.442 436.468H146.112L144.25 442.278L142.332 436.468H140.918L143.634 444L143.578 444.154C143.242 445.33 142.836 445.386 141.996 445.386H141.478V446.45H142.136C143.816 446.45 144.208 445.96 144.754 444.322L147.442 436.468ZM158.21 436.328C158.21 434.62 156.866 433.668 154.99 433.668C152.834 433.668 151.434 434.998 151.462 437.014H152.778C152.806 435.334 153.87 434.732 154.962 434.732C156.166 434.732 156.866 435.446 156.866 436.496C156.866 438.288 154.766 440.206 151.182 442.852V444H158.49V442.81H152.918C155.76 440.766 158.21 438.68 158.21 436.328ZM163.64 444.182C166.342 444.182 167.588 442.138 167.588 438.918C167.588 435.712 166.342 433.668 163.64 433.668C160.938 433.668 159.692 435.712 159.692 438.918C159.692 442.138 160.938 444.182 163.64 444.182ZM163.64 434.732C165.236 434.732 166.23 436.104 166.23 438.918C166.23 441.746 165.236 443.118 163.64 443.118C162.044 443.118 161.05 441.746 161.05 438.918C161.05 436.104 162.044 434.732 163.64 434.732ZM175.724 436.328C175.724 434.62 174.38 433.668 172.504 433.668C170.348 433.668 168.948 434.998 168.976 437.014H170.292C170.32 435.334 171.384 434.732 172.476 434.732C173.68 434.732 174.38 435.446 174.38 436.496C174.38 438.288 172.28 440.206 168.696 442.852V444H176.004V442.81H170.432C173.274 440.766 175.724 438.68 175.724 436.328ZM179.053 444H180.327V433.85H179.459C178.899 434.956 178.157 435.138 176.701 435.194V436.062H179.053V444ZM190.33 438.666H191.66C191.422 437.238 190.316 436.328 188.692 436.328C187.026 436.328 185.682 437.098 185.682 438.428C185.682 439.828 186.802 440.304 187.824 440.514L188.944 440.738C189.756 440.906 190.47 441.228 190.47 441.984C190.47 442.684 189.686 443.104 188.72 443.104C187.6 443.104 186.998 442.53 186.802 441.564H185.458C185.598 442.88 186.718 444.182 188.692 444.182C190.414 444.182 191.758 443.328 191.758 441.844C191.758 440.388 190.554 439.87 189.182 439.604L188.118 439.394C187.39 439.254 186.97 438.974 186.97 438.372C186.97 437.686 187.81 437.42 188.552 437.42C189.434 437.42 190.134 437.77 190.33 438.666ZM198.035 442.922V444H199.309V436.468H198.035V440.612C198.035 442.222 197.321 443.076 196.117 443.076C194.731 443.076 194.535 442.068 194.535 440.906V436.468H193.261V441.284C193.261 443.006 193.919 444.182 195.669 444.182C196.915 444.182 197.601 443.636 198.035 442.922ZM205.082 437.798V436.44C204.942 436.426 204.83 436.426 204.704 436.426C203.724 436.454 202.954 436.93 202.576 437.784V436.468H201.33V444H202.604V440.052C202.604 438.4 203.192 437.742 204.368 437.742C204.578 437.742 204.816 437.77 205.082 437.798ZM208.757 442.236L206.713 436.468H205.299L208.141 444H209.275L212.117 436.468H210.801L208.757 442.236ZM213.847 440.654H219.643C219.811 438.274 218.425 436.342 216.129 436.342C214.071 436.342 212.475 437.868 212.475 440.248C212.475 442.474 213.791 444.182 216.171 444.182C218.005 444.182 219.195 443.118 219.545 441.816H218.229C217.907 442.558 217.291 443.062 216.171 443.062C215.051 443.062 213.903 442.278 213.847 440.654ZM213.861 439.562C213.973 438.05 214.995 437.434 216.129 437.434C217.473 437.434 218.271 438.498 218.299 439.562H213.861ZM226.575 436.468H225.245L223.383 442.278L221.465 436.468H220.051L222.767 444L222.711 444.154C222.375 445.33 221.969 445.386 221.129 445.386H220.611V446.45H221.269C222.949 446.45 223.341 445.96 223.887 444.322L226.575 436.468ZM234.277 436.468L232.779 442.04L231.337 436.468H229.965L232.135 444H233.297L234.907 437.938L236.573 444H237.735L239.905 436.468H238.533L237.091 442.04L235.593 436.468H234.277ZM242.253 437.602V433.85H240.979V444H242.253V439.912C242.253 438.302 243.009 437.448 244.241 437.448C245.697 437.448 245.893 438.456 245.893 439.618V444H247.167V439.24C247.167 437.518 246.509 436.342 244.689 436.342C243.415 436.342 242.687 436.888 242.253 437.602ZM255.807 440.262C255.807 437.532 253.945 436.342 252.195 436.342C250.445 436.342 248.583 437.532 248.583 440.262C248.583 442.992 250.445 444.182 252.195 444.182C253.945 444.182 255.807 442.992 255.807 440.262ZM252.195 443.062C251.047 443.062 249.941 442.264 249.941 440.262C249.941 438.204 251.047 437.462 252.195 437.462C253.343 437.462 254.449 438.26 254.449 440.262C254.449 442.194 253.343 443.062 252.195 443.062ZM260.205 442.012C260.205 443.398 261.381 444.182 262.795 444.182C264.125 444.182 264.909 443.734 265.371 442.964C265.385 443.412 265.427 443.72 265.469 444H266.757C266.617 443.286 266.547 442.418 266.561 441.158L266.575 439.422C266.589 437.308 265.651 436.314 263.579 436.314C262.109 436.314 260.681 437.224 260.555 438.848H261.871C261.927 437.924 262.543 437.35 263.593 437.35C264.531 437.35 265.301 437.812 265.301 439.184V439.366C262.207 439.716 260.205 440.234 260.205 442.012ZM265.399 440.374V440.85C265.399 442.628 264.265 443.174 263.075 443.174C262.165 443.174 261.619 442.698 261.619 441.984C261.619 440.948 263.089 440.612 265.399 440.374ZM268.837 434.578V436.468H267.647V437.49H268.837V442.11C268.837 443.678 269.173 444 270.615 444H271.539V442.936H270.895C270.167 442.936 270.111 442.74 270.111 441.956V437.49H271.539V436.468H270.111V434.578H268.837ZM273.39 434.578V436.468H272.2V437.49H273.39V442.11C273.39 443.678 273.726 444 275.168 444H276.092V442.936H275.448C274.72 442.936 274.664 442.74 274.664 441.956V437.49H276.092V436.468H274.664V434.578H273.39ZM278.364 440.654H284.16C284.328 438.274 282.942 436.342 280.646 436.342C278.588 436.342 276.992 437.868 276.992 440.248C276.992 442.474 278.308 444.182 280.688 444.182C282.522 444.182 283.712 443.118 284.062 441.816H282.746C282.424 442.558 281.808 443.062 280.688 443.062C279.568 443.062 278.42 442.278 278.364 440.654ZM278.378 439.562C278.49 438.05 279.512 437.434 280.646 437.434C281.99 437.434 282.788 438.498 282.816 439.562H278.378ZM286.919 437.602V436.468H285.645V444H286.919V439.912C286.919 438.302 287.675 437.448 288.907 437.448C290.363 437.448 290.559 438.456 290.559 439.618V444H291.833V439.24C291.833 437.518 291.175 436.342 289.355 436.342C288.081 436.342 287.353 436.888 286.919 437.602ZM298.905 433.85V437.658C298.443 436.86 297.645 436.342 296.441 436.342C294.719 436.342 293.221 437.784 293.221 440.262C293.221 442.754 294.719 444.182 296.441 444.182C297.645 444.182 298.443 443.664 298.905 442.866V444H300.179V433.85H298.905ZM296.763 437.434C297.897 437.434 298.961 438.274 298.961 440.262C298.961 442.25 297.897 443.09 296.763 443.09C295.461 443.09 294.607 442.054 294.607 440.262C294.607 438.47 295.461 437.434 296.763 437.434ZM303.042 440.654H308.838C309.006 438.274 307.62 436.342 305.324 436.342C303.266 436.342 301.67 437.868 301.67 440.248C301.67 442.474 302.986 444.182 305.366 444.182C307.2 444.182 308.39 443.118 308.74 441.816H307.424C307.102 442.558 306.486 443.062 305.366 443.062C304.246 443.062 303.098 442.278 303.042 440.654ZM303.056 439.562C303.168 438.05 304.19 437.434 305.324 437.434C306.668 437.434 307.466 438.498 307.494 439.562H303.056ZM315.557 433.85V437.658C315.095 436.86 314.297 436.342 313.093 436.342C311.371 436.342 309.873 437.784 309.873 440.262C309.873 442.754 311.371 444.182 313.093 444.182C314.297 444.182 315.095 443.664 315.557 442.866V444H316.831V433.85H315.557ZM313.415 437.434C314.549 437.434 315.613 438.274 315.613 440.262C315.613 442.25 314.549 443.09 313.415 443.09C312.113 443.09 311.259 442.054 311.259 440.262C311.259 438.47 312.113 437.434 313.415 437.434ZM324.613 442.236L322.569 436.468H321.155L323.997 444H325.131L327.973 436.468H326.657L324.613 442.236ZM330.259 433.85H328.985V435.39H330.259V433.85ZM330.259 436.468H328.985V444H330.259V436.468ZM336.032 437.798V436.44C335.892 436.426 335.78 436.426 335.654 436.426C334.674 436.454 333.904 436.93 333.526 437.784V436.468H332.28V444H333.554V440.052C333.554 438.4 334.142 437.742 335.318 437.742C335.528 437.742 335.766 437.77 336.032 437.798ZM337.62 434.578V436.468H336.43V437.49H337.62V442.11C337.62 443.678 337.956 444 339.398 444H340.322V442.936H339.678C338.95 442.936 338.894 442.74 338.894 441.956V437.49H340.322V436.468H338.894V434.578H337.62ZM346.471 442.922V444H347.745V436.468H346.471V440.612C346.471 442.222 345.757 443.076 344.553 443.076C343.167 443.076 342.971 442.068 342.971 440.906V436.468H341.697V441.284C341.697 443.006 342.355 444.182 344.105 444.182C345.351 444.182 346.037 443.636 346.471 442.922ZM349.318 442.012C349.318 443.398 350.494 444.182 351.908 444.182C353.238 444.182 354.022 443.734 354.484 442.964C354.498 443.412 354.54 443.72 354.582 444H355.87C355.73 443.286 355.66 442.418 355.674 441.158L355.688 439.422C355.702 437.308 354.764 436.314 352.692 436.314C351.222 436.314 349.794 437.224 349.668 438.848H350.984C351.04 437.924 351.656 437.35 352.706 437.35C353.644 437.35 354.414 437.812 354.414 439.184V439.366C351.32 439.716 349.318 440.234 349.318 442.012ZM354.512 440.374V440.85C354.512 442.628 353.378 443.174 352.188 443.174C351.278 443.174 350.732 442.698 350.732 441.984C350.732 440.948 352.202 440.612 354.512 440.374ZM358.86 444V433.85H357.586V444H358.86ZM365.058 440.654H370.854C371.022 438.274 369.636 436.342 367.34 436.342C365.282 436.342 363.686 437.868 363.686 440.248C363.686 442.474 365.002 444.182 367.382 444.182C369.216 444.182 370.406 443.118 370.756 441.816H369.44C369.118 442.558 368.502 443.062 367.382 443.062C366.262 443.062 365.114 442.278 365.058 440.654ZM365.072 439.562C365.184 438.05 366.206 437.434 367.34 437.434C368.684 437.434 369.482 438.498 369.51 439.562H365.072ZM374.72 442.236L372.676 436.468H371.262L374.104 444H375.238L378.08 436.468H376.764L374.72 442.236ZM379.81 440.654H385.606C385.774 438.274 384.388 436.342 382.092 436.342C380.034 436.342 378.438 437.868 378.438 440.248C378.438 442.474 379.754 444.182 382.134 444.182C383.968 444.182 385.158 443.118 385.508 441.816H384.192C383.87 442.558 383.254 443.062 382.134 443.062C381.014 443.062 379.866 442.278 379.81 440.654ZM379.824 439.562C379.936 438.05 380.958 437.434 382.092 437.434C383.436 437.434 384.234 438.498 384.262 439.562H379.824ZM388.364 437.602V436.468H387.09V444H388.364V439.912C388.364 438.302 389.12 437.448 390.352 437.448C391.808 437.448 392.004 438.456 392.004 439.618V444H393.278V439.24C393.278 437.518 392.62 436.342 390.8 436.342C389.526 436.342 388.798 436.888 388.364 437.602ZM395.548 434.578V436.468H394.358V437.49H395.548V442.11C395.548 443.678 395.884 444 397.326 444H398.25V442.936H397.606C396.878 442.936 396.822 442.74 396.822 441.956V437.49H398.25V436.468H396.822V434.578H395.548ZM399.779 446.45C400.633 445.232 401.711 442.978 401.711 440.15C401.711 437.308 400.633 435.068 399.779 433.85H398.729C399.653 435.348 400.395 437.504 400.395 440.15C400.395 442.782 399.653 444.952 398.729 446.45H399.779Z" fill="black"/>
</svg>
