<?xml version="1.0" encoding="utf-8"?>
<!-- Generator: Adobe Illustrator 24.0.0, SVG Export Plug-In . SVG Version: 6.00 Build 0)  -->
<svg version="1.1" id="Art" xmlns="http://www.w3.org/2000/svg" xmlns:xlink="http://www.w3.org/1999/xlink" x="0px" y="0px"
	 viewBox="0 0 2343 1125" style="enable-background:new 0 0 2343 1125;" xml:space="preserve">
<style type="text/css">
	.st0{stroke:#000000;stroke-width:2;stroke-linecap:round;stroke-linejoin:round;stroke-miterlimit:10;}
	.st1{fill:#FFC6B3;stroke:#000000;stroke-width:2;stroke-linecap:round;stroke-linejoin:round;stroke-miterlimit:10;}
	.st2{fill:#6490F2;stroke:#000000;stroke-width:2;stroke-linecap:round;stroke-linejoin:round;stroke-miterlimit:10;}
	.st3{fill:#74D486;stroke:#000000;stroke-width:2;stroke-linejoin:round;stroke-miterlimit:10;}
	.st4{fill:#D3F1F3;stroke:#000000;stroke-width:2;stroke-linecap:round;stroke-linejoin:round;stroke-miterlimit:10;}
	.st5{fill:#F3E02B;stroke:#000000;stroke-width:2;stroke-linecap:round;stroke-linejoin:round;stroke-miterlimit:10;}
	.st6{fill:#026773;stroke:#000000;stroke-width:2;stroke-linecap:round;stroke-linejoin:round;stroke-miterlimit:10;}
	.st7{fill:#FFC6B3;stroke:#000000;stroke-width:2;stroke-linejoin:round;stroke-miterlimit:10;}
	.st8{fill:#F3E02B;stroke:#000000;stroke-width:2;stroke-linejoin:round;stroke-miterlimit:10;}
	.st9{fill:none;stroke:#000000;stroke-width:2;stroke-linejoin:round;stroke-miterlimit:10;}
	.st10{fill:#D3F1F3;stroke:#000000;stroke-width:2;stroke-linejoin:round;stroke-miterlimit:10;}
	.st11{fill:#74D486;stroke:#000000;stroke-width:2;stroke-linecap:round;stroke-linejoin:round;stroke-miterlimit:10;}
	.st12{fill:none;stroke:#000000;stroke-width:2;stroke-linecap:round;stroke-linejoin:round;stroke-miterlimit:10;}
	
		.st13{fill-rule:evenodd;clip-rule:evenodd;fill:#D3F1F3;stroke:#000000;stroke-width:2;stroke-linecap:round;stroke-linejoin:round;stroke-miterlimit:10;}
	
		.st14{fill-rule:evenodd;clip-rule:evenodd;fill:#F3E02B;stroke:#000000;stroke-width:2;stroke-linecap:round;stroke-linejoin:round;stroke-miterlimit:10;}
	.st15{fill:#FF2F1C;stroke:#000000;stroke-width:2;stroke-linecap:round;stroke-linejoin:round;stroke-miterlimit:10;}
	.st16{fill:#FF2F1C;stroke:#000000;stroke-width:2;stroke-linejoin:round;stroke-miterlimit:10;}
	.st17{stroke:#000000;stroke-width:2;stroke-linejoin:round;stroke-miterlimit:10;}
</style>
<g id="Play_-_Orange">
</g>
<g id="RSS">
</g>
<g id="Lock">
</g>
<g id="Save">
</g>
<g id="Forward_-_Orange">
</g>
<g id="Plus_-_Grey">
</g>
<path class="st0" d="M235.5,487.5h-195l-15-15h195L235.5,487.5z"/>
<path class="st0" d="M1135.5,487.5h-225l-15-15h225L1135.5,487.5z"/>
<path class="st0" d="M850.5,487.5h-210l-15-15h210L850.5,487.5z"/>
<path class="st0" d="M193.3,1102.5H40.5l-15-15h152.7L193.3,1102.5z"/>
<path class="st0" d="M250.5,1087.5h-19.1l-15-15h19.1L250.5,1087.5z"/>
<path class="st0" d="M550.5,97.5h-180l-15-15h180L550.5,97.5z"/>
<path class="st0" d="M580.5,298.2c-10.2,5-20.7,7.9-32.1,8.8c-44.1,3.9-101.2-22.2-145-18.8c-9.5,0.8-24.4,3.1-32.9,6.9l-15-15
	c8.5-3.8,23.3-6.1,32.9-6.9c43.8-3.4,100.9,22.7,145,18.8c11.5-1,21.9-3.9,32.1-8.8L580.5,298.2z"/>
<polygon class="st0" points="789.3,217.5 640.5,217.5 625.5,202.5 774.3,202.5 "/>
<path class="st0" d="M511,568c-52.7,52.7-138,52.7-190.8,0.1c0,0,0,0,0,0l14.7,14.7c24.4,24.5,58.3,39.7,95.6,39.7
	c37.3,0,71-15.1,95.5-39.5L511,568z"/>
<g>
	<path class="st0" d="M525.8,391.9l-14.7-14.7c0,0,0,0,0,0c52.6,52.7,52.5,138.1-0.1,190.8c-52.7,52.7-138,52.7-190.8,0.1
		c0,0,0,0,0,0l14.7,14.7c24.4,24.5,58.3,39.7,95.6,39.7c74.6,0,135-60.4,135-135C565.5,450.1,550.4,416.3,525.8,391.9z"/>
</g>
<path class="st0" d="M1465.5,1102.5h-465l-15-15h465L1465.5,1102.5z"/>
<path class="st0" d="M580.5,862.5h-270l-15-15h270L580.5,862.5z"/>
<polygon class="st1" points="250.5,1087.5 250.5,967.5 235.5,952.5 235.5,1072.5 "/>
<polygon class="st1" points="178.3,937.5 178.3,1087.5 193.3,1102.5 193.3,952.5 "/>
<path class="st2" d="M235.5,487.5v-97l30-38l-15-15l-30,38v97L235.5,487.5z"/>
<path class="st3" d="M1135.5,487.5v-97l30-38l-15-15l-30,38v97L1135.5,487.5z"/>
<polygon class="st3" points="550.5,112.5 595.5,75 580.5,60 535.5,97.5 "/>
<polygon class="st4" points="850.5,487.5 850.5,277.5 835.5,262.5 835.5,472.5 "/>
<g>
	<polygon class="st5" points="789.3,217.5 850.5,157.7 850.5,54 835.5,39 835.5,142.7 774.3,202.5 	"/>
</g>
<polygon class="st6" points="580.5,298.2 580.5,169.8 565.5,154.8 565.5,283.2 "/>
<g>
	<path class="st1" d="M565.5,487.5c0-37.4-15.2-71.2-39.7-95.6l-14.7-14.7c0,0,0,0,0,0c52.6,52.7,52.5,138.1-0.1,190.8l15,15
		C550.4,558.5,565.5,524.8,565.5,487.5z"/>
</g>
<path class="st7" d="M1465.5,1102.5v-105l-15-15v105L1465.5,1102.5z"/>
<path class="st5" d="M580.5,862.5v-180l-15-15v180L580.5,862.5z"/>
<g>
	<path class="st7" d="M1130.3,140.9c-1-28.2-13-53.6-31.7-72.2l-14-14c0,0,0,0,0,0c18.2,18.5,29.7,43.5,30.7,71.2L1130.3,140.9z"/>
</g>
<path class="st8" d="M1115.3,125.9H900.8c2.1-57.4,49.3-103.4,107.2-103.4C1065.9,22.5,1113.2,68.5,1115.3,125.9z"/>
<path class="st8" d="M920.8,125.9c2.6-45.8,40.7-82.4,87.2-82.4s84.6,36.5,87.2,82.4H920.8z"/>
<path class="st8" d="M1075.3,125.9H940.8c5-32.8,33.1-58,67.2-58C1042.2,67.9,1070.3,93.1,1075.3,125.9z"/>
<path class="st8" d="M970.8,125.9c-4.3-19.9-18.4-78,37.2-103.4c-57.9,0-105.1,46-107.2,103.4H970.8z"/>
<g>
	<path class="st9" d="M900.8,125.9c2.1-57.4,49.3-103.4,107.2-103.4"/>
	<path class="st9" d="M1008,22.5c-56.8,12.7-73.3,64.8-72.2,103.4"/>
	<path class="st9" d="M1008,22.5c-55.7,25.4-41.5,83.5-37.2,103.4"/>
</g>
<g>
	<polygon class="st2" points="1120.5,82.5 1135.5,97.5 1153,67.6 1138,52.6 	"/>
</g>
<polygon class="st2" points="910.5,97.5 893,67.6 878,52.6 895.5,82.5 "/>
<g>
	<g>
		<path class="st6" d="M1677.2,361.1c11.7,11.8,18.7,33.3,18.7,49.5c-0.7,20.7-6.9,34.8-19.4,42.5l1.7,127.4l-15-15l-1.7-127.4
			c12.5-7.7,18.7-21.8,19.4-42.5c0-16.1-6.9-37.4-18.4-49.2c0,0,0,0,0,0L1677.2,361.1z"/>
		<path class="st0" d="M1631.1,576.6C1631.1,576.6,1631.1,576.6,1631.1,576.6c3.5,3.6,8.6,5.9,14,5.9c9.9,0,18.1-7.6,18.1-17l15,15
			c0,9.4-8.2,17-18.1,17c-5.6,0-10.8-2.4-14.3-6.2L1631.1,576.6z"/>
		<g>
			<path class="st3" d="M1626.4,565.5l1.7-125.4c-14.7-6.7-22.1-21.5-22.1-44.6c0.4-23.4,16-58.1,38.2-58.1
				c22.1,0,36.8,34.7,36.8,58.1c-0.7,20.7-6.9,34.8-19.4,42.5l1.7,127.4c0,9.4-8.2,17-18.1,17
				C1635.2,582.5,1626.4,574.9,1626.4,565.5z"/>
		</g>
		<g>
			<path class="st3" d="M1516,354.5l1.7,125.4c-14.7,6.7-22.1,21.5-22.1,44.6c0.4,23.4,16,58.1,38.2,58.1
				c22.1,0,36.8-34.7,36.8-58.1c-0.7-20.7-6.9-34.8-19.4-42.5l1.7-127.4c0-9.4-8.2-17-18.1-17C1524.7,337.5,1516,345.1,1516,354.5z"
				/>
		</g>
	</g>
	<g>
		<path class="st6" d="M1567.8,369.5c0-4.7-2.1-9-5.4-12l-14.7-14.7c3.1,3,5.1,7.2,5.1,11.7l-1.7,127.4
			c12.5,7.7,18.7,21.8,19.4,42.5c0,23.4-14.7,58.1-36.8,58.1c-6.5,0-12.5-3-17.7-7.9l13.3,13.3c0,0,0,0,0,0
			c5.6,5.9,12.1,9.6,19.4,9.6c22.1,0,36.8-34.7,36.8-58.1c-0.7-20.7-6.9-34.8-19.4-42.5L1567.8,369.5z"/>
		<path class="st0" d="M1564,554.7c-6.4,15.1-17,27.8-30.3,27.8c-6.5,0-12.5-3-17.7-7.9l13.3,13.3c0,0,0,0,0,0
			c5.6,5.9,12.1,9.6,19.4,9.6c13.3,0,24-12.6,30.3-27.8L1564,554.7z"/>
	</g>
</g>
<g>
	<line class="st0" x1="206" y1="877.5" x2="221" y2="892.5"/>
	<polygon class="st0" points="206,877.5 55.2,877.5 70.2,892.5 221,892.5 	"/>
	<path class="st0" d="M228.3,596.8H32.8c-1.8,0-3.4-0.6-4.6-1.7c0,0,0,0,0,0l14.1,14.1c1.3,1.6,3.3,2.6,5.6,2.6h195.5L228.3,596.8z"
		/>
	<polygon class="st6" points="242.8,611.8 221,892.5 206,877.5 227.8,596.8 	"/>
	<polygon class="st2" points="241.8,686.2 232.1,806.2 217.1,791.2 226.8,671.2 	"/>
	<polygon class="st0" points="217.1,791.2 212,791.2 227,806.2 232.1,806.2 	"/>
	<polygon class="st0" points="49.2,791.2 44.2,791.2 59.2,806.2 64.2,806.2 	"/>
	<g>
		<g>
			<path class="st2" d="M221.2,551.9l-14.1-14.1c0,0,0,0,0,0c4.2,4.4,8.9,12,9.6,24.2l15,15C230.9,563.9,225.6,556.2,221.2,551.9z"
				/>
		</g>
		<g>
			<path class="st2" d="M243.3,611.8c4.4,0,7.7-3.8,7.2-8.2c-1.2-9.6-4.5-18.1-9.6-22.7l-14.1-14.1c0,0,0,0,0,0
				c4.5,4.8,7.5,12.7,8.6,21.8c0.5,4.3-2.8,8.2-7.2,8.2L243.3,611.8z"/>
		</g>
	</g>
	<g>
		<polygon class="st3" points="33.4,596.8 55.2,877.5 206,877.5 227.8,596.8 		"/>
	</g>
	<polygon class="st10" points="34.4,671.2 44.2,791.2 217.1,791.2 226.8,671.2 	"/>
	<g>
		<path class="st10" d="M216.7,562.1H44.4c0.9-15.5,8.2-23.5,12.9-27.1c2.1-1.6,4.7-2.4,7.3-2.4h132.1c2.6,0,5.2,0.8,7.3,2.4
			C208.5,538.5,215.8,546.6,216.7,562.1z"/>
		<path class="st10" d="M216.7,562.1l-172.4,0c-10.2,0-16.9,11.9-18.8,26.5c-0.5,4.3,2.8,8.2,7.2,8.2h195.5c4.4,0,7.7-3.8,7.2-8.2
			C233.6,573.9,226.9,562.1,216.7,562.1z"/>
	</g>
</g>
<g>
	<path class="st0" d="M1411,568c-52.7,52.7-138,52.7-190.8,0.1c0,0,0,0,0,0l14.7,14.7c24.4,24.5,58.3,39.7,95.6,39.7
		c37.3,0,71-15.1,95.5-39.5L1411,568z"/>
	<g>
		<path class="st0" d="M1425.8,391.9l-14.7-14.7c0,0,0,0,0,0c52.6,52.7,52.5,138.1-0.1,190.8c-52.7,52.7-138,52.7-190.8,0.1
			c0,0,0,0,0,0l14.7,14.7c24.4,24.5,58.3,39.7,95.6,39.7c74.6,0,135-60.4,135-135C1465.5,450.1,1450.4,416.3,1425.8,391.9z"/>
	</g>
	<g>
		<path class="st4" d="M1465.5,487.5c0-37.4-15.2-71.2-39.7-95.6l-14.7-14.7c0,0,0,0,0,0c52.6,52.7,52.5,138.1-0.1,190.8l15,15
			C1450.4,558.5,1465.5,524.8,1465.5,487.5z"/>
	</g>
	<g>
		<g>
			<path class="st8" d="M1330.5,450.1c10.1,0,19.3,4.1,26,10.6c0,0,0,0,0,0l-14.3-14.3c-6.8-7-16.3-11.3-26.8-11.3
				c-20.6,0-37.4,16.8-37.4,37.4c0,10.5,4.3,20,11.3,26.8l14.3,14.3c0,0,0,0,0,0c-6.6-6.7-10.6-15.9-10.6-26.1
				C1293.2,466.9,1309.9,450.1,1330.5,450.1z"/>
		</g>
		<g>
			<g>
				<path class="st8" d="M1315.5,337.5c-74.4,0-135,60.6-135,135c0,74.4,60.6,135,135,135c74.4,0,135-60.6,135-135
					C1450.5,398.1,1390,337.5,1315.5,337.5z M1315.5,509.9c-20.6,0-37.4-16.8-37.4-37.4c0-20.6,16.8-37.4,37.4-37.4
					c20.6,0,37.4,16.8,37.4,37.4C1352.9,493.1,1336.1,509.9,1315.5,509.9z"/>
			</g>
			<path class="st7" d="M1248.8,564.6c4.4,1.1,8.4,1.8,11.4,3.7c2.9,1.8,5.9,4.8,8.8,8.1c4.4,4.8,9.2,9.9,15.4,11.7
				c6.2,1.8,12.5-0.4,18.7-2.2c4.4-1.5,8.4-2.6,12.1-2.6s7.7,1.1,12.1,2.6c4.4,1.5,9.2,2.9,13.9,2.9c1.8,0,3.3-0.4,4.8-0.7
				c6.6-1.8,11-6.6,15.4-11.7c2.9-3.3,5.9-6.2,8.8-8.1c3.3-1.8,7.3-2.6,11.4-3.7c6.2-1.5,12.8-2.9,17.6-7.7
				c4.8-4.8,6.2-11.4,7.7-17.6c1.1-4.4,1.8-8.4,3.7-11.4s4.8-5.9,8.1-8.8c4.8-4.4,9.9-9.2,11.7-15.4s-0.4-12.5-2.2-18.7
				c-1.5-4.4-2.6-8.4-2.6-12.1s1.1-7.7,2.6-12.1c1.8-6.2,4-12.5,2.2-18.7c-1.8-6.6-6.6-11-11.7-15.4c-3.3-2.9-6.2-5.9-8.1-8.8
				c-1.8-3.3-2.6-7.3-3.7-11.4c-1.5-6.2-2.9-12.8-7.7-17.6c-4.8-4.8-11.4-6.2-17.6-7.7c-4.4-1.1-8.4-1.8-11.4-3.7
				c-2.9-1.8-5.9-4.8-8.8-8.1c-4.4-4.8-9.2-9.9-15.4-11.7c-6.2-1.8-12.5,0.4-18.7,2.2c-4.4,1.5-8.4,2.6-12.1,2.6s-7.7-1.1-12.1-2.6
				c-6.2-1.8-12.5-4-18.7-2.2c-6.6,1.8-11,6.6-15.4,11.7c-2.9,3.3-5.9,6.2-8.8,8.1c-3.3,1.8-7.3,2.6-11.4,3.7
				c-6.2,1.5-12.8,2.9-17.6,7.7c-4.8,4.8-6.2,11.4-7.7,17.6c-1.1,4.4-1.8,8.4-3.7,11.4s-4.8,5.9-8.1,8.8c-4.8,4.4-9.9,9.2-11.7,15.4
				s0.4,12.5,2.2,18.7c1.5,4.4,2.6,8.4,2.6,12.1c0,3.7-1.1,7.7-2.6,12.1c-1.8,6.2-4,12.5-2.2,18.7c1.8,6.6,6.6,11,11.7,15.4
				c3.3,2.9,6.2,5.9,8.1,8.8c1.8,3.3,2.6,7.3,3.7,11.4c1.5,6.2,2.9,12.8,7.7,17.6C1235.6,561.6,1242.2,563.1,1248.8,564.6z
				 M1315.5,509.9c-20.6,0-37.4-16.8-37.4-37.4c0-20.6,16.8-37.4,37.4-37.4c20.6,0,37.4,16.8,37.4,37.4
				C1352.9,493.1,1336.1,509.9,1315.5,509.9z"/>
		</g>
	</g>
</g>
<g>
	<path class="st4" d="M250.5,337.5l-30,38v97h-195v-135L250.5,337.5z"/>
</g>
<g>
	<path class="st6" d="M1150.5,337.5l-30,38v97h-225v-135L1150.5,337.5z"/>
</g>
<polygon class="st6" points="580.5,60 535.5,97.5 535.5,82.5 355.5,82.5 355.5,37.5 535.5,37.5 535.5,22.5 "/>
<polygon class="st2" points="216.4,952.5 178.3,982.5 178.3,937.5 25.5,937.5 25.5,1087.5 178.3,1087.5 178.3,1042.5 216.4,1072.5 
	235.5,1072.5 235.5,952.5 "/>
<g>
	<path class="st0" d="M2263.3,187.5h-152.7l-15-15h152.7L2263.3,187.5z"/>
	<path class="st0" d="M2320.5,172.5h-19.1l-15-15h19.1L2320.5,172.5z"/>
	<polygon class="st1" points="2320.5,172.5 2320.5,52.5 2305.5,37.5 2305.5,157.5 	"/>
	<polygon class="st1" points="2248.3,22.5 2248.3,172.5 2263.3,187.5 2263.3,37.5 	"/>
	<polygon class="st2" points="2286.4,37.5 2248.3,67.5 2248.3,22.5 2095.5,22.5 2095.5,172.5 2248.3,172.5 2248.3,127.5 
		2286.4,157.5 2305.5,157.5 2305.5,37.5 	"/>
</g>
<g>
	
		<rect x="625.5" y="262.5" transform="matrix(-1 -1.224647e-16 1.224647e-16 -1 1461.0632 735)" class="st5" width="210" height="210"/>
	<g id="XMLID_15_">
		<path id="XMLID_16_" class="st3" d="M730.5,380.2c22.4,0,40.5-18.1,40.5-40.5c0-22.4-18.1-40.5-40.5-40.5
			c-22.4,0-40.5,18.1-40.5,40.5S708.1,380.2,730.5,380.2z"/>
		<path class="st3" d="M730.5,389.1c-44.7,0-80.4,38-76.7,83.4h153.4C810.9,427,775.2,389.1,730.5,389.1z"/>
	</g>
</g>
<g>
	<path class="st11" d="M387.7,143c44.1-3.9,98.8,18.8,145,18.8c18.8,0,32.9-6.9,32.9-6.9v128.4c-10.2,5-20.7,7.9-32.1,8.8
		c-44.1,3.9-101.2-22.2-145-18.8c-9.5,0.8-24.4,3.1-32.9,6.9V151.8C365.7,146.8,376.2,143.9,387.7,143z"/>
	<path class="st11" d="M428.6,225c-1.4-7-1.5-14.4,0.1-21.6c3.7-17.1,15.5-28.5,29.4-28.5c4.1,0,8.3,1,12.2,3.1
		c16.9,8.7,26.6,32.2,22,53.5c-3.7,17.1-15.5,28.5-29.4,28.5c-4.1,0-8.3-1-12.2-3.1C439.5,251.2,431.4,238.9,428.6,225"/>
	<g>
		<path class="st11" d="M565.5,176.9c-0.1,0-0.3,0-0.4,0c-9.9,0-18.3-6.8-20.6-16.1"/>
		<path class="st11" d="M545.1,290.4c-0.8-2.2-1.2-4.6-1.2-7.1c0-11.7,9.5-21.2,21.2-21.2c0.1,0,0.3,0,0.4,0"/>
		<path class="st11" d="M375.5,144.8c0.8,2.2,1.3,4.7,1.3,7.2c0,11.7-9.5,21.2-21.2,21.2"/>
		<path class="st11" d="M355.5,257.6c10.4,0,19,7.4,20.9,17.2"/>
	</g>
</g>
<g>
	<g>
		<g>
			<polygon class="st7" points="774.3,202.5 625.5,202.5 625.5,39 835.5,39 835.5,142.7 			"/>
		</g>
	</g>
	<polyline class="st12" points="774.3,201 774.3,142.7 835.5,142.7 850.5,157.7 	"/>
	<g>
		<path class="st7" d="M670.5,33.5c0-5.2,4.3-9.5,9.5-9.5s9.5,4.3,9.5,9.5v16.6c0,5.2-4.3,9.5-9.5,9.5s-9.5-4.3-9.5-9.5V33.5z"/>
	</g>
	<g>
		<path class="st7" d="M771.5,33.5c0-5.2,4.3-9.5,9.5-9.5s9.5,4.3,9.5,9.5v16.6c0,5.2-4.3,9.5-9.5,9.5s-9.5-4.3-9.5-9.5V33.5z"/>
	</g>
</g>
<g>
	<path class="st0" d="M1312.7,830.7C1312.7,830.8,1312.7,830.8,1312.7,830.7l14.2,14.2c10.3,10.4,22.6,18.5,37.3,23.2
		c1-2.9-0.4-8.1-0.4-11.6C1342.8,853.4,1326.1,844,1312.7,830.7z"/>
	<path class="st0" d="M1265.6,764.9c-8.1,0-15.4-3.2-20.8-8.4c0,0,0,0,0,0l14.2,14.2c5.5,5.7,13.1,9.2,21.7,9.2h1.6
		c0,0-5.1-10.6-6.5-15H1265.6z"/>
	<polygon class="st0" points="1452.4,921.4 1318.7,921.4 1318.7,921.4 1333.7,936.4 1467.4,936.4 	"/>
	<path class="st0" d="M1465.4,823c-14.4,17.2-33.3,29.8-58.1,33.4l15,15c24.9-3.7,43.8-16.2,58.1-33.4L1465.4,823z"/>
	<path class="st0" d="M1505.5,734.8"/>
	<path class="st0" d="M1526.7,756.1c-5.4,5.4-13,8.8-21.3,8.8h-10.1l15,15h10.1c8.3,0,15.8-3.4,21.3-8.8L1526.7,756.1z"/>
	<g>
		<g>
			<path class="st4" d="M1506.5,716l16.8,2c0.5-4.2,0.9-8.2,1.3-12.1c0.5-5.7,1.3-19.2,1.5-24.5l-15-15l0,0
				c-0.2,5.3-1,18.8-1.5,24.5C1508.8,698.6,1507.8,707.1,1506.5,716z"/>
			<polygon class="st4" points="1467.4,936.4 1467.2,902.3 1452.2,887.3 1452.4,921.4 			"/>
			<path class="st4" d="M1407.3,856.5c0,17.6,8.1,22.2,17.5,27.1c-1.6-3.5-2.5-7.5-2.5-12.1L1407.3,856.5z"/>
		</g>
	</g>
	<g>
		<path class="st4" d="M1510.4,779.9l-15-15c-6.7,21.3-16.3,41.8-29.9,58.1l15,15C1494.1,821.7,1503.6,801.1,1510.4,779.9z"/>
	</g>
	<g>
		<path class="st4" d="M1550.5,749.8v-16.9c0-0.7-0.4-1.4-1-1.7l-14.2-14.2c0.1,0.3,0.2,0.6,0.2,0.9v16.9c0,8.3-3.4,15.8-8.8,21.3
			l15,15C1547.2,765.6,1550.5,758.1,1550.5,749.8z"/>
	</g>
	<g>
		<path class="st5" d="M1533.6,716h-27.2c1.4-8.9,2.3-17.4,3.1-25.1c0.5-5.7,1.3-19.2,1.5-24.5H1260c0.2,5.3,1,18.8,1.5,24.5
			c0.7,7.8,1.7,16.3,3.1,25.1h-27.2c-1,0-1.9,0.8-1.9,1.9v16.9c0,16.6,13.5,30.1,30.1,30.1h10.1c13.8,43.7,39.6,84.4,88.1,91.6
			c0,22.6-21.5,31.4-44.9,30.8l-0.2,34.1h133.7l-0.2-34.1c-23.5,0.5-44.9-8.3-44.9-30.8c48.5-7.2,74.3-47.9,88.1-91.6h10.1
			c16.6,0,30.1-13.5,30.1-30.1v-16.9C1535.5,716.8,1534.7,716,1533.6,716z"/>
		<path class="st4" d="M1408.2,765.3c-0.9,1-1.4,2.3-1.2,3.7l3.2,25.8l-22.6-12.9c-1.3-0.8-3-0.8-4.3,0l-22.7,12.9l3.2-25.8
			c0.2-1.3-0.3-2.6-1.2-3.6l-16.3-16.3l23.1-6.6c1.1-0.3,2-1,2.6-2l13.5-23.7l13.5,23.7c0.6,1,1.5,1.7,2.6,2l23.1,6.6L1408.2,765.3z
			"/>
	</g>
</g>
<g>
	<path class="st1" d="M565.5,667.5h-270v180h270V667.5z"/>
	<path class="st1" d="M429.2,765.8l-133.7-98.3h270L429.2,765.8z"/>
</g>
<g>
	<path class="st2" d="M985.5,982.5v105h465v-105H985.5z"/>
</g>
<path class="st4" d="M1069.1,1065l-15.9-15.9c-3.4,1.9-7.4,3.1-11.6,3.1c-13,0-23.6-10.6-23.6-23.6c0-13,10.6-23.6,23.6-23.6
	s23.6,10.6,23.6,23.6c0,4.2-1.1,8.2-3.1,11.6l15.9,15.9L1069.1,1065z M1055.1,1028.6c0-7.4-6-13.5-13.5-13.5s-13.5,6-13.5,13.5
	c0,7.4,6,13.5,13.5,13.5S1055.1,1036,1055.1,1028.6z"/>
<g>
	<g>
		<path class="st2" d="M2050.5,548.1V81.9c0-12.4-5.1-23.7-13.4-31.7l-14.3-14.3c7.8,8,12.6,18.9,12.6,31v466.3
			c0,12.3-5,23.3-13,31.4l15,15C2045.6,571.5,2050.5,560.4,2050.5,548.1z"/>
		<path class="st0" d="M2022.5,564.5c-8,8-19.1,13-31.4,13h-211.3c-12.1,0-23-4.8-31-12.6l14.3,14.3c8.1,8.2,19.3,13.4,31.7,13.4
			h211.3c12.3,0,23.3-5,31.4-13L2022.5,564.5z"/>
	</g>
	<path class="st13" d="M1779.9,22.5h211.3c24.5,0,44.4,19.9,44.4,44.4v466.3c0,24.5-19.9,44.4-44.4,44.4h-211.3
		c-24.5,0-44.4-19.9-44.4-44.4V66.9C1735.5,42.4,1755.4,22.5,1779.9,22.5z"/>
	<g>
		<path class="st13" d="M1903.8,65.7h-36.6c-3.4,0-6.2-2.8-6.2-6.2v0c0-3.4,2.8-6.2,6.2-6.2h36.6c3.4,0,6.2,2.8,6.2,6.2v0
			C1910,62.9,1907.2,65.7,1903.8,65.7z"/>
	</g>
	<g>
		<g>
			<path class="st14" d="M1813.3,162h-29.5c-10.2,0-18.5-8.3-18.5-18.5V114c0-10.2,8.3-18.5,18.5-18.5h29.5
				c10.2,0,18.5,8.3,18.5,18.5v29.5C1831.8,153.7,1823.5,162,1813.3,162z"/>
			<path class="st14" d="M1900.3,162h-29.5c-10.2,0-18.5-8.3-18.5-18.5V114c0-10.2,8.3-18.5,18.5-18.5h29.5
				c10.2,0,18.5,8.3,18.5,18.5v29.5C1918.8,153.7,1910.5,162,1900.3,162z"/>
			<path class="st14" d="M1987.3,162h-29.5c-10.2,0-18.5-8.3-18.5-18.5V114c0-10.2,8.3-18.5,18.5-18.5h29.5
				c10.2,0,18.5,8.3,18.5,18.5v29.5C2005.8,153.7,1997.5,162,1987.3,162z"/>
		</g>
		<g>
			<path class="st14" d="M1813.3,256.4h-29.5c-10.2,0-18.5-8.3-18.5-18.5v-29.5c0-10.2,8.3-18.5,18.5-18.5h29.5
				c10.2,0,18.5,8.3,18.5,18.5v29.5C1831.8,248.1,1823.5,256.4,1813.3,256.4z"/>
			<path class="st14" d="M1900.3,256.4h-29.5c-10.2,0-18.5-8.3-18.5-18.5v-29.5c0-10.2,8.3-18.5,18.5-18.5h29.5
				c10.2,0,18.5,8.3,18.5,18.5v29.5C1918.8,248.1,1910.5,256.4,1900.3,256.4z"/>
			<path class="st14" d="M1987.3,256.4h-29.5c-10.2,0-18.5-8.3-18.5-18.5v-29.5c0-10.2,8.3-18.5,18.5-18.5h29.5
				c10.2,0,18.5,8.3,18.5,18.5v29.5C2005.8,248.1,1997.5,256.4,1987.3,256.4z"/>
		</g>
		<g>
			<path class="st14" d="M1813.3,350.8h-29.5c-10.2,0-18.5-8.3-18.5-18.5v-29.5c0-10.2,8.3-18.5,18.5-18.5h29.5
				c10.2,0,18.5,8.3,18.5,18.5v29.5C1831.8,342.5,1823.5,350.8,1813.3,350.8z"/>
			<path class="st14" d="M1900.3,350.8h-29.5c-10.2,0-18.5-8.3-18.5-18.5v-29.5c0-10.2,8.3-18.5,18.5-18.5h29.5
				c10.2,0,18.5,8.3,18.5,18.5v29.5C1918.8,342.5,1910.5,350.8,1900.3,350.8z"/>
			<path class="st14" d="M1987.3,350.8h-29.5c-10.2,0-18.5-8.3-18.5-18.5v-29.5c0-10.2,8.3-18.5,18.5-18.5h29.5
				c10.2,0,18.5,8.3,18.5,18.5v29.5C2005.8,342.5,1997.5,350.8,1987.3,350.8z"/>
		</g>
		<g>
			<path class="st14" d="M1813.3,445.1h-29.5c-10.2,0-18.5-8.3-18.5-18.5v-29.5c0-10.2,8.3-18.5,18.5-18.5h29.5
				c10.2,0,18.5,8.3,18.5,18.5v29.5C1831.8,436.8,1823.5,445.1,1813.3,445.1z"/>
			<path class="st14" d="M1900.3,445.1h-29.5c-10.2,0-18.5-8.3-18.5-18.5v-29.5c0-10.2,8.3-18.5,18.5-18.5h29.5
				c10.2,0,18.5,8.3,18.5,18.5v29.5C1918.8,436.8,1910.5,445.1,1900.3,445.1z"/>
			<path class="st14" d="M1987.3,445.1h-29.5c-10.2,0-18.5-8.3-18.5-18.5v-29.5c0-10.2,8.3-18.5,18.5-18.5h29.5
				c10.2,0,18.5,8.3,18.5,18.5v29.5C2005.8,436.8,1997.5,445.1,1987.3,445.1z"/>
		</g>
		<g>
			<path class="st14" d="M1813.3,539.5h-29.5c-10.2,0-18.5-8.3-18.5-18.5v-29.5c0-10.2,8.3-18.5,18.5-18.5h29.5
				c10.2,0,18.5,8.3,18.5,18.5V521C1831.8,531.2,1823.5,539.5,1813.3,539.5z"/>
			<path class="st14" d="M1900.3,539.5h-29.5c-10.2,0-18.5-8.3-18.5-18.5v-29.5c0-10.2,8.3-18.5,18.5-18.5h29.5
				c10.2,0,18.5,8.3,18.5,18.5V521C1918.8,531.2,1910.5,539.5,1900.3,539.5z"/>
			<path class="st14" d="M1987.3,539.5h-29.5c-10.2,0-18.5-8.3-18.5-18.5v-29.5c0-10.2,8.3-18.5,18.5-18.5h29.5
				c10.2,0,18.5,8.3,18.5,18.5V521C2005.8,531.2,1997.5,539.5,1987.3,539.5z"/>
		</g>
	</g>
</g>
<polygon class="st0" points="1805.5,780 1768.3,758.7 1730.5,780 1715.5,765 1753.3,743.7 1790.5,765 "/>
<path class="st7" d="M1805.5,780V652.5l-15-15V765L1805.5,780z"/>
<polygon class="st0" points="1928,780 1890.8,758.7 1853,780 1838,765 1875.8,743.7 1913,765 "/>
<path class="st7" d="M1928,780V652.5l-15-15V765L1928,780z"/>
<polygon class="st0" points="2050.5,780 2013.3,758.7 1975.5,780 1960.5,765 1998.3,743.7 2035.5,765 "/>
<path class="st7" d="M2050.5,780V652.5l-15-15V765L2050.5,780z"/>
<g>
	<polygon class="st2" points="1715.5,637.5 1715.5,765 1753.3,743.7 1790.5,765 1790.5,637.5 	"/>
</g>
<g>
	<polygon class="st2" points="1838,637.5 1838,765 1875.8,743.7 1913,765 1913,637.5 	"/>
</g>
<polygon class="st0" points="1683,780 1645.8,758.7 1608,780 1593,765 1630.8,743.7 1668,765 "/>
<path class="st7" d="M1683,780V652.5l-15-15V765L1683,780z"/>
<g>
	<polygon class="st2" points="1593,637.5 1593,765 1630.8,743.7 1668,765 1668,637.5 	"/>
</g>
<g>
	<polygon class="st2" points="1960.5,637.5 1960.5,765 1998.3,743.7 2035.5,765 2035.5,637.5 	"/>
</g>
<polygon class="st0" points="1000.5,915.7 1195.5,915.7 1180.5,900.7 985.5,900.7 "/>
<g>
	<polygon class="st7" points="1255.5,870.7 1180.5,930.7 1180.5,900.7 985.5,900.7 985.5,840.7 1180.5,840.7 1180.5,810.7 	"/>
</g>
<polygon class="st5" points="1195.5,945.7 1270.5,885.7 1255.5,870.7 1180.5,930.7 "/>
<g>
	<path class="st0" d="M1765.5,1102.5h-225l-15-15h225L1765.5,1102.5z"/>
	<polygon class="st5" points="1765.5,1102.5 1765.5,862.5 1750.5,847.5 1750.5,1087.5 	"/>
	<g>
		
			<rect x="1525.5" y="847.5" transform="matrix(-1 -1.224647e-16 1.224647e-16 -1 3276.0632 1935)" class="st7" width="225" height="240"/>
		<g id="XMLID_13_">
			<path id="XMLID_14_" class="st5" d="M1638,981c25.8,0,46.7-20.9,46.7-46.7c0-25.8-20.9-46.7-46.7-46.7s-46.7,20.9-46.7,46.7
				C1591.3,960.1,1612.2,981,1638,981z"/>
			<path class="st5" d="M1638,991.3c-51.5,0-92.7,43.8-88.4,96.2h176.9C1730.8,1035.1,1689.5,991.3,1638,991.3z"/>
		</g>
	</g>
</g>
<g>
	<g>
		<path class="st2" d="M940.5,1058.1V591.9c0-12.4-5.1-23.7-13.4-31.7l-14.3-14.3c7.8,8,12.6,18.9,12.6,31v466.3
			c0,12.3-5,23.3-13,31.4l15,15C935.6,1081.5,940.5,1070.4,940.5,1058.1z"/>
		<path class="st0" d="M912.5,1074.5c-8,8-19.1,13-31.4,13H669.9c-12.1,0-23-4.8-31-12.6l14.3,14.3c8.1,8.2,19.3,13.4,31.7,13.4
			h211.3c12.3,0,23.3-5,31.4-13L912.5,1074.5z"/>
	</g>
	<path class="st13" d="M669.9,532.5h211.3c24.5,0,44.4,19.9,44.4,44.4v466.3c0,24.5-19.9,44.4-44.4,44.4H669.9
		c-24.5,0-44.4-19.9-44.4-44.4V576.9C625.5,552.4,645.4,532.5,669.9,532.5z"/>
	<g>
		<path class="st13" d="M793.8,575.7h-36.6c-3.4,0-6.2-2.8-6.2-6.2l0,0c0-3.4,2.8-6.2,6.2-6.2h36.6c3.4,0,6.2,2.8,6.2,6.2l0,0
			C800,572.9,797.2,575.7,793.8,575.7z"/>
	</g>
	<g>
		<g>
			<path class="st14" d="M703.3,672h-29.5c-10.2,0-18.5-8.3-18.5-18.5V624c0-10.2,8.3-18.5,18.5-18.5h29.5
				c10.2,0,18.5,8.3,18.5,18.5v29.5C721.8,663.7,713.5,672,703.3,672z"/>
			<path class="st14" d="M790.3,672h-29.5c-10.2,0-18.5-8.3-18.5-18.5V624c0-10.2,8.3-18.5,18.5-18.5h29.5
				c10.2,0,18.5,8.3,18.5,18.5v29.5C808.8,663.7,800.5,672,790.3,672z"/>
			<path class="st14" d="M877.3,672h-29.5c-10.2,0-18.5-8.3-18.5-18.5V624c0-10.2,8.3-18.5,18.5-18.5h29.5
				c10.2,0,18.5,8.3,18.5,18.5v29.5C895.8,663.7,887.5,672,877.3,672z"/>
		</g>
		<g>
			<path class="st14" d="M703.3,766.4h-29.5c-10.2,0-18.5-8.3-18.5-18.5v-29.5c0-10.2,8.3-18.5,18.5-18.5h29.5
				c10.2,0,18.5,8.3,18.5,18.5v29.5C721.8,758.1,713.5,766.4,703.3,766.4z"/>
			<path class="st14" d="M790.3,766.4h-29.5c-10.2,0-18.5-8.3-18.5-18.5v-29.5c0-10.2,8.3-18.5,18.5-18.5h29.5
				c10.2,0,18.5,8.3,18.5,18.5v29.5C808.8,758.1,800.5,766.4,790.3,766.4z"/>
			<path class="st14" d="M877.3,766.4h-29.5c-10.2,0-18.5-8.3-18.5-18.5v-29.5c0-10.2,8.3-18.5,18.5-18.5h29.5
				c10.2,0,18.5,8.3,18.5,18.5v29.5C895.8,758.1,887.5,766.4,877.3,766.4z"/>
		</g>
		<g>
			<path class="st14" d="M703.3,860.8h-29.5c-10.2,0-18.5-8.3-18.5-18.5v-29.5c0-10.2,8.3-18.5,18.5-18.5h29.5
				c10.2,0,18.5,8.3,18.5,18.5v29.5C721.8,852.5,713.5,860.8,703.3,860.8z"/>
			<path class="st14" d="M790.3,860.8h-29.5c-10.2,0-18.5-8.3-18.5-18.5v-29.5c0-10.2,8.3-18.5,18.5-18.5h29.5
				c10.2,0,18.5,8.3,18.5,18.5v29.5C808.8,852.5,800.5,860.8,790.3,860.8z"/>
			<path class="st14" d="M877.3,860.8h-29.5c-10.2,0-18.5-8.3-18.5-18.5v-29.5c0-10.2,8.3-18.5,18.5-18.5h29.5
				c10.2,0,18.5,8.3,18.5,18.5v29.5C895.8,852.5,887.5,860.8,877.3,860.8z"/>
		</g>
		<g>
			<path class="st14" d="M703.3,955.1h-29.5c-10.2,0-18.5-8.3-18.5-18.5v-29.5c0-10.2,8.3-18.5,18.5-18.5h29.5
				c10.2,0,18.5,8.3,18.5,18.5v29.5C721.8,946.8,713.5,955.1,703.3,955.1z"/>
			<path class="st14" d="M790.3,955.1h-29.5c-10.2,0-18.5-8.3-18.5-18.5v-29.5c0-10.2,8.3-18.5,18.5-18.5h29.5
				c10.2,0,18.5,8.3,18.5,18.5v29.5C808.8,946.8,800.5,955.1,790.3,955.1z"/>
			<path class="st14" d="M877.3,955.1h-29.5c-10.2,0-18.5-8.3-18.5-18.5v-29.5c0-10.2,8.3-18.5,18.5-18.5h29.5
				c10.2,0,18.5,8.3,18.5,18.5v29.5C895.8,946.8,887.5,955.1,877.3,955.1z"/>
		</g>
		<g>
			<path class="st14" d="M703.3,1049.5h-29.5c-10.2,0-18.5-8.3-18.5-18.5v-29.5c0-10.2,8.3-18.5,18.5-18.5h29.5
				c10.2,0,18.5,8.3,18.5,18.5v29.5C721.8,1041.2,713.5,1049.5,703.3,1049.5z"/>
			<path class="st14" d="M790.3,1049.5h-29.5c-10.2,0-18.5-8.3-18.5-18.5v-29.5c0-10.2,8.3-18.5,18.5-18.5h29.5
				c10.2,0,18.5,8.3,18.5,18.5v29.5C808.8,1041.2,800.5,1049.5,790.3,1049.5z"/>
			<path class="st14" d="M877.3,1049.5h-29.5c-10.2,0-18.5-8.3-18.5-18.5v-29.5c0-10.2,8.3-18.5,18.5-18.5h29.5
				c10.2,0,18.5,8.3,18.5,18.5v29.5C895.8,1041.2,887.5,1049.5,877.3,1049.5z"/>
		</g>
	</g>
</g>
<g>
	<g>
		<path class="st0" d="M247.2,277.6l16.5,16.5c0,0,16.5,17.1,30.9,5s5.6-29.2,2.3-32.5c-0.8-0.8-8.3-8.4-16.6-16.9l-2-1.8
			c3.3,3.4,12.1,20.4-2.3,32.5s-30.9-5-30.9-5L247.2,277.6z"/>
		<path class="st4" d="M88.4,258.7c-9.2,9-15.5,15.2-16.4,16.1c-3.2,3.2-18.9,11.3-30.8-0.5l18,18c12,12.7,28.2,4.3,31.5,1.1
			c0.9-0.9,7.2-7.1,16.4-16.1L88.4,258.7z"/>
		<path class="st0" d="M107.1,277.3l1.6,1.4c16.1,9.3,36.1,15.4,60.6,15.4h12.5h9.7c22.4,0,41-5.3,56.3-13.6l1.2-1l-2.1-2.1
			l-16.2-16.7l-1.5,1.3c-15.3,8.3-33.9,13.6-56.3,13.6h-9.7h-12.5c-24.5,0-44.5-6-60.6-15.4l-1.6-1.4L107.1,277.3z"/>
		<path class="st4" d="M282.1,251.6l1.4-1.2c24.3-30.1,31.9-65.3,31.9-69.5c0-7.5,0-49.1,0-49.1c0-24.8-10.1-47.2-26.4-63.4l-18-18
			c15.9,16.1,25.8,38.3,25.8,62.7c0,0,0,41.6,0,49.1c0,4.2-7.5,39.5-31.9,69.5l-1.4,1.2c8.3,8.4,13.9,14.1,14.7,15L282.1,251.6z"/>
		<path class="st4" d="M198.8,76.9c4.1,11.1,6.2,23.3,6.2,36.2c0,0,2.5,17.8-13.8,43.5l-1.2,1.3c11.4,11.8,18.6,18.6,18.6,18.6
			l1.2-1.3c16.3-25.7,13.8-43.5,13.8-43.5c0-12.9-2.1-25.1-6.2-36.2L198.8,76.9z"/>
		<path class="st4" d="M73.7,157.9c0,2.4,3.8,20.3,15.3,37.9l1.6,1.3l6.7-2.8c-3.6-9.3-5-16.4-5-17.8c0-4.9,0-32,0-32
			s-3.4-47.4,30.9-58.7c0,0,0,0,0,0c2.9-11.2,4.4-20.7,4.4-20.7l0,0c-2.2-0.2-4.5-0.3-7-0.3c-51.3,0-46.9,61.1-46.9,61.1
			S73.7,153,73.7,157.9z"/>
		<path class="st0" d="M217.5,95.5l1.9-1.2c10-0.9,18.9,0.3,26.3,3.7c0.2,0.4-1.5-1.1-1.3-0.7c-7.8-17.1-23.4-23.4-43.6-21.7
			l-1.9,1.2L217.5,95.5z"/>
		<path class="st4" d="M126,227.8c7.5,3.1,16,5.2,25.7,5.7c9.8-9.5,19.3-18.8,27.3-26.6L160.6,188c-10.8,10.5-24.5,23.8-37.8,36.8
			L126,227.8z"/>
	</g>
	<path class="st5" d="M190.1,157.9l1.2-1.3c16.3-25.7,13.8-43.5,13.8-43.5c0-12.9-2.1-25.1-6.2-36.2l1.9-1.2
		c28.9-2.5,48.5,11.6,49.1,50.2c0,0,0,27.1,0,32c0,2.5-4.2,22.2-17.2,40.7l-1.6,1.3C216.5,185.1,201.5,169.6,190.1,157.9z
		 M161.1,109.4l-0.4,0.7c-0.3-5.6,0.6-9.1,0.6-9.1l0,0C161.4,103.9,161.3,106.8,161.1,109.4z M195.4,227.5
		c-7.7,2.7-16.5,4.3-26.4,4.3h-6.4h-8.2c-11.6,0-21.7-2.2-30.3-5.8l-1.3-1.1c13.3-13,26.9-26.3,37.8-36.8l36.7,38L195.4,227.5z
		 M296.8,162.2c0-7.5,0-49.1,0-49.1c0-49.2-39.9-89.2-89.1-89.2c-14.7,0-28.6,3.6-40.8,9.9l-2.4,1.9C151.3,28.3,135.1,24,115.9,24
		c-49.2,0-89.1,39.9-89.1,89.2c0,0,0,36.6,0,49.1c0,6.7,6.8,38.4,28.2,66.6l1.4,1.3l-11.9,11.5c0,0-17.1,16.5-5,30.9
		c12.1,14.4,29.2,5.6,32.5,2.3c0.9-0.9,7.2-7.1,16.4-16.1l1.6,1.4c16.1,9.3,36.1,15.4,60.6,15.4h12.5h9.7c22.4,0,41-5.3,56.3-13.6
		l1.5-1.3l14.4,14.9c0,0,16.5,17.1,30.9,5s5.6-29.2,2.3-32.5c-0.8-0.8-6.5-6.6-14.7-15l1.4-1.2C289.2,201.7,296.8,166.5,296.8,162.2
		z M89,195.8c-11.6-17.6-15.3-35.5-15.3-37.9c0-4.9,0-32,0-32s-4.4-61.1,46.9-61.1c2.5,0,4.8,0.1,7,0.3l0,0c0,0-12.9,28.7-9.5,55.8
		c1.5,12.1,8.2,24.8,15.1,35l-42.6,41.2L89,195.8z"/>
	<g>
		<path class="st12" d="M55,228.9c-21.5-28.2-28.2-59.9-28.2-66.6c0-12.5,0-49.1,0-49.1c0-49.2,39.9-89.2,89.1-89.2l0,0
			c58.7,0,89.2,39.9,89.2,89.2c0,0,2.5,17.8-13.8,43.5"/>
		<path class="st12" d="M229.2,261.9c-15.3,8.3-33.9,13.6-56.3,13.6h-9.7h-12.5c-24.5,0-44.5-6-60.6-15.4"/>
		<path class="st12" d="M264.9,231.8c24.3-30.1,31.9-65.3,31.9-69.5c0-7.5,0-49.1,0-49.1c0-49.2-39.9-89.2-89.1-89.2l0,0
			c-14.7,0-28.6,3.6-40.8,9.9"/>
		<path class="st12" d="M89,195.8c-11.6-17.6-15.3-35.5-15.3-37.9c0-4.9,0-32,0-32s-4.4-61.1,46.9-61.1c38.7,0,42,27.7,40.5,44.6"/>
		<path class="st12" d="M195.4,227.5c-7.7,2.7-16.5,4.3-26.4,4.3h-6.4h-8.2c-11.6,0-21.7-2.2-30.3-5.8"/>
		<path class="st12" d="M232.6,198.5c13.1-18.4,17.2-38.1,17.2-40.7c0-4.9,0-32,0-32c-0.6-38.6-20.2-52.7-49.1-50.2"/>
		<path class="st12" d="M127.6,65.1c0,0-12.9,28.7-9.5,55.8s32.5,56.7,32.5,56.7l94.5,97.8c0,0,16.5,17.1,30.9,5s5.6-29.2,2.3-32.5
			c-3.3-3.4-82.8-84-102.6-105.1s-14.3-41.9-14.3-41.9"/>
		<path class="st12" d="M133.2,156l-88.7,85.6c0,0-17.1,16.5-5,30.9s29.2,5.6,32.5,2.3c2.8-2.7,57.3-56.5,88.6-86.7"/>
	</g>
</g>
<g>
	<g>
		<path class="st1" d="M516.7,934.9l-14.5-14.5c0,0,0,0,0,0c4.1,4.1,6.6,9.7,6.6,15.8c0,12.7-10.7,23-23.9,23
			c-6.6,0-12.5-2.6-16.9-6.7l14.5,14.5c4.4,4.4,10.5,7.2,17.4,7.2c13.2,0,23.9-10.3,23.9-23C523.8,944.9,521.1,939.1,516.7,934.9z"
			/>
	</g>
	<g>
		<path class="st6" d="M570.7,1001.8c-0.8-12.5-6.5-24-15.3-32.8l-14.5-14.5c8.5,8.7,14,20,14.8,32.3c1.2,17.4-0.5,28.6-0.5,28.6
			l15,15C570.2,1030.4,571.9,1019.2,570.7,1001.8z"/>
	</g>
	<g>
		<path class="st4" d="M582.2,1086.3l-0.2-10.3c-1.2-13.9-4.6-27.5-10.1-40.4c-6.8-16.1-16.6-30.6-29-43l-15-15
			c12.4,12.4,22.2,26.9,29,43c5.5,12.9,8.8,26.5,10.1,40.4l0.2,10.3c0.1,4.4-1.6,8.5-4.5,11.4l15,15
			C580.6,1094.7,582.3,1090.7,582.2,1086.3z"/>
		<path class="st0" d="M562.8,1082.7c-2.9,3-6.9,4.8-11.4,4.8H313.1c-4.3,0-8.1-1.7-11-4.4l14.5,14.5c2.9,3,7,4.9,11.5,4.9h238.3
			c4.5,0,8.5-1.9,11.4-4.8L562.8,1082.7z"/>
	</g>
	<g>
		<path class="st1" d="M582.5,1031.1c-1.2-3.1-2.9-5.7-5.1-7.7l-14.5-14.5c0,0,0,0,0,0c1.9,2,3.5,4.4,4.6,7.2
			c3.1,8.1,0.9,16.8-4.8,21.1l15,15C583.5,1047.9,585.6,1039.3,582.5,1031.1z"/>
	</g>
	<g>
		<ellipse class="st15" cx="484.9" cy="936.2" rx="23.9" ry="23"/>
		<g>
			<path class="st11" d="M555.2,1015.4c0,0,1.7-11.1,0.5-28.6c-1-14.1-8-27-18.8-36.1s-24.7-13.8-38.8-12.3c-17.4,1.9-28,5.4-28,5.4
				L555.2,1015.4z"/>
		</g>
		<g>
			<ellipse class="st15" cx="379.6" cy="936.2" rx="23.9" ry="23"/>
			
				<ellipse transform="matrix(0.9344 -0.3562 0.3562 0.9344 -327.6608 263.8856)" class="st15" cx="552.8" cy="1021.8" rx="15.8" ry="18.6"/>
			
				<ellipse transform="matrix(0.3562 -0.9344 0.9344 0.3562 -754.0622 949.1064)" class="st15" cx="311.7" cy="1021.8" rx="18.6" ry="15.8"/>
			<g>
				<path class="st11" d="M309.3,1015.4c0,0-1.7-11.1-0.5-28.6c1-14.1,8-27,18.8-36.1c10.8-9.1,24.7-13.8,38.8-12.3
					c17.4,1.9,28,5.4,28,5.4L309.3,1015.4z"/>
			</g>
			<g>
				<path class="st11" d="M376.5,952c0,0,5.9-16.5,18-29c9.8-10.2,23.5-15.5,37.6-15.5s27.8,5.3,37.6,15.5c12.1,12.6,18,29,18,29
					H376.5z"/>
			</g>
		</g>
	</g>
	<path class="st5" d="M297.3,1071.3l0.2-10.3c1.2-13.9,4.6-27.5,10.1-40.4c6.8-16.1,16.6-30.6,29-43c12.4-12.4,26.9-22.2,43-29
		c16.7-7.1,34.4-10.6,52.7-10.6c18.3,0,36,3.6,52.7,10.6c16.1,6.8,30.6,16.6,43,29c12.4,12.4,22.2,26.9,29,43
		c5.5,12.9,8.8,26.5,10.1,40.4l0.2,10.3c0.2,8.9-7,16.2-15.9,16.2H313.1C304.2,1087.5,297,1080.2,297.3,1071.3z"/>
</g>
<g>
	<g>
		<g>
			<path class="st7" d="M1033.8,675.7c6.9,5.8,15.6,8.9,24.6,8.9c9,0,17.7-3.1,24.6-8.9c6.9,5.8,15.6,8.9,24.6,8.9
				c9,0,17.7-3.1,24.6-8.9c6.9,5.8,15.6,8.9,24.6,8.9c21.3,0,38.6-17.3,38.6-38.6c0-10.7-4.3-20.4-11.4-27.4l14.3,14.3
				c7.6,7.1,12.1,17.1,12.1,28.2c0,21.3-17.3,38.6-38.6,38.6c-9,0-17.7-3.1-24.6-8.9c-6.9,5.8-15.6,8.9-24.6,8.9
				c-9,0-17.7-3.1-24.6-8.9c-6.9,5.8-15.6,8.9-24.6,8.9c-9,0-17.7-3.1-24.6-8.9c-6.9,5.8-15.6,8.9-24.6,8.9
				c-10.8,0-20.6-4.5-27.6-11.7l-14.3-14.3h0c7,6.8,16.5,11,26.9,11C1018.2,684.6,1026.8,681.5,1033.8,675.7z"/>
			<path class="st7" d="M1167.1,608.8c-4.7-18.3-12.3-32.7-22.9-43.2c0,0,0,0,0,0l14.3,14.3c9.1,8.7,16,20.3,20.9,34.7"/>
		</g>
		<g>
			<path class="st0" d="M1100.4,549.9c0-4.6-1.8-8.8-4.8-11.9l14.4,14.4c3.4,3.2,5.5,7.7,5.5,12.6c0,9.6-7.8,17.4-17.4,17.4
				c-5,0-9.5-2.1-12.6-5.5l-14.4-14.4c0,0,0,0,0,0c3.1,2.9,7.3,4.8,11.9,4.8C1092.6,567.3,1100.4,559.5,1100.4,549.9z"/>
		</g>
		<g>
			<path class="st0" d="M1015.1,757.5H1151c1.2,0,2.3-0.4,3.1-1.1l15,15c-0.9,0.7-2,1.1-3.1,1.1h-135.9c-1.6,0-3-0.7-3.9-1.9
				l-14.3-14.3C1012.7,757.1,1013.9,757.5,1015.1,757.5z"/>
		</g>
		<path class="st4" d="M1156,753.2l11.6-74.2l-84.2-22l-84.8,22l11.5,74.1c0.4,2.5,2.5,4.3,5,4.3H1151
			C1153.5,757.5,1155.6,755.7,1156,753.2z"/>
		<path class="st8" d="M1107,546.6c31.4,6.2,50.9,27,60.1,62.2c17.3,4.7,29.1,20.5,28.4,38.7c-0.7,17.6-13.4,32.8-30.7,36.3
			c-11.6,2.4-23.1-0.5-32-7.7c-0.3-0.3-0.8-0.3-1.1,0c-6.8,5.5-15.3,8.5-24.1,8.5c-8.8,0-17.2-3-24.1-8.5c-0.3-0.3-0.8-0.3-1.1,0
			c-6.8,5.5-15.3,8.5-24.1,8.5c-8.8,0-17.2-3-24.1-8.5c-0.3-0.3-0.8-0.3-1.1,0c-8.9,7.1-20.4,10-32,7.7c-17.2-3.5-30-18.7-30.7-36.3
			c-0.7-18.2,11.1-34.1,28.5-38.8c10.2-34.9,29.7-55.8,59.9-62C1075.1,543.5,1091.2,543.4,1107,546.6z"/>
		<path class="st12" d="M1035.2,700.3v32"/>
		<path class="st12" d="M1059.3,700.3v32"/>
		<path class="st12" d="M1083.4,700.3v32"/>
		<path class="st12" d="M1107.5,700.3v32"/>
		<path class="st12" d="M1131.6,700.3v32"/>
		<g>
			<path class="st12" d="M1149.8,639.5l7.8-7.8"/>
			<path class="st12" d="M1149.8,648l7.8,7.8"/>
			<path class="st12" d="M1134.1,655.9l7.8-7.8"/>
			<path class="st12" d="M1134.1,631.6l7.8,7.8"/>
		</g>
		<g>
			<path class="st12" d="M1108.1,639.5l7.8-7.8"/>
			<path class="st12" d="M1108.1,648l7.8,7.8"/>
			<path class="st12" d="M1092.4,655.9l7.8-7.8"/>
			<path class="st12" d="M1092.4,631.6l7.8,7.8"/>
		</g>
		<g>
			<path class="st12" d="M1066.5,639.5l7.8-7.8"/>
			<path class="st12" d="M1066.5,648l7.8,7.8"/>
			<path class="st12" d="M1050.8,655.9l7.8-7.8"/>
			<path class="st12" d="M1050.8,631.6l7.8,7.8"/>
		</g>
		<g>
			<path class="st12" d="M1024.8,639.5l7.8-7.8"/>
			<path class="st12" d="M1024.8,648l7.8,7.8"/>
			<path class="st12" d="M1009.2,655.9l7.8-7.8"/>
			<path class="st12" d="M1009.2,631.6l7.8,7.8"/>
		</g>
		<circle class="st16" cx="1083" cy="549.9" r="17.4"/>
	</g>
	<g>
		<path class="st2" d="M1156,753.2l11-70.1l15,15l-11,70.1c-0.2,1.3-0.9,2.4-1.8,3.1l-15-15C1155.1,755.6,1155.8,754.5,1156,753.2z"
			/>
	</g>
</g>
<g>
	<polygon class="st2" points="1125.8,292.5 1135.5,97.5 1120.5,82.5 1111,277.7 	"/>
	<polygon class="st0" points="1125.8,292.5 920.3,292.5 905.3,277.5 1110.8,277.5 	"/>
	<polygon class="st4" points="895.5,82.5 905.3,277.5 1110.8,277.5 1120.5,82.5 	"/>
</g>
<g>
	<polygon class="st4" points="2030.5,946.3 2030.5,853.9 2015.5,838.9 2015.5,931.3 	"/>
	<polygon class="st4" points="1858.8,946.3 1858.8,853.9 1843.8,838.9 1843.8,931.3 	"/>
	<polygon class="st4" points="1907.9,967.9 1938.1,847.3 1923.1,832.3 1892.9,952.9 	"/>
	<polygon class="st4" points="2014.9,955.2 1994.6,832.5 1979.6,817.5 1999.9,940.2 	"/>
	<polygon class="st6" points="2025.8,1102.5 2035.5,926.5 2020.5,911.5 2011,1087.7 	"/>
	<polygon class="st0" points="2025.8,1102.5 1835.3,1102.5 1820.3,1087.5 2010.8,1087.5 	"/>
	<polygon class="st4" points="1944.8,994 1944.8,869.6 1929.8,854.6 1929.8,979 	"/>
	<rect x="1989.2" y="838.9" class="st5" width="26.4" height="92.4"/>
	<rect x="1944.4" y="890.2" class="st5" width="25.1" height="73"/>
	<path class="st5" d="M1843.8,931.3h-26.4v-92.4h26.4V931.3z"/>
	<path class="st5" d="M1912.9,974.9h-25.1v-73h25.1V974.9z"/>
	<path class="st5" d="M1878.6,960.6l-26.1-3.7l10.9-75.9l26.1,3.7L1878.6,960.6z"/>
	
		<rect x="1833" y="876.2" transform="matrix(0.2434 -0.9699 0.9699 0.2434 571.3118 2511.1265)" class="st5" width="124.4" height="26.4"/>
	<rect x="1903.4" y="854.6" class="st5" width="26.4" height="124.4"/>
	
		<rect x="1963.5" y="818.8" transform="matrix(0.9866 -0.1634 0.1634 0.9866 -117.3746 334.7854)" class="st5" width="26.4" height="124.4"/>
	
		<rect x="1887.5" y="891.2" transform="matrix(0.2434 -0.9699 0.9699 0.2434 598.01 2575.332)" class="st5" width="124.4" height="26.4"/>
	
		<rect x="1852.7" y="862.4" transform="matrix(0.9736 -0.2283 0.2283 0.9736 -161.7968 450.3867)" class="st5" width="26.4" height="124.4"/>
	<path class="st3" d="M1915.5,948.7c-22.1,0-41.9-14-49.2-34.8l-0.8-2.3h-54.9l9.7,176h190.5l9.7-176h-54.9l-0.8,2.3
		C1957.4,934.7,1937.6,948.7,1915.5,948.7z"/>
</g>
<g>
	<polygon class="st4" points="1685.5,151.3 1685.5,58.9 1670.5,43.9 1670.5,136.3 	"/>
	<polygon class="st4" points="1513.8,151.3 1513.8,58.9 1498.8,43.9 1498.8,136.3 	"/>
	<polygon class="st4" points="1562.9,172.9 1593.1,52.3 1578.1,37.3 1547.9,157.9 	"/>
	<polygon class="st4" points="1669.9,160.2 1649.6,37.5 1634.6,22.5 1654.9,145.2 	"/>
	<polygon class="st3" points="1680.8,292.5 1690.5,131.5 1675.5,116.5 1666,277.7 	"/>
	<polygon class="st0" points="1680.8,292.5 1490.3,292.5 1475.3,277.5 1665.8,277.5 	"/>
	<polygon class="st4" points="1599.8,199 1599.8,74.6 1584.8,59.6 1584.8,184 	"/>
	<rect x="1644.2" y="43.9" class="st5" width="26.4" height="92.4"/>
	<rect x="1599.4" y="95.2" class="st5" width="25.1" height="73"/>
	<path class="st5" d="M1498.8,136.3h-26.4V43.9h26.4V136.3z"/>
	<path class="st5" d="M1567.9,179.9h-25.1v-73h25.1V179.9z"/>
	<path class="st5" d="M1533.6,165.6l-26.1-3.7l10.9-75.9l26.1,3.7L1533.6,165.6z"/>
	
		<rect x="1488" y="81.2" transform="matrix(0.2434 -0.9699 0.9699 0.2434 1081.3751 1575.0004)" class="st5" width="124.4" height="26.4"/>
	<rect x="1558.4" y="59.6" class="st5" width="26.4" height="124.4"/>
	
		<rect x="1618.5" y="23.8" transform="matrix(0.9866 -0.1634 0.1634 0.9866 7.8736 267.7391)" class="st5" width="26.4" height="124.4"/>
	
		<rect x="1542.5" y="96.2" transform="matrix(0.2434 -0.9699 0.9699 0.2434 1108.0734 1639.2062)" class="st5" width="124.4" height="26.4"/>
	
		<rect x="1507.7" y="67.4" transform="matrix(0.9736 -0.2283 0.2283 0.9736 10.5901 350.6283)" class="st5" width="26.4" height="124.4"/>
	<path class="st6" d="M1570.5,153.7c-22.1,0-41.9-14-49.2-34.8l-0.8-2.3h-54.9l9.7,161h190.5l9.7-161h-54.9l-0.8,2.3
		C1612.4,139.7,1592.6,153.7,1570.5,153.7z"/>
</g>
<g>
	<polygon class="st0" points="1210.5,292.5 1420.5,292.5 1405.5,277.5 1195.5,277.5 	"/>
	<path class="st0" d="M1216.7,132.2c-11.7-11.7-30.7-11.7-42.4,0c-5.9,5.9-8.8,13.5-8.8,21.2s2.9,15.4,8.8,21.2l14,14
		c11.7,11.7,30.7,11.7,42.4,0c5.9-5.9,8.8-13.5,8.8-21.2s-2.9-15.4-8.8-21.2L1216.7,132.2z"/>
	<g>
		<polygon class="st7" points="1405.5,277.5 1420.5,292.5 1420.5,37.5 1405.5,22.5 		"/>
	</g>
	
		<rect x="1195.5" y="22.5" transform="matrix(-1 8.337896e-11 -8.337896e-11 -1 2601.0632 300)" class="st2" width="210" height="255"/>
	<path class="st5" d="M1216.7,174.6c5.9-5.9,8.8-13.5,8.8-21.2c0-7.7-2.9-15.4-8.8-21.2c-11.7-11.7-30.7-11.7-42.4,0
		c-5.9,5.9-8.8,13.5-8.8,21.2c0,7.7,2.9,15.4,8.8,21.2C1186,186.4,1205,186.4,1216.7,174.6z"/>
	<polygon class="st17" points="1213.1,145.6 1206.9,139.4 1190.8,155.6 1184.6,149.3 1178.4,155.5 1190.8,167.9 1190.8,167.9 
		1190.8,167.9 	"/>
</g>
<g>
	<polygon class="st0" points="2110.5,1102.5 2320.5,1102.5 2305.5,1087.5 2095.5,1087.5 	"/>
	<path class="st0" d="M2116.7,942.2c-11.7-11.7-30.7-11.7-42.4,0c-5.9,5.9-8.8,13.5-8.8,21.2s2.9,15.4,8.8,21.2l14,14
		c11.7,11.7,30.7,11.7,42.4,0c5.9-5.9,8.8-13.5,8.8-21.2s-2.9-15.4-8.8-21.2L2116.7,942.2z"/>
	<g>
		<polygon class="st2" points="2305.5,1087.5 2320.5,1102.5 2320.5,847.5 2305.5,832.5 		"/>
	</g>
	
		<rect x="2095.5" y="832.5" transform="matrix(-1 -1.224647e-16 1.224647e-16 -1 4401.063 1920)" class="st4" width="210" height="255"/>
	<path class="st7" d="M2116.7,984.6c5.9-5.9,8.8-13.5,8.8-21.2s-2.9-15.4-8.8-21.2c-11.7-11.7-30.7-11.7-42.4,0
		c-5.9,5.9-8.8,13.5-8.8,21.2s2.9,15.4,8.8,21.2C2086,996.4,2105,996.4,2116.7,984.6z"/>
	<polygon class="st17" points="2113.1,955.6 2106.9,949.4 2090.8,965.6 2084.6,959.3 2078.4,965.5 2090.8,977.9 2090.8,977.9 
		2090.8,977.9 	"/>
</g>
<g>
	<circle class="st2" cx="415.5" cy="472.5" r="135"/>
	<g>
		<g>
			<path class="st12" d="M511.3,377.4c-24.5,21.5-58.9,34.8-97,34.8c-37.4,0-71.3-12.9-95.7-33.7"/>
			<path class="st12" d="M318.7,566.5c24.4-20.8,58.3-33.7,95.7-33.7c38.1,0,72.4,13.4,97,34.8"/>
		</g>
		<circle class="st12" cx="415.5" cy="472.5" r="135"/>
		<path class="st12" d="M413.8,607.5c38.4-16.3,66.5-70.5,66.5-135s-28.2-118.7-66.5-135"/>
		<circle class="st12" cx="415.5" cy="472.5" r="135"/>
		<path class="st12" d="M417.3,337.5c-38.4,16.3-66.5,70.5-66.5,135s28.2,118.7,66.5,135"/>
		<line class="st12" x1="280.5" y1="472.5" x2="550.5" y2="472.5"/>
		<line class="st12" x1="415.5" y1="337.5" x2="415.5" y2="607.5"/>
	</g>
</g>
<g>
	<polygon class="st4" points="1120.5,82.5 1008,181 895.5,82.5 	"/>
	<polygon class="st4" points="1008,181 1110.8,277.5 905.3,277.5 	"/>
</g>
<g>
	<path class="st0" d="M2320.5,500.7c-10.2,5-20.7,7.9-32.1,8.8c-44.1,3.9-101.2-22.2-145-18.8c-9.5,0.8-24.4,3.1-32.9,6.9l-15-15
		c8.5-3.8,23.3-6.1,32.9-6.9c43.8-3.4,100.9,22.7,145,18.8c11.5-1,21.9-3.9,32.1-8.8L2320.5,500.7z"/>
	<polygon class="st6" points="2320.5,500.7 2320.5,372.3 2305.5,357.3 2305.5,485.7 	"/>
	<g>
		<path class="st11" d="M2127.7,345.5c44.1-3.9,98.8,18.8,145,18.8c18.8,0,32.9-6.9,32.9-6.9v128.4c-10.2,5-20.7,7.9-32.1,8.8
			c-44.1,3.9-101.2-22.2-145-18.8c-9.5,0.8-24.4,3.1-32.9,6.9V354.3C2105.7,349.3,2116.2,346.4,2127.7,345.5z"/>
		<path class="st11" d="M2168.6,427.8c-1.4-6.6-1.5-13.5,0.1-20.3c3.7-16,15.5-26.8,29.4-26.8c4.1,0,8.3,1,12.2,2.9
			c16.9,8.2,26.6,30.3,22,50.3c-3.7,16-15.5,26.8-29.4,26.8c-4.1,0-8.3-1-12.2-2.9C2179.5,452.4,2171.4,440.9,2168.6,427.8"/>
		<g>
			<path class="st11" d="M2305.5,379.4c-0.1,0-0.3,0-0.4,0c-9.9,0-18.3-6.8-20.6-16.1"/>
			<path class="st11" d="M2285.1,492.9c-0.8-2.2-1.2-4.6-1.2-7.1c0-11.7,9.5-21.2,21.2-21.2c0.1,0,0.3,0,0.4,0"/>
			<path class="st11" d="M2115.5,347.3c0.8,2.2,1.3,4.7,1.3,7.2c0,11.7-9.5,21.2-21.2,21.2"/>
			<path class="st11" d="M2095.5,460.1c10.4,0,19,7.4,20.9,17.2"/>
		</g>
	</g>
</g>
<g>
	<g>
		<path class="st0" d="M2278,285h-160c-6.1,0-11.7-2.5-15.8-6.4l14.7,14.7c4.1,4.2,9.8,6.7,16.1,6.7h160L2278,285z"/>
	</g>
	<path class="st0" d="M2211.4,303.9c6.8,6.9,16.2,11.1,26.7,11.1c20.7,0,37.5-16.8,37.5-37.5c0-10.4-4.3-19.9-11.1-26.7l-14.7-14.7
		c-6.8-6.9-16.2-11.1-26.7-11.1c-20.7,0-37.5,16.8-37.5,37.5c0,10.4,4.3,19.9,11.1,26.7L2211.4,303.9z"/>
	<g>
		<path class="st2" d="M2308.8,261.4l-14.7-14.7c0,0,0,0,0,0c4,4.1,6.4,9.6,6.4,15.8v0c0,12.4-10.1,22.5-22.5,22.5l15,15
			c12.4,0,22.5-10.1,22.5-22.5v0C2315.5,271.2,2312.9,265.5,2308.8,261.4z"/>
	</g>
	<path class="st7" d="M2118,240h160c12.4,0,22.5,10.1,22.5,22.5v0c0,12.4-10.1,22.5-22.5,22.5h-160c-12.4,0-22.5-10.1-22.5-22.5v0
		C2095.5,250.1,2105.6,240,2118,240z"/>
	<circle class="st4" cx="2223" cy="262.5" r="37.5"/>
	<polygon class="st0" points="2241.8,256.6 2227.7,256.6 2227.7,242.6 2218.3,242.6 2218.3,256.6 2204.3,256.6 2204.3,266 
		2218.3,266 2218.3,280.1 2227.7,280.1 2227.7,266 2241.8,266 	"/>
</g>
<line class="st12" x1="1026.2" y1="181" x2="1039.5" y2="181"/>
<line class="st12" x1="976.5" y1="181" x2="989.9" y2="181"/>
<g>
	<g>
		<g>
			<path class="st2" d="M2143.8,685.7c6.9,5.8,15.6,8.9,24.6,8.9c9,0,17.7-3.1,24.6-8.9c6.9,5.8,15.6,8.9,24.6,8.9
				c9,0,17.7-3.1,24.6-8.9c6.9,5.8,15.6,8.9,24.6,8.9c21.3,0,38.6-17.3,38.6-38.6c0-10.7-4.3-20.4-11.4-27.4l14.3,14.3
				c7.6,7.1,12.1,17.1,12.1,28.2c0,21.3-17.3,38.6-38.6,38.6c-9,0-17.7-3.1-24.6-8.9c-6.9,5.8-15.6,8.9-24.6,8.9
				c-9,0-17.7-3.1-24.6-8.9c-6.9,5.8-15.6,8.9-24.6,8.9c-9,0-17.7-3.1-24.6-8.9c-6.9,5.8-15.6,8.9-24.6,8.9
				c-10.8,0-20.6-4.5-27.6-11.7l-14.3-14.3l0,0c7,6.8,16.5,11,26.9,11C2128.2,694.6,2136.8,691.5,2143.8,685.7z"/>
			<path class="st2" d="M2277.1,618.8c-4.7-18.3-12.3-32.7-22.9-43.2c0,0,0,0,0,0l14.3,14.3c9.1,8.7,16,20.3,20.9,34.7"/>
		</g>
		<g>
			<path class="st0" d="M2210.4,559.9c0-4.6-1.8-8.8-4.8-11.9l14.4,14.4c3.4,3.2,5.5,7.7,5.5,12.6c0,9.6-7.8,17.4-17.4,17.4
				c-5,0-9.5-2.1-12.6-5.5l-14.4-14.4c0,0,0,0,0,0c3.1,2.9,7.3,4.8,11.9,4.8C2202.6,577.3,2210.4,569.5,2210.4,559.9z"/>
		</g>
		<g>
			<path class="st0" d="M2125.1,767.5H2261c1.2,0,2.3-0.4,3.1-1.1l15,15c-0.9,0.7-2,1.1-3.1,1.1h-135.9c-1.6,0-3-0.7-3.9-1.9
				l-14.3-14.3C2122.7,767.1,2123.9,767.5,2125.1,767.5z"/>
		</g>
		<path class="st8" d="M2266,763.2l11.6-74.2l-84.2-22l-84.8,22l11.5,74.1c0.4,2.5,2.5,4.3,5,4.3H2261
			C2263.5,767.5,2265.6,765.7,2266,763.2z"/>
		<path class="st7" d="M2217,556.6c31.4,6.2,50.9,27,60.1,62.2c17.3,4.7,29.1,20.5,28.4,38.7c-0.7,17.6-13.4,32.8-30.7,36.3
			c-11.6,2.4-23.1-0.5-32-7.7c-0.3-0.3-0.8-0.3-1.1,0c-6.8,5.5-15.3,8.5-24.1,8.5c-8.8,0-17.2-3-24.1-8.5c-0.3-0.3-0.8-0.3-1.1,0
			c-6.8,5.5-15.3,8.5-24.1,8.5c-8.8,0-17.2-3-24.1-8.5c-0.3-0.3-0.8-0.3-1.1,0c-8.9,7.1-20.4,10-32,7.7c-17.2-3.5-30-18.7-30.7-36.3
			c-0.7-18.2,11.1-34.1,28.5-38.8c10.2-34.9,29.7-55.8,59.9-62C2185.1,553.5,2201.2,553.4,2217,556.6z"/>
		<path class="st12" d="M2145.2,710.3v32"/>
		<path class="st12" d="M2169.3,710.3v32"/>
		<path class="st12" d="M2193.4,710.3v32"/>
		<path class="st12" d="M2217.5,710.3v32"/>
		<path class="st12" d="M2241.6,710.3v32"/>
		<g>
			<path class="st12" d="M2259.8,649.5l7.8-7.8"/>
			<path class="st12" d="M2259.8,658l7.8,7.8"/>
			<path class="st12" d="M2244.1,665.9l7.8-7.8"/>
			<path class="st12" d="M2244.1,641.6l7.8,7.8"/>
		</g>
		<g>
			<path class="st12" d="M2218.1,649.5l7.8-7.8"/>
			<path class="st12" d="M2218.1,658l7.8,7.8"/>
			<path class="st12" d="M2202.4,665.9l7.8-7.8"/>
			<path class="st12" d="M2202.4,641.6l7.8,7.8"/>
		</g>
		<g>
			<path class="st12" d="M2176.5,649.5l7.8-7.8"/>
			<path class="st12" d="M2176.5,658l7.8,7.8"/>
			<path class="st12" d="M2160.8,665.9l7.8-7.8"/>
			<path class="st12" d="M2160.8,641.6l7.8,7.8"/>
		</g>
		<g>
			<path class="st12" d="M2134.8,649.5l7.8-7.8"/>
			<path class="st12" d="M2134.8,658l7.8,7.8"/>
			<path class="st12" d="M2119.2,665.9l7.8-7.8"/>
			<path class="st12" d="M2119.2,641.6l7.8,7.8"/>
		</g>
		<circle class="st16" cx="2193" cy="559.9" r="17.4"/>
	</g>
	<g>
		<path class="st4" d="M2266,763.2l11-70.1l15,15l-11,70.1c-0.2,1.3-0.9,2.4-1.8,3.1l-15-15C2265.1,765.6,2265.8,764.5,2266,763.2z"
			/>
	</g>
</g>
</svg>
