<svg version="1.1" id="svg1936" xmlns="http://www.w3.org/2000/svg" x="0" y="0" viewBox="0 0 450 450" style="enable-background:new 0 0 450 450" xml:space="preserve">
  <style>
    .st0{fill:#f90}.st0,.st1{fill-rule:evenodd;clip-rule:evenodd}
  </style>
  <switch>
    <g>
      <path id="path8" class="st0" d="M255 246.2c-14.5 10.7-35.5 16.4-53.6 16.4-25.4 0-48.2-9.4-65.5-25-1.4-1.2-.1-2.9 1.5-1.9 18.7 10.9 41.7 17.4 65.5 17.4 16.1 0 33.7-3.3 50-10.2 2.5-1.1 4.5 1.5 2.1 3.3"/>
      <path id="path10" class="st0" d="M261.1 239.3c-1.8-2.4-12.3-1.1-16.9-.6-1.4.2-1.6-1.1-.4-2 8.3-5.8 21.9-4.2 23.5-2.2 1.6 2-.4 15.6-8.2 22.1-1.2 1-2.3.5-1.8-.9 1.7-4.2 5.6-14 3.8-16.4"/>
      <path id="path12" class="st1" d="M244.5 195.6v-5.7c0-.9.7-1.4 1.4-1.4h25.4c.8 0 1.5.6 1.5 1.4v4.9c0 .8-.7 1.9-1.9 3.6l-13.2 18.8c4.9-.1 10 .6 14.5 3.1 1 .6 1.3 1.4 1.3 2.2v6.1c0 .8-.9 1.8-1.9 1.3-7.8-4.1-18.2-4.5-26.8 0-.9.5-1.8-.5-1.8-1.3v-5.7c0-.9 0-2.5.9-3.9l15.2-21.9h-13.3c-.7-.1-1.3-.6-1.3-1.5"/>
      <path id="path14" class="st1" d="M151.9 231h-7.7c-.7-.1-1.3-.6-1.4-1.3V190c0-.8.7-1.4 1.5-1.4h7.2c.7 0 1.3.6 1.4 1.3v5.2h.1c1.9-5 5.4-7.3 10.2-7.3 4.8 0 7.9 2.3 10 7.3 1.9-5 6.1-7.3 10.7-7.3 3.2 0 6.8 1.3 8.9 4.3 2.4 3.3 1.9 8.2 1.9 12.4v25c0 .8-.7 1.4-1.5 1.4h-7.7c-.8-.1-1.4-.7-1.4-1.4v-21c0-1.7.2-5.8-.2-7.4-.6-2.7-2.3-3.4-4.5-3.4-1.9 0-3.8 1.2-4.6 3.2s-.7 5.3-.7 7.6v21c0 .8-.7 1.4-1.5 1.4h-7.7c-.8-.1-1.4-.7-1.4-1.4v-21c0-4.4.7-10.9-4.8-10.9-5.6 0-5.3 6.3-5.3 10.9v21c-.1.9-.7 1.5-1.5 1.5"/>
      <path id="path16" class="st1" d="M294.6 187.8c11.5 0 17.7 9.8 17.7 22.4 0 12.1-6.9 21.7-17.7 21.7-11.3 0-17.4-9.8-17.4-22.1 0-12.4 6.2-22 17.4-22m.1 8.1c-5.7 0-6.1 7.8-6.1 12.6s-.1 15.2 6 15.2c6 0 6.3-8.3 6.3-13.4 0-3.3-.1-7.3-1.2-10.5-.8-2.9-2.6-3.9-5-3.9"/>
      <path id="path18" class="st1" d="M327.2 231h-7.7c-.8-.1-1.4-.7-1.4-1.4v-39.7c.1-.7.7-1.3 1.5-1.3h7.2c.7 0 1.2.5 1.4 1.1v6.1h.1c2.2-5.4 5.2-8 10.5-8 3.5 0 6.8 1.2 9 4.7 2 3.2 2 8.5 2 12.3v25c-.1.7-.7 1.2-1.5 1.2h-7.7c-.7-.1-1.3-.6-1.4-1.2v-21.5c0-4.3.5-10.7-4.8-10.7-1.9 0-3.6 1.3-4.5 3.2-1.1 2.4-1.2 4.8-1.2 7.5v21.3c0 .8-.7 1.4-1.5 1.4"/>
      <path id="path28" class="st1" d="M224.2 212.1c0 3 .1 5.5-1.4 8.2-1.2 2.2-3.2 3.5-5.3 3.5-3 0-4.7-2.3-4.7-5.6 0-6.6 5.9-7.8 11.5-7.8l-.1 1.7m7.8 18.8c-.5.5-1.2.5-1.8.2-2.6-2.1-3-3.1-4.4-5.1-4.2 4.3-7.2 5.6-12.7 5.6-6.5 0-11.6-4-11.6-12 0-6.3 3.4-10.5 8.2-12.6 4.2-1.8 10-2.2 14.5-2.7v-1c0-1.8.1-4-.9-5.6-.9-1.4-2.7-2-4.3-2-2.9 0-5.6 1.5-6.2 4.6-.1.7-.6 1.4-1.3 1.4l-7.5-.8c-.6-.1-1.3-.7-1.2-1.6 1.7-9.1 9.9-11.8 17.3-11.8 3.8 0 8.7 1 11.6 3.8 3.8 3.5 3.4 8.2 3.4 13.3v12c0 3.6 1.5 5.2 2.9 7.2.5.7.6 1.5 0 2.1-1.6 1.2-4.4 3.6-6 5"/>
      <path id="path30" class="st1" d="M123 212.1c0 3 .1 5.5-1.4 8.2-1.2 2.2-3.2 3.5-5.3 3.5-3 0-4.7-2.3-4.7-5.6 0-6.6 5.9-7.8 11.5-7.8v1.7m7.7 18.8c-.5.5-1.2.5-1.8.2-2.6-2.1-3-3.1-4.4-5.1-4.2 4.3-7.2 5.6-12.7 5.6-6.5 0-11.6-4-11.6-12 0-6.3 3.4-10.5 8.2-12.6 4.2-1.8 10-2.2 14.5-2.7v-1c0-1.8.1-4-.9-5.6-.9-1.4-2.7-2-4.3-2-2.9 0-5.6 1.5-6.2 4.6-.1.7-.6 1.4-1.3 1.4l-7.5-.8c-.6-.1-1.3-.7-1.2-1.6 1.7-9.1 9.9-11.8 17.3-11.8 3.8 0 8.7 1 11.6 3.8 3.8 3.5 3.4 8.2 3.4 13.3v12c0 3.6 1.5 5.2 2.9 7.2.5.7.6 1.5 0 2.1-1.7 1.2-4.5 3.6-6 5"/>
    </g>
  </switch>
</svg>