<svg version="1.1" id="Layer_1" xmlns="http://www.w3.org/2000/svg" x="0" y="0" viewBox="0 0 450 450" style="enable-background:new 0 0 450 450" xml:space="preserve">
  <style>
    .st0{fill:#e31837}.st1{fill:#012169}
  </style>
  <switch>
    <g>
      <path class="st0" d="M347.4 240.1c8.8-7.5 21.1-14.8 27.8-17.5-1-.7-2.7-1.6-4.5-2.7-8.7 2.9-18.9 9.3-28 16.5 1.6 1.2 3.2 2.4 4.7 3.7z"/>
      <path class="st1" d="M343.4 219.6c-1.3-.6-2.7-1.2-3.8-1.7-3.3 1.6-7.6 4.1-13 8 1.2.6 2.4 1.4 3.8 2.1 4.1-3.1 8.4-6 13-8.4z"/>
      <path class="st0" d="M351.2 216c-1.6-.9-7.1-2.9-10.9-3.8-1.1.4-2.7 1-3.8 1.5 1.4.4 6.5 1.8 10.9 4 1.2-.5 2.8-1.2 3.8-1.7z"/>
      <path class="st1" d="M332.6 215.5c-4.9 2.3-10 5.3-12.8 7.1 1 .5 2 .8 3.4 1.5 6.2-4.2 11-6.7 12.9-7.6-1.4-.4-2.7-.7-3.5-1z"/>
      <path class="st0" d="M354.9 214.8c1.1-.4 2.4-.7 3.5-1-3.3-1.4-7.3-2.8-11-3.8-.6.2-2.3.6-3.5 1 1.2.3 5.4 1.3 11 3.8zm-20.6 15.6c1.3.8 2.8 1.9 4.1 2.8 9.1-7.1 18.2-12.6 28.1-15.7-1.4-.7-2.6-1.3-4.1-2.1-5.9 1.6-16.1 5.7-28.1 15z"/>
      <path class="st1" d="M74.7 237.9h6.7c3.4 0 5-1.8 5-4.2 0-2-1-3.3-3.2-3.8 1.9-.5 2.8-1.6 2.8-3.3 0-2.2-1.6-3.9-5-3.9h-6.2l-.1 15.2zm5.8-6.5c1.3 0 2.1.6 2.1 1.9 0 1.3-.8 1.9-2.1 1.9h-2.2v-3.8h2.2zm-.4-6.1c1.3 0 2.1.5 2.1 1.8s-.8 1.8-2.1 1.8h-1.8v-3.6h1.8zm19.7-2.7H96l-5.7 15.3h3.8l1-3.2h5.5l1 3.2h3.8c.2 0-5.6-15.3-5.6-15.3zm-1.8 3.7 1.8 5.6h-3.7l1.9-5.6zm26.6-3.7h-3.5v10.2l-6.5-10.2h-3.9v15.3h3.5v-10.2l6.5 10.2h3.9v-15.3zm16 15.3-5-7.8v7.8h-3.7v-15.3h3.7v7.3l4.8-7.3h4.1l-5 7.3 5.5 7.9h-4.4zm17.5-7.7c0 3 1.8 4.9 4.2 4.9 2.4 0 4.2-1.9 4.2-4.9s-1.8-4.9-4.2-4.9c-2.3 0-4.2 1.9-4.2 4.9zm-3.9 0c0-4.5 3.2-8 8.1-8 5 0 8.1 3.5 8.1 8s-3.2 8-8.1 8c-4.9 0-8.1-3.5-8.1-8zm21.4 7.7h3.7v-6h4.8V229h-4.8v-3.4h5.8l.7-2.9h-10.2v15.2zm27.5-15.3h-3.8l-5.7 15.3h3.8l1-3.2h5.5l1 3.2h3.8l-5.6-15.3zm-1.9 3.7 1.8 5.6h-3.7l1.9-5.6zm29.7-3.7h-4.3l-4 8.3-4-8.3h-4.3v15.3h3.3v-10.2l4.9 10.2 4.9-10.2v10.2h3.5v-15.3zm7.3 15.3h10.4V235h-6.7v-3.4h5.3v-2.8h-5.3v-3.2h6.1l.7-2.9h-10.5v15.2zm24.5 0h4l-3.8-6.5c2.1-.6 3.1-2 3.1-4.2 0-2.8-1.7-4.6-5.4-4.6h-5.9v15.3h3.6v-6h1l3.4 6zm-2.8-12.5c1.5 0 2.3.7 2.3 2s-.8 2-2.3 2h-1.6v-3.9c.1-.1 1.6-.1 1.6-.1zm12.4 12.5h3.7v-15.2h-3.7v15.2zm22-4.1c-1.4 1-2.7 1.3-4 1.3-2.8 0-4.8-2-4.8-4.9s2-4.9 4.7-4.9c1.3 0 2.5.3 3.9 1.3v-3.5c-1.3-.7-2.7-1-4.3-1-5.1 0-8.2 3.5-8.3 8 0 4.5 3.1 8 8.3 8 1.7 0 3.2-.3 4.5-1v-3.3zm13.7-11.2h-3.8l-5.7 15.3h3.8l1-3.2h5.5l1 3.2h3.8l-5.6-15.3zm-1.9 3.7 1.8 5.6h-3.7l1.9-5.6z"/>
    </g>
  </switch>
</svg>