<svg version="1.1" id="Layer_1" xmlns="http://www.w3.org/2000/svg" x="0" y="0" viewBox="0 0 450 450" style="enable-background:new 0 0 450 450" xml:space="preserve">
  <style>
    .st0{fill:#005596}
  </style>
  <switch>
    <g>
      <path class="st0" d="M123.2 219.4v-3.7s1-10.5-18.6-10.5c-18.2 0-19.1 10.5-19.1 10.5v18.7s1.5 10.4 19.1 10.4c14.9 0 18.6-7.4 18.6-7.4V224h-18.6v5h8.8v8.3s-.4 2.4-8.8 2.4c-9.7 0-9.2-5.4-9.2-5.4v-18.7s-.5-5.7 9.2-5.7c9.5 0 8.8 5.7 8.8 5.7v3.7h9.8M157.5 218.3v25.3h7.9V224s0-3.2 6.5-3.2 6.5 3.2 6.5 3.2v19.7h7.9v-20.5s-.3-6.7-14.5-6.7c-4.8 0-8 .8-10.2 1.8h.1-4.2M220.6 218.3v25.3h7.9V224s0-3.2 6.5-3.2 6.5 3.2 6.5 3.2v19.7h7.9v-20.5s-.3-6.7-14.5-6.7c-4.8 0-8 .8-10.2 1.8h.1-4.2M300.9 232.7H280s-.1 4.7 0 4.7c0 0 0 3.2 6.5 3.2s6.5-3.2 6.5-3.2v-2.1h7.9v2.1s.6 7.4-14.5 7.4-14.4-7.4-14.4-7.4v-13s-.6-7.4 14.4-7.4c15.1 0 14.5 7.5 14.5 7.5v8.2zm-20.9-8.1v2.9h13v-2.9s0-3.3-6.5-3.3-6.5 3.3-6.5 3.3M332.5 227.9v-3.5s.7-7.5-14.5-7.5c-15 0-14.4 7.4-14.4 7.4v13s-.7 7.4 14.4 7.4 14.5-7.4 14.5-7.4v-3.2h-7.9v3.2s0 3.2-6.5 3.2-6.4-3.2-6.5-3.2v-12.8s.1-3.3 6.8-3.3c6.3 0 6.2 3.2 6.2 3.2v3.4l7.9.1M251.3 217.9h2.5v-6.1h7.9v6.1h8.7v4.3h-8.7v15.6s.4 3.9 8.3 2.9v3.9c-6.8.9-16.3.2-16.3-6.7v-15.6h-2.5l.1-4.4M335.6 205.5s7.9.1 7.9 0v11.6c1.7-.4 3.8-.6 6.5-.6 14.1 0 14.5 6.7 14.5 6.7v20.5h-7.9V224s0-3.2-6.5-3.2-6.5 3.2-6.5 3.2v19.6h-7.9v-38.1M217.9 232.7H197s-.1 4.7 0 4.7c0 0 0 3.2 6.5 3.2s6.5-3.2 6.5-3.2v-2.1h7.9v2.1s.6 7.4-14.5 7.4-14.4-7.4-14.4-7.4v-13s-.6-7.4 14.4-7.4c15.1 0 14.5 7.5 14.5 7.5v8.2zm-20.9-8.1v2.9h13v-2.9s0-3.3-6.5-3.3-6.5 3.3-6.5 3.3M154.9 232.7H134s-.1 4.7 0 4.7c0 0 0 3.2 6.5 3.2s6.5-3.2 6.5-3.2v-2.1h7.9v2.1s.6 7.4-14.5 7.4-14.4-7.4-14.4-7.4v-13s-.6-7.4 14.4-7.4c15.1 0 14.5 7.5 14.5 7.5v8.2zm-21-8.1v2.9h13v-2.9s0-3.3-6.5-3.3c-6.4 0-6.5 3.3-6.5 3.3"/>
    </g>
  </switch>
</svg>