<svg version="1.1" id="svg20633" xmlns="http://www.w3.org/2000/svg" x="0" y="0" viewBox="0 0 450 450" style="enable-background:new 0 0 450 450" xml:space="preserve">
  <style>
    .st0{fill:#234291}
  </style>
  <g id="g40106" transform="matrix(.39045 0 0 .39045 -39.753 24.744)">
    <path id="path39842" class="st0" d="M480.8 363.9H491c10.2.8 20.4 3.7 28.9 9.5 10.2 6.7 17.5 17.5 20.6 29.4 3.8 14.7 2.2 30.6-3.2 44.7-1.8 5-3.6 10-5.3 15 8.3-2.2 16.4-6 22.3-12.3 6.4-6.5 9.6-15.3 11.7-24 15-.1 30 0 45.1 0-7.8 20.6-13.5 42.4-13.1 64.6.1 25.6 9.5 50 12 75.3 1.9 17.1 1.3 34.8-3.6 51.4-4.5 15.5-12.7 30-24 41.6-11.3 11.8-25.4 20.7-40.5 26.6-19.4 7.6-40.5 10.5-61.2 10-24.8-.5-49.9-6.2-71.2-19.2-18.4-11.1-33.5-28.1-41.1-48.4-7.6-20.1-7.1-43.4 2.1-62.9 7.1-15.3 19.8-27.6 34.9-34.9 18.6-9 39.9-11.3 60.3-9.2 2.8-7.4 5.6-14.8 8.6-22.2-17.2-7.4-32.8-19.5-41.8-36.2-13.8-25-10.6-58.9 9.1-79.9 10-11.2 24.4-17.8 39.2-18.9m-11.3 52.5c-3.4 7.6-3.8 16.7-.1 24.2 4 8.3 10.3 16.1 18.9 19.9 1.7-4 3.2-8.1 4.8-12.2 2.4-6.5 5.4-12.8 6.2-19.8.8-5.7 0-12.1-3.8-16.7-3.9-4.7-10.7-6.5-16.5-4.6-4.3 1.6-7.6 5.2-9.5 9.2m47 87.8c-3.4 9.3-7 18.6-10.3 28 10.4 4.9 21.1 9.9 29.2 18.2-5.1 13-10.2 26-15.5 38.9-8-7.9-17.4-14.7-28-18.8-5.7 15.2-11.3 30.4-17 45.6h-44.1c6.6-17.6 13.1-35.2 19.7-52.8-14.4-.4-29 6.9-36.8 19.2-3.3 5.1-5.3 11.3-4.5 17.5.8 13 7.5 25.2 17.5 33.4 13.7 11.3 31.6 16 49 17.3 14.4 1 29.1.1 42.8-4.5 12.4-4 23.8-11.4 31.9-21.7 10.5-13.3 14.6-30.9 13.4-47.6-1.2-12.8-4.3-25.4-6.6-38-2.7-14.2-5-28.7-5-43.2-11.4 4.3-23.4 7.2-35.7 8.5"/>
    <path id="path39846" d="M588.5 409.7c22.7-17.2 34.2-26.9 41.6-39.6 10.3-17.9 4.1-33.2-9-39.1-12.3-5.6-26.8-.3-32.5 11.7-5.7-12-20.3-17.3-32.5-11.7-13.1 5.9-19.4 21.2-9 39.1 7.2 12.7 18.7 22.4 41.4 39.6" style="fill:#e32123"/>
    <path id="path39848" class="st0" d="M648.9 458.8v-.2c0-18.1 14.1-32.9 33.3-32.9 11.4 0 18.3 3.1 25 8.7l-8.8 10.6c-4.9-4.1-9.3-6.5-16.6-6.5-10.2 0-18.2 9-18.2 19.8v.2c0 11.6 8 20.2 19.2 20.2 5.1 0 9.6-1.3 13.2-3.8v-9.1h-14.1v-12.1h27.6v27.6c-6.5 5.5-15.5 10.1-27.1 10.1-19.9 0-33.5-13.8-33.5-32.6"/>
    <path id="path39850" class="st0" d="M719.1 466.3v-.2c0-13.9 9.9-25.3 24.1-25.3 16.3 0 23.7 12.6 23.7 26.4 0 1.1-.1 2.4-.2 3.6h-33.9c1.4 6.3 5.7 9.5 11.9 9.5 4.6 0 8-1.4 11.8-5l7.9 7c-4.5 5.6-11.1 9.1-19.9 9.1-14.6 0-25.4-10.2-25.4-25.1m34.3-4.1c-.8-6.2-4.4-10.3-10.3-10.3-5.7 0-9.4 4.1-10.5 10.3h20.8"/>
    <path id="path39852" class="st0" d="M777.1 441.7h13.8v6.9c3.2-4.1 7.3-7.8 14.3-7.8 10.4 0 16.5 6.9 16.5 18.1v31.5h-13.8v-27.2c0-6.5-3.1-9.9-8.4-9.9-5.3 0-8.6 3.4-8.6 9.9v27.2h-13.8v-48.7"/>
    <path id="path39854" class="st0" d="M831.3 466.3v-.2c0-13.9 9.9-25.3 24.1-25.3 16.3 0 23.7 12.6 23.7 26.4 0 1.1-.1 2.4-.2 3.6H845c1.4 6.3 5.7 9.5 11.9 9.5 4.6 0 8-1.4 11.8-5l7.9 7c-4.5 5.6-11.1 9.1-19.9 9.1-14.6 0-25.4-10.2-25.4-25.1m34.3-4.1c-.8-6.2-4.4-10.3-10.3-10.3-5.7 0-9.4 4.1-10.5 10.3h20.8"/>
    <path id="path39856" class="st0" d="M889.3 441.7h13.8v9.8c2.8-6.7 7.4-11.1 15.5-10.7v14.4h-.7c-9.2 0-14.8 5.5-14.8 17.2v18h-13.8v-48.7"/>
    <path id="path39858" class="st0" d="M922.1 476.4v-.2c0-10.6 8.1-15.5 19.6-15.5 4.9 0 8.4.8 11.9 2v-.8c0-5.7-3.5-8.9-10.4-8.9-5.3 0-9 1-13.4 2.6l-3.5-10.5c5.4-2.4 10.6-3.9 18.9-3.9 7.5 0 13 2 16.4 5.4 3.6 3.6 5.3 9 5.3 15.5v28.2h-13.3V485c-3.4 3.7-8 6.2-14.7 6.2-9.3.1-16.8-5.2-16.8-14.8m31.7-3.2v-2.5c-2.4-1.1-5.4-1.8-8.8-1.8-5.9 0-9.5 2.4-9.5 6.7v.2c0 3.7 3.1 5.9 7.5 5.9 6.4 0 10.8-3.5 10.8-8.5"/>
    <path id="path39860" class="st0" d="M979.4 490.4h13.8v-66.3h-13.8v66.3z"/>
    <path id="path39862" class="st0" d="M651.7 514.4h15.1l16.7 26.9 16.7-26.9h15.1V578h-13.9v-41.5l-17.9 27.1h-.4l-17.7-26.9V578h-13.7v-63.6"/>
    <path id="path39864" class="st0" d="M729.3 511.7h14.5V524h-14.5v-12.3zm.4 17.6h13.8V578h-13.8v-48.7z"/>
    <path id="path39866" class="st0" d="M757.1 578h13.8v-66.3h-13.8V578z"/>
    <path id="path39868" class="st0" d="M784.5 578h13.8v-66.3h-13.8V578z"/>
    <path id="path39870" class="st0" d="m807.5 571.5 5.9-9.1c5.3 3.8 10.8 5.8 15.3 5.8 4 0 5.8-1.5 5.8-3.6v-.2c0-3-4.7-4-10.1-5.6-6.8-2-14.5-5.2-14.5-14.6v-.2c0-9.9 8-15.4 17.8-15.4 6.2 0 12.9 2.1 18.2 5.6l-5.3 9.5c-4.8-2.8-9.6-4.5-13.2-4.5-3.4 0-5.1 1.5-5.1 3.4v.2c0 2.7 4.6 4 9.9 5.8 6.8 2.3 14.7 5.5 14.7 14.4v.2c0 10.8-8.1 15.7-18.6 15.7-6.7 0-14.3-2.3-20.8-7.4"/>
  </g>
</svg>