<svg version="1.1" id="Layer_1" xmlns="http://www.w3.org/2000/svg" x="0" y="0" viewBox="0 0 450 450" style="enable-background:new 0 0 450 450" xml:space="preserve">
  <style>
    .st0{fill:#17345b}
  </style>
  <switch>
    <g>
      <path class="st0" d="M332.5 260.6c-8.4 0-15.6-7.1-15.6-15.7s7.1-15.7 15.6-15.7c8.6 0 15.7 7.1 15.7 15.7 0 8.8-7.1 15.7-15.7 15.7m0-39.7c-8.4 0-15.6-7.1-15.6-15.7s7.1-15.7 15.6-15.7c8.6 0 15.7 7.1 15.7 15.7s-7.1 15.7-15.7 15.7M141.1 259.1l-22.5-30.9v30.9h-16.8v-68h16.8v29.2l22.5-29.2h20.6l-26.2 32.6 27.7 35.4zM168.1 191.1H185v68h-16.9zM251.1 213.4c0-14.6-10.1-22.7-28.1-22.7-8.4 0-18 .2-24 .4v68h16.9v-21c1.5.2 4.1.2 5.6.2 17.3 0 29.6-9.6 29.6-24.9m-17.8.9c0 6.7-4.9 10.7-12.2 10.7-1.5 0-3.9-.2-5.2-.4v-20.4c1.5-.2 4.1-.2 6-.2 7.5.2 11.4 4.7 11.4 10.3M309.1 213.4c0-14.6-10.1-22.7-28.1-22.7-8.4 0-18 .2-24 .4v68h16.9v-21c1.5.2 4.1.2 5.6.2 17 0 29.6-9.6 29.6-24.9m-18 .9c0 6.7-4.9 10.7-12.2 10.7-1.5 0-3.9-.2-5.2-.4v-20.4c1.5-.2 4.1-.2 6-.2 7.6.2 11.4 4.7 11.4 10.3"/>
    </g>
  </switch>
</svg>