<svg version="1.1" id="Logo" xmlns="http://www.w3.org/2000/svg" x="0" y="0" viewBox="0 0 450 450" style="enable-background:new 0 0 450 450" xml:space="preserve">
  <style>
    .st5{fill:#fff}
  </style>
  <switch>
    <g>
      <radialGradient id="SVGID_1_" cx="156.96" cy="297.305" r="227.815" gradientTransform="matrix(1.0167 0 0 -1.0167 -6 451.515)" gradientUnits="userSpaceOnUse">
        <stop offset="0" style="stop-color:#00a1df"/>
        <stop offset=".13" style="stop-color:#0092d7"/>
        <stop offset=".37" style="stop-color:#006cc1"/>
        <stop offset=".62" style="stop-color:#003da6"/>
        <stop offset=".73" style="stop-color:#043799"/>
        <stop offset=".93" style="stop-color:#102777"/>
        <stop offset="1" style="stop-color:#152169"/>
      </radialGradient>
      <circle cx="225" cy="225" r="124" style="fill:url(#SVGID_1_)"/>
      <radialGradient id="SVGID_00000165946751499080665250000006217015846867593367_" cx="140.376" cy="325.971" r="377.733" gradientTransform="matrix(1.0167 0 0 -1.0167 -6 451.515)" gradientUnits="userSpaceOnUse">
        <stop offset=".02" style="stop-color:#fff"/>
        <stop offset=".03" style="stop-color:#fbfeff"/>
        <stop offset=".09" style="stop-color:#bae7f9"/>
        <stop offset=".14" style="stop-color:#87d5f4"/>
        <stop offset=".19" style="stop-color:#63c9f1"/>
        <stop offset=".23" style="stop-color:#4cc1ef"/>
        <stop offset=".26" style="stop-color:#44beee"/>
        <stop offset=".28" style="stop-color:#37b8eb"/>
        <stop offset=".35" style="stop-color:#19ace5"/>
        <stop offset=".41" style="stop-color:#07a4e0"/>
        <stop offset=".45" style="stop-color:#00a1df"/>
        <stop offset=".79" style="stop-color:#0045ab"/>
        <stop offset=".82" style="stop-color:#003da6"/>
        <stop offset=".96" style="stop-color:#0059b6"/>
      </radialGradient>
      <path style="fill:url(#SVGID_00000165946751499080665250000006217015846867593367_)" d="M133.9 225c0-56.8 35.9-105.2 86.2-123.9-66.2 2.6-119.1 57-119.1 123.9s53 121.5 119.3 123.9c-50.4-18.6-86.4-67.1-86.4-123.9z"/>
      <defs>
        <filter id="Adobe_OpacityMaskFilter" filterUnits="userSpaceOnUse" x="101" y="101.1" width="119.3" height="247.8">
          <feColorMatrix values="1 0 0 0 0 0 1 0 0 0 0 0 1 0 0 0 0 0 1 0"/>
        </filter>
      </defs>
      <mask maskUnits="userSpaceOnUse" x="101" y="101.1" width="119.3" height="247.8" id="SVGID_00000029005774541808724620000014021859308421925802_">
        <g style="filter:url(#Adobe_OpacityMaskFilter)">
          <radialGradient id="SVGID_00000167361549011108773490000005588254722899365790_" cx="425.659" cy="198.288" r="131.386" fx="322.04" fy="200.052" gradientTransform="matrix(.03136 -1.0162 -1.0341 -.03192 396.715 660.104)" gradientUnits="userSpaceOnUse">
            <stop offset=".1" style="stop-color:#fff"/>
            <stop offset=".35" style="stop-color:#fdfdfd"/>
            <stop offset=".45" style="stop-color:#f6f6f6"/>
            <stop offset=".51" style="stop-color:#eaeaea"/>
            <stop offset=".57" style="stop-color:#d9d9d9"/>
            <stop offset=".62" style="stop-color:#c3c3c3"/>
            <stop offset=".66" style="stop-color:#a7a7a7"/>
            <stop offset=".7" style="stop-color:#868686"/>
            <stop offset=".73" style="stop-color:#606060"/>
            <stop offset=".77" style="stop-color:#353535"/>
            <stop offset=".8" style="stop-color:#060606"/>
            <stop offset=".8" style="stop-color:#000"/>
          </radialGradient>
          <path style="fill:url(#SVGID_00000167361549011108773490000005588254722899365790_)" d="M133.9 225c0-56.8 35.9-105.2 86.2-123.9-66.2 2.6-119.1 57-119.1 123.9s53 121.5 119.3 123.9c-50.4-18.6-86.4-67.1-86.4-123.9z"/>
        </g>
      </mask>
      <radialGradient id="SVGID_00000102517284806497620220000002318324354431937429_" cx="200.117" cy="246.596" r="153.476" gradientTransform="matrix(1.0167 0 0 -1.0167 -6 451.515)" gradientUnits="userSpaceOnUse">
        <stop offset=".32" style="stop-color:#44beee;stop-opacity:0"/>
        <stop offset=".48" style="stop-color:#2b99d9;stop-opacity:.27"/>
        <stop offset=".67" style="stop-color:#1476c6;stop-opacity:.58"/>
        <stop offset=".82" style="stop-color:#0561ba;stop-opacity:.84"/>
        <stop offset=".92" style="stop-color:#0059b6"/>
      </radialGradient>
      <path style="mask:url(#SVGID_00000029005774541808724620000014021859308421925802_);fill:url(#SVGID_00000102517284806497620220000002318324354431937429_)" d="M133.9 225c0-56.8 35.9-105.2 86.2-123.9-66.2 2.6-119.1 57-119.1 123.9s53 121.5 119.3 123.9c-50.4-18.6-86.4-67.1-86.4-123.9z"/>
      <path class="st5" d="M222.9 213.2c8.2-20.3-7.2-25.8-17.2-25.8h-33.2c2.8 1.9 2.3 4.4 1.8 6l-19.4 61.8c-.8 2.4-3.7 5-5.2 5.4h26.9c-1.5-.3-3.6-2.4-2.8-5.2l7-22.4s32.3 4.4 42.1-19.8zm-26.1-20.1c3.5 0 13.3.5 7 18.9-6.6 19.4-21.2 15.4-21.2 15.4l10.7-34.3h3.5z"/>
      <path class="st5" d="M244.4 260.6h18.1c-5.8-1.9-14.3-7.3-17.7-11.2 2.8-3 6.2-6.8 6.8-14.5h-9.4s1.8 1 1.8 3.2c0 2-.8 4.9-2.4 6.8-2.8-4.1-5.7-8.7-6.7-15.5 3.7-1.8 8.9-3.8 13-7.4 3.9-3.4 4.8-6.6 4.9-8.8v-.2c0-2.2-.9-4.3-2.4-5.8-2.7-2.7-7-3.8-11.5-3-3.6.7-6.7 2.6-8.2 4-5.4 5.1-6.1 13.6-6.1 17.4 0 .9 0 1.6.1 2l-.9.3c-4 1.5-14.6 4.3-18.4 13.1-.5 1.1-1.2 3.5-1.2 6.3 0 2.4.5 5.1 2.1 7.5 2.7 4.2 7.2 6.9 14.5 6.7 7.9-.1 15.7-5.5 17.1-6.5 1.1 1.4 4.6 4.7 6.5 5.6zm0-48.9c-.9 5.9-8.6 11.9-10.4 12.6-.3-3.3-.2-8.5 2.6-12.8 1.8-2.8 4.3-4.1 6.2-3.4 1.6.6 1.7 2.1 1.6 3.6zm-10.6 39.4c-1.1.7-5.3 2.8-9.2 3.2-3.7.3-9.7-1.1-9.7-8.4 0-6.2 6.8-10.8 10.5-12.4 1.5 6 4.8 12.9 8.4 17.6z"/>
      <path class="st5" d="M299.3 193.1c10.7-2.6 19.6 5.8 20.4 6.4l3.1-9.7c-4.2-1.3-35.1-11.7-56.9 13.2-13.4 15.3-16.7 46.6.3 55.1 18.2 9 38.3-1.4 39.8-2.1l8.3-26.5c.9-3.2 2.9-5.3 6.5-6.6h-28.9c4.2 1.8 3.9 4.9 3.6 6.2l-8.3 26.5c-1.1.2-24.3 6-11.3-34.6 2.8-8.8 10.7-24.8 23.4-27.9z"/>
    </g>
  </switch>
</svg>