<svg version="1.1" id="Layer_1" xmlns="http://www.w3.org/2000/svg" x="0" y="0" viewBox="0 0 450 450" style="enable-background:new 0 0 450 450" xml:space="preserve">
  <style>
    .st0{fill:#c00}
  </style>
  <switch>
    <g>
      <path class="st0" d="M225.5 262.7c-36.3 0-65.7-29.4-65.7-65.7 0-36.4 29.4-65.7 65.7-65.7 36.3 0 65.7 29.4 65.7 65.7.1 36.3-29.3 65.7-65.7 65.7m0-164.3c-54.4 0-98.5 44.1-98.5 98.6 0 54.4 44.1 98.5 98.5 98.5s98.6-44.1 98.6-98.5c0-54.5-44.1-98.6-98.6-98.6z"/>
      <path class="st0" d="M225.5 163.2c-18.6 0-33.8 15.1-33.8 33.8 0 18.6 15.1 33.8 33.8 33.8 18.7 0 33.8-15.1 33.8-33.8 0-18.7-15.1-33.8-33.8-33.8M136.5 321.2h-10.9v-6.7h29.7v6.7h-10.9v29.5h-7.9v-29.5M151.8 350.7h8.1l2.8-8.1h13.6l2.7 8.1h8.3l-13.6-36.3h-8.2l-13.7 36.3m17.8-27.3 4.7 13.3h-9.4l4.7-13.3zM190.5 350.7h8v-14.2h8c4 0 5.5 1.7 6 5.5.4 2.9.3 6.4 1.3 8.7h8c-1.4-2-1.4-6.3-1.5-8.6-.3-3.7-1.4-7.5-5.3-8.5v-.1c4-1.6 5.7-4.8 5.7-9.1 0-5.5-4.1-10-10.6-10h-19.5l-.1 36.3m7.9-30h8.7c3.5 0 5.5 1.5 5.5 5 0 3.7-1.9 5.2-5.5 5.2h-8.7v-10.2zM252.3 346.6c-2.8 3.6-6.4 5-9.9 5-11.2 0-17.8-8.4-17.8-18.9 0-10.8 6.6-19.1 17.8-19.1 7.4 0 14.4 4.6 15.3 12.8H250c-.9-4-3.9-6.1-7.7-6.1-7.2 0-9.9 6.1-9.9 12.4 0 6 2.7 12.1 9.9 12.1 5.2 0 8.2-2.8 8.6-7.8h-8v-5.9h15.2v19.6H253l-.7-4.1M263.6 314.5h27.1v6.7h-19.1v7.7h17.6v6.2h-17.6v8.9h19.5v6.7h-27.5v-36.2M305.6 321.2h-10.9v-6.7h29.7v6.7h-10.9v29.5h-7.9v-29.5"/>
    </g>
  </switch>
</svg>