<svg version="1.1" id="Layer_1" xmlns="http://www.w3.org/2000/svg" x="0" y="0" viewBox="0 0 450 450" style="enable-background:new 0 0 450 450" xml:space="preserve">
  <style>
    .st0{fill:#ff004f}.st1{fill:#00f2ea}
  </style>
  <switch>
    <g>
      <path class="st0" d="M138.7 213.7c5.3 3.8 11.7 6 18.7 6v-13.4c-1.3 0-2.6-.1-3.9-.4v10.5c-7 0-13.4-2.2-18.7-6v27.3c0 13.7-11.1 24.7-24.7 24.7-5.1 0-9.8-1.5-13.8-4.2 4.5 4.6 10.8 7.4 17.7 7.4 13.7 0 24.7-11.1 24.7-24.7v-27.2zm4.8-13.5c-2.7-2.9-4.5-6.7-4.8-10.9v-1.7H135c.9 5.3 4.1 9.8 8.5 12.6zm-38.6 47.6c-1.5-2-2.3-4.4-2.3-6.8 0-6.2 5.1-11.3 11.3-11.3 1.2 0 2.3.2 3.4.5v-13.7c-1.3-.2-2.6-.3-3.9-.2v10.6c-1.1-.4-2.3-.5-3.4-.5-6.3 0-11.3 5.1-11.3 11.3 0 4.4 2.5 8.2 6.2 10.1z"/>
      <path d="M134.8 210.4c5.3 3.8 11.7 6 18.7 6v-10.5c-3.9-.8-7.3-2.9-9.9-5.7-4.4-2.8-7.6-7.3-8.5-12.6h-9.8V241c0 6.2-5.1 11.3-11.3 11.3-3.7 0-6.9-1.8-9-4.5-3.7-1.9-6.2-5.7-6.2-10.1 0-6.2 5.1-11.3 11.3-11.3 1.2 0 2.4.2 3.4.5v-10.6c-13.4.3-24.2 11.2-24.2 24.7 0 6.7 2.7 12.8 7.1 17.3 3.9 2.6 8.7 4.2 13.8 4.2 13.7 0 24.7-11.1 24.7-24.7l-.1-27.4z"/>
      <path class="st1" d="M153.4 205.9V203c-3.5 0-6.9-1-9.9-2.8 2.6 2.9 6.1 4.8 9.9 5.7zM135 187.5c-.1-.5-.2-1-.2-1.5v-1.7h-13.5v53.4c0 6.2-5.1 11.3-11.3 11.3-1.8 0-3.6-.4-5.1-1.2 2.1 2.7 5.3 4.5 9 4.5 6.2 0 11.3-5 11.3-11.3v-53.4h9.8zm-21.6 28.8v-3c-1.1-.2-2.3-.2-3.4-.2-13.7 0-24.7 11.1-24.7 24.7 0 8.6 4.4 16.1 11 20.5-4.4-4.5-7.1-10.6-7.1-17.3 0-13.5 10.8-24.5 24.2-24.7z"/>
      <path class="st0" d="M309.4 251.3c9.8 0 17.7-7.9 17.7-17.6 0-9.7-7.9-17.6-17.7-17.6h-2.7c9.8 0 17.7 7.9 17.7 17.6 0 9.7-7.9 17.6-17.7 17.6h2.7z"/>
      <path class="st1" d="M306.5 216.1h-2.7c-9.8 0-17.7 7.9-17.7 17.6 0 9.7 7.9 17.6 17.7 17.6h2.7c-9.8 0-17.7-7.9-17.7-17.6 0-9.7 7.9-17.6 17.7-17.6z"/>
      <path d="M171.9 208.2v8.9h10.4V251h10.4v-33.7h8.5l2.9-9.1h-32.2zm85.4 0v8.9h10.4V251h10.4v-33.7h8.5l2.9-9.1h-32.2zm-51.2 5.1c0-2.8 2.3-5.1 5.1-5.1s5.1 2.3 5.1 5.1-2.3 5.1-5.1 5.1c-2.8-.1-5.1-2.4-5.1-5.1zm0 8.6h10.2V251h-10.2v-29.1zm14.6-13.7V251h10.2v-11l3.2-2.9 9.9 14.2h10.9l-14.3-20.7 12.9-12.5H241l-10.2 10.1v-20h-10.1zm109.8 0V251h10.2v-11l3.2-2.9 9.9 14.2h10.9l-14.3-20.7 12.9-12.5h-12.4l-10.2 10.1v-20h-10.2zM306.8 251.3c9.8 0 17.7-7.9 17.7-17.6 0-9.7-7.9-17.6-17.7-17.6h-.2c-9.8 0-17.7 7.9-17.7 17.6 0 9.7 7.9 17.6 17.7 17.6h.2zm-8.8-17.6c0-4.7 3.9-8.5 8.6-8.5 4.8 0 8.6 3.8 8.6 8.5s-3.9 8.5-8.6 8.5c-4.7 0-8.6-3.8-8.6-8.5z"/>
    </g>
  </switch>
</svg>