<svg width="110" height="110" viewBox="0 0 110 110" fill="none" xmlns="http://www.w3.org/2000/svg">
<path fill-rule="evenodd" clip-rule="evenodd" d="M75.625 96.5249H55H34.375H13.75V75.8999H34.375V55.2749H55V34.6499H75.625V96.5249Z" fill="#2E2880"/>
<path fill-rule="evenodd" clip-rule="evenodd" d="M54.1758 34.65C54.1758 34.1943 54.5451 33.825 55.0008 33.825H75.6258C76.0814 33.825 76.4508 34.1943 76.4508 34.65V96.525C76.4508 96.9806 76.0814 97.35 75.6258 97.35H13.7508C13.2951 97.35 12.9258 96.9806 12.9258 96.525V75.9C12.9258 75.4443 13.2951 75.075 13.7508 75.075H33.5508V55.275C33.5508 54.8193 33.9201 54.45 34.3758 54.45H54.1758V34.65ZM55.8258 35.475V55.275C55.8258 55.7306 55.4564 56.1 55.0008 56.1H35.2008V75.9C35.2008 76.3556 34.8314 76.725 34.3758 76.725H14.5758V95.7H74.8008V35.475H55.8258Z" fill="#2E2880"/>
<path d="M20.623 89.6074L41.248 89.6074L41.248 68.9824L20.623 68.9824L20.623 89.6074Z" fill="#FF2F1C"/>
<path fill-rule="evenodd" clip-rule="evenodd" d="M42.0742 89.6074C42.0742 90.063 41.7049 90.4324 41.2492 90.4324L20.6242 90.4324C20.1686 90.4324 19.7992 90.063 19.7992 89.6074L19.7992 68.9824C19.7992 68.5267 20.1686 68.1574 20.6242 68.1574L41.2492 68.1574C41.7049 68.1574 42.0742 68.5267 42.0742 68.9824L42.0742 89.6074ZM40.4242 88.7824L40.4242 69.8074L21.4492 69.8074L21.4492 88.7824L40.4242 88.7824Z" fill="#2E2880"/>
<path d="M41.248 89.6074L61.873 89.6074L61.873 48.3574L41.248 48.3574L41.248 89.6074Z" fill="#FF2F1C"/>
<path fill-rule="evenodd" clip-rule="evenodd" d="M62.6992 89.6074C62.6992 90.063 62.3299 90.4324 61.8742 90.4324L41.2492 90.4324C40.7936 90.4324 40.4242 90.063 40.4242 89.6074L40.4242 48.3574C40.4242 47.9017 40.7936 47.5324 41.2492 47.5324L61.8742 47.5324C62.3299 47.5324 62.6992 47.9017 62.6992 48.3574L62.6992 89.6074ZM61.0492 88.7824L61.0492 49.1824L42.0742 49.1824L42.0742 88.7824L61.0492 88.7824Z" fill="#2E2880"/>
<path d="M61.873 89.6074L82.498 89.6074L82.498 27.7324L61.873 27.7324L61.873 89.6074Z" fill="#FF2F1C"/>
<path fill-rule="evenodd" clip-rule="evenodd" d="M83.3242 89.6074C83.3242 90.063 82.9549 90.4324 82.4992 90.4324L61.8742 90.4324C61.4186 90.4324 61.0492 90.063 61.0492 89.6074L61.0492 27.7324C61.0492 27.2767 61.4186 26.9074 61.8742 26.9074L82.4992 26.9074C82.9549 26.9074 83.3242 27.2767 83.3242 27.7324L83.3242 89.6074ZM81.6742 88.7824L81.6742 28.5574L62.6992 28.5574L62.6992 88.7824L81.6742 88.7824Z" fill="#2E2880"/>
</svg>
