<svg width="100" height="100" viewBox="0 0 100 100" fill="none" xmlns="http://www.w3.org/2000/svg">
<path d="M48.125 87.5C67.8001 87.5 83.75 71.5501 83.75 51.875C83.75 32.1999 67.8001 16.25 48.125 16.25C28.4499 16.25 12.5 32.1999 12.5 51.875C12.5 71.5501 28.4499 87.5 48.125 87.5Z" fill="#2E2880"/>
<path fill-rule="evenodd" clip-rule="evenodd" d="M48.125 17C28.8641 17 13.25 32.6141 13.25 51.875C13.25 71.1359 28.8641 86.75 48.125 86.75C67.3859 86.75 83 71.1359 83 51.875C83 32.6141 67.3859 17 48.125 17ZM11.75 51.875C11.75 31.7856 28.0356 15.5 48.125 15.5C68.2144 15.5 84.5 31.7856 84.5 51.875C84.5 71.9644 68.2144 88.25 48.125 88.25C28.0356 88.25 11.75 71.9644 11.75 51.875Z" fill="#2E2880"/>
<path d="M53.375 81.25C72.3598 81.25 87.75 65.8598 87.75 46.875C87.75 27.8902 72.3598 12.5 53.375 12.5C34.3902 12.5 19 27.8902 19 46.875C19 65.8598 34.3902 81.25 53.375 81.25Z" fill="#6490F2"/>
<path fill-rule="evenodd" clip-rule="evenodd" d="M53.125 13.25C34.5544 13.25 19.5 28.3044 19.5 46.875C19.5 65.4456 34.5544 80.5 53.125 80.5C71.6956 80.5 86.75 65.4456 86.75 46.875C86.75 28.3044 71.6956 13.25 53.125 13.25ZM18 46.875C18 27.476 33.726 11.75 53.125 11.75C72.524 11.75 88.25 27.476 88.25 46.875C88.25 66.274 72.524 82 53.125 82C33.726 82 18 66.274 18 46.875Z" fill="#2E2880"/>
<path fill-rule="evenodd" clip-rule="evenodd" d="M53.0791 30.7749C62.5959 30.7749 71.1707 27.4354 77.2752 22.093L78.2631 23.2218C71.8726 28.8144 62.9423 32.2749 53.0791 32.2749C43.3838 32.2749 34.5893 28.9314 28.2227 23.5057L29.1956 22.3641C35.279 27.5484 43.7245 30.7749 53.0791 30.7749Z" fill="#2E2880"/>
<path fill-rule="evenodd" clip-rule="evenodd" d="M53.0791 62.9749C43.7245 62.9749 35.279 66.2014 29.1956 71.3857L28.2227 70.244C34.5893 64.8183 43.3838 61.4749 53.0791 61.4749C62.9423 61.4749 71.8726 64.9353 78.2631 70.528L77.2752 71.6568C71.1707 66.3144 62.5959 62.9749 53.0791 62.9749Z" fill="#2E2880"/>
<path fill-rule="evenodd" clip-rule="evenodd" d="M65.7313 24.7521C68.8033 30.8893 70.62 38.5634 70.62 46.875C70.62 55.1865 68.8033 62.8606 65.7313 68.9979C62.6634 75.1271 58.3148 79.7756 53.2203 81.9355L52.6348 80.5545C57.3052 78.5743 61.4279 74.2441 64.39 68.3264C67.348 62.4168 69.12 54.9759 69.12 46.875C69.12 38.774 67.348 31.3331 64.39 25.4235C61.4279 19.5058 57.3052 15.1756 52.6348 13.1955L53.2203 11.8145C58.3148 13.9743 62.6634 18.6229 65.7313 24.7521Z" fill="#2E2880"/>
<path fill-rule="evenodd" clip-rule="evenodd" d="M41.0196 24.7521C44.0875 18.6229 48.4361 13.9743 53.5306 11.8145L54.1161 13.1955C49.4456 15.1756 45.323 19.5058 42.3609 25.4235C39.4029 31.3331 37.6309 38.774 37.6309 46.875C37.6309 54.9759 39.4029 62.4168 42.3609 68.3264C45.323 74.2441 49.4456 78.5743 54.1161 80.5545L53.5306 81.9355C48.4361 79.7756 44.0875 75.1271 41.0196 68.9979C37.9476 62.8606 36.1309 55.1865 36.1309 46.875C36.1309 38.5634 37.9476 30.8893 41.0196 24.7521Z" fill="#2E2880"/>
<path fill-rule="evenodd" clip-rule="evenodd" d="M87.75 47.625H19V46.125H87.75V47.625Z" fill="#2E2880"/>
<path fill-rule="evenodd" clip-rule="evenodd" d="M52.625 81.25V12.5H54.125V81.25H52.625Z" fill="#2E2880"/>
</svg>
