<svg width="100" height="100" viewBox="0 0 100 100" fill="none" xmlns="http://www.w3.org/2000/svg">
<path d="M12.5 87.7112L68.75 87.7112L68.75 31.4612L12.5 31.4612L12.5 87.7112Z" fill="#2E2880"/>
<path fill-rule="evenodd" clip-rule="evenodd" d="M69.5 87.7112C69.5 88.1254 69.1642 88.4612 68.75 88.4612L12.5 88.4612C12.0858 88.4612 11.75 88.1254 11.75 87.7112L11.75 31.4612C11.75 31.047 12.0858 30.7112 12.5 30.7112L68.75 30.7112C69.1642 30.7112 69.5 31.047 69.5 31.4612L69.5 87.7112ZM68 86.9612L68 32.2112L13.25 32.2112L13.25 86.9612L68 86.9612Z" fill="#2E2880"/>
<path d="M18.75 81.4612L75 81.4612L75 25.2112L18.75 25.2112L18.75 81.4612Z" fill="#D3F1F3"/>
<path fill-rule="evenodd" clip-rule="evenodd" d="M75.75 81.4612C75.75 81.8754 75.4142 82.2112 75 82.2112L18.75 82.2112C18.3358 82.2112 18 81.8754 18 81.4612L18 25.2112C18 24.797 18.3358 24.4612 18.75 24.4612L75 24.4612C75.4142 24.4612 75.75 24.797 75.75 25.2112L75.75 81.4612ZM74.25 80.7112L74.25 25.9612L19.5 25.9612L19.5 80.7112L74.25 80.7112Z" fill="#2E2880"/>
<path d="M38.248 44.5494L69.383 15.3769C73.428 11.6269 79.648 11.5319 83.8055 15.1569C88.4631 19.2194 88.7605 26.3569 84.4605 30.7919L55.3105 60.7244H38.248V44.5494Z" fill="#D3F1F3"/>
<path fill-rule="evenodd" clip-rule="evenodd" d="M69.8943 15.9257C69.8938 15.9261 69.8934 15.9265 69.8929 15.9269L38.998 44.8744V59.9744H54.9941L83.9221 30.2698C87.9229 26.1433 87.6462 19.5021 83.3126 15.7221C79.4445 12.3496 73.6581 12.4376 69.8943 15.9257ZM68.8732 14.8269C73.1993 10.8162 79.8519 10.7146 84.2984 14.5916C89.2798 18.9366 89.5982 26.5704 84.999 31.314L55.8479 61.2476C55.7067 61.3926 55.5129 61.4744 55.3105 61.4744H38.248C37.8338 61.4744 37.498 61.1386 37.498 60.7244V44.5494C37.498 44.342 37.5839 44.1439 37.7352 44.0021L68.8702 14.8296L68.8732 14.8269Z" fill="#2E2880"/>
<path fill-rule="evenodd" clip-rule="evenodd" d="M82.0352 33.1865L66.2852 17.6865L67.3373 16.6174L83.0873 32.1174L82.0352 33.1865Z" fill="#2E2880"/>
<path fill-rule="evenodd" clip-rule="evenodd" d="M48.2334 50.7957L37.8906 45.1553L38.6088 43.8384L49.1388 49.5809C49.2612 49.6476 49.3626 49.7472 49.4315 49.8683L55.334 60.2383L54.0304 60.9803L48.2334 50.7957Z" fill="#2E2880"/>
</svg>
