<svg width="110" height="110" viewBox="0 0 110 110" fill="none" xmlns="http://www.w3.org/2000/svg">
<path d="M82.5 34.375H13.75V89.375H82.5V34.375Z" fill="#190083"/>
<path fill-rule="evenodd" clip-rule="evenodd" d="M12.9258 33.55H83.3258V90.2H12.9258V33.55ZM14.5758 35.2V88.55H81.6758V35.2H14.5758Z" fill="#190083"/>
<path d="M89.375 27.5H20.625V82.5H89.375V27.5Z" fill="#FFC7B4"/>
<path fill-rule="evenodd" clip-rule="evenodd" d="M19.8008 27.5C19.8008 27.0444 20.1701 26.675 20.6258 26.675H89.3758C89.8314 26.675 90.2008 27.0444 90.2008 27.5V82.5C90.2008 82.9557 89.8314 83.325 89.3758 83.325H20.6258C20.1701 83.325 19.8008 82.9557 19.8008 82.5V27.5ZM21.4508 28.325V81.675H88.5508V28.325H21.4508Z" fill="#190083"/>
<path d="M54.725 52.4783L20.625 27.5H89.375L54.725 52.4783Z" fill="#FFC7B4"/>
<path fill-rule="evenodd" clip-rule="evenodd" d="M19.8417 27.2436C19.9526 26.9044 20.269 26.675 20.6258 26.675H89.3758C89.7338 26.675 90.051 26.9059 90.1609 27.2466C90.2709 27.5872 90.1487 27.96 89.8583 28.1693L55.2083 53.1475C54.9183 53.3566 54.5267 53.3551 54.2383 53.1438L20.1383 28.1656C19.8505 27.9547 19.7308 27.5827 19.8417 27.2436ZM23.1482 28.325L54.7297 51.4585L86.8206 28.325H23.1482Z" fill="#190083"/>
<path d="M88 37.125C92.5568 37.125 96.25 33.4318 96.25 28.875C96.25 24.3183 92.5568 20.625 88 20.625C83.4433 20.625 79.75 24.3183 79.75 28.875C79.75 33.4318 83.4433 37.125 88 37.125Z" fill="#190083"/>
</svg>
