<svg width="100" height="100" viewBox="0 0 100 100" fill="none" xmlns="http://www.w3.org/2000/svg">
<path d="M48.125 87.5C67.8001 87.5 83.75 71.5501 83.75 51.875C83.75 32.1999 67.8001 16.25 48.125 16.25C28.4499 16.25 12.5 32.1999 12.5 51.875C12.5 71.5501 28.4499 87.5 48.125 87.5Z" fill="#2E2880"/>
<path fill-rule="evenodd" clip-rule="evenodd" d="M48.125 17C28.8641 17 13.25 32.6141 13.25 51.875C13.25 71.1359 28.8641 86.75 48.125 86.75C67.3859 86.75 83 71.1359 83 51.875C83 32.6141 67.3859 17 48.125 17ZM11.75 51.875C11.75 31.7856 28.0356 15.5 48.125 15.5C68.2144 15.5 84.5 31.7856 84.5 51.875C84.5 71.9644 68.2144 88.25 48.125 88.25C28.0356 88.25 11.75 71.9644 11.75 51.875Z" fill="#2E2880"/>
<path d="M53.125 81.25C72.1098 81.25 87.5 65.8598 87.5 46.875C87.5 27.8902 72.1098 12.5 53.125 12.5C34.1402 12.5 18.75 27.8902 18.75 46.875C18.75 65.8598 34.1402 81.25 53.125 81.25Z" fill="#F3E02B"/>
<path fill-rule="evenodd" clip-rule="evenodd" d="M53.125 13.25C34.5544 13.25 19.5 28.3044 19.5 46.875C19.5 65.4456 34.5544 80.5 53.125 80.5C71.6956 80.5 86.75 65.4456 86.75 46.875C86.75 28.3044 71.6956 13.25 53.125 13.25ZM18 46.875C18 27.476 33.726 11.75 53.125 11.75C72.524 11.75 88.25 27.476 88.25 46.875C88.25 66.274 72.524 82 53.125 82C33.726 82 18 66.274 18 46.875Z" fill="#2E2880"/>
<path d="M69.3569 24.2256L42.6208 39.5034C42.1915 39.7402 41.8752 40.1389 41.7423 40.611L34.1034 67.3471C33.8789 68.0912 34.1371 68.8963 34.7528 69.3714C35.0904 69.6388 35.5059 69.7855 35.9368 69.7916C36.2744 69.7946 36.6044 69.7014 36.8916 69.5242L63.6278 54.2464C64.0571 54.0096 64.3733 53.6109 64.5062 53.1388L72.1451 26.4027C72.3697 25.6587 72.1115 24.8535 71.4958 24.3784C70.8816 23.8941 70.0337 23.833 69.3569 24.2256Z" fill="#F3E02B"/>
<path fill-rule="evenodd" clip-rule="evenodd" d="M71.9571 23.787C72.8152 24.4512 73.176 25.5744 72.8649 26.6137L65.2282 53.3421C65.228 53.3426 65.2279 53.3432 65.2277 53.3437C65.0407 54.0062 64.5973 54.5663 63.9954 54.9002L37.2737 70.1697C36.8704 70.4156 36.4062 70.5459 35.93 70.5416L35.9262 70.5415C35.333 70.5331 34.7585 70.3314 34.2907 69.9622C33.4332 69.2979 33.0727 68.1751 33.3838 67.1362L41.0204 40.4078C41.0206 40.4073 41.0207 40.4068 41.0209 40.4063C41.2079 39.7437 41.6513 39.1835 42.2532 38.8496L68.9806 23.5769C68.9814 23.5764 68.9822 23.576 68.983 23.5755C69.9247 23.0305 71.1028 23.1154 71.9571 23.787ZM71.0314 24.9673C70.6583 24.6731 70.1436 24.6363 69.7333 24.8744L69.7291 24.8768L42.993 40.1546C42.9897 40.1564 42.9864 40.1583 42.9831 40.1601C42.7296 40.2999 42.5429 40.5353 42.4643 40.8143L42.4635 40.8171L34.8246 67.5532C34.8236 67.5568 34.8226 67.5603 34.8215 67.5639C34.6869 68.0098 34.8415 68.4925 35.211 68.7777L35.2184 68.7835C35.4247 68.9468 35.6791 69.0374 35.9454 69.0416C36.1393 69.0431 36.33 68.9895 36.4979 68.886C36.505 68.8815 36.5123 68.8772 36.5196 68.873L63.2557 53.5953C63.259 53.5934 63.2622 53.5916 63.2655 53.5897C63.5191 53.4499 63.7058 53.2145 63.7843 52.9355L63.7851 52.9328L71.424 26.1967C71.425 26.1931 71.4261 26.1895 71.4272 26.186C71.5618 25.74 71.4072 25.2573 71.0376 24.9722L71.0314 24.9673Z" fill="#2E2880"/>
<path d="M53.1238 51.8329C55.862 51.8329 58.0817 49.6132 58.0817 46.8751C58.0817 44.1369 55.862 41.9172 53.1238 41.9172C50.3857 41.9172 48.166 44.1369 48.166 46.8751C48.166 49.6132 50.3857 51.8329 53.1238 51.8329Z" fill="#2E2880"/>
<path fill-rule="evenodd" clip-rule="evenodd" d="M53.1582 12.7087C53.5724 12.7087 53.9082 13.0445 53.9082 13.4587V20.7921C53.9082 21.2063 53.5724 21.5421 53.1582 21.5421C52.744 21.5421 52.4082 21.2063 52.4082 20.7921V13.4587C52.4082 13.0445 52.744 12.7087 53.1582 12.7087Z" fill="#2E2880"/>
<path fill-rule="evenodd" clip-rule="evenodd" d="M53.1582 72.208C53.5724 72.208 53.9082 72.5438 53.9082 72.958V80.2913C53.9082 80.7056 53.5724 81.0413 53.1582 81.0413C52.744 81.0413 52.4082 80.7056 52.4082 80.2913V72.958C52.4082 72.5438 52.744 72.208 53.1582 72.208Z" fill="#2E2880"/>
<path fill-rule="evenodd" clip-rule="evenodd" d="M78.4922 46.875C78.4922 46.4608 78.828 46.125 79.2422 46.125H86.5755C86.9897 46.125 87.3255 46.4608 87.3255 46.875C87.3255 47.2892 86.9897 47.625 86.5755 47.625H79.2422C78.828 47.625 78.4922 47.2892 78.4922 46.875Z" fill="#2E2880"/>
<path fill-rule="evenodd" clip-rule="evenodd" d="M18.9922 46.875C18.9922 46.4608 19.328 46.125 19.7422 46.125H27.0755C27.4897 46.125 27.8255 46.4608 27.8255 46.875C27.8255 47.2892 27.4897 47.625 27.0755 47.625H19.7422C19.328 47.625 18.9922 47.2892 18.9922 46.875Z" fill="#2E2880"/>
</svg>
