<svg id="b677af75-dd6b-47db-9139-a936b367cb0a" data-name="Layer 1" xmlns="http://www.w3.org/2000/svg" xmlns:xlink="http://www.w3.org/1999/xlink" width="4.79in" height="6.1in" viewBox="0 0 344.71 439.23"><defs><linearGradient id="faa52834-a2c9-42c2-8951-2a7ec508e306" x1="31.27" y1="133.14" x2="400.84" y2="511.77" gradientUnits="userSpaceOnUse"><stop offset="0.21" stop-color="#d3f1f3" stop-opacity="0.3"/><stop offset="0.46" stop-color="#92b7ba" stop-opacity="0.3"/><stop offset="0.77" stop-color="#568286" stop-opacity="0.3"/><stop offset="1" stop-color="#416f73" stop-opacity="0.3"/></linearGradient></defs><title>mailing-list-illustration</title><path d="M266.18,132.14c61.24,0,79.52,71.1,79.52,122.21,0,103.12-85.34,179.38-191.37,179.38C92.77,433.73,1,414.1,1,344.38,1,265.28,127.73,255,145,241.53,186.1,209.45,210.06,132.14,266.18,132.14Z" transform="translate(-0.99 -2.93)" style="fill:url(#faa52834-a2c9-42c2-8951-2a7ec508e306)"/><path d="M81.67,138.58a5.46,5.46,0,0,1-2.11-2.71c-.48-.94,0-1.88.89-2.6q7.26-6.09,14.46-12.23,10.44-8.91,20.86-17.85c5-4.25,10-8.4,14.93-12.74,3.35-3,3.91-2.44,6.51.85.06,1.74-.78,3.27-1.28,4.84-2.47,7.9-4.74,15.86-7.21,23.76-.8,2.56-1.45,5.16-2.49,7.63a10,10,0,0,1-7.23,5.95c-5.14,1.32-10.49,1.38-15.68,2.33-4.11.75-8.28.92-12.38,1.8A66.5,66.5,0,0,1,81.67,138.58Z" transform="translate(-0.99 -2.93)" style="fill:#1eaaad;stroke:#000;stroke-miterlimit:10;stroke-width:0.5px"/><path d="M81.67,138.58c1.58-1,3.46-.88,5.2-1.1,5.15-.67,10.29-1.51,15.44-2.09,3.87-.43,7.71-1.21,11.63-1.45,4.24-.26,8.54-1.19,11.12-5.24,1.41-2.2,1.94-4.78,2.7-7.23.65-2.12,1.22-4.27,1.92-6.38.6-1.79,1-3.65,1.52-5.47a32.32,32.32,0,0,1,1.5-4.9c.84-1.82,1.15-3.76,1.81-5.62.92-2.59,1.25-5.39,2.7-7.8a1.43,1.43,0,0,1,.75,1.13,1.64,1.64,0,0,1,.1,1.59c-1.9,6.5-3.59,13.06-5.39,19.58-1.2,4.38-2.1,8.83-3.5,13.15-.39,1.2,0,1.24,1.08,1.26,9.73.22,19.37-1.6,29.11-1.26a25.35,25.35,0,0,0,2.6-.23c.68,0,1.53-.3,1.8.74l-1.11,1.14c-2.18,1.4-3.89,3.35-5.85,5-7.63,6.42-15.21,12.91-22.8,19.39l-19.88,17a7.22,7.22,0,0,1-.93.57c-1.07-.22-.62-1-.63-1.64-.07-2.86.91-5.54,1.58-8.24s1-5.75,1.84-8.58c1.22-4.37,1.81-8.89,3.08-13.26a5.63,5.63,0,0,0,.28-1.46c0-.88-.3-1.21-1.25-1.08-8.21,1.16-16.49,1.64-24.71,2.82-2.94.42-6,.4-8.92.89a2.7,2.7,0,0,1-1.66-.14C82.39,139.36,81.69,139.32,81.67,138.58Z" transform="translate(-0.99 -2.93)" style="fill:#026773;stroke:#000;stroke-miterlimit:10;stroke-width:0.5px"/><path d="M82.8,139.7a39.48,39.48,0,0,1,6.2-1.08c5.79-.12,11.48-1.14,17.21-1.72,3.57-.36,7.17-.48,10.73-1a5.35,5.35,0,0,0,.55-.11c.74-.19,1.57-1.11,2.19-.32a3.22,3.22,0,0,1,.11,2.88,56.65,56.65,0,0,0-2.16,9.55,23,23,0,0,1-1.24,4.81c-.93,2.67-1,5.47-1.81,8.16a34.48,34.48,0,0,0-1.7,9.07c0,.14.2.29.31.44-1.86,1.85-3,1.82-4.67-.16Q103.15,164,97.8,157.68c-4.6-5.38-9.22-10.75-13.8-16.15C83.54,141,82.83,140.55,82.8,139.7Z" transform="translate(-0.99 -2.93)" style="fill:#1eaaad;stroke:#000;stroke-miterlimit:10;stroke-width:0.5px"/><path d="M163.76,127.26a1.22,1.22,0,0,0-1.38-.29,24,24,0,0,1-6.33.32c-8.54,0-17,1.53-25.54,1.21-2.39-.09-2.32.22-1.71-2.13,1.23-4.75,2.32-9.54,3.58-14.29.9-3.44,2.13-6.8,2.92-10.26.48-2.11,1.51-4.07,1.54-6.29,0-1.13,1.27-1.88,1.12-3.1,1.61.66,2.19,2.3,3.22,3.49q11.65,13.55,23.17,27.23C165.82,124.89,165.61,126,163.76,127.26Z" transform="translate(-0.99 -2.93)" style="fill:#1eaaad;stroke:#000;stroke-miterlimit:10;stroke-width:0.5px"/><path d="M81.24,179.22c-4.94,1.27-9.77,2.58-12.54,3.35-6,1.68-9.21,2.46-16.43,4.47-2.54.7-5.06,1.43-7.59,2.15h0l-1.77.42c-.51.47-.26,1-.12,1.55,2.06,7.55,4.16,15.1,6.25,22.65a2.68,2.68,0,0,0,1.78,1.93c3.74,1.41,4.64,4.84,2.12,7.93-.71,1-1.84,1-2.85,1.25a4.58,4.58,0,0,1-5.37-1.74c-1.2-1.77-1.17-3.54.29-5.5a3.12,3.12,0,0,0,.56-3q-3.12-11.19-6.21-22.39c-.16-.56-.25-1.18-.84-1.53l-12.26,3.42a23.79,23.79,0,0,0-5,1.9A23.51,23.51,0,0,0,9.61,223.34c2.54,9.29,5.13,18.58,7.71,27.86a2.84,2.84,0,0,0,.63,1.5c.69,1.34,1.77.86,2.77.58q17.31-4.77,34.61-9.57c2.44-.67,4.89-1.32,7.33-2a1.8,1.8,0,0,0,1.21,0c2.89-.68,5.74-1.52,8.59-2.35a2.39,2.39,0,0,0,1-.67l1-.4a12.84,12.84,0,0,1,2.58-.72l1.12-.32c.32-.72-.49-3.28-.69-4-2.58-9.38-5.2-18.75-7.77-28.13a22.19,22.19,0,0,1-.75-8.07C69.57,190.57,81,179.56,81.24,179.22Z" transform="translate(-0.99 -2.93)" style="fill:#ebeff4;stroke:#000;stroke-linejoin:round;stroke-width:0.5px"/><path d="M51.09,215.37a1.9,1.9,0,0,1-1.6-1.6c-1.12-4.19-2.31-8.36-3.45-12.54-1.06-3.87-2.09-7.75-3.13-11.62-.16-.49-.32-1-.46-1.45L38,172.44c-.38.18-.86.13-1.17.46a.79.79,0,0,0-.23-.09,3,3,0,0,0-2.62,1c.13.63.23,1.27.4,1.88q2,7.56,4.1,15.11,3.48,12.39,6.95,24.79A1.37,1.37,0,0,1,45,217a5.08,5.08,0,0,0,.2,7.41c2.06,1.86,5.92,1.37,8-.49h0a4.3,4.3,0,0,0,1.61-4.65A4.65,4.65,0,0,0,51.09,215.37Z" transform="translate(-0.99 -2.93)" style="fill:#f3e02b;stroke:#000;stroke-miterlimit:10;stroke-width:0.5px"/><path d="M35.08,162.39c-.24-1-.14-2.23-1.55-2.4-1.85-.21-3,1-2.73,2.93a2,2,0,0,1-.08.53Z" transform="translate(-0.99 -2.93)" style="fill:#ffc000;stroke:#000;stroke-miterlimit:10;stroke-width:0.5px"/><path d="M102.51,343.57c-.09-.41-.15-.82-.26-1.22q-14.09-51-28.2-101.91c-.13-.47-.09-1-.59-1.35h0c0-.11,0-.21,0-.32-3.62.93-7.28,1.73-10.82,3,.16.62.29,1.25.46,1.88q14,50.63,28,101.25c.16.58.35,1.14.52,1.72a60.48,60.48,0,0,0,6.39-1.8h0Z" transform="translate(-0.99 -2.93)" style="fill:#f3e02b;stroke:#000;stroke-miterlimit:10;stroke-width:0.5px"/><path d="M78,235.44h0c-.17-.6-1.1-3.95-2.25-8.12-1.91-6.91-4.58-16.59-6.3-22.65a21.1,21.1,0,0,1,2-16.85,20.39,20.39,0,0,1,9.13-8.43l2.77-.79a22.52,22.52,0,0,1,5.22-1l1.12,0h1a17.85,17.85,0,0,1,3.22.29,22.52,22.52,0,0,1,7.91,3A23.88,23.88,0,0,1,112.31,195c4,14.48,7.31,26.4,7.79,28.19L86.75,234.14,78.31,237Z" transform="translate(-0.99 -2.93)" style="fill:#99a9b4"/><path d="M90.63,177.83a16.47,16.47,0,0,1,3.17.29,22,22,0,0,1,7.83,3,23.61,23.61,0,0,1,10.44,14c3.9,14,7.07,25.54,7.73,27.95L86.66,233.9l-8.17,2.78-.07-.32-.2-.86,0-.22h0l-2.21-8c-1.94-7-4.59-16.62-6.31-22.69a20.88,20.88,0,0,1,2-16.66,20.2,20.2,0,0,1,9-8.31l.48-.14,2.29-.65a22.63,22.63,0,0,1,5.16-1q.55,0,1.11,0h1m0-.5h-1c-.38,0-.75,0-1.13,0a23.12,23.12,0,0,0-5.28,1l-2.79.8c-5.78,2.37-15.14,11.85-11.27,25.57,2.9,10.26,8.55,30.87,8.59,30.88l.39,1.72,8.7-3,33.58-11S117,210.79,112.55,195a24.12,24.12,0,0,0-10.66-14.28,22.52,22.52,0,0,0-8-3.07,18.23,18.23,0,0,0-3.27-.29Z" transform="translate(-0.99 -2.93)"/><path d="M35.08,161.71s-5.21,1.37-5.64,1.53h0c-2.08.57-4.15,1.16-6.24,1.69-1.14.29-1.48.86-1.13,2,.74,2.46,1.38,4.95,2.07,7.43a1.92,1.92,0,0,0,2.4,1.26c.53.14,5.48-1.29,7.48-1.82l2.75-.8c.41-.21,1-.09,1.27-.57C37.05,168.87,35.08,161.71,35.08,161.71Z" transform="translate(-0.99 -2.93)" style="fill:#f10;stroke:#000;stroke-miterlimit:10;stroke-width:0.5px"/><path d="M258.25,206.54a1.36,1.36,0,0,1-.76-2.54q2.36-1.41,4.73-2.77c3.62-2.09,7.25-4.16,10.87-6.26,1-.56,1.86-.48,2.31.3s.16,1.42-.82,2c-3.61,2.11-7.23,4.19-10.85,6.28-1.53.88-3.07,1.75-4.59,2.66A1.82,1.82,0,0,1,258.25,206.54Z" transform="translate(-0.99 -2.93)" style="fill:#fcfcfb;stroke:#000;stroke-miterlimit:10;stroke-width:0.5px"/><rect x="80.58" y="276.01" width="182.47" height="124.22" rx="3.94" style="fill:#202020;stroke:#000;stroke-miterlimit:10;stroke-width:0.5px"/><path d="M264,403.16c.42.32,21.75,18.69,31.26,26.92.55.48,1.06,1,1.59,1.52.15,1.53-.6,2.39-2.39,2.63a29.15,29.15,0,0,1-4.08.32q-29,0-58,0H54.13a33.34,33.34,0,0,1-4.58-.3c-1.82-.25-2.45-1-2.22-2.67,2.53-2.46,5.29-4.66,8-7Q67.35,414.2,79.4,403.77c1.68-1.46,3.75-1.33,5.7-1.72.65-.13,1.31-.18,2-.26a1.67,1.67,0,0,1,1.43-.13,4.08,4.08,0,0,0,1.59.13c1.82-.23,3.67.08,5.48-.3a6.47,6.47,0,0,1,2,.14,7.73,7.73,0,0,0,2.35.17q78.15,0,156.31,0c1.74,0,3.47.22,5.21.13C262.49,401.86,263.19,402.66,264,403.16Z" transform="translate(-0.99 -2.93)" style="fill:#fdfdfd;stroke:#000;stroke-miterlimit:10;stroke-width:0.5px"/><path d="M47.33,431.58c0,1.38.88,2,2.61,2.2,5.13.55,10.27.24,15.4.25q81.14,0,162.27,0,30.7,0,61.4,0a47,47,0,0,0,5.32-.31,2.58,2.58,0,0,0,2.55-2.15c.29,3.27-.25,10.31-4.6,10.31-1.78,0-3.48,0-5.26,0q-107.5,0-215,0c-6.55,0-13.09.3-19.63-.23a3.07,3.07,0,0,1-2.78-1.15c-2.93-2.25-2.57-5.47-2.52-8.6C47.11,431.76,47.25,431.67,47.33,431.58Z" transform="translate(-0.99 -2.93)" style="fill:#c8c8c8;stroke:#000;stroke-linejoin:round;stroke-width:0.5px"/><path d="M172,418.11H85.58c-2,0-4,0-6,0-.23,0-.54.11-.66-.19s.14-.43.3-.61c1.65-1.78,3.38-3.49,4.91-5.36s3.3-3.15,4.5-5.12a1.5,1.5,0,0,1,1.38-.68q58.56,0,117.13,0,22.95,0,45.89,0a3.86,3.86,0,0,1,3,1.45c1.89,2.08,3.73,4.2,5.59,6.3,1.05,1.17,2.11,2.32,3.17,3.49.13.14.34.26.25.5s-.34.2-.54.21c-.37,0-.75,0-1.12,0Z" transform="translate(-0.99 -2.93)" style="fill:#d4d4d4;stroke:#000;stroke-miterlimit:10;stroke-width:0.5px"/><path d="M172,430.78H150.6c-1.65,0-1.61,0-1.18-1.58.63-2.21,1.2-4.44,1.62-6.7.17-.93.5-1.16,1.35-1.15,3.64,0,7.29,0,10.93,0,9.28,0,18.56,0,27.84,0,1.09,0,1.69.16,2,1.38.5,2.42,1.19,4.8,1.84,7.19.21.75-.13.87-.73.87H172Z" transform="translate(-0.99 -2.93)" style="fill:#c8c8c8;stroke:#000;stroke-miterlimit:10;stroke-width:0.5px"/><path d="M256.07,291.51V398.17a3.63,3.63,0,0,1-3.62,3.62H92.4a3.62,3.62,0,0,1-3.61-3.62V291.51a3.62,3.62,0,0,1,3.61-3.61h160A3.63,3.63,0,0,1,256.07,291.51Z" transform="translate(-0.99 -2.93)" style="fill:#026773;stroke:#000;stroke-miterlimit:10;stroke-width:0.5px"/><polygon points="211.76 398.86 164.74 398.86 123.06 284.97 170.08 284.97 211.76 398.86" style="fill:#fff;stroke:#000;stroke-miterlimit:10;stroke-width:0.5px;opacity:0.22"/><path d="M155.91,401.79H117.25L88.79,324.41v-32.9a3.62,3.62,0,0,1,3.61-3.61H114Z" transform="translate(-0.99 -2.93)" style="fill:#fff;stroke:#000;stroke-miterlimit:10;stroke-width:0.5px;opacity:0.22"/><path d="M248.8,244a1.75,1.75,0,0,1-2.15.37,2.2,2.2,0,0,0-1.34-.22c.14.46.52.69.79,1s.39.58,0,.92-.69.23-1-.12a1.85,1.85,0,0,1-.14-.14,3,3,0,0,0-3.28-1.7c-.14,0-.31-.09-.47-.14.26-.3.61-.2.92-.19C244.39,243.82,246.59,243.9,248.8,244Z" transform="translate(-0.99 -2.93)" style="fill:#fdeca5;stroke:#000;stroke-miterlimit:10;stroke-width:0.5px"/><path d="M213.4,96.26c-.25,2.1,3.87,1.28,5,1.36,5.16.35,10.29,1.09,15.45,1.43q26.36,1.73,52.69,3.44c1.75.11,3.64.55,4.88-1.31,3.75-5,7.49-10,11.27-15,.35-.47.89-1,.64-1.45-.38-.76-1.12-.26-1.74-.18-8.16,1.07-16.34,2.09-24.5,3.18-7.51,1-15,2.25-22.54,3.09C247.61,91.59,217.21,95.79,213.4,96.26Z" transform="translate(-0.99 -2.93)" style="fill:#ebeff4;stroke:#000;stroke-miterlimit:10;stroke-width:0.5px"/><path d="M293.21,121.22a.47.47,0,0,1-.53-.32l0-.06,0,0a26.75,26.75,0,0,1-3.68-4l-.57-.72c-.33-.41-.65-.83-1-1.25a18.33,18.33,0,0,0-3.53-3.79l-.06,0h-.08a7.94,7.94,0,0,1-3.31-.64,3,3,0,0,0-1.51-.31h-.61a3.44,3.44,0,0,1-.7,0c-2.48-.46-5-1-7.43-1.45-5.68-1.14-11.56-2.31-17.41-3.08A76.57,76.57,0,0,0,241.38,103a59.29,59.29,0,0,1-7.68-1.36,56.18,56.18,0,0,0-8.93-1.45,8.55,8.55,0,0,0-2.64-.79,23.35,23.35,0,0,1-9.56-3,8.76,8.76,0,0,1,2.26-.38l1-.1c2.06,1.18,20.91,2.5,58.47,4.77,5.21.31,10,.6,14.08.86h.55c.53,0,1.06,0,1.58-.08l.73,0c0,.18,0,.35,0,.53,0,.58.05,1.17.11,1.74q.72,6.51,1.45,13l.5,4.5Z" transform="translate(-0.99 -2.93)" style="fill:#99a9b4"/><path d="M215.7,96.19c.83.48,4.25,1.11,20.31,2.29,11.47.85,25.71,1.71,38.27,2.47,5.21.31,10,.6,14.06.86h.57c.54,0,1.08,0,1.61-.08l.46,0c0,.1,0,.2,0,.29,0,.57.05,1.16.11,1.75q.75,6.78,1.51,13.57l.41,3.63c-.06,0-.08-.07-.11-.14l-.05-.11-.1-.08a25.58,25.58,0,0,1-3.64-4l-.58-.72c-.33-.4-.65-.82-1-1.24a18.29,18.29,0,0,0-3.58-3.84l-.12-.09h-.16a8,8,0,0,1-3.19-.59,3.1,3.1,0,0,0-1.64-.36h-.61a3.83,3.83,0,0,1-.66,0c-2.48-.47-5-1-7.43-1.46-5.67-1.13-11.53-2.3-17.38-3.07a76.77,76.77,0,0,0-11.41-2.45,61.19,61.19,0,0,1-7.65-1.35,55.26,55.26,0,0,0-8.87-1.45,9.78,9.78,0,0,0-2.72-.8,24,24,0,0,1-9-2.68,11,11,0,0,1,1.67-.22c.28,0,.57,0,.85-.09m.17-.52a12.45,12.45,0,0,0-3.83.69c3,2.08,6.52,2.83,10.05,3.31a9.5,9.5,0,0,1,2.67.8c5.64.29,11,2.3,16.59,2.81a75.82,75.82,0,0,1,11.36,2.44c8.35,1.09,16.55,3,24.82,4.53a4.73,4.73,0,0,0,.75,0h.61a2.76,2.76,0,0,1,1.4.29,8.14,8.14,0,0,0,3.41.66c1.84,1.34,3.05,3.25,4.45,5a31.7,31.7,0,0,0,4.29,4.75.74.74,0,0,0,.77.48l.37,0q-1-8.88-2-17.75c-.09-.84-.1-1.68-.14-2.51-.85,0-1.7.14-2.55.14h-.53c-23.12-1.46-71.9-4.08-72.51-5.64Z" transform="translate(-0.99 -2.93)"/><path d="M280.47,118.3a5.62,5.62,0,0,1-.22-1.28l4.53-6.36c1.47,1.85,6.64,8.44,8.17,10.39Z" transform="translate(-0.99 -2.93)" style="fill:#6e7f89"/><path d="M284.79,111.07c1.55,2,5.72,7.27,7.53,9.58l-11.65-2.56a5.25,5.25,0,0,1-.17-1l1.73-2.42,2.56-3.61m0-.83-4.77,6.7a6.15,6.15,0,0,0,.27,1.57l13.31,2.93s-7.54-9.6-8.81-11.2Z" transform="translate(-0.99 -2.93)"/><path d="M284.77,110.24c.31,3.13-14.09,20.08-14.66,20.49-1.09.61-55.59-31.29-58.07-34.37C216.31,97.35,283.44,110.13,284.77,110.24Z" transform="translate(-0.99 -2.93)" style="fill:#ebeff4;stroke:#000;stroke-miterlimit:10;stroke-width:0.5px"/><path d="M297.55,120.46c1.39.46,2.75,1,4.08,1.52" transform="translate(-0.99 -2.93)" style="fill:none;stroke:#f10;stroke-linecap:round;stroke-miterlimit:10;stroke-width:2.09526308110083px"/><path d="M309.4,125.92c13.55,8.25,21.38,21,19.14,30.85-5.08,22.38-29.38,30-40.25,25.71-9.92-3.91-5.45-19.58,7.3-16.11,14.1,3.83,16.87,18,6.68,38.78a45.32,45.32,0,0,1-14.18,16.56" transform="translate(-0.99 -2.93)" style="fill:none;stroke:#f10;stroke-linecap:round;stroke-miterlimit:10;stroke-width:2.09526308110083px;stroke-dasharray:8.713781356811523,8.713781356811523"/><path d="M284.45,224.1a33.43,33.43,0,0,1-3.88,2" transform="translate(-0.99 -2.93)" style="fill:none;stroke:#f10;stroke-linecap:round;stroke-miterlimit:10;stroke-width:2.09526308110083px"/><path d="M31.24,68.26a3.85,3.85,0,0,1-.07-2.44c.12-.74.8-1.06,1.61-1.12q6.72-.42,13.43-.92c6.49-.47,13-1,19.47-1.45,4.64-.34,9.29-.59,13.92-1,3.17-.29,3.26.25,3.37,3.24a10.42,10.42,0,0,1-2.77,2.23c-4.74,3.49-9.39,7.09-14.14,10.58-1.53,1.13-3,2.35-4.63,3.33a7.12,7.12,0,0,1-6.65.36c-3.5-1.41-6.59-3.62-10-5.26-2.67-1.3-5.13-3-7.85-4.18A47.72,47.72,0,0,1,31.24,68.26Z" transform="translate(-0.99 -2.93)" style="fill:#1eaaad;stroke:#000;stroke-miterlimit:10;stroke-width:0.5px"/><path d="M31.24,68.26c1.34.07,2.35,1,3.44,1.56,3.24,1.78,6.54,3.46,9.73,5.3,2.4,1.39,4.93,2.55,7.27,4.06,2.55,1.64,5.4,2.92,8.59,1.69a20.49,20.49,0,0,0,4.58-3c1.27-.94,2.5-1.93,3.79-2.85,1.1-.78,2.11-1.67,3.17-2.5a23.59,23.59,0,0,1,2.93-2.17c1.24-.69,2.24-1.68,3.4-2.46,1.62-1.1,3-2.56,4.83-3.33a1.05,1.05,0,0,1,0,1,1.18,1.18,0,0,1-.62.95c-3.82,2.93-7.55,6-11.33,9-2.53,2-4.92,4.17-7.54,6-.73.53-.53.71.09,1.19C69,86.87,75.3,89.89,80.74,94.19c.49.38,1.07.63,1.59,1s1,.47.72,1.18l-1.12.19a41.78,41.78,0,0,0-5.46.4c-7.07.47-14.15,1-21.22,1.51l-18.56,1.4a6.85,6.85,0,0,1-.78-.07c-.52-.57.09-.86.33-1.21a22.5,22.5,0,0,1,4.38-4.06c1.59-1.33,3-2.85,4.66-4.14,2.54-2,4.79-4.33,7.35-6.3a4.09,4.09,0,0,0,.78-.72c.38-.49.33-.82-.27-1.14C48,79.39,43,76.19,37.8,73.4c-1.87-1-3.59-2.28-5.5-3.24a1.92,1.92,0,0,1-.89-.78C31.33,69,30.94,68.69,31.24,68.26Z" transform="translate(-0.99 -2.93)" style="fill:#026773;stroke:#000;stroke-miterlimit:10;stroke-width:0.5px"/><path d="M31.41,69.38a27.22,27.22,0,0,1,4,2c3.37,2.37,7.06,4.18,10.59,6.26,2.2,1.29,4.31,2.74,6.56,4l.36.17c.51.2,1.38,0,1.4.74s-.59,1.27-1.15,1.69a40,40,0,0,0-5.26,4.56A16.17,16.17,0,0,1,45.18,91c-1.65,1.14-2.88,2.71-4.46,3.91a24.88,24.88,0,0,0-4.8,4.49c-.06.08,0,.25,0,.38-1.84.28-2.47-.21-2.61-2.06q-.42-5.85-.85-11.7c-.38-5-.77-10-1.12-15.07C31.3,70.43,31.07,69.88,31.41,69.38Z" transform="translate(-0.99 -2.93)" style="fill:#1eaaad;stroke:#000;stroke-miterlimit:10;stroke-width:0.5px"/><path d="M83.05,96.33a.89.89,0,0,0-.67-.75,17.56,17.56,0,0,1-3.77-2.48C73.74,89.49,68.24,86.83,63.47,83c-1.33-1.06-1.42-.85-.09-1.94,2.71-2.2,5.36-4.49,8.07-6.68,2-1.59,4.09-3,6-4.65,1.16-1,2.57-1.7,3.53-3,.49-.64,1.51-.54,2-1.3.64,1,.28,2.24.37,3.35.65,8.45,1.24,16.9,1.82,25.36C85.23,95.84,84.65,96.37,83.05,96.33Z" transform="translate(-0.99 -2.93)" style="fill:#1eaaad;stroke:#000;stroke-miterlimit:10;stroke-width:0.5px"/><path d="M100.63,7.1a2.62,2.62,0,0,1,1.6.39c.46.21.55.71.44,1.24q-.9,4.45-1.77,8.91c-.83,4.3-1.65,8.62-2.49,12.93-.59,3.08-1.25,6.14-1.79,9.23-.36,2.12-.73,2.08-2.7,1.63a7.08,7.08,0,0,1-1-2.2c-1.44-3.7-3-7.36-4.39-11.06-.47-1.2-1-2.37-1.36-3.61a4.81,4.81,0,0,1,.94-4.39c1.53-2,3.52-3.65,5.18-5.56,1.32-1.51,2.84-2.82,4.11-4.38A32.54,32.54,0,0,1,100.63,7.1Z" transform="translate(-0.99 -2.93)" style="fill:#1eaaad;stroke:#000;stroke-miterlimit:10;stroke-width:0.5px"/><path d="M100.63,7.1a5.65,5.65,0,0,1-1.62,2c-1.74,1.79-3.41,3.64-5.17,5.4-1.33,1.31-2.53,2.75-3.93,4s-2.84,3-2.61,5.29a13.6,13.6,0,0,0,1.16,3.52c.38,1,.81,2,1.18,3,.31.85.72,1.66,1.07,2.5a16.48,16.48,0,0,1,.9,2.29,28.23,28.23,0,0,0,1,2.65,18.76,18.76,0,0,1,1.31,3.73.7.7,0,0,1-.61-.2c-.3-.08-.41-.31-.52-.57-1.23-3-2.55-6-3.83-8.95-.85-2-1.85-3.94-2.61-6-.21-.56-.37-.47-.79-.15C81.85,28.41,78.78,32,75,34.75a12.46,12.46,0,0,0-.91.87c-.24.22-.49.57-.9.26,0-.26,0-.51.08-.76A28.2,28.2,0,0,0,74,31.5q1.41-7,2.75-14.09c.8-4.11,1.58-8.22,2.37-12.33a3.68,3.68,0,0,1,.18-.49c.46-.23.54.21.73.43A15.14,15.14,0,0,1,81.9,8.58c.58,1.28,1.32,2.47,1.87,3.77.85,2,2,3.88,2.81,5.89a2.53,2.53,0,0,0,.33.63c.25.34.47.37.79,0,2.73-2.88,5.69-5.54,8.42-8.43,1-1,2.12-1.94,3.08-3A1.28,1.28,0,0,1,99.87,7C100.12,7,100.4,6.83,100.63,7.1Z" transform="translate(-0.99 -2.93)" style="fill:#026773;stroke:#000;stroke-miterlimit:10;stroke-width:0.5px"/><path d="M99.87,7a19.69,19.69,0,0,1-2,2.26c-2.14,1.77-4,3.85-6,5.79-1.23,1.2-2.54,2.32-3.72,3.57-.06.07-.12.13-.18.21-.22.29-.25.89-.72.77s-.73-.6-.9-1a27.5,27.5,0,0,0-2.05-4.23,11.16,11.16,0,0,1-1-2.18c-.45-1.28-1.26-2.35-1.76-3.59a16.85,16.85,0,0,0-2.07-3.91c0-.06-.17,0-.25-.08.14-1.25.57-1.57,1.8-1.33l7.77,1.5c3.33.64,6.67,1.27,10,1.93C99.2,6.76,99.6,6.71,99.87,7Z" transform="translate(-0.99 -2.93)" style="fill:#1eaaad;stroke:#000;stroke-miterlimit:10;stroke-width:0.5px"/><path d="M73.22,35.88a.59.59,0,0,0,.61-.3,11.24,11.24,0,0,1,2.28-2C79.32,31,82,27.91,85.32,25.48c.93-.68.81-.78,1.28.28,1,2.16,2,4.28,2.93,6.43.69,1.56,1.23,3.19,2,4.72a14.42,14.42,0,0,0,1.3,2.82c.33.43.09,1.09.51,1.5-.8.24-1.51-.21-2.25-.35-5.62-1.06-11.22-2.17-16.83-3.28C73.16,37.38,72.92,36.91,73.22,35.88Z" transform="translate(-0.99 -2.93)" style="fill:#1eaaad;stroke:#000;stroke-miterlimit:10;stroke-width:0.5px"/><path d="M160.94,179.81c0-4.09,1.72-7.2,5.44-9.05a8.88,8.88,0,0,1,4.11-.86c5.77,0,11.54,0,17.32,0h82.73a.32.32,0,0,1,.43,0,9.27,9.27,0,0,1,8.52,6.73,10,10,0,0,1,.33,2.83q0,35,0,70a9.16,9.16,0,0,1-4.9,8.57,6.81,6.81,0,0,1-3.46,1,2,2,0,0,1-.6,0,110.85,110.85,0,0,0-11.24.26c-7.94.5-43.23.22-49.78.21a4.89,4.89,0,0,0-3.54,1.41,17,17,0,0,1-2.85,2.28q-6.75,5.75-13.58,11.42c-.4.34-.86.88-1.37.09a4.36,4.36,0,0,1-.12-1.57c0-4.06,0-8.11,0-12.17,0-1.31-.11-1.41-1.41-1.41h-16a11.06,11.06,0,0,1-3.7-.54,9.9,9.9,0,0,1-6.75-9.4c0-2,0-4,0-6q0-17.17,0-34.34C160.48,205.43,160.93,182.84,160.94,179.81Z" transform="translate(-0.99 -2.93)" style="fill:#ebeff4;stroke:#000;stroke-miterlimit:10;stroke-width:0.5px"/><path d="M263.24,190.55c-1.57,1.15-3.13,2.32-4.71,3.45l-5.67,4c-1.16.88-2.38,1.66-3.54,2.52-2.18,1.6-4.39,3.16-6.6,4.72l-2.59,1.86-5.71,4.06-10.6,7.57-2.6,1.88c-.2.15-.4.3-.6.47a1,1,0,0,1-.66.28,1,1,0,0,1-.67-.28c-.19-.17-.4-.32-.6-.47l-2.6-1.88-10.59-7.57-5.71-4.06c-.87-.61-1.73-1.24-2.6-1.86-2.21-1.56-4.42-3.12-6.59-4.72-1.17-.86-2.39-1.64-3.54-2.52-1.89-1.34-3.79-2.68-5.67-4-1.51-1.08-3-2.19-4.49-3.29a3.19,3.19,0,0,1,.26-.26,2.92,2.92,0,0,1,1.94-.74h82.09a2.91,2.91,0,0,1,1.76.59A2.37,2.37,0,0,1,263.24,190.55Z" transform="translate(-0.99 -2.93)" style="fill:#d6bf13;stroke:#000;stroke-miterlimit:10;stroke-width:0.5px"/><path d="M264.13,192.65v47.78a2.94,2.94,0,0,1-2.94,2.93H179.1a2.94,2.94,0,0,1-2.94-2.93V192.65a2.92,2.92,0,0,1,.74-1.94,3.19,3.19,0,0,1,.26-.26c1.87,1.37,3.77,2.68,5.65,4l3.75,2.67c.48.3.93.64,1.37,1l15.65,11.18q6.34,4.51,12.66,9.1c.94.68,2,1.26,2.85,2a1.33,1.33,0,0,0,.87.39,1.37,1.37,0,0,0,.87-.39c.88-.76,1.9-1.34,2.84-2q6.32-4.57,12.67-9.1,7.83-5.58,15.64-11.18c.45-.34.9-.68,1.37-1l3.75-2.67c1.95-1.39,3.92-2.76,5.85-4.18a2.37,2.37,0,0,1,.29.25A2.91,2.91,0,0,1,264.13,192.65Z" transform="translate(-0.99 -2.93)" style="fill:#f3e02b;stroke:#000;stroke-miterlimit:10;stroke-width:0.5px"/><circle cx="256.75" cy="186.78" r="13.87" style="fill:#f10;stroke:#000;stroke-miterlimit:10;stroke-width:0.5px"/><path d="M260.48,182.09v14.69h-3.61V185.61l-4.65,2.69v-3.2l5.27-3Z" transform="translate(-0.99 -2.93)" style="fill:#fff;stroke:#000;stroke-miterlimit:10;stroke-width:0.5px"/></svg>