<svg width="320" height="182" viewBox="0 0 320 182" fill="none" xmlns="http://www.w3.org/2000/svg">
<g clip-path="url(#clip0)">
<path d="M3.01843 25.0115C3.01506 25.0115 3.01001 25.0115 3.00665 25.0115C3.00665 25.2577 3.00665 25.5022 3.00665 25.7484C3.00496 28.7402 2.99654 31.732 3.00159 34.7238C3.00496 36.2112 4.04908 37.4695 5.50244 37.531C7.52333 37.6182 9.55096 37.5652 11.5769 37.5652C13.0505 37.5652 14.3354 36.2095 14.295 34.5033C14.2495 32.5885 14.3219 30.6721 14.3388 28.7556C14.3624 26.1502 14.3842 23.5447 14.4078 20.9393C14.4129 20.4623 14.4786 20.3717 14.9248 20.2503C15.9521 19.9699 16.9845 19.9186 18.0336 20.1443C19.9316 20.5546 21.3193 22.0403 21.523 23.9978C21.6241 24.9705 21.6308 25.9553 21.6443 26.9366C21.6813 29.5061 21.7016 32.0773 21.7268 34.6486C21.7437 36.3531 22.9562 37.5908 24.6335 37.5994C26.4405 37.6079 28.2492 37.6114 30.0562 37.6079C31.7639 37.6062 32.9832 36.3907 32.9865 34.6572C32.9983 29.3745 32.9966 24.0918 33 18.8091C33 18.7271 33 18.645 32.9933 18.5646C32.9461 18.009 32.7322 17.5338 32.2489 17.2517C31.9138 17.0568 31.5483 16.8858 31.1762 16.7952C29.706 16.4396 28.2105 16.3712 26.7184 16.6037C25.5716 16.7815 24.4399 17.0636 23.3014 17.2978C21.8043 17.6038 20.297 17.7338 18.7729 17.5765C16.8144 17.3747 15.1151 16.5319 13.5203 15.4121C12.7642 14.8804 11.9979 14.3607 11.2131 13.8718C10.2566 13.2768 9.18551 13.0802 8.07908 13.017C6.8918 12.9503 5.70958 12.9195 4.54084 13.193C3.62975 13.405 3.15316 13.9436 3.04875 14.8804C3.02686 15.077 3.01675 15.2771 3.01675 15.4754C3.01843 18.6535 3.01843 21.8317 3.01843 25.0115ZM8.65671 11.5176C11.7908 11.5228 14.3388 8.95494 14.3472 5.78362C14.3556 2.60033 11.8295 0.0102882 8.70723 3.06047e-05C5.55296 -0.010227 3.00328 2.55931 3.00159 5.75115C2.99823 8.93272 5.5277 11.5108 8.65671 11.5176ZM32.8636 8.71902C32.8686 5.54086 30.3375 2.95422 27.2135 2.94397C24.0795 2.93371 21.5281 5.49812 21.518 8.66943C21.5079 11.8715 24.039 14.4616 27.1815 14.4633C30.3122 14.465 32.8585 11.8903 32.8636 8.71902Z" fill="white"/>
</g>
<path d="M15.616 134.345C24.544 134.345 30.208 128.969 30.208 122.281C30.208 115.465 24.544 110.473 15.648 110.473C6.656 110.473 1.024 115.465 1.024 122.281C1.024 128.937 6.656 134.345 15.616 134.345ZM15.616 127.849C11.936 127.849 9.6 125.577 9.6 122.345C9.6 119.145 11.936 116.969 15.616 116.969C19.264 116.969 21.6 119.145 21.6 122.345C21.6 125.577 19.264 127.849 15.616 127.849ZM47.8908 114.889V124.105C47.8908 126.953 46.6108 128.425 44.1468 128.425C41.7468 128.425 40.6588 127.113 40.6588 124.265V114.889H32.8188V126.185C32.8188 131.369 35.4748 134.281 40.4988 134.281C44.0508 134.281 46.6428 132.713 47.8908 129.737V133.609H55.7308V114.889H47.8908ZM72.7313 114.473C69.7873 114.473 67.8673 116.425 67.0033 120.841V114.889H59.3233V133.609H67.1633V127.721C67.1633 123.209 69.2113 121.353 72.4753 121.353C73.9153 121.353 75.0033 121.737 75.6433 122.153V115.241C75.0353 114.857 74.0433 114.473 72.7313 114.473ZM93.7995 127.081V111.209H85.7995V133.609H106.376V127.081H93.7995ZM117.437 114.057C113.501 114.057 110.653 115.177 108.637 116.553V122.409C110.365 120.937 112.541 120.105 114.877 120.105C118.301 120.105 120.797 121.577 121.021 124.553C119.549 122.793 117.661 122.057 115.036 122.057C110.461 122.057 107.741 124.585 107.741 128.169C107.741 131.625 110.237 134.249 114.589 134.249C117.629 134.249 119.741 133.193 121.053 131.273V133.609H128.637V124.201C128.637 117.641 124.669 114.057 117.437 114.057ZM117.757 129.833C115.997 129.833 114.877 129.001 114.877 127.721C114.877 126.473 115.997 125.609 117.789 125.609C119.741 125.609 121.053 126.441 121.053 127.689C121.053 129.001 119.677 129.833 117.757 129.833ZM148.823 114.889H143.159V110.473L135.319 111.625V114.889H130.103V120.489H135.319V133.609H143.159V120.489H148.823V114.889ZM171.729 123.497C171.729 117.801 168.273 114.057 161.073 114.057C153.777 114.057 149.489 118.281 149.489 123.977C149.489 130.025 154.225 134.249 162.097 134.249C165.713 134.249 169.041 133.289 171.089 131.945V126.409C169.073 127.625 166.929 128.329 164.113 128.329C160.593 128.329 158.353 127.337 157.425 125.641H171.729V123.497ZM161.457 119.657C163.729 119.657 165.105 120.585 165.425 122.217H157.233C157.681 120.681 159.153 119.657 161.457 119.657ZM183.95 134.249C190.318 134.249 193.71 131.689 193.71 127.913C193.71 124.201 191.47 122.697 187.502 121.993L184.302 121.417C182.766 121.097 182.126 120.905 182.126 120.201C182.126 119.561 182.99 119.177 185.134 119.177C188.014 119.177 190.734 120.009 192.654 121.129V116.105C190.83 114.985 187.79 114.057 184.014 114.057C177.934 114.057 174.094 116.457 174.094 120.169C174.094 123.017 175.662 124.809 180.174 125.865L184.014 126.729C185.326 127.049 185.582 127.497 185.582 128.073C185.582 128.585 184.91 129.097 183.246 129.097C179.982 129.097 176.046 127.945 173.934 126.313V131.625C176.718 133.321 180.27 134.249 183.95 134.249ZM213.448 114.889H207.784V110.473L199.944 111.625V114.889H194.728V120.489H199.944V133.609H207.784V120.489H213.448V114.889ZM30.752 149.209L27.616 163.001L23.776 149.209H14.848L11.328 162.297L8.32 149.209H0.256L5.92 171.609H15.168L18.912 157.817L22.88 171.609H33.12L38.752 149.209H30.752ZM61.1978 161.497C61.1978 155.801 57.7418 152.057 50.5418 152.057C43.2458 152.057 38.9578 156.281 38.9578 161.977C38.9578 168.025 43.6938 172.249 51.5658 172.249C55.1818 172.249 58.5098 171.289 60.5578 169.945V164.409C58.5418 165.625 56.3978 166.329 53.5818 166.329C50.0618 166.329 47.8218 165.337 46.8938 163.641H61.1978V161.497ZM50.9258 157.657C53.1978 157.657 54.5738 158.585 54.8938 160.217H46.7018C47.1498 158.681 48.6218 157.657 50.9258 157.657ZM79.8507 152.057C75.5628 152.057 72.8748 153.977 71.8188 157.433V148.569H64.0108V171.609H71.8188V167.801C73.2268 170.809 75.9148 172.249 79.6268 172.249C84.9068 172.249 88.6508 168.153 88.6508 162.105C88.6508 156.409 85.2908 152.057 79.8507 152.057ZM76.0748 166.265C73.3868 166.265 71.7868 164.569 71.7868 162.201C71.7868 159.801 73.4508 158.041 76.1388 158.041C78.7948 158.041 80.4588 159.769 80.4588 162.137C80.4588 164.537 78.7628 166.265 76.0748 166.265ZM95.3538 152.985C97.8177 152.985 99.5458 151.673 99.5458 149.785C99.5458 147.961 97.8177 146.649 95.3538 146.649C92.8578 146.649 91.0658 147.961 91.0658 149.785C91.0658 151.673 92.8578 152.985 95.3538 152.985ZM91.3858 171.609H99.2258V154.169H91.3858V171.609ZM118.151 152.057C114.247 152.057 111.879 153.817 110.567 157.561V152.889H102.823V171.609H110.631V162.809C110.631 159.897 111.943 158.393 114.503 158.393C116.807 158.393 118.023 159.865 118.023 162.681V171.609H125.863V161.017C125.863 155.129 123.207 152.057 118.151 152.057ZM138.062 152.057C134.126 152.057 131.278 153.177 129.262 154.553V160.409C130.99 158.937 133.166 158.105 135.502 158.105C138.926 158.105 141.422 159.577 141.646 162.553C140.174 160.793 138.286 160.057 135.661 160.057C131.086 160.057 128.366 162.585 128.366 166.169C128.366 169.625 130.862 172.249 135.214 172.249C138.254 172.249 140.366 171.193 141.678 169.273V171.609H149.262V162.201C149.262 155.641 145.294 152.057 138.062 152.057ZM138.382 167.833C136.622 167.833 135.502 167.001 135.502 165.721C135.502 164.473 136.622 163.609 138.414 163.609C140.366 163.609 141.678 164.441 141.678 165.689C141.678 167.001 140.302 167.833 138.382 167.833ZM165.919 152.473C162.975 152.473 161.055 154.425 160.191 158.841V152.889H152.511V171.609H160.351V165.721C160.351 161.209 162.399 159.353 165.663 159.353C167.103 159.353 168.191 159.737 168.831 160.153V153.241C168.223 152.857 167.231 152.473 165.919 152.473Z" fill="white"/>
<defs>
<clipPath id="clip0">
<rect width="36" height="37.6092" fill="white"/>
</clipPath>
</defs>
</svg>
