<svg width="320" height="182" viewBox="0 0 320 182" fill="none" xmlns="http://www.w3.org/2000/svg">
<g clip-path="url(#clip0)">
<path d="M3.01843 25.0115C3.01506 25.0115 3.01001 25.0115 3.00665 25.0115C3.00665 25.2577 3.00665 25.5022 3.00665 25.7484C3.00496 28.7402 2.99654 31.732 3.00159 34.7238C3.00496 36.2112 4.04908 37.4695 5.50244 37.531C7.52333 37.6182 9.55096 37.5652 11.5769 37.5652C13.0505 37.5652 14.3354 36.2095 14.295 34.5033C14.2495 32.5885 14.3219 30.6721 14.3388 28.7556C14.3624 26.1502 14.3842 23.5447 14.4078 20.9393C14.4129 20.4623 14.4786 20.3717 14.9248 20.2503C15.9521 19.9699 16.9845 19.9186 18.0336 20.1443C19.9316 20.5546 21.3193 22.0403 21.523 23.9978C21.6241 24.9705 21.6308 25.9553 21.6443 26.9366C21.6813 29.5061 21.7016 32.0773 21.7268 34.6486C21.7437 36.3531 22.9562 37.5908 24.6335 37.5994C26.4405 37.6079 28.2492 37.6114 30.0562 37.6079C31.7639 37.6062 32.9832 36.3907 32.9865 34.6572C32.9983 29.3745 32.9966 24.0918 33 18.8091C33 18.7271 33 18.645 32.9933 18.5646C32.9461 18.009 32.7322 17.5338 32.2489 17.2517C31.9138 17.0568 31.5483 16.8858 31.1762 16.7952C29.706 16.4396 28.2105 16.3712 26.7184 16.6037C25.5716 16.7815 24.4399 17.0636 23.3014 17.2978C21.8043 17.6038 20.297 17.7338 18.7729 17.5765C16.8144 17.3747 15.1151 16.5319 13.5203 15.4121C12.7642 14.8804 11.9979 14.3607 11.2131 13.8718C10.2566 13.2768 9.18551 13.0802 8.07908 13.017C6.8918 12.9503 5.70958 12.9195 4.54084 13.193C3.62975 13.405 3.15316 13.9436 3.04875 14.8804C3.02686 15.077 3.01675 15.2771 3.01675 15.4754C3.01843 18.6535 3.01843 21.8317 3.01843 25.0115ZM8.65671 11.5176C11.7908 11.5228 14.3388 8.95494 14.3472 5.78362C14.3556 2.60033 11.8295 0.0102882 8.70723 3.06047e-05C5.55296 -0.010227 3.00328 2.55931 3.00159 5.75115C2.99823 8.93272 5.5277 11.5108 8.65671 11.5176ZM32.8636 8.71902C32.8686 5.54086 30.3375 2.95422 27.2135 2.94397C24.0795 2.93371 21.5281 5.49812 21.518 8.66943C21.5079 11.8715 24.039 14.4616 27.1815 14.4633C30.3122 14.465 32.8585 11.8903 32.8636 8.71902Z" fill="black"/>
</g>
<path d="M21.76 159.257C24.32 158.649 25.632 157.081 25.632 154.873C25.632 151.673 22.656 149.209 16.736 149.209H2.112V171.609H16.288C23.424 171.609 26.496 168.697 26.496 164.825C26.496 162.041 24.992 159.961 21.76 159.257ZM14.496 154.425C16.352 154.425 17.12 155.065 17.12 156.377C17.12 157.497 16.288 158.137 14.56 158.137H9.952V154.425H14.496ZM14.592 166.393H9.952V162.265H14.816C16.928 162.265 17.888 162.905 17.888 164.185C17.888 165.657 16.864 166.393 14.592 166.393ZM29.292 171.609H37.1V148.569H29.292V171.609ZM51.9943 172.249C59.7703 172.249 64.1863 167.737 64.1863 162.009C64.1863 156.249 59.7703 152.057 51.9943 152.057C44.2183 152.057 39.7703 156.281 39.7703 162.009C39.7703 167.705 44.2183 172.249 51.9943 172.249ZM51.9943 166.393C49.2423 166.393 47.6103 164.665 47.6103 162.137C47.6103 159.609 49.2423 157.945 51.9943 157.945C54.7143 157.945 56.3463 159.609 56.3463 162.137C56.3463 164.665 54.7143 166.393 51.9943 166.393ZM82.4705 152.889V156.825C81.0305 153.593 78.6945 152.057 75.0785 152.057C69.6385 152.057 65.9905 155.833 65.9905 161.465C65.9905 166.649 69.3505 170.425 74.8865 170.425C78.3745 170.425 80.9665 169.017 82.4705 165.657V166.137C82.4705 170.617 79.8145 172.857 74.9825 172.857C71.9105 172.857 69.0625 171.609 67.6225 170.361V175.993C69.4785 177.337 72.9025 178.265 76.6785 178.265C85.1265 178.265 90.2785 174.201 90.2785 166.969V152.889H82.4705ZM78.2465 165.177C75.7505 165.177 74.1185 163.641 74.1185 161.497C74.1185 159.257 75.7505 157.689 78.3105 157.689C80.8705 157.689 82.5025 159.225 82.5025 161.433C82.5025 163.609 80.8385 165.177 78.2465 165.177Z" fill="black"/>
<defs>
<clipPath id="clip0">
<rect width="36" height="37.6092" fill="white"/>
</clipPath>
</defs>
</svg>
