<svg width="48" height="48" viewBox="0 0 48 48" fill="none" xmlns="http://www.w3.org/2000/svg">
<circle cx="24" cy="24" r="24" fill="#F3E02B"/>
<path d="M13 14.7412H35V34.8057H13V14.7412Z" stroke="black" stroke-linecap="round" stroke-linejoin="round"/>
<path d="M17.7832 12.8291V17.6064" stroke="black" stroke-linecap="round" stroke-linejoin="round"/>
<path d="M30.2168 12.8291V17.6064" stroke="black" stroke-linecap="round" stroke-linejoin="round"/>
<path d="M13 19.5176H35" stroke="black" stroke-linecap="round" stroke-linejoin="round"/>
<path d="M18.7383 30.5051H23.5209" stroke="black" stroke-linecap="round" stroke-linejoin="round"/>
<path d="M21.1296 30.5043V23.3384C21.1296 23.2484 21.1042 23.1602 21.0563 23.084C21.0084 23.0078 20.94 22.9467 20.8588 22.9077C20.7777 22.8686 20.6871 22.8533 20.5976 22.8634C20.5081 22.8735 20.4233 22.9086 20.3529 22.9648L18.7383 24.2556" stroke="black" stroke-linecap="round" stroke-linejoin="round"/>
<path d="M27.3486 30.504L30.1521 23.5722C30.1965 23.5003 30.2196 23.4172 30.2188 23.3327C30.2179 23.2481 30.1932 23.1656 30.1473 23.0945C30.099 23.0214 30.033 22.9616 29.9554 22.9207C29.8779 22.8798 29.7912 22.8591 29.7035 22.8604H25.9138C25.787 22.8604 25.6653 22.9107 25.5756 23.0003C25.4859 23.0899 25.4355 23.2114 25.4355 23.3381V24.2936" stroke="black" stroke-linecap="round" stroke-linejoin="round"/>
</svg>
