<svg width="48" height="48" viewBox="0 0 48 48" fill="none" xmlns="http://www.w3.org/2000/svg">
<circle cx="24" cy="24" r="24" fill="#FFC7B4"/>
<path d="M23.5209 34.394C23.5209 32.9952 22.9647 31.6537 21.9745 30.6646C20.9843 29.6755 19.6413 29.1199 18.2409 29.1199C16.8406 29.1199 15.4976 29.6755 14.5074 30.6646C13.5172 31.6537 12.9609 32.9952 12.9609 34.394H23.5209Z" stroke="black" stroke-linecap="round" stroke-linejoin="round"/>
<path d="M15.0703 24.5652C15.0703 25.3918 15.399 26.1845 15.9841 26.769C16.5693 27.3534 17.3628 27.6818 18.1903 27.6818C19.0178 27.6818 19.8114 27.3534 20.3965 26.769C20.9816 26.1845 21.3103 25.3918 21.3103 24.5652C21.3103 23.7387 20.9816 22.946 20.3965 22.3615C19.8114 21.7771 19.0178 21.4487 18.1903 21.4487C17.3628 21.4487 16.5693 21.7771 15.9841 22.3615C15.399 22.946 15.0703 23.7387 15.0703 24.5652V24.5652Z" stroke="black" stroke-linecap="round" stroke-linejoin="round"/>
<path d="M24.7227 16.8937C24.7227 17.1141 24.7661 17.3323 24.8505 17.5359C24.935 17.7395 25.0587 17.9245 25.2147 18.0803C25.3707 18.2362 25.5559 18.3598 25.7597 18.4441C25.9636 18.5284 26.182 18.5718 26.4026 18.5718C26.6233 18.5718 26.8417 18.5284 27.0456 18.4441C27.2494 18.3598 27.4346 18.2362 27.5906 18.0803C27.7466 17.9245 27.8703 17.7395 27.9548 17.5359C28.0392 17.3323 28.0826 17.1141 28.0826 16.8937C28.0826 16.6733 28.0392 16.4551 27.9548 16.2515C27.8703 16.0479 27.7466 15.8629 27.5906 15.7071C27.4346 15.5513 27.2494 15.4277 27.0456 15.3433C26.8417 15.259 26.6233 15.2156 26.4026 15.2156C26.182 15.2156 25.9636 15.259 25.7597 15.3433C25.5559 15.4277 25.3707 15.5513 25.2147 15.7071C25.0587 15.8629 24.935 16.0479 24.8505 16.2515C24.7661 16.4551 24.7227 16.6733 24.7227 16.8937V16.8937Z" stroke="black" stroke-linecap="round" stroke-linejoin="round"/>
<path d="M29.761 21.9281C29.5706 21.1823 29.137 20.5211 28.5285 20.0489C27.9201 19.5767 27.1715 19.3203 26.401 19.3203C25.6305 19.3203 24.8819 19.5767 24.2735 20.0489C23.665 20.5211 23.2314 21.1823 23.041 21.9281" stroke="black" stroke-linecap="round" stroke-linejoin="round"/>
<path d="M33.1207 23.846V14.2568C33.1207 14.0025 33.0195 13.7585 32.8395 13.5787C32.6595 13.3989 32.4153 13.2979 32.1607 13.2979H19.6807C19.4261 13.2979 19.1819 13.3989 19.0019 13.5787C18.8218 13.7585 18.7207 14.0025 18.7207 14.2568V19.5309" stroke="black" stroke-linecap="round" stroke-linejoin="round"/>
<path d="M24 23.8462H35.04C35.04 24.3548 34.8377 24.8426 34.4776 25.2023C34.1176 25.562 33.6292 25.764 33.12 25.764H24" stroke="black" stroke-linecap="round" stroke-linejoin="round"/>
</svg>
