<svg width="48" height="48" viewBox="0 0 48 48" fill="none" xmlns="http://www.w3.org/2000/svg">
<circle cx="24" cy="24" r="24" fill="#6490F2"/>
<path d="M35.0013 33.2821L34.0448 31.4343V27.0717C34.085 25.3729 32.0543 23.8585 30.2188 22.2944" stroke="black" stroke-linecap="round" stroke-linejoin="round"/>
<path d="M31.6694 28.9822L29.2293 26.4914C29.1205 26.3783 28.9903 26.2877 28.8464 26.2251C28.7024 26.1624 28.5474 26.1288 28.3904 26.1261C28.2334 26.1235 28.0774 26.152 27.9314 26.2098C27.7854 26.2677 27.6523 26.3538 27.5398 26.4632C27.4273 26.5727 27.3375 26.7033 27.2757 26.8475C27.2139 26.9917 27.1813 27.1467 27.1797 27.3036C27.1782 27.4605 27.2077 27.6161 27.2666 27.7615C27.3255 27.907 27.4126 28.0393 27.5229 28.151L30.2164 30.8932V32.3263C30.3629 33.1811 30.6889 33.9951 31.1729 34.715" stroke="black" stroke-linecap="round" stroke-linejoin="round"/>
<path d="M13 14.1729L13.9565 16.0207V20.3833C13.9163 22.0822 15.947 23.5966 17.7826 25.1606" stroke="black" stroke-linecap="round" stroke-linejoin="round"/>
<path d="M16.3301 18.4725L18.7702 20.9634C18.879 21.0766 19.0091 21.1671 19.1531 21.2298C19.297 21.2925 19.452 21.3261 19.609 21.3287C19.7661 21.3313 19.9221 21.3029 20.0681 21.245C20.214 21.1872 20.3471 21.101 20.4597 20.9916C20.5722 20.8822 20.6619 20.7516 20.7237 20.6073C20.7855 20.4631 20.8181 20.3081 20.8197 20.1512C20.8213 19.9943 20.7918 19.8387 20.7329 19.6933C20.674 19.5478 20.5869 19.4155 20.4766 19.3038L17.783 16.5616V15.1284C17.6366 14.2737 17.3106 13.4596 16.8265 12.7397" stroke="black" stroke-linecap="round" stroke-linejoin="round"/>
<path d="M17.7812 19.9553V30.8933C17.7812 31.1467 17.882 31.3897 18.0614 31.5689C18.2408 31.7481 18.4841 31.8488 18.7378 31.8488H27.8247" stroke="black" stroke-linecap="round" stroke-linejoin="round"/>
<path d="M30.217 27.4996V16.5617C30.217 16.3082 30.1163 16.0652 29.9369 15.886C29.7575 15.7069 29.5142 15.6062 29.2605 15.6062H19.6953" stroke="black" stroke-linecap="round" stroke-linejoin="round"/>
</svg>
