<svg width="600" height="359" viewBox="0 0 600 359" fill="none" xmlns="http://www.w3.org/2000/svg">
<g clip-path="url(#clip0)">
<path d="M303.688 202.055C316.051 201.599 328.345 204.073 339.568 209.274C350.79 214.475 360.621 222.255 368.258 231.98C372.275 237.083 375.638 242.668 378.268 248.605C378.811 249.573 379.015 250.696 378.846 251.793C378.672 252.73 378.198 253.586 377.495 254.231C376.792 254.876 375.898 255.275 374.949 255.368C373.999 255.461 373.045 255.243 372.23 254.747C371.415 254.251 370.784 253.503 370.431 252.617C366.145 242.608 359.564 233.746 351.218 226.748C342.873 219.75 332.997 214.812 322.388 212.332C311.921 209.914 301.039 209.914 290.571 212.332C279.954 214.808 270.069 219.745 261.714 226.743C253.359 233.741 246.768 242.604 242.473 252.617C242.058 253.71 241.224 254.594 240.157 255.073C239.089 255.552 237.875 255.588 236.781 255.173C235.687 254.757 234.803 253.925 234.323 252.858C233.843 251.791 233.808 250.578 234.223 249.484C240.075 235.802 249.711 224.072 262.001 215.671C274.291 207.27 288.724 202.547 303.606 202.055H303.688Z" fill="#F6A11F"/>
<path d="M290.709 252.837C290.705 252.635 290.743 252.434 290.819 252.247C290.895 252.061 291.009 251.891 291.153 251.75C291.298 251.608 291.469 251.498 291.658 251.425C291.846 251.352 292.047 251.318 292.249 251.325H295.384C296.127 251.325 296.979 251.82 296.952 252.644C296.952 262.207 296.952 271.88 296.952 281.388C300.829 277.074 304.734 272.787 308.639 268.473C309.409 267.731 310.014 266.577 311.224 266.467C312.434 266.357 314.442 266.467 316.037 266.467C316.669 266.467 317.357 266.989 317.137 267.648C316.846 268.13 316.474 268.558 316.037 268.912L303.387 281.553C307.457 286.169 311.444 290.841 315.487 295.485C316.063 296.098 316.596 296.75 317.082 297.436C317.139 297.575 317.163 297.726 317.15 297.875C317.136 298.025 317.087 298.17 317.006 298.297C316.925 298.423 316.815 298.529 316.684 298.604C316.554 298.679 316.407 298.721 316.257 298.727C314.937 298.727 313.507 298.727 312.242 298.727C311.533 298.804 310.816 298.71 310.152 298.453C309.543 298 309.022 297.442 308.612 296.804L296.924 282.102C296.924 286.939 296.924 291.748 296.924 296.556C296.924 297.134 296.924 297.793 296.539 298.205C296.154 298.617 294.614 298.672 293.789 298.727C292.964 298.782 291.947 298.892 291.232 298.26C291.065 298.098 290.936 297.9 290.855 297.681C290.774 297.462 290.743 297.228 290.764 296.996C290.764 282.267 290.764 267.538 290.764 252.837H290.709Z" fill="#0A6DAE"/>
<path d="M272.972 266.384C274.922 265.655 277.071 265.655 279.022 266.384C279.709 266.714 280.479 267.374 280.177 268.198C279.874 269.022 279.627 270.286 279.242 271.331C279.087 271.662 278.82 271.929 278.489 272.085C278.157 272.24 277.781 272.275 277.427 272.182C275.801 271.821 274.142 271.628 272.477 271.605C271.905 271.625 271.342 271.76 270.823 272C270.303 272.241 269.837 272.583 269.452 273.007C268.232 274.296 267.46 275.944 267.252 277.706C267.064 278.951 267 280.212 267.059 281.471V297.354C267.059 298.205 266.234 298.81 265.437 298.837H262.219C261.449 298.837 260.569 298.205 260.652 297.354C260.652 287.553 260.652 277.761 260.652 267.978C260.652 267.016 261.642 266.467 262.494 266.577C263.347 266.687 265.024 266.247 265.712 267.291C266.399 268.335 266.482 269.874 266.977 271.138C268.402 269.029 270.45 267.415 272.834 266.522L272.972 266.384Z" fill="#0A6DAE"/>
<path d="M163 267.126C163.125 266.929 163.295 266.764 163.495 266.645C163.696 266.525 163.922 266.455 164.155 266.439C165.612 266.439 167.07 266.439 168.555 266.439C168.902 266.47 169.227 266.622 169.473 266.868C169.72 267.114 169.872 267.439 169.903 267.786L174.193 285.345C174.605 287.159 175.128 288.945 175.403 290.841C175.678 292.737 175.733 294.166 176.008 295.842C176.309 293.464 176.75 291.106 177.327 288.78C179.161 281.819 181.04 274.848 182.965 267.868C183.042 267.48 183.251 267.131 183.557 266.88C183.863 266.63 184.247 266.493 184.642 266.494H189.537C189.977 266.45 190.417 266.561 190.784 266.807C191.15 267.052 191.419 267.418 191.545 267.841C192.948 272.924 194.295 278.036 195.725 283.119C196.722 286.377 197.53 289.689 198.145 293.039C198.145 293.974 198.42 294.908 198.613 295.787C199.315 290.503 200.325 285.264 201.637 280.097C202.572 275.947 203.48 271.853 204.387 267.676C204.485 267.288 204.72 266.949 205.049 266.722C205.377 266.494 205.778 266.394 206.175 266.439C207.495 266.439 208.925 266.439 210.135 266.439C210.312 266.455 210.483 266.513 210.634 266.608C210.785 266.702 210.911 266.831 211.002 266.984C211.093 267.137 211.147 267.309 211.159 267.487C211.171 267.664 211.14 267.842 211.07 268.006C208.32 277.761 205.818 287.516 203.15 297.244C203.091 297.632 202.895 297.987 202.598 298.244C202.3 298.501 201.921 298.643 201.528 298.645C199.493 298.645 197.458 298.645 195.423 298.645C195.06 298.697 194.692 298.614 194.387 298.411C194.082 298.208 193.864 297.9 193.773 297.546C191.958 290.841 190.17 284.136 188.273 277.404C187.673 275.059 187.268 272.67 187.062 270.259C186.83 272.412 186.472 274.55 185.99 276.662C184.147 283.586 182.277 290.401 180.49 297.381C180.27 298.508 179.005 298.728 178.043 298.673C176.145 298.673 174.247 298.673 172.35 298.673C172.028 298.669 171.718 298.551 171.476 298.34C171.234 298.128 171.076 297.837 171.03 297.518C168.372 287.809 165.713 278.1 163.055 268.39C163.014 267.97 163.014 267.547 163.055 267.126H163Z" fill="#0A6DAE"/>
<path d="M402.387 266.467H406.54C406.959 266.472 407.367 266.607 407.706 266.853C408.046 267.099 408.301 267.444 408.437 267.841C410.83 274.106 413.195 280.371 415.587 286.609C416.091 287.875 416.451 289.193 416.66 290.539C417.65 286.829 418.97 283.229 420.125 279.547L424.002 267.676C424.112 267.343 424.316 267.049 424.589 266.83C424.862 266.61 425.194 266.475 425.542 266.439C426.67 266.439 427.797 266.439 428.952 266.439C429.292 266.376 429.642 266.386 429.978 266.466C430.314 266.547 430.63 266.697 430.905 266.906C431.017 267.068 431.077 267.259 431.077 267.456C431.077 267.652 431.017 267.844 430.905 268.006C427.091 278.887 423.278 289.788 419.465 300.706C418.93 302.62 418.174 304.464 417.21 306.202C415.618 308.658 413.244 310.507 410.472 311.45C409.51 311.753 408.52 312.385 407.502 312.028C406.485 311.67 406.485 311.093 406.1 310.544C405.715 309.994 405.302 309.554 405.412 308.922C405.454 308.621 405.583 308.338 405.784 308.109C405.984 307.879 406.247 307.713 406.54 307.631C407.73 307.306 408.843 306.746 409.812 305.982C412.032 303.979 413.514 301.289 414.02 298.343C413.662 297.079 412.975 295.897 412.507 294.661L401.507 269.242C401.237 268.711 401.033 268.148 400.902 267.566C400.902 266.906 401.672 266.604 402.25 266.604L402.387 266.467Z" fill="#0A6DAE"/>
<path d="M233.182 265.917C236.841 265.632 240.488 266.601 243.522 268.665C246.143 270.632 248.015 273.433 248.829 276.607C249.778 280.358 249.778 284.286 248.829 288.038C248.027 291.568 245.926 294.667 242.944 296.721C239.65 298.725 235.758 299.513 231.944 298.947C228.67 298.592 225.619 297.117 223.309 294.77C220.753 291.913 219.258 288.266 219.074 284.438C218.64 280.189 219.606 275.915 221.824 272.265C223.596 269.602 226.256 267.654 229.332 266.769C230.612 266.389 231.931 266.159 233.264 266.082L233.182 265.917ZM232.329 270.561C231.333 270.743 230.388 271.136 229.558 271.715C228.728 272.293 228.032 273.043 227.517 273.914C226.051 276.876 225.423 280.183 225.702 283.476C225.632 286.477 226.497 289.425 228.177 291.913C228.92 292.717 229.817 293.366 230.815 293.82C231.812 294.275 232.891 294.526 233.987 294.559C235.082 294.592 236.174 294.407 237.197 294.014C238.221 293.621 239.155 293.028 239.947 292.27C241.654 290.134 242.62 287.501 242.697 284.768C242.923 282.146 242.747 279.505 242.174 276.936C241.961 275.826 241.531 274.769 240.908 273.826C240.285 272.883 239.482 272.072 238.544 271.44C236.653 270.417 234.462 270.096 232.357 270.534L232.329 270.561Z" fill="#0A6DAE"/>
<path d="M347.856 252.37C347.856 251.628 348.571 251.133 349.231 251.078C349.891 251.023 351.376 251.078 352.449 251.078C353.521 251.078 354.181 251.683 354.071 252.589V296.941C354.058 297.309 353.905 297.657 353.645 297.917C353.385 298.177 353.036 298.329 352.669 298.343C351.817 298.398 350.963 298.398 350.111 298.343C349.81 298.319 349.521 298.215 349.274 298.041C349.027 297.867 348.832 297.629 348.709 297.353C348.406 296.392 348.241 295.375 347.994 294.413C346.859 296.072 345.262 297.361 343.401 298.123C340.664 299.069 337.707 299.184 334.904 298.453C333.519 298.107 332.221 297.476 331.094 296.601C329.967 295.725 329.036 294.625 328.359 293.369C326.498 289.421 325.729 285.047 326.131 280.701C325.991 276.965 327.104 273.29 329.294 270.259C330.229 269.066 331.395 268.074 332.723 267.342C334.051 266.61 335.513 266.154 337.021 265.999C339.843 265.512 342.743 266.143 345.106 267.758C346.175 268.509 347.105 269.439 347.856 270.506C347.856 264.442 347.856 258.369 347.856 252.287V252.37ZM339.359 270.341C338.364 270.372 337.396 270.672 336.558 271.209C335.72 271.746 335.044 272.5 334.601 273.391C333.14 276.812 332.563 280.544 332.924 284.246C332.94 286.67 333.454 289.064 334.436 291.28C334.81 292.011 335.338 292.652 335.984 293.16C336.63 293.667 337.377 294.029 338.176 294.221C339.431 294.571 340.756 294.583 342.017 294.254C343.278 293.926 344.429 293.27 345.354 292.352C346.893 290.321 347.767 287.864 347.856 285.317C348.137 282.477 347.96 279.611 347.334 276.826C346.933 274.924 345.976 273.183 344.584 271.825C343.863 271.23 343.026 270.791 342.127 270.536C341.227 270.281 340.285 270.214 339.359 270.341Z" fill="#0A6DAE"/>
<path d="M374.971 266.522C377.836 265.745 380.847 265.679 383.743 266.329C386.468 266.939 388.891 268.485 390.591 270.699C392.261 273.029 393.286 275.759 393.561 278.613C393.799 280.784 393.872 282.97 393.781 285.153V296.996C393.78 297.229 393.719 297.458 393.603 297.66C393.487 297.863 393.321 298.032 393.121 298.15C392.411 298.421 391.647 298.516 390.893 298.425C390.068 298.425 388.996 298.425 388.528 297.628C388.179 296.579 387.912 295.504 387.731 294.413C386.702 295.847 385.38 297.046 383.853 297.931C381.347 299.016 378.552 299.238 375.906 298.563C372.659 297.933 369.792 296.046 367.931 293.314C366.05 290.036 365.047 286.329 365.018 282.55C364.989 278.772 365.936 275.049 367.766 271.743C369.451 269.184 372.013 267.328 374.971 266.522ZM377.721 270.561C376.722 270.76 375.782 271.183 374.971 271.798C373.485 273.14 372.513 274.957 372.221 276.936C371.652 280 371.55 283.131 371.918 286.224C372.065 288.555 372.951 290.779 374.448 292.572C376.006 293.816 377.961 294.453 379.953 294.368C381.945 294.282 383.838 293.478 385.283 292.105C386.764 290.001 387.588 287.505 387.648 284.933C387.902 281.975 387.67 278.995 386.961 276.112C386.514 274.257 385.41 272.627 383.853 271.523C382.01 270.48 379.851 270.138 377.776 270.561H377.721Z" fill="#0A6DAE"/>
<path d="M432.612 289.907C433.591 289.704 434.61 289.81 435.527 290.209C436.295 290.549 436.941 291.115 437.379 291.832C437.816 292.549 438.024 293.383 437.974 294.221C437.987 295.223 437.638 296.197 436.992 296.964C436.346 297.731 435.445 298.24 434.454 298.398C433.327 298.642 432.15 298.429 431.18 297.805C430.211 297.182 429.529 296.199 429.284 295.073C429.04 293.947 429.253 292.77 429.877 291.801C430.501 290.832 431.485 290.151 432.612 289.907ZM432.392 290.759C431.491 291.079 430.755 291.744 430.345 292.607C429.935 293.471 429.885 294.461 430.206 295.361C430.527 296.261 431.192 296.997 432.056 297.407C432.92 297.817 433.911 297.867 434.812 297.546C435.258 297.387 435.668 297.142 436.019 296.825C436.371 296.508 436.656 296.124 436.859 295.697C437.062 295.27 437.179 294.806 437.203 294.334C437.227 293.861 437.157 293.389 436.998 292.943C436.839 292.498 436.594 292.087 436.277 291.736C435.959 291.385 435.576 291.1 435.148 290.898C434.72 290.695 434.256 290.578 433.784 290.554C433.311 290.53 432.838 290.6 432.392 290.759Z" fill="#0A6DAE"/>
<path d="M431.979 291.638C433.165 291.458 434.379 291.591 435.498 292.023C435.681 292.182 435.817 292.388 435.892 292.619C435.967 292.849 435.978 293.096 435.924 293.332C435.871 293.568 435.755 293.786 435.588 293.962C435.421 294.138 435.209 294.265 434.976 294.331C435.278 295.073 435.663 295.76 435.993 296.447H434.701C434.371 295.787 434.068 295.155 433.766 294.496H433.189V296.447H431.979V291.638ZM433.189 292.38V293.781C433.6 293.822 434.015 293.822 434.426 293.781C434.811 293.616 434.756 293.149 434.646 292.819C434.536 292.49 433.684 292.545 433.189 292.49V292.38Z" fill="#0A6DAE"/>
</g>
<g clip-path="url(#clip1)">
<path d="M151.118 86.3789C153.716 86.3871 156.258 85.6207 158.422 84.1766C160.586 82.7326 162.274 80.6759 163.274 78.267C164.274 75.858 164.54 73.2052 164.038 70.6444C163.536 68.0836 162.289 65.7299 160.455 63.8815C158.621 62.033 156.283 60.7729 153.736 60.2607C151.188 59.7485 148.547 60.0072 146.146 61.0041C143.746 62.001 141.693 63.6912 140.249 65.8608C138.805 68.0303 138.034 70.5816 138.034 73.1916C138.04 76.6802 139.419 80.025 141.87 82.4958C144.322 84.9665 147.646 86.3625 151.118 86.3789ZM151.118 62.9101C153.142 62.9101 155.121 63.5131 156.804 64.6429C158.486 65.7726 159.798 67.3783 160.573 69.257C161.347 71.1357 161.55 73.203 161.155 75.1974C160.76 77.1918 159.785 79.0237 158.354 80.4616C156.923 81.8995 155.1 82.8787 153.115 83.2754C151.13 83.6721 149.072 83.4685 147.202 82.6904C145.333 81.9122 143.734 80.5944 142.61 78.9036C141.486 77.2128 140.885 75.225 140.885 73.1916C140.889 70.4659 141.968 67.8529 143.887 65.9255C145.805 63.9982 148.406 62.9138 151.118 62.9101ZM153.928 89.4716C150.779 89.4716 147.7 90.4097 145.081 92.1672C142.462 93.9248 140.421 96.4229 139.214 99.346C138.008 102.269 137.692 105.486 138.305 108.589C138.917 111.693 140.432 114.545 142.658 116.784C144.883 119.023 147.72 120.548 150.808 121.168C153.896 121.788 157.098 121.474 160.009 120.266C162.92 119.058 165.409 117.01 167.162 114.381C168.914 111.752 169.852 108.66 169.856 105.496C169.856 101.249 168.179 97.1768 165.192 94.1723C162.206 91.1678 158.154 89.4771 153.928 89.4716ZM153.928 118.572C151.347 118.574 148.824 117.806 146.677 116.365C144.531 114.925 142.858 112.877 141.871 110.481C140.883 108.085 140.626 105.449 141.13 102.906C141.635 100.362 142.879 98.0268 144.706 96.1945C146.532 94.3623 148.859 93.1157 151.391 92.6126C153.923 92.1096 156.547 92.3726 158.93 93.3685C161.313 94.3644 163.349 96.0483 164.779 98.2071C166.209 100.366 166.969 102.902 166.964 105.496C166.946 108.962 165.566 112.28 163.124 114.729C160.683 117.178 157.378 118.56 153.928 118.572ZM351.497 58.9318C348.442 58.9304 345.457 59.8392 342.917 61.5432C340.377 63.2471 338.397 65.6697 337.227 68.5045C336.058 71.3392 335.751 74.4587 336.347 77.4684C336.942 80.4781 338.413 83.2427 340.573 85.4126C342.732 87.5824 345.484 89.0599 348.479 89.6582C351.475 90.2565 354.58 89.9488 357.401 88.7738C360.223 87.5989 362.634 85.6096 364.33 83.0576C366.026 80.5056 366.93 77.5055 366.929 74.437C366.922 70.327 365.293 66.3874 362.401 63.4812C359.508 60.575 355.587 58.9391 351.497 58.9318ZM351.497 86.3443C349.15 86.3443 346.856 85.6451 344.905 84.3352C342.954 83.0253 341.433 81.1635 340.535 78.9852C339.637 76.8069 339.402 74.4099 339.86 72.0974C340.317 69.7849 341.447 67.6608 343.107 65.9936C344.766 64.3264 346.88 63.191 349.182 62.731C351.484 62.271 353.869 62.5071 356.037 63.4094C358.205 64.3117 360.058 65.8396 361.362 67.8001C362.666 69.7605 363.362 72.0653 363.362 74.4231C363.36 77.5842 362.109 80.6154 359.885 82.8506C357.66 85.0859 354.643 86.3425 351.497 86.3443ZM279.776 59.6514C277.964 59.5848 276.162 59.9509 274.519 60.7194C272.875 61.4879 271.437 62.6371 270.321 64.0725V61.6094C270.294 61.1974 270.112 60.8111 269.812 60.5288C269.512 60.2465 269.117 60.0895 268.706 60.0895C268.295 60.0895 267.899 60.2465 267.599 60.5288C267.3 60.8111 267.118 61.1974 267.091 61.6094V87.2853C267.118 87.6973 267.3 88.0836 267.599 88.3659C267.899 88.6481 268.295 88.8052 268.706 88.8052C269.117 88.8052 269.512 88.6481 269.812 88.3659C270.112 88.0836 270.294 87.6973 270.321 87.2853V69.7944C270.788 67.7675 271.93 65.9617 273.558 64.6759C275.186 63.39 277.202 62.7012 279.273 62.7233C282.716 62.7233 287.378 64.1901 287.378 71.9808V87.2991C287.364 87.5211 287.395 87.7437 287.469 87.9531C287.544 88.1626 287.661 88.3544 287.812 88.5167C287.963 88.6791 288.146 88.8085 288.349 88.8969C288.552 88.9854 288.772 89.0311 288.993 89.0311C289.214 89.0311 289.433 88.9854 289.637 88.8969C289.84 88.8085 290.023 88.6791 290.174 88.5167C290.325 88.3544 290.442 88.1626 290.517 87.9531C290.591 87.7437 290.622 87.5211 290.608 87.2991V70.7838C290.601 63.1523 285.588 59.6514 279.776 59.6514ZM315.302 59.6514C313.492 59.5848 311.691 59.9509 310.049 60.7194C308.406 61.488 306.969 62.6372 305.854 64.0725V49.619C305.827 49.207 305.646 48.8207 305.346 48.5384C305.046 48.2562 304.65 48.0991 304.239 48.0991C303.828 48.0991 303.433 48.2562 303.133 48.5384C302.833 48.8207 302.651 49.207 302.624 49.619V87.2853C302.651 87.6973 302.833 88.0836 303.133 88.3659C303.433 88.6481 303.828 88.8052 304.239 88.8052C304.65 88.8052 305.046 88.6481 305.346 88.3659C305.646 88.0836 305.827 87.6973 305.854 87.2853V69.7944C306.319 67.7663 307.461 65.9591 309.089 64.6728C310.718 63.3865 312.735 62.6986 314.806 62.7233C318.249 62.7233 322.918 64.1901 322.918 71.9808V87.2991C322.904 87.5211 322.935 87.7437 323.01 87.9531C323.084 88.1626 323.201 88.3544 323.352 88.5167C323.504 88.6791 323.687 88.8085 323.89 88.8969C324.093 88.9854 324.312 89.0311 324.533 89.0311C324.755 89.0311 324.974 88.9854 325.177 88.8969C325.38 88.8085 325.563 88.6791 325.714 88.5167C325.866 88.3544 325.982 88.1626 326.057 87.9531C326.131 87.7437 326.163 87.5211 326.148 87.2991V70.7838C326.134 63.1523 321.114 59.6514 315.302 59.6514ZM398.248 59.9904C397.82 59.9922 397.411 60.1631 397.108 60.4662C396.805 60.7692 396.633 61.1799 396.63 61.6094V78.9065C396.201 80.9672 395.075 82.8147 393.442 84.1344C391.81 85.4541 389.773 86.1641 387.677 86.1437C384.234 86.1437 379.565 84.6769 379.565 76.8862V61.6094C379.539 61.1974 379.357 60.8111 379.057 60.5288C378.757 60.2465 378.361 60.0895 377.95 60.0895C377.54 60.0895 377.144 60.2465 376.844 60.5288C376.544 60.8111 376.362 61.1974 376.336 61.6094V78.1316C376.336 85.7424 381.349 89.2641 387.168 89.2641C388.989 89.3303 390.799 88.9586 392.449 88.18C394.098 87.4014 395.539 86.2383 396.65 84.7876V87.2991C396.636 87.5211 396.667 87.7437 396.742 87.9531C396.816 88.1626 396.933 88.3544 397.084 88.5167C397.235 88.6791 397.418 88.8085 397.622 88.8969C397.825 88.9854 398.044 89.0311 398.265 89.0311C398.487 89.0311 398.706 88.9854 398.909 88.8969C399.112 88.8085 399.295 88.6791 399.446 88.5167C399.598 88.3544 399.714 88.1626 399.789 87.9531C399.863 87.7437 399.894 87.5211 399.88 87.2991V61.6094C399.88 61.1824 399.712 60.7727 399.413 60.4694C399.114 60.1662 398.707 59.994 398.282 59.9904H398.248Z" fill="#2FB3A6"/>
<path d="M161.592 53.8603C162.137 53.8603 162.67 54.0226 163.123 54.3267C163.576 54.6308 163.929 55.063 164.137 55.5687C164.346 56.0744 164.4 56.6309 164.294 57.1677C164.188 57.7046 163.925 58.1977 163.54 58.5848C163.155 58.9718 162.664 59.2354 162.13 59.3422C161.595 59.449 161.042 59.3942 160.538 59.1847C160.035 58.9752 159.605 58.6205 159.302 58.1654C158.999 57.7103 158.838 57.1752 158.838 56.6278C158.838 55.8938 159.128 55.1899 159.645 54.6709C160.161 54.1518 160.862 53.8603 161.592 53.8603Z" fill="#2FB3A6"/>
<path d="M208.171 59.5614C206.085 59.5035 204.014 59.9481 202.134 60.858C200.253 61.768 198.616 63.1169 197.36 64.7921C195.272 67.6119 194.134 71.0266 194.109 74.5407C194.175 78.1437 195.452 81.6184 197.732 84.4001C199.045 86.0119 200.705 87.3029 202.588 88.1754C204.47 89.048 206.526 89.4794 208.598 89.437C216.414 89.437 219.782 84.9259 219.933 84.7253C220.076 84.5555 220.183 84.358 220.247 84.1451C220.311 83.9322 220.331 83.7083 220.305 83.4874C220.279 83.2665 220.209 83.0532 220.098 82.8607C219.987 82.6682 219.838 82.5007 219.66 82.3684C219.482 82.2361 219.279 82.1418 219.064 82.0915C218.848 82.0412 218.624 82.0359 218.407 82.0759C218.189 82.1159 217.982 82.2003 217.798 82.324C217.614 82.4477 217.457 82.608 217.337 82.7949C217.234 82.9264 214.7 86.1921 208.598 86.1921C207 86.2272 205.415 85.8967 203.963 85.2254C202.511 84.5541 201.23 83.5597 200.218 82.3175C198.466 80.1299 197.457 77.4361 197.339 74.6307H221.586V73.1777C221.586 69.6422 219.134 59.5614 208.171 59.5614ZM197.718 71.538C198.132 69.8056 198.893 68.1764 199.956 66.7501C200.913 65.4696 202.164 64.4417 203.604 63.7547C205.043 63.0678 206.627 62.7423 208.219 62.8064C211.897 62.8064 214.665 64.2247 216.483 67.0407C217.353 68.4175 217.954 69.9486 218.253 71.5518L197.718 71.538ZM244.207 59.5614C242.121 59.5035 240.05 59.9481 238.17 60.858C236.289 61.768 234.652 63.1169 233.396 64.7921C231.311 67.6125 230.174 71.0273 230.152 74.5407C230.214 78.1445 231.491 81.6206 233.775 84.4001C235.086 86.0118 236.746 87.3027 238.627 88.1753C240.508 89.0479 242.563 89.4794 244.634 89.437C252.457 89.437 255.818 84.9259 255.976 84.7253C256.109 84.5541 256.207 84.3578 256.264 84.148C256.32 83.9381 256.334 83.7191 256.305 83.5037C256.276 83.2883 256.204 83.081 256.094 82.894C255.983 82.707 255.837 82.5442 255.663 82.4151C255.489 82.286 255.291 82.1933 255.08 82.1425C254.87 82.0916 254.651 82.0837 254.438 82.1191C254.225 82.1545 254.02 82.2325 253.837 82.3486C253.655 82.4647 253.497 82.6165 253.373 82.7949C253.27 82.9264 250.736 86.1921 244.634 86.1921C243.037 86.2262 241.452 85.8952 240 85.224C238.548 84.5528 237.267 83.5589 236.254 82.3175C234.504 80.129 233.498 77.4353 233.382 74.6307H257.622V73.1777C257.643 69.6422 255.177 59.5614 244.207 59.5614ZM233.754 71.538C234.164 69.8014 234.924 68.1674 235.985 66.7363C236.941 65.4553 238.193 64.4271 239.633 63.7401C241.072 63.0531 242.656 62.7279 244.249 62.7925C247.919 62.7925 250.687 64.2109 252.512 67.0269C253.381 68.4039 253.979 69.9351 254.275 71.538H233.754ZM463.013 73.157C463.013 69.6214 460.548 59.5476 449.585 59.5476C447.499 59.4889 445.429 59.9324 443.548 60.8411C441.668 61.7498 440.03 63.0974 438.774 64.7713C436.688 67.5943 435.552 71.0114 435.53 74.5269C435.591 78.1274 436.866 81.6008 439.145 84.3793C440.459 85.9904 442.12 87.2808 444.002 88.1533C445.885 89.0258 447.939 89.4576 450.012 89.4163C457.835 89.4163 461.195 84.9121 461.354 84.7045C461.594 84.357 461.691 83.9289 461.622 83.5113C461.553 83.0937 461.325 82.7194 460.986 82.468C460.647 82.2166 460.224 82.108 459.807 82.1651C459.389 82.2223 459.01 82.4408 458.751 82.7742C458.647 82.9126 456.113 86.1713 450.012 86.1713C448.414 86.208 446.828 85.8781 445.376 85.2067C443.924 84.5354 442.643 83.5401 441.631 82.2968C439.882 80.1082 438.876 77.4145 438.76 74.6099H463.013V73.157ZM439.132 71.538C439.543 69.8029 440.299 68.1694 441.356 66.7363C442.313 65.4567 443.565 64.4294 445.005 63.7425C446.444 63.0557 448.027 62.7297 449.62 62.7925C453.29 62.7925 456.058 64.2109 457.883 67.0269C458.756 68.4022 459.357 69.9339 459.653 71.538H439.132ZM420.38 72.5965C415.147 71.2474 414.451 68.4452 414.451 66.8401C414.451 63.6297 417.66 62.6887 419.636 62.6887C420.721 62.6403 421.796 62.9213 422.719 63.4952C423.643 64.0691 424.373 64.9092 424.815 65.906C424.998 66.2773 425.316 66.5642 425.702 66.7082C426.089 66.8522 426.516 66.8424 426.896 66.6807C427.276 66.5191 427.58 66.2178 427.746 65.8385C427.912 65.4592 427.928 65.0304 427.79 64.6399C427.09 63.0739 425.938 61.7555 424.482 60.856C423.027 59.9566 421.336 59.5175 419.63 59.596C413.831 59.596 410.953 63.2353 410.953 66.6325C410.953 71.3788 413.997 74.0979 419.354 75.5509C423.686 76.7271 425.965 78.948 425.965 81.5288C425.965 84.5523 422.701 86.3097 419.506 86.3097C414.541 86.3097 413.067 82.5874 412.977 82.4697C412.78 82.064 412.439 81.7465 412.022 81.5789C411.605 81.4114 411.14 81.4059 410.719 81.5634C410.312 81.758 409.992 82.0998 409.825 82.5205C409.658 82.9413 409.655 83.4099 409.817 83.8328C409.906 84.0749 412.179 89.4163 419.389 89.4163C425.765 89.4163 429.284 85.6455 429.284 81.5288C429.284 76.9139 426.22 74.1187 420.332 72.5965H420.38ZM188.125 60.1979C187.313 60.0299 186.488 59.9327 185.66 59.9074C184.034 59.9253 182.434 60.3213 180.986 61.0643C179.538 61.8074 178.281 62.8773 177.314 64.1901V61.6094C177.287 61.1974 177.105 60.8111 176.805 60.5288C176.505 60.2465 176.11 60.0895 175.699 60.0895C175.288 60.0895 174.892 60.2465 174.592 60.5288C174.293 60.8111 174.111 61.1974 174.084 61.6094V87.2853C174.111 87.6973 174.293 88.0836 174.592 88.3659C174.892 88.6481 175.288 88.8052 175.699 88.8052C176.11 88.8052 176.505 88.6481 176.805 88.3659C177.105 88.0836 177.287 87.6973 177.314 87.2853V70.341C177.314 70.258 177.314 70.168 177.314 70.1196C177.314 67.608 180.302 63.3183 185.639 63.3183C186.241 63.3469 186.839 63.4209 187.43 63.5398C187.648 63.5852 187.873 63.587 188.092 63.545C188.311 63.503 188.52 63.418 188.706 63.295C188.893 63.1719 189.053 63.0132 189.179 62.8279C189.304 62.6425 189.392 62.4342 189.437 62.2148C189.482 61.9954 189.484 61.7691 189.442 61.549C189.4 61.3289 189.316 61.1192 189.193 60.932C189.071 60.7447 188.913 60.5835 188.729 60.4575C188.544 60.3316 188.337 60.2434 188.118 60.1979H188.125Z" fill="#2FB3A6"/>
</g>
<defs>
<clipPath id="clip0">
<rect width="275" height="110" fill="white" transform="translate(163 202)"/>
</clipPath>
<clipPath id="clip1">
<rect width="325" height="73.4783" fill="white" transform="translate(138 48)"/>
</clipPath>
</defs>
</svg>
