<svg width="117" height="115" viewBox="0 0 117 115" fill="none" xmlns="http://www.w3.org/2000/svg">
<g clip-path="url(#clip0)">
<ellipse cx="86.5712" cy="30.7308" rx="30" ry="29.5" transform="rotate(-120 86.5712 30.7308)" fill="white"/>
<circle cx="77.4963" cy="94.282" r="20" transform="rotate(-120 77.4963 94.282)" fill="white"/>
<g clip-path="url(#clip1)">
<path d="M61.5586 91.6779H62.6744V94.0818H65.0277V91.6779H66.1449V97.5802H65.0277V95.1248H62.6744V97.5802H61.5586V91.6779ZM69.6798 95.6577C69.677 95.8936 69.5783 96.119 69.4053 96.2848C69.2323 96.4507 68.9988 96.5437 68.7556 96.5437C68.5123 96.5437 68.2789 96.4507 68.1058 96.2848C67.9328 96.119 67.8342 95.8936 67.8313 95.6577V93.1166H66.7732V95.6577C66.7732 96.7179 67.6625 97.5802 68.7555 97.5802C69.8486 97.5802 70.7377 96.7179 70.7377 95.6577V93.1166H69.6798V95.6577ZM73.6917 93.1463C73.1669 93.1463 72.8004 93.294 72.4466 93.6305V91.6779H71.3849V95.2975C71.3849 96.6523 72.3949 97.5802 73.5295 97.5802C74.7909 97.5802 75.8961 96.6358 75.8961 95.3633C75.8961 94.1071 74.8769 93.1463 73.6917 93.1463ZM73.7181 96.6271C72.9987 96.6271 72.4482 96.0449 72.4482 95.3633C72.4482 94.6817 72.9987 94.0987 73.7177 94.0987C74.3273 94.0987 74.8777 94.6817 74.8777 95.3633C74.8777 96.0449 74.3276 96.6271 73.7181 96.6271ZM77.6791 93.4053C77.6791 92.8877 78.0347 92.7235 78.424 92.7235C78.7373 92.7235 79.1521 92.9535 79.4224 93.2326L80.1164 92.4443C79.7696 91.9929 79.0667 91.6807 78.4914 91.6807C77.34 91.6807 76.5104 92.3294 76.5104 93.4052C76.5104 95.4003 79.0416 94.7678 79.0416 95.8848C79.0416 96.2293 78.6947 96.5334 78.297 96.5334C77.6698 96.5334 77.4671 96.2378 77.1795 95.9256L76.4089 96.6974C76.9002 97.281 77.5098 97.5761 78.2376 97.5761C79.3295 97.5761 80.2099 96.9193 80.2099 95.8927C80.2099 93.676 77.6789 94.3656 77.6789 93.4052L77.6791 93.4053ZM83.005 93.0886C81.8706 93.0886 80.8605 94.0158 80.8605 95.371V99H81.922V97.0376C82.276 97.3742 82.6421 97.5218 83.1671 97.5218C84.3524 97.5218 85.3717 96.5613 85.3717 95.3049C85.3717 94.0322 84.2661 93.0886 83.005 93.0886ZM83.1936 96.5699C82.4744 96.5699 81.9242 95.9863 81.9242 95.3053C81.9242 94.6243 82.4746 94.0407 83.1936 94.0407C83.8031 94.0407 84.3535 94.6237 84.3535 95.3053C84.3535 95.987 83.8031 96.5699 83.1936 96.5699ZM93.1853 96.6271C92.5591 96.6271 92.3814 96.3645 92.3814 95.962V94.1812H93.3543V93.2778H92.3814V92.0871L91.3062 92.555V96.1843C91.3062 97.1121 91.9662 97.5802 92.8716 97.5802C93.007 97.5802 93.1934 97.5717 93.2952 97.5474L93.5576 96.6115C93.439 96.6194 93.3037 96.6276 93.1848 96.6276" fill="#45535E"/>
<path d="M90.3858 94.2334C90.1824 93.8938 89.8961 93.6215 89.5382 93.4165C89.2751 93.2657 88.9834 93.1677 88.6805 93.1285V92.0494C88.993 91.9206 89.1871 91.6358 89.1871 91.3034C89.1871 91.1958 89.1652 91.0893 89.1228 90.9898C89.0803 90.8904 89.0181 90.8001 88.9396 90.724C88.8612 90.6479 88.768 90.5875 88.6655 90.5463C88.563 90.5052 88.4532 90.484 88.3422 90.484C88.2313 90.484 88.1214 90.5052 88.0189 90.5463C87.9164 90.5875 87.8233 90.6479 87.7448 90.724C87.6664 90.8001 87.6041 90.8904 87.5617 90.9898C87.5192 91.0893 87.4974 91.1958 87.4974 91.3034C87.4974 91.6358 87.6802 91.9206 87.9926 92.0494V93.1289C87.733 93.1653 87.4811 93.2419 87.2466 93.3558C86.7638 92.9996 85.178 91.8309 84.2501 91.1483C84.2741 91.0704 84.287 90.9897 84.2885 90.9083C84.2884 90.7287 84.2334 90.5531 84.1304 90.4037C84.0274 90.2544 83.881 90.1381 83.7099 90.0695C83.5387 90.0008 83.3503 89.983 83.1687 90.0182C82.9871 90.0535 82.8203 90.1401 82.6895 90.2673C82.5586 90.3945 82.4697 90.5565 82.4338 90.7328C82.3979 90.909 82.4167 91.0916 82.4878 91.2575C82.559 91.4234 82.6793 91.5651 82.8335 91.6647C82.9876 91.7642 83.1688 91.8172 83.354 91.8168C83.5237 91.8162 83.69 91.7704 83.8347 91.6845L84.0306 91.8285L86.7204 93.7084C86.5747 93.8358 86.4467 93.9812 86.3398 94.1407C86.1251 94.4701 85.9942 94.8327 85.9942 95.2281V95.3111C85.9951 95.5794 86.0449 95.8454 86.1411 96.097C86.2232 96.31 86.341 96.5084 86.4897 96.6842L85.597 97.5522C85.444 97.4985 85.2767 97.4965 85.1224 97.5467C84.9681 97.5969 84.8359 97.6963 84.7472 97.8286C84.6585 97.9609 84.6185 98.1185 84.6338 98.2756C84.6491 98.4327 84.7188 98.5802 84.8314 98.6941C84.9441 98.808 85.0932 98.8816 85.2545 98.9028C85.4157 98.9241 85.5796 98.8919 85.7196 98.8113C85.8595 98.7308 85.9673 98.6067 86.0253 98.4593C86.0834 98.3118 86.0883 98.1496 86.0392 97.9991L86.962 97.1039C87.0908 97.1895 87.228 97.2624 87.3717 97.3216C87.6744 97.4503 88.0012 97.5169 88.3317 97.5171H88.3957C88.7864 97.5173 89.1707 97.4209 89.5123 97.2369C89.8539 97.0529 90.1414 96.7875 90.3478 96.4658C90.5628 96.1323 90.6806 95.7638 90.6806 95.3582V95.338C90.6806 94.9391 90.5854 94.5712 90.3855 94.234L90.3858 94.2334ZM89.2585 96.1112C89.008 96.3811 88.7201 96.5473 88.3947 96.5473H88.3411C88.1552 96.5473 87.9733 96.4977 87.7954 96.4069C87.5947 96.3076 87.4422 96.1648 87.3174 95.9848C87.1884 95.8078 87.1183 95.6148 87.1183 95.4099V95.3478C87.1183 95.1466 87.1582 94.9556 87.2592 94.7753C87.3624 94.583 87.5159 94.4203 87.7042 94.3035C87.8862 94.1842 88.1011 94.121 88.3207 94.1224H88.3417C88.5459 94.1224 88.7385 94.1615 88.9214 94.252C89.106 94.3462 89.2627 94.4845 89.3768 94.6538C89.4902 94.8235 89.5604 95.017 89.5816 95.2183C89.585 95.2607 89.5868 95.3041 89.5868 95.3456C89.5868 95.6222 89.4778 95.8785 89.2598 96.1112H89.2585Z" fill="#F8761F"/>
</g>
<circle cx="26.1506" cy="67.3468" r="25" transform="rotate(-120 26.1506 67.3468)" fill="white"/>
<path d="M23.3156 64.6184C24.9753 60.5281 21.8711 59.417 19.8503 59.417H13.1558C13.7114 59.7989 13.6211 60.3059 13.51 60.6184L9.60721 73.0836C9.45443 73.5767 8.87109 74.0975 8.55859 74.1739H13.9753C13.6767 74.1184 13.253 73.6948 13.4058 73.1184L14.8225 68.6114C14.8294 68.6114 21.3433 69.4934 23.3156 64.6184ZM18.0517 60.5628C18.76 60.5628 20.7253 60.66 19.4544 64.3753C18.128 68.2781 15.1836 67.4725 15.1836 67.4725L17.3503 60.5628H18.0517Z" fill="#0037B1"/>
<path d="M27.6503 74.1804H31.2962C30.1295 73.8054 28.4073 72.7012 27.7198 71.9165C28.2753 71.3123 28.9628 70.5485 29.0878 68.9998H27.1989C27.3086 69.0701 27.399 69.1666 27.462 69.2806C27.5251 69.3945 27.5588 69.5224 27.5601 69.6526C27.5465 70.1506 27.3764 70.6317 27.0739 71.0276C26.5184 70.2082 25.9281 69.2707 25.7198 67.8957C26.4628 67.5276 27.5045 67.1248 28.3309 66.4026C29.1156 65.7151 29.2962 65.0623 29.3101 64.6387V64.5832C29.3109 64.3645 29.2677 64.1478 29.183 63.9462C29.0983 63.7445 28.9738 63.562 28.817 63.4096C28.2684 62.8679 27.4073 62.6457 26.4976 62.8123C25.8834 62.9353 25.3116 63.2152 24.8378 63.6248C23.7406 64.6596 23.6017 66.3609 23.6017 67.1318C23.6017 67.3193 23.6087 67.4582 23.6156 67.5415C23.5531 67.5693 23.442 67.6109 23.442 67.6109C22.6364 67.9096 20.4906 68.479 19.7267 70.2429C19.5685 70.6478 19.4884 71.079 19.4906 71.5137C19.4819 72.05 19.6265 72.5776 19.9073 73.0346C20.4489 73.8818 21.3656 74.4165 22.8378 74.3887C24.4351 74.361 26.0114 73.2707 26.2892 73.0693C26.5601 73.3262 27.2753 73.9998 27.6503 74.1804ZM27.6503 64.3193C27.4628 65.5068 25.9212 66.7082 25.5462 66.8679C25.4767 66.2012 25.5114 65.1457 26.067 64.2846C26.4351 63.7151 26.9281 63.4651 27.3239 63.604C27.6434 63.7151 27.6781 64.0068 27.6503 64.3193ZM25.5114 72.2637C25.2962 72.3957 24.4489 72.8262 23.6573 72.9026C22.9212 72.9721 21.6989 72.6873 21.7059 71.2151C21.7059 69.9582 23.0739 69.0346 23.817 68.7151C24.1156 69.9304 24.7892 71.3054 25.5114 72.2637Z" fill="#0037B1"/>
<path d="M38.7259 60.5763C40.8926 60.0554 42.6773 61.7499 42.837 61.8679L43.4551 59.9026C42.6009 59.6457 36.3856 57.5415 31.9898 62.5554C29.2884 65.6388 28.6287 71.9582 32.0523 73.6527C35.719 75.4652 39.7676 73.3749 40.0662 73.229L41.7398 67.8957C41.9204 67.2499 42.3301 66.8332 43.0523 66.5624H37.2329C38.0801 66.9165 38.0176 67.5554 37.9551 67.8193L36.2815 73.1527C36.0592 73.1943 31.3787 74.361 33.9967 66.1735C34.5731 64.4165 36.1495 61.1943 38.7259 60.5763Z" fill="#0037B1"/>
<g clip-path="url(#clip2)">
<path d="M91.6546 43.0351C91.6546 42.7453 91.7697 42.4672 91.9747 42.2623C92.1797 42.0573 92.4577 41.9421 92.7476 41.9421C93.0375 41.9421 93.3155 42.0573 93.5204 42.2623C93.7254 42.4672 93.8406 42.7453 93.8406 43.0351C93.8512 43.1814 93.8301 43.3282 93.7789 43.4656C93.7278 43.603 93.6476 43.7278 93.5439 43.8315C93.4402 43.9352 93.3155 44.0153 93.178 44.0665C93.0406 44.1177 92.8938 44.1387 92.7476 44.1281C92.6015 44.1378 92.4551 44.1161 92.3181 44.0646C92.1812 44.0131 92.0568 43.9329 91.9533 43.8295C91.8498 43.726 91.7696 43.6016 91.7181 43.4646C91.6666 43.3276 91.6449 43.1812 91.6546 43.0351ZM91.7967 43.0351C91.8202 43.2728 91.9344 43.4923 92.1156 43.648C92.2967 43.8037 92.5309 43.8837 92.7694 43.8713C92.9856 43.8559 93.1888 43.7627 93.3416 43.609C93.4943 43.4552 93.5861 43.2514 93.6001 43.0351C93.5861 42.8189 93.4943 42.615 93.3416 42.4613C93.1888 42.3076 92.9856 42.2144 92.7694 42.199C92.5309 42.1866 92.2967 42.2665 92.1156 42.4222C91.9344 42.5779 91.8202 42.7974 91.7967 43.0351Z" fill="#E31837"/>
<path d="M93.1852 43.7291H92.9065L92.4911 43.1826H92.2124V43.7291H92.0703V42.4777H92.6168C92.7589 42.4777 92.8955 42.4776 92.8955 42.6197C93.0376 42.6197 93.0376 42.7564 93.0376 42.893C93.0376 43.1717 92.8955 43.1717 92.6168 43.1717L93.1852 43.7291ZM92.6387 43.0351C92.7808 43.0351 93.0595 43.0351 93.0595 42.893C93.0595 42.7509 92.9174 42.7564 92.7808 42.7564H92.502V43.1717H92.6387V43.0351Z" fill="#E31837"/>
<path d="M87.4839 44.15C95.1349 37.592 105.704 31.351 111.683 28.9847C110.71 28.4382 109.317 27.5965 107.786 26.6238C100.277 29.1267 91.3914 34.6901 83.4453 40.9475C84.8389 42.0624 86.227 43.0352 87.4839 44.15Z" fill="#E31837"/>
<path d="M84.0029 26.4817C82.9099 25.9352 81.642 25.3887 80.6638 24.9515C77.7454 26.3451 74.1058 28.5694 69.4004 31.9085C70.3732 32.455 71.488 33.1599 72.5974 33.7174C76.2287 31.0466 80.0395 28.629 84.0029 26.4817Z" fill="#012169"/>
<path d="M90.817 23.2737C87.758 21.9143 84.5968 20.7978 81.3626 19.9346C80.2728 20.4113 79.1581 20.8291 78.0234 21.186C81.2939 21.9966 84.4661 23.1621 87.4833 24.6618C88.4561 24.2574 89.8442 23.6999 90.817 23.2737Z" fill="#E31837"/>
<path d="M74.6853 22.8639C70.8379 24.6953 67.1203 26.7878 63.5586 29.1268C64.3947 29.5421 65.2254 29.8208 66.4769 30.3783C71.9037 26.7604 76.0789 24.5362 77.7457 23.8203C76.5106 23.4213 75.3794 23.1426 74.6853 22.8639Z" fill="#012169"/>
<path d="M93.9989 22.1807C95.0378 21.9187 96.0598 21.5939 97.0593 21.2079C93.9724 19.8316 90.7583 18.7608 87.4627 18.0109C86.9162 18.1475 85.3751 18.5574 84.4023 18.8416C87.66 19.7777 90.8637 20.8924 93.9989 22.1807Z" fill="#E31837"/>
<path d="M76.2148 35.7994C77.3078 36.499 78.5812 37.4717 79.8327 38.1658C87.7569 32.045 95.55 27.3178 104.174 24.5361C102.922 23.9896 101.95 23.4431 100.556 22.7272C95.2713 24.1207 86.5054 27.7331 76.2148 35.7994Z" fill="#E31837"/>
</g>
</g>
<defs>
<clipPath id="clip0">
<rect width="117" height="115" fill="white"/>
</clipPath>
<clipPath id="clip1">
<rect width="32" height="9" fill="white" transform="translate(61.5586 90)"/>
</clipPath>
<clipPath id="clip2">
<rect width="48.1247" height="26.15" fill="white" transform="translate(63.5586 18)"/>
</clipPath>
</defs>
</svg>
