<svg width="90" height="53" viewBox="0 0 90 53" fill="none" xmlns="http://www.w3.org/2000/svg">
<path d="M1.63012 48.9895H6.90658V50.4052H0V40.1954H6.56339V41.6111H1.63012V44.571H5.87703V45.9867H1.63012V48.9895ZM84.6377 45.9867H89.0133V44.571H84.6377V41.6111H89.6568V40.1954H82.9647V50.4052H90V48.9895H84.5948L84.6377 45.9867ZM20.8913 50.877L21.4061 50.6625L20.205 52.2927H20.1621C19.9514 52.3451 19.7356 52.3739 19.5186 52.3785C18.4965 52.3724 17.4927 52.1067 16.6015 51.6063C15.9342 51.2517 15.2467 50.9366 14.5424 50.6625L14.3708 50.5767C11.8827 50.3623 9.39466 48.4747 9.39466 45.3003C9.39466 41.9971 12.2259 40.0238 14.9714 40.0238C17.7169 40.0238 20.5481 41.9971 20.5481 45.3003C20.5704 46.3813 20.2388 47.44 19.6038 48.3151C18.9688 49.1902 18.0651 49.8337 17.0305 50.1478L16.9018 50.1907L17.0305 50.2336C17.245 50.3194 17.4595 50.4052 17.7169 50.5339C18.9609 51.1344 19.9476 51.2202 20.8913 50.877ZM18.8322 45.3432C18.8322 44.3079 18.4209 43.3149 17.6888 42.5828C16.9568 41.8508 15.9638 41.4395 14.9285 41.4395C13.8932 41.4395 12.9002 41.8508 12.1682 42.5828C11.4361 43.3149 11.0248 44.3079 11.0248 45.3432C11.0153 45.8565 11.1101 46.3663 11.3034 46.8419C11.4968 47.3174 11.7847 47.7488 12.1497 48.1097C12.5147 48.4707 12.9492 48.7538 13.4268 48.9419C13.9045 49.13 14.4154 49.2192 14.9285 49.204C15.4391 49.2097 15.9458 49.114 16.4192 48.9225C16.8925 48.731 17.3232 48.4476 17.6863 48.0885C18.0494 47.7294 18.3376 47.3019 18.5343 46.8306C18.731 46.3594 18.8323 45.8538 18.8322 45.3432ZM28.0982 49.1611C26.4252 49.1611 25.4814 48.2603 25.4814 46.7159V40.1954H23.8513V46.8017C23.8513 49.0753 25.5672 50.5767 28.0982 50.5767C30.6292 50.5767 32.3451 49.0753 32.3451 46.8017V40.1954H30.7579V46.673C30.715 48.2603 29.7712 49.1611 28.0982 49.1611ZM38.1792 40.1954H36.5491V50.4052H38.1792V40.1954ZM45.3003 50.4481H46.9304V41.6111H50.3194V40.1954H41.8684V41.6111H45.2574V50.4481H45.3003ZM46.9304 9.26597C46.9304 9.18018 46.8446 8.7941 46.8017 8.45091C46.7824 8.38106 46.7843 8.30702 46.8072 8.23825C46.8301 8.16948 46.873 8.1091 46.9304 8.06483C47.2736 8.45091 47.6168 8.7512 47.7884 8.92279C47.96 9.09438 47.9171 9.26597 47.7026 9.39467C47.5833 9.49912 47.432 9.55966 47.2736 9.56626C47.1888 9.56991 47.1058 9.54076 47.0419 9.48484C46.978 9.42892 46.938 9.35054 46.9304 9.26597ZM46.1582 11.9256C46.1582 11.9685 46.1582 11.9685 46.1153 11.9685C45.7293 11.9685 44.0562 11.797 43.756 10.51C43.7245 10.3638 43.6814 10.2204 43.6273 10.081C43.6273 10.081 43.5415 10.081 43.5415 10.2097C43.5415 10.3384 43.5415 10.4242 43.4128 10.4671C43.2841 10.51 42.7693 10.4671 42.3832 9.82365C41.9971 9.18018 42.3403 9.00859 42.3832 9.00859C42.4396 8.99612 42.498 8.99519 42.5548 9.00583C42.6116 9.01648 42.6656 9.03849 42.7137 9.07054C42.7618 9.10259 42.8029 9.14402 42.8346 9.19234C42.8662 9.24067 42.8878 9.2949 42.898 9.35177C42.9838 9.65206 43.4128 9.78075 43.3699 9.00859C43.3699 8.7083 43.2841 8.36512 43.6702 8.06483C44.0562 7.76454 44.4852 7.63585 44.3136 7.50716C44.0034 7.36731 43.6673 7.29423 43.327 7.29267C41.8684 7.29267 41.0105 8.6225 41.0105 8.6225C40.8389 8.83699 40.6673 8.87989 40.5815 8.83699V8.7941C42.2545 6.30601 44.0133 5.23356 45.2145 5.23356C45.3403 5.22803 45.466 5.24797 45.5839 5.2922C45.7019 5.33643 45.8097 5.40403 45.9009 5.49095V5.53385C45.3856 5.56942 44.879 5.68521 44.3994 5.87703C43.9242 6.02089 43.4952 6.28718 43.1554 6.6492C43.2412 6.82079 43.4986 6.82079 43.4986 6.82079C43.6497 6.81228 43.7967 6.76818 43.9275 6.69209C45.6435 5.91993 45.7722 5.87703 45.9867 6.22022C46.3298 6.73499 46.4585 6.94948 46.0724 7.20687C45.6006 7.55005 44.8284 7.67875 45.6006 8.36512C45.9867 8.7083 46.5014 8.83699 46.4156 9.60916C46.3298 10.3813 45.1287 10.7245 46.1582 11.9256ZM39.9809 9.48046C40.0667 9.65206 40.2383 10.081 40.7102 10.081C41.0534 10.081 41.2679 9.90944 41.5253 9.95234C41.4457 10.1462 41.3112 10.3125 41.1385 10.4311C40.9657 10.5496 40.7621 10.6152 40.5527 10.6198C40.3432 10.6243 40.1369 10.5677 39.9592 10.4567C39.7814 10.3458 39.6399 10.1854 39.552 9.99524C39.7175 9.84378 39.8618 9.67062 39.9809 9.48046ZM39.4233 8.92279C38.6511 10.1239 37.4928 8.7941 38.4795 8.40801C38.5929 8.5542 38.7352 8.67539 38.8976 8.76397C39.06 8.85256 39.239 8.90663 39.4233 8.92279ZM43.756 15.0572C43.6702 15.0143 41.5682 14.285 39.4662 16.8589C38.1792 16.7302 37.7502 16.001 37.6215 15.572C37.9647 15.4433 40.2812 14.6711 40.8818 13.9848C41.654 13.1268 41.9542 11.1535 41.9542 11.1535C41.9715 11.1 42.0063 11.054 42.053 11.0228C42.0998 10.9917 42.1557 10.9772 42.2116 10.9819C42.3493 11.0026 42.4813 11.0513 42.5993 11.1251C42.7174 11.1989 42.8191 11.2962 42.898 11.4109C43.5415 12.2259 42.9409 12.9981 43.756 15.0572ZM48.6034 10.2097C48.6801 10.3338 48.7171 10.4783 48.7094 10.624C48.7017 10.7696 48.6498 10.9095 48.5605 11.0248C48.6094 11.1481 48.6384 11.2784 48.6463 11.4109C48.6466 11.5066 48.6277 11.6015 48.5909 11.6898C48.5541 11.7782 48.5 11.8584 48.4318 11.9256C48.435 11.9586 48.4503 11.9892 48.4747 12.0114C48.5805 12.2385 48.6041 12.4953 48.5415 12.7379C48.4789 12.9804 48.334 13.1937 48.1315 13.3413C47.7347 13.5954 47.2729 13.7295 46.8017 13.7274C46.3298 13.7274 45.6864 13.6416 45.6435 13.6416C45.5743 14.0836 45.5888 14.5347 45.6864 14.9714C45.4075 14.381 45.2611 13.7368 45.2574 13.0839C45.7293 13.1268 46.2869 13.2126 46.7159 13.2126C47.1058 13.2503 47.4973 13.16 47.8313 12.9552C48.0887 12.7407 48.1744 12.5262 48.0029 12.2688C47.9259 12.1685 47.8879 12.0438 47.8957 11.9176C47.9036 11.7914 47.9569 11.6724 48.0458 11.5825C48.1744 11.4538 48.0887 11.2822 47.96 11.1964C47.8313 11.1106 47.8313 11.0248 47.96 10.8961C48.1744 10.6816 48.1744 10.5958 48.0029 10.3384C47.9553 10.2602 47.9259 10.1722 47.9171 10.081C47.8742 9.95234 47.96 9.86655 48.0887 9.82365C48.2265 9.79004 48.3504 9.71399 48.4427 9.60624C48.5351 9.49849 48.5913 9.36447 48.6034 9.22308C48.579 9.11603 48.5354 9.0143 48.4747 8.92279C48.1744 8.53671 47.8313 8.19352 47.531 7.80744C47.4617 7.72451 47.4203 7.62187 47.4126 7.51408C47.4049 7.40629 47.4313 7.29881 47.4881 7.20687C47.5236 7.06679 47.538 6.92222 47.531 6.77789C47.3972 6.27332 47.1797 5.79479 46.8875 5.36226C46.8446 5.31936 46.8017 5.23356 46.8446 5.19067C47.0591 4.67589 46.3727 3.64634 45.429 3.60344C45.2807 3.61679 45.1317 3.587 45 3.51764C44.6139 3.26025 44.0991 3.04576 42.8551 3.04576C42.2414 3.03766 41.6313 3.13935 41.0534 3.34605C40.0667 3.73213 39.2517 4.71879 39.5949 5.61965C39.6377 5.49095 40.1525 3.77503 41.6968 3.98952C41.5506 4.10923 41.4324 4.2597 41.3509 4.43023C41.2693 4.60075 41.2263 4.78715 41.225 4.97617C41.2291 5.05117 41.2581 5.12266 41.3073 5.1794C41.3566 5.23614 41.4232 5.27493 41.4969 5.28966C41.5705 5.30439 41.647 5.29423 41.7143 5.26078C41.7815 5.22734 41.8357 5.17249 41.8684 5.10487C42.2974 4.07532 42.8551 4.4614 42.898 4.4614C42.9409 4.4614 42.2974 4.63299 42.5119 5.53385C42.5224 5.56568 42.5247 5.59967 42.5184 5.63261C42.5122 5.66555 42.4976 5.69635 42.4761 5.72211C42.4547 5.74786 42.427 5.76773 42.3957 5.77982C42.3645 5.79192 42.3306 5.79585 42.2974 5.79124C41.9542 5.79124 42.04 5.57675 41.3108 6.30601C41.2041 6.39547 41.0796 6.46132 40.9456 6.49925C40.8116 6.53717 40.6711 6.5463 40.5334 6.52604C40.3956 6.50578 40.2637 6.45659 40.1463 6.3817C40.0289 6.30681 39.9287 6.20791 39.8522 6.09152C39.7434 6.2194 39.6565 6.36433 39.5949 6.5205C39.2088 7.55005 40.3241 7.50716 40.3241 7.50716C40.0238 7.89324 39.8951 8.15063 39.8522 8.19352C39.6552 8.21141 39.4568 8.17792 39.2765 8.09634C39.0962 8.01475 38.9402 7.88785 38.8235 7.728C38.7069 7.56815 38.6336 7.3808 38.6109 7.18422C38.5882 6.98764 38.6168 6.78853 38.694 6.6063C38.4905 6.71066 38.3336 6.88753 38.2542 7.10196C38.1747 7.3164 38.1786 7.55282 38.265 7.76454C36.5062 8.6225 37.5786 10.2526 38.8227 10.2955C38.8227 10.2526 38.7369 11.797 39.8951 11.797C40.367 11.797 40.2812 11.5396 40.9676 11.6254C40.819 11.8022 40.6358 11.9468 40.4292 12.0501C40.2226 12.1534 39.9971 12.2132 39.7664 12.2259C39.569 12.2271 39.3732 12.189 39.1905 12.114C39.0079 12.0389 38.8419 11.9284 38.7022 11.7887C38.5626 11.6491 38.452 11.4831 38.377 11.3004C38.3019 11.1177 38.2639 10.922 38.265 10.7245C37.8678 10.6119 37.5108 10.3887 37.2355 10.081C37.0639 9.90944 36.1201 8.57961 37.7931 7.50716C37.5786 5.44805 38.9514 4.89038 39.0801 4.84748C40.0667 1.88752 44.2707 2.3165 45.3861 3.08866C47.7026 3.38895 47.4881 5.14777 47.4881 5.19067C47.7852 5.65698 48.0162 6.16227 48.1744 6.69209C48.2087 6.96677 48.1793 7.24563 48.0887 7.50716C49.0753 8.7083 49.2898 8.83699 49.2898 9.22308C49.18 9.62053 48.9379 9.96861 48.6034 10.2097ZM45 30.8866C41.9456 30.8866 38.9598 29.9808 36.4202 28.2839C33.8805 26.587 31.9011 24.1751 30.7323 21.3532C29.5634 18.5313 29.2576 15.4262 29.8535 12.4305C30.4493 9.43475 31.9202 6.68302 34.0799 4.52324C36.2397 2.36346 38.9915 0.892628 41.9872 0.296745C44.9829 -0.299137 48.088 0.00669136 50.9099 1.17556C53.7318 2.34442 56.1437 4.32383 57.8406 6.86346C59.5375 9.40309 60.4433 12.3889 60.4433 15.4433C60.4433 19.5391 58.8162 23.4672 55.92 26.3633C53.0239 29.2595 49.0958 30.8866 45 30.8866ZM52.1211 28.3556C54.4893 27.0237 56.4589 25.0837 57.8265 22.7359C53.837 16.816 48.346 22.4786 52.1211 28.3556ZM43.4557 18.489V18.4461C43.4537 18.424 43.4441 18.4033 43.4284 18.3876C43.4127 18.3719 43.392 18.3623 43.3699 18.3603H43.327C41.8255 19.347 40.1096 22.5644 39.2946 28.9991C39.7851 29.2107 40.2862 29.3968 40.796 29.5567C40.9247 22.7359 42.469 20.0334 43.4557 18.489ZM48.1315 29.857C49.1086 29.6529 50.0587 29.3362 50.9628 28.9133C46.9733 22.1783 53.7512 15.8723 58.0839 22.1783C58.3926 21.601 58.6509 20.9982 58.856 20.3766C52.0782 11.2393 43.0696 19.6473 48.1315 29.857ZM45 0.686375C41.093 0.695466 37.3492 2.25449 34.5905 5.02121C31.8318 7.78793 30.2837 11.5362 30.286 15.4433C30.2716 18.2966 31.108 21.0894 32.6883 23.4652C33.4604 21.2345 34.5329 18.3175 34.919 17.4166C35.0792 17.0692 35.311 16.7597 35.5994 16.5083C35.8877 16.2569 36.226 16.0694 36.592 15.9581C36.8182 16.4012 37.1534 16.7794 37.5662 17.0571C37.979 17.3348 38.4557 17.5028 38.9514 17.5453C38.5878 18.0512 38.2855 18.5984 38.0505 19.1754C37.5778 20.2407 37.0332 21.2727 36.4204 22.2641C36.2189 22.5556 35.9106 22.7559 35.5624 22.8217C34.7474 22.3928 34.8761 21.0629 34.7045 20.5481C34.6187 20.3766 34.49 20.3337 34.3613 20.4624C34.2326 20.591 34.3613 21.4919 34.3613 22.0925C34.194 22.9387 33.9201 23.7603 33.5462 24.5377C34.7347 26.0231 36.1894 27.2742 37.836 28.2269C38.1042 26.4406 38.5057 24.6768 39.0372 22.9504V22.9075C39.0372 22.8962 39.0327 22.8853 39.0246 22.8772C39.0166 22.8692 39.0057 22.8646 38.9943 22.8646C38.9829 22.8646 38.972 22.8692 38.9639 22.8772C38.9559 22.8853 38.9514 22.8962 38.9514 22.9075C38.3312 24.1677 37.6291 25.3857 36.8494 26.5539C36.7636 26.6397 36.5062 26.5539 36.4204 26.2107C36.3346 25.8675 36.2917 25.6959 36.0343 25.6959C35.7834 25.701 35.5387 25.6179 35.3427 25.4611C35.1468 25.3044 35.012 25.0838 34.9619 24.8379C34.9382 24.7733 34.9284 24.7044 34.9331 24.6357C34.9379 24.5671 34.9571 24.5002 34.9895 24.4394C35.0219 24.3787 35.0667 24.3255 35.1211 24.2833C35.1755 24.2411 35.2382 24.2108 35.3051 24.1945C35.4337 24.1516 35.5624 24.1516 35.734 24.1087C36.7207 23.8084 37.0639 23.3794 37.5786 22.4357C38.0934 21.4919 38.6511 20.0763 39.4233 18.7035C40.2383 17.245 41.0963 16.001 41.9971 15.6578C43.6702 14.9714 44.4852 15.7436 44.6997 15.9581C42.9409 15.9152 41.9971 17.1163 41.1392 18.4461V18.489C41.1411 18.5111 41.1508 18.5319 41.1665 18.5476C41.1822 18.5632 41.2029 18.5729 41.225 18.5748C41.2679 18.5748 41.2679 18.5748 41.3108 18.5319C41.9542 17.8456 43.4128 16.816 45.858 16.8589C41.4824 22.1354 43.4986 28.3556 44.1849 30.0715C44.4852 30.0715 44.8284 30.1144 45.1716 30.1144C45.6864 30.1144 46.2011 30.0715 46.7159 30.0286C41.3108 17.7169 52.979 10.8103 59.2421 19.776C59.3708 19.3899 59.4566 18.9609 59.5853 18.5319C54.6949 11.1535 47.3165 15.6578 46.8875 16.0868C46.9038 15.8485 46.9842 15.6191 47.1201 15.4228C47.256 15.2265 47.4424 15.0705 47.6597 14.9714C49.8046 13.899 51.735 13.5558 53.7083 13.8561C55.8961 14.1563 58.041 15.4862 59.714 17.8885C59.8511 17.0661 59.9228 16.2341 59.9285 15.4004C59.8502 11.4854 58.2456 7.75593 55.4568 5.00719C52.668 2.25845 48.9157 0.707969 45 0.686375ZM56.5396 40.0667L60.9581 50.4481H59.285L58.1697 47.7884V47.7455H54.2231L53.1077 50.4052H51.4776L55.8961 40.0238H56.5396V40.0667ZM57.5691 46.4156C57.0495 45.2828 56.5913 44.1229 56.1964 42.9409C56.0248 43.4557 56.0677 43.327 54.7807 46.4156H57.5691ZM70.6959 47.2736C70.6959 49.3327 68.9371 50.4052 67.2212 50.4052H63.8322V40.1954H66.6635C68.122 40.1954 69.6663 41.1392 69.6663 42.898C69.6751 43.2341 69.6061 43.5677 69.4647 43.8728C69.3233 44.1779 69.1134 44.4462 68.8513 44.6568C69.3879 44.8544 69.8518 45.2105 70.1812 45.6779C70.5107 46.1452 70.6902 46.7018 70.6959 47.2736ZM65.4623 44.1849H66.5348C67.2641 44.1849 68.0791 43.8418 68.0791 42.898C68.0791 41.9543 67.2641 41.5682 66.5348 41.5682H65.4623V44.1849ZM69.0658 47.2736C69.0658 46.0725 67.9933 45.5148 66.9638 45.5148H65.4623V49.0324H67.0067C68.0362 49.0324 69.0658 48.5176 69.0658 47.2736ZM75.8008 40.1954H74.1706V50.4052H80.4337V48.9895H75.8008V40.1954Z" fill="#002677"/>
</svg>
