<svg width="50" height="40" viewBox="0 0 50 40" fill="none" xmlns="http://www.w3.org/2000/svg">
<g clip-path="url(#clip0)">
<path d="M32.8578 2.85754C36.802 2.85754 39.9998 19.4868 39.9998 39.9994H45.7146C45.7146 17.9083 39.9578 0 32.858 0C28.818 0 25.2144 5.38207 22.858 13.7983C20.5018 5.38207 16.8966 0 12.8572 0C5.7576 0 0 17.9083 0 40.001H5.7156C5.7156 19.4878 8.9136 2.85914 12.8572 2.85914C16.8008 2.85914 20.001 18.2093 20.001 37.1455H25.7146C25.7146 18.2093 28.9128 2.85914 32.8578 2.85914V2.85754ZM48.575 37.1455C49.3502 37.1455 50 37.7593 50 38.5667C50 39.3868 49.3502 40.0012 48.575 40.0012C47.7998 40.0012 47.142 39.3868 47.142 38.5667C47.142 37.7593 47.7972 37.1455 48.575 37.1455ZM48.575 39.7928C49.2316 39.7928 49.7414 39.2652 49.7414 38.5673C49.7414 37.8815 49.2312 37.3547 48.575 37.3547C47.9104 37.3547 47.4012 37.8815 47.4012 38.5673C47.401 39.2636 47.9104 39.7912 48.575 39.7912V39.7928ZM48.02 37.7359H48.6638C49.0578 37.7359 49.2438 37.8927 49.2438 38.2125C49.2438 38.5143 49.0556 38.6403 48.8088 38.6665L49.2828 39.4048H49.0046L48.553 38.6867H48.28V39.4048H48.02V37.7359ZM48.28 38.4773H48.55C48.7772 38.4773 48.9866 38.4659 48.9866 38.2015C48.9866 37.9795 48.7968 37.9447 48.6222 37.9447H48.28V38.4773Z" fill="#FFC300"/>
</g>
<defs>
<clipPath id="clip0">
<rect width="50" height="40" fill="white"/>
</clipPath>
</defs>
</svg>
