<svg width="150" height="38" viewBox="0 0 150 38" fill="none" xmlns="http://www.w3.org/2000/svg">
<path d="M56.087 8.64916H47.7864C47.5112 8.64867 47.245 8.74761 47.0357 8.92812C46.8263 9.10864 46.6877 9.35884 46.6449 9.63358L43.2895 31.1473C43.2613 31.3305 43.3062 31.5175 43.4144 31.6673C43.5225 31.817 43.685 31.9172 43.8662 31.9459C43.902 31.9518 43.9381 31.9546 43.9744 31.9544H47.9396C48.2148 31.9549 48.4812 31.8559 48.6905 31.6752C48.8999 31.4946 49.0384 31.2442 49.0811 30.9694L49.9865 25.1662C50.0292 24.8913 50.1678 24.641 50.3771 24.4603C50.5864 24.2797 50.8528 24.1807 51.128 24.1811H53.7553C59.2225 24.1811 62.3791 21.5091 63.2034 16.2069C63.5746 13.8882 63.219 12.0664 62.1448 10.7905C60.9648 9.38945 58.8728 8.64795 56.0942 8.64795L56.087 8.64916ZM57.0446 16.5075C56.591 19.5178 54.3152 19.5178 52.1145 19.5178H50.8619L51.7408 13.8955C51.7664 13.731 51.8493 13.5811 51.9746 13.4729C52.0998 13.3647 52.2592 13.3052 52.4239 13.3052H52.9983C54.4973 13.3052 55.9109 13.3052 56.6421 14.1688C57.0777 14.6844 57.211 15.4496 57.0446 16.5075ZM80.8991 16.4103H76.9243C76.7595 16.4103 76.6002 16.4698 76.4749 16.578C76.3497 16.6862 76.2668 16.8361 76.2412 17.0006L76.0651 18.1241L75.787 17.7172C74.9266 16.4546 73.0077 16.0326 71.0924 16.0326C66.7 16.0326 62.9486 19.3951 62.2175 24.1125C61.8378 26.4658 62.3779 28.7158 63.6984 30.285C64.9096 31.7273 66.6423 32.3285 68.7048 32.3285C72.2441 32.3285 74.2069 30.0287 74.2069 30.0287L74.0296 31.1473C74.0007 31.3305 74.0449 31.5177 74.1525 31.6679C74.2601 31.8181 74.4223 31.919 74.6034 31.9483C74.6392 31.9539 74.6753 31.9567 74.7115 31.9568H78.2923C78.5676 31.9576 78.8341 31.8586 79.0434 31.6779C79.2528 31.4973 79.3913 31.2468 79.4338 30.9718L81.5822 17.2198C81.611 17.0374 81.5669 16.851 81.4598 16.7014C81.3527 16.5518 81.1912 16.4512 81.0109 16.4218C80.9745 16.4158 80.9378 16.4127 80.9009 16.4127L80.8991 16.4103ZM75.3586 24.2303C74.9753 26.5259 73.1729 28.0666 70.8743 28.0666C69.7196 28.0666 68.7973 27.6925 68.205 26.9832C67.6126 26.2739 67.3945 25.2767 67.5813 24.1605C67.9418 21.8844 69.7718 20.2933 72.0356 20.2933C73.1645 20.2933 74.0819 20.6722 74.6863 21.3864C75.2907 22.1006 75.5322 23.1178 75.3586 24.2291V24.2303ZM102.069 16.4103H98.0746C97.8862 16.4106 97.7008 16.4573 97.5344 16.5466C97.368 16.6358 97.2258 16.7647 97.1199 16.9222L91.6107 25.1249L89.2754 17.2405C89.2037 17.0001 89.0574 16.7894 88.8581 16.6396C88.6588 16.4898 88.4171 16.4087 88.1687 16.4085H84.2431C84.1523 16.4082 84.0623 16.4261 83.9782 16.461C83.8942 16.496 83.8178 16.5473 83.7534 16.6121C83.689 16.6769 83.6379 16.7539 83.603 16.8387C83.568 16.9235 83.55 17.0144 83.5498 17.1062C83.5493 17.1835 83.5617 17.2603 83.5865 17.3334L87.9861 30.3846L83.8502 36.2874C83.7769 36.3921 83.7334 36.5151 83.7245 36.643C83.7157 36.771 83.7418 36.899 83.8 37.0129C83.8582 37.1269 83.9463 37.2225 84.0547 37.2892C84.163 37.356 84.2875 37.3914 84.4144 37.3915H88.4036C88.5899 37.3918 88.7735 37.3464 88.9386 37.2592C89.1037 37.1721 89.2455 37.0457 89.3517 36.8911L102.637 17.5064C102.709 17.4016 102.751 17.2788 102.759 17.1515C102.767 17.0242 102.74 16.8971 102.681 16.784C102.623 16.6709 102.535 16.5762 102.427 16.51C102.319 16.4438 102.195 16.4087 102.069 16.4085V16.4103Z" fill="#253B80"/>
<path d="M115.296 8.87865H106.992C106.717 8.87815 106.451 8.97709 106.241 9.15761C106.032 9.33813 105.893 9.58833 105.851 9.86306L102.499 31.3769C102.47 31.5597 102.515 31.7466 102.622 31.8963C102.73 32.0461 102.892 32.1465 103.073 32.1754C103.109 32.1813 103.145 32.1842 103.181 32.1839H107.441C107.632 32.1833 107.817 32.114 107.962 31.9884C108.108 31.8628 108.204 31.6892 108.235 31.4983L109.187 25.3993C109.23 25.1245 109.369 24.8742 109.578 24.6936C109.787 24.513 110.054 24.4139 110.329 24.4143H112.952C118.42 24.4143 121.576 21.7422 122.401 16.44C122.774 14.1214 122.416 12.2995 121.342 11.0236C120.163 9.62258 118.072 8.88108 115.294 8.88108L115.296 8.87865ZM116.253 16.737C115.801 19.7473 113.525 19.7473 111.323 19.7473H110.069L110.949 14.125C110.974 13.9605 111.057 13.8105 111.182 13.7022C111.307 13.5939 111.466 13.5345 111.631 13.5347H112.205C113.703 13.5347 115.118 13.5347 115.848 14.3983C116.284 14.9139 116.417 15.6791 116.25 16.737H116.253ZM140.105 16.6398H136.132C135.968 16.6395 135.808 16.6988 135.683 16.8071C135.558 16.9154 135.475 17.0655 135.45 17.2301L135.274 18.3536L134.995 17.9467C134.135 16.6841 132.217 16.2621 130.302 16.2621C125.909 16.2621 122.158 19.6246 121.428 24.342C121.049 26.6953 121.587 28.9453 122.908 30.5145C124.121 31.9568 125.852 32.558 127.914 32.558C131.453 32.558 133.416 30.2582 133.416 30.2582L133.236 31.3744C133.207 31.5575 133.251 31.7448 133.359 31.895C133.466 32.0452 133.628 32.146 133.81 32.1754C133.846 32.1813 133.883 32.1841 133.92 32.1839H137.5C137.774 32.1838 138.04 32.0845 138.249 31.9039C138.458 31.7233 138.596 31.4733 138.638 31.1989L140.788 17.4469C140.803 17.347 140.796 17.2451 140.768 17.148C140.741 17.051 140.693 16.9611 140.628 16.8845C140.563 16.8079 140.482 16.7464 140.391 16.7042C140.3 16.6619 140.202 16.64 140.102 16.6398H140.105ZM134.564 24.4598C134.183 26.7554 132.379 28.2961 130.079 28.2961C128.928 28.2961 128.003 27.922 127.411 27.2127C126.818 26.5034 126.602 25.5062 126.786 24.39C127.147 22.1139 128.977 20.5228 131.241 20.5228C132.37 20.5228 133.288 20.9017 133.892 21.6159C134.496 22.3301 134.74 23.3485 134.564 24.4598ZM144.791 9.46893L141.384 31.3769C141.37 31.4674 141.374 31.5599 141.395 31.649C141.416 31.7382 141.454 31.8223 141.507 31.8964C141.561 31.9706 141.628 32.0334 141.705 32.0813C141.783 32.1292 141.869 32.1612 141.958 32.1754C141.994 32.1813 142.03 32.1841 142.066 32.1839H145.491C145.766 32.1848 146.033 32.0859 146.242 31.9052C146.452 31.7245 146.59 31.4739 146.632 31.1989L149.992 9.68513C150.021 9.50186 149.976 9.31463 149.868 9.16456C149.76 9.01449 149.598 8.91384 149.416 8.88472C149.381 8.87915 149.345 8.87631 149.309 8.87622H145.473C145.309 8.87683 145.149 8.93683 145.024 9.04546C144.899 9.15409 144.816 9.30423 144.791 9.46893Z" fill="#179BD7"/>
<path d="M8.81805 36.3666L9.45308 32.2911L8.03882 32.2577H1.28711L5.9793 2.18426C5.99316 2.09238 6.03927 2.00862 6.10922 1.94829C6.17916 1.88796 6.26826 1.8551 6.3602 1.85572H17.7452C21.5248 1.85572 24.1329 2.65066 25.4955 4.21989C26.1341 4.95592 26.5402 5.72475 26.7373 6.5713C26.9434 7.45977 26.947 8.5207 26.7457 9.81543L26.7313 9.90956V10.7391L27.3693 11.1035C27.8564 11.3536 28.2941 11.6915 28.661 12.1007C29.2072 12.7304 29.5622 13.5302 29.7094 14.4788C29.8638 15.4541 29.8128 16.6146 29.5604 17.9282C29.269 19.4397 28.798 20.7563 28.1618 21.8336C27.6008 22.7985 26.8465 23.6342 25.9473 24.2871C25.1025 24.8944 24.0986 25.3535 22.9637 25.648C21.8643 25.9371 20.6104 26.0834 19.2352 26.0834H18.3496C17.7144 26.0825 17.0998 26.3111 16.6166 26.7279C16.1335 27.1447 15.8135 27.7223 15.7145 28.3565L15.6479 28.7209L14.5262 35.9069L14.4757 36.1705C14.4725 36.2288 14.4471 36.2836 14.4048 36.3235C14.372 36.3509 14.3309 36.3661 14.2883 36.3666H8.81805Z" fill="#253B80"/>
<path d="M27.9744 10.0061C27.9407 10.2259 27.9017 10.45 27.8578 10.6808C26.3558 18.4723 21.2203 21.1644 14.6602 21.1644H11.3198C10.9325 21.1643 10.5579 21.3043 10.2638 21.559C9.96974 21.8137 9.77551 22.1664 9.71627 22.5533L8.00641 33.516L7.52217 36.6235C7.50464 36.7358 7.5092 36.8504 7.53557 36.9608C7.56195 37.0713 7.60962 37.1754 7.67587 37.2672C7.74212 37.359 7.82564 37.4366 7.92164 37.4957C8.01764 37.5548 8.12423 37.5942 8.23531 37.6116C8.27941 37.6189 8.32401 37.6225 8.36869 37.6225H14.2925C14.6318 37.6225 14.96 37.5002 15.2181 37.2776C15.4762 37.055 15.6473 36.7466 15.7008 36.408L15.7608 36.1043L16.8711 28.9486L16.9432 28.5557C16.9962 28.2169 17.1671 27.9084 17.4252 27.6857C17.6833 27.463 18.0115 27.3408 18.3509 27.3411H19.237C24.9764 27.3411 29.4697 24.9861 30.7831 18.1711C31.3316 15.3235 31.0474 12.9484 29.5959 11.2741C29.1358 10.7566 28.5861 10.3283 27.9738 10.0104L27.9744 10.0061Z" fill="#179BD7"/>
<path d="M26.4025 9.37223C25.923 9.23252 25.4354 9.1232 24.9425 9.04491C23.9685 8.89356 22.9841 8.82106 21.9987 8.8281H13.0745C12.7352 8.8276 12.407 8.94975 12.1491 9.1725C11.8911 9.39524 11.7205 9.70389 11.668 10.0427L9.76952 22.1957L9.71484 22.5504C9.77409 22.1635 9.96831 21.8108 10.2624 21.5561C10.5565 21.3014 10.9311 21.1614 11.3184 21.1615H14.6588C21.2188 21.1615 26.355 18.4682 27.8564 10.6779C27.9014 10.4471 27.9393 10.223 27.9729 10.0032C27.5767 9.79384 27.1637 9.61853 26.7383 9.47912C26.6266 9.44207 26.5148 9.40624 26.4019 9.37223H26.4025Z" fill="#222D65"/>
<path d="M11.6687 10.0436C11.7206 9.70458 11.891 9.39558 12.1491 9.17272C12.4071 8.94987 12.7357 8.82793 13.0751 8.82906H21.9987C22.9841 8.82233 23.9685 8.89482 24.9426 9.04586C25.5515 9.14257 26.1521 9.28693 26.739 9.47765C27.1639 9.61874 27.5766 9.79484 27.973 10.0042C28.42 7.12441 27.9694 5.16408 26.4296 3.38898C24.7311 1.43473 21.6665 0.595459 17.7451 0.595459H6.36186C5.97358 0.595461 5.5981 0.735829 5.30325 0.991205C5.00841 1.24658 4.81364 1.60013 4.75413 1.98797L0.0120741 32.3706C-0.00804779 32.4988 -0.00298068 32.6297 0.0269858 32.7559C0.0569524 32.8822 0.111231 33.0012 0.18672 33.1062C0.262209 33.2112 0.357429 33.3002 0.466939 33.368C0.576449 33.4357 0.698102 33.4811 0.824947 33.5013C0.87523 33.5093 0.926048 33.5134 0.976948 33.5135H8.00623L9.77076 22.1961L11.6687 10.0436Z" fill="#253B80"/>
</svg>
