<svg width="175" height="16" viewBox="0 0 175 16" fill="none" xmlns="http://www.w3.org/2000/svg">
<g clip-path="url(#clip0)">
<path d="M172.102 5.78049C170.503 5.78049 169.205 4.48227 169.205 2.88341C169.205 1.28455 170.503 -0.0136719 172.102 -0.0136719C173.687 -0.0136719 174.999 1.28455 174.999 2.88341C174.999 4.49593 173.687 5.78049 172.102 5.78049ZM172.102 0.49195C170.777 0.49195 169.697 1.57152 169.697 2.89707C169.697 4.22262 170.777 5.28853 172.102 5.28853C173.428 5.28853 174.494 4.22262 174.494 2.89707C174.494 1.57152 173.428 0.49195 172.102 0.49195Z" fill="black"/>
<path d="M170.873 1.33911H172.076C172.568 1.33911 173.06 1.54409 173.06 2.13171C173.06 2.58267 172.773 2.81498 172.404 2.92431L173.114 3.99021H173.442V4.34551H172.868L171.994 3.03363H171.611V3.99021H171.939V4.34551H170.859V3.97655H171.187V1.69441H170.859V1.33911H170.873ZM171.625 2.67833H171.843C172.417 2.67833 172.636 2.44601 172.636 2.1727C172.636 1.84473 172.39 1.69441 172.048 1.69441H171.625V2.67833Z" fill="black"/>
<path d="M5.88982 7.61179C7.88498 7.61179 8.89622 6.84652 8.89622 4.7967C8.89622 2.91087 8.11729 1.92695 6.16313 1.92695C5.93081 1.92695 5.23387 1.89962 5.16555 2.15927C5.11089 2.39158 5.11089 3.79912 5.11089 4.0861V7.62545H5.88982V7.61179ZM20.6485 9.40196L18.831 4.64638L16.8905 9.40196H20.6485ZM37.5664 1.77663C36.7874 1.88596 36.4731 2.45991 36.0768 3.15684L32.5785 9.07399V11.3015C32.5785 13.078 32.5375 13.9799 34.601 13.9116V14.6495H20.1702V13.9116C20.7988 13.8296 21.8921 13.8706 21.8921 12.9823C21.8921 12.6543 21.6188 11.9301 21.4958 11.6158L21.0585 10.4405H16.4942L16.2482 11.0418C16.0569 11.5611 15.7563 12.2307 15.7563 12.7773C15.7563 13.7886 16.7129 13.8569 17.4645 13.9116V14.6495H10.5224L7.58434 10.5089C6.90106 9.55228 6.01281 8.52737 5.43886 8.56837C5.32953 8.56837 5.20654 8.5957 5.11089 8.5957V11.3151C5.11089 13.0096 5.09722 13.9936 7.07871 13.9252V14.6632H0V13.9252C1.98149 13.9936 1.9405 13.0096 1.9405 11.3151V4.31841C1.9405 2.62389 1.98149 1.65364 0 1.7083V0.970369C1.17523 0.984035 2.3368 1.02503 3.51203 1.05236C4.63259 1.0387 5.7395 0.984035 6.86007 0.970369C7.85765 1.01137 9.36085 1.07969 10.2764 1.46233C11.6156 1.99528 12.3263 3.11585 12.3263 4.56439C12.3263 6.40923 10.7821 7.55713 9.07387 7.83043L11.9026 11.3698C12.3126 11.9437 12.7499 12.6133 13.2282 13.1326C13.3922 13.3103 13.6928 13.5426 14.0481 13.1326C14.6357 12.422 14.991 11.3971 15.319 10.6182L19.4186 0.779053H20.4162L24.6798 11.4108C24.9122 11.9711 25.3221 12.996 25.7321 13.4196C26.0874 13.7339 26.6067 13.8296 27.085 13.8979C27.1123 13.8979 27.4813 13.9116 27.5086 13.9116C29.4628 13.9116 29.3944 13.0643 29.4218 11.3015V9.48396L25.8414 3.11585C25.2811 2.1866 25.1855 1.95428 24.1059 1.7083V0.970369C25.1308 0.984035 26.1967 1.02503 27.2353 1.05236C28.4242 1.0387 29.5857 0.984035 30.7746 0.970369V1.7083C30.2144 1.7493 29.2304 1.81763 29.2304 2.59656C29.2304 3.00652 29.7634 3.93578 29.9684 4.31841L32.0319 8.06275L34.0134 4.74204C34.2867 4.25008 34.806 3.2935 34.806 2.76055C34.806 1.87229 34.0134 1.72197 33.2891 1.72197V0.970369H42.1853L46.2439 10.6182L49.961 0.970369C50.7399 0.984035 51.5325 1.02503 52.3114 1.05236C53.1313 1.0387 53.9649 0.984035 54.9215 0.970369V1.7083C52.9127 1.65364 52.9947 2.66489 52.981 4.35941V10.8505C52.981 11.3698 52.981 12.258 53.1313 12.8457C53.3363 13.7066 54.1289 13.8022 54.9079 13.9252V14.6632H47.8975V13.9252C48.6901 13.8022 49.469 13.7203 49.674 12.8457C49.8243 12.2717 49.8243 11.3698 49.8243 10.8505V4.31841H49.7833L45.67 14.6495H44.6724L40.3541 4.16809H40.3131V10.5225C40.3131 11.1921 40.3131 12.5177 40.6274 13.0916C40.9554 13.7066 41.666 13.8569 42.281 13.9252V14.6632H37.3614V13.9252C38.154 13.8022 38.9329 13.7203 39.1379 12.8457C39.2882 12.2717 39.2882 11.3698 39.2882 10.8505V2.62389C39.0286 2.13193 38.6049 1.89962 38.113 1.80396C38.031 1.7903 37.7714 1.7493 37.5664 1.77663Z" fill="black"/>
<path d="M55.2227 7.83043C55.2227 3.40282 58.762 0.779053 62.9163 0.779053C67.098 0.779053 70.5827 3.43015 70.5827 7.83043C70.5827 12.2307 67.0296 14.8818 62.848 14.8818C58.6937 14.8818 55.2227 12.2034 55.2227 7.83043ZM58.7893 7.70745C58.7893 10.3585 59.5136 13.9252 62.8343 13.9252C66.2234 13.9252 67.0023 10.7958 67.0023 7.95342C67.0023 5.17933 66.278 1.72197 62.8343 1.72197C59.5409 1.73564 58.7893 5.07001 58.7893 7.70745Z" fill="black"/>
<path d="M85.819 1.73548C83.9605 1.74915 83.9741 2.44609 83.9741 5.00153V14.95H82.9629L73.5747 4.26359V10.659C73.5747 12.2306 73.5747 13.8431 75.5699 13.9251V14.663H70.705V13.9251C72.4132 13.7611 72.5361 12.9138 72.5361 11.438V3.11569C71.8802 2.18644 71.6069 1.81747 70.4727 1.70815V0.970215C71.1286 0.98388 71.7845 1.02488 72.4405 1.05221C73.2331 1.03854 73.9847 0.98388 74.7773 0.970215L82.9492 10.3857V4.87854C82.9492 3.30701 82.9492 1.80381 80.9814 1.72182V0.970215H86.4203H92.6927C94.7152 0.970215 96.601 1.36651 98.1726 2.70573C99.7987 4.12694 100.509 6.01277 100.509 8.14459C100.509 10.0441 99.9081 11.7659 98.4869 13.0642C97.011 14.3897 95.0158 14.704 93.089 14.6493C91.9958 14.6357 86.4339 14.6493 86.4339 14.6493V13.9114C88.4154 13.9797 88.3881 12.9958 88.3881 11.3013V4.31825C88.3881 2.6784 88.4291 1.72182 86.4339 1.72182C86.4066 1.72182 85.8463 1.73548 85.819 1.73548ZM91.1485 10.0851C91.1485 10.7137 91.1485 12.1622 91.3535 12.6952C91.6268 13.4195 92.2827 13.7064 93.0207 13.7064C96.2321 13.7064 96.5464 10.5224 96.5464 8.0216C96.5464 6.64138 96.3551 4.96053 95.7264 3.71697C94.9748 2.30943 93.5536 1.91313 92.0641 1.91313C91.9001 1.91313 91.3808 1.95413 91.2442 2.10445C91.1485 2.18644 91.1485 2.47342 91.1485 2.59641V10.0851Z" fill="black"/>
<path d="M108.177 9.77078C108.177 9.77078 108.054 9.81177 107.903 9.9211C107.575 10.1807 107.261 11.233 107.452 12.3262C107.685 13.6791 108.969 14.4034 110.076 14.2531C112.153 13.9661 111.798 12.4082 111.798 8.00793V4.35925C111.798 2.6374 111.73 1.66715 109.721 1.70815V0.970215C110.759 0.997546 111.948 1.03854 112.973 1.05221C114.271 1.02488 115.747 0.98388 117.046 0.970215V1.72182C115.337 1.76281 115.091 2.06345 115.091 4.37292V9.36081C115.091 12.7772 114.189 14.581 110.91 15.155C108.518 15.5786 105.307 15.0456 104.405 12.6815C103.968 11.5063 104.132 10.2491 104.132 9.71612L107.179 9.11483L108.013 8.95085L108.177 9.77078Z" fill="black"/>
<path d="M122.934 9.38829L121.116 4.63271L119.162 9.38829H122.934ZM158.355 10.3039H159.175C159.749 12.1897 160.705 13.9252 163.001 13.9252C164.204 13.9252 165.365 13.1463 165.365 11.8617C165.365 9.93491 163.384 9.41562 161.935 8.80068C160.077 7.99441 158.56 6.95584 158.56 4.68737C158.56 2.14559 160.5 0.779046 162.905 0.779046C164.026 0.779046 165.187 1.02502 166.007 1.79029L166.281 0.984028H167.169L167.292 4.70104H166.404C166.035 3.10218 164.846 1.72196 163.056 1.72196C162.044 1.72196 161.006 2.29591 161.006 3.41648C161.006 4.96068 162.577 5.39798 163.753 5.93093C165.966 6.88751 168.057 7.85776 168.057 10.6182C168.057 13.4059 165.707 14.8545 163.151 14.8545C161.826 14.8545 160.487 14.4035 159.557 13.4469L159.27 14.6222H157.248H146.206H138.635V13.8842C139.428 13.7612 140.207 13.6792 140.412 12.8047C140.562 12.2307 140.562 11.3288 140.562 10.8095V4.30474H140.521L136.408 14.6495H135.41L131.092 4.16808H131.051V10.5089C131.051 11.1785 131.051 12.504 131.365 13.078C131.693 13.6929 132.404 13.8432 133.019 13.9116V14.6495H129.439H122.469V13.9116C123.084 13.8296 124.191 13.8706 124.191 12.9823C124.191 12.6543 123.918 11.9301 123.795 11.6158L123.357 10.4405H118.793L118.547 11.0418C118.356 11.5611 118.055 12.217 118.055 12.7773C118.055 13.7886 118.998 13.8569 119.777 13.9116V14.6495H115.158V13.9116C115.992 13.7612 116.497 13.078 116.894 12.3264C117.194 11.7524 117.427 11.1238 117.645 10.6045L121.745 0.765381H122.743L127.006 11.3971C127.238 11.9574 127.648 12.996 128.058 13.4059C128.209 13.5289 128.373 13.6383 128.564 13.6929C128.673 13.7339 128.933 13.7612 129.097 13.6792C129.466 13.5153 129.78 13.2966 129.89 12.8183C130.04 12.2444 130.04 11.3425 130.04 10.8232V2.61022C129.671 1.88595 128.865 1.76296 128.113 1.69463V0.956697C128.851 0.970363 129.616 1.02502 130.368 1.03869C131.242 1.02502 132.09 0.970363 132.951 0.956697L136.996 10.6045L140.713 0.956697H157.33L157.494 4.59171H156.606C156.25 2.54189 155.075 1.89961 153.094 1.89961C152.848 1.89961 151.522 1.89961 151.399 2.13193C151.331 2.24125 151.331 3.14317 151.331 3.30716V7.13349C152.998 7.13349 154.077 6.81918 154.159 4.90602H154.993C154.966 5.8626 154.925 6.80552 154.911 7.7621C154.925 8.60936 154.966 9.47029 154.993 10.3312H154.159C153.777 8.43171 153.23 8.10374 151.331 8.10374V10.5225C151.331 12.463 151.276 13.7066 153.708 13.7066C153.777 13.7066 154.679 13.7066 154.747 13.7066C156.934 13.6656 157.781 12.9276 158.314 10.6728C158.314 10.5225 158.355 10.3039 158.355 10.3039ZM148.147 4.3184C148.147 2.97919 148.174 2.1046 147.217 1.81762C147.026 1.76296 146.712 1.73563 146.37 1.72196H145.482C145.14 1.73563 144.84 1.76296 144.648 1.81762C143.692 2.1046 143.719 2.99285 143.719 4.3184V4.34573V10.8368V11.2878C143.719 12.627 143.692 13.5016 144.648 13.8022C144.84 13.8569 145.154 13.8842 145.496 13.8979H146.384C146.725 13.8842 147.04 13.8569 147.217 13.8022C148.174 13.5153 148.147 12.627 148.147 11.2878V4.3184Z" fill="black"/>
</g>
<defs>
<clipPath id="clip0">
<rect width="175" height="15.278" fill="white"/>
</clipPath>
</defs>
</svg>
