<svg width="14" height="14" viewBox="0 0 14 14" fill="none" xmlns="http://www.w3.org/2000/svg">
<path d="M14 0.78125C14 0.375 13.625 0 13.2188 0H0.75C0.34375 0 0 0.375 0 0.78125V13.25C0 13.6562 0.34375 14 0.75 14H7.46875V8.59375H5.625V6.46875H7.46875V4.90625C7.46875 3.125 8.5625 2.125 10.1875 2.125C10.9375 2.125 11.625 2.1875 11.8125 2.21875V4.09375H10.6875C9.8125 4.09375 9.65625 4.53125 9.65625 5.125V6.46875H11.75L11.4688 8.59375H9.65625V14H13.2188C13.625 14 14 13.6562 14 13.25V0.78125Z" fill="black"/>
</svg>
