<?xml version="1.0" encoding="utf-8"?>
<!-- Generator: Adobe Illustrator 24.0.0, SVG Export Plug-In . SVG Version: 6.00 Build 0)  -->
<svg version="1.1" id="Layer_1" xmlns="http://www.w3.org/2000/svg" xmlns:xlink="http://www.w3.org/1999/xlink" x="0px" y="0px"
	 viewBox="0 0 14 14" style="enable-background:new 0 0 14 14;" xml:space="preserve">
<path d="M7,3.4C5,3.4,3.4,5,3.4,7c0,2,1.6,3.6,3.6,3.6c2,0,3.6-1.6,3.6-3.6C10.6,5,9,3.4,7,3.4z M7,9.3c-1.3,0-2.3-1-2.3-2.3
	c0-1.3,1-2.3,2.3-2.3c1.3,0,2.3,1,2.3,2.3C9.3,8.3,8.3,9.3,7,9.3z M11.6,3.3c0-0.5-0.4-0.8-0.8-0.8c-0.5,0-0.8,0.4-0.8,0.8
	s0.4,0.8,0.8,0.8C11.2,4.1,11.6,3.7,11.6,3.3z M14,4.1C13.9,3,13.6,2,12.8,1.2S11,0.1,9.9,0C8.7,0,5.3,0,4.1,0C3,0.1,2,0.4,1.2,1.2
	C0.4,2,0.1,3,0,4.1C0,5.3,0,8.7,0,9.9C0.1,11,0.4,12,1.2,12.8C2,13.6,3,13.9,4.1,14C5.3,14,8.7,14,9.9,14c1.1-0.1,2.1-0.3,2.9-1.1
	C13.6,12,13.9,11,14,9.9C14,8.7,14,5.3,14,4.1z M12.5,11.1c-0.2,0.6-0.7,1.1-1.3,1.3C10.2,12.8,8,12.7,7,12.7c-1,0-3.2,0.1-4.1-0.3
	c-0.6-0.2-1.1-0.7-1.3-1.3C1.2,10.2,1.3,8,1.3,7c0-1-0.1-3.2,0.3-4.1c0.2-0.6,0.7-1.1,1.3-1.3C3.8,1.2,6,1.3,7,1.3
	c1,0,3.2-0.1,4.1,0.3c0.6,0.2,1.1,0.7,1.3,1.3C12.8,3.8,12.7,6,12.7,7C12.7,8,12.8,10.2,12.5,11.1z"/>
</svg>
