<?xml version="1.0" encoding="utf-8"?>
<!-- Generator: Adobe Illustrator 24.0.0, SVG Export Plug-In . SVG Version: 6.00 Build 0)  -->
<svg version="1.1" id="Layer_1" xmlns="http://www.w3.org/2000/svg" xmlns:xlink="http://www.w3.org/1999/xlink" x="0px" y="0px"
	 viewBox="0 0 16 13" style="enable-background:new 0 0 16 13;" xml:space="preserve">
<path d="M14.3,3.2c0.6-0.5,1.2-1,1.6-1.7C15.4,1.8,14.8,2,14.1,2c0.7-0.4,1.2-1,1.4-1.8c-0.6,0.4-1.3,0.7-2.1,0.8
	c-0.6-0.7-1.5-1-2.4-1C9.2,0,7.8,1.5,7.8,3.3c0,0.2,0,0.5,0.1,0.8C5.2,3.9,2.7,2.6,1.1,0.6c-0.3,0.5-0.4,1-0.4,1.7
	c0,1.1,0.6,2.1,1.5,2.7c-0.5,0-1.1-0.2-1.5-0.4v0c0,1.6,1.1,2.9,2.6,3.2C3,7.9,2.7,7.9,2.4,7.9c-0.2,0-0.4,0-0.6-0.1
	c0.4,1.3,1.6,2.2,3.1,2.3c-1.1,0.9-2.5,1.4-4.1,1.4c-0.3,0-0.5,0-0.8-0.1C1.4,12.4,3.2,13,5,13c6,0,9.3-5,9.3-9.3
	C14.3,3.5,14.3,3.4,14.3,3.2z"/>
</svg>
